<?xml version="1.0" encoding="utf-8"?>
<!-- Generator: Adobe Illustrator 16.0.0, SVG Export Plug-In . SVG Version: 6.00 Build 0)  -->
<!DOCTYPE svg PUBLIC "-//W3C//DTD SVG 1.1//EN" "http://www.w3.org/Graphics/SVG/1.1/DTD/svg11.dtd">
<svg version="1.1" id="Layer_1" xmlns="http://www.w3.org/2000/svg" xmlns:xlink="http://www.w3.org/1999/xlink" x="0px" y="0px"
	 width="128px" height="128px" viewBox="0 0 128 128" enable-background="new 0 0 128 128" xml:space="preserve">
<g>
	<circle fill="#EDC55D" cx="64" cy="64" r="64"/>
	<path fill="#EE9831" d="M86.337,33.946l-0.733,1.222L67.73,36.471l-1.413,0.944l4.02,3.71l0.372,2.234l-9.026-9.132l-8.848,1.498
		l-11.002,1.689l2.81,2.779l1.117,5.399l-4.654,2.234L37.487,43.5l-1.595,46.965L33.1,92.512l-1.547,1.621l33.745,33.834
		c31.082-0.621,56.717-23.387,61.778-53.176L86.337,33.946z"/>
	<path fill="#FFFFFF" d="M61.683,34.228h-19.85v3.188h2.066v37.989c0,4.209,3.445,7.654,7.655,7.654h0.405
		c4.21,0,7.654-3.445,7.654-7.654V37.416h2.068V34.228z"/>
	<path fill="#FFFFFF" d="M86.167,34.228h-19.85v3.188h2.068v37.989c0,4.209,3.444,7.654,7.654,7.654h0.405
		c4.21,0,7.655-3.445,7.655-7.654V37.416h2.066V34.228z"/>
	<rect x="60.057" y="46.977" fill="#E1574C" width="7.887" height="1.739"/>
	<rect x="37.018" y="46.977" fill="#E1574C" width="6.23" height="1.739"/>
	<rect x="84.752" y="46.977" fill="#E1574C" width="6.23" height="1.739"/>
	<path fill="#3CB19C" d="M45.431,58.422v16.982c0,3.375,2.748,6.123,6.124,6.123h0.405c3.377,0,6.124-2.748,6.124-6.123V58.422
		H45.431z"/>
	<path fill="#EDC55D" d="M69.916,58.422v16.982c0,3.375,2.747,6.123,6.124,6.123h0.405c3.376,0,6.124-2.748,6.124-6.123V58.422
		H69.916z"/>
	<rect x="32.055" y="88.557" fill="#C84642" width="63.891" height="5.217"/>
	<rect x="90.513" y="43.5" fill="#C84642" width="2.463" height="46.506"/>
	<rect x="35.024" y="43.5" fill="#C84642" width="2.463" height="46.506"/>
	<rect x="67.134" y="45.457" fill="#C84642" width="2.318" height="4.78"/>
	<rect x="58.548" y="45.457" fill="#C84642" width="2.318" height="4.78"/>
	<rect x="42.524" y="45.457" fill="#C84642" width="2.317" height="4.78"/>
	<rect x="83.158" y="45.457" fill="#C84642" width="2.317" height="4.78"/>
	<circle fill="#EDC55D" cx="78.951" cy="46.213" r="1.547"/>
	<circle fill="#3CB19C" cx="50.131" cy="50.634" r="1.547"/>
	<circle fill="#FFFFFF" cx="73.411" cy="66.492" r="1.191"/>
	<circle fill="#FFFFFF" cx="53.029" cy="73.863" r="1.75"/>
	<circle fill="#FFFFFF" cx="78.697" cy="75.031" r="0.886"/>
	<circle fill="#FFFFFF" cx="52.773" cy="63.646" r="0.886"/>
</g>
</svg>
