<?xml version="1.0" encoding="utf-8"?>
<!-- Generator: Adobe Illustrator 16.0.0, SVG Export Plug-In . SVG Version: 6.00 Build 0)  -->
<!DOCTYPE svg PUBLIC "-//W3C//DTD SVG 1.1//EN" "http://www.w3.org/Graphics/SVG/1.1/DTD/svg11.dtd">
<svg version="1.1" id="Layer_1" xmlns="http://www.w3.org/2000/svg" xmlns:xlink="http://www.w3.org/1999/xlink" x="0px" y="0px"
	 width="128px" height="128px" viewBox="0 0 128 128" enable-background="new 0 0 128 128" xml:space="preserve">
<g>
	<circle fill="#F08280" cx="64" cy="64" r="64"/>
	<path fill="#D35A5B" d="M98.606,36.746l-1.85,1.093l-13.184,0.307l-27.594-1.227l-3.801-4.895l-3.558,5.201l-14.104,1.227
		l-4.293,42.617l7.972,9.504l-2.768,5.404l33.26,31.834c32.442-2.352,58.167-28.873,59.257-61.65L98.606,36.746z"/>
	<g>
		<polygon fill="#EFD81F" points="38.585,95.977 35.429,95.977 49.023,32.024 52.179,32.024 		"/>
		<polygon fill="#EFD81F" points="89.415,95.977 92.57,95.977 78.976,32.024 75.821,32.024 		"/>
	</g>
	<path fill="#A98379" d="M99.553,78.289c0,2.129-1.741,3.871-3.871,3.871H32.318c-2.13,0-3.871-1.742-3.871-3.871v-39.03
		c0-2.13,1.741-3.871,3.871-3.871h63.363c2.13,0,3.871,1.741,3.871,3.871V78.289z"/>
	<rect x="33.608" y="40.549" fill="#44485A" width="60.783" height="36.449"/>
	<g>
		<path fill="#FFFFFF" d="M53.636,60.834c-0.146,0-0.29,0.107-0.429,0.32c-0.139,0.215-0.288,0.355-0.448,0.424
			c-0.162,0.07-0.255,0.164-0.28,0.282c-0.026,0.116-0.104,0.175-0.234,0.175l-0.208,0.183c-0.104,0.087-0.195,0.197-0.273,0.327
			l-0.129,0.051c-0.053,0.018-0.142,0.107-0.268,0.268c-0.125,0.161-0.326,0.277-0.605,0.347c-0.061-0.053-0.09-0.161-0.09-0.326
			l0.051-0.366l-0.025-0.324c0-0.071,0.037-0.151,0.111-0.242c0.073-0.091,0.111-0.164,0.111-0.216v-0.026l0.182-0.534
			c0.018-0.087,0.043-0.166,0.078-0.234c0.505-0.505,0.757-1.041,0.757-1.605c0-0.479-0.188-0.718-0.561-0.718
			c-0.522,0-0.864,0.158-1.026,0.476c-0.16,0.317-0.284,0.477-0.37,0.477c-0.07,0-0.113-0.078-0.131-0.234
			c-0.054-0.749-0.349-1.123-0.889-1.123c-0.052,0-0.097,0.009-0.131,0.026l-0.208,0.105h-0.027c-0.13-0.07-0.213-0.105-0.247-0.105
			h-0.078c-0.429,0.217-0.658,0.327-0.693,0.327H47.47c-0.113,0-0.269,0.057-0.464,0.17s-0.397,0.206-0.601,0.279
			c-0.205,0.074-0.389,0.189-0.55,0.346c-0.16,0.157-0.267,0.244-0.319,0.262c-0.355,0.182-0.688,0.426-0.992,0.731l-0.393,0.391
			c-0.217,0.148-0.365,0.282-0.443,0.404s-0.184,0.24-0.313,0.359c-0.131,0.117-0.192,0.228-0.183,0.332l-0.131,0.169
			c-0.053,0.035-0.154,0.172-0.307,0.411s-0.229,0.377-0.229,0.41l0.025,0.354c-0.164,0-0.246,0.053-0.246,0.156l0.025,0.431v0.078
			c-0.019,0.035-0.025,0.104-0.025,0.209c0,0.217,0.037,0.387,0.117,0.509l0.129,0.535c0.027,0.184,0.197,0.34,0.51,0.471
			c0.313,0.129,0.587,0.195,0.821,0.195c0.287,0,0.778-0.23,1.474-0.691l0.08-0.078c0.2-0.105,0.352-0.191,0.456-0.262l0.991-0.81
			c0.123-0.086,0.223-0.196,0.301-0.333c0.078-0.133,0.125-0.21,0.144-0.228l0.248,0.026l0.13-0.131
			c0.044-0.061,0.123-0.111,0.235-0.15s0.178-0.089,0.195-0.149l0.054-0.078c0.103-0.069,0.191-0.149,0.26-0.234
			c0.045-0.167,0.1-0.275,0.17-0.327c0.121,0,0.229-0.044,0.32-0.129c0.092-0.089,0.154-0.132,0.189-0.132
			c0.034,0,0.052,0.025,0.052,0.078l-0.079,0.64c0,0.035,0.01,0.079,0.027,0.129c0.017,0.054,0.025,0.102,0.025,0.145
			c0,0.035-0.009,0.062-0.025,0.078c-0.018,0.018-0.027,0.045-0.027,0.079s0.022,0.078,0.064,0.13
			c0.045,0.053,0.066,0.096,0.066,0.131l-0.052,0.247c0,0.175,0.039,0.313,0.117,0.412s0.121,0.18,0.131,0.24
			c0.008,0.061,0.038,0.118,0.091,0.171c0.147,0.018,0.291,0.059,0.432,0.123c0.139,0.065,0.289,0.098,0.455,0.098
			c0.035,0,0.098-0.023,0.189-0.071c0.091-0.048,0.229-0.099,0.417-0.149c0.187-0.053,0.323-0.123,0.411-0.209l0.026-0.131
			c0.12-0.035,0.226-0.074,0.313-0.118c0.139-0.156,0.267-0.242,0.386-0.26c0.115-0.018,0.207-0.096,0.271-0.235
			c0.066-0.139,0.194-0.238,0.387-0.3l0.131-0.183c0.163-0.113,0.267-0.209,0.306-0.287s0.124-0.151,0.253-0.223l0.092-0.168
			l0.053-0.366c0.174-0.305,0.262-0.6,0.262-0.887c0-0.053-0.035-0.122-0.104-0.209S53.688,60.834,53.636,60.834z M49.054,60.823
			c-0.308,0.313-0.545,0.53-0.711,0.652c-0.035,0.104-0.141,0.207-0.32,0.307c-0.178,0.1-0.284,0.245-0.32,0.437
			c-0.129,0.061-0.217,0.121-0.259,0.183c-0.044,0.063-0.161,0.135-0.353,0.223l-0.275,0.207c-0.33,0.185-0.569,0.318-0.717,0.406
			c-0.062,0.096-0.147,0.171-0.261,0.227c-0.113,0.059-0.191,0.109-0.234,0.158c-0.044,0.047-0.089,0.075-0.131,0.084
			c-0.043,0.009-0.083,0.03-0.117,0.065l-0.249,0.131c-0.104,0.035-0.174,0.069-0.209,0.104c-0.035,0.035-0.162,0.099-0.384,0.189
			c-0.222,0.092-0.366,0.138-0.438,0.138c-0.165,0-0.247-0.214-0.247-0.64c0-0.069,0.049-0.164,0.148-0.279
			c0.102-0.119,0.159-0.25,0.177-0.394c0.018-0.143,0.078-0.234,0.183-0.272c0.105-0.04,0.191-0.091,0.262-0.151l0.09-0.222
			c0-0.024,0.113-0.131,0.34-0.313c0.061-0.234,0.195-0.388,0.405-0.456c0.348-0.244,0.553-0.431,0.613-0.562
			c0.104,0,0.271-0.085,0.495-0.255c0.226-0.169,0.48-0.288,0.764-0.357c0.283-0.071,0.475-0.134,0.574-0.189
			c0.1-0.058,0.22-0.086,0.359-0.086l0.26,0.053l0.17-0.026l0.184,0.093l0.248-0.028l0.235,0.028l0.104-0.066h0.026
			c0.033,0,0.052,0.013,0.052,0.038C49.518,60.319,49.364,60.51,49.054,60.823z"/>
		<path fill="#FFFFFF" d="M71.706,61.371c0-0.026-0.049-0.152-0.145-0.38c0.147-0.016,0.223-0.09,0.223-0.222
			c0-0.174-0.084-0.259-0.249-0.259c-0.069,0-0.231,0.093-0.487,0.279c-0.258,0.188-0.396,0.335-0.418,0.443
			s-0.076,0.164-0.163,0.164l-0.156-0.026c-0.034,0-0.122,0.062-0.261,0.183l-0.052,0.053c-0.218,0.061-0.405,0.212-0.562,0.456
			c-0.096,0.036-0.16,0.073-0.195,0.117c-0.033,0.044-0.124,0.096-0.267,0.156c-0.144,0.063-0.283,0.143-0.417,0.241
			c-0.135,0.101-0.215,0.151-0.242,0.151h-0.193c-0.252,0.243-0.504,0.401-0.75,0.476c-0.248,0.073-0.425,0.189-0.528,0.346
			c-0.461,0.122-0.708,0.274-0.743,0.456l-0.116,0.026h-0.131c-0.121,0.096-0.191,0.144-0.21,0.144
			c-0.018,0-0.085,0.015-0.207,0.039c-0.123,0.026-0.273,0.054-0.457,0.078l-0.561,0.091h-0.195c-0.392,0-0.587-0.134-0.587-0.403
			l0.104-0.456l-0.026-0.287c0-0.035,0.042-0.09,0.125-0.164c0.082-0.073,0.124-0.136,0.124-0.188v-0.132
			c-0.018-0.067-0.027-0.111-0.027-0.129c0-0.069,0.057-0.15,0.17-0.241c0.113-0.092,0.209-0.173,0.287-0.242l0.338-0.562
			c0.252-0.32,0.412-0.552,0.482-0.69h0.078c0.078-0.018,0.203-0.073,0.377-0.169c0.07-0.124,0.177-0.218,0.319-0.287
			c0.143-0.071,0.245-0.138,0.306-0.203c0.061-0.064,0.142-0.112,0.241-0.144c0.1-0.03,0.22-0.094,0.358-0.189
			c0.043-0.087,0.078-0.147,0.104-0.183h0.025l0.105,0.026l0.117,0.104h0.025c0.131-0.078,0.316-0.144,0.561-0.196
			c0.182,0.078,0.402,0.144,0.664,0.196c0.104,0.121,0.191,0.182,0.26,0.182c0.199,0,0.415-0.093,0.645-0.279
			s0.346-0.351,0.346-0.489c0-0.035-0.045-0.194-0.131-0.477c-0.088-0.282-0.178-0.443-0.268-0.483
			c-0.091-0.038-0.18-0.085-0.268-0.137c-0.087-0.053-0.148-0.078-0.183-0.078c-0.095,0-0.195,0.054-0.3,0.156
			c-0.356-0.139-0.551-0.209-0.586-0.209c-0.139,0-0.257,0.035-0.354,0.106c-0.096,0.067-0.146,0.103-0.156,0.103
			c-0.018,0-0.035-0.007-0.051-0.026c-0.052-0.052-0.162-0.076-0.326-0.076c-0.174,0-0.313,0.085-0.418,0.259h-0.195
			c-0.156,0-0.404,0.113-0.743,0.341l-0.481,0.3c-0.122,0.147-0.257,0.268-0.404,0.357c-0.147,0.093-0.27,0.207-0.365,0.347
			c-0.13-0.026-0.266,0.057-0.404,0.247c-0.014,0.02-0.021,0.026-0.031,0.044c0.002-0.059,0.014-0.093,0.014-0.161
			c0-0.069-0.043-0.104-0.131-0.104c-0.234,0-0.395,0.056-0.482,0.169c-0.086,0.113-0.139,0.169-0.156,0.169h-0.196
			c-0.035,0-0.124,0.064-0.267,0.19c-0.145,0.126-0.33,0.248-0.561,0.364c-0.23,0.118-0.447,0.271-0.653,0.457
			c-0.204,0.188-0.458,0.281-0.763,0.281c-0.14,0-0.209-0.03-0.209-0.092c-0.104-0.314-0.311-0.471-0.613-0.471
			c-0.01,0-0.152,0.054-0.43,0.156c-0.105-0.033-0.189-0.063-0.255-0.09c-0.065-0.025-0.134-0.039-0.202-0.039l-0.666,0.235
			c-0.234,0-0.457,0.161-0.666,0.481c-0.096,0.14-0.207,0.271-0.338,0.398c-0.131,0.126-0.197,0.267-0.197,0.424
			c0,0.34,0.088,0.525,0.262,0.562c0.355,0,0.535,0.091,0.535,0.274c0,0.174-0.072,0.383-0.215,0.625
			c-0.143,0.244-0.295,0.4-0.451,0.471l-0.156,0.078c-0.148,0.175-0.256,0.26-0.326,0.26c-0.137,0-0.207-0.139-0.207-0.417
			c0-0.095-0.035-0.204-0.104-0.326l0.025-0.287v-0.482l-0.051-0.273v-0.078c0.086-0.356,0.129-0.657,0.129-0.9v-0.04l-0.129-0.234
			c0-0.087,0.033-0.165,0.097-0.234c0.064-0.07,0.153-0.356,0.267-0.862h0.024c0.288,0.253,0.474,0.378,0.562,0.378
			c0.035,0,0.053-0.007,0.053-0.024c0.207-0.043,0.35-0.104,0.424-0.183s0.337-0.465,0.789-1.161c0.174-0.07,0.262-0.2,0.262-0.392
			c0-0.287,0.025-0.439,0.078-0.457l0.273-0.025c0.027-0.009,0.098-0.096,0.217-0.263c0.115-0.163,0.184-0.256,0.201-0.271
			l-0.053-0.25c0.018-0.052,0.064-0.104,0.143-0.156c0.156-0.018,0.267-0.099,0.327-0.24c0.062-0.144,0.132-0.237,0.216-0.281
			c0.082-0.043,0.123-0.083,0.123-0.117l-0.025-0.378v-0.026l0.262,0.026c0.025-0.026,0.049-0.109,0.071-0.248
			c0.021-0.139,0.07-0.237,0.149-0.294c0.078-0.057,0.142-0.146,0.189-0.268s0.115-0.218,0.203-0.287
			c0.061-0.174,0.186-0.404,0.378-0.691l0.078-0.182c0-0.062,0.05-0.186,0.149-0.373c0.1-0.187,0.22-0.384,0.359-0.594
			c0.104-0.286,0.204-0.482,0.3-0.586h0.025l-0.065-0.274c0.062-0.121,0.113-0.191,0.157-0.209s0.082-0.078,0.117-0.183l0.353-0.679
			c0.07-0.068,0.152-0.356,0.248-0.86s0.148-0.812,0.156-0.92c0.01-0.108,0.041-0.214,0.098-0.313s0.086-0.176,0.086-0.229
			c0-0.209-0.109-0.466-0.328-0.77c-0.217-0.304-0.396-0.457-0.534-0.457c-0.156,0-0.337,0.085-0.542,0.254
			c-0.203,0.17-0.327,0.265-0.37,0.281c-0.245,0.096-0.448,0.301-0.614,0.613c-0.104,0-0.209,0.108-0.313,0.325l-0.432,0.536
			c-0.174,0.104-0.36,0.273-0.56,0.509c-0.14,0.278-0.305,0.539-0.497,0.782c-0.191,0.245-0.348,0.488-0.469,0.731
			c-0.096,0.042-0.184,0.108-0.262,0.195l-0.156,0.287c-0.131,0.183-0.196,0.309-0.196,0.379l0.053,0.104
			c0,0.053-0.042,0.087-0.131,0.104c-0.086,0.018-0.159,0.098-0.214,0.241c-0.059,0.144-0.094,0.232-0.111,0.267
			c-0.209,0.148-0.34,0.302-0.393,0.458c-0.051,0.157-0.124,0.296-0.215,0.417c-0.091,0.122-0.197,0.331-0.32,0.627
			c-0.129,0.052-0.207,0.116-0.234,0.194c-0.025,0.079-0.072,0.209-0.144,0.394l0.026,0.156c0,0.051-0.043,0.09-0.129,0.115
			c-0.086,0.028-0.139,0.089-0.156,0.185l-0.142,0.482l-0.182,0.364c-0.035,0.131-0.083,0.222-0.144,0.274s-0.109,0.186-0.148,0.398
			c-0.038,0.213-0.119,0.373-0.24,0.482s-0.182,0.285-0.182,0.528l0.025,0.17v0.104c0,0.069-0.025,0.104-0.078,0.104
			c-0.113,0-0.178,0.053-0.195,0.157l-0.025,0.222c-0.035,0.069-0.061,0.156-0.078,0.261c-0.018,0.104-0.049,0.22-0.092,0.346
			s-0.064,0.199-0.064,0.215c0,0.034,0.053,0.223,0.156,0.562c-0.234,0.296-0.352,0.713-0.352,1.252
			c0,0.018,0.041,0.099,0.123,0.242s0.125,0.242,0.125,0.292c-0.185,0.036-0.275,0.223-0.275,0.563c0,0.096,0.076,0.383,0.229,0.861
			c0.151,0.479,0.271,0.763,0.358,0.861c0.086,0.096,0.229,0.201,0.428,0.318c0.199,0.119,0.402,0.178,0.61,0.178l0.351-0.025
			c0.172,0,0.395-0.053,0.664-0.158c0.27-0.104,0.412-0.156,0.43-0.156c0.14,0,0.227-0.047,0.262-0.143l0.091-0.184l0.156-0.078
			c0.104-0.234,0.292-0.396,0.562-0.482c0.053-0.019,0.193-0.24,0.424-0.666c0.23-0.427,0.381-0.64,0.451-0.64l0.3,0.026
			l0.521-0.091c0.164-0.018,0.263-0.104,0.292-0.263c0.031-0.156,0.117-0.234,0.256-0.234c0.018,0,0.025,0.01,0.025,0.027
			c0.088,0.104,0.148,0.156,0.184,0.156c0.234-0.174,0.377-0.301,0.431-0.379c0.035-0.207,0.078-0.313,0.131-0.313
			c0.017,0,0.058,0.022,0.124,0.065c0.064,0.044,0.123,0.065,0.176,0.065c0.104,0,0.256-0.151,0.456-0.457
			c0.067-0.017,0.134-0.073,0.202-0.163c-0.008,0.025-0.028,0.067-0.028,0.086v0.13c-0.216,0.078-0.36,0.269-0.43,0.568
			s-0.14,0.539-0.208,0.717c-0.07,0.178-0.105,0.312-0.105,0.397c0,0.062,0.01,0.101,0.027,0.118l0.104,0.313
			c0.096,0.521,0.282,0.81,0.563,0.862l0.078,0.104c0.086,0.208,0.146,0.328,0.182,0.353l0.562,0.287
			c0.096,0.086,0.194,0.131,0.3,0.131c0.018,0,0.16-0.045,0.43-0.131c0.069,0.035,0.147,0.088,0.236,0.162
			c0.085,0.074,0.229,0.111,0.43,0.111h0.025c0.139-0.078,0.289-0.123,0.45-0.131c0.16-0.008,0.241-0.078,0.241-0.209
			s0.043-0.195,0.131-0.195h0.025c0.148,0.105,0.238,0.156,0.274,0.156c0.035,0,0.103-0.049,0.202-0.15
			c0.1-0.1,0.176-0.166,0.229-0.201c0.208,0,0.352-0.07,0.43-0.208l0.236,0.052c0.104-0.034,0.184-0.09,0.24-0.163
			c0.057-0.074,0.15-0.158,0.281-0.254c0.129-0.097,0.207-0.168,0.227-0.216c0.022-0.048,0.047-0.085,0.073-0.111h0.195l0.261-0.17
			c0.131-0.121,0.222-0.191,0.274-0.208c0.13-0.044,0.343-0.213,0.638-0.509c0.053-0.122,0.096-0.183,0.131-0.183
			c0.053,0,0.123,0.043,0.209,0.131h0.039l0.262-0.274c0.252-0.252,0.474-0.432,0.665-0.534l0.053-0.078l0.194-0.027
			c0.027-0.026,0.044-0.046,0.053-0.059s0.009-0.021,0-0.021l0.025-0.234c0-0.034,0.018-0.061,0.053-0.078
			C71.562,61.845,71.706,61.658,71.706,61.371z M57.271,58.983c0-0.104,0.052-0.256,0.158-0.456l0.025-0.078
			c0.018-0.122,0.043-0.217,0.078-0.288l0.299-0.612c0.209-0.191,0.371-0.496,0.484-0.915c0.068-0.067,0.112-0.129,0.13-0.181
			l0.208-0.484c0.035-0.085,0.118-0.139,0.25-0.156c0.033-0.217,0.051-0.343,0.051-0.378l0.482-0.587
			c0.088-0.052,0.131-0.117,0.131-0.195l0.078-0.13c0.148-0.4,0.25-0.634,0.307-0.698c0.057-0.065,0.16-0.191,0.314-0.379
			c0.15-0.187,0.246-0.349,0.285-0.483s0.115-0.241,0.229-0.319s0.179-0.134,0.197-0.169l0.051-0.248l0.301-0.379l0.051-0.157
			c0.219-0.27,0.375-0.496,0.472-0.685c0.095-0.188,0.224-0.332,0.391-0.437l0.104-0.104c0.087-0.322,0.23-0.509,0.43-0.563v0.157
			l-0.091,0.457l0.065,0.273l-0.404,1.121l-0.131,0.209c-0.027,0.234-0.085,0.398-0.176,0.489c-0.092,0.092-0.186,0.255-0.281,0.49
			c-0.096,0.234-0.238,0.498-0.424,0.789c-0.188,0.291-0.289,0.503-0.307,0.634c-0.191,0.164-0.291,0.277-0.3,0.338
			c-0.009,0.062-0.044,0.118-0.104,0.17s-0.139,0.135-0.234,0.248l-0.053,0.104c-0.088,0.123-0.135,0.239-0.145,0.353
			c-0.007,0.113-0.047,0.196-0.117,0.248c-0.068,0.052-0.167,0.147-0.293,0.286c-0.126,0.141-0.215,0.236-0.268,0.287l-0.104,0.185
			c0,0.052-0.046,0.123-0.139,0.214c-0.09,0.092-0.162,0.172-0.213,0.242l-0.785,1.043c-0.033,0.071-0.11,0.138-0.228,0.202
			c-0.117,0.065-0.202,0.177-0.253,0.333c-0.053,0.157-0.123,0.264-0.209,0.319c-0.088,0.059-0.156,0.107-0.209,0.151
			c-0.054,0.043-0.088,0.064-0.105,0.064h-0.026C57.263,59.126,57.271,59.018,57.271,58.983z"/>
		<path fill="#FFFFFF" d="M84.211,49.524c-0.253,0-0.448,0.102-0.587,0.3l-0.301,0.313c-0.104,0.078-0.274,0.294-0.514,0.646
			c-0.24,0.352-0.41,0.614-0.51,0.783c-0.1,0.17-0.266,0.386-0.496,0.646c-0.229,0.261-0.346,0.443-0.346,0.548l0.054,0.182
			l-0.028,0.092c-0.104,0.069-0.206,0.117-0.305,0.144c-0.101,0.026-0.187,0.142-0.254,0.347c-0.07,0.204-0.124,0.322-0.158,0.357
			c-0.033,0.035-0.079,0.103-0.137,0.202c-0.056,0.101-0.106,0.185-0.148,0.255c-0.045,0.07-0.071,0.146-0.08,0.229
			c-0.009,0.084-0.065,0.159-0.17,0.229l-0.158,0.234c-0.105,0.383-0.284,0.757-0.537,1.123c-0.148,0.303-0.242,0.519-0.277,0.645
			s-0.061,0.198-0.078,0.216c-0.088,0.409-0.25,0.765-0.486,1.069l-0.156,0.21c-0.113,0.321-0.205,0.481-0.275,0.481
			c-0.033-0.052-0.068-0.095-0.104-0.13c-0.035-0.034-0.078-0.153-0.131-0.352c-0.053-0.201-0.171-0.371-0.359-0.51
			c-0.188-0.139-0.371-0.209-0.555-0.209c-0.086,0-0.199,0.07-0.34,0.209c-0.146-0.07-0.239-0.104-0.273-0.104
			c-0.053,0-0.105,0.018-0.157,0.052c-0.052,0.035-0.104,0.053-0.157,0.053h-0.145c-0.181,0.078-0.305,0.147-0.365,0.21
			c-0.182,0-0.4,0.125-0.652,0.378l-0.053,0.024c-0.121,0.018-0.212,0.054-0.273,0.105c-0.063,0.051-0.178,0.14-0.354,0.261
			c-0.174,0.122-0.32,0.279-0.443,0.47c-0.366,0.261-0.648,0.553-0.85,0.873l-0.104,0.027L72.87,60.3
			c-0.113,0.121-0.285,0.398-0.518,0.829c-0.229,0.43-0.354,0.685-0.37,0.763c-0.018,0.079-0.112,0.229-0.282,0.45
			c-0.169,0.222-0.254,0.485-0.254,0.789l0.078,0.235c-0.035,0.035-0.078,0.052-0.131,0.052c-0.051,0.113-0.078,0.196-0.078,0.248
			l0.105,0.666c0.025,0.209,0.086,0.384,0.182,0.527c0.097,0.144,0.16,0.265,0.196,0.361c0.035,0.096,0.144,0.209,0.327,0.344
			c0.182,0.137,0.432,0.203,0.744,0.203c0.443,0,0.801-0.131,1.07-0.391c0.061-0.045,0.131-0.078,0.209-0.105
			c0.078-0.139,0.141-0.238,0.185-0.3l0.222-0.052c0.034,0.018,0.061,0.026,0.078,0.026c0.035,0,0.1-0.104,0.195-0.313
			c0.096-0.209,0.205-0.329,0.326-0.36c0.123-0.03,0.199-0.104,0.229-0.222c0.03-0.116,0.063-0.176,0.099-0.176
			c0.129,0,0.217-0.102,0.261-0.306s0.1-0.308,0.17-0.308h0.025l0.157,0.104c0.061,0,0.152-0.16,0.273-0.482
			c0.297-0.234,0.478-0.419,0.542-0.549c0.065-0.13,0.116-0.204,0.151-0.222l0.078-0.052c0.061-0.061,0.118-0.104,0.17-0.131
			c0.123,0,0.209-0.134,0.261-0.404l0.104-0.052l0.027-0.17c0.121,0,0.23,0.278,0.326,0.835l0.025,0.534
			c0.121,0.288,0.193,0.533,0.215,0.739c0.023,0.204,0.194,0.43,0.517,0.678c0.321,0.247,0.675,0.372,1.056,0.372l0.406-0.08
			c0.227,0,0.387-0.043,0.482-0.13s0.165-0.142,0.209-0.17h0.301c0.033,0,0.092-0.073,0.17-0.222
			c0.078-0.147,0.178-0.222,0.299-0.222c0.036,0,0.074,0.018,0.117,0.053c0.123-0.183,0.201-0.326,0.236-0.431l0.247,0.053
			c0.053-0.035,0.113-0.104,0.185-0.209v-0.117c0-0.069,0.06-0.138,0.181-0.203c0.122-0.065,0.257-0.201,0.405-0.411
			c0.217-0.035,0.358-0.126,0.424-0.273c0.066-0.147,0.155-0.278,0.268-0.392c0.27-0.069,0.405-0.257,0.405-0.561
			c0-0.034-0.044-0.17-0.131-0.404l0.104-0.366c0-0.087-0.074-0.131-0.221-0.131c-0.07,0-0.156,0.044-0.262,0.131l-0.104,0.104
			c-0.165,0.052-0.325,0.208-0.481,0.471c-0.156,0.261-0.499,0.564-1.028,0.912c-0.027,0.026-0.062,0.07-0.104,0.131
			c-0.044,0.061-0.11,0.108-0.202,0.144c-0.092,0.036-0.154,0.069-0.188,0.104c-0.13,0.263-0.469,0.532-1.016,0.81l-0.183,0.078
			c-0.182,0.157-0.3,0.235-0.354,0.235c-0.103,0-0.156-0.069-0.156-0.209l0.027-0.299l-0.156-0.536l0.051-0.183l-0.024-0.353
			l0.156-0.899c0.103-0.835,0.239-1.283,0.404-1.344l0.104-0.34c0.322-0.355,0.481-0.561,0.481-0.612l-0.103-0.326
			c0.018-0.07,0.068-0.13,0.156-0.184c0.305-0.018,0.473-0.14,0.508-0.365c0.036-0.227,0.117-0.339,0.248-0.339
			c0.14,0,0.227-0.087,0.262-0.261c0-0.322,0.061-0.491,0.182-0.509c0.122-0.018,0.211-0.103,0.268-0.255
			c0.057-0.151,0.146-0.303,0.268-0.45c0.123-0.147,0.223-0.387,0.301-0.717l0.051-0.027c0.123-0.043,0.184-0.112,0.184-0.208
			v-0.261c0.131-0.043,0.309-0.313,0.535-0.81c0.018-0.018,0.07-0.043,0.156-0.078l0.73-1.786c0.018-0.106,0.074-0.252,0.17-0.444
			c0.095-0.191,0.143-0.357,0.143-0.496l0.027-0.156c0.096-0.252,0.145-0.413,0.145-0.484c0-0.198-0.106-0.4-0.314-0.605
			C84.603,49.626,84.402,49.524,84.211,49.524z M77.545,60.131c-0.288,0.4-0.466,0.625-0.536,0.679
			c-0.044,0.209-0.14,0.339-0.287,0.391l-0.092,0.17l-0.156,0.13l-0.025,0.157c0,0.052-0.031,0.1-0.092,0.143
			c-0.062,0.045-0.104,0.091-0.13,0.139c-0.028,0.048-0.073,0.083-0.139,0.11c-0.063,0.025-0.159,0.106-0.28,0.241
			s-0.219,0.223-0.293,0.267c-0.074,0.045-0.111,0.084-0.111,0.117L75.3,62.78c-0.018,0-0.071,0.044-0.156,0.129
			c-0.027,0.011-0.156,0.129-0.387,0.361c-0.23,0.229-0.41,0.384-0.541,0.462s-0.205,0.126-0.223,0.144
			c-0.305,0.304-0.582,0.457-0.835,0.457c-0.157,0-0.243-0.09-0.261-0.268s-0.044-0.329-0.078-0.45
			c0.078-0.139,0.145-0.309,0.201-0.509c0.057-0.199,0.177-0.387,0.359-0.561c0-0.141,0.123-0.345,0.365-0.614v-0.17
			c0.053-0.138,0.145-0.246,0.275-0.319c0.129-0.072,0.27-0.206,0.417-0.397c0.042-0.217,0.126-0.325,0.248-0.325h0.078l0.667-0.536
			c0.121-0.226,0.207-0.339,0.26-0.339l0.301,0.052c0.331-0.252,0.543-0.378,0.639-0.378l0.328,0.052
			c0.104-0.052,0.201-0.086,0.292-0.104c0.092-0.019,0.181-0.044,0.269-0.079c0.086-0.034,0.14-0.052,0.156-0.052
			c0.113,0,0.213,0.043,0.301,0.131C77.976,59.509,77.832,59.731,77.545,60.131z M83.742,52.59
			c-0.079,0.062-0.173,0.239-0.282,0.535c-0.108,0.295-0.223,0.504-0.346,0.625c-0.121,0.122-0.201,0.221-0.24,0.295
			c-0.039,0.073-0.125,0.196-0.255,0.371c-0.13,0.174-0.195,0.292-0.195,0.353c-0.148,0.139-0.251,0.279-0.308,0.423
			c-0.055,0.144-0.141,0.217-0.254,0.217c-0.096,0.086-0.273,0.318-0.535,0.69c-0.086,0.219-0.186,0.336-0.299,0.354l0.131-0.378
			l0.168-0.288c0-0.026,0.066-0.085,0.195-0.176c0.131-0.091,0.195-0.194,0.195-0.308v-0.247l0.119-0.104
			c0.025-0.147,0.061-0.273,0.104-0.378l0.184-0.183c0.104-0.139,0.193-0.225,0.268-0.255c0.072-0.03,0.139-0.132,0.195-0.308
			c0.057-0.174,0.171-0.408,0.346-0.703l0.443-0.743c0.131-0.157,0.215-0.285,0.255-0.386c0.038-0.101,0.097-0.15,0.175-0.15
			c0.035,0,0.053,0.127,0.053,0.379C83.858,52.408,83.82,52.53,83.742,52.59z"/>
	</g>
</g>
</svg>
