<?xml version="1.0" encoding="utf-8"?>
<!-- Generator: Adobe Illustrator 16.0.0, SVG Export Plug-In . SVG Version: 6.00 Build 0)  -->
<!DOCTYPE svg PUBLIC "-//W3C//DTD SVG 1.1//EN" "http://www.w3.org/Graphics/SVG/1.1/DTD/svg11.dtd">
<svg version="1.1" id="Layer_1" xmlns="http://www.w3.org/2000/svg" xmlns:xlink="http://www.w3.org/1999/xlink" x="0px" y="0px"
	 width="128px" height="128px" viewBox="0 0 128 128" enable-background="new 0 0 128 128" xml:space="preserve">
<g>
	<circle fill="#5E83A2" cx="64" cy="64" r="64"/>
	<path fill="#547290" d="M67.344,27.606l-4.296,7.009l-9.709,19.68l-0.382-30.253l-3.554,2.964l-7.085-5.511l0.622,59.443
		L29.493,94.951l32.923,33.008C62.944,127.973,63.469,128,64,128c28.024,0,51.824-18.02,60.49-43.098L67.344,27.606z"/>
	<path fill="#FAAE41" d="M74.285,88.127c0.826-5.848,1.296-12.484,1.296-19.527c0-23.462-5.185-42.484-11.581-42.484
		S52.418,45.137,52.418,68.6c0,7.043,0.471,13.68,1.298,19.527H74.285z"/>
	
		<rect x="46.338" y="87.055" transform="matrix(0.8018 0.5976 -0.5976 0.8018 66.384 -9.3126)" fill="#363D35" width="1.788" height="16.75"/>
	
		<rect x="46.339" y="87.055" transform="matrix(-0.8016 0.5978 -0.5978 -0.8016 142.1447 143.6935)" fill="#363D35" width="1.787" height="16.749"/>
	
		<rect x="46.338" y="50.828" transform="matrix(0.8013 0.5983 -0.5983 0.8013 44.8021 -16.494)" fill="#363D35" width="1.789" height="16.748"/>
	
		<rect x="46.338" y="50.828" transform="matrix(-0.8011 0.5985 -0.5985 -0.8011 120.5038 78.3592)" fill="#363D35" width="1.788" height="16.747"/>
	
		<rect x="46.338" y="65.318" transform="matrix(0.8018 0.5976 -0.5976 0.8018 53.3949 -13.6202)" fill="#363D35" width="1.788" height="16.748"/>
	
		<rect x="46.338" y="79.809" transform="matrix(0.8018 0.5976 -0.5976 0.8018 62.0541 -10.7485)" fill="#363D35" width="1.788" height="16.75"/>
	
		<rect x="46.339" y="65.319" transform="matrix(-0.8016 0.5978 -0.5978 -0.8016 129.1498 104.5308)" fill="#363D35" width="1.787" height="16.748"/>
	
		<rect x="46.339" y="79.809" transform="matrix(-0.8016 0.5978 -0.5978 -0.8016 137.8129 130.6387)" fill="#363D35" width="1.787" height="16.749"/>
	<g>
		<rect x="41.507" y="20.75" fill="#363D35" width="1.791" height="82.521"/>
	</g>
	<g>
		<rect x="51.524" y="20.75" fill="#363D35" width="1.789" height="82.521"/>
	</g>
	<polygon fill="#BC2026" points="72.667,63.943 73.765,63.943 75.121,71.613 97.871,88.816 97.871,95.281 73.114,95.281 
		67.847,89.805 	"/>
	<polygon fill="#BBBDBF" points="72.667,62.156 73.765,62.156 75.121,69.824 97.871,87.027 97.871,93.492 73.114,93.492 
		67.847,88.016 	"/>
	<circle fill="#BC2026" cx="85.598" cy="86.84" r="2.739"/>
	<polygon fill="#BC2026" points="55.329,63.943 54.235,63.943 52.881,71.613 30.13,88.816 30.13,95.281 54.882,95.281 
		60.149,89.805 	"/>
	<polygon fill="#BBBDBF" points="55.329,62.156 54.235,62.156 52.881,69.824 30.13,87.027 30.13,93.492 54.882,93.492 
		60.149,88.016 	"/>
	<circle fill="#BC2026" cx="42.402" cy="86.84" r="2.739"/>
	<rect x="52.418" y="103.271" fill="#C3212B" width="9.063" height="3.979"/>
	<rect x="66.519" y="103.271" fill="#C3212B" width="9.063" height="3.979"/>
	
		<rect x="46.338" y="21.843" transform="matrix(0.8016 0.5979 -0.5979 0.8016 27.4393 -22.2443)" fill="#363D35" width="1.788" height="16.749"/>
	
		<rect x="46.338" y="36.335" transform="matrix(0.8016 0.5979 -0.5979 0.8016 36.1042 -19.3686)" fill="#363D35" width="1.788" height="16.749"/>
	
		<rect x="46.339" y="21.843" transform="matrix(-0.8014 0.5982 -0.5982 -0.8014 103.1581 26.18)" fill="#363D35" width="1.788" height="16.748"/>
	
		<rect x="46.339" y="36.335" transform="matrix(-0.8014 0.5982 -0.5982 -0.8014 111.8268 52.2858)" fill="#363D35" width="1.788" height="16.748"/>
	<path fill="#FFFFFF" d="M73.114,100.566V61.812c0-10.821-4.102-21.465-9.114-21.465c-5.015,0-9.116,10.644-9.116,21.465v38.754
		H73.114z"/>
	<path fill="#9AA09E" d="M61.021,103.998v-10.59c0-2.957-1.834-5.379-4.07-5.379c-2.243,0-4.069,2.422-4.069,5.379v10.59H61.021z"/>
	<path fill="#9AA09E" d="M75.117,103.998v-10.59c0-2.957-1.831-5.379-4.067-5.379c-2.239,0-4.07,2.422-4.07,5.379v10.59H75.117z"/>
	<g>
		<path fill="#2072B8" d="M61.571,48.217c-0.318,0.218-0.588,0.522-0.879,0.777c-0.202,0.25-0.384,0.503-0.552,0.753l0.712,0.807
			c0.225-0.206,0.465-0.403,0.709-0.583c0.247-0.107,0.461-0.243,0.684-0.338L61.571,48.217z"/>
		<path fill="#2072B8" d="M59.937,50.065c-0.188,0.357-0.366,0.68-0.467,0.982c-0.245,0.588-0.322,1.001-0.322,1.001l0.42,0.155
			c0,0,0.174-0.354,0.531-0.813c0.126-0.192,0.308-0.385,0.491-0.583L59.937,50.065z"/>
		<path fill="#2072B8" d="M67.849,49.757c-0.169-0.255-0.339-0.51-0.539-0.763c-0.297-0.255-0.563-0.56-0.885-0.777l-0.675,1.416
			c0.224,0.093,0.439,0.23,0.686,0.338c0.242,0.18,0.484,0.377,0.709,0.583L67.849,49.757z"/>
		<path fill="#2072B8" d="M68.063,50.063l-0.657,0.743c0.187,0.2,0.369,0.393,0.497,0.585c0.355,0.458,0.527,0.813,0.527,0.813
			l0.418-0.155c0,0-0.076-0.413-0.317-1.001C68.427,50.745,68.247,50.421,68.063,50.063z"/>
		<path fill="#2072B8" d="M66.121,48.011c-0.333-0.19-0.643-0.407-0.954-0.474c-0.526-0.144-0.939-0.237-1.117-0.276v-0.022
			c0,0-0.031,0.007-0.05,0.011c-0.017-0.004-0.05-0.011-0.05-0.011v0.022c-0.181,0.039-0.593,0.133-1.121,0.276
			c-0.308,0.066-0.622,0.283-0.952,0.476l0.715,1.5c0.254-0.059,0.472-0.155,0.685-0.126c0.325,0.019,0.553,0.023,0.674,0.023
			c0,0,0.019,0,0.039,0c0.004,0.001,0.008,0,0.011,0s0.003,0.001,0.007,0c0.022,0,0.043,0,0.043,0c0.118,0,0.346-0.005,0.669-0.023
			c0.214-0.027,0.435,0.067,0.685,0.126L66.121,48.011z"/>
	</g>
</g>
</svg>
