<?xml version="1.0" encoding="utf-8"?>
<!-- Generator: Adobe Illustrator 16.0.0, SVG Export Plug-In . SVG Version: 6.00 Build 0)  -->
<!DOCTYPE svg PUBLIC "-//W3C//DTD SVG 1.1//EN" "http://www.w3.org/Graphics/SVG/1.1/DTD/svg11.dtd">
<svg version="1.1" id="Layer_1" xmlns="http://www.w3.org/2000/svg" xmlns:xlink="http://www.w3.org/1999/xlink" x="0px" y="0px"
	 width="128px" height="128px" viewBox="0 0 128 128" enable-background="new 0 0 128 128" xml:space="preserve">
<g>
	<circle fill="#EDC55D" cx="64" cy="64" r="64"/>
	<path fill="#D3A14B" d="M73.654,32.083l-8.278,4.258L54.604,54.618l11.098,10.116l-28.396,5.223l-5.222,12.729l-0.32,3.439
		l41.137,41.244c24.573-3.42,44.676-20.783,52.057-43.85L73.654,32.083z"/>
	<g>
		<path fill="#F8DDC0" d="M39.353,84.895c0.314-0.449,0.346-0.463,0.797-0.879c0.846-0.775,1.357-1.146,1.276-2.471
			c-0.052-0.842-0.77-1.658-0.656-2.309c0.108-0.643,0.603-0.393,0.526-1.225c-0.051-0.529-0.335-0.959-0.707-1.33
			c-0.337-0.33-1.025-0.455-1.275-0.871c-0.227-0.367,0.029-0.92-0.065-1.328c-0.28-1.191-1.235-1.705-2.292-1.975
			c-1.317-0.334-1.582-0.32-1.554-1.66c0.023-1.105,0.007-1.305-0.398-2.279l-0.33-0.424c-0.872-0.107-1.73,0.643-2.291,1.244
			c-1.25,1.342-2.704,3.039-3.505,4.676c-0.844,1.744-0.726,4.172-0.311,6.027c0.878,3.891,5.307,10.635,9.824,6.104
			C38.787,85.799,39.034,85.344,39.353,84.895z"/>
		<path fill="#E1574C" d="M87.748,86.029l-0.23-0.338c-0.204-0.293-0.204-0.293-0.604-0.658l-0.152-0.141
			c-0.826-0.754-1.683-1.535-1.565-3.432c0.04-0.646,0.283-1.193,0.475-1.635c0.041-0.09,0.091-0.205,0.13-0.281
			c-0.295-0.336-0.548-0.834-0.472-1.662c0.076-0.799,0.45-1.531,1.115-2.188c0.3-0.291,0.64-0.461,0.913-0.598
			c0.004-0.004,0.011-0.006,0.014-0.006c-0.026-0.256-0.044-0.576,0.039-0.928c0.355-1.521,1.465-2.529,3.295-2.994
			c0,0,0.266-0.066,0.42-0.105V53.887L64,61.904l-27.126-8.018v17.178c0.156,0.039,0.422,0.105,0.422,0.105
			c1.828,0.465,2.935,1.473,3.293,2.994c0.085,0.352,0.065,0.672,0.037,0.928c0.004,0,0.011,0.002,0.016,0.006
			c0.273,0.137,0.615,0.307,0.912,0.598c0.668,0.656,1.042,1.389,1.115,2.188c0.079,0.828-0.178,1.326-0.474,1.662
			c0.042,0.076,0.094,0.191,0.133,0.281c0.193,0.441,0.435,0.988,0.476,1.635c0.118,1.896-0.738,2.678-1.566,3.432l-0.152,0.141
			c-0.4,0.365-0.4,0.365-0.604,0.658l-0.229,0.338c-0.234,0.355-0.5,0.758-0.885,1.141c-0.787,0.791-1.624,1.309-2.493,1.607v2.635
			l27.124,7.529H64l27.124-7.529v-2.635c-0.869-0.299-1.707-0.816-2.494-1.607C88.248,86.787,87.982,86.385,87.748,86.029z"/>
		<path fill="#F8DDC0" d="M99.117,74.064c-0.798-1.637-2.252-3.334-3.502-4.676c-0.563-0.602-1.42-1.352-2.291-1.244l-0.329,0.424
			c-0.404,0.975-0.421,1.174-0.397,2.279c0.028,1.34-0.239,1.326-1.557,1.66c-1.054,0.27-2.009,0.783-2.289,1.975
			c-0.098,0.408,0.159,0.961-0.065,1.328c-0.252,0.416-0.938,0.541-1.277,0.871c-0.375,0.371-0.657,0.801-0.707,1.33
			c-0.076,0.832,0.415,0.582,0.528,1.225c0.11,0.65-0.604,1.467-0.656,2.309c-0.083,1.324,0.431,1.695,1.273,2.471
			c0.452,0.416,0.482,0.43,0.8,0.879c0.313,0.449,0.565,0.904,0.961,1.301c4.516,4.531,8.946-2.213,9.822-6.104
			C99.848,78.236,99.966,75.809,99.117,74.064z"/>
		<path fill="#392F37" d="M68.902,36.52c0,0,2.034,9.633,9.078,10.528c0.289-1.14,0.459-2.321,0.459-3.55
			c0-7.977-6.466-14.439-14.441-14.439c-7.974,0-14.438,6.463-14.438,14.439c0,0.819,0.085,1.619,0.216,2.402
			C53.004,46.139,67.521,46.644,68.902,36.52z"/>
		<path fill="#F8DDC0" d="M68.902,36.52c-1.381,10.124-15.898,9.619-19.126,9.381c1.146,6.828,7.067,12.034,14.222,12.034
			c6.747,0,12.397-4.633,13.982-10.887C70.937,46.152,68.902,36.52,68.902,36.52z"/>
	</g>
</g>
</svg>
