<?xml version="1.0" encoding="utf-8"?>
<!-- Generator: Adobe Illustrator 16.0.0, SVG Export Plug-In . SVG Version: 6.00 Build 0)  -->
<!DOCTYPE svg PUBLIC "-//W3C//DTD SVG 1.1//EN" "http://www.w3.org/Graphics/SVG/1.1/DTD/svg11.dtd">
<svg version="1.1" id="Layer_1" xmlns="http://www.w3.org/2000/svg" xmlns:xlink="http://www.w3.org/1999/xlink" x="0px" y="0px"
	 width="128px" height="128px" viewBox="0 0 128 128" enable-background="new 0 0 128 128" xml:space="preserve">
<g>
	<circle fill="#A2CE64" cx="64" cy="64" r="64"/>
	<path fill="#80B755" d="M109.785,39.613l-14.147,7.368L25.807,81.037l-6.142,2.586l44.259,44.375c0.025,0,0.051,0.002,0.076,0.002
		c35.346,0,64-28.654,64-64c0-2.177-0.111-4.327-0.323-6.448L109.785,39.613z"/>
	<g>
		<path fill="#FFFFFF" d="M61.049,29.533c-15.308,0-28.549,7.777-34.952,19.096c-0.291,2.415-0.259,4.734,0.972,4.732
			c1.842-0.005,3.656-0.097,5.487,0.117c4.848,0.564,9.006,4.661,7.728,9.874c-1.052,4.284-4.845,6.499-8.854,7.626
			c-4.817,1.355-4.594,7.438-3.088,11.84c6.969,9.42,19.012,15.648,32.707,15.648C82.617,98.467,100.1,83.035,100.1,64
			C100.1,44.964,82.617,29.533,61.049,29.533z"/>
		<path fill="#FFFFFF" d="M58.547,38.952c0.308,0,0.604,0.037,0.897,0.089c-0.657-0.542-1.487-0.881-2.405-0.881
			c-2.09,0-3.787,1.695-3.787,3.788c0,0.557,0.128,1.081,0.344,1.557C53.823,40.956,55.942,38.952,58.547,38.952z"/>
		<path fill="#FFFFFF" d="M76.767,43.507c0.307,0,0.605,0.037,0.896,0.091c-0.656-0.543-1.486-0.883-2.405-0.883
			c-2.09,0-3.784,1.696-3.784,3.789c0,0.557,0.126,1.081,0.342,1.557C72.045,45.511,74.161,43.507,76.767,43.507z"/>
		<path fill="#FFFFFF" d="M85.876,58.995c0.307,0,0.605,0.037,0.896,0.09c-0.656-0.542-1.486-0.881-2.404-0.881
			c-2.09,0-3.785,1.694-3.785,3.787c0,0.557,0.126,1.081,0.342,1.558C81.154,61,83.271,58.995,85.876,58.995z"/>
		<path fill="#FFFFFF" d="M79.956,76.532c0.307,0,0.603,0.037,0.896,0.091c-0.656-0.543-1.486-0.883-2.405-0.883
			c-2.09,0-3.787,1.697-3.787,3.789c0,0.557,0.129,1.081,0.345,1.557C75.231,78.537,77.351,76.532,79.956,76.532z"/>
		<path fill="#FFFFFF" d="M62.19,81.998c0.308,0,0.604,0.037,0.897,0.091c-0.657-0.543-1.487-0.882-2.405-0.882
			c-2.09,0-3.787,1.695-3.787,3.789c0,0.557,0.128,1.08,0.344,1.556C57.467,84.003,59.586,81.998,62.19,81.998z"/>
		<path fill="#FFFFFF" d="M44.652,77.215c0.307,0,0.604,0.037,0.896,0.092c-0.656-0.543-1.486-0.883-2.404-0.883
			c-2.09,0-3.788,1.696-3.788,3.789c0,0.557,0.128,1.08,0.345,1.556C39.928,79.22,42.047,77.215,44.652,77.215z"/>
		<circle fill="#DD4629" cx="57.238" cy="42.394" r="5.767"/>
		<circle fill="#00AD72" cx="75.46" cy="46.948" r="5.767"/>
		<circle fill="#2F313D" cx="84.569" cy="62.437" r="5.767"/>
		<circle fill="#398ECC" cx="78.646" cy="79.974" r="5.767"/>
		<circle fill="#FCB315" cx="60.882" cy="85.439" r="5.767"/>
		<circle fill="#8F474B" cx="43.343" cy="80.657" r="5.767"/>
		<g>
			
				<rect x="67.432" y="49.076" transform="matrix(-0.9056 0.4241 -0.4241 -0.9056 172.315 70.057)" fill="#F1E3A3" width="21.862" height="10.25"/>
			
				<rect x="77.13" y="45.746" transform="matrix(-0.4241 -0.9056 0.9056 -0.4241 61.9201 152.7291)" fill="#E6B66F" width="4.782" height="21.862"/>
			<g>
				<path fill="#656877" d="M20.556,76.928l45.731-22.732l4.346,9.282L23.599,83.424c-1.97,0.835-4.188,0.08-4.999-1.65
					C17.791,80.045,18.643,77.877,20.556,76.928z"/>
				<path fill="#2B2D3A" d="M68.607,59.146l2.025,4.331L23.599,83.424c-1.89,0.802-3.995,0.128-4.876-1.451L68.607,59.146z"/>
			</g>
			<path fill="#F8EB34" d="M109.705,39.183c0,0-19.797-4.203-23.615,5.741l4.252,9.083c0,0,6.279,0.689,10.761-4.563
				C105.582,44.19,105.304,41.402,109.705,39.183z"/>
			<path fill="#F5CC15" d="M106.646,41.509c-1.639,1.894-2.475,4.335-5.544,7.936c-4.481,5.252-10.761,4.563-10.761,4.563
				l-4.119-8.8C92.672,47.418,100.032,45.088,106.646,41.509z"/>
		</g>
	</g>
</g>
</svg>
