<?xml version="1.0" encoding="utf-8"?>
<!-- Generator: Adobe Illustrator 16.0.0, SVG Export Plug-In . SVG Version: 6.00 Build 0)  -->
<!DOCTYPE svg PUBLIC "-//W3C//DTD SVG 1.1//EN" "http://www.w3.org/Graphics/SVG/1.1/DTD/svg11.dtd">
<svg version="1.1" id="Layer_1" xmlns="http://www.w3.org/2000/svg" xmlns:xlink="http://www.w3.org/1999/xlink" x="0px" y="0px"
	 width="128px" height="128px" viewBox="0 0 128 128" enable-background="new 0 0 128 128" xml:space="preserve">
<g>
	<circle fill="#C3C4BE" cx="64" cy="64" r="64"/>
	<path fill="#B2B2A3" d="M98.176,37.111L95.34,38.59l-8.564,9.393l0.83,9.669l-8.289,0.276l-7.117-6.944l-4.209,2.248L49.479,34.17
		l-9.945,7.183l4.144,7.183l-4.42,16.852L31.5,53.929l-1.912,3.447l0.563,22.858l9.935,11.122L35.39,93.29l-3.726,2.314
		l32.31,32.395c0.008,0,0.018,0.001,0.025,0.001c34.362,0,62.389-27.08,63.926-61.061L98.176,37.111z"/>
	<circle fill="#2C284D" cx="45.116" cy="38.249" r="6.484"/>
	<path fill="#A83723" d="M103.146,61.878l-3.002-4.981h-4.736v-1.011H83.68v1.011H70.572c-0.221,0.077-0.439,0.157-0.658,0.232
		c-0.143,0.128-0.307,0.234-0.457,0.355v6.203h25.055L80.898,89.444H68.367v6.79h25.6v-6.79h-5.389L103.146,61.878z"/>
	<path fill="#201C37" d="M61.058,69.122H50.32V59.8l4.453,4.536c0.66,0.672,1.539,1.017,2.424,1.017
		c0.701,0,1.404-0.215,2.006-0.654l10.254-7.502v0.219c0.148-0.181,0.301-0.355,0.467-0.519h-0.057l0.297-0.217
		c0.27-0.238,0.559-0.451,0.865-0.634l0.434-0.316c1.514-1.107,1.844-3.231,0.736-4.745c-1.107-1.515-3.234-1.839-4.744-0.736
		l-9.895,7.235l-7.305-7.448c-0.327-2.176-2.197-3.863-4.461-3.863h-5.086c-2.49,0-4.526,2.037-4.526,4.527v20.62
		c0,2.49,2.036,4.527,4.526,4.527h3.909c0.214,0.042,0.433,0.066,0.66,0.066H57.66v16.926c0,1.876,1.521,3.396,3.398,3.396
		c1.875,0,3.395-1.52,3.395-3.396V72.518C64.453,70.642,62.933,69.122,61.058,69.122z"/>
	<polygon fill="#A83723" points="31.5,53.929 24.856,55.341 30.151,80.234 33.476,82.923 38.134,82.923 38.134,89.444 
		32.736,89.444 32.736,96.234 50.323,96.234 50.323,89.444 44.926,89.444 44.926,82.923 52.349,82.923 52.349,76.133 36.223,76.133 
			"/>
	<polygon fill="#FFFFFF" points="97.623,37.018 81.219,31.766 81.219,53.929 97.623,48.788 	"/>
	<polygon fill="#FFFFFF" points="93.877,55.346 93.877,50.834 85.215,53.27 85.215,55.346 	"/>
</g>
</svg>
