<?xml version="1.0" encoding="utf-8"?>
<!-- Generator: Adobe Illustrator 16.0.0, SVG Export Plug-In . SVG Version: 6.00 Build 0)  -->
<!DOCTYPE svg PUBLIC "-//W3C//DTD SVG 1.1//EN" "http://www.w3.org/Graphics/SVG/1.1/DTD/svg11.dtd">
<svg version="1.1" id="Layer_1" xmlns="http://www.w3.org/2000/svg" xmlns:xlink="http://www.w3.org/1999/xlink" x="0px" y="0px"
	 width="128px" height="128px" viewBox="0 0 128 128" enable-background="new 0 0 128 128" xml:space="preserve">
<g>
	<circle fill="#49B9B5" cx="64" cy="64" r="64"/>
	<path fill="#279599" d="M99.118,35.397l-61.159,51.83l-9.34,4.766l35.899,35.994c34.99-0.279,63.286-28.629,63.473-63.642
		L99.118,35.397z"/>
	<path fill="#8B1E1B" d="M101.113,88.438c0,2.997-2.452,5.449-5.45,5.449H32.337c-2.995,0-5.45-2.452-5.45-5.449V39.562
		c0-2.998,2.455-5.45,5.45-5.45h63.326c2.998,0,5.45,2.453,5.45,5.45V88.438z"/>
	<rect x="32.337" y="39.562" fill="#444A59" width="63.326" height="48.876"/>
	<g>
		<g>
			<path fill="#FFFFFF" d="M44.528,76.868c0.813,0.244,2.604,0.477,4.287-0.002c3.111-0.887,3.509-3.145,3.055-4.621
				c-0.742-2.498-3.304-2.928-5.646-2.261l-1.345,0.385l-0.521-1.817l1.352-0.385c1.76-0.502,3.733-2.045,3.126-4.166
				c-0.407-1.431-1.678-2.438-3.906-1.802c-1.43,0.407-2.626,1.433-3.239,2.202l-1.136-1.58c0.738-0.955,2.359-2.161,4.286-2.71
				c3.523-1.005,5.717,0.631,6.338,2.807c0.524,1.843-0.132,3.727-2.104,5.153l0.018,0.056c2.324-0.188,4.588,0.953,5.301,3.459
				c0.816,2.862-0.698,6.003-4.995,7.228c-2.009,0.572-3.953,0.44-4.996,0.115L44.528,76.868z"/>
			<path fill="#FFFFFF" d="M62.536,58.906l1.846,6.469l6.22-1.772l0.472,1.65l-6.224,1.773l1.863,6.523l-1.764,0.502l-1.859-6.523
				l-6.22,1.773l-0.473-1.651l6.221-1.773l-1.846-6.468L62.536,58.906z"/>
			<path fill="#FFFFFF" d="M75.274,71.108l-0.426-1.487l1.373-2.384c3.328-5.652,4.737-8.552,3.992-11.258
				c-0.518-1.817-1.873-3.245-4.545-2.484c-1.626,0.464-2.74,1.673-3.368,2.598l-1.259-1.488c0.939-1.399,2.483-2.672,4.549-3.261
				c3.854-1.098,6.23,1.082,6.961,3.641c0.94,3.304-0.691,6.657-3.428,11.365l-1.057,1.729l0.018,0.057l8.037-2.291l0.574,2.009
				L75.274,71.108z"/>
		</g>
	</g>
</g>
</svg>
