<?xml version="1.0" encoding="utf-8"?>
<!-- Generator: Adobe Illustrator 16.0.0, SVG Export Plug-In . SVG Version: 6.00 Build 0)  -->
<!DOCTYPE svg PUBLIC "-//W3C//DTD SVG 1.1//EN" "http://www.w3.org/Graphics/SVG/1.1/DTD/svg11.dtd">
<svg version="1.1" id="Layer_1" xmlns="http://www.w3.org/2000/svg" xmlns:xlink="http://www.w3.org/1999/xlink" x="0px" y="0px"
	 width="128px" height="128px" viewBox="0 0 128 128" enable-background="new 0 0 128 128" xml:space="preserve">
<g>
	<circle fill="#A9827C" cx="64" cy="64" r="64"/>
	<path fill="#966B5D" d="M93.973,32.725l-1.111,0.333c-6.63-2.431-7.294,6.188-7.294,6.188l-1.105,1.326l-28.511,3.537
		l-9.663-10.729c-9.884-1.225-16.417,8.96-16.417,8.96l-2.767,9.112l6.966,7.465l9.945,21.439l-0.597,0.94l42.673,42.785
		c23.636-8.693,40.714-30.937,41.838-57.312L93.973,32.725z"/>
	<g>
		<g>
			<g>
				<g>
					<path fill="#FFFDF5" d="M27.104,51.453c-0.202-0.201-0.325-0.479-0.325-0.786c0.002-10.146,8.254-18.397,18.397-18.397
						c0.615,0,1.111,0.498,1.111,1.111c0,0.613-0.496,1.111-1.111,1.111c-8.918,0-16.173,7.255-16.176,16.175
						c0,0.613-0.496,1.111-1.111,1.111C27.583,51.778,27.306,51.653,27.104,51.453z"/>
				</g>
				<g>
					<path fill="#FFFDF5" d="M31.55,51.454c-0.202-0.203-0.325-0.479-0.325-0.786c-0.001-3.728,1.451-7.232,4.087-9.867
						c2.635-2.636,6.14-4.086,9.865-4.086c0.615,0,1.111,0.497,1.111,1.111c0,0.614-0.496,1.11-1.111,1.11
						c-3.133,0.001-6.079,1.222-8.294,3.437c-2.216,2.215-3.437,5.162-3.436,8.295c0,0.614-0.497,1.111-1.111,1.111
						C32.029,51.779,31.751,51.655,31.55,51.454z"/>
				</g>
				<g>
					<path fill="#FFFDF5" d="M76.547,100.895c-0.202-0.201-0.327-0.479-0.327-0.786c0.002-0.613,0.498-1.111,1.111-1.111
						c8.921-0.001,16.177-7.256,16.177-16.175c0-0.614,0.497-1.111,1.111-1.111s1.111,0.497,1.111,1.111
						c0.001,10.144-8.253,18.396-18.399,18.397C77.024,101.22,76.748,101.097,76.547,100.895z"/>
				</g>
				<g>
					<path fill="#FFFDF5" d="M76.546,96.449c-0.201-0.201-0.326-0.479-0.326-0.786c0-0.613,0.498-1.111,1.111-1.111
						c3.135,0,6.08-1.22,8.296-3.435c2.216-2.216,3.436-5.162,3.437-8.295c0-0.614,0.496-1.111,1.111-1.111
						c0.613,0,1.111,0.497,1.111,1.111c-0.001,3.727-1.451,7.231-4.088,9.866c-2.635,2.635-6.14,4.088-9.867,4.086
						C77.024,96.774,76.747,96.65,76.546,96.449z"/>
				</g>
			</g>
		</g>
		<path fill="#F7BA16" d="M87.957,40.529L48.844,79.641L27.542,57.853c0,0,4.806-4.804,8.978-3.736
			c4.172,1.066,8.54-3.688,8.54-3.688S69.419,25.487,87.957,40.529z"/>
		<path fill="#E89D23" d="M87.471,40.043L48.358,79.154l21.787,21.304c0,0,4.804-4.807,3.737-8.979
			c-1.066-4.171,3.688-8.54,3.688-8.54S102.513,58.579,87.471,40.043z"/>
		<path fill="#BB5727" d="M70.146,100.458c-2.438,2.439-13.952-5.121-25.717-16.886c-11.768-11.766-19.326-23.28-16.887-25.72
			c2.437-2.438,13.952,5.121,25.718,16.887C65.026,86.505,72.585,98.019,70.146,100.458z"/>
		<path fill="#812A27" d="M54.667,76.175c-0.534,0.293-1.051,0.635-1.502,1.088c-2.547,2.547-2.547,6.674-0.002,9.221
			c2.547,2.547,6.674,2.547,9.221,0c0.258-0.258,0.47-0.541,0.676-0.828C60.693,82.672,57.851,79.448,54.667,76.175z"/>
		<path fill="#502B28" d="M63.06,85.655c-0.654-0.824-1.354-1.672-2.08-2.53c-2.714,1.418-5.748,2.069-8.797,2.058
			c0.273,0.462,0.584,0.904,0.98,1.301c2.547,2.547,6.674,2.547,9.221,0C62.642,86.226,62.854,85.942,63.06,85.655z"/>
		<g>
			<g>
				<path fill="#F7BA16" d="M86.925,41.076c-2.07-2.072-2.07-5.441,0-7.51c2.071-2.071,5.439-2.071,7.51,0
					c2.07,2.069,2.07,5.438,0,7.508C92.363,43.145,88.996,43.145,86.925,41.076z M93.388,34.613c-1.493-1.493-3.922-1.493-5.415,0
					c-1.491,1.492-1.491,3.922,0,5.415c1.493,1.49,3.922,1.49,5.415-0.001C94.88,38.535,94.88,36.105,93.388,34.613z"/>
			</g>
		</g>
	</g>
</g>
</svg>
