<?xml version="1.0" encoding="utf-8"?>
<!-- Generator: Adobe Illustrator 16.0.0, SVG Export Plug-In . SVG Version: 6.00 Build 0)  -->
<!DOCTYPE svg PUBLIC "-//W3C//DTD SVG 1.1//EN" "http://www.w3.org/Graphics/SVG/1.1/DTD/svg11.dtd">
<svg version="1.1" id="Layer_1" xmlns="http://www.w3.org/2000/svg" xmlns:xlink="http://www.w3.org/1999/xlink" x="0px" y="0px"
	 width="128px" height="128px" viewBox="0 0 128 128" enable-background="new 0 0 128 128" xml:space="preserve">
<g>
	<circle fill="#D4603C" cx="64" cy="64" r="64"/>
	<path fill="#C63C27" d="M98.188,26.85l-5.35,12.607l-44.13,0.858l-4.03-4.032l-8.534-9.098L32.74,94.597l-6.331,5.541l-1.258,0.407
		l26.115,26.185C55.382,127.56,59.64,128,64,128c35.346,0,64-28.653,64-64c0-2.623-0.176-5.204-0.482-7.744L98.188,26.85z"/>
	<g>
		<g>
			<g>
				<g>
					<rect x="30.01" y="27.186" fill="#F4E3EF" width="6.134" height="68.966"/>
				</g>
				<g>
					<rect x="91.857" y="27.186" fill="#F4E3EF" width="6.137" height="68.966"/>
				</g>
			</g>
		</g>
		<rect x="24.854" y="94.925" fill="#F4E3EF" width="78.292" height="5.889"/>
		<rect x="34.425" y="39.457" fill="#F4E3EF" width="58.413" height="1.718"/>
		<rect x="34.425" y="53.078" fill="#F4E3EF" width="58.413" height="1.718"/>
		<rect x="34.425" y="66.698" fill="#F4E3EF" width="58.413" height="1.718"/>
		<rect x="34.425" y="80.319" fill="#F4E3EF" width="58.413" height="1.717"/>
		<g>
			<circle fill="#C63C29" cx="44.676" cy="40.315" r="4.032"/>
			<path fill="#9B1F20" d="M46.953,36.989c0.486,1.591,0.397,3.464-0.359,4.882c-0.68,1.27-1.757,1.989-3.013,2.322
				c0.35,0.098,0.715,0.154,1.097,0.154c2.225,0,4.03-1.805,4.03-4.031C48.708,38.933,48.012,37.714,46.953,36.989z"/>
		</g>
		<g>
			<circle fill="#C63C29" cx="55.253" cy="40.315" r="4.031"/>
			<path fill="#9B1F20" d="M57.531,36.989c0.486,1.591,0.396,3.464-0.359,4.882c-0.68,1.27-1.758,1.989-3.014,2.322
				c0.35,0.098,0.715,0.154,1.098,0.154c2.225,0,4.029-1.805,4.029-4.031C59.285,38.933,58.589,37.714,57.531,36.989z"/>
		</g>
		<g>
			<circle fill="#C63C29" cx="65.831" cy="40.315" r="4.032"/>
			<path fill="#9B1F20" d="M68.109,36.989c0.486,1.591,0.396,3.464-0.359,4.882c-0.682,1.27-1.758,1.989-3.014,2.322
				c0.35,0.098,0.715,0.154,1.096,0.154c2.225,0,4.031-1.805,4.031-4.031C69.863,38.933,69.166,37.714,68.109,36.989z"/>
		</g>
		<g>
			<circle fill="#C63C29" cx="81.783" cy="40.315" r="4.031"/>
			<path fill="#9B1F20" d="M84.061,36.989c0.486,1.591,0.396,3.464-0.359,4.882c-0.68,1.27-1.758,1.989-3.014,2.322
				c0.35,0.098,0.715,0.154,1.098,0.154c2.225,0,4.029-1.805,4.029-4.031C85.814,38.933,85.119,37.714,84.061,36.989z"/>
		</g>
		<g>
			<circle fill="#2591A5" cx="44.676" cy="53.936" r="4.032"/>
			<path fill="#157E91" d="M46.953,50.61c0.486,1.59,0.397,3.464-0.359,4.882c-0.68,1.27-1.757,1.99-3.013,2.322
				c0.35,0.099,0.715,0.154,1.097,0.154c2.225,0,4.03-1.806,4.03-4.032C48.708,52.553,48.012,51.334,46.953,50.61z"/>
		</g>
		<g>
			<circle fill="#2591A5" cx="54.557" cy="53.936" r="4.032"/>
			<path fill="#157E91" d="M56.835,50.61c0.486,1.59,0.396,3.464-0.359,4.882c-0.682,1.27-1.758,1.99-3.014,2.322
				c0.35,0.099,0.715,0.154,1.096,0.154c2.225,0,4.031-1.806,4.031-4.032C58.589,52.553,57.892,51.334,56.835,50.61z"/>
		</g>
		<g>
			<circle fill="#2591A5" cx="73.968" cy="53.936" r="4.032"/>
			<path fill="#157E91" d="M76.244,50.61c0.486,1.59,0.398,3.464-0.357,4.882c-0.682,1.27-1.758,1.99-3.014,2.322
				c0.35,0.099,0.715,0.154,1.096,0.154c2.225,0,4.031-1.806,4.031-4.032C78,52.553,77.303,51.334,76.244,50.61z"/>
		</g>
		<g>
			<circle fill="#2591A5" cx="83.935" cy="53.936" r="4.032"/>
			<path fill="#157E91" d="M86.213,50.61c0.486,1.59,0.396,3.464-0.359,4.882c-0.682,1.27-1.758,1.99-3.014,2.322
				c0.35,0.099,0.715,0.154,1.096,0.154c2.227,0,4.031-1.806,4.031-4.032C87.967,52.553,87.27,51.334,86.213,50.61z"/>
		</g>
		<g>
			<circle fill="#F8BB15" cx="44.676" cy="67.557" r="4.032"/>
			<path fill="#E88C24" d="M46.953,64.23c0.486,1.591,0.397,3.464-0.359,4.882c-0.68,1.27-1.757,1.989-3.013,2.322
				c0.35,0.098,0.715,0.153,1.097,0.153c2.225,0,4.03-1.806,4.03-4.031C48.708,66.174,48.012,64.955,46.953,64.23z"/>
		</g>
		<g>
			<circle fill="#F8BB15" cx="54.729" cy="67.557" r="4.032"/>
			<path fill="#E88C24" d="M57.005,64.23c0.486,1.591,0.398,3.464-0.357,4.882c-0.682,1.27-1.758,1.989-3.014,2.322
				c0.35,0.098,0.715,0.153,1.096,0.153c2.225,0,4.031-1.806,4.031-4.031C58.761,66.174,58.064,64.955,57.005,64.23z"/>
		</g>
		<g>
			<circle fill="#F8BB15" cx="64.782" cy="67.557" r="4.032"/>
			<path fill="#E88C24" d="M67.061,64.23c0.484,1.591,0.396,3.464-0.359,4.882c-0.682,1.27-1.758,1.989-3.014,2.322
				c0.35,0.098,0.715,0.153,1.096,0.153c2.225,0,4.032-1.806,4.032-4.031C68.814,66.174,68.117,64.955,67.061,64.23z"/>
		</g>
		<g>
			<circle fill="#F8BB15" cx="74.835" cy="67.557" r="4.032"/>
			<path fill="#E88C24" d="M77.113,64.23c0.486,1.591,0.396,3.464-0.359,4.882c-0.68,1.27-1.758,1.989-3.014,2.322
				c0.35,0.098,0.715,0.153,1.096,0.153c2.227,0,4.031-1.806,4.031-4.031C78.867,66.174,78.172,64.955,77.113,64.23z"/>
		</g>
		<g>
			<g>
				<circle fill="#EF5874" cx="44.676" cy="81.177" r="4.032"/>
			</g>
			<path fill="#ED2875" d="M46.953,77.851c0.486,1.591,0.397,3.465-0.359,4.883c-0.68,1.27-1.757,1.989-3.013,2.321
				c0.35,0.099,0.715,0.154,1.097,0.154c2.225,0,4.03-1.806,4.03-4.032C48.708,79.794,48.012,78.575,46.953,77.851z"/>
		</g>
		<g>
			<g>
				<circle fill="#EF5874" cx="63.654" cy="81.177" r="4.031"/>
			</g>
			<path fill="#ED2875" d="M65.932,77.851c0.486,1.591,0.396,3.465-0.359,4.883c-0.68,1.27-1.758,1.989-3.014,2.321
				c0.35,0.099,0.715,0.154,1.098,0.154c2.225,0,4.03-1.806,4.03-4.032C67.686,79.794,66.99,78.575,65.932,77.851z"/>
		</g>
		<g>
			<g>
				<circle fill="#EF5874" cx="73.952" cy="81.177" r="4.032"/>
			</g>
			<path fill="#ED2875" d="M76.229,77.851c0.486,1.591,0.398,3.465-0.359,4.883c-0.68,1.27-1.758,1.989-3.012,2.321
				c0.35,0.099,0.715,0.154,1.096,0.154c2.225,0,4.031-1.806,4.031-4.032C77.984,79.794,77.287,78.575,76.229,77.851z"/>
		</g>
		<g>
			<g>
				<circle fill="#EF5874" cx="84.249" cy="81.177" r="4.032"/>
			</g>
			<path fill="#ED2875" d="M86.527,77.851c0.486,1.591,0.396,3.465-0.359,4.883c-0.68,1.27-1.758,1.989-3.014,2.321
				c0.35,0.099,0.715,0.154,1.098,0.154c2.225,0,4.029-1.806,4.029-4.032C88.281,79.794,87.586,78.575,86.527,77.851z"/>
		</g>
	</g>
</g>
</svg>
