<?xml version="1.0" encoding="utf-8"?>
<!-- Generator: Adobe Illustrator 16.0.0, SVG Export Plug-In . SVG Version: 6.00 Build 0)  -->
<!DOCTYPE svg PUBLIC "-//W3C//DTD SVG 1.1//EN" "http://www.w3.org/Graphics/SVG/1.1/DTD/svg11.dtd">
<svg version="1.1" id="Layer_1" xmlns="http://www.w3.org/2000/svg" xmlns:xlink="http://www.w3.org/1999/xlink" x="0px" y="0px"
	 width="128px" height="128px" viewBox="0 0 128 128" enable-background="new 0 0 128 128" xml:space="preserve">
<g>
	<circle fill="#C3C3BA" cx="64" cy="64" r="64"/>
	<path fill="#5F6D80" d="M104.553,22.936l-0.459,0.458l-17.669,4.742l-5.08,0.621l-5.604-5.73l-3.146,4.037l-16.878,3.67
		l-8.77-7.707l-7.861,8.946L32.95,93.84l-4.93,7.768l25.833,25.583C57.159,127.718,60.546,128,64,128c35.346,0,64-28.653,64-64
		c0-7.556-1.318-14.801-3.723-21.53L104.553,22.936z"/>
	<path fill="#A2B1BB" d="M104.536,23.026H81.053v6.535h2.311v64.521c0,5.988,4.244,10.891,9.432,10.891s9.432-4.902,9.432-10.891
		V29.562h2.31V23.026z"/>
	<path fill="#A2B1BB" d="M75.741,23.026H52.258v6.535h2.311v64.521c0,5.988,4.244,10.891,9.432,10.891s9.432-4.902,9.432-10.891
		V29.562h2.31V23.026z"/>
	<path fill="#A2B1BB" d="M46.947,23.026H23.464v6.535h2.31v64.521c0,5.988,4.244,10.891,9.432,10.891s9.432-4.902,9.432-10.891
		V29.562h2.311V23.026z"/>
	<path fill="#FFFFFF" d="M27.953,25.544v42.148c0,4.805,3.254,8.713,7.252,8.713c3.999,0,7.252-3.908,7.252-8.713V25.544H27.953z"/>
	<path fill="#FFFFFF" d="M56.748,25.544v42.148c0,4.805,3.251,8.713,7.252,8.713c3.999,0,7.252-3.908,7.252-8.713V25.544H56.748z"/>
	<path fill="#FFFFFF" d="M85.543,25.544v42.148c0,4.805,3.253,8.713,7.252,8.713c3.998,0,7.252-3.908,7.252-8.713V25.544H85.543z"/>
	<path fill="#567EBE" d="M27.953,64.687v29.441c0,4.805,3.254,8.713,7.252,8.713c3.999,0,7.252-3.908,7.252-8.713V64.687H27.953z"/>
	<path fill="#109B59" d="M56.748,52.707v41.421c0,4.805,3.251,8.713,7.252,8.713c3.999,0,7.252-3.908,7.252-8.713V52.707H56.748z"/>
	<path fill="#DB4539" d="M85.543,43.269v50.859c0,4.805,3.253,8.713,7.252,8.713c3.998,0,7.252-3.908,7.252-8.713V43.269H85.543z"/>
</g>
</svg>
