<?xml version="1.0" encoding="utf-8"?>
<!-- Generator: Adobe Illustrator 16.0.0, SVG Export Plug-In . SVG Version: 6.00 Build 0)  -->
<!DOCTYPE svg PUBLIC "-//W3C//DTD SVG 1.1//EN" "http://www.w3.org/Graphics/SVG/1.1/DTD/svg11.dtd">
<svg version="1.1" id="Layer_1" xmlns="http://www.w3.org/2000/svg" xmlns:xlink="http://www.w3.org/1999/xlink" x="0px" y="0px"
	 width="128px" height="128px" viewBox="0 0 128 128" enable-background="new 0 0 128 128" xml:space="preserve">
<g>
	<circle fill="#5E83A2" cx="64" cy="64" r="64"/>
	<path fill="#487396" d="M81.87,24.986l-7.162,5.835L67.237,53.59L42.677,22.384l-2.833,69.627l-8.894,6.403l-2.332,2.471
		l26.406,26.475C57.958,127.772,60.952,128,64,128c33.026,0,60.202-25.019,63.629-57.136L81.87,24.986z"/>
	<path fill="#FFFFFF" d="M94.378,69.952L79.065,49.286v-18.03h2.979v-5.542H63.573v5.542h2.973v18.03L51.237,69.952
		c-2.344,3.165-0.52,5.754,4.055,5.754h35.029C94.897,75.706,96.722,73.117,94.378,69.952z"/>
	<path fill="#F7BD15" d="M82.669,58.032H62.944l-9.85,13.296c-0.547,0.741-0.607,1.215-0.551,1.329
		c0.123,0.24,0.953,0.736,2.748,0.736h35.029c1.799,0,2.629-0.496,2.75-0.736c0.059-0.114-0.002-0.588-0.551-1.328L82.669,58.032z"
		/>
	<rect x="37.54" y="22.384" fill="#FCB92A" width="5.137" height="69.908"/>
	<rect x="28.806" y="92.258" fill="#FCB92A" width="70.388" height="8.991"/>
	<g>
		<g>
			<rect x="36.897" y="101.249" fill="#F6946A" width="6.166" height="4.367"/>
			<rect x="84.935" y="101.249" fill="#F6946A" width="6.166" height="4.367"/>
		</g>
	</g>
	<path fill="#EC1C24" d="M59.368,88.235c0.592,0.555,2.15,1.453,3.245,2.127h22.532c0.257-0.471,0.258-1.102,0.256-1.645
		c-0.004-0.947,0.21-1.527,0.605-2.367c0.545-1.154,1.74-1.77,1.927-2.988c0.2-1.322-0.356-2.661-0.454-3.957
		c0.148,1.901-0.822,1.703-2.154,2.234c-0.666,0.266-1.484,0.893-2.072,1.328c-0.931,0.689-1.054,1.304-1.262,2.293
		c-0.447-0.731-0.396-1.539-0.388-2.367c0.015-1.254,0.436-1.87,0.804-2.966c-0.725,0.348-1.64,0.806-2.299,1.278
		c-1.299,0.929-1.227,2.092-1.326,3.503c-0.975-0.431-1.487-1.491-1.349-2.526c0.125-0.938,0.821-1.855,0.991-2.824
		c0.127-0.721,0.014-1.55,0.014-2.284c0.344,2.311-2.674,2.5-4.162,2.847c-2.459,0.57-1.639,3.254-1.728,5.225
		c-1.282-0.941-2.79-1.892-3.046-3.578c-0.094-0.631,0.025-1.282-0.084-1.912c-0.152-0.874-0.895-1.695-0.747-2.599
		c0.346,1.835-2.945,2.694-4.032,3.567c-0.723,0.582-1.135,1.277-1.121,2.214c0.012,0.796,0.528,1.458,0.439,2.227
		c-1.785-0.495-5.418-1.169-5.41-3.522c-0.725,1.07-1.091,3.151-0.819,4.513C57.905,86.937,58.726,87.633,59.368,88.235z"/>
	<rect x="32.655" y="41.522" fill="#A37E73" width="55.362" height="1.734"/>
	<rect x="30.847" y="39.57" fill="#A37E73" width="1.809" height="5.637"/>
	<rect x="35.951" y="38.878" fill="#A45C54" width="8.296" height="7.021"/>
	<circle fill="#FFFFFF" cx="63.703" cy="67.302" r="1.872"/>
	<circle fill="#FFFFFF" cx="76.023" cy="61.063" r="0.936"/>
	<circle fill="#FFFFFF" cx="84.6" cy="69.328" r="0.936"/>
	<circle fill="#F7BD15" cx="71.811" cy="51.239" r="1.521"/>
	<circle fill="#F7BD15" cx="75.241" cy="37.827" r="1.053"/>
	<circle fill="#F7BD15" cx="71.032" cy="30.184" r="1.052"/>
</g>
</svg>
