<?xml version="1.0" encoding="utf-8"?>
<!-- Generator: Adobe Illustrator 16.0.0, SVG Export Plug-In . SVG Version: 6.00 Build 0)  -->
<!DOCTYPE svg PUBLIC "-//W3C//DTD SVG 1.1//EN" "http://www.w3.org/Graphics/SVG/1.1/DTD/svg11.dtd">
<svg version="1.1" id="Layer_1" xmlns="http://www.w3.org/2000/svg" xmlns:xlink="http://www.w3.org/1999/xlink" x="0px" y="0px"
	 width="128px" height="128px" viewBox="0 0 128 128" enable-background="new 0 0 128 128" xml:space="preserve">
<g>
	<circle fill="#3CB19C" cx="64" cy="64.001" r="64"/>
	<path fill="#3B937A" d="M110.045,62.947l-2.855,1.224L90.113,47.095l-29.885-5.525l-23.213,5.665l6.389,6.892l2.762,10.045
		L20.3,90.036l-2.31,2.309l34.513,34.605c3.732,0.676,7.57,1.049,11.496,1.049c30.133,0,55.387-20.828,62.186-48.869L110.045,62.947
		z"/>
	<g>
		<rect x="41.669" y="47.164" fill="#FFFFFF" width="44.649" height="44.647"/>
		<path fill="#CAC6D6" d="M41.451,91.812c-0.155-8.326-1.908-16.443-5.17-24.131c-0.505-1.189-1.274-2.877-2.259-4.618h7.681v28.749
			H41.451z"/>
		<rect x="66.336" y="53.044" fill="#6BCAD9" width="5.443" height="7.938"/>
		<rect x="55.5" y="80.704" fill="#E37B25" width="16.989" height="11.107"/>
		<path fill="#D26528" d="M70.957,80.704H55.5v11.107h1C59.875,86.655,64.972,81.976,70.957,80.704z"/>
		<rect x="46.079" y="53.044" fill="#6BCAD9" width="5.445" height="7.938"/>
		<rect x="56.207" y="53.044" fill="#6BCAD9" width="5.445" height="7.938"/>
		<rect x="76.463" y="53.044" fill="#6BCAD9" width="5.445" height="7.938"/>
		<g>
			<rect x="46.079" y="66.935" fill="#6BCAD9" width="5.445" height="7.938"/>
			<rect x="56.207" y="66.935" fill="#6BCAD9" width="5.445" height="7.938"/>
			<rect x="66.336" y="66.935" fill="#6BCAD9" width="5.443" height="7.938"/>
			<rect x="76.463" y="66.935" fill="#6BCAD9" width="5.445" height="7.938"/>
		</g>
		<rect x="18.399" y="63.063" fill="#E6E7E8" width="23.304" height="28.749"/>
		<rect x="22.266" y="67.589" fill="#6BCAD9" width="5.444" height="7.938"/>
		<rect x="32.394" y="67.589" fill="#6BCAD9" width="5.444" height="7.938"/>
		<g>
			<rect x="22.266" y="80.827" fill="#6BCAD9" width="5.444" height="7.936"/>
			<rect x="32.394" y="80.827" fill="#6BCAD9" width="5.444" height="7.936"/>
		</g>
		<rect x="46.079" y="80.827" fill="#6BCAD9" width="5.445" height="7.936"/>
		<rect x="76.463" y="80.827" fill="#6BCAD9" width="5.445" height="7.936"/>
		<polygon fill="#4C98C6" points="51.04,53.044 51.04,60.576 46.079,60.576 46.079,60.981 51.524,60.981 51.524,53.044 		"/>
		<polygon fill="#4C98C6" points="61.167,53.044 61.167,60.576 56.207,60.576 56.207,60.981 61.652,60.981 61.652,53.044 		"/>
		<polygon fill="#4C98C6" points="71.295,53.044 71.295,60.576 66.336,60.576 66.336,60.981 71.779,60.981 71.779,53.044 		"/>
		<polygon fill="#4C98C6" points="81.422,53.044 81.422,60.576 76.463,60.576 76.463,60.981 81.908,60.981 81.908,53.044 		"/>
		<polygon fill="#4C98C6" points="51.04,66.935 51.04,74.468 46.079,74.468 46.079,74.872 51.524,74.872 51.524,66.935 		"/>
		<polygon fill="#4C98C6" points="37.351,67.589 37.351,75.12 32.392,75.12 32.392,75.526 37.838,75.526 37.838,67.589 		"/>
		<polygon fill="#4C98C6" points="27.224,67.589 27.224,75.12 22.265,75.12 22.265,75.526 27.71,75.526 27.71,67.589 		"/>
		<polygon fill="#4C98C6" points="37.351,80.825 37.351,88.356 32.392,88.356 32.392,88.763 37.838,88.763 37.838,80.825 		"/>
		<polygon fill="#4C98C6" points="27.224,80.825 27.224,88.356 22.265,88.356 22.265,88.763 27.71,88.763 27.71,80.825 		"/>
		<g>
			<rect x="86.297" y="63.063" fill="#E6E7E8" width="23.305" height="28.749"/>
			<rect x="90.162" y="67.589" fill="#6BCAD9" width="5.445" height="7.938"/>
			<rect x="100.289" y="67.589" fill="#6BCAD9" width="5.445" height="7.938"/>
			<g>
				<rect x="90.162" y="80.827" fill="#6BCAD9" width="5.445" height="7.936"/>
				<rect x="100.289" y="80.827" fill="#6BCAD9" width="5.445" height="7.936"/>
			</g>
			<polygon fill="#4C98C6" points="105.248,67.589 105.248,75.12 100.289,75.12 100.289,75.526 105.734,75.526 105.734,67.589 			
				"/>
			<polygon fill="#4C98C6" points="95.121,67.589 95.121,75.12 90.162,75.12 90.162,75.526 95.607,75.526 95.607,67.589 			"/>
			<polygon fill="#4C98C6" points="105.248,80.825 105.248,88.356 100.289,88.356 100.289,88.763 105.734,88.763 105.734,80.825 			
				"/>
			<polygon fill="#4C98C6" points="95.121,80.825 95.121,88.356 90.162,88.356 90.162,88.763 95.607,88.763 95.607,80.825 			"/>
		</g>
		<polygon fill="#4C98C6" points="61.167,66.935 61.167,74.468 56.207,74.468 56.207,74.872 61.652,74.872 61.652,66.935 		"/>
		<polygon fill="#4C98C6" points="71.295,66.935 71.295,74.468 66.336,74.468 66.336,74.872 71.779,74.872 71.779,66.935 		"/>
		<polygon fill="#4C98C6" points="81.422,66.935 81.422,74.468 76.463,74.468 76.463,74.872 81.908,74.872 81.908,66.935 		"/>
		<polygon fill="#4C98C6" points="51.04,80.825 51.04,88.356 46.079,88.356 46.079,88.763 51.524,88.763 51.524,80.825 		"/>
		<polygon fill="#4C98C6" points="81.422,80.825 81.422,88.356 76.463,88.356 76.463,88.763 81.908,88.763 81.908,80.825 		"/>
		<polygon fill="#BD6D29" points="63.994,36.189 37.015,47.234 90.973,47.234 		"/>
		<polygon fill="#AA5E27" points="63.994,36.189 37.015,47.234 57.158,47.234 		"/>
		<polygon fill="#8C4A20" points="63.994,36.189 37.015,47.234 48.144,47.234 		"/>
	</g>
</g>
</svg>
