<?xml version="1.0" encoding="utf-8"?>
<!-- Generator: Adobe Illustrator 16.0.0, SVG Export Plug-In . SVG Version: 6.00 Build 0)  -->
<!DOCTYPE svg PUBLIC "-//W3C//DTD SVG 1.1//EN" "http://www.w3.org/Graphics/SVG/1.1/DTD/svg11.dtd">
<svg version="1.1" id="Layer_1" xmlns="http://www.w3.org/2000/svg" xmlns:xlink="http://www.w3.org/1999/xlink" x="0px" y="0px"
	 width="128px" height="128px" viewBox="0 0 128 128" enable-background="new 0 0 128 128" xml:space="preserve">
<g>
	<circle fill="#EDC55D" cx="64" cy="64.001" r="64"/>
	<path fill="#D3A14B" d="M83.143,20.664l-29.57,32.711l-7.313,0.698l28.886,23.332l-4.369,0.271l-29.219,2.186l-7.032,2.602
		l17.955,18.424l-18.568,9.559l-2.042,0.977l13.887,13.924c5.784,1.717,11.903,2.652,18.244,2.652c34.81,0,63.108-27.795,63.96-62.4
		L83.143,20.664z"/>
	<g>
		
			<rect x="54.112" y="24.88" transform="matrix(0.8205 0.5716 -0.5716 0.8205 35.2453 -29.1042)" fill="#E5EBEB" width="19.715" height="33.387"/>
		<g>
			<g>
				<path fill="#ADBECE" d="M62.224,101.124v-7.092c13.652,0,24.756-11.105,24.756-24.754c0-9.499-5.545-18.277-14.127-22.365
					l3.051-6.401C86.942,45.768,94.07,57.061,94.07,69.278C94.07,86.837,79.786,101.124,62.224,101.124z"/>
			</g>
		</g>
		<path fill="#EFEFEB" d="M75.903,40.512l-2.238,4.697c9.122,5.208,14.852,14.376,14.852,24.224
			c0,14.094-11.376,25.822-26.293,28.195v3.496c17.563,0,31.847-14.287,31.847-31.846C94.07,57.061,86.942,45.768,75.903,40.512z"/>
		<polygon fill="#483D3B" points="58.36,62.459 46.319,54.073 48.624,50.768 60.659,59.156 		"/>
		<polygon fill="#64525C" points="81.851,26.819 71.615,19.688 68.392,24.31 78.628,31.44 		"/>
		
			<rect x="74.515" y="18.126" transform="matrix(0.8203 0.5719 -0.5719 0.8203 26.0562 -41.0412)" fill="#202316" width="7.648" height="5.635"/>
		<rect x="31.865" y="106.054" fill="#483E3C" width="53.392" height="5.502"/>
		<polygon fill="#1C1D18" points="80.695,106.073 36.431,106.073 41.158,99.532 75.968,99.532 		"/>
		<rect x="34.585" y="76.062" fill="#4F5E5E" width="41.489" height="6.402"/>
		<rect x="48.923" y="82.464" fill="#1C1815" width="20.24" height="6.4"/>
		<rect x="59.677" y="88.864" fill="#1C1815" width="9.486" height="6.4"/>
		<path fill="#171614" d="M75.373,97.577c0,4.814-3.901,8.717-8.718,8.717c-4.81,0-8.715-3.902-8.715-8.717
			c0-4.811,3.905-8.715,8.715-8.715C71.472,88.862,75.373,92.767,75.373,97.577z"/>
		<path fill="#B41F2F" d="M73.601,97.577c0,3.836-3.107,6.945-6.945,6.945c-3.83,0-6.942-3.109-6.942-6.945
			c0-3.834,3.112-6.943,6.942-6.943C70.493,90.634,73.601,93.743,73.601,97.577z"/>
		
			<rect x="72.905" y="38.819" transform="matrix(0.8206 0.5715 -0.5715 0.8206 39.2019 -34.5482)" fill="#5F5B69" width="3.454" height="12.701"/>
	</g>
</g>
</svg>
