<?xml version="1.0" encoding="utf-8"?>
<!-- Generator: Adobe Illustrator 16.0.0, SVG Export Plug-In . SVG Version: 6.00 Build 0)  -->
<!DOCTYPE svg PUBLIC "-//W3C//DTD SVG 1.1//EN" "http://www.w3.org/Graphics/SVG/1.1/DTD/svg11.dtd">
<svg version="1.1" id="Layer_1" xmlns="http://www.w3.org/2000/svg" xmlns:xlink="http://www.w3.org/1999/xlink" x="0px" y="0px"
	 width="128px" height="128px" viewBox="0 0 128 128" enable-background="new 0 0 128 128" xml:space="preserve">
<g>
	<circle fill="#A9827C" cx="64" cy="64" r="64"/>
	<path fill="#9F6568" d="M91.031,30.3L53.707,79.852L39.31,103.053l-2.003,1.615L60.479,127.9c1.166,0.063,2.34,0.1,3.521,0.1
		c34.245,0,62.209-26.896,63.917-60.718L91.031,30.3z"/>
	<g>
		<path fill="#175E95" d="M73.656,24.529L37.726,79.006l23.876,14.006l30.005-57.956c0.972-1.88,0.275-4.293-1.552-5.364
			l-10.961-6.428C77.27,22.191,74.823,22.761,73.656,24.529z"/>
		<path fill="#233870" d="M49.665,86.008l11.937,7.004l30.005-57.956c0.972-1.88,0.275-4.293-1.552-5.364l-5.479-3.215
			L49.665,86.008z"/>
		<path fill="#EF5C75" d="M73.656,24.529l-2.501,3.793l18.362,10.769l2.089-4.035c0.972-1.88,0.275-4.293-1.552-5.364l-10.961-6.428
			C77.27,22.191,74.823,22.761,73.656,24.529z"/>
		<path fill="#EE3C58" d="M79.992,33.506l9.525,5.585l2.089-4.035c0.972-1.88,0.275-4.293-1.552-5.364l-5.821-3.415L79.992,33.506z"
			/>
		<path fill="#ECC97F" d="M37.036,85.793c2.81,2.27,3.817,9.215,1.332,15.043l1.283,0.751l1.305,0.765l1.28,0.752
			c3.877-5.01,10.427-7.523,13.779-6.178c3.352,1.348,5.607-3.994,5.607-3.994l-11.268-6.609l-1.306-0.764l-11.266-6.609
			C37.784,78.949,34.224,83.523,37.036,85.793z"/>
		<polygon fill="#233870" points="40.935,105.279 42.218,103.092 38.353,100.825 36.401,104.155 		"/>
		<polygon fill="#111E44" points="38.687,104.721 40.935,105.279 42.218,103.092 40.302,101.969 		"/>
	</g>
</g>
</svg>
