<?xml version="1.0" encoding="utf-8"?>
<!-- Generator: Adobe Illustrator 16.0.0, SVG Export Plug-In . SVG Version: 6.00 Build 0)  -->
<!DOCTYPE svg PUBLIC "-//W3C//DTD SVG 1.1//EN" "http://www.w3.org/Graphics/SVG/1.1/DTD/svg11.dtd">
<svg version="1.1" id="Layer_1" xmlns="http://www.w3.org/2000/svg" xmlns:xlink="http://www.w3.org/1999/xlink" x="0px" y="0px"
	 width="128px" height="128px" viewBox="0 0 128 128" enable-background="new 0 0 128 128" xml:space="preserve">
<g>
	<circle fill="#B2A07D" cx="64" cy="64" r="64"/>
	<path fill="#88806E" d="M107.969,44.92l-1.459,1.276L59.951,62.333l-17.459,2.91l-14.814,3.438l-7.672,8.994l-2.218,1.93
		l48.218,48.344c34.09-1.052,61.454-28.748,61.97-62.971L107.969,44.92z"/>
	<g>
		<rect x="46.402" y="63.544" fill="#00ADEE" width="11.502" height="15.052"/>
		<rect x="46.036" y="47.146" fill="#26A9E0" width="59.348" height="15.54"/>
		<polygon fill="#FFF100" points="58.575,43.867 103.507,43.867 103.507,41.847 58.575,41.847 58.575,38.01 56.15,38.01 
			56.15,43.867 57.867,43.867 		"/>
		<path fill="#231F20" d="M33.664,72.143c-4.931,0-8.927,3.996-8.927,8.926c0,4.928,3.996,8.923,8.927,8.923
			c4.929,0,8.922-3.995,8.922-8.923C42.586,76.139,38.593,72.143,33.664,72.143z M33.664,85.713c-2.566,0-4.648-2.08-4.648-4.647
			c0-2.565,2.082-4.646,4.648-4.646c2.564,0,4.645,2.08,4.645,4.646C38.309,83.633,36.229,85.713,33.664,85.713z"/>
		<path fill="#231F20" d="M92.851,72.143c-4.933,0-8.928,3.996-8.928,8.926c0,4.928,3.995,8.923,8.928,8.923
			c4.927,0,8.924-3.995,8.924-8.923C101.774,76.139,97.777,72.143,92.851,72.143z M92.851,85.713c-2.567,0-4.65-2.08-4.65-4.647
			c0-2.565,2.083-4.646,4.65-4.646c2.564,0,4.646,2.08,4.646,4.646C97.497,83.633,95.415,85.713,92.851,85.713z"/>
		<path fill="#FAAF40" d="M107.805,73.564l-0.35-25.356h0.494v-3.434h-64.32v3.434h1.336c-0.252,3.305-1.033,10.941-3.054,13.106
			c-2.601,2.783-11.881,0.927-17.448,3.898c-5.568,2.971-4.455,9.837-4.455,9.837l-2.041,0.185v4.457h5.446
			c0.679-5.08,4.983-9.011,10.251-9.011c5.266,0,9.567,3.931,10.246,9.011H82.6c0.68-5.08,4.985-9.011,10.251-9.011
			c5.264,0,9.566,3.931,10.247,9.011h6.936v-6.127H107.805z M57.296,77.93H47.128V64.063h10.168V77.93z M57.296,62.115H47.128
			V48.249h10.168V62.115z M69.25,62.115H59.084V48.249H69.25V62.115z M81.208,62.115h-10.17V48.249h10.17V62.115z M93.161,62.115
			H82.993V48.249h10.168V62.115z M105.117,62.115H94.951V48.249h10.166V62.115z"/>
	</g>
</g>
</svg>
