<?xml version="1.0" encoding="utf-8"?>
<!-- Generator: Adobe Illustrator 16.0.0, SVG Export Plug-In . SVG Version: 6.00 Build 0)  -->
<!DOCTYPE svg PUBLIC "-//W3C//DTD SVG 1.1//EN" "http://www.w3.org/Graphics/SVG/1.1/DTD/svg11.dtd">
<svg version="1.1" id="Layer_1" xmlns="http://www.w3.org/2000/svg" xmlns:xlink="http://www.w3.org/1999/xlink" x="0px" y="0px"
	 width="128px" height="128px" viewBox="0 0 128 128" enable-background="new 0 0 128 128" xml:space="preserve">
<g>
	<circle fill="#F7BC77" cx="64" cy="64" r="64"/>
	<path fill="#E29F6E" d="M102.076,25.281l-1.402,1.822l-68.176,54.34l-7.014,4.033l42.295,42.404C101.365,125.924,128,98.078,128,64
		c0-4.943-0.578-9.75-1.639-14.371L102.076,25.281z"/>
	<g>
		<path fill="#2B424D" d="M103.219,82.15c0,2.045-1.674,3.717-3.717,3.717H28.498c-2.041,0-3.715-1.672-3.715-3.717V28.076
			c0-2.045,1.674-3.719,3.715-3.719h71.004c2.043,0,3.717,1.674,3.717,3.719V82.15z"/>
		<rect x="32.777" y="32.066" fill="#526988" width="62.445" height="46.092"/>
		<rect x="54.523" y="85.867" fill="#4F6576" width="18.956" height="9.371"/>
		<rect x="43.533" y="95.238" fill="#1C373E" width="40.934" height="8.406"/>
		<g>
			<path fill="#E8E7E7" d="M59.439,55.692c0.07,4.192,2.744,5.918,5.846,5.918c2.219,0,3.557-0.388,4.719-0.881l0.529,2.22
				c-1.09,0.492-2.959,1.055-5.67,1.055c-5.246,0-8.383-3.451-8.383-8.592c0-5.143,3.029-9.193,7.994-9.193
				c5.567,0,7.045,4.896,7.045,8.031c0,0.633-0.07,1.127-0.107,1.442H59.439z M68.527,53.475c0.033-1.973-0.811-5.036-4.297-5.036
				c-3.137,0-4.508,2.888-4.756,5.036H68.527z"/>
		</g>
	</g>
</g>
</svg>
