<?xml version="1.0" encoding="utf-8"?>
<!-- Generator: Adobe Illustrator 16.0.0, SVG Export Plug-In . SVG Version: 6.00 Build 0)  -->
<!DOCTYPE svg PUBLIC "-//W3C//DTD SVG 1.1//EN" "http://www.w3.org/Graphics/SVG/1.1/DTD/svg11.dtd">
<svg version="1.1" id="Layer_1" xmlns="http://www.w3.org/2000/svg" xmlns:xlink="http://www.w3.org/1999/xlink" x="0px" y="0px"
	 width="128px" height="128px" viewBox="0 0 128 128" enable-background="new 0 0 128 128" xml:space="preserve">
<g>
	<circle fill="#BB888C" cx="64" cy="64" r="64"/>
	<rect x="35.762" y="41.483" fill="#8FD7F7" width="50.57" height="25.761"/>
	<path fill="#F9C013" d="M40.436,86.381c1.203,0,2.185-0.977,2.185-2.184s-0.981-2.186-2.185-2.186
		c-1.209,0-2.188,0.979-2.188,2.186S39.227,86.381,40.436,86.381z"/>
	<path fill="#F9C013" d="M45.625,86.381c1.21,0,2.185-0.977,2.185-2.184s-0.975-2.186-2.185-2.186c-1.206,0-2.185,0.979-2.185,2.186
		S44.419,86.381,45.625,86.381z"/>
	<circle fill="#F9C013" cx="76.85" cy="84.196" r="2.185"/>
	<path fill="#F9C013" d="M82.043,86.381c1.205,0,2.184-0.977,2.184-2.184s-0.979-2.186-2.184-2.186
		c-1.209,0-2.188,0.979-2.188,2.186S80.834,86.381,82.043,86.381z"/>
	<path fill="#48495A" d="M40.391,93.594c0,0.021-0.015,0.041-0.015,0.064v4.824c0,1.178,0.964,2.145,2.146,2.145h1.949
		c1.179,0,2.146-0.967,2.146-2.145v-4.824c0-0.023-0.014-0.043-0.014-0.064H40.391z"/>
	<path fill="#48495A" d="M75.871,93.594c0,0.021-0.014,0.041-0.014,0.064v4.824c0,1.178,0.965,2.145,2.146,2.145h1.949
		c1.182,0,2.146-0.967,2.146-2.145v-4.824c0-0.023-0.016-0.043-0.016-0.064H75.871z"/>
	<path fill="#EDC55D" d="M81.721,35.079H40.758c-3.537,0-6.434,2.896-6.434,6.435v2.865h-4.621v0.532h4.621v15.207h-4.621v0.533
		h4.621v25.794c0,3.535,2.896,6.43,6.434,6.43h40.963c3.533,0,6.43-2.895,6.43-6.43V41.514
		C88.15,37.976,85.254,35.079,81.721,35.079z M37.084,42.927h23.195v23.405H37.084V42.927z M48.68,87.418H37.382v-6.443H48.68
		V87.418z M71.779,87.418H50.695v-0.754h21.084V87.418z M71.779,86.178H50.695v-1.109h21.084V86.178z M71.779,84.582H50.695v-1.109
		h21.084V84.582z M71.779,82.988H50.695v-1.111h21.084V82.988z M71.779,81.393H50.695v-1.111h21.084V81.393z M71.779,79.797H50.695
		v-1.111h21.084V79.797z M71.779,78.201H50.695V77.09h21.084V78.201z M71.779,76.605H50.695v-1.111h21.084V76.605z M71.779,75.01
		H50.695v-1.111h21.084V75.01z M71.779,73.416H50.695v-0.715h21.084V73.416z M85.098,87.418H73.795v-6.443h11.303V87.418z
		 M85.395,66.332H62.201V42.927h23.194V66.332z"/>
	<rect x="27.746" y="45.157" fill="#48495A" width="4.997" height="14.66"/>
	<rect x="47.102" y="27.374" fill="#48495A" width="28.271" height="6.969"/>
	<g>
		<g>
			<g>
				<rect x="50.695" y="81.877" fill="#A8727E" width="21.084" height="1.111"/>
			</g>
			<g>
				<rect x="50.695" y="80.281" fill="#A8727E" width="21.084" height="1.111"/>
			</g>
			<g>
				<rect x="50.695" y="78.686" fill="#A8727E" width="21.084" height="1.111"/>
			</g>
			<g>
				<rect x="50.695" y="83.473" fill="#A8727E" width="21.084" height="1.109"/>
			</g>
			<g>
				<rect x="50.695" y="77.09" fill="#A8727E" width="21.084" height="1.111"/>
			</g>
			<g>
				<rect x="50.695" y="85.068" fill="#A8727E" width="21.084" height="1.109"/>
			</g>
			<g>
				<g>
					<path fill="#A8727E" d="M87.287,38.316c0.547,0.944,0.863,2.034,0.863,3.197v44.932c0,3.535-2.896,6.43-6.43,6.43H40.758
						c-1.274,0-2.462-0.379-3.464-1.025v0.002l3.082,2.197v-0.391c0-0.023,0.015-0.043,0.015-0.064h6.213
						c0,0.021,0.014,0.041,0.014,0.064v4.824c0,1.178-0.967,2.145-2.146,2.145h-1.949c-0.754,0-1.416-0.395-1.799-0.984
						l-0.328,0.438L68.1,127.855c28.82-1.822,52.449-22.711,58.426-50.199L87.287,38.316z M82.1,98.482
						c0,1.178-0.965,2.145-2.146,2.145h-1.949c-1.182,0-2.146-0.967-2.146-2.145v-4.824c0-0.023,0.014-0.043,0.014-0.064h6.213
						c0,0.021,0.016,0.041,0.016,0.064V98.482z"/>
				</g>
			</g>
			<g>
				<g>
					<path fill="#A8727E" d="M85.098,87.418v-6.443H73.795v6.443H85.098z M82.043,82.012c1.205,0,2.184,0.979,2.184,2.186
						s-0.979,2.184-2.184,2.184c-1.209,0-2.188-0.977-2.188-2.184S80.834,82.012,82.043,82.012z M76.85,82.012
						c1.207,0,2.186,0.979,2.186,2.186s-0.979,2.184-2.186,2.184c-1.205,0-2.184-0.977-2.184-2.184S75.645,82.012,76.85,82.012z"/>
				</g>
			</g>
			<g>
				<rect x="50.695" y="86.664" fill="#A8727E" width="21.084" height="0.754"/>
			</g>
			<g>
				<g>
					<path fill="#A8727E" d="M48.68,87.418v-6.443H37.382v6.443H48.68z M45.625,82.012c1.21,0,2.185,0.979,2.185,2.186
						s-0.975,2.184-2.185,2.184c-1.206,0-2.185-0.977-2.185-2.184S44.419,82.012,45.625,82.012z M40.436,82.012
						c1.203,0,2.185,0.979,2.185,2.186s-0.981,2.184-2.185,2.184c-1.209,0-2.188-0.977-2.188-2.184S39.227,82.012,40.436,82.012z"/>
				</g>
			</g>
			<g>
				<rect x="50.695" y="75.494" fill="#A8727E" width="21.084" height="1.111"/>
			</g>
			<g>
				<path fill="#A8727E" d="M72.832,27.374h2.541v6.969H47.672l-0.081,0.736h34.13c1.166,0,2.262,0.321,3.207,0.872l-9.211-9.236
					L72.832,27.374z"/>
			</g>
			<g>
				<polygon fill="#A8727E" points="32.743,59.817 28.579,59.817 34.324,64.09 34.324,60.651 29.703,60.651 29.703,60.118 
					34.324,60.118 34.324,44.911 30.245,44.911 30.245,45.157 32.743,45.157 				"/>
			</g>
			<g>
				<rect x="50.695" y="73.898" fill="#A8727E" width="21.084" height="1.111"/>
			</g>
			<g>
				<rect x="50.695" y="72.701" fill="#A8727E" width="21.084" height="0.715"/>
			</g>
		</g>
	</g>
</g>
</svg>
