<?xml version="1.0" encoding="utf-8"?>
<!-- Generator: Adobe Illustrator 16.0.0, SVG Export Plug-In . SVG Version: 6.00 Build 0)  -->
<!DOCTYPE svg PUBLIC "-//W3C//DTD SVG 1.1//EN" "http://www.w3.org/Graphics/SVG/1.1/DTD/svg11.dtd">
<svg version="1.1" id="Layer_1" xmlns="http://www.w3.org/2000/svg" xmlns:xlink="http://www.w3.org/1999/xlink" x="0px" y="0px"
	 width="128px" height="128px" viewBox="0 0 128 128" enable-background="new 0 0 128 128" xml:space="preserve">
<g>
	<circle fill="#E8AC99" cx="64" cy="64" r="64"/>
	<path fill="#D79883" d="M98.05,33.14l-0.665,0.813c0,0-1.146-1.527-7.632-2.672s-8.395,5.343-8.395,5.343h-6.869
		c0,0-2.671-12.974-9.539-13.737c-6.868-0.763-11.829,13.737-11.829,13.737s-5.724,2.671-6.104-0.382S43.2,31.662,43.2,31.662
		c-11.066-1.526-10.684,2.29-16.407,14.5c-5.724,12.211,11.065,27.092,11.065,27.092l1.908,22.895l-1.724,2.873l28.83,28.906
		C100.886,126.424,128,98.383,128,64c0-0.286-0.019-0.568-0.021-0.854L98.05,33.14z"/>
	<g>
		<path fill="#F8FBFB" d="M91.651,76.871V49.386c0-8.506-6.961-15.464-15.467-15.464H51.847c-8.504,0-15.465,6.958-15.465,15.464
			v27.485H91.651z"/>
		<g>
			<path fill="#C1C1C1" d="M56.245,33.705c1.018-5.331,4.162-9.338,7.771-9.338s6.754,4.007,7.77,9.338h3.148
				c-1.127-7.202-5.514-12.432-10.918-12.432s-9.793,5.229-10.918,12.432H56.245z"/>
		</g>
		<path fill="#474A5E" d="M36.382,76.871v18.484c0,2.834,2.32,5.156,5.155,5.156h44.958c2.836,0,5.156-2.322,5.156-5.156V76.871
			H36.382z"/>
		<g>
			<rect x="44.825" y="35.905" fill="#392F37" width="3.951" height="55.114"/>
			<rect x="79.255" y="35.905" fill="#392F37" width="3.953" height="55.114"/>
		</g>
		<g>
			<path fill="#484A5F" d="M36.257,68.526c-0.244-0.236-0.486-0.47-0.728-0.701c-2.257-2.15-4.386-4.184-5.839-6.991
				c-2.235-4.32-2.711-9.26-1.49-15.541c0.945-4.863,3.639-10.879,8.115-11.828c2.449-0.518,7.085-0.425,8.492,0.893
				c0.256,0.24,0.099,0.974,0.018,1.548l3.881,0.057c0.24-1.67-0.258-3.137-1.434-4.24c-3.084-2.885-10.018-2.144-11.705-1.785
				c-6.199,1.313-9.701,8.438-10.91,14.666c-1.383,7.126-0.801,12.81,1.828,17.89c1.729,3.345,4.181,5.684,6.551,7.944
				c1.139,1.084,2.22,2.127,3.221,3.259V68.526z"/>
		</g>
		<g>
			<path fill="#484A5F" d="M91.739,68.526c0.244-0.236,0.489-0.47,0.73-0.701c2.254-2.15,4.386-4.184,5.838-6.991
				c2.237-4.32,2.71-9.26,1.491-15.541c-0.944-4.863-3.638-10.879-8.116-11.828c-2.447-0.518-7.083-0.425-8.492,0.893
				c-0.254,0.24-0.1,0.974-0.018,1.548l-3.881,0.057c-0.238-1.67,0.255-3.137,1.433-4.24c3.083-2.885,10.017-2.144,11.704-1.785
				c6.201,1.313,9.701,8.438,10.912,14.666c1.385,7.126,0.801,12.81-1.826,17.89c-1.73,3.345-4.183,5.684-6.555,7.944
				c-1.136,1.084-2.217,2.127-3.221,3.259V68.526z"/>
		</g>
		<g>
			<ellipse fill="#26202E" cx="45.878" cy="102.99" rx="1.846" ry="3.738"/>
			<ellipse fill="#26202E" cx="82.155" cy="102.99" rx="1.846" ry="3.738"/>
		</g>
		<rect x="53.646" y="47.94" fill="#EF5332" width="20.741" height="23.972"/>
		<g>
			<path fill="#FFCA0A" d="M49.689,64.762h-5.815V57.37h5.815V64.762z M44.906,63.73h3.753V58.4h-3.753V63.73z"/>
		</g>
		<g>
			<path fill="#FFCA0A" d="M84.141,64.762h-5.815V57.37h5.815V64.762z M79.356,63.73h3.75V58.4h-3.75V63.73z"/>
		</g>
	</g>
</g>
</svg>
