<?xml version="1.0" encoding="utf-8"?>
<!-- Generator: Adobe Illustrator 16.0.0, SVG Export Plug-In . SVG Version: 6.00 Build 0)  -->
<!DOCTYPE svg PUBLIC "-//W3C//DTD SVG 1.1//EN" "http://www.w3.org/Graphics/SVG/1.1/DTD/svg11.dtd">
<svg version="1.1" id="Layer_1" xmlns="http://www.w3.org/2000/svg" xmlns:xlink="http://www.w3.org/1999/xlink" x="0px" y="0px"
	 width="128px" height="128px" viewBox="0 0 128 128" enable-background="new 0 0 128 128" xml:space="preserve">
<g>
	<circle fill="#97989C" cx="64" cy="64" r="64"/>
	<path fill="#85868D" d="M92.638,26.617L34.757,82.159l-9.984,11.628l33.619,33.953c1.85,0.161,3.717,0.26,5.608,0.26
		c35.346,0,64-28.653,64-64c0-0.574-0.028-1.142-0.043-1.712L92.638,26.617z"/>
	<g>
		<path fill="#F3EA96" d="M93.876,37.003c6.57,4.785,11.623,8.908,11.623,10.282V87.92c0,3.923-3.211,7.138-7.141,7.138H29.641
			c-3.929,0-7.14-3.215-7.14-7.138V47.285c0-1.411,5.369-5.719,12.256-10.656l29.43-19.687L93.876,37.003z"/>
		<polygon fill="#FFFFFF" points="93.243,56.48 93.243,27.187 34.757,27.187 34.757,56.076 44.005,65.639 84.59,65.639 		"/>
		<g>
			<rect x="45.857" y="37.226" fill="#BBBEC3" width="36.283" height="3.57"/>
		</g>
		<g>
			<rect x="45.857" y="49.542" fill="#BBBEC3" width="36.283" height="3.569"/>
		</g>
		<path fill="#CEA647" d="M104.404,46.302c-0.356-0.345-0.924-0.335-1.263,0.02l-18.552,19.2H44.424
			c-0.154,0-0.293,0.049-0.419,0.117L25.339,46.322c-0.342-0.355-0.905-0.364-1.263-0.02c-0.353,0.342-0.364,0.905-0.021,1.26
			l18.33,18.971l-16.66,26.75c-0.261,0.418-0.134,0.967,0.285,1.23c0.146,0.088,0.311,0.133,0.472,0.133
			c0.296,0,0.589-0.15,0.759-0.421L44.06,67.224c0.111,0.05,0.234,0.082,0.364,0.082h40.048l16.77,26.92
			c0.167,0.271,0.46,0.421,0.758,0.421c0.163,0,0.322-0.045,0.473-0.133c0.419-0.264,0.545-0.813,0.285-1.23l-16.66-26.75
			l18.326-18.971C104.769,47.208,104.759,46.644,104.404,46.302z"/>
	</g>
</g>
</svg>
