<?xml version="1.0" encoding="utf-8"?>
<!-- Generator: Adobe Illustrator 16.0.0, SVG Export Plug-In . SVG Version: 6.00 Build 0)  -->
<!DOCTYPE svg PUBLIC "-//W3C//DTD SVG 1.1//EN" "http://www.w3.org/Graphics/SVG/1.1/DTD/svg11.dtd">
<svg version="1.1" id="Layer_1" xmlns="http://www.w3.org/2000/svg" xmlns:xlink="http://www.w3.org/1999/xlink" x="0px" y="0px"
	 width="128px" height="128px" viewBox="0 0 128 128" enable-background="new 0 0 128 128" xml:space="preserve">
<g>
	<circle fill="#EDC55D" cx="64" cy="64" r="64"/>
	<path fill="#CA8F42" d="M105.703,60.032l1.772,1.989l-3.947-0.581L52.945,33.495l-4.248-4.973l-4.136,1.339l-2.516,17.886
		l-9.781,10.62l-6.497,9.063l10.131,7.984l0.279,22.077l-2.136,2.288l28.101,28.174c0.618,0.018,1.233,0.047,1.856,0.047
		c29.718,0,54.699-20.258,61.903-47.715L105.703,60.032z"/>
	<rect x="36.56" y="31.074" fill="#FFFFFF" width="9.923" height="16.271"/>
	<polygon fill="#F0F6E7" points="64,26.641 33.528,56.18 33.528,100.124 94.453,100.124 94.453,56.18 94.474,56.18 	"/>
	<rect x="45.118" y="63.382" fill="#FFFFFF" width="18.882" height="36.742"/>
	<rect x="69.265" y="66.367" fill="#F1EFF7" width="16.471" height="22.823"/>
	<rect x="34.345" y="28.522" fill="#E97A24" width="14.353" height="2.923"/>
	<g>
		<g>
			<polygon fill="#711A12" points="102.236,67.43 64,30.36 25.768,67.43 20.525,62.021 64,19.875 107.476,62.021 			"/>
		</g>
	</g>
	<rect x="47.147" y="66.367" fill="#E37925" width="14.823" height="33.757"/>
	<rect x="71.147" y="68.25" fill="#61C1CA" width="12.705" height="19.059"/>
</g>
</svg>
