<?xml version="1.0" encoding="utf-8"?>
<!-- Generator: Adobe Illustrator 16.0.0, SVG Export Plug-In . SVG Version: 6.00 Build 0)  -->
<!DOCTYPE svg PUBLIC "-//W3C//DTD SVG 1.1//EN" "http://www.w3.org/Graphics/SVG/1.1/DTD/svg11.dtd">
<svg version="1.1" id="Layer_1" xmlns="http://www.w3.org/2000/svg" xmlns:xlink="http://www.w3.org/1999/xlink" x="0px" y="0px"
	 width="128px" height="128px" viewBox="0 0 128 128" enable-background="new 0 0 128 128" xml:space="preserve">
<g>
	<circle fill="#FBC8A8" cx="64" cy="64" r="64"/>
	<path fill="#F58F7C" d="M102.471,38.688l-2.707,2.931L22.094,95.148l-3.08,1.607l29.201,29.277C53.264,127.314,58.551,128,64,128
		c35.251,0,63.841-28.504,63.992-63.723L102.471,38.688z"/>
	<g>
		<polygon fill="#E0594D" points="53.87,96.711 18.792,96.711 18.792,49.12 53.87,46.653 		"/>
		<polygon fill="#E0594D" points="88.479,96.711 53.401,96.711 53.401,46.653 88.479,49.12 		"/>
	</g>
	<g>
		<path fill="#E6E7E8" d="M53.635,92.633c-9.195-5.771-20.207-5.771-29.404,0c0-15.437,0-30.871,0-46.31
			c9.197-5.774,20.209-5.774,29.404,0C53.635,61.762,53.635,77.196,53.635,92.633z"/>
		<path fill="#E6E7E8" d="M53.635,92.633c9.197-5.771,20.207-5.771,29.402,0c0-15.437,0-30.871,0-46.31
			c-9.195-5.774-20.205-5.774-29.402,0C53.635,61.762,53.635,77.196,53.635,92.633z"/>
	</g>
	<g>
		<path fill="#334E5C" d="M84.492,31.289c-13.648,0-24.712,11.066-24.712,24.713c0,13.652,11.064,24.716,24.712,24.716
			s24.717-11.063,24.717-24.716C109.209,42.355,98.141,31.289,84.492,31.289z M84.492,58.883c-1.588,0-2.877-1.288-2.877-2.878
			s1.289-2.879,2.877-2.879c1.59,0,2.881,1.289,2.881,2.879S86.082,58.883,84.492,58.883z"/>
		<path fill="#1D2C35" d="M84.492,48.739c-4.01,0-7.266,3.252-7.266,7.263c0,4.014,3.256,7.268,7.266,7.268
			c4.014,0,7.268-3.254,7.268-7.268C91.76,51.991,88.506,48.739,84.492,48.739z M84.492,58.883c-1.588,0-2.877-1.288-2.877-2.878
			s1.289-2.879,2.877-2.879c1.59,0,2.881,1.289,2.881,2.879S86.082,58.883,84.492,58.883z"/>
		<path fill="#485F6C" d="M84.535,33.221L84.23,47.846c0,0,3.986-0.102,7.26,3.989l12.889-7.056
			C104.379,44.779,98.141,33.016,84.535,33.221z"/>
		<path fill="#485F6C" d="M81.527,78.993l1.975-14.495c0,0-3.975-0.354-6.76-4.791l-13.609,5.538
			C63.133,65.245,67.986,77.645,81.527,78.993z"/>
	</g>
</g>
</svg>
