<?xml version="1.0" encoding="utf-8"?>
<!-- Generator: Adobe Illustrator 16.0.0, SVG Export Plug-In . SVG Version: 6.00 Build 0)  -->
<!DOCTYPE svg PUBLIC "-//W3C//DTD SVG 1.1//EN" "http://www.w3.org/Graphics/SVG/1.1/DTD/svg11.dtd">
<svg version="1.1" id="Layer_1" xmlns="http://www.w3.org/2000/svg" xmlns:xlink="http://www.w3.org/1999/xlink" x="0px" y="0px"
	 width="128px" height="128px" viewBox="0 0 128 128" enable-background="new 0 0 128 128" xml:space="preserve">
<g>
	<circle fill="#334E5C" cx="64" cy="64" r="64"/>
	<path fill="#2C3D48" d="M97.346,35.598l-0.389,0.519l-6.566-0.313l-3.439-5.609l-1.564,4.671l-5.629,0.313l-3.621-4.984
		l-1.459,4.671l-5.551,0.313l-3.803-4.984l-1.982,4.827l-5.16-0.234l-3.669-4.593L53.1,35.413l-5.55-0.626l-3.85-4.593l-1.936,9.44
		L35.36,41.01l-1.972,52.977l-2.931,2.068l31.818,31.902C62.851,127.972,63.422,128,64,128c34.582,0,62.742-27.436,63.941-61.727
		L97.346,35.598z"/>
	<g>
		<path fill="#C37E4D" d="M99.084,92.447c0,2.945-2.373,5.358-5.277,5.358H34.191c-2.901,0-5.275-2.413-5.275-5.358v-52.8
			c0-2.944,2.374-5.354,5.275-5.354h59.615c2.904,0,5.277,2.41,5.277,5.354V92.447z"/>
		<rect x="37.449" y="48.259" fill="#EDC55D" width="53.561" height="41.289"/>
		<g>
			<g>
				<rect x="41.05" y="30.194" fill="#593914" width="2.65" height="7.851"/>
			</g>
			<g>
				<rect x="51.862" y="30.194" fill="#593914" width="2.65" height="7.851"/>
			</g>
			<g>
				<rect x="62.675" y="30.194" fill="#593914" width="2.649" height="7.851"/>
			</g>
			<g>
				<rect x="73.488" y="30.194" fill="#593914" width="2.648" height="7.851"/>
			</g>
			<g>
				<rect x="84.301" y="30.194" fill="#593914" width="2.65" height="7.851"/>
			</g>
		</g>
		<g>
			<g>
				<rect x="46.935" y="57.536" fill="#324B59" width="4.711" height="3.313"/>
			</g>
			<g>
				<rect x="61.875" y="57.536" fill="#324B59" width="4.71" height="3.313"/>
			</g>
			<g>
				<rect x="76.816" y="57.536" fill="#324B59" width="4.707" height="3.313"/>
			</g>
			<g>
				<rect x="46.935" y="67.832" fill="#324B59" width="4.711" height="3.313"/>
			</g>
			<g>
				<rect x="61.875" y="67.832" fill="#324B59" width="4.71" height="3.313"/>
			</g>
			<g>
				<rect x="76.816" y="67.832" fill="#324B59" width="4.707" height="3.313"/>
			</g>
			<g>
				<rect x="46.935" y="78.124" fill="#324B59" width="4.711" height="3.313"/>
			</g>
			<g>
				<rect x="61.875" y="78.124" fill="#324B59" width="4.71" height="3.313"/>
			</g>
			<g>
				<rect x="76.816" y="78.124" fill="#324B59" width="4.707" height="3.313"/>
			</g>
		</g>
	</g>
</g>
</svg>
