<?xml version="1.0" encoding="utf-8"?>
<!-- Generator: Adobe Illustrator 16.0.0, SVG Export Plug-In . SVG Version: 6.00 Build 0)  -->
<!DOCTYPE svg PUBLIC "-//W3C//DTD SVG 1.1//EN" "http://www.w3.org/Graphics/SVG/1.1/DTD/svg11.dtd">
<svg version="1.1" id="Layer_1" xmlns="http://www.w3.org/2000/svg" xmlns:xlink="http://www.w3.org/1999/xlink" x="0px" y="0px"
	 width="128px" height="128px" viewBox="0 0 128 128" enable-background="new 0 0 128 128" xml:space="preserve">
<g>
	<circle fill="#B2A07D" cx="64" cy="64" r="64"/>
	<path fill="#8B8265" d="M94.999,23.041l-2.906,2.807L40.756,97.3l-7.588,7.589l22.494,22.553C58.393,127.797,61.172,128,64,128
		c35.346,0,64-28.654,64-64c0-2.865-0.207-5.68-0.572-8.445L94.999,23.041z"/>
	<g>
		<path fill="#161D1A" d="M96.244,101.732c0,2.578-2.285,4.684-5.078,4.684H38.619c-2.797,0-6.865-2.105-6.865-4.684l1.787-73.678
			c0-2.578,2.281-4.686,5.078-4.686l52.547-1.785c2.793,0,5.078,3.893,5.078,6.471V101.732z"/>
		<path fill="#1E2D36" d="M94.459,99.945c0,2.578-2.285,4.686-5.08,4.686H36.834c-2.799,0-5.08-2.107-5.08-4.686V26.268
			c0-2.578,2.281-4.684,5.08-4.684h52.545c2.795,0,5.08,2.105,5.08,4.684V99.945z"/>
		<rect x="42.359" y="32.865" fill="#455D6A" width="41.492" height="15.902"/>
		<g>
			<g>
				<g>
					<rect x="43.848" y="60.424" fill="#465E6B" width="5.502" height="3.572"/>
				</g>
				<g>
					<rect x="60.354" y="60.424" fill="#465E6B" width="5.502" height="3.572"/>
				</g>
				<g>
					<rect x="76.861" y="60.424" fill="#465E6B" width="5.5" height="3.572"/>
				</g>
			</g>
			<g>
				<g>
					<rect x="43.848" y="74.016" fill="#465E6B" width="5.502" height="3.572"/>
				</g>
				<g>
					<rect x="60.354" y="74.016" fill="#465E6B" width="5.502" height="3.572"/>
				</g>
				<g>
					<rect x="76.861" y="74.016" fill="#465E6B" width="5.5" height="3.572"/>
				</g>
			</g>
			<g>
				<g>
					<rect x="43.848" y="87.607" fill="#465E6B" width="5.502" height="3.572"/>
				</g>
				<g>
					<rect x="60.354" y="87.607" fill="#465E6B" width="5.502" height="3.572"/>
				</g>
				<g>
					<rect x="76.861" y="87.607" fill="#465E6B" width="5.5" height="3.572"/>
				</g>
			</g>
		</g>
	</g>
</g>
</svg>
