<?xml version="1.0" encoding="utf-8"?>
<!-- Generator: Adobe Illustrator 16.0.0, SVG Export Plug-In . SVG Version: 6.00 Build 0)  -->
<!DOCTYPE svg PUBLIC "-//W3C//DTD SVG 1.1//EN" "http://www.w3.org/Graphics/SVG/1.1/DTD/svg11.dtd">
<svg version="1.1" id="Layer_1" xmlns="http://www.w3.org/2000/svg" xmlns:xlink="http://www.w3.org/1999/xlink" x="0px" y="0px"
	 width="128px" height="128px" viewBox="0 0 128 128" enable-background="new 0 0 128 128" xml:space="preserve">
<g>
	<circle fill="#A7C566" cx="64" cy="64" r="64"/>
	<path fill="#90AE4D" d="M98.715,34.16l-1.48,3.358L37.442,82.363l-6.387,3.992l41.013,41.12C103.604,123.506,128,96.611,128,64
		c0-0.165-0.012-0.327-0.014-0.491L98.715,34.16z"/>
	<path fill="#FFFFFF" d="M91.629,31.334H36.37c-5.146,0-9.358,4.375-9.358,9.723v37.257c0,5.348,4.212,9.726,9.358,9.726h33.023
		c8.072,6.461,22.367,17.82,22.367,17.255c0-0.56-5.699-11.121-9.039-17.255h8.908c5.148,0,9.361-4.378,9.361-9.726V41.057
		C100.99,35.709,96.777,31.334,91.629,31.334z"/>
	<g>
		<path fill="#BFBEBE" d="M86.5,46.334h-45c-0.88,0-1.591-0.713-1.591-1.592c0-0.88,0.711-1.591,1.591-1.591h45
			c0.879,0,1.592,0.711,1.592,1.591C88.092,45.621,87.379,46.334,86.5,46.334z"/>
	</g>
	<g>
		<path fill="#BFBEBE" d="M86.5,61.08h-45c-0.88,0-1.591-0.711-1.591-1.59c0-0.88,0.711-1.592,1.591-1.592h45
			c0.879,0,1.592,0.712,1.592,1.592C88.092,60.369,87.379,61.08,86.5,61.08z"/>
	</g>
	<g>
		<path fill="#BFBEBE" d="M86.5,75.83h-45c-0.88,0-1.591-0.711-1.591-1.59c0-0.88,0.711-1.592,1.591-1.592h45
			c0.879,0,1.592,0.712,1.592,1.592C88.092,75.119,87.379,75.83,86.5,75.83z"/>
	</g>
</g>
</svg>
