<?xml version="1.0" encoding="utf-8"?>
<!-- Generator: Adobe Illustrator 16.0.0, SVG Export Plug-In . SVG Version: 6.00 Build 0)  -->
<!DOCTYPE svg PUBLIC "-//W3C//DTD SVG 1.1//EN" "http://www.w3.org/Graphics/SVG/1.1/DTD/svg11.dtd">
<svg version="1.1" id="Layer_1" xmlns="http://www.w3.org/2000/svg" xmlns:xlink="http://www.w3.org/1999/xlink" x="0px" y="0px"
	 width="128px" height="128px" viewBox="0 0 128 128" enable-background="new 0 0 128 128" xml:space="preserve">
<g>
	<circle fill="#F3806F" cx="64" cy="64" r="64"/>
	<path fill="#E36856" d="M100.736,26.557l-7.373,10.945L78.785,58.257L60.254,34.784l-9.883,8.647l2.471,5.436L42.713,64.187
		L30.111,53.067l4.045,29.418l0.154,16.539l-1.352,1.254l27.551,27.624C61.666,127.964,62.828,128,64,128c35.346,0,64-28.654,64-64
		c0-3.784-0.348-7.484-0.977-11.088L100.736,26.557z"/>
	<path fill="#FFFFFF" d="M73.41,62.405l-13.465-2.135l-2.734-6.699c-1.645-3.548-2.455-4.505-4.889-5.796
		c-3.33-1.768-7.455-0.498-9.223,2.833c-3.619,6.825-5.375,13.732-5.375,21.114c0,3.766,3.049,6.819,6.818,6.819
		c0.623,0,1.219-0.09,1.787-0.242c0.375,0.068,0.762,0.1,1.162,0.049c0.041-0.006,2.838-0.304,5.893,0.474l0.086,0.027
		c0.459,0.118,2.473,0.824,2.932,0.996 M62.709,78.967l-3.1-6.631c-1.035-1.102-6.996-1.391-8.219-1.506
		c0.074-2.706,0.488-5.287,1.266-7.842l2.094,3.162c0.357,0.534,0.836,0.965,1.389,1.256l11.646,1.095"/>
	<path fill="#FFFFFF" d="M62.826,40.085c0,3.807-3.088,6.894-6.895,6.894c-3.811,0-6.893-3.087-6.893-6.894
		c0-3.808,3.082-6.897,6.893-6.897C59.738,33.188,62.826,36.277,62.826,40.085z"/>
	<path fill="#80361B" d="M76.873,26.967c1.402,4.104,2.189,8.645,2.189,13.431c0,17.269-10.176,31.428-23.131,32.849v25.887h44.57
		V26.967H76.873z"/>
	<g>
		<path fill="#80361B" d="M34.156,101.033c-1.05,0-1.899-0.851-1.899-1.9V80.754l-4.729-26.488
			c-0.186-1.032,0.503-2.019,1.535-2.203c1.045-0.188,2.021,0.504,2.202,1.536l4.76,26.653c0.02,0.11,0.029,0.222,0.029,0.334
			v18.547C36.055,100.183,35.205,101.033,34.156,101.033z"/>
	</g>
	<g>
		<path fill="#80361B" d="M53.193,100.189c-0.885,0-1.676-0.619-1.859-1.519l-3.307-16.186H34.156c-1.05,0-1.899-0.851-1.899-1.899
			s0.85-1.899,1.899-1.899h15.422c0.902,0,1.682,0.635,1.861,1.519l3.617,17.705c0.209,1.027-0.455,2.031-1.48,2.241
			C53.447,100.178,53.318,100.189,53.193,100.189z"/>
	</g>
</g>
</svg>
