<?xml version="1.0" encoding="utf-8"?>
<!-- Generator: Adobe Illustrator 16.0.0, SVG Export Plug-In . SVG Version: 6.00 Build 0)  -->
<!DOCTYPE svg PUBLIC "-//W3C//DTD SVG 1.1//EN" "http://www.w3.org/Graphics/SVG/1.1/DTD/svg11.dtd">
<svg version="1.1" id="Layer_1" xmlns="http://www.w3.org/2000/svg" xmlns:xlink="http://www.w3.org/1999/xlink" x="0px" y="0px"
	 width="128px" height="128px" viewBox="0 0 128 128" enable-background="new 0 0 128 128" xml:space="preserve">
<g>
	<circle fill="#3CB19C" cx="64" cy="64" r="64"/>
	<path fill="#26A187" d="M98.088,27.9L82.66,42.794L28.299,93.175l-3.53,2.624l31.656,31.74C58.911,127.832,61.435,128,64,128
		c35.346,0,64-28.653,64-64c0-2.172-0.11-4.316-0.322-6.432L98.088,27.9z"/>
	<g>
		<rect x="29.658" y="28.098" fill="#FDEFDE" width="68.684" height="53.023"/>
		<path fill="#D1BB9A" d="M105.106,90.514c0,5.162-4.783,9.389-10.629,9.389H33.522c-5.846,0-10.629-4.227-10.629-9.389
			c0-5.166,4.783-9.393,10.629-9.393h60.955C100.323,81.121,105.106,85.348,105.106,90.514z"/>
		<g>
			<path fill="#485F6C" d="M49.99,91.746H37.98c-0.978,0-1.769-0.791-1.769-1.769c0-0.977,0.791-1.768,1.769-1.768h12.01
				c0.978,0,1.769,0.791,1.769,1.768C51.759,90.955,50.968,91.746,49.99,91.746z"/>
		</g>
		<g>
			<path fill="#485F6C" d="M70.005,91.746H57.998c-0.977,0-1.768-0.791-1.768-1.769c0-0.977,0.791-1.768,1.768-1.768h12.007
				c0.978,0,1.768,0.791,1.768,1.768C71.772,90.955,70.982,91.746,70.005,91.746z"/>
		</g>
		<g>
			<g>
				<path fill="#E05B4F" d="M61.262,73.551c-0.452,0-0.905-0.172-1.25-0.518c-10.155-10.159-10.155-26.692,0-36.855
					c0.69-0.69,1.81-0.69,2.5,0c0.69,0.691,0.69,1.81,0,2.5c-8.778,8.785-8.778,23.074,0,31.855c0.69,0.69,0.69,1.81,0,2.5
					C62.166,73.379,61.714,73.551,61.262,73.551z"/>
			</g>
			<g>
				<path fill="#E05B4F" d="M68.396,66.424c-0.452,0-0.906-0.172-1.252-0.518c-6.223-6.233-6.223-16.368,0.002-22.594
					c0.691-0.691,1.81-0.691,2.5,0c0.691,0.69,0.691,1.809,0,2.5C64.8,50.66,64.8,58.555,69.647,63.406
					c0.689,0.69,0.689,1.809-0.002,2.5C69.301,66.252,68.849,66.424,68.396,66.424z"/>
			</g>
			<g>
				<path fill="#E05B4F" d="M74.387,60.43c-0.452,0-0.904-0.173-1.25-0.519c-2.921-2.921-2.923-7.676-0.001-10.604
					c0.69-0.693,1.809-0.69,2.5-0.004c0.691,0.691,0.691,1.811,0.003,2.501c-1.545,1.547-1.547,4.063-0.002,5.607
					c0.69,0.688,0.69,1.81,0,2.5C75.292,60.257,74.839,60.43,74.387,60.43z"/>
			</g>
		</g>
	</g>
</g>
</svg>
