<?xml version="1.0" encoding="utf-8"?>
<!-- Generator: Adobe Illustrator 16.0.0, SVG Export Plug-In . SVG Version: 6.00 Build 0)  -->
<!DOCTYPE svg PUBLIC "-//W3C//DTD SVG 1.1//EN" "http://www.w3.org/Graphics/SVG/1.1/DTD/svg11.dtd">
<svg version="1.1" id="Layer_1" xmlns="http://www.w3.org/2000/svg" xmlns:xlink="http://www.w3.org/1999/xlink" x="0px" y="0px"
	 width="128px" height="128px" viewBox="0 0 128 128" enable-background="new 0 0 128 128" xml:space="preserve">
<g>
	<circle fill="#F3806F" cx="64" cy="64" r="64"/>
	<path fill="#DB6653" d="M88.838,24.56l-1.844,2.457L36.595,74.75l-7.201,25.867l-2.263,1.851l24.211,24.275
		C55.435,127.563,59.667,128,64,128c35.346,0,64-28.653,64-64c0-0.061-0.004-0.12-0.004-0.181L88.838,24.56z"/>
	<polyline fill="#FFFFFF" points="89.111,81.984 89.111,88.798 27.603,103.374 27.603,24.626 89.111,24.626 89.111,70.592 	"/>
	<g>
		<rect x="39.058" y="33.712" fill="#BFBFBF" width="35.829" height="2.785"/>
	</g>
	<g>
		<rect x="39.058" y="45.144" fill="#BFBFBF" width="35.829" height="2.785"/>
	</g>
	<g>
		<rect x="39.058" y="56.66" fill="#BFBFBF" width="23.189" height="2.785"/>
	</g>
	<g>
		<rect x="39.058" y="68.174" fill="#BFBFBF" width="30.487" height="2.785"/>
	</g>
	<g>
		
			<rect x="79.997" y="33.423" transform="matrix(0.7357 0.6773 -0.6773 0.7357 55.4724 -43.9375)" fill="#F7981D" width="8.083" height="31.384"/>
		
			<rect x="80.734" y="31.537" transform="matrix(0.736 0.677 -0.677 0.736 53.6151 -43.0365)" fill="#FDE531" width="2.513" height="31.384"/>
		
			<rect x="82.554" y="33.312" transform="matrix(-0.7355 -0.6775 0.6775 -0.7355 112.4384 141.9039)" fill="#F8CC0D" width="2.73" height="31.384"/>
		<polygon fill="#DEBEA1" points="76.385,63.397 70.438,57.923 66.773,67.715 		"/>
		<polygon fill="#F1D7B7" points="74.295,61.474 70.438,57.923 66.773,67.715 		"/>
		<polygon fill="#FAF6C3" points="72.297,59.634 70.438,57.923 66.773,67.715 		"/>
		<polygon fill="#39454E" points="67.982,64.484 66.773,67.715 69.943,66.289 		"/>
		<path fill="#E76165" d="M97.627,40.316l2.486-2.704c0.443-0.482,0.359-1.286-0.18-1.784l-3.967-3.649
			c-0.543-0.5-1.352-0.516-1.791-0.034l-2.488,2.703L97.627,40.316z"/>
		<path fill="#A22163" d="M99.934,35.828l-3.115-2.865l-3.293,3.578l4.102,3.775l2.486-2.704
			C100.557,37.13,100.473,36.326,99.934,35.828z"/>
		<path fill="#802149" d="M99.934,35.828l-1.098-1.009l-3.293,3.579l2.084,1.918l2.486-2.704
			C100.557,37.13,100.473,36.326,99.934,35.828z"/>
	</g>
	<polyline fill="#A6A8AB" points="27.603,103.374 64.269,75.174 89.111,88.798 	"/>
</g>
</svg>
