<?xml version="1.0" encoding="utf-8"?>
<!-- Generator: Adobe Illustrator 16.0.0, SVG Export Plug-In . SVG Version: 6.00 Build 0)  -->
<!DOCTYPE svg PUBLIC "-//W3C//DTD SVG 1.1//EN" "http://www.w3.org/Graphics/SVG/1.1/DTD/svg11.dtd">
<svg version="1.1" id="Layer_1" xmlns="http://www.w3.org/2000/svg" xmlns:xlink="http://www.w3.org/1999/xlink" x="0px" y="0px"
	 width="128px" height="128px" viewBox="0 0 128 128" enable-background="new 0 0 128 128" xml:space="preserve">
<g>
	<circle fill="#5CA345" cx="64" cy="64" r="64"/>
	<path fill="#46833E" d="M95.969,23.394l-4.607,2.931L83.855,48.52l-9.141-9.792L59.701,44.93l-16.32,3.916l0.979,14.688
		l-1.305,40.474l-2.574,2.277l21.609,21.667C62.727,127.971,63.359,128,64,128c35.348,0,64-28.653,64-64
		c0-3.109-0.232-6.163-0.662-9.154L95.969,23.394z"/>
	<path fill="#FFFFFF" d="M95.197,23.686l-8.631-2.064c-0.236,0.987-4.012,17.028-6.207,41.783H50.801l-2.504-6.135H72.42
		c2.451,0,4.438-1.987,4.438-4.437V41.92c0-2.45-1.986-4.437-4.438-4.437H37.24c-1.479,0-2.859,0.735-3.684,1.963
		c-0.824,1.226-0.982,2.781-0.424,4.15l8.617,21.115c-0.799,0.801-1.293,1.907-1.293,3.129v38.444h8.873V93.651h29.504
		c-0.049,4.129-0.035,8.377,0.057,12.729l8.871-0.187C86.779,59.521,95.111,24.038,95.197,23.686z M79.041,84.778H49.33v-12.5
		h30.342C79.408,76.272,79.191,80.445,79.041,84.778z"/>
</g>
</svg>
