<?xml version="1.0" encoding="utf-8"?>
<!-- Generator: Adobe Illustrator 16.0.0, SVG Export Plug-In . SVG Version: 6.00 Build 0)  -->
<!DOCTYPE svg PUBLIC "-//W3C//DTD SVG 1.1//EN" "http://www.w3.org/Graphics/SVG/1.1/DTD/svg11.dtd">
<svg version="1.1" id="Layer_1" xmlns="http://www.w3.org/2000/svg" xmlns:xlink="http://www.w3.org/1999/xlink" x="0px" y="0px"
	 width="128px" height="128px" viewBox="0 0 128 128" enable-background="new 0 0 128 128" xml:space="preserve">
<g>
	<circle fill="#D1E2E4" cx="64" cy="64" r="64"/>
	<path fill="#98B290" d="M83.059,19.719l-35.845,41.71L37.135,50.643l-12.026,1.115l9.671,13.816v7.253l2.764,6.908L52.05,96.66
		l-6.563,8.635l-1.859,4.563l18.035,18.083C62.439,127.969,63.217,128,64,128c35.092,0,63.572-28.246,63.98-63.242L83.059,19.719z"
		/>
	<g>
		<path fill="#2473A5" d="M84.53,69.349c0,2.725-2.231,4.953-4.954,4.953h-31.15c-2.725,0-4.953-2.229-4.953-4.953V23.319
			c0-2.729,2.229-4.958,4.953-4.958h31.15c2.723,0,4.954,2.229,4.954,4.958V69.349z"/>
		<path fill="#273A4B" d="M100.652,48.721h-7.865c-1.063,0-1.922,0.859-1.922,1.922v20.248c-0.008,0.37-0.297,9.03-7.968,9.03
			H62.306h-1.562H45.107c-7.49,0-7.946-8.11-7.973-8.985V50.643c0-1.063-0.859-1.922-1.922-1.922h-7.864
			c-1.062,0-1.922,0.859-1.922,1.922c0,1.062,0.86,1.921,1.922,1.921h5.943V70.98c0.103,4.422,2.706,12.784,11.815,12.784H58.85
			l-16.041,22.849c-0.61,0.867-0.4,2.066,0.469,2.676c0.336,0.237,0.721,0.35,1.102,0.35c0.604,0,1.201-0.285,1.574-0.818
			L62.08,85.849v21.868c0,1.063,0.859,1.922,1.922,1.922s1.922-0.859,1.922-1.922V85.854l16.123,22.966
			c0.374,0.533,0.971,0.818,1.575,0.818c0.381,0,0.766-0.112,1.102-0.35c0.868-0.609,1.079-1.809,0.469-2.676L69.151,83.765h13.746
			c9.108,0,11.708-8.362,11.812-12.829V52.563h5.943c1.062,0,1.921-0.859,1.921-1.921C102.573,49.58,101.714,48.721,100.652,48.721z
			"/>
	</g>
</g>
</svg>
