<?xml version="1.0" encoding="utf-8"?>
<!-- Generator: Adobe Illustrator 16.0.0, SVG Export Plug-In . SVG Version: 6.00 Build 0)  -->
<!DOCTYPE svg PUBLIC "-//W3C//DTD SVG 1.1//EN" "http://www.w3.org/Graphics/SVG/1.1/DTD/svg11.dtd">
<svg version="1.1" id="Layer_1" xmlns="http://www.w3.org/2000/svg" xmlns:xlink="http://www.w3.org/1999/xlink" x="0px" y="0px"
	 width="128px" height="128px" viewBox="0 0 128 128" enable-background="new 0 0 128 128" xml:space="preserve">
<g>
	<circle fill="#EDC55D" cx="64" cy="64" r="64"/>
	<path fill="#D89E46" d="M99.045,28.507l-1.73,0.547c-1.498-2.745-25.959-7.239-52.917,22.713
		C17.442,81.719,29.172,98.442,29.172,98.442l-0.318,0.778l28.341,28.415C59.431,127.873,61.701,128,64,128
		c35.346,0,64-28.654,64-64c0-2.308-0.129-4.585-0.365-6.829L99.045,28.507z"/>
	<g>
		<path fill="#FFFFFF" d="M39.341,103.031c-4.322,0-7.954-1.229-10.54-3.815c-9.281-9.285-1.08-32.031,18.668-51.783
			c9.289-9.289,19.69-16.383,29.288-19.975c9.941-3.721,17.93-3.257,22.49,1.305c4.887,4.885,5.023,13.926,0.379,24.804
			c-0.289,0.677-1.072,0.992-1.75,0.702c-0.676-0.289-0.99-1.071-0.701-1.748c4.195-9.825,4.264-17.798,0.188-21.874
			c-3.779-3.78-10.764-4.024-19.672-0.692c-9.248,3.461-19.311,10.338-28.336,19.362c-18.07,18.074-26.62,40.062-18.669,48.015
			c7.957,7.954,29.939-0.6,48.01-18.671c6.162-6.165,11.43-12.955,15.234-19.638c0.365-0.641,1.178-0.863,1.818-0.5
			c0.639,0.364,0.861,1.178,0.498,1.817c-3.92,6.888-9.338,13.875-15.666,20.204C66.334,94.792,50.527,103.031,39.341,103.031z"/>
	</g>
	<g>
		<path fill="#FFFFFF" d="M45.404,93.786c-3.414,0-6.211-0.996-8.193-2.98c-0.957-0.953-1.693-2.116-2.193-3.454
			c-0.258-0.689,0.092-1.458,0.781-1.715c0.691-0.258,1.459,0.094,1.715,0.783c0.365,0.978,0.896,1.817,1.58,2.5
			c2.734,2.733,8.035,2.909,14.545,0.489c6.947-2.586,14.508-7.743,21.288-14.521c13.514-13.517,19.938-29.926,14.031-35.833
			c-5.912-5.907-22.318,0.521-35.833,14.036c-8.178,8.177-14.066,17.676-15.748,25.405c-0.158,0.718-0.863,1.177-1.586,1.019
			c-0.719-0.156-1.176-0.866-1.02-1.586c1.789-8.209,7.945-18.199,16.469-26.723C66.275,36.168,83.67,30.001,90.842,37.17
			c7.168,7.168,1.004,24.563-14.031,39.603c-7.045,7.043-14.944,12.418-22.243,15.134C51.193,93.162,48.105,93.786,45.404,93.786z"
			/>
	</g>
	<g>
		<path fill="#FFFFFF" d="M51.523,83.733c-2.182,0-4.012-0.619-5.316-1.923c-4.689-4.692-0.535-16.194,9.455-26.187
			c3.531-3.53,7.398-6.466,11.188-8.491c0.648-0.346,1.455-0.103,1.803,0.548c0.346,0.648,0.102,1.456-0.547,1.803
			c-3.561,1.902-7.211,4.678-10.559,8.025c-9.531,9.53-12.584,19.286-9.455,22.418c3.063,3.062,13.02-0.068,22.413-9.459
			c9.531-9.531,12.584-19.285,9.455-22.413c-1.244-1.247-3.275-1.28-4.762-1.087c-0.73,0.095-1.398-0.419-1.492-1.15
			c-0.096-0.73,0.42-1.397,1.15-1.492c2.979-0.387,5.398,0.252,6.988,1.846c4.689,4.689,0.535,16.19-9.455,26.182
			C65.176,79.563,57.177,83.733,51.523,83.733z"/>
	</g>
	<path fill="#603813" d="M67.352,60.665c1.707,1.707,1.602,4.58-0.234,6.416c-1.834,1.836-4.708,1.94-6.417,0.23
		c-1.709-1.705-1.605-4.58,0.23-6.416C62.767,59.061,65.641,58.956,67.352,60.665z"/>
	
		<ellipse transform="matrix(0.7072 -0.707 0.707 0.7072 -47.7042 49.3372)" fill="#13A54A" cx="35.715" cy="82.264" rx="3.653" ry="3.399"/>
	
		<ellipse transform="matrix(0.707 -0.7072 0.7072 0.707 -11.5977 85.1129)" fill="#1B75BB" cx="96.928" cy="56.554" rx="3.652" ry="3.398"/>
	<path fill="#C74B43" d="M73.637,44.341c0.254,0.251,0.455,0.535,0.605,0.842c0.643,1.303,0.369,2.986-0.785,4.142
		c-1.426,1.428-3.658,1.507-4.984,0.181c-0.398-0.399-0.672-0.881-0.816-1.396c-0.34-1.199-0.002-2.592,0.996-3.59
		C70.078,43.094,72.311,43.013,73.637,44.341z"/>
</g>
</svg>
