<?xml version="1.0" encoding="utf-8"?>
<!-- Generator: Adobe Illustrator 16.0.0, SVG Export Plug-In . SVG Version: 6.00 Build 0)  -->
<!DOCTYPE svg PUBLIC "-//W3C//DTD SVG 1.1//EN" "http://www.w3.org/Graphics/SVG/1.1/DTD/svg11.dtd">
<svg version="1.1" id="Layer_1" xmlns="http://www.w3.org/2000/svg" xmlns:xlink="http://www.w3.org/1999/xlink" x="0px" y="0px"
	 width="128px" height="128px" viewBox="0 0 128 128" enable-background="new 0 0 128 128" xml:space="preserve">
<g>
	<circle fill="#7790BE" cx="64" cy="64" r="64"/>
	<path fill="#6482AF" d="M75.688,23.717L59.822,56.553L45.98,68.529l-14.021,28.13l-1.008,0.736l30.768,30.547
		C62.478,127.969,63.234,128,64,128c31.683,0,57.973-23.028,63.085-53.257L75.688,23.717z"/>
	<g>
		<path fill="#91D7EE" d="M74.879,61.833l4.263,11.926L64,66.974l-15.144,6.785l4.263-11.926
			c-12.483,5.392-21.242,17.995-21.242,32.678c0,1.09,0.064,2.163,0.16,3.229H64h31.961c0.093-1.066,0.162-2.14,0.162-3.229
			C96.123,79.828,87.364,67.229,74.879,61.833z"/>
		<ellipse fill="#EDC55D" cx="63.463" cy="38.916" rx="17.482" ry="20.655"/>
		<path fill="#1E2D36" d="M84.502,37.287c-0.94-0.844-3.156-2.928-4.4-4.708c-2.264-8.308-8.854-14.319-16.639-14.319
			c-8.148,0-14.985,6.587-16.925,15.499c-1.223,1.441-2.747,2.867-3.483,3.528c-0.955,0.858-8.046,8.434-7.717,20.829
			c2.205,0.132,4.17-0.816,6.315-0.692c1.699,0.098,3.063,1.753,4.628,1.61c0.44-2.045-0.957-4.174-1.344-6.177
			c-0.277-1.434-0.493-2.854-0.72-4.247c-0.357-2.197-0.066-5.07,0.816-7.08c0.531-1.215,1.489-2.055,2.395-2.927h3.854
			c1.506-0.358,2.956-0.923,4.286-2.036c1.876-1.572,3.58-3.022,5.075-4.977c1.167-1.522,1.659-3.074,2.579-4.736
			c0.55,1.759,0.422,3.492,1.361,5.369c1.038,2.068,2.187,3.09,4.054,4.291c1.206,0.778,2.347,1.521,3.606,2.089
			c0,0,9.745,1.712,10.278,2.927c0.881,2.01,1.172,4.883,0.816,7.08c-0.227,1.394-0.444,2.813-0.72,4.247
			c-0.388,2.003-1.784,4.132-1.345,6.177c1.566,0.143,2.93-1.513,4.629-1.61c2.145-0.124,4.108,0.824,6.315,0.692
			C92.549,45.721,85.457,38.146,84.502,37.287z"/>
	</g>
</g>
</svg>
