<?xml version="1.0" encoding="utf-8"?>
<!-- Generator: Adobe Illustrator 16.0.0, SVG Export Plug-In . SVG Version: 6.00 Build 0)  -->
<!DOCTYPE svg PUBLIC "-//W3C//DTD SVG 1.1//EN" "http://www.w3.org/Graphics/SVG/1.1/DTD/svg11.dtd">
<svg version="1.1" id="Layer_1" xmlns="http://www.w3.org/2000/svg" xmlns:xlink="http://www.w3.org/1999/xlink" x="0px" y="0px"
	 width="128px" height="128px" viewBox="0 0 128 128" enable-background="new 0 0 128 128" xml:space="preserve">
<g>
	<circle fill="#F3806F" cx="64" cy="64" r="64"/>
	<path fill="#D95E4F" d="M96.818,35.181L76.797,33.81c0,0-5.672-7.88-12.922-5.043c-7.25,2.837-16.075,24.586-16.075,24.586
		l-0.63,38.77l-8.826,10.717l-1.948,1.407l23.551,23.612C61.288,127.942,62.637,128,64,128c34.547,0,62.684-27.376,63.94-61.616
		L96.818,35.181z"/>
	<path fill="#807F7F" d="M34.755,100.83l0.881-4.172l2.826-0.021c3.529-1.865,9.264-3.08,15.742-3.08
		c6.201,0,11.719,1.113,15.276,2.844l3.27-0.025l0.902,4.359l-0.041,0.033c0.008,0.072,0.016,0.146,0.016,0.219
		c0,4.104-8.696,7.43-19.422,7.43s-19.422-3.326-19.422-7.43c0-0.045,0.008-0.09,0.01-0.135L34.755,100.83z"/>
	<ellipse fill="#C3C3C3" cx="54.205" cy="96.658" rx="18.574" ry="7.43"/>
	<path fill="#3F4040" d="M45.142,54.922c0-13.596,16.516-27.404,17.221-27.986l2.917,3.529
		c-0.154,0.127-15.561,13.018-15.561,24.457v38.334c0,0.006,0.006,0.012,0.006,0.018c0,0.004-0.006,0.01-0.006,0.016v0.092h-0.02
		c-0.125,0.51-1.082,0.908-2.26,0.908c-1.18,0-2.139-0.398-2.262-0.908h-0.035V54.922z"/>
	<path fill="#C7C7C7" d="M63.742,32.055c1.815,2.313,5.188,2.721,7.499,0.906l0.707-0.553c2.309-1.813,2.717-5.188,0.904-7.5
		l-4.063-5.18c-1.813-2.311-5.186-2.719-7.497-0.906l-0.709,0.557c-2.309,1.813-2.717,5.188-0.902,7.5L63.742,32.055z"/>
	<path fill="#9B9B9B" d="M69.098,58.531c-0.023-0.029-0.045-0.057-0.068-0.084c-9.422-12.014-10.749-26.705-2.965-32.813
		c7.783-6.107,21.729-1.32,31.152,10.693c0.021,0.027,0.043,0.057,0.064,0.086L69.098,58.531z"/>
	
		<ellipse transform="matrix(-0.7867 0.6173 -0.6173 -0.7867 177.5962 33.2404)" fill="#D3D3D3" cx="83.056" cy="47.301" rx="18.132" ry="5.026"/>
</g>
</svg>
