<?xml version="1.0" encoding="utf-8"?>
<!-- Generator: Adobe Illustrator 16.0.0, SVG Export Plug-In . SVG Version: 6.00 Build 0)  -->
<!DOCTYPE svg PUBLIC "-//W3C//DTD SVG 1.1//EN" "http://www.w3.org/Graphics/SVG/1.1/DTD/svg11.dtd">
<svg version="1.1" id="Layer_1" xmlns="http://www.w3.org/2000/svg" xmlns:xlink="http://www.w3.org/1999/xlink" x="0px" y="0px"
	 width="128px" height="128px" viewBox="0 0 128 128" enable-background="new 0 0 128 128" xml:space="preserve">
<g>
	<circle fill="#EDC55D" cx="64" cy="64" r="64"/>
	<path fill="#D3A647" d="M95.676,35.578L46.917,83.334L32.451,95.249l32.639,32.724c33.549-0.563,60.809-26.926,62.783-60.112
		L95.676,35.578z"/>
	
		<rect x="71.704" y="32.811" transform="matrix(-0.7071 0.7071 -0.7071 -0.7071 174.9633 14.0337)" fill="#D1BA9A" width="25.743" height="20.885"/>
	<path fill="#BE3A2B" d="M31.661,71.093l31.276-31.273l25.415,25.416L57.076,96.51c-6.295,6.295-16.6,6.295-22.897,0l-2.518-2.519
		C25.364,87.695,25.364,77.392,31.661,71.093z"/>
	<path fill="#BE3A2B" d="M31.661,71.093l31.276-31.273l25.415,25.416L57.076,96.51c-6.295,6.295-16.6,6.295-22.897,0l-2.518-2.519
		C25.364,87.695,25.364,77.392,31.661,71.093z"/>
	
		<line fill="none" stroke="#000000" stroke-width="2" stroke-linecap="round" stroke-linejoin="round" stroke-miterlimit="10" x1="86.08" y1="35.776" x2="82.977" y2="38.882"/>
	
		<line fill="none" stroke="#000000" stroke-width="2" stroke-linecap="round" stroke-linejoin="round" stroke-miterlimit="10" x1="92.025" y1="41.72" x2="88.92" y2="44.826"/>
	<polygon fill="none" points="79.633,56.514 79.633,56.514 77.936,54.816 	"/>
	<polygon fill="#BE3A2B" points="68.088,44.971 68.09,44.971 77.936,54.816 	"/>
</g>
</svg>
