<?xml version="1.0" encoding="utf-8"?>
<!-- Generator: Adobe Illustrator 16.0.0, SVG Export Plug-In . SVG Version: 6.00 Build 0)  -->
<!DOCTYPE svg PUBLIC "-//W3C//DTD SVG 1.1//EN" "http://www.w3.org/Graphics/SVG/1.1/DTD/svg11.dtd">
<svg version="1.1" id="Layer_1" xmlns="http://www.w3.org/2000/svg" xmlns:xlink="http://www.w3.org/1999/xlink" x="0px" y="0px"
	 width="128px" height="128px" viewBox="0 0 128 128" enable-background="new 0 0 128 128" xml:space="preserve">
<g>
	<circle fill="#88CFC1" cx="64" cy="64" r="64"/>
	<path fill="#75BEA3" d="M88.799,27.52L78.45,28.561L38.919,94.325l-3.856,4.278l29.311,29.387
		c34.252-0.196,62.119-27.293,63.558-61.237L88.799,27.52z"/>
	<path fill="#8D3E2B" d="M33.381,90.643v3.033c0,0,0,3.135,2.1,5.226c2.048,2.039,6.048,2.123,6.048,2.123h49.64V40.848H39.519
		c-3.377,0-6.138-2.763-6.138-6.138V90.643z"/>
	<path fill="#EDC55D" d="M39.519,39.263c-2.512,0-4.555-2.042-4.555-4.553v-1.601c0-2.509,2.043-4.549,4.555-4.549h47.396
		c-1.288,1.856-1.599,3.751-1.323,5.659c0.296,2.05,1.65,3.745,2.971,5.043H39.519z"/>
	<path fill="#AB6337" d="M88.606,39.263H39.519c-2.512,0-4.555-2.042-4.555-4.553v-1.601c0-2.509,2.043-4.549,4.555-4.549h47.396
		c0.443-0.518,0.961-1.045,1.577-1.585H39.519c-3.377,0-6.138,2.76-6.138,6.134v1.601c0,3.375,2.761,6.138,6.138,6.138h51.649
		C91.168,40.848,89.962,40.286,88.606,39.263z"/>
	
		<rect x="79.981" y="76.619" transform="matrix(0.4556 -0.8902 0.8902 0.4556 -26.1925 116.7031)" fill="#BDB9BA" width="4.667" height="6.292"/>
	<circle fill="#C0C3D2" cx="63.521" cy="70.151" r="15.518"/>
	<path fill="#FFFFFF" d="M46.423,61.404c-4.831,9.443-1.091,21.014,8.352,25.844c9.441,4.83,21.013,1.092,25.844-8.352
		c4.83-9.441,1.091-21.012-8.352-25.843C62.823,48.224,51.253,51.963,46.423,61.404z M76.95,77.02
		c-3.795,7.418-12.884,10.355-20.3,6.562c-7.417-3.795-10.354-12.883-6.559-20.3c3.793-7.416,12.882-10.353,20.298-6.559
		S80.743,69.604,76.95,77.02z"/>
	<path fill="#27323B" d="M102.59,83.83c2.224,1.138,3.113,3.885,1.975,6.109l-0.98,1.916c-1.137,2.223-3.886,3.111-6.109,1.975
		l-11.655-5.962c-2.222-1.138-3.111-3.888-1.975-6.109l0.98-1.917c1.139-2.225,3.887-3.111,6.109-1.974L102.59,83.83z"/>
	<path fill="#878593" d="M60.938,80.006c-5.897-3.016-8.231-10.241-5.216-16.138c1.323-2.585,3.456-4.485,5.929-5.55
		c-3.654,0.581-6.991,2.826-8.806,6.371c-3.016,5.896-0.682,13.121,5.213,16.139c3.311,1.693,7.041,1.697,10.207,0.336
		C65.844,81.549,63.287,81.207,60.938,80.006z"/>
</g>
</svg>
