<?xml version="1.0" encoding="utf-8"?>
<!-- Generator: Adobe Illustrator 16.0.0, SVG Export Plug-In . SVG Version: 6.00 Build 0)  -->
<!DOCTYPE svg PUBLIC "-//W3C//DTD SVG 1.1//EN" "http://www.w3.org/Graphics/SVG/1.1/DTD/svg11.dtd">
<svg version="1.1" id="Layer_1" xmlns="http://www.w3.org/2000/svg" xmlns:xlink="http://www.w3.org/1999/xlink" x="0px" y="0px"
	 width="128px" height="128px" viewBox="0 0 128 128" enable-background="new 0 0 128 128" xml:space="preserve">
<g>
	<circle fill="#2DA8D2" cx="64" cy="64" r="64"/>
	<path fill="#1F8BA6" d="M79.311,27.185l-4.684,2.482L40.031,84.264l-14.415,16.793l25.596,25.663C55.345,127.558,59.62,128,64,128
		c31.583,0,57.803-22.882,63.033-52.969L79.311,27.185z"/>
	<g>
		<path fill="#334E5C" d="M68.709,99.099c0,1.111-0.91,2.021-2.021,2.021H26.807c-1.111,0-2.02-0.909-2.02-2.021V31.688
			c0-1.111,0.908-2.021,2.02-2.021h39.881c1.111,0,2.021,0.909,2.021,2.021V99.099z"/>
		<rect x="29.752" y="37.617" fill="#405F6D" width="33.99" height="53.089"/>
		<rect x="40.031" y="33.646" fill="#4E6B77" width="9.504" height="1.231"/>
		<circle fill="#4E6B77" cx="30.264" cy="34.109" r="1.496"/>
		<circle fill="#4E6B77" cx="47.424" cy="96.474" r="2.639"/>
	</g>
	<path fill="#FFFFFF" d="M71.055,94.261l1.381,2.016c0,0,1.424,2.082,3.771,2.516c2.289,0.423,4.984-1.342,4.984-1.342
		l32.975-22.593L86.783,34.879L52.471,58.386c-2.242,1.538-5.334,0.959-6.869-1.283L71.055,94.261z"/>
	<path fill="#E6E7E8" d="M51.75,57.333c-1.668,1.144-3.955,0.717-5.096-0.95l-0.73-1.063c-1.141-1.668-0.713-3.952,0.957-5.096
		l31.486-21.572c-0.012,1.819,0.645,3.219,1.695,4.362c1.129,1.227,2.801,1.736,4.268,1.997L51.75,57.333z"/>
	<path fill="#A6A8AB" d="M84.359,34.992L51.75,57.333c-1.668,1.144-3.955,0.717-5.096-0.95l-0.73-1.063
		c-1.141-1.668-0.713-3.952,0.957-5.096l31.486-21.572c0.059-0.546,0.162-1.132,0.326-1.771l-32.535,22.29
		c-2.242,1.536-2.82,4.627-1.285,6.868l0.729,1.063c1.535,2.242,4.627,2.821,6.869,1.283l34.313-23.507
		C86.783,34.879,85.727,35.055,84.359,34.992z"/>
</g>
</svg>
