<?xml version="1.0" encoding="utf-8"?>
<!-- Generator: Adobe Illustrator 16.0.0, SVG Export Plug-In . SVG Version: 6.00 Build 0)  -->
<!DOCTYPE svg PUBLIC "-//W3C//DTD SVG 1.1//EN" "http://www.w3.org/Graphics/SVG/1.1/DTD/svg11.dtd">
<svg version="1.1" id="Layer_1" xmlns="http://www.w3.org/2000/svg" xmlns:xlink="http://www.w3.org/1999/xlink" x="0px" y="0px"
	 width="128px" height="128px" viewBox="0 0 128 128" enable-background="new 0 0 128 128" xml:space="preserve">
<g>
	<circle fill="#EDC55D" cx="64" cy="64" r="64"/>
	<path fill="#EE9948" d="M99.332,23.532L97.249,38.65L25.602,88.928l-4.275,5.183l32.03,32.992c3.463,0.58,7.015,0.897,10.643,0.897
		C99.346,128,128,99.346,128,64c0-5.595-0.723-11.021-2.071-16.192l-18.248-18.047l-1.363,0.878L99.332,23.532z"/>
	<rect x="49.563" y="95.21" fill="#9EA3A8" width="17.028" height="3.863"/>
	<path fill="#B0B4C3" d="M95.834,91.632c0,1.968-1.611,3.578-3.577,3.578h-68.36c-1.966,0-3.577-1.61-3.577-3.578V38.607
		c0-1.969,1.611-3.579,3.577-3.579h68.36c1.966,0,3.577,1.61,3.577,3.579V91.632z"/>
	<rect x="23.758" y="38.65" fill="#526988" width="68.636" height="41.71"/>
	<rect x="35.306" y="98.172" fill="#626C83" width="45.543" height="1.804"/>
	<rect x="25.602" y="86.898" fill="#626C83" width="6.538" height="2.029"/>
	<rect x="34.281" y="86.898" fill="#E14348" width="6.538" height="2.029"/>
	<rect x="42.961" y="86.898" fill="#C12126" width="6.538" height="2.029"/>
	<rect x="51.642" y="86.898" fill="#626C83" width="6.537" height="2.029"/>
	<polygon fill="#312D3E" points="80.107,34.688 52.401,29.761 52.401,67.306 80.107,72.233 	"/>
	<polygon fill="#312D3E" points="79.972,34.688 107.681,29.761 107.681,67.306 79.972,72.233 	"/>
	<polygon fill="#FFFFFF" points="80.107,71.267 53.4,66.518 53.4,30.905 80.107,35.654 	"/>
	<path fill="#E7E8D5" d="M80.107,71.267c-7.456-5.015-15.375-7.865-22.831-8.548c0-11.871,0-23.742,0-35.613
		c7.456,0.684,15.375,3.533,22.831,8.549C80.107,47.525,80.107,59.396,80.107,71.267z"/>
	<path fill="#C0C3D2" d="M80.113,71.267c-5.658-8.313-13.706-12.409-19.363-12.29c0-11.814,0-23.629,0-35.444
		c5.657-0.119,13.705,3.978,19.363,12.29C80.113,47.638,80.113,59.452,80.113,71.267z"/>
	<path fill="#B0B4C3" d="M77.533,32.506c-1.053,2.695-1.359,5.756-2.282,8.491c-0.996,2.963-2.078,5.945-3.457,8.758
		c-1.739,3.55-3.813,6.938-6.335,9.954c4.894,1.512,10.438,5.361,14.654,11.558V35.822C79.299,34.626,78.431,33.527,77.533,32.506z"
		/>
	<polygon fill="#C0C3D2" points="79.972,71.267 106.682,66.518 106.682,30.905 79.972,35.654 	"/>
	<path fill="#DADCC6" d="M79.972,71.267c7.458-5.015,15.377-7.865,22.833-8.548c0-11.871,0-23.742,0-35.613
		c-7.456,0.684-15.375,3.533-22.833,8.549C79.972,47.525,79.972,59.396,79.972,71.267z"/>
	<path fill="#FFFFFF" d="M79.967,71.267c5.661-8.313,13.707-12.409,19.365-12.29c0-11.814,0-23.629,0-35.444
		c-5.658-0.119-13.704,3.978-19.365,12.29C79.967,47.638,79.967,59.452,79.967,71.267z"/>
	<path fill="#EDEFE7" d="M93.376,24.696c0.019,0.735-0.117,1.509-0.459,2.297c-1.574,3.625-1.83,7.841-2.738,11.664
		c-0.772,3.256-1.475,6.528-2.1,9.816c-1.044,5.495-1.723,11.05-2.622,16.566c4.695-4.12,9.88-6.147,13.875-6.063V23.532
		C97.535,23.494,95.499,23.885,93.376,24.696z"/>
</g>
</svg>
