<?xml version="1.0" encoding="utf-8"?>
<!-- Generator: Adobe Illustrator 16.0.0, SVG Export Plug-In . SVG Version: 6.00 Build 0)  -->
<!DOCTYPE svg PUBLIC "-//W3C//DTD SVG 1.1//EN" "http://www.w3.org/Graphics/SVG/1.1/DTD/svg11.dtd">
<svg version="1.1" id="Layer_1" xmlns="http://www.w3.org/2000/svg" xmlns:xlink="http://www.w3.org/1999/xlink" x="0px" y="0px"
	 width="128px" height="128px" viewBox="0 0 128 128" enable-background="new 0 0 128 128" xml:space="preserve">
<g>
	<circle fill="#EDC55D" cx="64" cy="64" r="64"/>
	<path fill="#CD8F36" d="M93.346,21.112l-3.223,11.583l-6.496-8.857H46.022l9.483,12.348h-6.229L34.155,22.717
		C34.789,42.498,52.11,60.46,52.11,60.46s13.654,4.03,7.792,3.54S38.285,86.84,38.285,86.84l-4.13,18.171l-0.171,0.475
		l21.931,21.988C58.565,127.809,61.26,128,64,128c35.347,0,64-28.653,64-64c0-2.973-0.22-5.892-0.611-8.756L93.346,21.112z"/>
	<g>
		<path fill="#FFFFFF" d="M93.814,96.198c-0.108-1.428-0.311-2.969-0.569-4.6c-0.147-0.813-0.287-1.65-0.482-2.5
			c-0.093-0.426-0.187-0.856-0.281-1.291c-0.113-0.432-0.228-0.867-0.342-1.307c-0.216-0.885-0.52-1.764-0.785-2.669
			c-0.314-0.89-0.621-1.796-0.989-2.693c-0.373-0.896-0.731-1.811-1.187-2.692c-0.224-0.442-0.422-0.897-0.668-1.333L87.778,75.8
			c-0.479-0.882-1.068-1.711-1.616-2.557c-0.305-0.407-0.608-0.813-0.912-1.217c-0.302-0.406-0.606-0.81-0.948-1.186
			c-0.334-0.381-0.667-0.762-0.998-1.14c-0.326-0.382-0.713-0.712-1.065-1.066c-0.364-0.345-0.711-0.702-1.085-1.028
			c-0.385-0.316-0.768-0.63-1.146-0.94c-1.36-1.118-2.826-2.02-4.27-2.802c1.443-0.783,2.909-1.685,4.27-2.803
			c0.379-0.311,0.762-0.624,1.146-0.94c0.374-0.325,0.721-0.683,1.085-1.028c0.353-0.354,0.739-0.684,1.065-1.066
			c0.331-0.378,0.664-0.758,0.998-1.14c0.342-0.376,0.646-0.778,0.948-1.185c0.304-0.405,0.607-0.811,0.912-1.217
			c0.548-0.847,1.137-1.676,1.616-2.558l0.732-1.313c0.246-0.436,0.444-0.891,0.668-1.333c0.455-0.882,0.813-1.796,1.187-2.692
			c0.368-0.896,0.675-1.804,0.989-2.693c0.266-0.904,0.569-1.784,0.785-2.668c0.114-0.439,0.229-0.875,0.342-1.307
			c0.095-0.436,0.188-0.865,0.281-1.292c0.195-0.849,0.335-1.688,0.482-2.499c0.259-1.632,0.461-3.173,0.569-4.601
			c0.131-1.425,0.173-2.734,0.2-3.892c0.014-1.158,0-2.166-0.045-2.996c-0.041-0.83-0.08-1.479-0.125-1.925
			c-0.049-0.446-0.074-0.684-0.074-0.684c-0.023-0.211-0.184-0.392-0.404-0.431c-0.268-0.049-0.523,0.129-0.571,0.397l-0.002,0.012
			c0,0-0.162,0.904-0.504,2.488c-0.18,0.789-0.392,1.745-0.668,2.831c-0.267,1.088-0.591,2.306-0.972,3.619
			c-0.383,1.314-0.818,2.725-1.332,4.189c-0.509,1.466-1.085,2.99-1.744,4.525c-0.65,1.539-1.396,3.084-2.21,4.601
			c-0.418,0.753-0.838,1.509-1.3,2.235c-0.23,0.363-0.438,0.743-0.686,1.093l-0.732,1.057c-0.233,0.359-0.503,0.688-0.764,1.021
			l-0.771,1.003c-0.275,0.314-0.552,0.627-0.826,0.939c-0.27,0.314-0.541,0.625-0.842,0.902c-0.289,0.287-0.576,0.573-0.863,0.857
			c-0.275,0.296-0.599,0.53-0.892,0.797c-0.302,0.254-0.587,0.524-0.894,0.762c-0.313,0.229-0.623,0.455-0.931,0.679
			c-1.233,0.889-2.496,1.619-3.741,2.214c-1.257,0.566-2.475,1.037-3.645,1.359c-0.29,0.085-0.569,0.182-0.851,0.254
			c-0.287,0.058-0.566,0.113-0.839,0.168c-0.548,0.103-1.056,0.238-1.551,0.302C64.793,59.947,64.38,60.009,64,60.14
			c-0.381-0.131-0.793-0.192-1.237-0.231c-0.496-0.063-1.004-0.199-1.552-0.302c-0.272-0.055-0.552-0.11-0.839-0.168
			c-0.28-0.072-0.561-0.169-0.851-0.254c-1.169-0.322-2.388-0.793-3.645-1.359c-1.245-0.595-2.508-1.325-3.741-2.214
			c-0.308-0.224-0.617-0.45-0.93-0.679c-0.307-0.237-0.593-0.508-0.895-0.762c-0.293-0.267-0.615-0.501-0.892-0.797
			c-0.286-0.284-0.574-0.57-0.863-0.857c-0.3-0.277-0.571-0.588-0.842-0.902c-0.274-0.313-0.55-0.625-0.825-0.939l-0.771-1.003
			c-0.262-0.334-0.53-0.662-0.764-1.021l-0.732-1.057c-0.248-0.35-0.455-0.729-0.686-1.093c-0.462-0.727-0.882-1.482-1.301-2.235
			c-0.813-1.517-1.56-3.062-2.209-4.601c-0.659-1.535-1.236-3.06-1.744-4.525c-0.515-1.465-0.949-2.875-1.333-4.189
			c-0.38-1.313-0.704-2.531-0.972-3.619c-0.275-1.086-0.488-2.042-0.668-2.831c-0.341-1.584-0.504-2.488-0.504-2.488L35.204,22
			c-0.048-0.269-0.304-0.446-0.571-0.397c-0.221,0.039-0.38,0.22-0.403,0.431c0,0-0.025,0.237-0.074,0.684
			c-0.046,0.445-0.084,1.095-0.126,1.925c-0.044,0.83-0.059,1.838-0.044,2.996c0.027,1.157,0.068,2.467,0.199,3.892
			c0.109,1.428,0.312,2.969,0.57,4.601c0.146,0.812,0.287,1.65,0.481,2.499c0.093,0.427,0.187,0.856,0.282,1.292
			c0.112,0.432,0.227,0.867,0.342,1.307c0.216,0.884,0.519,1.764,0.784,2.668c0.315,0.89,0.622,1.797,0.99,2.693
			c0.372,0.896,0.73,1.811,1.187,2.692c0.223,0.442,0.422,0.897,0.668,1.333l0.731,1.313c0.479,0.882,1.069,1.711,1.616,2.558
			c0.306,0.406,0.609,0.812,0.912,1.217c0.302,0.406,0.606,0.809,0.948,1.185c0.334,0.382,0.667,0.762,0.998,1.14
			c0.327,0.383,0.713,0.713,1.065,1.066c0.364,0.346,0.711,0.703,1.086,1.028c0.385,0.316,0.767,0.63,1.146,0.94
			c1.361,1.118,2.826,2.02,4.271,2.803c-1.444,0.782-2.909,1.684-4.271,2.802c-0.379,0.311-0.761,0.624-1.146,0.94
			c-0.375,0.326-0.722,0.684-1.086,1.028c-0.353,0.354-0.738,0.685-1.065,1.066c-0.331,0.378-0.664,0.759-0.998,1.14
			c-0.342,0.376-0.646,0.779-0.948,1.186c-0.303,0.404-0.606,0.81-0.912,1.217c-0.547,0.846-1.137,1.675-1.616,2.557l-0.731,1.313
			c-0.246,0.436-0.445,0.891-0.668,1.333c-0.456,0.882-0.814,1.796-1.187,2.692c-0.368,0.897-0.675,1.804-0.99,2.693
			c-0.266,0.905-0.568,1.784-0.784,2.669c-0.115,0.439-0.229,0.875-0.342,1.307c-0.096,0.435-0.189,0.865-0.282,1.291
			c-0.194,0.85-0.335,1.688-0.481,2.5c-0.259,1.631-0.461,3.172-0.57,4.6c-0.131,1.425-0.172,2.734-0.199,3.892
			c-0.015,1.158,0,2.166,0.044,2.996c0.042,0.831,0.08,1.479,0.126,1.925c0.049,0.446,0.074,0.684,0.074,0.684
			c0.023,0.211,0.183,0.393,0.403,0.432c0.268,0.048,0.523-0.13,0.571-0.398l0.002-0.012c0,0,0.163-0.904,0.504-2.488
			c0.18-0.789,0.393-1.744,0.668-2.831c0.268-1.087,0.592-2.306,0.972-3.619c0.384-1.313,0.818-2.725,1.333-4.189
			c0.508-1.466,1.085-2.99,1.744-4.525c0.649-1.538,1.396-3.083,2.209-4.601c0.419-0.752,0.839-1.509,1.301-2.234
			c0.23-0.363,0.438-0.744,0.686-1.094l0.732-1.057c0.233-0.359,0.502-0.688,0.764-1.021l0.771-1.004
			c0.275-0.313,0.551-0.626,0.825-0.938c0.271-0.314,0.542-0.626,0.842-0.903c0.289-0.286,0.577-0.573,0.863-0.857
			c0.276-0.296,0.599-0.53,0.892-0.796c0.302-0.254,0.588-0.525,0.895-0.763c0.313-0.229,0.622-0.454,0.93-0.679
			c1.233-0.889,2.496-1.619,3.741-2.213c1.257-0.566,2.476-1.038,3.645-1.359c0.29-0.086,0.57-0.182,0.851-0.255
			c0.287-0.058,0.566-0.113,0.839-0.168c0.548-0.102,1.056-0.237,1.552-0.302c0.444-0.039,0.856-0.101,1.237-0.231
			c0.38,0.131,0.793,0.192,1.237,0.231c0.495,0.064,1.003,0.2,1.551,0.302c0.272,0.055,0.552,0.11,0.839,0.168
			c0.281,0.073,0.561,0.169,0.851,0.255c1.17,0.321,2.388,0.793,3.645,1.359c1.245,0.594,2.508,1.324,3.741,2.213
			c0.308,0.225,0.618,0.45,0.931,0.679c0.307,0.237,0.592,0.509,0.894,0.763c0.293,0.266,0.616,0.5,0.892,0.796
			c0.287,0.284,0.574,0.571,0.863,0.857c0.301,0.277,0.572,0.589,0.842,0.903c0.274,0.313,0.551,0.625,0.826,0.938l0.771,1.004
			c0.261,0.333,0.53,0.661,0.764,1.021l0.732,1.057c0.247,0.35,0.455,0.73,0.686,1.094c0.462,0.726,0.882,1.482,1.3,2.234
			c0.813,1.518,1.56,3.063,2.21,4.601c0.659,1.535,1.235,3.06,1.744,4.525c0.514,1.465,0.949,2.876,1.332,4.189
			c0.381,1.313,0.705,2.532,0.972,3.619c0.276,1.087,0.488,2.042,0.668,2.831c0.342,1.584,0.504,2.488,0.504,2.488l0.002,0.012
			c0.048,0.269,0.304,0.446,0.571,0.398c0.221-0.039,0.381-0.221,0.404-0.432c0,0,0.025-0.237,0.074-0.684
			c0.045-0.445,0.084-1.094,0.125-1.925c0.045-0.83,0.059-1.838,0.045-2.996C93.987,98.933,93.945,97.623,93.814,96.198z"/>
		<g>
			<path fill="#FFFFFF" d="M81.673,25.792H47.977c-1.079,0-1.954-0.875-1.954-1.954s0.875-1.954,1.954-1.954h33.696
				c1.079,0,1.954,0.875,1.954,1.954S82.752,25.792,81.673,25.792z"/>
		</g>
		<g>
			<path fill="#FFFFFF" d="M81.673,38.14H47.977c-1.079,0-1.954-0.875-1.954-1.954s0.875-1.954,1.954-1.954h33.696
				c1.079,0,1.954,0.875,1.954,1.954S82.752,38.14,81.673,38.14z"/>
		</g>
		<g>
			<path fill="#FFFFFF" d="M75.585,50.489H54.064c-1.079,0-1.954-0.875-1.954-1.953c0-1.08,0.875-1.955,1.954-1.955h21.521
				c1.08,0,1.955,0.875,1.955,1.955C77.54,49.614,76.665,50.489,75.585,50.489z"/>
		</g>
		<g>
			<path fill="#FFFFFF" d="M81.673,106.405H47.977c-1.079,0-1.954-0.875-1.954-1.954s0.875-1.954,1.954-1.954h33.696
				c1.079,0,1.954,0.875,1.954,1.954S82.752,106.405,81.673,106.405z"/>
		</g>
		<g>
			<path fill="#FFFFFF" d="M81.673,94.057H47.977c-1.079,0-1.954-0.875-1.954-1.954s0.875-1.954,1.954-1.954h33.696
				c1.079,0,1.954,0.875,1.954,1.954S82.752,94.057,81.673,94.057z"/>
		</g>
		<g>
			<path fill="#FFFFFF" d="M75.585,81.707H54.064c-1.079,0-1.954-0.875-1.954-1.954s0.875-1.954,1.954-1.954h21.521
				c1.08,0,1.955,0.875,1.955,1.954S76.665,81.707,75.585,81.707z"/>
		</g>
	</g>
</g>
</svg>
