<?xml version="1.0" encoding="utf-8"?>
<!-- Generator: Adobe Illustrator 16.0.0, SVG Export Plug-In . SVG Version: 6.00 Build 0)  -->
<!DOCTYPE svg PUBLIC "-//W3C//DTD SVG 1.1//EN" "http://www.w3.org/Graphics/SVG/1.1/DTD/svg11.dtd">
<svg version="1.1" id="Layer_1" xmlns="http://www.w3.org/2000/svg" xmlns:xlink="http://www.w3.org/1999/xlink" x="0px" y="0px"
	 width="128px" height="128px" viewBox="0 0 128 128" enable-background="new 0 0 128 128" xml:space="preserve">
<g>
	<circle fill="#455D6A" cx="64" cy="64" r="64"/>
	<path fill="#334E5C" d="M86.992,24.109l-7.729,8.478L65.376,18.184l-2.945,13.498l6.959,8.746l-8.712,0.29L43.683,23.472
		l4.97,12.893l5.347,6.677l-3.194,3.484l-9.344-3.621l-12.649-5.559l7.653,18.335l-13.573,2.103l30.526,30.268l3.485,15.971
		l-2.089,3.018l19.983,20.035c29.819-5.068,52.6-30.753,53.172-61.88L86.992,24.109z"/>
	<g>
		<path fill="#FFFDFD" d="M52.794,91.823v10.63c0,4.05,3.67,7.363,8.156,7.363h6.291c4.487,0,8.157-3.313,8.157-7.363v-10.63H52.794
			z"/>
		<g>
			<rect x="62.431" y="18.184" fill="#FFFDFD" width="2.945" height="13.498"/>
		</g>
		<g>
			<g>
				
					<rect x="39.418" y="28.445" transform="matrix(0.5503 0.835 -0.835 0.5503 45.7419 -25.0942)" fill="#FFFDFD" width="13.499" height="2.945"/>
			</g>
			<g>
				
					<rect x="28.386" y="38.653" transform="matrix(0.8087 0.5882 -0.5882 0.8087 30.321 -12.9917)" fill="#FFFDFD" width="13.5" height="2.945"/>
			</g>
			<g>
				
					<rect x="22.971" y="55.259" transform="matrix(0.9981 0.0624 -0.0624 0.9981 3.5972 -1.741)" fill="#FFFDFD" width="13.415" height="2.945"/>
			</g>
			<g>
				
					<rect x="80.36" y="23.167" transform="matrix(0.8353 0.5498 -0.5498 0.8353 29.9264 -40.0635)" fill="#FFFDFD" width="2.945" height="13.502"/>
			</g>
			<g>
				
					<rect x="91.391" y="33.375" transform="matrix(0.588 0.8089 -0.8089 0.588 70.7161 -58.5825)" fill="#FFFDFD" width="2.945" height="13.5"/>
			</g>
			<g>
				
					<rect x="96.849" y="50.025" transform="matrix(0.0627 0.998 -0.998 0.0627 148.7806 -44.9518)" fill="#FFFDFD" width="2.945" height="13.415"/>
			</g>
		</g>
		<path fill="#FDDD1E" d="M86.7,58.361C86.7,47.044,76.536,37.87,64,37.87s-22.7,9.174-22.7,20.491
			c0,7.634,4.263,11.646,8.23,17.807c2.179,3.383,3.263,15.655,3.263,15.655h22.414c0,0,1.085-12.272,3.263-15.655
			C82.438,70.007,86.7,65.995,86.7,58.361z"/>
		<g>
			<g>
				<polygon fill="#DA8927" points="61.639,92.168 60.008,92.168 60.008,80.065 52.579,60.229 54.124,59.756 61.639,79.944 				"/>
			</g>
			<g>
				<polygon fill="#DA8927" points="67.992,92.168 66.361,92.168 66.403,79.709 73.876,59.756 75.421,60.229 67.992,80.065 				"/>
			</g>
		</g>
		<g>
			<path fill="#DA8927" d="M64.097,66.619c-0.024,0-0.051,0-0.076-0.003c-0.392-0.033-0.702-0.313-0.735-0.669l-0.661-6.864
				l-0.186,0.82c-0.063,0.283-0.307,0.506-0.617,0.57l-4.528,0.939l-0.367-1.436l4.019-0.832l1.202-5.34
				c0.082-0.359,0.394-0.616,0.847-0.59c0.404,0.021,0.73,0.308,0.767,0.672l0.763,7.913l1.053-3.379
				c0.117-0.377,0.54-0.608,0.965-0.52l5.59,1.135l-0.357,1.438l-4.838-0.983l-2.052,6.59C64.782,66.403,64.46,66.619,64.097,66.619
				z"/>
		</g>
		<rect x="53.751" y="95.281" fill="#9B756A" width="20.306" height="1.384"/>
		<rect x="53.751" y="100.819" fill="#9B756A" width="20.306" height="1.384"/>
	</g>
</g>
</svg>
