<?xml version="1.0" encoding="utf-8"?>
<!-- Generator: Adobe Illustrator 16.0.0, SVG Export Plug-In . SVG Version: 6.00 Build 0)  -->
<!DOCTYPE svg PUBLIC "-//W3C//DTD SVG 1.1//EN" "http://www.w3.org/Graphics/SVG/1.1/DTD/svg11.dtd">
<svg version="1.1" id="Layer_1" xmlns="http://www.w3.org/2000/svg" xmlns:xlink="http://www.w3.org/1999/xlink" x="0px" y="0px"
	 width="128px" height="128px" viewBox="0 0 128 128" enable-background="new 0 0 128 128" xml:space="preserve">
<g>
	<circle fill="#91D7EE" cx="64" cy="64" r="64"/>
	<path fill="#4ABDE5" d="M95.469,27.463L54.471,68.781L28.837,95.186l-1.433,0.985l31.528,31.61C60.606,127.913,62.293,128,64,128
		c35.346,0,64-28.653,64-64c0-1.366-0.058-2.718-0.142-4.063L95.469,27.463z"/>
	<g>
		<path fill="#D1D7D3" d="M62.156,51.896c4.688,4.684,6.188,10.781,3.356,13.613c-2.834,2.836-8.931,1.334-13.617-3.354
			c-4.688-4.684-6.188-10.781-3.354-13.617C51.373,45.707,57.47,47.209,62.156,51.896z"/>
		<path fill="#FFFFFF" d="M85.248,71.825L71.825,85.246c0,0-19.933-12.885-19.933-19.933c0-4.745,8.704-13.922,13.423-13.421
			C72.323,52.637,85.248,71.825,85.248,71.825z"/>
		<path fill="#FFFFFF" d="M36.417,36.418c0,0,3.512,19.678,9.055,21.462c4.176,1.344,13.25-8.101,12.408-12.406
			C56.763,39.759,36.417,36.418,36.417,36.418z"/>
		
			<rect x="31.198" y="89.276" transform="matrix(0.7071 -0.7071 0.7071 0.7071 -57.5711 54.566)" fill="#1A71B0" width="11.778" height="15.014"/>
		
			<rect x="40.462" y="80.011" transform="matrix(0.7071 -0.7071 0.7071 0.7071 -48.3103 58.4145)" fill="#1A71B0" width="11.78" height="15.014"/>
		
			<rect x="49.726" y="70.747" transform="matrix(0.7071 -0.7071 0.7071 0.7071 -39.0445 62.2459)" fill="#1A71B0" width="11.778" height="15.014"/>
		
			<rect x="72.366" y="48.109" transform="matrix(0.7071 -0.7071 0.7071 0.7071 -16.4076 71.6176)" fill="#1A71B0" width="11.776" height="15.014"/>
		
			<rect x="81.63" y="38.846" transform="matrix(0.7071 -0.7071 0.7071 0.7071 -7.1425 75.4605)" fill="#1A71B0" width="11.775" height="15.013"/>
		
			<rect x="90.894" y="29.581" transform="matrix(0.7071 -0.7071 0.7071 0.7071 2.1196 79.2925)" fill="#1A71B0" width="11.776" height="15.014"/>
		
			<rect x="54.203" y="63.055" transform="matrix(0.707 -0.7072 0.7072 0.707 -26.3827 63.7073)" fill="#B7A6A2" width="18.983" height="1.278"/>
		
			<rect x="57.444" y="66.296" transform="matrix(0.7072 -0.7071 0.7071 0.7072 -27.726 66.9276)" fill="#B7A6A2" width="18.98" height="1.278"/>
		
			<rect x="60.684" y="69.537" transform="matrix(0.7071 -0.7071 0.7071 0.7071 -29.0677 70.1713)" fill="#B7A6A2" width="18.981" height="1.277"/>
		
			<rect x="63.925" y="72.775" transform="matrix(0.7071 -0.7071 0.7071 0.7071 -30.4092 73.4187)" fill="#B7A6A2" width="18.981" height="1.279"/>
		<polygon fill="#47423C" points="94.107,70.07 70.069,94.108 68.767,85.938 85.938,68.766 		"/>
	</g>
</g>
</svg>
