<?xml version="1.0" encoding="utf-8"?>
<!-- Generator: Adobe Illustrator 16.0.0, SVG Export Plug-In . SVG Version: 6.00 Build 0)  -->
<!DOCTYPE svg PUBLIC "-//W3C//DTD SVG 1.1//EN" "http://www.w3.org/Graphics/SVG/1.1/DTD/svg11.dtd">
<svg version="1.1" id="Layer_1" xmlns="http://www.w3.org/2000/svg" xmlns:xlink="http://www.w3.org/1999/xlink" x="0px" y="0px"
	 width="128px" height="128px" viewBox="0 0 128 128" enable-background="new 0 0 128 128" xml:space="preserve">
<g>
	<circle fill="#91D7EE" cx="64" cy="64" r="64"/>
	<path fill="#5CAEC5" d="M98.896,28.603l-0.874,1.224L31.3,76.702l-0.567,20.603l-3.164,2.291l28.121,27.85
		C58.412,127.798,61.182,128,64,128c35.347,0,64-28.653,64-64c0-2.351-0.136-4.669-0.383-6.954L98.896,28.603z"/>
	<rect x="29.11" y="67.267" fill="#E2992E" width="2.861" height="31.463"/>
	<rect x="96.028" y="67.267" fill="#E2992E" width="2.861" height="31.463"/>
	<rect x="29.11" y="28.431" fill="#E2992E" width="69.779" height="50.23"/>
	<rect x="31.945" y="31.263" fill="#104E29" width="64.111" height="44.566"/>
	<rect x="27.093" y="97.384" fill="#E2992E" width="6.897" height="2.186"/>
	<rect x="94.01" y="97.384" fill="#E2992E" width="6.897" height="2.186"/>
	<rect x="39.326" y="71.869" fill="#C3C7D2" width="12.74" height="3.999"/>
</g>
</svg>
