<?xml version="1.0" encoding="utf-8"?>
<!-- Generator: Adobe Illustrator 16.0.0, SVG Export Plug-In . SVG Version: 6.00 Build 0)  -->
<!DOCTYPE svg PUBLIC "-//W3C//DTD SVG 1.1//EN" "http://www.w3.org/Graphics/SVG/1.1/DTD/svg11.dtd">
<svg version="1.1" id="Layer_1" xmlns="http://www.w3.org/2000/svg" xmlns:xlink="http://www.w3.org/1999/xlink" x="0px" y="0px"
	 width="128px" height="128px" viewBox="0 0 128 128" enable-background="new 0 0 128 128" xml:space="preserve">
<g>
	<circle fill="#455D6A" cx="64" cy="64" r="64"/>
	<path fill="#334E5C" d="M103.821,25.028l-3.822,3.597L39.123,65.003l-12.827,7.593v30.245l-2.675,2.617l19.083,18.898
		C49.367,126.708,56.531,128,64,128c35.346,0,64-28.653,64-64c0-6.043-0.855-11.882-2.421-17.425L103.821,25.028z"/>
	<g>
		<path fill="#D0D8DA" d="M100.952,94.726c0.2,1.324-0.72,2.57-2.043,2.77l-57.015,8.588c-1.324,0.199-2.57-0.72-2.77-2.045
			L28.36,32.583c-0.198-1.324,0.721-2.57,2.045-2.77l57.015-8.59c1.324-0.198,2.569,0.723,2.77,2.047L100.952,94.726z"/>
		<path fill="#FFFFFF" d="M98.666,99.163c-0.108,1.334-1.289,2.336-2.623,2.228l-57.468-4.68c-1.334-0.108-2.337-1.288-2.228-2.624
			l5.863-72.025c0.108-1.334,1.289-2.337,2.624-2.229l57.468,4.681c1.333,0.107,2.336,1.29,2.228,2.623L98.666,99.163z"/>
		<g>
			
				<rect x="51.507" y="33.543" transform="matrix(0.9964 0.0853 -0.0853 0.9964 3.1898 -6.1218)" fill="#9C9F9D" width="43.397" height="1.417"/>
			
				<rect x="50.611" y="43.992" transform="matrix(0.9964 0.0853 -0.0853 0.9964 4.0759 -6.0042)" fill="#9C9F9D" width="43.396" height="1.418"/>
			
				<rect x="49.717" y="54.442" transform="matrix(0.9964 0.0853 -0.0853 0.9964 4.9638 -5.8899)" fill="#9C9F9D" width="43.396" height="1.416"/>
			
				<rect x="48.823" y="64.889" transform="matrix(0.9964 0.0853 -0.0853 0.9964 5.8517 -5.7756)" fill="#9C9F9D" width="43.396" height="1.418"/>
			
				<rect x="47.929" y="75.339" transform="matrix(0.9964 0.0853 -0.0853 0.9964 6.7396 -5.6612)" fill="#9C9F9D" width="43.396" height="1.417"/>
			
				<rect x="47.033" y="85.789" transform="matrix(0.9964 0.0853 -0.0853 0.9964 7.6296 -5.5481)" fill="#9C9F9D" width="43.396" height="1.416"/>
		</g>
		<g>
			<path fill="#EBC21E" d="M23.462,56.307v49.055h65.69L23.462,56.307z M32.664,74.662L61.45,96.159H32.664V74.662z"/>
			<rect x="24.273" y="63.856" fill="#C86628" width="4.045" height="0.195"/>
			<rect x="24.273" y="65.972" fill="#C86628" width="2.3" height="0.193"/>
			<rect x="24.273" y="68.177" fill="#C86628" width="4.045" height="0.195"/>
			<rect x="24.273" y="70.292" fill="#C86628" width="2.3" height="0.195"/>
			<rect x="24.273" y="72.498" fill="#C86628" width="4.045" height="0.195"/>
			<rect x="24.273" y="74.612" fill="#C86628" width="2.3" height="0.195"/>
			<rect x="24.273" y="76.818" fill="#C86628" width="4.045" height="0.196"/>
			<rect x="24.273" y="78.934" fill="#C86628" width="2.3" height="0.195"/>
			<rect x="24.273" y="81.14" fill="#C86628" width="4.045" height="0.195"/>
			<rect x="24.273" y="83.254" fill="#C86628" width="2.3" height="0.194"/>
			<rect x="24.273" y="85.46" fill="#C86628" width="4.045" height="0.195"/>
			<rect x="24.273" y="87.575" fill="#C86628" width="2.3" height="0.194"/>
			<rect x="24.273" y="89.78" fill="#C86628" width="4.045" height="0.196"/>
			<rect x="24.273" y="91.895" fill="#C86628" width="2.3" height="0.196"/>
			<rect x="24.273" y="94.102" fill="#C86628" width="4.045" height="0.194"/>
			<rect x="24.273" y="96.216" fill="#C86628" width="2.3" height="0.195"/>
			<rect x="24.273" y="98.423" fill="#C86628" width="4.045" height="0.195"/>
			<rect x="24.273" y="100.536" fill="#C86628" width="2.3" height="0.195"/>
			<rect x="24.273" y="102.743" fill="#C86628" width="4.045" height="0.194"/>
		</g>
		<g>
			<polygon fill="#CB4428" points="81.01,83.313 80.582,83.142 82.108,79.297 80.828,78.79 79.301,82.634 78.875,82.464 
				77.885,84.956 78.313,85.125 76.785,88.968 78.065,89.477 79.592,85.633 80.02,85.802 			"/>
			
				<rect x="65.353" y="83.826" transform="matrix(0.9294 0.3691 -0.3691 0.9294 36.6668 -23.3844)" fill="#CB4428" width="28.186" height="0.614"/>
			<path fill="#8DD7F7" d="M94.096,47.247c-3.434-1.363-7.328,0.314-8.693,3.752s0.316,7.329,3.751,8.693
				c3.438,1.365,7.33-0.314,8.695-3.75C99.213,52.506,97.534,48.613,94.096,47.247z M90.26,56.907
				c-1.896-0.754-2.823-2.903-2.07-4.801c0.754-1.898,2.904-2.827,4.8-2.074c1.898,0.756,2.828,2.906,2.073,4.805
				C94.309,56.733,92.158,57.66,90.26,56.907z"/>
			<polygon fill="#DD775B" points="91.64,97.315 93.066,108.175 95.246,97.256 94.603,57.841 90.997,57.901 			"/>
			<polygon fill="#CB4428" points="92.978,96.854 93.066,108.175 95.246,97.256 94.603,57.841 92.643,58.214 			"/>
			<polygon fill="#DD775B" points="61.531,85.356 53.043,92.276 58.949,82.838 86.462,54.607 89.044,57.124 			"/>
			<polygon fill="#CB4428" points="61.531,85.356 53.043,92.276 60.172,84.527 87.675,56.038 89.044,57.124 			"/>
			<path fill="#CB4428" d="M94.096,47.247c-3.434-1.363-7.328,0.314-8.693,3.752s0.316,7.329,3.751,8.693
				c3.438,1.365,7.33-0.314,8.695-3.75C99.213,52.506,97.534,48.613,94.096,47.247z M90.26,56.907
				c-1.896-0.754-2.823-2.903-2.07-4.801c0.754-1.898,2.904-2.827,4.8-2.074c1.898,0.756,2.828,2.906,2.073,4.805
				C94.309,56.733,92.158,57.66,90.26,56.907z"/>
			<circle fill="#D4603C" cx="91.625" cy="53.471" r="2.574"/>
			<path fill="#CB4428" d="M96.593,46.976l2.576-6.487c0.388-0.979-0.093-2.097-1.071-2.483l-0.568-0.227
				c-0.976-0.389-2.094,0.094-2.483,1.072l-2.577,6.488L96.593,46.976z"/>
		</g>
	</g>
</g>
</svg>
