<?xml version="1.0" encoding="utf-8"?>
<!-- Generator: Adobe Illustrator 16.0.0, SVG Export Plug-In . SVG Version: 6.00 Build 0)  -->
<!DOCTYPE svg PUBLIC "-//W3C//DTD SVG 1.1//EN" "http://www.w3.org/Graphics/SVG/1.1/DTD/svg11.dtd">
<svg version="1.1" id="Layer_1" xmlns="http://www.w3.org/2000/svg" xmlns:xlink="http://www.w3.org/1999/xlink" x="0px" y="0px"
	 width="128px" height="128px" viewBox="0 0 128 128" enable-background="new 0 0 128 128" xml:space="preserve">
<g>
	<circle fill="#E4776E" cx="64" cy="64" r="64"/>
	<path fill="#CB4D44" d="M101.673,32.186L12.984,64.26l21.847,22.005l2.484,10.473l-1.856,3.156l27.156,26.894l-1.138,1.149
		C62.315,127.969,63.154,128,64,128c35.346,0,64-28.653,64-64c0-2.034-0.105-4.044-0.291-6.03L101.673,32.186z"/>
	<g>
		<g>
			<polygon fill="#0D0C0C" points="53.938,38.931 12.984,64.26 60.695,57.739 101.649,32.41 			"/>
			<path fill="#282627" d="M58.01,45.95c-13.321,4.787-23.312,10.916-22.315,13.691l5.297,14.746l48.24-17.328l-5.296-14.746
				C82.939,39.537,71.33,41.166,58.01,45.95z"/>
			
				<ellipse transform="matrix(0.9411 -0.3381 0.3381 0.9411 -18.3849 25.8808)" fill="#514F4F" cx="65.111" cy="65.724" rx="25.629" ry="5.342"/>
		</g>
		<g>
			<path fill="#BD9038" d="M92.647,72.4c0,0,4.174,6.001,11.564,7.38c0,0-39.675,11.152-52.195,22.057l0.087-5.468l15.654-14.056
				L92.647,72.4z"/>
			
				<ellipse transform="matrix(0.5396 0.8419 -0.8419 0.5396 97.6739 5.4036)" fill="#C8A660" cx="43.896" cy="92.013" rx="12.258" ry="11.572"/>
			<path fill="#BD9038" d="M54.37,84.58l-14.197,5.483c0,0,4.333,0.301,5.032,5.092c0.764,5.234-3.372,7.926-8.347,6.17
				c0,0,3.851,4.085,11.078,2.268c7.229-1.815,7.544-6.883,7.544-6.883l0.821-4.856L54.37,84.58z"/>
			<path fill="#B92025" d="M76.889,88.919c0,0,3.252,5.432,2,11.775l-2.8-3.385l-2.23,2.385c0,0,0.268-9.436-3.109-13.893
				L76.889,88.919z"/>
			<path fill="#E31E25" d="M77.526,83.169c0,0,10.796,7.57,20.033,6.394c0,0-3.545,2.134-5.506,2.108c0,0,2.081,3.108,4.57,3.652
				c0,0-16.627,0.46-25.152-9.358L77.526,83.169z"/>
			<path fill="#E1CAA3" d="M87.838,55.517c0,0,16.445-3.023,14.924,15.55c0,0-36.953,14.059-48.994,29.588
				c0,0,3.417-5.051-0.574-12.767c-1.576-3.044-4.561-6.73-9.537-7.387c-1.697-0.225-3.073-0.208-3.616-0.074
				c0,0,0.042,0.064,3.613-1.004C54.449,76.196,77.456,68.134,87.838,55.517z"/>
			<path fill="#E31E25" d="M62.759,72.253c0,0,11.998-0.057,10.779,13.107l5.844-3.284c0,0,0.513-11.216-9.82-13.056L62.759,72.253z
				"/>
		</g>
		<path fill="#0E0E0D" d="M101.408,64.12c-0.134-0.54-0.451-0.99-0.729-1.391c-0.117-0.164-0.224-0.319-0.301-0.455
			c-0.19-0.334-0.359-0.67-0.541-1.028c-0.161-0.321-0.322-0.64-0.494-0.952c-0.691-1.252-1.886-1.98-2.964-2.526
			c-0.288-0.146-0.57-0.256-0.844-0.362c-0.238-0.094-0.464-0.182-0.659-0.278c-0.02-0.013-0.037-0.028-0.055-0.042
			c-0.021-0.016-0.047-0.034-0.075-0.055c-0.085-1.473,0.154-2.896,0.405-4.393c0.173-1.024,0.352-2.085,0.423-3.178
			c0.181-2.842-0.37-6.953-1.777-9.307c-1.467-2.454-5.236-6.318-8.667-6.823c-1.406-0.206-2.673,0.162-3.662,1.066
			c-0.332,0.304-0.354,0.821-0.051,1.152c0.304,0.332,0.818,0.354,1.15,0.052c0.634-0.579,1.395-0.795,2.325-0.658
			c2.783,0.408,6.146,3.773,7.505,6.046c1.223,2.046,1.711,5.84,1.549,8.368c-0.064,1.01-0.235,2.026-0.399,3.01
			c-0.262,1.545-0.527,3.137-0.423,4.822c-0.04,0.044-0.073,0.092-0.106,0.141l-0.233,0.053l0.029,0.386
			c-0.056,0.176-0.089,0.349-0.117,0.495c-0.015,0.084-0.036,0.208-0.052,0.248c-0.112,0.318-0.217,0.647-0.32,0.977
			c-0.077,0.248-0.154,0.495-0.237,0.738c-0.288,0.85-0.145,1.613-0.006,2.35l0.039,0.216c0.049,0.254,0.082,0.509,0.115,0.763
			c0.064,0.482,0.133,0.98,0.275,1.486c0.064,0.226,0.146,0.434,0.219,0.615c0.1,0.252,0.184,0.471,0.211,0.689
			c0.055,0.448,0.461,0.766,0.908,0.711c0.004,0,0.005,0,0.006-0.002c0.444-0.058,0.758-0.462,0.703-0.906
			c-0.052-0.424-0.19-0.777-0.313-1.087c-0.063-0.163-0.123-0.315-0.166-0.466c-0.111-0.395-0.169-0.813-0.229-1.258
			c-0.037-0.279-0.075-0.56-0.126-0.839l-0.042-0.226c-0.064-0.336-0.116-0.621-0.129-0.884c0.037,0.108,0.073,0.217,0.112,0.327
			c0.51,1.498,1.088,3.193,2.239,4.316c0.186,0.182,0.436,0.256,0.675,0.224c0.177-0.022,0.344-0.103,0.477-0.238
			c0.152-0.157,0.23-0.359,0.232-0.563c0.268,0.156,0.613,0.152,0.884-0.04c0.365-0.261,0.45-0.769,0.19-1.136
			c-0.882-1.235-1.724-2.581-2.372-3.791c-0.034-0.064-0.132-0.313-0.211-0.513c-0.115-0.29-0.229-0.574-0.345-0.847
			c0.069,0.031,0.139,0.061,0.205,0.093c0.857,0.436,1.797,0.996,2.275,1.861c0.162,0.294,0.314,0.595,0.467,0.897
			c0.181,0.359,0.368,0.73,0.577,1.1c0.115,0.203,0.252,0.398,0.385,0.586c0.207,0.296,0.422,0.603,0.481,0.85
			c0.109,0.436,0.55,0.703,0.988,0.595C101.25,65.001,101.518,64.56,101.408,64.12z"/>
	</g>
</g>
</svg>
