<?xml version="1.0" encoding="utf-8"?>
<!-- Generator: Adobe Illustrator 16.0.0, SVG Export Plug-In . SVG Version: 6.00 Build 0)  -->
<!DOCTYPE svg PUBLIC "-//W3C//DTD SVG 1.1//EN" "http://www.w3.org/Graphics/SVG/1.1/DTD/svg11.dtd">
<svg version="1.1" id="Layer_1" xmlns="http://www.w3.org/2000/svg" xmlns:xlink="http://www.w3.org/1999/xlink" x="0px" y="0px"
	 width="128px" height="128px" viewBox="0 0 128 128" enable-background="new 0 0 128 128" xml:space="preserve">
<g>
	<circle fill="#E77970" cx="64" cy="64" r="64"/>
	<path fill="#C4504B" d="M91.453,24.212l-3.331,1.816L41.033,98.31l-4.469,5.706l24.134,23.9C61.792,127.972,62.893,128,64,128
		c35.347,0,64-28.653,64-64c0-1.246-0.045-2.481-0.115-3.709L91.453,24.212z"/>
	<g>
		<path fill="#E7E7E7" d="M92.2,101.392c0,2.061-1.798,3.746-3.993,3.746H39.793c-2.196,0-3.993-1.686-3.993-3.746V26.608
			c0-2.061,1.797-3.746,3.993-3.746h48.414c2.195,0,3.993,1.686,3.993,3.746V101.392z"/>
		<path fill="#D8D2D4" d="M89.471,23.06c-0.292,2.434-0.664,4.857-1.093,7.275c-0.29,2.195-0.709,4.328-1.269,6.438
			c-0.495,2.299-1.025,4.586-1.576,6.861c-1.138,4.703-2.273,9.398-3.668,14.033c-1.318,4.385-2.878,8.67-4.395,12.984
			c-4.104,11.676-7.937,23.781-14.148,34.486h24.885c2.195,0,3.993-1.686,3.993-3.746V26.608C92.2,24.962,91.052,23.56,89.471,23.06
			z"/>
		<path fill="#139CC4" d="M88.275,42.665c0,2.061-1.686,3.746-3.746,3.746H43.471c-2.061,0-3.746-1.686-3.746-3.746v-9.078
			c0-2.063,1.686-3.746,3.746-3.746h41.059c2.061,0,3.746,1.684,3.746,3.746V42.665z"/>
		<g>
			<path fill="#4E4E4E" d="M53.039,59.548c0,1.357-1.009,2.467-2.242,2.467h-7.522c-1.232,0-2.241-1.109-2.241-2.467v-2.531
				c0-1.357,1.009-2.465,2.241-2.465h7.522c1.233,0,2.242,1.107,2.242,2.465V59.548z"/>
			<path fill="#4E4E4E" d="M70.002,59.548c0,1.357-1.008,2.467-2.242,2.467h-7.521c-1.233,0-2.242-1.109-2.242-2.467v-2.531
				c0-1.357,1.009-2.465,2.242-2.465h7.521c1.234,0,2.242,1.107,2.242,2.465V59.548z"/>
			<path fill="#4E4E4E" d="M86.967,59.548c0,1.357-1.008,2.467-2.242,2.467h-7.521c-1.233,0-2.241-1.109-2.241-2.467v-2.531
				c0-1.357,1.008-2.465,2.241-2.465h7.521c1.234,0,2.242,1.107,2.242,2.465V59.548z"/>
		</g>
		<g>
			<path fill="#4E4E4E" d="M53.039,72.468c0,1.357-1.009,2.469-2.242,2.469h-7.522c-1.232,0-2.241-1.111-2.241-2.469v-2.531
				c0-1.355,1.009-2.467,2.241-2.467h7.522c1.233,0,2.242,1.111,2.242,2.467V72.468z"/>
			<path fill="#4E4E4E" d="M70.002,72.468c0,1.357-1.008,2.469-2.242,2.469h-7.521c-1.233,0-2.242-1.111-2.242-2.469v-2.531
				c0-1.355,1.009-2.467,2.242-2.467h7.521c1.234,0,2.242,1.111,2.242,2.467V72.468z"/>
			<path fill="#4E4E4E" d="M86.967,72.468c0,1.357-1.008,2.469-2.242,2.469h-7.521c-1.233,0-2.241-1.111-2.241-2.469v-2.531
				c0-1.355,1.008-2.467,2.241-2.467h7.521c1.234,0,2.242,1.111,2.242,2.467V72.468z"/>
		</g>
		<g>
			<path fill="#4E4E4E" d="M53.039,85.39c0,1.357-1.009,2.467-2.242,2.467h-7.522c-1.232,0-2.241-1.109-2.241-2.467v-2.533
				c0-1.355,1.009-2.467,2.241-2.467h7.522c1.233,0,2.242,1.111,2.242,2.467V85.39z"/>
			<path fill="#4E4E4E" d="M70.002,85.39c0,1.357-1.008,2.467-2.242,2.467h-7.521c-1.233,0-2.242-1.109-2.242-2.467v-2.533
				c0-1.355,1.009-2.467,2.242-2.467h7.521c1.234,0,2.242,1.111,2.242,2.467V85.39z"/>
			<path fill="#4E4E4E" d="M86.967,85.39c0,1.357-1.008,2.467-2.242,2.467h-7.521c-1.233,0-2.241-1.109-2.241-2.467v-2.533
				c0-1.355,1.008-2.467,2.241-2.467h7.521c1.234,0,2.242,1.111,2.242,2.467V85.39z"/>
		</g>
		<g>
			<path fill="#4E4E4E" d="M53.039,98.31c0,1.357-1.009,2.467-2.242,2.467h-7.522c-1.232,0-2.241-1.109-2.241-2.467v-2.533
				c0-1.355,1.009-2.467,2.241-2.467h7.522c1.233,0,2.242,1.111,2.242,2.467V98.31z"/>
			<path fill="#4E4E4E" d="M70.002,98.31c0,1.357-1.008,2.467-2.242,2.467h-7.521c-1.233,0-2.242-1.109-2.242-2.467v-2.533
				c0-1.355,1.009-2.467,2.242-2.467h7.521c1.234,0,2.242,1.111,2.242,2.467V98.31z"/>
			<path fill="#4E4E4E" d="M86.967,98.31c0,1.357-1.008,2.467-2.242,2.467h-7.521c-1.233,0-2.241-1.109-2.241-2.467v-2.533
				c0-1.355,1.008-2.467,2.241-2.467h7.521c1.234,0,2.242,1.111,2.242,2.467V98.31z"/>
		</g>
	</g>
</g>
</svg>
