<?xml version="1.0" encoding="utf-8"?>
<!-- Generator: Adobe Illustrator 16.0.0, SVG Export Plug-In . SVG Version: 6.00 Build 0)  -->
<!DOCTYPE svg PUBLIC "-//W3C//DTD SVG 1.1//EN" "http://www.w3.org/Graphics/SVG/1.1/DTD/svg11.dtd">
<svg version="1.1" id="Layer_1" xmlns="http://www.w3.org/2000/svg" xmlns:xlink="http://www.w3.org/1999/xlink" x="0px" y="0px"
	 width="128px" height="128px" viewBox="0 0 128 128" enable-background="new 0 0 128 128" xml:space="preserve">
<g>
	<circle fill="#2580BB" cx="64" cy="64" r="64"/>
	<path fill="#0C678C" d="M95.831,25.722l-2.346,2.346l-22.102,0.315l-15.472,5.684l15.787,15.787l0.947,10.734l-7.38-8.327
		l-4.618,10.538l-30.626,39.782l-3.102,2.455l21.174,20.97C53.181,127.307,58.509,128,64,128c35.346,0,64-28.653,64-64
		c0-2.29-0.126-4.55-0.36-6.777L95.831,25.722z"/>
	<g>
		<path fill="#ECF1F9" d="M26.014,104.828h39.253V52.261L26.014,104.828z M40.702,97.464l17.201-23.035v23.035H40.702z"/>
		<rect x="32.054" y="100.94" fill="#C86628" width="0.157" height="3.236"/>
		<rect x="33.746" y="102.339" fill="#C86628" width="0.156" height="1.838"/>
		<rect x="35.512" y="100.94" fill="#C86628" width="0.156" height="3.236"/>
		<rect x="37.203" y="102.339" fill="#C86628" width="0.157" height="1.838"/>
		<rect x="38.969" y="100.94" fill="#C86628" width="0.156" height="3.236"/>
		<rect x="40.661" y="102.339" fill="#C86628" width="0.156" height="1.838"/>
		<rect x="42.427" y="100.94" fill="#C86628" width="0.156" height="3.236"/>
		<rect x="44.118" y="102.339" fill="#C86628" width="0.156" height="1.838"/>
		<rect x="45.885" y="100.94" fill="#C86628" width="0.155" height="3.236"/>
		<rect x="47.575" y="102.339" fill="#C86628" width="0.157" height="1.838"/>
		<rect x="49.342" y="100.94" fill="#C86628" width="0.156" height="3.236"/>
		<rect x="51.033" y="102.339" fill="#C86628" width="0.156" height="1.838"/>
		<rect x="52.799" y="100.94" fill="#C86628" width="0.157" height="3.236"/>
		<rect x="54.491" y="102.339" fill="#C86628" width="0.155" height="1.838"/>
		<rect x="56.257" y="100.94" fill="#C86628" width="0.156" height="3.236"/>
		<rect x="57.949" y="102.339" fill="#C86628" width="0.155" height="1.838"/>
		<rect x="59.714" y="100.94" fill="#C86628" width="0.156" height="3.236"/>
		<rect x="61.406" y="102.339" fill="#C86628" width="0.155" height="1.838"/>
		<rect x="63.172" y="100.94" fill="#C86628" width="0.155" height="3.236"/>
		<path fill="#E0772B" d="M93.792,24.583h-5.32c-1.645-2.492-6.729-4.309-12.748-4.309c-6.02,0-11.104,1.816-12.749,4.309h-5.32
			c-1.477,0-2.685,1.076-2.685,2.39v4.999c0,1.314,1.208,2.391,2.685,2.391h36.138c1.477,0,2.685-1.076,2.685-2.391v-4.999
			C96.477,25.659,95.269,24.583,93.792,24.583z"/>
		<rect x="69.86" y="34.312" fill="#F79944" width="11.727" height="73.414"/>
		<rect x="75.223" y="36.601" fill="#701411" width="5.489" height="0.451"/>
		<rect x="77.482" y="38.603" fill="#701411" width="3.229" height="0.451"/>
		<rect x="75.223" y="40.669" fill="#701411" width="5.489" height="0.451"/>
		<rect x="77.482" y="42.671" fill="#701411" width="3.229" height="0.451"/>
		<rect x="75.223" y="44.737" fill="#701411" width="5.489" height="0.453"/>
		<rect x="77.482" y="46.74" fill="#701411" width="3.229" height="0.452"/>
		<rect x="75.223" y="48.806" fill="#701411" width="5.489" height="0.453"/>
		<rect x="77.482" y="50.808" fill="#701411" width="3.229" height="0.453"/>
		<rect x="75.223" y="52.875" fill="#701411" width="5.489" height="0.452"/>
		<rect x="77.482" y="54.877" fill="#701411" width="3.229" height="0.452"/>
		<rect x="75.223" y="56.942" fill="#701411" width="5.489" height="0.453"/>
		<rect x="77.482" y="58.946" fill="#701411" width="3.229" height="0.451"/>
		<rect x="75.223" y="61.013" fill="#701411" width="5.489" height="0.452"/>
		<rect x="77.482" y="63.014" fill="#701411" width="3.229" height="0.452"/>
		<rect x="75.223" y="65.081" fill="#701411" width="5.489" height="0.451"/>
		<rect x="77.482" y="67.084" fill="#701411" width="3.229" height="0.452"/>
		<rect x="75.223" y="69.149" fill="#701411" width="5.489" height="0.452"/>
		<rect x="77.482" y="71.151" fill="#701411" width="3.229" height="0.451"/>
		<rect x="75.223" y="73.219" fill="#701411" width="5.489" height="0.452"/>
		<rect x="77.482" y="75.221" fill="#701411" width="3.229" height="0.453"/>
		<rect x="75.223" y="77.286" fill="#701411" width="5.489" height="0.452"/>
		<rect x="77.482" y="79.288" fill="#701411" width="3.229" height="0.453"/>
		<rect x="75.223" y="81.355" fill="#701411" width="5.489" height="0.453"/>
		<rect x="77.482" y="83.357" fill="#701411" width="3.229" height="0.452"/>
		<rect x="75.223" y="85.425" fill="#701411" width="5.489" height="0.451"/>
		<rect x="77.482" y="87.427" fill="#701411" width="3.229" height="0.453"/>
		<rect x="75.223" y="89.566" fill="#701411" width="5.489" height="0.452"/>
		<rect x="77.482" y="91.568" fill="#701411" width="3.229" height="0.452"/>
		<rect x="75.223" y="93.708" fill="#701411" width="5.489" height="0.451"/>
		<rect x="77.482" y="95.71" fill="#701411" width="3.229" height="0.451"/>
		<rect x="75.223" y="97.85" fill="#701411" width="5.489" height="0.452"/>
		<rect x="77.482" y="99.851" fill="#701411" width="3.229" height="0.453"/>
		<rect x="75.223" y="101.99" fill="#701411" width="5.489" height="0.452"/>
		<rect x="77.482" y="103.991" fill="#701411" width="3.229" height="0.453"/>
		<g>
			<polygon fill="#1B1716" points="86.769,81.573 86.413,81.433 87.683,78.234 86.618,77.812 85.348,81.009 84.993,80.87 
				84.17,82.94 84.524,83.081 83.255,86.278 84.319,86.702 85.59,83.505 85.946,83.646 			"/>
			
				<rect x="73.746" y="82.002" transform="matrix(0.9294 0.3691 -0.3691 0.9294 36.3983 -25.7394)" fill="#1B1716" width="23.446" height="0.511"/>
			<path fill="#8DD7F7" d="M97.654,51.575c-2.856-1.135-6.097,0.26-7.231,3.12c-1.136,2.858,0.264,6.097,3.12,7.231
				c2.859,1.137,6.098-0.262,7.232-3.119C101.911,55.948,100.515,52.711,97.654,51.575z M94.464,59.609
				c-1.578-0.627-2.349-2.415-1.722-3.993s2.415-2.352,3.993-1.725s2.351,2.416,1.723,3.996
				C97.832,59.466,96.042,60.236,94.464,59.609z"/>
			<polygon fill="#9C9F9D" points="95.611,93.222 96.798,102.256 98.612,93.174 98.076,60.386 95.076,60.437 			"/>
			<polygon fill="#1B1716" points="96.724,92.84 96.798,102.256 98.612,93.174 98.076,60.386 96.445,60.696 			"/>
			<polygon fill="#9C9F9D" points="70.567,83.273 63.506,89.032 68.417,81.181 91.305,57.696 93.452,59.79 			"/>
			<polygon fill="#1B1716" points="70.567,83.273 63.506,89.032 69.436,82.585 92.313,58.888 93.452,59.79 			"/>
			<path fill="#1B1716" d="M97.654,51.575c-2.856-1.135-6.097,0.26-7.231,3.12c-1.136,2.858,0.264,6.097,3.12,7.231
				c2.859,1.137,6.098-0.262,7.232-3.119C101.911,55.948,100.515,52.711,97.654,51.575z M94.464,59.609
				c-1.578-0.627-2.349-2.415-1.722-3.993s2.415-2.352,3.993-1.725s2.351,2.416,1.723,3.996
				C97.832,59.466,96.042,60.236,94.464,59.609z"/>
			<circle fill="#9C9F9D" cx="95.6" cy="56.751" r="2.142"/>
			<path fill="#1B1716" d="M99.731,51.348l2.144-5.396c0.323-0.813-0.078-1.744-0.892-2.066l-0.473-0.188
				c-0.813-0.322-1.743,0.079-2.065,0.892l-2.144,5.397L99.731,51.348z"/>
		</g>
	</g>
</g>
</svg>
