<?xml version="1.0" encoding="utf-8"?>
<!-- Generator: Adobe Illustrator 16.0.0, SVG Export Plug-In . SVG Version: 6.00 Build 0)  -->
<!DOCTYPE svg PUBLIC "-//W3C//DTD SVG 1.1//EN" "http://www.w3.org/Graphics/SVG/1.1/DTD/svg11.dtd">
<svg version="1.1" id="Layer_1" xmlns="http://www.w3.org/2000/svg" xmlns:xlink="http://www.w3.org/1999/xlink" x="0px" y="0px"
	 width="128px" height="128px" viewBox="0 0 128 128" enable-background="new 0 0 128 128" xml:space="preserve">
<g>
	<circle fill="#BBBDBF" cx="64" cy="64" r="64"/>
	<path fill="#949CA8" d="M82.436,26.459l2.146,30.752l-36.254,42.947v3.02l24.443,24.209c28.854-3.958,51.572-27.136,54.818-56.211
		L82.436,26.459z"/>
	<g>
		<path fill="#072F49" d="M86.762,78.256c0,0-30.885-1.426-37.537,25.656L7.885,54.497c0,0,17.581-22.806,39.438-16.63
			L86.762,78.256z"/>
		<path fill="#072F49" d="M86.762,78.256c0,0,24.184-17.871,34.063-13.479L80.756,25.805c0,0-21.857-5.24-33.434,12.063
			L86.762,78.256z"/>
		<path fill="#8197AC" d="M47.322,37.867c0,0-21.803-11.211-34.908,7.438l34.908,38.56c0,0,22.404-14.738,38.193-6.885
			L47.322,37.867"/>
		<path fill="#FDFCEC" d="M47.322,37.867c0,0-15.754-12.974-28.104-7.684l33.266,36.041c0,0,17.242-3.65,33.031,10.756
			L47.322,37.867z"/>
		<path fill="#EEF3E3" d="M85.516,76.98c0,0,12.949-15.154,26.699-15.998L74.777,23.967c0,0-19.25-4.02-27.455,13.9L85.516,76.98z"
			/>
		<g>
			<path fill="#E77970" d="M72.426,31.605c-1.338,0.561-2.615,1.262-3.803,2.083c-0.002,0.538-0.004,1.077-0.004,1.622
				c0.002,0.402,0.039,0.676,0.111,0.818c0.061,0.119,0.178,0.164,0.35,0.153c0.172-0.014,0.48-0.167,0.943-0.442
				c0.033,0.07,0.068,0.137,0.104,0.203c-0.975,0.658-1.889,1.398-2.723,2.207c-0.037-0.066-0.07-0.137-0.105-0.203
				c0.307-0.375,0.498-0.646,0.549-0.829c0.119-0.356,0.168-0.917,0.156-1.669c-0.039-2.863,0.008-5.635,0.113-8.298
				c0.084-0.043,0.17-0.087,0.256-0.133c2.23,1.478,4.514,3.065,6.828,4.777c0.557,0.412,1.002,0.661,1.322,0.753
				c0.326,0.088,0.715,0.09,1.168,0.025c0.035,0.067,0.07,0.137,0.105,0.203c-1.434,0.268-2.848,0.701-4.205,1.278
				c-0.033-0.067-0.068-0.137-0.104-0.204c0.402-0.188,0.66-0.342,0.764-0.486c0.104-0.137,0.123-0.264,0.061-0.388
				c-0.082-0.163-0.32-0.377-0.705-0.651C73.213,32.148,72.818,31.875,72.426,31.605z M72,31.29
				c-1.102-0.755-2.191-1.479-3.27-2.181c-0.051,1.314-0.088,2.659-0.105,4.028C69.688,32.422,70.822,31.799,72,31.29z"/>
		</g>
		<g>
			<path fill="#929497" d="M83.379,38.717l0.006-0.932c-0.049,0-0.094,0-0.141,0c-12.215,0-18.262,9.891-18.322,9.99l0.799,0.479
				c0.057-0.096,5.848-9.537,17.523-9.537C83.289,38.717,83.334,38.717,83.379,38.717z"/>
			<path fill="#929497" d="M88.127,43.598l0.006-0.934c-0.045,0-0.092,0-0.139,0c-12.217,0-18.262,9.891-18.322,9.993l0.799,0.478
				c0.059-0.096,5.848-9.537,17.523-9.537C88.039,43.598,88.082,43.598,88.127,43.598z"/>
			<path fill="#929497" d="M92.406,48.479l0.006-0.931c-0.047,0-0.09,0-0.139,0c-12.217,0-18.262,9.891-18.322,9.99l0.799,0.479
				c0.059-0.096,5.848-9.538,17.523-9.538C92.316,48.479,92.363,48.479,92.406,48.479z"/>
			<path fill="#929497" d="M78.699,62.421l0.801,0.479c0.057-0.097,5.846-9.538,17.525-9.538c0.043,0,0.088,0,0.133,0l0.004-0.932
				C84.877,52.343,78.762,62.32,78.699,62.421z"/>
		</g>
		<g>
			
				<rect x="40.652" y="27.862" transform="matrix(-0.3151 0.9491 -0.9491 -0.3151 109.5498 25.9903)" fill="#F7981D" width="9.489" height="49.323"/>
			
				<rect x="44.954" y="24.757" transform="matrix(-0.3154 0.9489 -0.9489 -0.3154 107.9679 20.9502)" fill="#FDE531" width="2.947" height="49.323"/>
			
				<rect x="43.853" y="27.677" transform="matrix(0.3143 -0.9493 0.9493 0.3143 -18.5186 79.0422)" fill="#F8CC0D" width="3.206" height="49.326"/>
			<polygon fill="#DEBEA1" points="67.305,64.805 70.295,55.799 83.285,64.983 			"/>
			<polygon fill="#F1D7B7" points="68.357,61.64 70.295,55.799 83.285,64.983 			"/>
			<polygon fill="#FAF6C3" points="69.361,58.613 70.295,55.799 83.285,64.983 			"/>
			<polygon fill="#39454E" points="79,61.952 83.285,64.983 78.012,64.924 			"/>
			<path fill="#E76165" d="M20.522,49.252l-5.478-1.82c-0.978-0.326-1.55-1.264-1.281-2.086l1.996-6.002
				c0.275-0.822,1.297-1.232,2.271-0.907l5.48,1.818L20.522,49.252z"/>
			<path fill="#A22163" d="M13.764,45.346l1.567-4.715l7.254,2.413l-2.063,6.208l-5.478-1.82
				C14.067,47.105,13.495,46.168,13.764,45.346z"/>
			<path fill="#802149" d="M13.764,45.346l0.554-1.659l7.253,2.411l-1.048,3.154l-5.478-1.82
				C14.067,47.105,13.495,46.168,13.764,45.346z"/>
		</g>
	</g>
</g>
</svg>
