<?xml version="1.0" encoding="utf-8"?>
<!-- Generator: Adobe Illustrator 16.0.0, SVG Export Plug-In . SVG Version: 6.00 Build 0)  -->
<!DOCTYPE svg PUBLIC "-//W3C//DTD SVG 1.1//EN" "http://www.w3.org/Graphics/SVG/1.1/DTD/svg11.dtd">
<svg version="1.1" id="Layer_1" xmlns="http://www.w3.org/2000/svg" xmlns:xlink="http://www.w3.org/1999/xlink" x="0px" y="0px"
	 width="128px" height="128px" viewBox="0 0 128 128" enable-background="new 0 0 128 128" xml:space="preserve">
<g>
	<circle fill="#91D7EE" cx="64" cy="64" r="64"/>
	<path fill="#56A9C0" d="M88.833,27.845L40.986,91.97L26.83,91.712l-3.836,0.6l35.807,35.46C60.518,127.91,62.248,128,64,128
		c34.484,0,62.585-27.277,63.936-61.432L88.833,27.845z"/>
	<path fill="#D7362D" d="M100.419,56.749c2.896-1.798,3.796-5.64,1.997-8.535l-11.725-18.9c-1.795-2.895-5.638-3.795-8.533-1.998
		L54.681,44.362l18.261,29.433L100.419,56.749z"/>
	<path fill="#FFFFFF" d="M54.681,44.362L27.205,61.407c-2.898,1.797-3.799,5.639-2.001,8.535L36.93,88.841
		c1.797,2.896,5.639,3.797,8.533,1.999l27.479-17.045L54.681,44.362z"/>
	<path fill="#C82827" d="M99.101,56.177c-5.006,2.166-10.025,4.248-15.234,5.895c-4.797,1.516-9.693,2.691-14.49,4.205
		c-0.304,0.098-0.607,0.203-0.914,0.301l4.479,7.218l27.478-17.046c0.755-0.469,1.371-1.08,1.845-1.775
		C101.183,55.373,100.123,55.772,99.101,56.177z"/>
	<path fill="#E6E7E8" d="M39.744,76.616c-2.943,0.902-5.909,1.703-8.894,2.432l6.079,9.793c1.797,2.896,5.639,3.797,8.533,1.999
		l27.479-17.045l-4.479-7.218C58.805,69.688,49.432,73.64,39.744,76.616z"/>
	<g>
		<g>
			<rect x="22.874" y="90.948" fill="#6D6E70" width="82.252" height="1.635"/>
		</g>
	</g>
</g>
</svg>
