<?xml version="1.0" encoding="utf-8"?>
<!-- Generator: Adobe Illustrator 16.0.0, SVG Export Plug-In . SVG Version: 6.00 Build 0)  -->
<!DOCTYPE svg PUBLIC "-//W3C//DTD SVG 1.1//EN" "http://www.w3.org/Graphics/SVG/1.1/DTD/svg11.dtd">
<svg version="1.1" id="Layer_1" xmlns="http://www.w3.org/2000/svg" xmlns:xlink="http://www.w3.org/1999/xlink" x="0px" y="0px"
	 width="128px" height="128px" viewBox="0 0 128 128" enable-background="new 0 0 128 128" xml:space="preserve">
<g>
	<circle fill="#CBD8CB" cx="64" cy="64" r="64"/>
	<path fill="#97B697" d="M89.01,19.646l-1.867,1.511L67.605,25.53L54.484,94.055L39.32,100.47l-2.891,1.821l25.918,25.667
		C62.898,127.972,63.445,128,64,128c35.346,0,64-28.653,64-64c0-2.034-0.105-4.044-0.291-6.029L89.01,19.646z"/>
	<g>
		<path fill="#B3872D" d="M32.626,93.288c0,0,0.717,12.766,11.784,10.551c11.064-2.212,11.174-5.679,11.174-5.679l-1.949-6.82
			L32.626,93.288z"/>
		<path fill="#FDDB7F" d="M33.687,20.079c0,0-17.086,3.016-4.02,28.814C42.734,74.69,55.13,95.8,44.41,103.839l54.276-10.051
			c0,0,10.051-4.02,0.336-21.441c-9.717-17.422-16.082-33.84-16.082-33.84s-5.697-18.763,2.01-19.768L33.687,20.079z"/>
		<path fill="#E0B54A" d="M33.687,20.079c0,0,4.247-0.317,5.114,4.447c0.865,4.765-2.383,6.822-2.383,6.822l52.518-2.6
			c0,0,3.141-3.464,1.191-7.146c-1.949-3.682-5.178-2.863-5.178-2.863L33.687,20.079z"/>
		<g>
			<polygon fill="#DF2A3D" points="100.061,107.283 95.861,104.743 93.949,109.337 87.943,91.462 94.053,89.407 			"/>
			<polygon fill="#C12126" points="77.182,107.283 81.381,104.743 83.293,109.337 89.301,91.462 83.189,89.407 			"/>
			<polygon fill="#EE3A24" points="88.621,73.948 89.76,72.841 90.641,74.161 91.986,73.314 92.574,74.788 94.066,74.239 
				94.336,75.805 95.906,75.578 95.846,77.165 97.43,77.269 97.039,78.809 98.568,79.239 97.867,80.665 99.271,81.405 
				98.289,82.653 99.51,83.669 98.289,84.685 99.271,85.933 97.867,86.674 98.568,88.099 97.039,88.529 97.43,90.07 95.846,90.173 
				95.906,91.76 94.336,91.533 94.066,93.099 92.574,92.55 91.986,94.024 90.641,93.179 89.76,94.497 88.621,93.392 87.482,94.497 
				86.6,93.179 85.256,94.024 84.668,92.55 83.178,93.099 82.906,91.533 81.336,91.76 81.398,90.173 79.813,90.07 80.203,88.529 
				78.676,88.099 79.375,86.674 77.971,85.933 78.953,84.685 77.734,83.669 78.953,82.653 77.971,81.405 79.375,80.665 
				78.676,79.239 80.203,78.809 79.813,77.269 81.398,77.165 81.336,75.578 82.906,75.805 83.178,74.239 84.668,74.788 
				85.256,73.314 86.6,74.161 87.482,72.841 			"/>
			<g>
				<g>
					<path fill="#FDCF1E" d="M88.621,91.1c-4.098,0-7.432-3.332-7.432-7.431c0-4.098,3.334-7.431,7.432-7.431s7.43,3.333,7.43,7.431
						C96.051,87.768,92.719,91.1,88.621,91.1z M88.621,77.487c-3.41,0-6.184,2.773-6.184,6.182c0,3.41,2.773,6.183,6.184,6.183
						s6.182-2.772,6.182-6.183C94.803,80.261,92.031,77.487,88.621,77.487z"/>
				</g>
			</g>
		</g>
	</g>
</g>
</svg>
