<?xml version="1.0" encoding="utf-8"?>
<!-- Generator: Adobe Illustrator 16.0.0, SVG Export Plug-In . SVG Version: 6.00 Build 0)  -->
<!DOCTYPE svg PUBLIC "-//W3C//DTD SVG 1.1//EN" "http://www.w3.org/Graphics/SVG/1.1/DTD/svg11.dtd">
<svg version="1.1" id="Layer_1" xmlns="http://www.w3.org/2000/svg" xmlns:xlink="http://www.w3.org/1999/xlink" x="0px" y="0px"
	 width="128px" height="128px" viewBox="0 0 128 128" enable-background="new 0 0 128 128" xml:space="preserve">
<g>
	<circle fill="#EDC55D" cx="64" cy="64" r="64"/>
	<path fill="#C79A38" d="M89.591,22.515l-2.521,3.622L54.303,59.672L27.296,92.888l-3.831,3.656l31.052,30.752
		C57.612,127.756,60.777,128,64,128c35.347,0,64-28.653,64-64c0-1.192-0.038-2.374-0.103-3.55L89.591,22.515z"/>
	<polygon fill="#9F1C37" points="56.296,96.495 67.632,85.16 67.632,52.55 56.296,63.886 	"/>
	<rect x="23.688" y="63.886" fill="#ED2F41" width="32.608" height="32.609"/>
	<rect x="27.296" y="67.493" fill="#FFFFFF" width="25.393" height="25.395"/>
	<polygon fill="#D43D67" points="36.526,52.55 23.688,63.886 56.296,63.886 67.632,52.55 	"/>
	<polygon fill="#3D3F98" points="92.978,105.515 104.313,94.18 104.313,61.57 92.978,72.905 	"/>
	<rect x="60.369" y="72.905" fill="#6064AC" width="32.608" height="32.609"/>
	<rect x="63.977" y="76.513" fill="#FFFFFF" width="25.393" height="25.395"/>
	<polygon fill="#8083BF" points="73.207,61.57 60.369,72.905 92.978,72.905 104.313,61.57 	"/>
	<polygon fill="#295C2E" points="78.269,66.429 89.604,55.093 89.604,22.485 78.269,33.819 	"/>
	<rect x="45.659" y="33.819" fill="#389A46" width="32.609" height="32.609"/>
	<rect x="49.268" y="37.428" fill="#FFFFFF" width="25.394" height="25.394"/>
	<polygon fill="#5AB947" points="58.499,22.485 45.659,33.819 78.269,33.819 89.604,22.485 	"/>
	<g>
		<path fill="#AEB4AD" d="M58.022,55.108l-1.697,3.857h-3.057l7.471-16.953h3.056l7.471,16.953h-3.057l-1.697-3.857H58.022z
			 M65.348,52.466l-3.081-6.984l-3.08,6.984H65.348z"/>
	</g>
	<g>
		<path fill="#AEB4AD" d="M40.949,89.032h-7.421V72.079h6.595c1.148,0,2.139,0.139,2.971,0.412c0.834,0.275,1.451,0.646,1.855,1.115
			c0.777,0.875,1.164,1.861,1.164,2.959c0,1.326-0.42,2.313-1.26,2.959c-0.309,0.227-0.518,0.369-0.631,0.426
			s-0.314,0.148-0.605,0.277c1.049,0.229,1.887,0.701,2.51,1.42c0.621,0.719,0.934,1.613,0.934,2.68c0,1.18-0.404,2.223-1.213,3.129
			C44.893,88.507,43.26,89.032,40.949,89.032z M36.389,79.112h3.639c2.068,0,3.104-0.703,3.104-2.109
			c0-0.809-0.25-1.391-0.752-1.746c-0.5-0.355-1.277-0.533-2.328-0.533h-3.662V79.112z M36.389,86.39h4.486
			c1.051,0,1.855-0.166,2.414-0.498c0.557-0.332,0.836-0.957,0.836-1.879c0-1.504-1.205-2.256-3.613-2.256h-4.123V86.39z"/>
	</g>
	<g>
		<path fill="#AEB4AD" d="M77.957,95.565c0.986,0,1.834-0.166,2.547-0.498c0.711-0.33,1.455-0.861,2.23-1.588l1.844,1.893
			c-1.795,1.988-3.975,2.982-6.537,2.982s-4.688-0.824-6.377-2.475c-1.691-1.648-2.535-3.734-2.535-6.256
			c0-2.523,0.861-4.625,2.582-6.307c1.723-1.682,3.896-2.521,6.525-2.521c2.627,0,4.822,0.969,6.584,2.91l-1.818,1.988
			c-0.809-0.775-1.572-1.318-2.293-1.625c-0.719-0.307-1.564-0.461-2.533-0.461c-1.715,0-3.154,0.555-4.318,1.662
			s-1.746,2.521-1.746,4.244c0,1.721,0.578,3.16,1.734,4.316S76.373,95.565,77.957,95.565z"/>
	</g>
	<g>
		<path fill="#295C2E" d="M57.721,54.743l-1.697,3.857h-3.057l7.471-16.953h3.055l7.471,16.953h-3.057l-1.697-3.857H57.721z
			 M65.045,52.101l-3.08-6.984l-3.08,6.984H65.045z"/>
	</g>
	<g>
		<path fill="#9F1C37" d="M40.646,88.667h-7.421V71.714h6.596c1.148,0,2.139,0.139,2.971,0.412c0.834,0.275,1.451,0.646,1.855,1.115
			c0.777,0.875,1.164,1.861,1.164,2.959c0,1.326-0.42,2.313-1.26,2.959c-0.309,0.227-0.519,0.369-0.631,0.426
			c-0.113,0.057-0.315,0.148-0.606,0.277c1.05,0.229,1.888,0.701,2.51,1.42s0.935,1.613,0.935,2.68c0,1.18-0.404,2.223-1.213,3.129
			C44.591,88.142,42.958,88.667,40.646,88.667z M36.087,78.747h3.638c2.069,0,3.104-0.703,3.104-2.109
			c0-0.809-0.251-1.391-0.752-1.746s-1.277-0.533-2.328-0.533h-3.662V78.747z M36.087,86.024h4.486c1.051,0,1.855-0.166,2.414-0.498
			c0.557-0.332,0.836-0.957,0.836-1.879c0-1.504-1.205-2.256-3.613-2.256h-4.123V86.024z"/>
	</g>
	<g>
		<path fill="#3D3F98" d="M77.655,95.2c0.986,0,1.834-0.166,2.547-0.498c0.711-0.33,1.455-0.861,2.23-1.588l1.844,1.893
			c-1.795,1.988-3.975,2.982-6.537,2.982s-4.688-0.824-6.378-2.475c-1.69-1.648-2.534-3.734-2.534-6.256
			c0-2.523,0.861-4.625,2.582-6.307c1.723-1.682,3.896-2.521,6.525-2.521c2.627,0,4.822,0.969,6.584,2.91L82.7,85.329
			c-0.809-0.775-1.573-1.318-2.293-1.625c-0.719-0.307-1.564-0.461-2.533-0.461c-1.715,0-3.154,0.555-4.318,1.662
			s-1.746,2.521-1.746,4.244c0,1.721,0.578,3.16,1.734,4.316S76.07,95.2,77.655,95.2z"/>
	</g>
</g>
</svg>
