<?xml version="1.0" encoding="utf-8"?>
<!-- Generator: Adobe Illustrator 16.0.0, SVG Export Plug-In . SVG Version: 6.00 Build 0)  -->
<!DOCTYPE svg PUBLIC "-//W3C//DTD SVG 1.1//EN" "http://www.w3.org/Graphics/SVG/1.1/DTD/svg11.dtd">
<svg version="1.1" id="Layer_1" xmlns="http://www.w3.org/2000/svg" xmlns:xlink="http://www.w3.org/1999/xlink" x="0px" y="0px"
	 width="128px" height="128px" viewBox="0 0 128 128" enable-background="new 0 0 128 128" xml:space="preserve">
<g>
	<circle fill="#459FD1" cx="64" cy="64" r="64"/>
	<path fill="#1E7DA8" d="M105.362,26.728l-6.815,7.225l-20.797,8.79L27.581,82.406l-1.291,1.291l44.385,43.956
		C102.884,124.315,128,97.093,128,64c0-5.955-0.831-11.713-2.353-17.183L105.362,26.728z"/>
	<g>
		<path fill="#FCD789" d="M109.701,65.75c0-14.991-14.866-27.256-33.037-27.256H51.336c-18.171,0-33.037,12.265-33.037,27.256
			c0,13.38,11.849,24.582,27.315,26.835L64,101.778l18.386-9.193C97.853,90.332,109.701,79.13,109.701,65.75z"/>
		<circle fill="#FAEAF2" cx="85.86" cy="64.109" r="16.899"/>
		<circle fill="#213B54" cx="83.257" cy="63.331" r="11.597"/>
		<circle fill="#FAEAF2" cx="77.798" cy="64.419" r="3.256"/>
		<circle fill="#FAEAF2" cx="85.549" cy="63.456" r="2.293"/>
		<circle fill="#FAEAF2" cx="42.243" cy="64.109" r="16.899"/>
		<circle fill="#213B54" cx="44.845" cy="63.331" r="11.597"/>
		<circle fill="#FAEAF2" cx="50.304" cy="64.419" r="3.255"/>
		<circle fill="#FAEAF2" cx="42.553" cy="63.456" r="2.294"/>
		<path fill="#7D4040" d="M83.155,35.737c-2.24,0-10.163,0.932-10.163,0.932c3.101-9.303,7.959-9.922,7.959-9.922
			C76.817,24.576,64,29.847,64,29.847s-12.817-5.271-16.951-3.1c0,0,4.858,0.619,7.959,9.922c0,0-7.923-0.932-10.163-0.932
			c-2.239,0-15.262-0.93-22.084-8.99c0,0,2.996,10.231,19.482,16.123C58.729,48.761,62.14,55.266,64,63.331
			c1.86-8.065,5.271-14.57,21.757-20.461c16.486-5.892,19.482-16.123,19.482-16.123C98.417,34.808,85.395,35.737,83.155,35.737z"/>
		<ellipse fill="#E76141" cx="64" cy="68.493" rx="4.187" ry="7.33"/>
	</g>
</g>
</svg>
