<?xml version="1.0" encoding="utf-8"?>
<!-- Generator: Adobe Illustrator 16.0.0, SVG Export Plug-In . SVG Version: 6.00 Build 0)  -->
<!DOCTYPE svg PUBLIC "-//W3C//DTD SVG 1.1//EN" "http://www.w3.org/Graphics/SVG/1.1/DTD/svg11.dtd">
<svg version="1.1" id="Layer_1" xmlns="http://www.w3.org/2000/svg" xmlns:xlink="http://www.w3.org/1999/xlink" x="0px" y="0px"
	 width="128px" height="128px" viewBox="0 0 128 128" enable-background="new 0 0 128 128" xml:space="preserve">
<g>
	<circle fill="#14B4E5" cx="64" cy="64" r="64"/>
	<path fill="#059ABB" d="M98.956,24.146l-2.477,2.965l-59.791,77.055l-3.771,4.5l18.215,18.039C55.29,127.554,59.593,128,64,128
		c35.346,0,64-28.654,64-64c0-4.197-0.416-8.295-1.188-12.268L98.956,24.146z"/>
	<path fill="#AE5F27" d="M100.422,102.953c0,3.502-2.865,6.367-6.368,6.367h-57.59c-3.503,0-6.368-2.865-6.368-6.367V28.66
		c0-3.502,2.865-6.367,6.368-6.367h57.59c3.503,0,6.368,2.865,6.368,6.367V102.953z"/>
	<polygon fill="#A6A8AB" points="84.5,105.881 27.577,97.164 38.278,27.211 95.2,35.929 	"/>
	
		<rect x="36.69" y="28.886" transform="matrix(0.9979 -0.0641 0.0641 0.9979 -3.9865 4.3313)" fill="#F5F9FA" width="57.579" height="70.765"/>
	<path fill="#D0D2D3" d="M80.435,26.004c-2.968-0.99-6.473-2.087-8.462-3.443c0.688-1.07,1.092-2.318,1.092-3.658
		c0-3.922-3.396-7.102-7.586-7.102c-4.189,0-7.585,3.18-7.585,7.102c0,1.34,0.402,2.588,1.091,3.658
		c-1.987,1.356-5.493,2.453-8.462,3.443c-4.197,1.398-3.658,6.779-3.658,6.779h18.131h0.968h18.131
		C84.094,32.783,84.632,27.402,80.435,26.004z M65.479,22.587c-2.173,0-3.935-1.649-3.935-3.685c0-2.032,1.762-3.684,3.935-3.684
		c2.174,0,3.937,1.651,3.937,3.684C69.415,20.938,67.652,22.587,65.479,22.587z"/>
	<g>
		
			<rect x="63.499" y="22.205" transform="matrix(0.0881 0.9961 -0.9961 0.0881 101.4498 -24.2203)" fill="#929497" width="0.909" height="42.189"/>
	</g>
	<g>
		
			<rect x="64.804" y="31.737" transform="matrix(0.089 0.996 -0.996 0.089 112.0748 -16.8694)" fill="#929497" width="0.911" height="42.19"/>
	</g>
	<g>
		
			<rect x="64.804" y="41.27" transform="matrix(0.0891 0.996 -0.996 0.0891 121.563 -8.1903)" fill="#929497" width="0.91" height="42.19"/>
	</g>
	<g>
		
			<rect x="65.024" y="50.804" transform="matrix(0.089 0.996 -0.996 0.089 131.2657 0.2806)" fill="#929497" width="0.911" height="42.189"/>
	</g>
	<g>
		
			<rect x="66.698" y="60.335" transform="matrix(0.0892 0.996 -0.996 0.0892 142.2695 7.2835)" fill="#929497" width="0.909" height="42.189"/>
	</g>
	<g>
		
			<rect x="67.416" y="69.867" transform="matrix(0.0901 0.9959 -0.9959 0.0901 152.3447 15.1684)" fill="#929497" width="0.91" height="42.191"/>
	</g>
</g>
</svg>
