<?xml version="1.0" encoding="utf-8"?>
<!-- Generator: Adobe Illustrator 16.0.0, SVG Export Plug-In . SVG Version: 6.00 Build 0)  -->
<!DOCTYPE svg PUBLIC "-//W3C//DTD SVG 1.1//EN" "http://www.w3.org/Graphics/SVG/1.1/DTD/svg11.dtd">
<svg version="1.1" id="Layer_1" xmlns="http://www.w3.org/2000/svg" xmlns:xlink="http://www.w3.org/1999/xlink" x="0px" y="0px"
	 width="128px" height="128px" viewBox="0 0 128 128" enable-background="new 0 0 128 128" xml:space="preserve">
<g>
	<circle fill="#CBD8CB" cx="64" cy="64" r="64"/>
	<path fill="#98AF97" d="M90.732,19.548L68.241,56.547l-10.536,6.759l-35.14,19.146L36.4,96.22l-2.733,8.182l-0.633,4.641
		l17.758,17.586C55.055,127.522,59.471,128,64,128c35.346,0,64-28.653,64-64c0-2.733-0.191-5.421-0.523-8.063L90.732,19.548z"/>
	<g>
		<g>
			<path fill="#7E2918" d="M52.686,73.419c19.486-30.854,36.487-55.102,37.973-54.165c1.482,0.937-13.111,26.706-32.598,57.56
				c-0.118,0.188-0.236,0.373-0.355,0.561l-5.373-3.395C52.451,73.792,52.566,73.607,52.686,73.419z"/>
			<path fill="#ABABAB" d="M57.705,77.374c-3.287,5.197-6.502,10.206-9.58,14.934l-5.162-3.26c2.945-4.811,6.086-9.866,9.369-15.068
				L57.705,77.374z"/>
			<path fill="#958E8E" d="M55.194,75.786l2.511,1.588c-3.287,5.197-6.502,10.206-9.58,14.934l-2.407-1.52L55.194,75.786z"/>
			<path fill="#272727" d="M44.854,97.317c-1.703-0.275-2.334,1.136-3.988-0.14c-0.84-0.647-0.448-0.726-0.411-1.71
				c0.037-1.011-0.273-1.275-1.131-1.777c-1.002-0.585-1.011-0.353-1.995-0.059c-0.316,0.097-0.624,0.145-0.928,0.163
				c0.063-0.069,0.124-0.14,0.189-0.208c3.064-3.144,6.373-4.539,6.373-4.539l5.162,3.26c0,0-0.385,2.281-2.117,5.577
				C45.725,97.603,45.344,97.397,44.854,97.317z"/>
			<path fill="#D62526" d="M37.328,93.632c0.984-0.294,0.993-0.526,1.995,0.059c0.857,0.502,1.168,0.767,1.131,1.777
				c-0.037,0.984-0.429,1.063,0.411,1.71c1.654,1.275,2.285-0.136,3.988,0.14c0.49,0.08,0.871,0.285,1.154,0.567
				c-0.261,0.495-0.552,1.013-0.877,1.551c-2.485,4.108-10.068,3.143-12.515,8.917c0,0-1.271-9.111,3.784-14.558
				C36.704,93.776,37.012,93.729,37.328,93.632z"/>
			<path fill="#191818" d="M45.675,90.759l2.45,1.549c0,0-0.385,2.281-2.117,5.577c-0.283-0.282-0.664-0.487-1.154-0.567
				c-1.505-0.244-2.173,0.825-3.448,0.201L45.675,90.759z"/>
			<path fill="#C62127" d="M41.405,97.519c1.275,0.624,1.943-0.445,3.448-0.201c0.49,0.08,0.871,0.285,1.154,0.567
				c-0.261,0.495-0.552,1.013-0.877,1.551c-1.488,2.46-4.807,3.103-7.754,4.462L41.405,97.519z"/>
			<path opacity="0.5" fill="#FFFFFF" d="M89.54,20.617c0,0-2.885,4.097-7.214,10.242c-2.164,3.073-4.646,6.689-7.313,10.558
				c-1.328,1.938-2.7,3.94-4.095,5.975c-1.382,2.043-2.786,4.119-4.19,6.194c-1.392,2.085-2.784,4.167-4.155,6.22
				c-1.363,2.055-2.711,4.074-3.993,6.044c-1.288,1.966-2.537,3.86-3.695,5.679c-0.579,0.908-1.143,1.791-1.688,2.646
				c-0.547,0.854-1.05,1.693-1.546,2.49c-0.995,1.596-1.88,3.076-2.646,4.398c-0.768,1.321-1.464,2.457-1.973,3.43
				c-1.056,1.926-1.64,3.035-1.641,3.035l0.061,0.031c0,0,0.67-1.06,1.812-2.93c0.144-0.233,0.294-0.479,0.452-0.736
				c0.163-0.256,0.334-0.523,0.512-0.802c0.352-0.558,0.731-1.161,1.139-1.809c0.41-0.644,0.833-1.335,1.302-2.053
				c0.463-0.718,0.95-1.477,1.459-2.266c1.008-1.583,2.108-3.295,3.279-5.103c1.158-1.814,2.394-3.717,3.676-5.685
				c1.275-1.972,2.617-3.995,3.972-6.056c1.363-2.054,2.75-4.142,4.135-6.229c2.788-4.162,5.576-8.326,8.19-12.229
				c2.628-3.895,5.083-7.527,7.187-10.642c4.219-6.22,7.031-10.366,7.031-10.366L89.54,20.617z"/>
			<path opacity="0.5" fill="#FFFFFF" d="M36.647,94.679c0,0-3.489,4.166-3.366,10.611c0,0,3.088-7.348,5.162-9.321
				C38.443,95.969,39.2,94.318,36.647,94.679z"/>
		</g>
		<g>
			<path fill="#7E2918" d="M47.554,64.284c33.368-14.762,60.993-25.428,61.704-23.821c0.71,1.603-25.764,14.872-59.131,29.632
				c-0.203,0.091-0.403,0.178-0.605,0.269l-2.573-5.81C47.152,64.464,47.351,64.374,47.554,64.284z"/>
			<path fill="#ABABAB" d="M49.521,70.363c-5.627,2.485-11.085,4.853-16.275,7.063l-2.472-5.582c5.126-2.354,10.55-4.8,16.174-7.291
				L49.521,70.363z"/>
			<path fill="#272727" d="M27.7,79.46c-0.556,0.084-1.282,0.119-1.644-0.423c-0.385-0.573,0.12-1.093,0.576-1.442
				c0.486-0.373,0.57-0.588,0.353-1.234c-0.267-0.797-0.773-0.49-1.38-0.407c-0.489,0.067-0.982-0.192-1.019-0.813
				c-0.028-0.484,0.682-0.865,0.702-1.266c0.007-0.135-0.033-0.262-0.102-0.383l5.584-1.654l2.475,5.59l-3.868,2.288
				C28.999,79.379,28.443,79.349,27.7,79.46z"/>
			<path fill="#1BA0DA" d="M25.188,73.491c0.068,0.121,0.108,0.248,0.102,0.383c-0.021,0.4-0.73,0.781-0.702,1.266
				c0.036,0.621,0.529,0.881,1.019,0.813c0.606-0.083,1.113-0.39,1.38,0.407c0.218,0.646,0.134,0.861-0.353,1.234
				c-0.456,0.35-0.961,0.869-0.576,1.442c0.361,0.542,1.088,0.507,1.644,0.423c0.743-0.111,1.299-0.081,1.678,0.255l-5.289,3.126
				c-0.593,0.34-1.278,0.164-1.523-0.389l-2.744-6.199c-0.244-0.552,0.085-1.177,0.735-1.388L25.188,73.491z"/>
			<path fill="#958E8E" d="M48.318,67.647l1.203,2.716c-5.627,2.485-11.085,4.853-16.275,7.063l-1.151-2.602L48.318,67.647z"/>
			<path fill="#161919" d="M32.095,74.825l1.151,2.602l-3.868,2.288c-0.379-0.336-0.935-0.366-1.678-0.255
				c-0.556,0.084-1.282,0.119-1.644-0.423c-0.385-0.573,0.12-1.093,0.576-1.442c0.258-0.198,0.4-0.354,0.446-0.552L32.095,74.825z"
				/>
			<path fill="#0896BA" d="M27.079,77.043c-0.046,0.198-0.188,0.354-0.446,0.552c-0.456,0.35-0.961,0.869-0.576,1.442
				c0.361,0.542,1.088,0.507,1.644,0.423c0.743-0.111,1.299-0.081,1.678,0.255l-5.289,3.126c-0.593,0.34-1.278,0.164-1.523-0.389
				l-1.263-2.854L27.079,77.043z"/>
			<path opacity="0.5" fill="#FFFFFF" d="M107.599,41.034c0,0-4.679,1.795-11.696,4.485c-3.51,1.346-7.584,2.966-11.953,4.692
				c-2.184,0.869-4.437,1.768-6.729,2.68c-2.286,0.926-4.608,1.869-6.93,2.812c-2.318,0.954-4.635,1.907-6.916,2.846
				c-2.276,0.95-4.521,1.874-6.682,2.794c-2.164,0.916-4.259,1.795-6.232,2.66c-0.986,0.43-1.946,0.85-2.875,1.255
				c-0.929,0.403-1.814,0.822-2.673,1.208c-1.713,0.771-3.273,1.507-4.646,2.178c-1.374,0.67-2.583,1.223-3.549,1.748
				c-1.947,1.012-3.051,1.607-3.051,1.607l0.031,0.061c0,0,1.147-0.51,3.136-1.425c0.25-0.114,0.512-0.235,0.787-0.36
				c0.277-0.121,0.567-0.246,0.87-0.379c0.604-0.269,1.257-0.559,1.954-0.867c0.698-0.307,1.436-0.645,2.225-0.98
				c0.785-0.339,1.611-0.696,2.472-1.07c1.722-0.752,3.588-1.559,5.566-2.409c1.972-0.86,4.06-1.753,6.219-2.673
				c2.157-0.926,4.398-1.857,6.671-2.813c2.276-0.946,4.59-1.907,6.902-2.868c4.635-1.904,9.27-3.81,13.613-5.594
				c4.352-1.768,8.414-3.418,11.896-4.83c6.968-2.816,11.615-4.691,11.615-4.691L107.599,41.034z"/>
		</g>
	</g>
</g>
</svg>
