<?xml version="1.0" encoding="utf-8"?>
<!-- Generator: Adobe Illustrator 16.0.0, SVG Export Plug-In . SVG Version: 6.00 Build 0)  -->
<!DOCTYPE svg PUBLIC "-//W3C//DTD SVG 1.1//EN" "http://www.w3.org/Graphics/SVG/1.1/DTD/svg11.dtd">
<svg version="1.1" id="Layer_1" xmlns="http://www.w3.org/2000/svg" xmlns:xlink="http://www.w3.org/1999/xlink" x="0px" y="0px"
	 width="128px" height="128px" viewBox="0 0 128 128" enable-background="new 0 0 128 128" xml:space="preserve">
<g>
	<circle fill="#E77970" cx="64" cy="64" r="64"/>
	<path fill="#BD453F" d="M105.334,26.446l-2.439,2.277L39.578,77.709L18.406,93.238l-0.732,0.533l33.197,32.875
		C55.109,127.53,59.5,128,64,128c35.348,0,64-28.653,64-64c0-6.083-0.865-11.96-2.451-17.534L105.334,26.446z"/>
	<g>
		<rect x="22.935" y="26.438" fill="#DD9D3B" width="82.132" height="66.801"/>
		<rect x="27.088" y="30.59" fill="#404F23" width="73.824" height="58.493"/>
		<g>
			<rect x="17.462" y="89.083" fill="#DD9D3B" width="10.881" height="4.155"/>
			<rect x="99.656" y="89.083" fill="#DD9D3B" width="10.883" height="4.155"/>
		</g>
		<g>
			<path fill="#F0EFEF" d="M78.166,98.033C72.66,89.426,62.394,83.639,50.64,83.639c-11.752,0-22.017,5.789-27.524,14.395
				c7.265,4.676,16.92,7.529,27.524,7.529S70.902,102.709,78.166,98.033z"/>
			<path fill="#29282D" d="M31.239,62.815c0,0,3.071,12.815,0,15.948c0,0,9.243,4.959,13.92,1.176l-6.961-15.797L31.239,62.815z"/>
			<path fill="#29282D" d="M69.701,62.815c0,0-3.07,12.815,0,15.948c0,0-9.245,4.959-13.92,1.176l6.961-15.797L69.701,62.815z"/>
			<polygon fill="#F0BA7A" points="59.058,87.609 51.21,89.085 42.224,87.609 42.224,75.515 59.058,75.515 			"/>
			<g>
				<g>
					<g>
						<polygon fill="#BCC0BC" points="42.441,82.935 50.642,89.085 46.837,94.601 39.578,85.81 						"/>
					</g>
					<g>
						<polygon fill="#BCC0BC" points="58.841,82.935 50.642,89.085 54.445,94.601 61.705,85.81 						"/>
					</g>
				</g>
			</g>
			<ellipse fill="#FCCCA3" cx="50.641" cy="60.334" rx="16.927" ry="21.238"/>
			<g>
				<g>
					
						<ellipse transform="matrix(0.9642 -0.265 0.265 0.9642 -15.2289 11.2314)" fill="#FCCCA3" cx="34.009" cy="62.054" rx="2.872" ry="6.594"/>
					
						<ellipse transform="matrix(-0.9642 -0.265 0.265 -0.9642 115.7001 139.7182)" fill="#FCCCA3" cx="67.275" cy="62.054" rx="2.872" ry="6.594"/>
				</g>
			</g>
			<path fill="#29282D" d="M56.365,49.263c0,0-7.57,7.049-16.58,5.353c0,0-2.488-0.234-2.502,5.223c0,0-4.104-4.9-5.022-4.14
				c-0.918,0.76-0.309-19.619,17.055-18.575c0,0,6.504,0.263,8.408,3.916C59.628,44.694,56.365,49.263,56.365,49.263z"/>
			<path fill="#29282D" d="M56.365,49.263c0,0,4.469,5.551,7.049,7.049c2.579,1.499,0.953,2.824,1.391,4.022
				c0,0,2.2-5.085,3.549-4.643c0,0-1.57-19.741-10.629-14.652C57.724,41.039,58.052,47.921,56.365,49.263z"/>
			<path fill="#5E5E62" d="M38.429,85.85c-6.453,2.439-11.833,6.746-15.313,12.184c3.876,2.495,8.436,4.465,13.452,5.765
				C34.871,96.092,37.283,88.721,38.429,85.85z"/>
			<path fill="#48474C" d="M39.574,85.438c-0.385,0.129-0.766,0.269-1.145,0.411c-1.146,2.871-3.559,10.242-1.861,17.948
				c3.273,0.849,6.736,1.413,10.34,1.644C40.634,99.193,39.687,89.434,39.574,85.438z"/>
			<g>
				<path fill="#5E5E62" d="M62.853,85.85c6.454,2.439,11.833,6.746,15.313,12.184c-3.875,2.495-8.434,4.465-13.452,5.765
					C66.412,96.092,64,88.721,62.853,85.85z"/>
				<path fill="#48474C" d="M61.708,85.438c0.387,0.129,0.766,0.269,1.145,0.411c1.146,2.871,3.559,10.242,1.861,17.948
					c-3.27,0.849-6.734,1.413-10.34,1.644C60.65,99.193,61.595,89.434,61.708,85.438z"/>
			</g>
		</g>
		<rect x="83.32" y="86.461" fill="#FFFFFF" width="9.008" height="2.624"/>
		<g>
			<path fill="#FFFFFF" d="M75.408,49.137l0.646-1.074c0.082-0.137,0.197-0.319,0.336-0.542c2.748-4.399,3.797-7.089,3.119-7.995
				c-0.391-0.524-1.504-0.347-2.369-0.106c-0.314,0.098-0.59,0.374-0.58,0.589c0.012,0.229-0.164,0.424-0.395,0.436
				c-0.229,0.014-0.424-0.164-0.436-0.394c-0.031-0.6,0.475-1.213,1.178-1.429c1.656-0.46,2.719-0.324,3.268,0.409
				c1.139,1.52-0.68,5.028-2.744,8.386c1.602-0.638,3.285-1.277,4.77-1.807c0.213-0.078,0.453,0.033,0.531,0.252
				c0.078,0.215-0.035,0.453-0.252,0.531c-1.842,0.657-3.996,1.486-5.912,2.268L75.408,49.137z"/>
		</g>
		<g>
			<path fill="#FFFFFF" d="M85.24,62.313c-0.113,0-0.229-0.047-0.311-0.14c-0.613-0.693-0.674-2.005-0.723-3.061
				c-0.01-0.21-0.02-0.406-0.033-0.575c-0.035-0.454-0.049-0.913-0.051-1.374c-0.148,0.158-0.324,0.32-0.531,0.492
				c-1.002,0.842-1.713,1.066-3.053,0.959c-1.688-0.133-1.646-1.011-1.602-1.941c0.008-0.187,0.02-0.394,0.02-0.62v-4.7
				c0-0.229,0.184-0.415,0.416-0.415c0.229,0,0.414,0.187,0.414,0.415v4.7c0,0.239-0.01,0.46-0.02,0.659
				c-0.045,0.93-0.049,1.005,0.838,1.074c1.115,0.088,1.619-0.069,2.453-0.768c0.908-0.764,1.078-1.135,1.109-2.15
				c0.002-0.213,0.006-0.427,0.006-0.635h0.832c0,0.199-0.002,0.389-0.008,0.563c-0.004,0.289-0.01,0.578-0.02,0.862
				c-0.023,0.932-0.049,1.896,0.025,2.811c0.012,0.176,0.023,0.383,0.033,0.605c0.039,0.827,0.098,2.072,0.516,2.546
				c0.152,0.173,0.135,0.436-0.037,0.587C85.436,62.279,85.338,62.313,85.24,62.313z"/>
		</g>
		<g>
			<path fill="#FFFFFF" d="M87.74,56.77c-0.217,0-0.4-0.17-0.412-0.389c-0.014-0.229,0.16-0.428,0.389-0.44
				c0.633-0.037,1.279-0.282,1.961-0.542c0.578-0.219,1.174-0.445,1.785-0.547c0.707-0.114,1.424-0.111,2.117-0.109h0.357
				c0.23,0,0.414,0.188,0.414,0.416c0,0.23-0.184,0.416-0.414,0.416h-0.361c-0.689-0.008-1.34-0.008-1.977,0.098
				c-0.529,0.088-1.061,0.291-1.625,0.504c-0.711,0.27-1.447,0.549-2.209,0.594C87.758,56.77,87.75,56.77,87.74,56.77z"/>
		</g>
		<g>
			<path fill="#FFFFFF" d="M90.895,59.27c-0.227,0-0.412-0.181-0.416-0.407c-0.01-0.382-0.178-0.775-0.359-1.193
				c-0.154-0.353-0.313-0.718-0.395-1.12c-0.186-0.897-0.16-1.879-0.133-2.826c0.01-0.322,0.018-0.643,0.018-0.955
				c0-0.229,0.186-0.416,0.416-0.416c0.229,0,0.412,0.187,0.412,0.416c0,0.319-0.008,0.646-0.018,0.977
				c-0.023,0.9-0.049,1.834,0.119,2.637c0.064,0.316,0.199,0.629,0.342,0.957c0.205,0.473,0.418,0.963,0.428,1.509
				c0.006,0.229-0.178,0.418-0.406,0.423C90.898,59.27,90.896,59.27,90.895,59.27z"/>
		</g>
		<g>
			<path fill="#FFFFFF" d="M75.664,67.215c-0.115,0-0.229-0.004-0.342-0.011c-0.23-0.016-0.402-0.214-0.387-0.442
				s0.215-0.402,0.441-0.387c1.346,0.094,2.873-0.467,4.352-1.004c0.635-0.231,1.232-0.449,1.803-0.609
				c4.381-1.24,9.605-2.506,15.123-2.518l0,0c0.229,0,0.414,0.185,0.414,0.414c0.004,0.229-0.184,0.415-0.412,0.417
				c-5.404,0.011-10.354,1.2-14.896,2.487c-0.543,0.15-1.127,0.363-1.748,0.588C78.637,66.653,77.088,67.215,75.664,67.215z"/>
		</g>
		<g>
			<path fill="#FFFFFF" d="M85.48,75.426c-0.617,0-1.086-0.147-1.443-0.453c-0.5-0.427-0.734-1.127-0.732-2.205
				c0-0.537,0.031-1.055,0.098-1.553c-0.119-0.029-0.223-0.111-0.277-0.23c-0.096-0.209-0.004-0.456,0.205-0.552
				c0.066-0.029,0.143-0.058,0.221-0.085c0.396-1.837,1.268-3.386,2.604-4.623c0.168-0.156,0.432-0.146,0.586,0.021
				c0.158,0.169,0.146,0.432-0.021,0.587c-1.141,1.058-1.896,2.329-2.283,3.849c1.281-0.113,2.973,0.2,3.488,1.176
				c0.426,0.805,0.424,1.877-0.004,2.732c-0.344,0.693-0.93,1.154-1.605,1.26C86.01,75.401,85.732,75.426,85.48,75.426z
				 M84.266,71.023c-0.086,0.552-0.129,1.134-0.131,1.744c0,0.805,0.145,1.318,0.441,1.572c0.299,0.255,0.824,0.317,1.605,0.19
				c0.559-0.089,0.863-0.546,0.994-0.812c0.307-0.613,0.313-1.406,0.014-1.973C86.867,71.137,85.326,70.861,84.266,71.023z"/>
		</g>
	</g>
</g>
</svg>
