<?xml version="1.0" encoding="utf-8"?>
<!-- Generator: Adobe Illustrator 16.0.0, SVG Export Plug-In . SVG Version: 6.00 Build 0)  -->
<!DOCTYPE svg PUBLIC "-//W3C//DTD SVG 1.1//EN" "http://www.w3.org/Graphics/SVG/1.1/DTD/svg11.dtd">
<svg version="1.1" id="Layer_1" xmlns="http://www.w3.org/2000/svg" xmlns:xlink="http://www.w3.org/1999/xlink" x="0px" y="0px"
	 width="128px" height="128px" viewBox="0 0 128 128" enable-background="new 0 0 128 128" xml:space="preserve">
<g>
	<circle fill="#BBBDBF" cx="64" cy="64" r="64"/>
	<path fill="#8D95A3" d="M104.309,33.915l-3.033,5.757L21.31,86.046l-4.795,3.348l38.313,37.942C57.824,127.766,60.884,128,64,128
		c35.346,0,64-28.653,64-64c0-2.369-0.139-4.706-0.389-7.009L104.309,33.915z"/>
	<g>
		<polyline fill="#DAA887" points="111.967,73.789 104,71.135 104,73.789 111.967,74.219 		"/>
		<g>
			<g>
				<polygon fill="#A21E22" points="71.305,22.631 71.305,26.133 72.881,24.1 100.924,34.586 102.271,33.73 				"/>
				<path fill="#F4ECBA" d="M72.201,23.916c0,0-0.055,2.584-11.308,1.762l26.667,10.844c0,0,11.824-0.645,13.715-1.936
					L72.201,23.916z"/>
				<polygon fill="#A21E22" points="87.143,94.816 58.526,82.773 58.526,25.172 87.143,37.217 				"/>
				<path fill="#C32026" d="M104.338,33.73c0,0-3.848,3.447-17.195,3.486v57.262l17.195-5.369V33.73z"/>
				<path fill="#CE2B37" d="M58.526,25.172h2.279l26.337,10.752c0,0,9.686,0.475,14.432-2.193l-30.27-11.1l2.234-0.279
					l30.799,11.379c0,0-3.871,3.719-17.195,3.486L58.526,25.172z"/>
			</g>
			<g>
				<polygon fill="#197C9E" points="52.58,17.109 52.58,20.611 54.156,18.578 82.197,29.066 83.545,28.211 				"/>
				<path fill="#F4ECBA" d="M53.476,18.395c0,0-0.055,2.584-11.309,1.764L68.834,31c0,0,11.826-0.645,13.715-1.934L53.476,18.395z"
					/>
				<polygon fill="#197C9E" points="68.416,89.297 39.8,77.252 39.8,19.653 68.416,31.697 				"/>
				<path fill="#2389BD" d="M85.613,28.211c0,0-3.85,3.447-17.197,3.486v57.262l17.197-5.371V28.211z"/>
				<path fill="#3EA8D7" d="M39.8,19.653h2.28l26.335,10.75c0,0,9.686,0.474,14.434-2.192L52.58,17.109l2.233-0.279l30.8,11.381
					c0,0-3.871,3.719-17.197,3.486L39.8,19.653z"/>
			</g>
			<g>
				<polygon fill="#23553E" points="34.089,27.715 34.089,31.217 35.667,29.186 63.708,39.672 65.055,38.816 				"/>
				<path fill="#F4ECBA" d="M35.166,28.596c0,0-0.234,2.988-11.487,2.168l26.667,10.842c0,0,11.824-0.645,13.714-1.934
					L35.166,28.596z"/>
				<polygon fill="#24382F" points="49.927,101.623 21.31,82.123 21.31,30.258 49.927,42.301 				"/>
				<path fill="#23553E" d="M67.123,38.816c0,0-3.849,3.447-17.196,3.484v57.264l17.196-5.371V38.816z"/>
				<path fill="#267F55" d="M21.31,30.258h2.279l26.338,10.75c0,0,9.685,0.475,14.433-2.191L34.089,27.715l2.234-0.277
					l30.799,11.379c0,0-3.871,3.719-17.196,3.484L21.31,30.258z"/>
			</g>
		</g>
		<polygon fill="#DAA887" points="21.31,68.494 48.996,86.028 48.996,91.223 16.034,71.528 16.034,67.737 		"/>
		<polygon fill="#8A5325" points="16.034,67.737 48.996,88.43 48.996,111.17 16.034,88.607 		"/>
		<polygon fill="#DAA887" points="111.967,73.789 105.039,73.789 92.455,77.252 90.377,81.525 68.635,86.434 68.018,84.275 
			64.17,83.256 48.996,86.028 48.996,90.184 55.282,98.264 77.332,96.186 100.998,86.721 		"/>
		<polygon fill="#A26A3D" points="111.967,74.219 111.967,94.334 48.996,111.17 48.996,88.43 68.018,84.275 69.33,88.867 
			93.578,83.172 96.006,78.154 		"/>
		<path fill="#683313" d="M83.986,91.209c-1.33,1.541-1.404,3.656-0.168,4.723c1.24,1.066,3.32,0.682,4.648-0.861
			c1.33-1.541,1.404-3.656,0.166-4.723S85.314,89.666,83.986,91.209z"/>
	</g>
</g>
</svg>
