<?xml version="1.0" encoding="utf-8"?>
<!-- Generator: Adobe Illustrator 16.0.0, SVG Export Plug-In . SVG Version: 6.00 Build 0)  -->
<!DOCTYPE svg PUBLIC "-//W3C//DTD SVG 1.1//EN" "http://www.w3.org/Graphics/SVG/1.1/DTD/svg11.dtd">
<svg version="1.1" id="Layer_1" xmlns="http://www.w3.org/2000/svg" xmlns:xlink="http://www.w3.org/1999/xlink" x="0px" y="0px"
	 width="128px" height="128px" viewBox="0 0 128 128" enable-background="new 0 0 128 128" xml:space="preserve">
<g>
	<circle fill="#318E7E" cx="64" cy="64" r="64"/>
	<path fill="#28806E" d="M109.759,51.206l-1.981,2.477L94.722,49.33L76.443,29.602L63.388,41.207l-2.901,37.717l-28.144,20.89
		l-1.581,2.898l24.981,24.74C58.448,127.801,61.2,128,64,128c33.644,0,61.202-25.964,63.782-58.944L109.759,51.206z"/>
	<g>
		<path fill="#D7DADA" d="M52.742,18.086c-17.483,0-31.658,14.178-31.658,31.66c0,17.489,14.175,31.663,31.658,31.663
			c17.487,0,31.664-14.174,31.664-31.663C84.406,32.264,70.229,18.086,52.742,18.086z M52.742,53.437
			c-2.03,0-3.683-1.648-3.683-3.688c0-2.034,1.652-3.688,3.683-3.688c2.038,0,3.692,1.653,3.692,3.688
			C56.435,51.788,54.78,53.437,52.742,53.437z"/>
		<path fill="#82898B" d="M52.742,40.442c-5.135,0-9.306,4.165-9.306,9.304c0,5.142,4.171,9.311,9.306,9.311
			c5.142,0,9.313-4.169,9.313-9.311C62.055,44.607,57.884,40.442,52.742,40.442z M52.742,53.437c-2.03,0-3.683-1.648-3.683-3.688
			c0-2.034,1.652-3.688,3.683-3.688c2.038,0,3.692,1.653,3.692,3.688C56.435,51.788,54.78,53.437,52.742,53.437z"/>
		<path fill="#AEB4AD" d="M52.8,20.561l-0.393,18.735c0,0,5.107-0.13,9.303,5.111l16.511-9.037
			C78.221,35.37,70.229,20.298,52.8,20.561z"/>
		<path fill="#AEB4AD" d="M48.946,79.2l2.529-18.572c0,0-5.092-0.449-8.66-6.136L25.38,61.587
			C25.38,61.587,31.598,77.472,48.946,79.2z"/>
		<g>
			<path fill="#BD9038" d="M101.128,68.261c0,0,5.155,7.409,14.28,9.111c0,0-48.991,13.771-64.454,27.237l0.109-6.753l19.33-17.355
				L101.128,68.261z"/>
			
				<ellipse transform="matrix(0.5397 0.8419 -0.8419 0.5397 96.6949 8.1144)" fill="#C8A660" cx="40.927" cy="92.479" rx="15.136" ry="14.291"/>
			<path fill="#BD9038" d="M53.86,83.302L36.329,90.07c0,0,5.352,0.372,6.216,6.288c0.943,6.463-4.165,9.787-10.309,7.619
				c0,0,4.757,5.045,13.681,2.801c8.926-2.242,9.315-8.5,9.315-8.5l1.014-5.998L53.86,83.302z"/>
			<path fill="#B92025" d="M81.67,88.656c0,0,4.015,6.709,2.469,14.541l-3.458-4.179l-2.754,2.945c0,0,0.331-11.652-3.84-17.156
				L81.67,88.656z"/>
			<path fill="#E31E25" d="M82.455,81.556c0,0,13.334,9.35,24.739,7.896c0,0-4.379,2.633-6.8,2.604c0,0,2.571,3.839,5.645,4.51
				c0,0-20.532,0.568-31.06-11.555L82.455,81.556z"/>
			<path fill="#E1CAA3" d="M95.189,47.409c0,0,20.308-3.732,18.429,19.204c0,0-45.632,17.358-60.5,36.538
				c0,0,4.218-6.238-0.709-15.768c-1.946-3.757-5.633-8.311-11.776-9.123c-2.098-0.275-3.796-0.256-4.467-0.09
				c0,0,0.053,0.08,4.461-1.24C53.96,72.946,82.368,62.989,95.189,47.409z"/>
			<path fill="#E31E25" d="M64.22,68.076c0,0,14.816-0.069,13.311,16.187l7.216-4.055c0,0,0.635-13.851-12.126-16.123L64.22,68.076z
				"/>
		</g>
	</g>
</g>
</svg>
