<?xml version="1.0" encoding="utf-8"?>
<!-- Generator: Adobe Illustrator 16.0.0, SVG Export Plug-In . SVG Version: 6.00 Build 0)  -->
<!DOCTYPE svg PUBLIC "-//W3C//DTD SVG 1.1//EN" "http://www.w3.org/Graphics/SVG/1.1/DTD/svg11.dtd">
<svg version="1.1" id="Layer_1" xmlns="http://www.w3.org/2000/svg" xmlns:xlink="http://www.w3.org/1999/xlink" x="0px" y="0px"
	 width="128px" height="128px" viewBox="0 0 128 128" enable-background="new 0 0 128 128" xml:space="preserve">
<g>
	<circle fill="#EECE7B" cx="64" cy="64" r="64"/>
	<path fill="#D7B353" d="M104.582,32.017l-1.48,1.183l-83.106,55.04l-2.385,2.623l36.772,36.416C57.519,127.752,60.73,128,64,128
		c35.346,0,64-28.653,64-64c0-3.225-0.244-6.392-0.705-9.489L104.582,32.017z"/>
	<g>
		<polygon fill="#7B3A1A" points="63.212,95.685 17.619,90.815 17.619,35.989 63.212,40.86 		"/>
		<polygon fill="#7B3A1A" points="63.496,95.685 109.092,90.815 109.092,35.989 63.496,40.86 		"/>
		<path fill="#CCD6D6" d="M63.212,91.192c-12.547-7.689-28.348-11.063-40.896-3.373c0-18.616,0-37.234,0-55.85
			c12.548-7.69,28.349-4.316,40.896,3.373C63.212,53.958,63.212,72.575,63.212,91.192z"/>
		<path fill="#E3E7E7" d="M63.212,91.192c12.549-7.689,28.352-11.063,40.899-3.373c0-18.616,0-37.234,0-55.85
			c-12.547-7.69-28.35-4.316-40.899,3.373C63.212,53.958,63.212,72.575,63.212,91.192z"/>
		<path fill="#233640" d="M100.85,99.843c7.496-2.313,11.391-11.459,8.654-20.324l-2.529-8.203
			c-4.447-0.807-9.514-0.53-14.605,1.039c-5.09,1.57-9.434,4.197-12.652,7.369l2.531,8.203
			C84.984,96.794,93.355,102.155,100.85,99.843z"/>
		<path fill="#0C181C" d="M92.709,67.847c0.273,0.887-0.213,1.832-1.082,2.1s-1.805-0.238-2.078-1.125l-0.896-2.91
			c-0.275-0.889,0.213-1.832,1.082-2.1c0.869-0.27,1.805,0.236,2.076,1.125L92.709,67.847z"/>
		<path fill="#334E5C" d="M91.627,69.946c-0.869,0.268-1.805-0.238-2.078-1.125l-0.896-2.91c-0.275-0.889,0.213-1.832,1.082-2.1
			c0-0.002,0-0.002,0-0.002l-2.301-7.455c-7.494,2.313-11.389,11.458-8.654,20.324l0.938,3.045
			c3.219-3.172,7.563-5.799,12.652-7.369c0.002,0,0.002,0,0.002,0L91.627,69.946L91.627,69.946z"/>
		<path fill="#2C4451" d="M87.434,56.354l2.301,7.455c0.869-0.267,1.805,0.238,2.076,1.127l0.898,2.91
			c0.273,0.887-0.213,1.83-1.082,2.1l0.744,2.408c5.09-1.57,10.156-1.846,14.604-1.039l-0.939-3.045
			C103.301,59.403,94.93,54.041,87.434,56.354z"/>
		<g>
			<path fill="#233640" d="M85.9,56.749c-0.666-2.025-0.59-3.855,0.227-5.437c1.518-2.942,5.238-4.407,8.307-5.354
				c2.781-0.857,5.381-1.806,6.607-3.963c0.365-0.641,0.459-1.168,0.285-1.615c-0.477-1.223-2.848-1.982-4.416-2.484l-0.186-0.061
				l0.516-1.607l0.186,0.061c1.986,0.637,4.705,1.508,5.473,3.48c0.365,0.938,0.234,1.966-0.391,3.061
				c-1.533,2.693-4.582,3.818-7.576,4.74c-2.539,0.785-6.061,2.105-7.305,4.517c-0.611,1.182-0.652,2.532-0.123,4.134L85.9,56.749z"
				/>
		</g>
	</g>
</g>
</svg>
