<?xml version="1.0" encoding="utf-8"?>
<!-- Generator: Adobe Illustrator 16.0.0, SVG Export Plug-In . SVG Version: 6.00 Build 0)  -->
<!DOCTYPE svg PUBLIC "-//W3C//DTD SVG 1.1//EN" "http://www.w3.org/Graphics/SVG/1.1/DTD/svg11.dtd">
<svg version="1.1" id="Layer_1" xmlns="http://www.w3.org/2000/svg" xmlns:xlink="http://www.w3.org/1999/xlink" x="0px" y="0px"
	 width="128px" height="128px" viewBox="0 0 128 128" enable-background="new 0 0 128 128" xml:space="preserve">
<g>
	<circle fill="#51B9A6" cx="64" cy="64" r="64"/>
	<path fill="#46998A" d="M86.561,24.286L30.393,72.974l28.244,27.01l-1.643,0.446l-1.883,1.21l16.252,16.096l0,0l0.034,0.033
		l7.396,7.325c0,0,0.004,0.017,0.005,0.026l0.917,0.91c0.031-0.004,0.057,0.002,0.09-0.007c27.299-6.935,47.58-31.413,48.162-60.731
		L86.561,24.286z"/>
	<rect x="55.479" y="72.974" fill="#AEB4AD" width="6.316" height="28.826"/>
	<rect x="30.393" y="24.027" fill="#EECE7B" width="56.488" height="48.946"/>
	<path fill="#E6E7E8" d="M49.308,70.37c0.003,0.006,0.025,0.039,0.062,0.099c0.634,2.585,1.018,5.517,0.896,8.718
		c0.392,0.118,0.785,0.232,1.183,0.336c0.014-0.037,0.024-0.07,0.038-0.109c0.02,0.044,0.038,0.088,0.057,0.133
		c0.242,0.062,0.486,0.123,0.73,0.178c-0.148-0.384-0.322-0.758-0.498-1.099c0.27-0.712,0.576-1.476,0.911-2.27
		c0.421,0.828,0.817,1.663,1.153,2.45c-0.13,0.389-0.252,0.778-0.365,1.163c0.2,0.03,0.404,0.063,0.606,0.087
		c0.037-0.123,0.072-0.25,0.111-0.375c0.053,0.139,0.102,0.277,0.149,0.41c0.22,0.026,0.438,0.047,0.658,0.07
		c-0.142-0.436-0.314-0.896-0.515-1.383c0.357-1.051,0.771-2.108,1.221-3.16c0.396,0.821,0.755,1.637,1.069,2.438
		c-0.283,0.733-0.533,1.469-0.755,2.197c0.205,0.016,0.41,0.029,0.614,0.041c0.142-0.458,0.295-0.917,0.462-1.379
		c0.169,0.482,0.315,0.955,0.444,1.42c0.211,0.006,0.423,0.013,0.635,0.016c-0.201-0.75-0.453-1.52-0.752-2.305
		c0.355-0.906,0.753-1.811,1.179-2.707c0.427,0.896,0.824,1.801,1.179,2.707c-0.299,0.783-0.549,1.553-0.749,2.303
		c0.21-0.004,0.421-0.004,0.631-0.01c0.13-0.465,0.275-0.939,0.447-1.421c0.165,0.46,0.316,0.92,0.456,1.379
		c0.207-0.013,0.412-0.019,0.619-0.034c-0.223-0.733-0.471-1.47-0.755-2.207c0.314-0.801,0.673-1.616,1.068-2.438
		c0.45,1.052,0.864,2.109,1.222,3.16c-0.201,0.486-0.377,0.953-0.52,1.389c0.13-0.014,0.259-0.021,0.389-0.037
		c0.095-0.011,0.182-0.021,0.272-0.029c0.046-0.139,0.097-0.277,0.151-0.42c0.041,0.131,0.077,0.259,0.115,0.388
		c0.209-0.023,0.41-0.046,0.604-0.069c-0.114-0.396-0.235-0.793-0.368-1.193c0.336-0.787,0.734-1.622,1.154-2.45
		c0.336,0.794,0.644,1.556,0.912,2.27c-0.194,0.376-0.381,0.788-0.537,1.211c0.222-0.038,0.452-0.079,0.7-0.128
		c0.042-0.099,0.081-0.197,0.126-0.293c0.029,0.084,0.057,0.166,0.085,0.25c0.067-0.016,0.13-0.028,0.2-0.043
		c0.131-0.028,0.265-0.057,0.396-0.087c-0.096-0.281-0.197-0.569-0.308-0.869c0.099-0.18,0.194-0.348,0.285-0.501
		c0.003,0.45,0.014,0.905,0.034,1.366c0.204-0.046,0.407-0.097,0.607-0.153c-0.535-12.215,6.32-20.592,6.392-20.678l-0.463-0.389
		c-0.015,0.018-0.284,0.346-0.706,0.951l-0.371-0.313c-0.139,0.164-1.227,1.463-2.724,3.439c-0.279-0.784-0.561-1.529-0.755-2.038
		c0.205-0.249,0.33-0.394,0.341-0.405l-0.458-0.395c-0.007,0.006-0.052,0.06-0.133,0.156c0-0.002-0.005-0.012-0.005-0.012
		l-0.563,0.224c0.002,0.007,0.05,0.125,0.126,0.321c-0.416,0.508-1.033,1.279-1.779,2.259c-0.639-1.452-1.165-2.489-1.213-2.583
		l-0.501,0.255l-0.208-0.151c-0.023,0.031-0.723,0.988-1.763,2.556c-0.715-1.493-1.214-2.485-1.229-2.515l-0.512,0.258l-0.491-0.266
		c-0.082,0.152-0.62,1.148-1.404,2.647c-0.784-1.499-1.321-2.495-1.403-2.647l-0.491,0.266l-0.512-0.258
		c-0.017,0.029-0.515,1.021-1.229,2.515c-1.041-1.567-1.739-2.524-1.764-2.556l-0.208,0.151l-0.5-0.255
		c-0.049,0.094-0.575,1.131-1.214,2.583c-0.746-0.979-1.362-1.751-1.777-2.259c0.074-0.196,0.123-0.314,0.124-0.321l-0.562-0.224
		c0,0-0.004,0.01-0.005,0.012c-0.079-0.097-0.126-0.15-0.134-0.156l-0.457,0.395c0.01,0.012,0.135,0.156,0.34,0.405
		c-0.194,0.509-0.476,1.254-0.755,2.038c-1.497-1.977-2.583-3.275-2.722-3.439l-0.33,0.277c-0.407-0.582-0.667-0.898-0.681-0.916
		L43.859,58.7c0.053,0.061,3.703,4.518,5.48,11.65L49.308,70.37z M49.928,70.224c-0.088-0.355-0.18-0.703-0.277-1.046
		c0.154-0.812,0.398-1.69,0.689-2.57c0.55,0.797,1.11,1.637,1.666,2.501c-0.393,0.936-0.768,1.861-1.1,2.744
		C50.454,71.081,50.099,70.501,49.928,70.224z M50.493,72.993c-0.05-0.309-0.104-0.614-0.161-0.917
		c0.097,0.164,0.197,0.337,0.302,0.517C50.585,72.729,50.539,72.86,50.493,72.993z M50.864,79.354
		c0.015-0.361,0.025-0.721,0.03-1.074c0.069,0.121,0.144,0.25,0.217,0.386C51.024,78.901,50.941,79.132,50.864,79.354z
		 M51.391,77.929c-0.213-0.363-0.397-0.646-0.508-0.811c-0.027-0.944-0.1-1.861-0.202-2.75c0.104-0.342,0.222-0.705,0.351-1.081
		c0.41,0.724,0.856,1.532,1.293,2.366C51.985,76.442,51.67,77.206,51.391,77.929z M52.635,74.938
		c-0.461-0.866-0.922-1.689-1.335-2.407c0.325-0.89,0.7-1.84,1.103-2.799c0.505,0.801,1.002,1.623,1.48,2.453
		C53.449,73.112,53.03,74.039,52.635,74.938z M52.695,69.03c0.314-0.737,0.637-1.474,0.957-2.19c0.53,0.779,1.068,1.604,1.606,2.464
		c-0.352,0.723-0.706,1.459-1.054,2.196C53.715,70.661,53.208,69.835,52.695,69.03z M54.132,77.962
		c-0.344-0.767-0.733-1.559-1.134-2.334c0.393-0.906,0.816-1.846,1.256-2.791c0.385,0.688,0.754,1.379,1.102,2.068
		C54.91,75.921,54.499,76.944,54.132,77.962z M55.68,74.185c-0.35-0.682-0.72-1.363-1.104-2.039c0.351-0.744,0.707-1.49,1.063-2.227
		c0.39,0.637,0.774,1.288,1.151,1.954C56.408,72.632,56.037,73.404,55.68,74.185z M55.954,69.276
		c0.375-0.766,0.747-1.515,1.108-2.233c0.392,0.659,0.791,1.349,1.195,2.067c-0.383,0.688-0.765,1.394-1.139,2.119
		C56.736,70.563,56.346,69.911,55.954,69.276z M57.102,77.233c-0.32-0.778-0.683-1.567-1.072-2.355
		c0.355-0.799,0.731-1.591,1.117-2.368c0.389,0.702,0.763,1.417,1.12,2.14C57.85,75.503,57.459,76.367,57.102,77.233z
		 M57.476,71.859c0.371-0.727,0.749-1.438,1.127-2.128c0.38,0.689,0.757,1.401,1.128,2.128c-0.388,0.69-0.766,1.396-1.128,2.11
		C58.241,73.255,57.863,72.55,57.476,71.859z M58.948,69.11c0.403-0.719,0.803-1.408,1.195-2.067
		c0.36,0.719,0.733,1.468,1.109,2.233c-0.394,0.635-0.784,1.287-1.167,1.953C59.712,70.505,59.33,69.798,58.948,69.11z
		 M60.102,77.233c-0.354-0.866-0.745-1.73-1.162-2.584c0.357-0.723,0.733-1.438,1.119-2.14c0.387,0.777,0.762,1.568,1.118,2.366
		C60.786,75.666,60.425,76.455,60.102,77.233z M60.414,71.873c0.379-0.666,0.763-1.317,1.151-1.954
		c0.357,0.736,0.714,1.482,1.063,2.227c-0.383,0.676-0.752,1.357-1.104,2.039C61.168,73.404,60.798,72.632,60.414,71.873z
		 M61.946,69.304c0.538-0.859,1.076-1.685,1.605-2.464c0.322,0.717,0.645,1.453,0.958,2.19c-0.512,0.805-1.019,1.631-1.508,2.47
		C62.654,70.763,62.3,70.026,61.946,69.304z M63.073,77.962c-0.365-1.018-0.776-2.041-1.224-3.057
		c0.349-0.689,0.718-1.381,1.103-2.068c0.438,0.945,0.862,1.885,1.255,2.791C63.808,76.403,63.418,77.195,63.073,77.962z
		 M63.323,72.185c0.478-0.83,0.976-1.652,1.481-2.453c0.4,0.959,0.776,1.909,1.101,2.799c-0.412,0.718-0.873,1.541-1.335,2.407
		C64.178,74.039,63.757,73.112,63.323,72.185z M66.396,77.013c-0.087,0.123-0.313,0.457-0.582,0.916
		c-0.28-0.723-0.594-1.486-0.933-2.275c0.437-0.834,0.882-1.643,1.292-2.366c0.133,0.386,0.255,0.761,0.361,1.111l0.056-0.017
		C66.493,75.233,66.425,76.11,66.396,77.013z M66.76,73.128c-0.061-0.174-0.124-0.354-0.188-0.535
		c0.141-0.242,0.274-0.473,0.399-0.684C66.893,72.31,66.823,72.715,66.76,73.128z M67.388,70.05l-0.002-0.002
		c-0.056,0.092-0.487,0.785-1.087,1.805c-0.331-0.881-0.707-1.809-1.1-2.744c0.556-0.864,1.117-1.704,1.667-2.501
		c0.293,0.89,0.542,1.78,0.695,2.599l0.056-0.01C67.538,69.478,67.462,69.763,67.388,70.05z M71.58,60.265
		c-0.57,0.902-1.259,2.096-1.947,3.551c-0.075-0.234-0.155-0.479-0.239-0.725C70.289,61.894,71.055,60.919,71.58,60.265z
		 M69.25,64.634l0.01-0.002c-0.465,1.051-0.916,2.219-1.32,3.49c-0.175-0.699-0.397-1.422-0.642-2.137
		c0.575-0.822,1.133-1.596,1.656-2.303C69.064,64.017,69.166,64.341,69.25,64.634z M67.953,60.892c0.217,0.57,0.496,1.323,0.76,2.08
		c-0.523,0.7-1.086,1.47-1.67,2.295c-0.272-0.744-0.563-1.467-0.844-2.128C66.906,62.2,67.511,61.437,67.953,60.892z M66.616,65.876
		c-0.563,0.807-1.14,1.658-1.711,2.541c-0.315-0.73-0.637-1.459-0.953-2.163c0.641-0.931,1.257-1.787,1.823-2.55
		C66.06,64.389,66.35,65.124,66.616,65.876z M64.355,60.562c0.234,0.479,0.668,1.387,1.146,2.498
		c-0.566,0.758-1.189,1.615-1.841,2.554c-0.394-0.86-0.773-1.675-1.118-2.4C63.424,61.878,64.088,60.937,64.355,60.562z
		 M63.261,66.192c-0.532,0.781-1.079,1.609-1.626,2.475c-0.38-0.771-0.756-1.525-1.119-2.244c0.582-0.962,1.138-1.842,1.641-2.615
		C62.5,64.538,62.877,65.345,63.261,66.192z M60.505,60.404c0.132,0.263,0.652,1.305,1.347,2.763
		c-0.502,0.766-1.064,1.65-1.656,2.621c-0.448-0.881-0.87-1.701-1.25-2.43C59.771,61.772,60.362,60.671,60.505,60.404z
		 M59.822,66.404c-0.398,0.661-0.809,1.362-1.22,2.089c-0.411-0.727-0.82-1.428-1.218-2.089c0.434-0.856,0.844-1.66,1.218-2.384
		C58.977,64.744,59.39,65.548,59.822,66.404z M56.7,60.404c0.143,0.267,0.734,1.368,1.56,2.954c-0.379,0.729-0.801,1.549-1.248,2.43
		c-0.594-0.971-1.155-1.855-1.657-2.621C56.05,61.709,56.568,60.667,56.7,60.404z M55.052,63.808c0.5,0.773,1.057,1.653,1.64,2.615
		c-0.364,0.719-0.74,1.471-1.12,2.244c-0.547-0.865-1.093-1.693-1.626-2.475C54.33,65.345,54.705,64.538,55.052,63.808z
		 M52.85,60.562c0.27,0.375,0.934,1.316,1.813,2.651c-0.344,0.726-0.725,1.54-1.117,2.4c-0.652-0.938-1.275-1.796-1.842-2.554
		C52.182,61.948,52.615,61.041,52.85,60.562z M51.43,63.704c0.565,0.763,1.183,1.619,1.824,2.55
		c-0.316,0.704-0.639,1.433-0.952,2.163c-0.573-0.883-1.149-1.734-1.712-2.541C50.855,65.124,51.146,64.389,51.43,63.704z
		 M49.253,60.892c0.442,0.545,1.046,1.309,1.754,2.247c-0.281,0.661-0.571,1.384-0.844,2.128c-0.583-0.825-1.146-1.595-1.669-2.295
		C48.756,62.215,49.037,61.462,49.253,60.892z M47.6,63.733c-0.582-1.223-1.162-2.257-1.669-3.088
		c0.498,0.63,1.146,1.461,1.882,2.445C47.737,63.308,47.666,63.524,47.6,63.733z M49.296,68c-0.405-1.255-0.855-2.405-1.317-3.444
		c0.079-0.272,0.173-0.568,0.273-0.873c0.523,0.707,1.081,1.48,1.656,2.303C49.676,66.659,49.467,67.339,49.296,68z"/>
	<g>
		<path fill="#FFFFFF" d="M72.092,54.491h-26.91V34.508h26.91V54.491z M46.693,52.978h23.886V36.021H46.693V52.978z"/>
	</g>
	<g>
		<path fill="#9A4922" d="M58.637,60.803c-3.907,0-7.586-0.177-10.354-0.5c-4.427-0.514-4.796-1.169-4.796-1.798
			c0-0.627,0.369-1.283,4.796-1.797c2.769-0.324,6.447-0.5,10.354-0.5c3.908,0,7.586,0.176,10.354,0.5
			c4.425,0.514,4.795,1.17,4.795,1.797c0,0.629-0.37,1.284-4.795,1.798C66.223,60.626,62.545,60.803,58.637,60.803z M45.096,58.505
			c1.556,0.514,6.412,1.09,13.541,1.09c7.128,0,11.984-0.576,13.539-1.09c-1.555-0.513-6.411-1.089-13.539-1.089
			C51.508,57.416,46.651,57.992,45.096,58.505z"/>
	</g>
	<circle fill="#E1574C" cx="81.618" cy="94.835" r="15.991"/>
	<path fill="#0E1B23" d="M91.159,102.939c-1.657,5.67-4.478,7.031-5.281,7.308c1.148-0.316,2.244-0.754,3.274-1.306
		c0.98-1.09,2.051-2.914,2.919-5.972c1.657,0.148,2.276,0.463,2.7,0.955c0.173-0.25,0.342-0.506,0.502-0.766
		c-0.635-0.783-1.357-0.912-2.969-1.057c0.254-1.008,0.486-2.133,0.689-3.395c0.798-0.177,2.998-0.676,4.376-1.141
		c0.058-0.328,0.106-0.659,0.142-0.994c-1.194,0.416-3.403,0.976-4.384,1.195c0.146-1.211,0.168-2.376,0.092-3.484
		c1.972-1.018,2.907-3.326,3.085-3.811c0.109-0.162,0.277-0.47,0.365-1.039c-0.224-0.627-0.488-1.236-0.787-1.822
		c0.13,1.366-0.268,2.145-0.306,2.314l-0.026,0.014l-0.057,0.165c-0.008,0.025-0.749,2.159-2.366,3.206
		c-0.478-3.935-2.146-7.127-3.705-9.344c-1.654-2.35-3.401-3.961-4.34-4.741c-0.625-0.14-1.263-0.243-1.912-0.306
		c0.365,0.253,0.905,0.631,1.036,0.737c1.454,1.167,7.265,6.283,8.076,14.06c-0.072,0.023-0.147,0.045-0.223,0.063
		c-1.596,0.396-3.463-0.406-5.553-2.386c-5.676-5.377-13.063-7.658-15.704-8.337c-0.257,0.233-0.501,0.478-0.739,0.729
		c1.898,0.446,9.85,2.583,15.835,8.253c1.914,1.813,3.707,2.727,5.349,2.727c0.349,0,0.693-0.042,1.031-0.127
		c0.025-0.006,0.049-0.015,0.076-0.021c0.055,1.068,0.014,2.184-0.146,3.342c-10.843,1.927-23.217-1.673-25.891-2.514
		c-0.15-0.049-0.42-0.143-0.682-0.234c0.006,0.321,0.023,0.643,0.051,0.959c1.366,0.448,10.243,3.232,19.729,3.232
		c2.213,0,4.46-0.154,6.651-0.521c-0.198,1.178-0.42,2.228-0.661,3.162c-2.177,0.029-4.811,1.732-4.93,1.809l-0.053,0.04
		c-4.669,4.159-11.124,4.001-13.076,3.841c-0.366-0.03-0.959-0.117-1.424-0.184c0.521,0.396,1.065,0.763,1.633,1.096
		c0.39,0.026,0.887,0.051,1.469,0.051c2.931,0,7.982-0.592,11.962-4.119C87.248,104.411,89.397,103.075,91.159,102.939z"/>
</g>
</svg>
