<?xml version="1.0" encoding="utf-8"?>
<!-- Generator: Adobe Illustrator 16.0.0, SVG Export Plug-In . SVG Version: 6.00 Build 0)  -->
<!DOCTYPE svg PUBLIC "-//W3C//DTD SVG 1.1//EN" "http://www.w3.org/Graphics/SVG/1.1/DTD/svg11.dtd">
<svg version="1.1" id="Layer_1" xmlns="http://www.w3.org/2000/svg" xmlns:xlink="http://www.w3.org/1999/xlink" x="0px" y="0px"
	 width="128px" height="128px" viewBox="0 0 128 128" enable-background="new 0 0 128 128" xml:space="preserve">
<g>
	<circle fill="#46819F" cx="64" cy="64" r="64"/>
	<path fill="#316F87" d="M102.107,16.489l-0.076,0.23l-2.994,4.449l-5.195-5.571c0,0-1.631,3.275-2.135,4.062
		s-6.164,5.881-8.305,8.083c-2.139,2.202-3.189,6.354-3.189,6.354c-0.832-1.164-4.707-2.119-4.707-2.119
		c0.025,0.174,0.041,0.354,0.049,0.538c0.131,3.068-2.113,7.476-6.463,10.071c-4.611,2.752-3.797,7.827-3.797,7.827l-2.412,1.539
		l-5.066-2.988c0,0-0.793,1.503-1.162,5.106c-0.367,3.604-4.467,8.659-6.943,9.929c-2.477,1.271-3.693,5.742-3.693,5.742
		c-1.924-2.847-5.984-4.274-5.984-4.274c1.531,6.553-2.654,9.334-2.654,9.334l-5.592,6.234l-3.506,4.763
		c-4.686,8.524-0.023,15.792,1.279,17.55l24.025,23.795C56.977,127.698,60.453,128,64,128c35.346,0,64-28.654,64-64
		c0-10.82-2.695-21.007-7.436-29.943L102.107,16.489z"/>
	<g>
		<path fill="#ECC466" d="M75.891,78.804c-2.686-0.908-5.242,1.135-7.684,2.218c1.492-1.976,3.297-2.881,4.447-5.16
			c0.879-1.742,1.348-3.656,2.045-5.406c0.668-1.688,1.398-3.814,2.629-5.205c1.367-1.539,4.99-3.145,5.066-5.266
			c-3.445,0.578-5.307,3.924-8.23,5.046c1.25-4.02,2.32-7.141,4.932-10.567c-3.469,1.349-7.727,7.33-8.729,10.776
			c-1.738-2.214,0.551-5.677,1.785-7.601c1.434-2.234,2.385-4.248,3.355-6.943c1.842-5.124,4.229-9.388,2.654-14.804
			c0.471,4.396-4.199,9.583-7.059,12.634c-1.58,1.685-3.379,3.055-4.783,4.896c-1.727,2.268-2.004,3.602-2.184,5.876
			c-0.238-2.178-1.967-4.859-3.072-6.861c0.854,5.422-1.885,9.505-6.533,12.952c-1.65,1.229-7.148,6.064-7.139,9.152
			c-0.617-1.582-1.682-3.492-2.939-3.687c0.248,5.315,0.045,6.431-4.367,9.716c-1.762,1.306-2.959,2.396-4.135,4.091
			c-0.51,0.735-0.848,1.68-1.229,2.569c-4.258,4.561-5.314,11.548-2.125,17.367c3.969,7.242,13.004,9.928,20.178,5.991
			c3.533-1.935,5.951-5.115,7.027-8.708c0.711-0.803,1.381-1.583,1.977-2.201c2.465-2.555,4.059-4.936,6.914-7.094
			c-0.998-1.694-4.67,1.589-5.83,2.545c1.93-3.165,2.373-6.738,4.906-9.658C70.086,82.802,73.873,81.205,75.891,78.804z"/>
		<path fill="#ECC466" d="M79.404,50.414c0.326-0.473,0.588-0.957,0.809-1.449c-0.162,0.102-0.293,0.23-0.479,0.311L79.404,50.414z"
			/>
		<path fill="#ECC466" d="M88.258,41.114c2.4-1.965,6.359-5.753,3.568-9.21c-0.357,4.276-3.48,5.695-6.816,7.789
			c-3.748,2.35-3.307,5.971-4.797,9.271c1.406-0.867,2.033-2.344,3.111-3.578C84.738,43.771,86.586,42.487,88.258,41.114z"/>
		<path fill="#ECC466" d="M92.967,21.715c-0.58,4.248-11.037,7.11-7.039,12.692l0.244-0.134
			C89.926,30.463,95.514,28.352,92.967,21.715z"/>
		<path fill="#ECC466" d="M87.451,59.096c-0.037,0.23-0.057,0.473-0.072,0.723C87.436,59.582,87.465,59.344,87.451,59.096z"/>
		<path fill="#ECC466" d="M81.604,68.973l-0.025-0.625c0.857-1.934,3.744-1.999,4.959-3.65c0.938-1.271,0.738-3.266,0.842-4.879
			C86.578,63.098,79.406,65.83,81.604,68.973z"/>
		<path fill="#ECC466" d="M29.379,86.4c1.336-2.461,3.35-4.584,5.297-6.636c3.5-3.689,7.113-7.499,6.73-13.277
			c1.078,0.627,1.957,1.287,2.938,2.028c0.525,0.394,1.07,0.803,1.674,1.227l2.359,1.656l-1.461-2.484
			c-0.541-0.926,3.383-4.476,5.271-6.184c1.33-1.205,2.482-2.244,3.006-2.95c2.33-3.135,3.225-5.974,3.064-9.885
			c1.215,0.533,2.65,1.698,4.072,3.312l0.359,0.406l0.455-0.296c1.701-1.112,2.131-2.691,2.545-4.222
			c0.254-0.945,0.496-1.842,1.031-2.667c0.762-1.182,1.895-1.976,3.092-2.821c0.924-0.648,1.883-1.321,2.664-2.192
			c1.951-2.174,2.91-4.59,3.838-6.929c0.242-0.609,0.24-1.109,0.213-1.463c0.328,0.047,0.771,0.139,0.953,0.18
			c0.842,0.174,1.91,1.04,2.285,1.674c0.045,0.119,0.098,0.232,0.158,0.344l1.141-0.499c-0.035-0.112-0.086-0.233-0.148-0.352
			c-0.674-2.179,3.688-7.624,6.297-10.173c0.438-0.425,1.105-0.933,1.814-1.465c2.322-1.759,5.504-4.164,4.814-7.135l-1.223,0.285
			c0.512,2.18-2.184,4.215-4.344,5.849c-0.744,0.562-1.443,1.089-1.936,1.573c-0.07,0.063-5.793,5.701-6.627,9.691
			c-0.615-0.496-1.332-0.887-1.979-1.019c-1.264-0.263-1.842-0.351-2.229,0c-0.324,0.296-0.279,0.688-0.242,0.976
			c0.033,0.288,0.068,0.619-0.111,1.073c-0.889,2.233-1.805,4.547-3.607,6.554c-0.688,0.766-1.545,1.367-2.453,2.007
			c-1.24,0.874-2.525,1.776-3.424,3.164c-0.637,0.988-0.918,2.021-1.188,3.02c-0.342,1.254-0.639,2.356-1.598,3.183
			c-1.211-1.302-3.203-3.137-5.174-3.553l-0.818-0.174l0.066,0.835c0.32,4.125-0.43,6.823-2.768,9.974
			c-0.451,0.607-1.611,1.655-2.844,2.77c-2.822,2.554-5.002,4.634-5.568,6.219c-0.232-0.174-0.459-0.344-0.68-0.51
			c-1.27-0.955-2.469-1.857-4.166-2.701l-1.082-0.539l0.184,1.194c0.918,5.866-2.568,9.542-6.264,13.435
			c-2.004,2.113-4.072,4.296-5.488,6.896c-1.326,2.438-2.375,6.513-2.391,9.28c-0.014,2.722,1.623,5.427,3.066,7.813
			c0.406,0.67,0.801,1.323,1.146,1.955l1.098-0.602c-0.354-0.646-0.76-1.314-1.176-2.001c-1.424-2.354-2.898-4.79-2.883-7.159
			C27.158,92.538,28.162,88.642,29.379,86.4z"/>
		<path fill="#ECC466" d="M92.291,50.604c-1.209,0.847-2.453,1.724-2.844,2.94c-0.258,0.787-0.008,1.628,0.234,2.443
			c0.166,0.547,0.336,1.117,0.307,1.578c-0.119,1.91-1.166,5.771-2.172,7.388c-1.527,2.455-3.854,3.965-6.316,5.566
			c-1.936,1.257-3.939,2.558-5.5,4.354l-0.766,0.88l1.156,0.149c1.064,0.139,1.787-0.303,2.43-0.694
			c0.469-0.282,0.873-0.527,1.377-0.555c0.467-0.025,0.998,0.214,1.557,0.468c0.373,0.173,0.754,0.345,1.15,0.457
			c-0.984,1.639-3.227,2.694-5.576,3.807c-3.355,1.58-6.824,3.219-6.957,6.852l1.25,0.045c0.105-2.871,3.094-4.283,6.238-5.768
			c2.795-1.314,5.682-2.682,6.559-5.233l0.299-0.872l-0.92,0.043c-0.451,0.021-0.973-0.217-1.525-0.465
			c-0.676-0.307-1.367-0.623-2.137-0.583c-0.338,0.017-0.641,0.089-0.91,0.19c0.926-0.708,1.926-1.359,2.955-2.025
			c2.469-1.605,5.02-3.264,6.699-5.954c1.145-1.843,2.225-5.864,2.357-7.97c0.045-0.684-0.16-1.363-0.355-2.017
			c-0.195-0.659-0.379-1.282-0.242-1.705c0.262-0.815,1.332-1.569,2.373-2.298c0.84-0.594,1.709-1.204,2.238-1.918l-1.004-0.746
			C93.838,49.516,93.049,50.068,92.291,50.604z"/>
		<path fill="#ECC466" d="M100.914,16.118c-0.303,0.969-0.797,1.873-1.318,2.833c-0.832,1.527-1.689,3.11-1.766,5.029
			c-0.023,0.7,0.189,1.287,0.379,1.805c0.168,0.454,0.324,0.883,0.32,1.365c-0.01,1.652-1.096,2.279-3.01,3.254
			c-0.559,0.285-1.139,0.581-1.701,0.928l-0.598,0.365l0.432,0.553c3.465,4.432-2.168,8.842-6.697,12.389
			c-1.68,1.314-3.135,2.451-3.98,3.473l0.967,0.799c0.756-0.919,2.227-2.068,3.783-3.288c4.539-3.552,10.689-8.366,7.326-13.563
			c0.352-0.207,0.695-0.368,1.031-0.537c1.822-0.922,3.678-1.865,3.697-4.362c0.008-0.71-0.205-1.292-0.395-1.805
			c-0.172-0.47-0.32-0.872-0.303-1.327c0.061-1.626,0.813-3.012,1.613-4.482c0.527-0.967,1.072-1.969,1.412-3.056L100.914,16.118z"
			/>
	</g>
</g>
</svg>
