<?xml version="1.0" encoding="utf-8"?>
<!-- Generator: Adobe Illustrator 16.0.0, SVG Export Plug-In . SVG Version: 6.00 Build 0)  -->
<!DOCTYPE svg PUBLIC "-//W3C//DTD SVG 1.1//EN" "http://www.w3.org/Graphics/SVG/1.1/DTD/svg11.dtd">
<svg version="1.1" id="Layer_1" xmlns="http://www.w3.org/2000/svg" xmlns:xlink="http://www.w3.org/1999/xlink" x="0px" y="0px"
	 width="128px" height="128px" viewBox="0 0 128 128" enable-background="new 0 0 128 128" xml:space="preserve">
<g>
	<circle fill="#A5D06E" cx="64" cy="64" r="64"/>
	<path fill="#88AE4A" d="M89.229,31.867L22.676,85.046l-3.375,2.957l40.212,39.823C60.998,127.929,62.49,128,64,128
		c33.331,0,60.698-25.479,63.713-58.022L89.229,31.867z"/>
	<path fill="#7B3A1A" d="M90.201,83.948c0,2.996-2.449,5.445-5.443,5.445H22.676c-2.993,0-5.443-2.449-5.443-5.445V35.661
		c0-2.994,2.45-5.443,5.443-5.443h62.082c2.994,0,5.443,2.449,5.443,5.443V83.948z"/>
	<rect x="22.676" y="35.661" fill="#318E7E" width="62.082" height="48.287"/>
	<path fill="#D7DADA" d="M90.113,97.782c7.57,0,14.639-1.766,20.654-4.826V82.317c0-1.346-0.266-2.594-0.73-3.725
		c0.023-0.016-0.084-0.268-0.16-0.379c-0.727-1.564-1.867-2.871-3.285-3.844c-4.191-3.873-10.023-6.277-16.479-6.277
		c-6.451,0-12.283,2.404-16.475,6.275c-1.418,0.973-2.561,2.281-3.287,3.846c-0.076,0.111-0.184,0.363-0.162,0.379
		c-0.465,1.131-0.729,2.379-0.729,3.725v10.639c2.664,1.357,5.541,2.459,8.572,3.266C81.844,97.235,85.902,97.782,90.113,97.782z"/>
	<rect x="84.402" y="61.306" fill="#E2A752" width="11.426" height="10.744"/>
	
		<rect x="88.365" y="72.774" transform="matrix(0.7071 -0.7071 0.7071 0.7071 -26.3011 85.5466)" fill="#313133" width="3.497" height="3.495"/>
	<polygon fill="#AEB4AD" points="84.156,67.581 90.113,72.05 87.352,76.056 82.076,69.671 	"/>
	<polygon fill="#AEB4AD" points="96.072,67.581 90.113,72.05 92.877,76.056 98.15,69.671 	"/>
	<path fill="#233640" d="M93.25,46.384c0,0,2.486,6.814,8.566,8.045c0.094-0.711,0.156-1.434,0.156-2.176
		c0-7.738-5.309-14.01-11.859-14.01c-6.549,0-11.857,6.271-11.857,14.01c0,1.088,0.113,2.141,0.313,3.156
		C80.465,55.38,90.484,54.813,93.25,46.384z"/>
	<path fill="#EECE7B" d="M93.25,46.384c-2.766,8.43-12.785,8.996-14.682,9.025c1.213,6.215,5.916,10.854,11.545,10.854
		c5.924,0,10.814-5.129,11.703-11.834C95.736,53.198,93.25,46.384,93.25,46.384z"/>
	<g>
		<path fill="#FFFFFF" d="M29.618,61.341c-0.137,0-0.27-0.055-0.366-0.154c-0.111-0.115-0.163-0.279-0.138-0.438
			c0.208-1.301,1.066-2.355,1.899-3.379c0.865-1.066,1.683-2.072,1.604-3.182c-0.049-0.709-0.359-1.189-0.919-1.432
			c-0.681-0.293-1.662-0.154-2.235,0.318c-0.334,0.273-0.465,0.6-0.385,0.969c0.06,0.273-0.116,0.547-0.392,0.605
			c-0.27,0.057-0.547-0.115-0.607-0.391c-0.159-0.738,0.108-1.457,0.735-1.973c0.869-0.715,2.252-0.912,3.286-0.469
			c0.914,0.395,1.458,1.209,1.535,2.299c0.107,1.512-0.878,2.725-1.831,3.896c-0.571,0.703-1.156,1.424-1.475,2.186
			c0.285-0.053,0.581-0.115,0.885-0.178c1.134-0.234,2.308-0.477,3.371-0.406c0.281,0.02,0.494,0.262,0.477,0.543
			c-0.021,0.281-0.268,0.492-0.545,0.475c-0.93-0.063-2.029,0.168-3.095,0.389c-0.61,0.127-1.186,0.244-1.738,0.316
			C29.662,61.339,29.64,61.341,29.618,61.341z"/>
	</g>
	<g>
		<path fill="#FFFFFF" d="M44.517,57.46c-0.016,0-0.029-0.002-0.043-0.004c-1.098-0.094-2.07-0.777-3.012-1.438
			c-0.855-0.602-1.74-1.221-2.656-1.346c-0.279-0.035-0.475-0.295-0.436-0.574c0.035-0.279,0.291-0.473,0.574-0.438
			c1.162,0.16,2.148,0.852,3.104,1.521c0.869,0.611,1.689,1.188,2.512,1.258c0.281,0.023,0.488,0.271,0.465,0.551
			C45.003,57.259,44.779,57.46,44.517,57.46z"/>
	</g>
	<g>
		<path fill="#FFFFFF" d="M40.658,58.235c-0.076,0-0.152-0.016-0.227-0.053c-0.252-0.125-0.355-0.432-0.23-0.684
			c0.211-0.43,0.42-0.916,0.635-1.418c0.514-1.201,1.045-2.445,1.781-3.35c0.178-0.219,0.5-0.252,0.719-0.072
			c0.219,0.178,0.252,0.498,0.072,0.717c-0.646,0.793-1.148,1.969-1.635,3.105c-0.223,0.52-0.438,1.021-0.656,1.469
			C41.027,58.132,40.845,58.235,40.658,58.235z"/>
	</g>
	<g>
		<path fill="#FFFFFF" d="M49.263,58.157c-0.279,0-0.508-0.225-0.51-0.506s0.225-0.512,0.506-0.514
			c2.057-0.016,2.855-0.566,2.844-1.963c-0.002-0.561-0.305-1.039-0.826-1.311c-0.342-0.18-0.725-0.242-1.094-0.193
			c-0.27,0.133-0.566,0.25-0.893,0.359c-0.242,0.08-0.506-0.029-0.619-0.256s-0.043-0.506,0.168-0.648
			c0.313-0.213,0.658-0.357,1.014-0.434c0.602-0.311,0.998-0.676,1.145-1.063c0.143-0.375,0.076-0.801-0.211-1.305
			c-0.26-0.461-1.217-0.789-2.08-0.715c-0.531,0.045-0.906,0.227-1,0.492c-0.1,0.266-0.389,0.4-0.656,0.305
			c-0.264-0.098-0.402-0.389-0.305-0.654c0.24-0.658,0.924-1.082,1.875-1.16c1.096-0.1,2.533,0.311,3.055,1.229
			c0.439,0.773,0.531,1.506,0.277,2.174c-0.113,0.293-0.291,0.566-0.529,0.818c0.111,0.041,0.219,0.09,0.326,0.145
			c0.855,0.447,1.369,1.273,1.375,2.211c0.021,2.961-2.896,2.982-3.855,2.988C49.267,58.157,49.267,58.157,49.263,58.157z"/>
	</g>
	<g>
		<path fill="#FFFFFF" d="M55.623,51.358c-0.199,0-0.408-0.016-0.619-0.055c-0.277-0.051-0.463-0.314-0.414-0.592
			s0.32-0.459,0.592-0.414c0.768,0.139,1.488-0.119,2.25-0.389c0.773-0.275,1.572-0.563,2.506-0.49
			c0.281,0.021,0.492,0.266,0.471,0.547c-0.02,0.281-0.262,0.49-0.547,0.471c-0.721-0.057-1.383,0.184-2.088,0.432
			C57.095,51.11,56.398,51.358,55.623,51.358z"/>
	</g>
	<g>
		<path fill="#FFFFFF" d="M55.623,54.345c-0.199,0-0.408-0.016-0.619-0.055c-0.277-0.049-0.463-0.314-0.414-0.592
			s0.32-0.461,0.592-0.412c0.768,0.135,1.486-0.121,2.25-0.393c0.773-0.271,1.576-0.557,2.506-0.488
			c0.281,0.021,0.492,0.266,0.471,0.547c-0.02,0.281-0.262,0.494-0.547,0.473c-0.717-0.049-1.383,0.18-2.088,0.43
			C57.093,54.097,56.398,54.345,55.623,54.345z"/>
	</g>
	<g>
		<path fill="#FFFFFF" d="M67.941,54.974c-0.111,0-0.223-0.008-0.336-0.021c-2.211-0.279-3.51-1.895-3.389-4.215
			c0.051-0.979,0.5-4.029,1.844-5.186c0.414-0.357,0.895-0.521,1.396-0.471c0.279,0.025,0.484,0.275,0.459,0.557
			c-0.029,0.279-0.285,0.496-0.559,0.459c-0.225-0.02-0.424,0.049-0.631,0.229c-0.754,0.648-1.225,2.42-1.41,3.684
			c1.469-0.924,3.508-0.73,4.678,0.518c0.744,0.793,0.889,1.908,0.373,2.916C69.881,54.397,68.953,54.974,67.941,54.974z
			 M65.244,51.417c0.123,1.445,0.988,2.334,2.488,2.523c0.855,0.109,1.467-0.451,1.727-0.963c0.316-0.621,0.238-1.277-0.209-1.754
			c-0.926-0.984-2.693-1.039-3.713-0.107C65.383,51.259,65.316,51.317,65.244,51.417z"/>
	</g>
</g>
</svg>
