<?xml version="1.0" encoding="utf-8"?>
<!-- Generator: Adobe Illustrator 16.0.0, SVG Export Plug-In . SVG Version: 6.00 Build 0)  -->
<!DOCTYPE svg PUBLIC "-//W3C//DTD SVG 1.1//EN" "http://www.w3.org/Graphics/SVG/1.1/DTD/svg11.dtd">
<svg version="1.1" id="Layer_1" xmlns="http://www.w3.org/2000/svg" xmlns:xlink="http://www.w3.org/1999/xlink" x="0px" y="0px"
	 width="128px" height="128px" viewBox="0 0 128 128" enable-background="new 0 0 128 128" xml:space="preserve">
<g>
	<circle fill="#91D7EE" cx="64" cy="64" r="64"/>
	<path fill="#4ABDE5" d="M78.303,26.983L67.548,37.564l-8.9-8.829l-36.099,27.48L45.943,79.68l-1.507,4.387l-7.518-7.128
		l-9.278,8.637l6.467,4.995l-9.563,5.355l-1.965,1.151l30.216,29.925C56.436,127.646,60.176,128,64,128
		c31.521,0,57.698-22.792,63.001-52.79L78.303,26.983z"/>
	<g>
		<rect x="70.013" y="41.282" fill="#F2B359" width="5.887" height="5.725"/>
		<path fill="#FFFFFF" d="M76.015,44.862l-3.068,1.585l-2.666-1.585h-1.544c0.657,1.676,3.628,9.595,3.88,16.31h0.681
			c0.252-6.715,3.223-14.634,3.879-16.31H76.015z"/>
		<circle fill="#EECE7B" cx="72.688" cy="35.972" r="7.258"/>
		<polygon fill="#9A4922" points="54.334,61.172 54.334,64.069 57.638,64.069 57.638,71.296 87.737,71.296 87.737,64.069 
			91.041,64.069 91.041,61.172 		"/>
		<circle fill="#233640" cx="31.828" cy="80.769" r="6.379"/>
		<path fill="#233640" d="M48.426,74.39c-3.523,0-6.378,2.857-6.378,6.379c0,3.523,2.854,6.381,6.378,6.381
			c3.525,0,6.381-2.857,6.381-6.381C54.807,77.247,51.951,74.39,48.426,74.39z"/>
		<circle fill="#233640" cx="65.027" cy="80.769" r="6.38"/>
		<path fill="#233640" d="M81.625,74.39c-3.523,0-6.377,2.857-6.377,6.379c0,3.523,2.854,6.381,6.377,6.381
			c3.525,0,6.381-2.857,6.381-6.381C88.006,77.247,85.15,74.39,81.625,74.39z"/>
		<circle fill="#233640" cx="98.226" cy="80.77" r="6.38"/>
		<path fill="#FFFFFF" d="M98.226,88.521c-3.581,0-6.67,2.314-8.299,5.709c-1.63-3.395-4.719-5.709-8.302-5.709
			c-3.581,0-6.67,2.314-8.298,5.709c-1.63-3.395-4.719-5.709-8.302-5.709c-3.581,0-6.67,2.314-8.298,5.709
			c-1.63-3.395-4.72-5.709-8.302-5.709c-3.581,0-6.67,2.314-8.299,5.709c-1.629-3.395-4.718-5.709-8.301-5.709
			c-4.516,0-8.287,3.65-9.277,8.548h16.6h1.957h14.643h1.956h14.645h1.955h14.645h1.956h16.6
			C106.514,92.171,102.74,88.521,98.226,88.521z"/>
		<path fill="#F2B359" d="M55.467,56.907c2.425,0,4.408-1.981,4.408-4.406V31.774c0-2.425-1.983-4.408-4.408-4.408H24.904
			c-2.425,0-4.407,1.983-4.407,4.408v20.727c0,2.425,1.982,4.406,4.407,4.406H55.467z"/>
		<rect x="23.61" y="30.426" fill="#358D7E" width="33.15" height="23.422"/>
		<path fill="#233640" d="M79.873,37.039c1.749-4.269,0.43-9.199-3.704-11.003c-1.942-0.848-4.43-0.9-6.382-0.098
			c-1.045,0.43-2.387,0.932-3.097,1.885c-0.664,0.891-1.161,1.594-1.518,2.773c-0.474,1.568-0.39,2.582-0.271,4.012
			c0.048,0.579,0.06,3.012,1.02,2.955c0.449-0.026,0.924-2.203,1.155-2.693c0.512-1.082,1.287-2.011,2.597-1.615
			c1.241,0.375,1.934,1.229,3.517,0.813c1.244-0.326,1.583-1.684,2.969-1.762c2.161-0.123,3.317,2.975,3.201,4.861
			C79.36,37.167,79.553,37.821,79.873,37.039z"/>
		<polygon fill="#D7DADA" points="70.013,43.919 72.956,46.447 71.484,48.242 68.913,44.863 		"/>
		<polygon fill="#D7DADA" points="75.899,43.919 72.956,46.447 74.428,48.242 77,44.863 		"/>
		<path fill="#CF7C3F" d="M67.1,44.862c-1.363,0-2.521,0.913-2.963,2.176l-7.72,13.621c-0.092,0.164-0.138,0.338-0.179,0.513h4.485
			l3.215-5.676v5.676h8.678c-0.252-6.715-3.223-14.634-3.88-16.31H67.1z"/>
		<path fill="#CF7C3F" d="M89.497,60.659l-7.72-13.621c-0.438-1.262-1.597-2.176-2.964-2.176h-1.638
			c-0.656,1.676-3.627,9.595-3.879,16.31h8.678v-5.676l3.216,5.676h4.484C89.635,60.997,89.588,60.823,89.497,60.659z"/>
		<g>
			<g>
				<path fill="#FFFFFF" d="M70.679,61.183c-0.288-3.68-2.922-8.674-2.948-8.724l-0.032-0.06l0.914-2.105l-1.863-0.83l1.075-4.633
					l0.273,0.063l-1.024,4.407l1.907,0.85l-0.972,2.236c0.302,0.584,2.674,5.258,2.948,8.773L70.679,61.183z"/>
			</g>
			<g>
				<path fill="#FFFFFF" d="M75.234,61.183c0.287-3.68,2.922-8.674,2.948-8.724l0.031-0.06L77.3,50.294l1.864-0.83l-1.076-4.633
					l-0.273,0.063l1.024,4.407l-1.906,0.85l0.972,2.236c-0.303,0.584-2.675,5.258-2.949,8.773L75.234,61.183z"/>
			</g>
		</g>
	</g>
</g>
</svg>
