<?xml version="1.0" encoding="utf-8"?>
<!-- Generator: Adobe Illustrator 16.0.0, SVG Export Plug-In . SVG Version: 6.00 Build 0)  -->
<!DOCTYPE svg PUBLIC "-//W3C//DTD SVG 1.1//EN" "http://www.w3.org/Graphics/SVG/1.1/DTD/svg11.dtd">
<svg version="1.1" id="Layer_1" xmlns="http://www.w3.org/2000/svg" xmlns:xlink="http://www.w3.org/1999/xlink" x="0px" y="0px"
	 width="128px" height="128px" viewBox="0 0 128 128" enable-background="new 0 0 128 128" xml:space="preserve">
<g>
	<circle fill="#51B9A6" cx="64" cy="64" r="64"/>
	<path fill="#46998A" d="M69.89,17.317l-1.064,2.315l-4.129,19.314l-6.253,3.334l-4.458-4.817l-2.399,0.21
		c-7.232,0.41-9.079,13.628-9.079,13.628l-2.202,2.591l-5.283,5.393l4.995,4.302l2.49,45.58l-3.352,3.264l14.949,14.806
		C57.331,127.736,60.634,128,64,128c31.918,0,58.37-23.365,63.204-53.924L69.89,17.317z"/>
	<g>
		<path fill="#D7DADA" d="M64,65.604c6.394,0,12.364-1.491,17.444-4.076v-8.986c0-1.135-0.224-2.189-0.616-3.145
			c0.02-0.014-0.072-0.226-0.135-0.321c-0.614-1.32-1.578-2.425-2.774-3.247c-3.542-3.27-8.467-5.301-13.919-5.301
			c-5.45,0-10.375,2.031-13.915,5.301c-1.198,0.82-2.164,1.927-2.777,3.247c-0.063,0.096-0.155,0.308-0.136,0.321
			c-0.393,0.955-0.616,2.01-0.616,3.145v8.986c2.251,1.146,4.68,2.076,7.241,2.758C57.015,65.141,60.443,65.604,64,65.604z"/>
		<rect x="59.175" y="34.796" fill="#E2A752" width="9.65" height="9.073"/>
		
			<rect x="62.523" y="44.481" transform="matrix(0.7069 -0.7073 0.7073 0.7069 -13.7487 58.7337)" fill="#313133" width="2.953" height="2.953"/>
		<polygon fill="#AEB4AD" points="58.968,40.096 64,43.869 61.666,47.255 57.212,41.861 		"/>
		<polygon fill="#AEB4AD" points="69.032,40.096 64,43.869 66.334,47.255 70.789,41.861 		"/>
		<path fill="#233640" d="M66.649,22.191c0,0,2.1,5.755,7.234,6.795c0.08-0.601,0.133-1.211,0.133-1.838
			c0-6.535-4.484-11.832-10.017-11.832c-5.531,0-10.015,5.297-10.015,11.832c0,0.92,0.096,1.808,0.264,2.667
			C55.851,29.789,64.313,29.313,66.649,22.191z"/>
		<path fill="#EECE7B" d="M66.649,22.191c-2.337,7.121-10.799,7.598-12.4,7.624c1.024,5.249,4.996,9.165,9.751,9.165
			c5.003,0,9.134-4.332,9.884-9.994C68.749,27.946,66.649,22.191,66.649,22.191z"/>
		<rect x="35.021" y="50.646" fill="#A6592E" width="57.957" height="8.639"/>
		<rect x="39.104" y="59.285" fill="#B75D33" width="49.794" height="53.398"/>
		<rect x="48.491" y="59.285" fill="#CB7148" width="31.018" height="53.398"/>
		<path fill="none" stroke="#233640" stroke-miterlimit="10" d="M42.507,50.646c0,0,1.782-13.269,9.079-12.47"/>
		<ellipse fill="#233640" cx="52.22" cy="38.078" rx="2.029" ry="1.254"/>
	</g>
</g>
</svg>
