<?xml version="1.0" encoding="utf-8"?>
<!-- Generator: Adobe Illustrator 16.0.0, SVG Export Plug-In . SVG Version: 6.00 Build 0)  -->
<!DOCTYPE svg PUBLIC "-//W3C//DTD SVG 1.1//EN" "http://www.w3.org/Graphics/SVG/1.1/DTD/svg11.dtd">
<svg version="1.1" id="Layer_1" xmlns="http://www.w3.org/2000/svg" xmlns:xlink="http://www.w3.org/1999/xlink" x="0px" y="0px"
	 width="128px" height="128px" viewBox="0 0 128 128" enable-background="new 0 0 128 128" xml:space="preserve">
<g>
	<circle fill="#2094BB" cx="64" cy="64" r="64"/>
	<path fill="#46819F" d="M99.87,29.383l-4.341,4.373H65.269H54.008L36.799,49.779l-3.938,4.15v37.909l-5.196,6.755l29.296,29.013
		C59.272,127.859,61.62,128,64,128c35.346,0,64-28.654,64-64c0-2.424-0.147-4.812-0.409-7.165L99.87,29.383z"/>
	<g>
		<path fill="#D7DADA" d="M96.688,77.164H52.072V32.549h44.615V77.164z M55.168,74.068h38.425V35.643H55.168V74.068z"/>
	</g>
	<circle fill="#E2A752" cx="95.14" cy="34.096" r="6.882"/>
	<circle fill="#E2A752" cx="53.62" cy="75.617" r="6.882"/>
	<circle fill="#E2A752" cx="95.14" cy="75.617" r="6.882"/>
	<g>
		<path fill="#ECECEC" d="M75.928,95.451H31.313V50.837h44.615V95.451z M34.407,92.355h38.425V53.93H34.407V92.355z"/>
	</g>
	<circle fill="#E2A752" cx="53.62" cy="34.096" r="6.882"/>
	<g>
		<path fill="#E3E5E5" d="M32.86,53.93c-0.429,0-0.856-0.175-1.162-0.523c-0.565-0.641-0.503-1.619,0.138-2.186l19.988-17.604
			c0.643-0.564,1.619-0.504,2.184,0.139c0.566,0.641,0.504,1.619-0.138,2.184L33.883,53.546C33.59,53.805,33.224,53.93,32.86,53.93z
			"/>
	</g>
	<g>
		<path fill="#E3E5E5" d="M74.381,53.93c-0.43,0-0.855-0.175-1.162-0.523c-0.565-0.641-0.503-1.619,0.139-2.186l19.986-17.604
			c0.643-0.564,1.621-0.504,2.186,0.139c0.564,0.641,0.503,1.619-0.139,2.184L75.404,53.546
			C75.109,53.805,74.744,53.93,74.381,53.93z"/>
	</g>
	<g>
		<path fill="#E3E5E5" d="M32.86,95.451c-0.429,0-0.856-0.176-1.162-0.525c-0.565-0.639-0.503-1.619,0.138-2.186l19.988-17.604
			c0.643-0.563,1.619-0.502,2.184,0.139c0.566,0.641,0.504,1.621-0.138,2.187L33.883,95.064
			C33.59,95.326,33.224,95.451,32.86,95.451z"/>
	</g>
	<g>
		<path fill="#E3E5E5" d="M74.381,95.451c-0.43,0-0.855-0.176-1.162-0.525c-0.565-0.639-0.503-1.619,0.139-2.186l19.986-17.604
			c0.643-0.563,1.621-0.502,2.186,0.139s0.503,1.621-0.139,2.187L75.404,95.064C75.109,95.326,74.744,95.451,74.381,95.451z"/>
	</g>
	<circle fill="#EECE7B" cx="32.86" cy="52.383" r="6.882"/>
	<circle fill="#EECE7B" cx="74.38" cy="52.383" r="6.882"/>
	<circle fill="#EECE7B" cx="32.86" cy="93.902" r="6.882"/>
	<circle fill="#EECE7B" cx="74.38" cy="93.902" r="6.882"/>
</g>
</svg>
