<?xml version="1.0" encoding="utf-8"?>
<!-- Generator: Adobe Illustrator 16.0.0, SVG Export Plug-In . SVG Version: 6.00 Build 0)  -->
<!DOCTYPE svg PUBLIC "-//W3C//DTD SVG 1.1//EN" "http://www.w3.org/Graphics/SVG/1.1/DTD/svg11.dtd">
<svg version="1.1" id="Layer_1" xmlns="http://www.w3.org/2000/svg" xmlns:xlink="http://www.w3.org/1999/xlink" x="0px" y="0px"
	 width="128px" height="128px" viewBox="0 0 128 128" enable-background="new 0 0 128 128" xml:space="preserve">
<g>
	<g>
		<circle fill="#2D5171" cx="64" cy="64" r="64"/>
		<path fill="#193E59" d="M98.234,23.381l-49.79,66.623l-15.958,16.912l20.277,20.081C56.414,127.644,60.164,128,64,128
			c35.346,0,64-28.653,64-64c0-4.219-0.418-8.337-1.197-12.328L98.234,23.381z"/>
	</g>
	<g>
		<g>
			<path fill="#A95426" d="M98.59,102.639c0,2.356-1.926,4.281-4.279,4.281H34.714c-2.354,0-4.281-1.925-4.281-4.281V25.361
				c0-2.354,1.927-4.281,4.281-4.281h59.596c2.354,0,4.279,1.927,4.279,4.281V102.639z"/>
			<path fill="#FFFFFF" d="M95.273,101.645c0,0.672-0.563,1.223-1.252,1.223H34.265c-0.689,0-1.251-0.551-1.251-1.223V25.251
				c0-0.674,0.563-1.223,1.251-1.223h59.756c0.689,0,1.252,0.549,1.252,1.223V101.645z"/>
			<g>
				<g>
					<circle fill="#404551" cx="36.109" cy="29.004" r="1.176"/>
					<path fill="#8D8E90" d="M36.109,29.004c0,0.271-0.275,0.493-0.611,0.493h-5.475c-0.336,0-0.612-0.223-0.612-0.493
						c0-0.272,0.276-0.495,0.612-0.495h5.475C35.833,28.509,36.109,28.731,36.109,29.004z"/>
				</g>
				<g>
					<circle fill="#404551" cx="36.109" cy="33.924" r="1.176"/>
					<path fill="#8D8E90" d="M36.109,33.924c0,0.272-0.275,0.495-0.611,0.495h-5.475c-0.336,0-0.612-0.223-0.612-0.495
						c0-0.271,0.276-0.493,0.612-0.493h5.475C35.833,33.431,36.109,33.653,36.109,33.924z"/>
				</g>
				<g>
					<path fill="#404551" d="M37.285,38.846c0,0.646-0.527,1.176-1.176,1.176c-0.65,0-1.176-0.529-1.176-1.176
						c0-0.65,0.525-1.178,1.176-1.178C36.757,37.668,37.285,38.195,37.285,38.846z"/>
					<path fill="#8D8E90" d="M36.109,38.846c0,0.271-0.275,0.493-0.611,0.493h-5.475c-0.336,0-0.612-0.223-0.612-0.493
						c0-0.272,0.276-0.495,0.612-0.495h5.475C35.833,38.351,36.109,38.573,36.109,38.846z"/>
				</g>
				<g>
					<circle fill="#404551" cx="36.109" cy="43.766" r="1.176"/>
					<path fill="#8D8E90" d="M36.109,43.766c0,0.271-0.275,0.493-0.611,0.493h-5.475c-0.336,0-0.612-0.223-0.612-0.493
						c0-0.272,0.276-0.493,0.612-0.493h5.475C35.833,43.272,36.109,43.493,36.109,43.766z"/>
				</g>
				<g>
					<circle fill="#404551" cx="36.109" cy="48.686" r="1.176"/>
					<path fill="#8D8E90" d="M36.109,48.686c0,0.272-0.275,0.495-0.611,0.495h-5.475c-0.336,0-0.612-0.223-0.612-0.495
						c0-0.271,0.276-0.493,0.612-0.493h5.475C35.833,48.192,36.109,48.415,36.109,48.686z"/>
				</g>
				<g>
					<circle fill="#404551" cx="36.109" cy="53.607" r="1.176"/>
					<path fill="#8D8E90" d="M36.109,53.607c0,0.27-0.275,0.492-0.611,0.492h-5.475c-0.336,0-0.612-0.223-0.612-0.492
						c0-0.272,0.276-0.495,0.612-0.495h5.475C35.833,53.112,36.109,53.335,36.109,53.607z"/>
				</g>
				<g>
					<circle fill="#404551" cx="36.109" cy="58.528" r="1.176"/>
					<path fill="#8D8E90" d="M36.109,58.528c0,0.271-0.275,0.491-0.611,0.491h-5.475c-0.336,0-0.612-0.22-0.612-0.491
						c0-0.274,0.276-0.494,0.612-0.494h5.475C35.833,58.034,36.109,58.254,36.109,58.528z"/>
				</g>
				<g>
					<circle fill="#404551" cx="36.109" cy="63.447" r="1.176"/>
					<path fill="#8D8E90" d="M36.109,63.447c0,0.271-0.275,0.494-0.611,0.494h-5.475c-0.336,0-0.612-0.223-0.612-0.494
						s0.276-0.493,0.612-0.493h5.475C35.833,62.954,36.109,63.176,36.109,63.447z"/>
				</g>
				<g>
					<circle fill="#404551" cx="36.109" cy="68.367" r="1.176"/>
					<path fill="#8D8E90" d="M36.109,68.367c0,0.271-0.275,0.494-0.611,0.494h-5.475c-0.336,0-0.612-0.223-0.612-0.494
						s0.276-0.494,0.612-0.494h5.475C35.833,67.873,36.109,68.096,36.109,68.367z"/>
				</g>
				<g>
					<circle fill="#404551" cx="36.109" cy="73.289" r="1.176"/>
					<path fill="#8D8E90" d="M36.109,73.289c0,0.271-0.275,0.492-0.611,0.492h-5.475c-0.336,0-0.612-0.221-0.612-0.492
						c0-0.273,0.276-0.494,0.612-0.494h5.475C35.833,72.795,36.109,73.016,36.109,73.289z"/>
				</g>
				<g>
					<circle fill="#404551" cx="36.109" cy="78.209" r="1.176"/>
					<path fill="#8D8E90" d="M36.109,78.209c0,0.271-0.275,0.495-0.611,0.495h-5.475c-0.336,0-0.612-0.224-0.612-0.495
						s0.276-0.494,0.612-0.494h5.475C35.833,77.715,36.109,77.938,36.109,78.209z"/>
				</g>
				<g>
					<path fill="#404551" d="M37.285,83.131c0,0.648-0.527,1.175-1.176,1.175c-0.65,0-1.176-0.526-1.176-1.175
						c0-0.652,0.525-1.177,1.176-1.177C36.757,81.954,37.285,82.479,37.285,83.131z"/>
					<path fill="#8D8E90" d="M36.109,83.131c0,0.27-0.275,0.492-0.611,0.492h-5.475c-0.336,0-0.612-0.223-0.612-0.492
						c0-0.273,0.276-0.496,0.612-0.496h5.475C35.833,82.635,36.109,82.857,36.109,83.131z"/>
				</g>
				<g>
					<circle fill="#404551" cx="36.109" cy="88.051" r="1.176"/>
					<path fill="#8D8E90" d="M36.109,88.051c0,0.271-0.275,0.492-0.611,0.492h-5.475c-0.336,0-0.612-0.221-0.612-0.492
						c0-0.272,0.276-0.494,0.612-0.494h5.475C35.833,87.557,36.109,87.778,36.109,88.051z"/>
				</g>
				<g>
					<circle fill="#404551" cx="36.109" cy="92.97" r="1.176"/>
					<path fill="#8D8E90" d="M36.109,92.97c0,0.272-0.275,0.495-0.611,0.495h-5.475c-0.336,0-0.612-0.223-0.612-0.495
						c0-0.271,0.276-0.493,0.612-0.493h5.475C35.833,92.477,36.109,92.699,36.109,92.97z"/>
				</g>
				<g>
					<circle fill="#404551" cx="36.109" cy="97.892" r="1.176"/>
					<path fill="#8D8E90" d="M36.109,97.892c0,0.271-0.275,0.493-0.611,0.493h-5.475c-0.336,0-0.612-0.222-0.612-0.493
						s0.276-0.495,0.612-0.495h5.475C35.833,97.396,36.109,97.62,36.109,97.892z"/>
				</g>
			</g>
			<g>
				
					<line fill="none" stroke="#8E8F90" stroke-width="0.5" stroke-miterlimit="10" x1="33.014" y1="27.396" x2="95.273" y2="27.396"/>
				<line fill="none" stroke="#8E8F90" stroke-width="0.5" stroke-miterlimit="10" x1="33.014" y1="31.19" x2="95.273" y2="31.19"/>
				
					<line fill="none" stroke="#8E8F90" stroke-width="0.5" stroke-miterlimit="10" x1="33.014" y1="34.984" x2="95.273" y2="34.984"/>
				
					<line fill="none" stroke="#8E8F90" stroke-width="0.5" stroke-miterlimit="10" x1="33.014" y1="38.781" x2="95.273" y2="38.781"/>
				
					<line fill="none" stroke="#8E8F90" stroke-width="0.5" stroke-miterlimit="10" x1="33.014" y1="42.576" x2="95.273" y2="42.576"/>
				<line fill="none" stroke="#8E8F90" stroke-width="0.5" stroke-miterlimit="10" x1="33.014" y1="46.37" x2="95.273" y2="46.37"/>
				
					<line fill="none" stroke="#8E8F90" stroke-width="0.5" stroke-miterlimit="10" x1="33.014" y1="50.164" x2="95.273" y2="50.164"/>
				
					<line fill="none" stroke="#8E8F90" stroke-width="0.5" stroke-miterlimit="10" x1="33.014" y1="53.959" x2="95.273" y2="53.959"/>
				
					<line fill="none" stroke="#8E8F90" stroke-width="0.5" stroke-miterlimit="10" x1="33.014" y1="57.756" x2="95.273" y2="57.756"/>
				<line fill="none" stroke="#8E8F90" stroke-width="0.5" stroke-miterlimit="10" x1="33.014" y1="61.55" x2="95.273" y2="61.55"/>
				
					<line fill="none" stroke="#8E8F90" stroke-width="0.5" stroke-miterlimit="10" x1="33.014" y1="65.344" x2="95.273" y2="65.344"/>
				
					<line fill="none" stroke="#8E8F90" stroke-width="0.5" stroke-miterlimit="10" x1="33.014" y1="69.139" x2="95.273" y2="69.139"/>
				
					<line fill="none" stroke="#8E8F90" stroke-width="0.5" stroke-miterlimit="10" x1="33.014" y1="72.936" x2="95.273" y2="72.936"/>
				
					<line fill="none" stroke="#8E8F90" stroke-width="0.5" stroke-miterlimit="10" x1="33.014" y1="76.729" x2="95.273" y2="76.729"/>
				
					<line fill="none" stroke="#8E8F90" stroke-width="0.5" stroke-miterlimit="10" x1="33.014" y1="80.523" x2="95.273" y2="80.523"/>
				
					<line fill="none" stroke="#8E8F90" stroke-width="0.5" stroke-miterlimit="10" x1="33.014" y1="84.318" x2="95.273" y2="84.318"/>
				
					<line fill="none" stroke="#8E8F90" stroke-width="0.5" stroke-miterlimit="10" x1="33.014" y1="88.115" x2="95.273" y2="88.115"/>
				
					<line fill="none" stroke="#8E8F90" stroke-width="0.5" stroke-miterlimit="10" x1="33.014" y1="91.909" x2="95.273" y2="91.909"/>
				
					<line fill="none" stroke="#8E8F90" stroke-width="0.5" stroke-miterlimit="10" x1="33.014" y1="95.704" x2="95.273" y2="95.704"/>
				
					<line fill="none" stroke="#8E8F90" stroke-width="0.5" stroke-miterlimit="10" x1="33.014" y1="99.498" x2="95.273" y2="99.498"/>
			</g>
			<g>
				
					<line fill="none" stroke="#8E8F90" stroke-width="0.5" stroke-miterlimit="10" x1="92.523" y1="24.321" x2="92.523" y2="102.574"/>
				
					<line fill="none" stroke="#8E8F90" stroke-width="0.5" stroke-miterlimit="10" x1="88.73" y1="24.321" x2="88.73" y2="102.574"/>
				
					<line fill="none" stroke="#8E8F90" stroke-width="0.5" stroke-miterlimit="10" x1="84.934" y1="24.321" x2="84.934" y2="102.574"/>
				
					<line fill="none" stroke="#8E8F90" stroke-width="0.5" stroke-miterlimit="10" x1="81.139" y1="24.321" x2="81.139" y2="102.574"/>
				
					<line fill="none" stroke="#8E8F90" stroke-width="0.5" stroke-miterlimit="10" x1="77.344" y1="24.321" x2="77.344" y2="102.574"/>
				
					<line fill="none" stroke="#8E8F90" stroke-width="0.5" stroke-miterlimit="10" x1="73.549" y1="24.321" x2="73.549" y2="102.574"/>
				
					<line fill="none" stroke="#8E8F90" stroke-width="0.5" stroke-miterlimit="10" x1="69.754" y1="24.321" x2="69.754" y2="102.574"/>
				
					<line fill="none" stroke="#8E8F90" stroke-width="0.5" stroke-miterlimit="10" x1="65.959" y1="24.321" x2="65.959" y2="102.574"/>
				
					<line fill="none" stroke="#8E8F90" stroke-width="0.5" stroke-miterlimit="10" x1="62.164" y1="24.321" x2="62.164" y2="102.574"/>
				
					<line fill="none" stroke="#8E8F90" stroke-width="0.5" stroke-miterlimit="10" x1="58.369" y1="24.321" x2="58.369" y2="102.574"/>
				
					<line fill="none" stroke="#8E8F90" stroke-width="0.5" stroke-miterlimit="10" x1="54.574" y1="24.321" x2="54.574" y2="102.574"/>
				
					<line fill="none" stroke="#8E8F90" stroke-width="0.5" stroke-miterlimit="10" x1="50.779" y1="24.321" x2="50.779" y2="102.574"/>
				
					<line fill="none" stroke="#8E8F90" stroke-width="0.5" stroke-miterlimit="10" x1="46.984" y1="24.321" x2="46.984" y2="102.574"/>
				
					<line fill="none" stroke="#8E8F90" stroke-width="0.5" stroke-miterlimit="10" x1="43.189" y1="24.321" x2="43.189" y2="102.574"/>
				
					<line fill="none" stroke="#8E8F90" stroke-width="0.5" stroke-miterlimit="10" x1="39.394" y1="24.321" x2="39.394" y2="102.574"/>
			</g>
		</g>
		<g>
			<path fill="#F1B182" d="M93.359,82.172c1.113,0.961,1.514,2.338,0.891,3.055l-3.752,4.34c-0.619,0.725-2.041,0.526-3.152-0.435
				L45.369,52.858c-1.113-0.961-1.516-2.337-0.893-3.058l3.752-4.34c0.623-0.722,2.041-0.524,3.156,0.438L93.359,82.172z"/>
			<g>
				<g>
					<g>
						
							<rect x="88.072" y="86.046" transform="matrix(-0.7529 -0.6581 0.6581 -0.7529 97.1442 211.3075)" fill="#44485A" width="0.329" height="2.746"/>
					</g>
					<g>
						
							<rect x="86.832" y="85.892" transform="matrix(-0.7518 -0.6593 0.6593 -0.7518 95.1259 209.5414)" fill="#44485A" width="0.327" height="1.955"/>
					</g>
					<g>
						
							<rect x="86.084" y="84.326" transform="matrix(-0.7559 -0.6547 0.6547 -0.7559 95.3341 206.9449)" fill="#44485A" width="0.328" height="2.746"/>
					</g>
					<g>
						
							<rect x="84.843" y="84.173" transform="matrix(-0.7603 -0.6496 0.6496 -0.7603 94.3261 205.1092)" fill="#44485A" width="0.326" height="1.956"/>
					</g>
					<g>
						
							<rect x="84.095" y="82.608" transform="matrix(-0.7574 -0.653 0.653 -0.7574 93.2329 202.6073)" fill="#44485A" width="0.328" height="2.749"/>
					</g>
					<g>
						
							<rect x="82.857" y="82.456" transform="matrix(-0.7593 -0.6508 0.6508 -0.7593 91.7548 200.8095)" fill="#44485A" width="0.324" height="1.955"/>
					</g>
					<g>
						
							<rect x="82.556" y="79.683" transform="matrix(-0.7529 -0.6581 0.6581 -0.7529 91.2105 197.7293)" fill="#44485A" width="0.329" height="4.12"/>
					</g>
					<g>
						
							<rect x="81.003" y="79.939" transform="matrix(-0.7584 -0.6518 0.6518 -0.7584 89.7315 195.8815)" fill="#44485A" width="0.33" height="2.745"/>
					</g>
					<g>
						
							<rect x="79.764" y="79.786" transform="matrix(-0.7559 -0.6547 0.6547 -0.7559 87.4689 194.1373)" fill="#44485A" width="0.328" height="1.951"/>
					</g>
					<g>
						
							<rect x="79.018" y="78.22" transform="matrix(-0.7588 -0.6513 0.6513 -0.7588 87.4293 191.5619)" fill="#44485A" width="0.327" height="2.747"/>
					</g>
					<g>
						
							<rect x="77.775" y="78.066" transform="matrix(-0.7544 -0.6564 0.6564 -0.7544 84.8543 189.8335)" fill="#44485A" width="0.329" height="1.953"/>
					</g>
					<g>
						
							<rect x="77.026" y="76.5" transform="matrix(-0.7555 -0.6552 0.6552 -0.7555 84.4895 187.2798)" fill="#44485A" width="0.331" height="2.747"/>
					</g>
					<g>
						
							<rect x="75.786" y="76.348" transform="matrix(-0.7599 -0.6501 0.6501 -0.7599 83.3978 185.4554)" fill="#44485A" width="0.329" height="1.954"/>
					</g>
					<g>
						
							<rect x="75.49" y="73.577" transform="matrix(-0.7559 -0.6547 0.6547 -0.7559 83.3203 182.3414)" fill="#44485A" width="0.328" height="4.12"/>
					</g>
					<g>
						
							<rect x="73.938" y="73.831" transform="matrix(-0.7603 -0.6496 0.6496 -0.7603 81.5928 180.5151)" fill="#44485A" width="0.326" height="2.746"/>
					</g>
					<g>
						
							<rect x="72.697" y="73.678" transform="matrix(-0.7588 -0.6513 0.6513 -0.7588 79.5276 178.759)" fill="#44485A" width="0.327" height="1.955"/>
					</g>
					<g>
						
							<rect x="71.948" y="72.112" transform="matrix(-0.7559 -0.6547 0.6547 -0.7559 78.5098 176.2441)" fill="#44485A" width="0.328" height="2.746"/>
					</g>
					<g>
						
							<rect x="70.708" y="71.958" transform="matrix(-0.7588 -0.6513 0.6513 -0.7588 77.1482 174.4404)" fill="#44485A" width="0.327" height="1.957"/>
					</g>
					<g>
						
							<rect x="69.961" y="70.395" transform="matrix(-0.7574 -0.653 0.653 -0.7574 76.3707 171.9129)" fill="#44485A" width="0.328" height="2.745"/>
					</g>
					<g>
						
							<rect x="68.721" y="70.24" transform="matrix(-0.7518 -0.6593 0.6593 -0.7518 73.7175 170.181)" fill="#44485A" width="0.327" height="1.955"/>
					</g>
					<g>
						
							<rect x="68.419" y="67.469" transform="matrix(-0.757 -0.6535 0.6535 -0.757 75.0647 166.9755)" fill="#44485A" width="0.33" height="4.119"/>
					</g>
					<g>
						
							<rect x="66.87" y="67.725" transform="matrix(-0.7574 -0.653 0.653 -0.7574 72.6828 165.2018)" fill="#44485A" width="0.328" height="2.745"/>
					</g>
					<g>
						
							<rect x="65.631" y="67.571" transform="matrix(-0.7548 -0.656 0.656 -0.7548 70.4908 163.4456)" fill="#44485A" width="0.326" height="1.953"/>
					</g>
					<g>
						
							<rect x="64.883" y="66.005" transform="matrix(-0.7578 -0.6525 0.6525 -0.7578 70.3689 160.8803)" fill="#44485A" width="0.325" height="2.749"/>
					</g>
					<g>
						
							<rect x="63.639" y="65.851" transform="matrix(-0.7555 -0.6552 0.6552 -0.7555 68.2258 159.1163)" fill="#44485A" width="0.331" height="1.952"/>
					</g>
					<g>
						
							<rect x="62.892" y="64.286" transform="matrix(-0.7555 -0.6552 0.6552 -0.7555 67.6795 156.5765)" fill="#44485A" width="0.331" height="2.746"/>
					</g>
					<g>
						
							<rect x="61.654" y="64.133" transform="matrix(-0.7578 -0.6525 0.6525 -0.7578 66.1718 154.7861)" fill="#44485A" width="0.325" height="1.955"/>
					</g>
					<g>
						
							<rect x="61.353" y="61.362" transform="matrix(-0.7628 -0.6466 0.6466 -0.7628 67.4338 151.5807)" fill="#44485A" width="0.328" height="4.122"/>
					</g>
					<g>
						
							<rect x="59.804" y="61.616" transform="matrix(-0.7548 -0.656 0.656 -0.7548 63.9127 149.8685)" fill="#44485A" width="0.326" height="2.746"/>
					</g>
					<g>
						
							<rect x="58.561" y="61.463" transform="matrix(-0.7574 -0.653 0.653 -0.7574 62.4272 148.0785)" fill="#44485A" width="0.328" height="1.955"/>
					</g>
					<g>
						
							<rect x="57.813" y="59.896" transform="matrix(-0.7544 -0.6564 0.6564 -0.7544 61.4981 145.549)" fill="#44485A" width="0.329" height="2.747"/>
					</g>
					<g>
						
							<rect x="56.572" y="59.744" transform="matrix(-0.7559 -0.6547 0.6547 -0.7559 59.8669 143.7655)" fill="#44485A" width="0.328" height="1.955"/>
					</g>
					<g>
						
							<rect x="55.825" y="58.181" transform="matrix(-0.7559 -0.6547 0.6547 -0.7559 59.3198 141.2256)" fill="#44485A" width="0.328" height="2.746"/>
					</g>
					<g>
						
							<rect x="54.586" y="58.027" transform="matrix(-0.7548 -0.656 0.656 -0.7548 57.3704 139.4533)" fill="#44485A" width="0.326" height="1.953"/>
					</g>
					<g>
						
							<rect x="54.284" y="55.254" transform="matrix(-0.7595 -0.6505 0.6505 -0.7595 58.5165 136.2649)" fill="#44485A" width="0.332" height="4.12"/>
					</g>
					<g>
						
							<rect x="52.735" y="55.509" transform="matrix(-0.7544 -0.6564 0.6564 -0.7544 55.4691 134.5179)" fill="#44485A" width="0.329" height="2.747"/>
					</g>
					<g>
						
							<rect x="51.495" y="55.356" transform="matrix(-0.7563 -0.6542 0.6542 -0.7563 53.869 132.7361)" fill="#44485A" width="0.325" height="1.956"/>
					</g>
					<g>
						
							<rect x="50.746" y="53.789" transform="matrix(-0.7574 -0.653 0.653 -0.7574 53.4448 130.1862)" fill="#44485A" width="0.328" height="2.749"/>
					</g>
					<g>
						
							<rect x="49.503" y="53.638" transform="matrix(-0.7555 -0.6552 0.6552 -0.7555 51.4112 128.4173)" fill="#44485A" width="0.331" height="1.955"/>
					</g>
					<g>
						
							<rect x="48.759" y="52.073" transform="matrix(-0.7533 -0.6577 0.6577 -0.7533 50.627 125.8824)" fill="#44485A" width="0.327" height="2.747"/>
					</g>
					<g>
						
							<rect x="47.516" y="51.919" transform="matrix(-0.7555 -0.6552 0.6552 -0.7555 49.0492 124.0963)" fill="#44485A" width="0.331" height="1.952"/>
					</g>
					<g>
						
							<rect x="47.219" y="49.149" transform="matrix(-0.7574 -0.653 0.653 -0.7574 49.829 120.9314)" fill="#44485A" width="0.328" height="4.119"/>
					</g>
				</g>
			</g>
		</g>
		<g>
			<path fill="#BBBDBF" d="M39.642,64.574v36.873H89.02L39.642,64.574z M46.558,78.373L68.197,94.53H46.558V78.373z"/>
			<rect x="40.251" y="70.25" fill="#58595B" width="3.041" height="0.146"/>
			<rect x="40.251" y="71.839" fill="#58595B" width="1.729" height="0.146"/>
			<rect x="40.251" y="73.497" fill="#58595B" width="3.041" height="0.147"/>
			<rect x="40.251" y="75.088" fill="#58595B" width="1.729" height="0.146"/>
			<rect x="40.251" y="76.745" fill="#58595B" width="3.041" height="0.146"/>
			<rect x="40.251" y="78.333" fill="#58595B" width="1.729" height="0.147"/>
			<rect x="40.251" y="79.991" fill="#58595B" width="3.041" height="0.149"/>
			<rect x="40.251" y="81.582" fill="#58595B" width="1.729" height="0.148"/>
			<rect x="40.251" y="83.24" fill="#58595B" width="3.041" height="0.148"/>
			<rect x="40.251" y="84.83" fill="#58595B" width="1.729" height="0.146"/>
			<rect x="40.251" y="86.488" fill="#58595B" width="3.041" height="0.147"/>
			<rect x="40.251" y="88.079" fill="#58595B" width="1.729" height="0.146"/>
			<rect x="40.251" y="89.735" fill="#58595B" width="3.041" height="0.147"/>
			<rect x="40.251" y="91.324" fill="#58595B" width="1.729" height="0.148"/>
			<rect x="40.251" y="92.984" fill="#58595B" width="3.041" height="0.146"/>
			<rect x="40.251" y="94.574" fill="#58595B" width="1.729" height="0.145"/>
			<rect x="40.251" y="96.232" fill="#58595B" width="3.041" height="0.146"/>
			<rect x="40.251" y="97.821" fill="#58595B" width="1.729" height="0.146"/>
			<rect x="40.251" y="99.479" fill="#58595B" width="3.041" height="0.146"/>
		</g>
		<g>
			
				<rect x="71.616" y="35.143" transform="matrix(0.8581 0.5135 -0.5135 0.8581 42.0236 -29.268)" fill="#04786C" width="4.693" height="52.503"/>
			
				<rect x="71.846" y="34.311" transform="matrix(0.8591 0.5118 -0.5118 0.8591 41.2253 -28.6127)" fill="#0EBDE1" width="1.46" height="52.503"/>
			
				<rect x="73.088" y="35.095" transform="matrix(-0.8575 -0.5144 0.5144 -0.8575 105.6807 151.9553)" fill="#07AAAE" width="1.585" height="52.499"/>
			<polygon fill="#DEBEA1" points="62.486,85.12 58.46,82.71 55.576,91.978 			"/>
			<polygon fill="#F1D7B7" points="61.072,84.272 58.46,82.71 55.576,91.978 			"/>
			<polygon fill="#FAF6C3" points="59.718,83.463 58.46,82.71 55.576,91.978 			"/>
			<polygon fill="#39454E" points="56.527,88.92 55.576,91.978 57.857,89.715 			"/>
			<path fill="#E76165" d="M89.459,40.079l1.838-3.07c0.328-0.547,0.295-1.175-0.07-1.396l-2.684-1.606
				c-0.369-0.219-0.939,0.046-1.264,0.593l-1.84,3.07L89.459,40.079z"/>
			<path fill="#A22163" d="M91.227,35.613l-2.109-1.261l-2.432,4.064l2.773,1.662l1.838-3.07
				C91.625,36.462,91.592,35.834,91.227,35.613z"/>
			<path fill="#802149" d="M91.227,35.613l-0.744-0.443l-2.432,4.064l1.408,0.845l1.838-3.07
				C91.625,36.462,91.592,35.834,91.227,35.613z"/>
		</g>
		<g>
			<path fill="#D7362D" d="M91.326,95.545c0.516-0.293,0.699-0.957,0.406-1.473l-1.912-3.366c-0.293-0.518-0.957-0.7-1.473-0.407
				l-4.902,2.781l2.979,5.246L91.326,95.545z"/>
			<path fill="#FFFFFF" d="M83.445,93.08l-4.904,2.781c-0.516,0.293-0.699,0.957-0.406,1.473l1.912,3.368
				c0.295,0.517,0.957,0.699,1.475,0.403l4.902-2.779L83.445,93.08z"/>
			<path fill="#C82827" d="M91.1,95.438c-0.887,0.343-1.775,0.672-2.693,0.924c-0.846,0.23-1.707,0.4-2.553,0.632
				c-0.053,0.017-0.107,0.031-0.16,0.046l0.73,1.287l4.902-2.781c0.135-0.076,0.244-0.179,0.334-0.297
				C91.469,95.311,91.281,95.373,91.1,95.438z"/>
			<path fill="#E6E7E8" d="M80.621,98.593c-0.518,0.138-1.041,0.258-1.564,0.364l0.99,1.745c0.295,0.517,0.957,0.699,1.475,0.403
				l4.902-2.779l-0.73-1.287C83.99,97.518,82.33,98.142,80.621,98.593z"/>
		</g>
		<g>
			<path fill="#CB4D43" d="M66.369,96.088c0.758,0.87,1.098,1.885,0.934,2.586l1.088,1.248c0.453,0.521,1.248,0.575,1.766,0.119
				l4.049-3.546c0.518-0.454,0.57-1.25,0.119-1.771l-1.09-1.248c-0.715,0.071-1.674-0.401-2.432-1.27
				c-0.76-0.871-1.1-1.886-0.934-2.589l-1.088-1.245c-0.453-0.521-1.25-0.575-1.768-0.12l-4.049,3.547
				c-0.518,0.453-0.57,1.25-0.117,1.77l1.088,1.246C64.652,94.747,65.611,95.221,66.369,96.088z"/>
			<path fill="#FFF9FB" d="M64.298,91.73c-0.152-0.176-0.135-0.439,0.039-0.592l1.864-1.633c0.174-0.151,0.438-0.133,0.59,0.04
				l5.598,6.417c0.15,0.174,0.133,0.44-0.039,0.59l-1.863,1.633c-0.174,0.151-0.438,0.135-0.59-0.038L64.298,91.73z"/>
			<polygon fill="#D2D3D2" points="64.351,91.428 66.41,89.625 72.26,96.33 70.201,98.133 			"/>
			
				<rect x="68.709" y="88.765" transform="matrix(-0.7507 0.6606 -0.6606 -0.7507 182.4952 117.5636)" fill="#BDB9BA" width="0.715" height="8.898"/>
			<circle fill="#484860" cx="68.137" cy="94.236" r="0.854"/>
		</g>
	</g>
</g>
</svg>
