<?xml version="1.0" encoding="utf-8"?>
<!-- Generator: Adobe Illustrator 16.0.0, SVG Export Plug-In . SVG Version: 6.00 Build 0)  -->
<!DOCTYPE svg PUBLIC "-//W3C//DTD SVG 1.1//EN" "http://www.w3.org/Graphics/SVG/1.1/DTD/svg11.dtd">
<svg version="1.1" id="Layer_1" xmlns="http://www.w3.org/2000/svg" xmlns:xlink="http://www.w3.org/1999/xlink" x="0px" y="0px"
	 width="128px" height="128px" viewBox="0 0 128 128" enable-background="new 0 0 128 128" xml:space="preserve">
<g>
	<circle fill="#91D7EE" cx="64" cy="64" r="64"/>
	<path fill="#4ABDE5" d="M99.071,25.625l-22.082,2.071l9.627,14.426l-12.902-9.217L64,24.536l-0.424,8.83l-8.755,0.69l-5.068-7.833
		L27.06,44.513l6.104,10.741l0.691,9.446l1.61,20.963l15.207,16.358l-8.063,2.768l-1.75,1.417l21.978,21.765
		C63.226,127.978,63.61,128,64,128c35.347,0,64-28.653,64-64c0-3.616-0.315-7.157-0.892-10.608L99.071,25.625z"/>
	<g>
		<circle fill="#CF7C3F" cx="64" cy="65.798" r="34.319"/>
		<circle fill="#FFFFFF" cx="64" cy="65.798" r="26.222"/>
		<rect x="40.67" y="100.116" fill="#AB5B30" width="46.66" height="6.17"/>
		<g>
			<path fill="#AB5B30" d="M51.011,27.696c-4.704-6.412-13.707-7.912-20.248-3.318c-6.54,4.592-8.164,13.553-3.703,20.135
				L51.011,27.696z"/>
			<path fill="#AB5B30" d="M76.989,27.696c4.704-6.412,13.707-7.912,20.248-3.318c6.54,4.592,8.164,13.553,3.703,20.135
				L76.989,27.696z"/>
		</g>
		<path fill="#AB5B30" d="M68.431,32.235c-0.099-4.283-2.044-7.699-4.431-7.699c-2.386,0-4.332,3.416-4.43,7.699H68.431z"/>
		<g>
			<polygon fill="#AB5B30" points="63.092,67.385 54.977,44.987 57.601,44.036 64.909,64.208 80.327,61.339 80.837,64.083 			"/>
		</g>
		<g>
			
				<rect x="43.191" y="60.031" transform="matrix(0.7963 0.605 -0.605 0.7963 48.1001 -22.3591)" fill="#AB5B30" width="28.108" height="0.399"/>
		</g>
	</g>
</g>
</svg>
