<?xml version="1.0" encoding="utf-8"?>
<!-- Generator: Adobe Illustrator 16.0.0, SVG Export Plug-In . SVG Version: 6.00 Build 0)  -->
<!DOCTYPE svg PUBLIC "-//W3C//DTD SVG 1.1//EN" "http://www.w3.org/Graphics/SVG/1.1/DTD/svg11.dtd">
<svg version="1.1" id="Layer_1" xmlns="http://www.w3.org/2000/svg" xmlns:xlink="http://www.w3.org/1999/xlink" x="0px" y="0px"
	 width="128px" height="128px" viewBox="0 0 128 128" enable-background="new 0 0 128 128" xml:space="preserve">
<g>
	<circle fill="#AEB4AD" cx="64" cy="64" r="64"/>
	<path fill="#82898B" d="M88.185,22.2l-3.936,3.22l-0.696,19.952l-6.406-8.135l-3.105,0.942c0,0-28.769,17.4-32.48,19.721
		s-6.729,8.352-6.729,8.352L32.28,99.429l-5.313,2.885l24.731,24.493C55.681,127.582,59.791,128,64,128c35.347,0,64-28.653,64-64
		c0-0.815-0.031-1.622-0.062-2.431L88.185,22.2z"/>
	<path fill="#E3E5E5" d="M104.528,100.315L89.074,75.257V53.661H72.767v21.596l-15.455,25.059c-1.813,2.941-0.267,5.348,3.438,5.348
		h40.34C104.795,105.663,106.342,103.257,104.528,100.315z"/>
	<path fill="#EDC55D" d="M87.277,75.767v-6.014H74.563v6.014l-15.722,25.492c-0.464,0.752-0.61,1.432-0.393,1.822
		c0.212,0.381,0.929,0.785,2.302,0.785h40.34c1.373,0,2.09-0.404,2.301-0.785c0.219-0.391,0.071-1.07-0.392-1.822L87.277,75.767z"/>
	<path fill="#E3E5E5" d="M30.276,80.735v-12.23h11.015v12.23c4.467,2.08,7.563,6.607,7.563,11.857c0,7.219-5.852,13.07-13.071,13.07
		c-7.219,0-13.071-5.852-13.071-13.07C22.712,87.343,25.81,82.815,30.276,80.735z"/>
	<path fill="#00AFCC" d="M46.533,88.134c0.579,1.393,0.894,2.904,0.894,4.459c0,6.42-5.223,11.645-11.644,11.645
		c-6.42,0-11.643-5.225-11.643-11.645c0-1.555,0.313-3.066,0.894-4.459H46.533z"/>
	<circle fill="#FFFFFF" cx="43.795" cy="94.925" r="1.324"/>
	<circle fill="#FFFFFF" cx="83.574" cy="99.198" r="1.324"/>
	<path fill="#FFFFFF" d="M69.759,94.261c0,1.553,1.259,2.811,2.812,2.811c1.554,0,2.814-1.258,2.814-2.811
		c0-1.555-1.261-2.816-2.814-2.816C71.018,91.444,69.759,92.706,69.759,94.261z"/>
	<circle fill="#FFFFFF" cx="37.615" cy="98.013" r="0.735"/>
	<circle fill="#FFFFFF" cx="31.297" cy="95.944" r="1.021"/>
	<circle fill="#FFFFFF" cx="90.433" cy="90.665" r="1.787"/>
	<g>
		<path fill="#2B414D" d="M35.767,88.128h-2.245V68.44c0-4.131,2.767-9.047,6.299-11.191l32.127-19.504
			c1.893-1.148,3.74-1.33,5.199-0.508c1.46,0.82,2.264,2.492,2.264,4.707v47.895h-2.245V41.944c0-1.348-0.408-2.352-1.119-2.752
			c-0.712-0.4-1.78-0.229-2.934,0.473L40.984,59.169c-2.828,1.717-5.218,5.963-5.218,9.271V88.128z"/>
	</g>
	<polygon fill="#2B414D" points="88.251,22.337 79.479,22.337 82.742,27.511 82.742,89.747 84.987,89.747 84.987,27.511 	"/>
	<rect x="27.947" y="65.616" fill="#D7DADA" width="15.673" height="3.42"/>
	<rect x="70.954" y="51.124" fill="#D7DADA" width="19.932" height="4.35"/>
</g>
</svg>
