<?xml version="1.0" encoding="utf-8"?>
<!-- Generator: Adobe Illustrator 16.0.0, SVG Export Plug-In . SVG Version: 6.00 Build 0)  -->
<!DOCTYPE svg PUBLIC "-//W3C//DTD SVG 1.1//EN" "http://www.w3.org/Graphics/SVG/1.1/DTD/svg11.dtd">
<svg version="1.1" id="Layer_1" xmlns="http://www.w3.org/2000/svg" xmlns:xlink="http://www.w3.org/1999/xlink" x="0px" y="0px"
	 width="128px" height="128px" viewBox="0 0 128 128" enable-background="new 0 0 128 128" xml:space="preserve">
<g>
	<circle fill="#3CB19C" cx="64" cy="64" r="64"/>
	<path fill="#358D7E" d="M96.46,30.913L38.128,95.301l-5.089,3.253l29.701,29.414C63.161,127.976,63.578,128,64,128
		c35.346,0,64-28.654,64-64c0-0.638-0.029-1.267-0.048-1.899L96.46,30.913z"/>
	<g>
		<circle fill="#FFFFFF" cx="64" cy="64" r="46.178"/>
		<polygon fill="#233640" points="53.086,78.985 46.369,58.313 63.954,45.537 81.539,58.313 74.822,78.985 		"/>
		<path fill="#233640" d="M77.77,108.09c9.824-3.066,18.23-9.332,24.022-17.569H83.478L77.77,108.09z"/>
		<path fill="#233640" d="M101.49,37.055l-5.539,17.047l14.216,10.328c0.001-0.144,0.011-0.285,0.011-0.43
			C110.178,53.94,106.951,44.64,101.49,37.055z"/>
		<path fill="#233640" d="M48.811,107.607L43.804,92.2H27.445C32.869,99.221,40.266,104.633,48.811,107.607z"/>
		<path fill="#233640" d="M27.123,36.209C21.286,43.943,17.822,53.565,17.822,64c0,0.356,0.019,0.709,0.026,1.063l15.087-10.961
			L27.123,36.209z"/>
		<path fill="#233640" d="M64,17.823c-5.419,0-10.616,0.941-15.447,2.655l15.401,11.189l15.433-11.213
			C74.574,18.754,69.396,17.823,64,17.823z"/>
		<g>
			<polygon fill="#233640" points="103.393,52.946 102.736,50.829 65.399,62.406 65.063,61.916 65.063,27.18 62.846,27.18 
				62.846,62.451 27.793,50.836 27.097,52.939 63.988,65.164 64.498,65.006 84.797,94.494 86.621,93.239 66.715,64.318 			"/>
			
				<rect x="46.939" y="71.748" transform="matrix(-0.7938 -0.6082 0.6082 -0.7938 33.9094 183.3981)" fill="#233640" width="2.216" height="28.403"/>
		</g>
	</g>
</g>
</svg>
