<?xml version="1.0" encoding="utf-8"?>
<!-- Generator: Adobe Illustrator 16.0.0, SVG Export Plug-In . SVG Version: 6.00 Build 0)  -->
<!DOCTYPE svg PUBLIC "-//W3C//DTD SVG 1.1//EN" "http://www.w3.org/Graphics/SVG/1.1/DTD/svg11.dtd">
<svg version="1.1" id="Layer_1" xmlns="http://www.w3.org/2000/svg" xmlns:xlink="http://www.w3.org/1999/xlink" x="0px" y="0px"
	 width="128px" height="128px" viewBox="0 0 128 128" enable-background="new 0 0 128 128" xml:space="preserve">
<g>
	<circle fill="#E08F78" cx="64" cy="64" r="64"/>
	<path fill="#E4776E" d="M67.865,15.521l3.336,27.532L48.646,19.246l-14.548,65.72l-7.488,11.651l31.396,31.094
		C59.98,127.895,61.978,128,64,128c31.854,0,58.264-23.277,63.172-53.747L67.865,15.521z"/>
	<g>
		<path fill="#C8574B" d="M52.334,34.507c0,3.078-2.476,1.958-5.504,1.958c-3.027,0-5.505,1.12-5.505-1.958v-9.984
			c0-3.078,2.478-5.598,5.505-5.598c3.028,0,5.504,2.52,5.504,5.598V34.507z"/>
		<rect x="37.468" y="33.049" fill="#BD3929" width="18.725" height="4.291"/>
		<rect x="35.53" y="36.804" fill="#AEB4AD" width="22.6" height="7.137"/>
		<path fill="#D7DADA" d="M69.576,90.221c0,4.618-3.777,8.397-8.396,8.397H32.479c-4.617,0-8.396-3.779-8.396-8.397v-40
			c0-4.618,3.779-8.396,8.396-8.396h28.701c4.618,0,8.396,3.777,8.396,8.396V90.221z"/>
		<rect x="31.343" y="60.425" fill="#F2B359" width="30.975" height="19.592"/>
		<g>
			<path fill="#82898B" d="M67.253,16.044l10.075,68.922l7.947-1.162l-6.643-45.441C78.633,38.362,74.915,20.234,67.253,16.044z"/>
			<polygon fill="#697578" points="75.169,70.192 84.101,75.772 82.286,63.347 73.778,60.683 			"/>
			<path fill="#1F84A6" d="M75.55,84.401c-5.018,3.73-6.057,10.824-2.324,15.84c3.734,5.016,10.826,6.057,15.843,2.324
				c5.015-3.732,6.055-10.824,2.321-15.841C87.656,81.71,80.563,80.669,75.55,84.401z M86.667,99.339
				c-3.234,2.408-7.809,1.737-10.216-1.498c-2.405-3.234-1.736-7.809,1.498-10.215s7.809-1.735,10.216,1.498
				C90.572,92.36,89.902,96.934,86.667,99.339z"/>
			<path fill="#AEB4AD" d="M32.894,41.614l63.127,29.44l-3.396,7.279L51.004,58.923C51.004,58.923,34.707,50.155,32.894,41.614z"/>
			<path fill="#1F84A6" d="M93.667,85.029c3.734,5.017,10.826,6.058,15.842,2.325s6.056-10.825,2.322-15.842
				c-3.733-5.016-10.826-6.057-15.841-2.324C90.975,72.921,89.936,80.014,93.667,85.029z M96.894,82.63
				c-2.408-3.234-1.736-7.809,1.497-10.216c3.234-2.407,7.809-1.735,10.216,1.499s1.736,7.809-1.498,10.215
				C103.874,86.536,99.3,85.864,96.894,82.63z"/>
			<circle fill="#EDF2F2" cx="78.723" cy="67.399" r="2.645"/>
		</g>
		<g>
			<path fill="#AB3326" d="M40.653,73.837c-0.463,0.166-1.375,0.438-2.454,0.438c-1.208,0-2.204-0.308-2.987-1.055
				c-0.688-0.664-1.114-1.73-1.114-2.977c0.013-2.382,1.648-4.123,4.327-4.123c0.925,0,1.647,0.201,1.99,0.367l-0.247,0.842
				c-0.428-0.19-0.96-0.344-1.768-0.344c-1.943,0-3.212,1.208-3.212,3.213c0,2.025,1.222,3.223,3.082,3.223
				c0.676,0,1.139-0.095,1.375-0.213v-2.383h-1.624v-0.829h2.632V73.837z"/>
			<path fill="#AB3326" d="M42.231,66.202h1.03v7.124h3.414v0.866h-4.444V66.202z"/>
			<path fill="#AB3326" d="M48.431,66.202v4.73c0,1.789,0.794,2.549,1.861,2.549c1.185,0,1.943-0.783,1.943-2.549v-4.73h1.043v4.66
				c0,2.452-1.292,3.46-3.022,3.46c-1.636,0-2.869-0.938-2.869-3.415v-4.705H48.431z"/>
			<path fill="#AB3326" d="M59.206,70.446h-3.105v2.88h3.461v0.866h-4.492v-7.99h4.314v0.865h-3.283v2.525h3.105V70.446z"/>
		</g>
	</g>
</g>
</svg>
