<?xml version="1.0" encoding="utf-8"?>
<!-- Generator: Adobe Illustrator 16.0.0, SVG Export Plug-In . SVG Version: 6.00 Build 0)  -->
<!DOCTYPE svg PUBLIC "-//W3C//DTD SVG 1.1//EN" "http://www.w3.org/Graphics/SVG/1.1/DTD/svg11.dtd">
<svg version="1.1" id="Layer_1" xmlns="http://www.w3.org/2000/svg" xmlns:xlink="http://www.w3.org/1999/xlink" x="0px" y="0px"
	 width="128px" height="128px" viewBox="0 0 128 128" enable-background="new 0 0 128 128" xml:space="preserve">
<g>
	<circle fill="#455D6A" cx="64" cy="64" r="64"/>
	<path fill="#334E5C" d="M98.422,28.964l-66.5,67.846l-2.093,2.468l28.756,28.478C60.372,127.905,62.175,128,64,128
		c35.346,0,64-28.653,64-64c0-2.036-0.105-4.046-0.291-6.033L98.422,28.964z"/>
	<g>
		<rect x="29.613" y="29.612" fill="#EECE7B" width="68.773" height="68.775"/>
		<rect x="39.439" y="39.438" fill="#CF7C3F" width="49.122" height="49.123"/>
		<g>
			
				<line fill="#EECE7B" stroke="#EECE7B" stroke-width="2" stroke-miterlimit="10" x1="36.479" y1="47.087" x2="91.522" y2="47.087"/>
			
				<line fill="#EECE7B" stroke="#EECE7B" stroke-width="2" stroke-miterlimit="10" x1="36.479" y1="55.544" x2="91.522" y2="55.544"/>
			
				<line fill="#EECE7B" stroke="#EECE7B" stroke-width="2" stroke-miterlimit="10" x1="36.479" y1="64.001" x2="91.522" y2="64.001"/>
			
				<line fill="#EECE7B" stroke="#EECE7B" stroke-width="2" stroke-miterlimit="10" x1="36.479" y1="72.456" x2="91.522" y2="72.456"/>
			
				<line fill="#EECE7B" stroke="#EECE7B" stroke-width="2" stroke-miterlimit="10" x1="36.479" y1="80.913" x2="91.522" y2="80.913"/>
		</g>
		<g>
			
				<line fill="#EECE7B" stroke="#EECE7B" stroke-width="2" stroke-miterlimit="10" x1="80.913" y1="36.479" x2="80.913" y2="91.521"/>
			
				<line fill="#EECE7B" stroke="#EECE7B" stroke-width="2" stroke-miterlimit="10" x1="72.457" y1="36.479" x2="72.457" y2="91.521"/>
			<line fill="#EECE7B" stroke="#EECE7B" stroke-width="2" stroke-miterlimit="10" x1="64.001" y1="36.479" x2="64" y2="91.521"/>
			
				<line fill="#EECE7B" stroke="#EECE7B" stroke-width="2" stroke-miterlimit="10" x1="55.544" y1="36.479" x2="55.544" y2="91.521"/>
			
				<line fill="#EECE7B" stroke="#EECE7B" stroke-width="2" stroke-miterlimit="10" x1="47.088" y1="36.479" x2="47.088" y2="91.521"/>
		</g>
		<g>
			<path fill="#FFFFFF" d="M69.584,86.141c-0.03,0-0.061-0.001-0.091-0.005c-0.433-0.042-0.777-0.381-0.826-0.813l-4.291-37.375
				l-5.891,23.654c-0.102,0.41-0.469,0.698-0.891,0.699c-0.002,0-0.003,0-0.004,0c-0.421,0-0.788-0.283-0.894-0.691l-4.353-16.897
				l-2.473,9.219c-0.108,0.404-0.474,0.684-0.892,0.684h-9.542v-1.845h8.835l3.198-11.924c0.108-0.403,0.475-0.684,0.892-0.684
				c0.002,0,0.003,0,0.004,0c0.42,0.002,0.785,0.286,0.889,0.691l4.319,16.768l6.241-25.063c0.107-0.433,0.508-0.732,0.955-0.697
				c0.445,0.029,0.806,0.372,0.857,0.814l4.381,38.166l5.46-17.123c0.122-0.382,0.477-0.643,0.879-0.643h12.212v1.846H77.022
				l-6.561,20.576C70.34,85.884,69.981,86.141,69.584,86.141z"/>
		</g>
	</g>
</g>
</svg>
