<?xml version="1.0" encoding="utf-8"?>
<!-- Generator: Adobe Illustrator 16.0.0, SVG Export Plug-In . SVG Version: 6.00 Build 0)  -->
<!DOCTYPE svg PUBLIC "-//W3C//DTD SVG 1.1//EN" "http://www.w3.org/Graphics/SVG/1.1/DTD/svg11.dtd">
<svg version="1.1" id="Layer_1" xmlns="http://www.w3.org/2000/svg" xmlns:xlink="http://www.w3.org/1999/xlink" x="0px" y="0px"
	 width="128px" height="128px" viewBox="0 0 128 128" enable-background="new 0 0 128 128" xml:space="preserve">
<g>
	<circle fill="#E4776E" cx="64" cy="64" r="64"/>
	<path fill="#E1574C" d="M74.322,20.309L55.326,58.086L37.87,94.65l-3.79,7.841l25.594,25.347C61.105,127.934,62.545,128,64,128
		c32.342,0,59.064-23.993,63.377-55.15L74.322,20.309z"/>
	<g>
		<path fill="#358D7E" d="M26.353,90.992c0.063,0.17,0.127,0.341,0.19,0.511c0.072,0.158,0.144,0.314,0.198,0.426
			c0.427,0.878,0.872,1.748,1.363,2.591c0.581,0.997,1.19,1.98,1.852,2.928c0.224,0.318,0.451,0.636,0.68,0.95
			c0.005,0.007,0.01,0.012,0.016,0.019c1.277,1.546,2.634,3.031,4.103,4.396c0.773,0.719,1.563,1.422,2.385,2.086
			c0.387,0.28,0.775,0.56,1.17,0.825c1.579,1.056,3.212,2.036,4.936,2.838c0.072,0.033,0.136,0.063,0.193,0.092
			c0.339,0.128,0.678,0.253,1.021,0.366c0.918,0.301,1.845,0.582,2.781,0.821c1.591,0.407,3.194,0.733,4.813,0.996
			c4.525,0.502,9.079,0.478,13.601-0.031c2.007-0.316,4.001-0.715,5.961-1.247c1.155-0.316,2.306-0.652,3.438-1.043
			c0.639-0.222,1.277-0.446,1.906-0.693c0.081-0.031,0.183-0.074,0.294-0.121c1.84-0.839,3.626-1.788,5.275-2.966
			c0.06-0.043,0.115-0.083,0.165-0.119c0.297-0.246,0.592-0.494,0.877-0.754c0.782-0.712,1.546-1.448,2.258-2.23
			c0.39-0.428,1.674-2.044,1.667-1.989c0.368-0.514,0.729-1.033,1.073-1.565c1.157-1.797,2.216-3.655,3.165-5.57
			c0.479-0.963,0.942-1.932,1.381-2.913c0.163-0.366,0.321-0.733,0.481-1.102c0.021-0.048,0.038-0.095,0.055-0.135
			c0.359-0.892,0.707-1.786,1.051-2.683C90.738,68.729,77.12,56.238,60.926,56.238c-17.776,0-32.453,15.052-34.652,34.524
			C26.301,90.839,26.323,90.917,26.353,90.992z"/>
		<ellipse fill="#F2B359" cx="60.444" cy="66.143" rx="10.308" ry="7.975"/>
		<ellipse fill="#F9D096" cx="60.927" cy="43.713" rx="22.669" ry="23.204"/>
		<path fill="#233640" d="M51.606,28.346c-0.184,1.261,0.786,2.757,1.187,3.9c0.483,1.379,1.037,2.801,1.849,4.02
			c1.524,2.288,4.182,4.336,6.626,5.614c2.38,1.246,6.078,1.385,8.688,0.763c2.55-0.607,4.064-1.857,5.484-4.003
			c-2.185,1.527-4.867,2.38-7.494,1.083c-1.354-0.669-2.915-1.81-3.668-3.141c-0.61-1.079-1.648-2.694-1.451-3.945
			c2.108,3.618,5.559,4.839,9.345,5.927c3.788,1.088,7.857,0.879,11.804,0.521c0.255-1.063-0.6-2.197-0.956-3.147
			c-0.362-0.97-0.61-2.133-1.063-3.149c-1.088-2.44-1.986-4.687-3.554-6.922c-3.146-4.494-6.828-8.066-12.376-8.869
			c-3.978-0.575-8.999-0.096-10.875,4.208c-4.006-3.628-11.993,0.383-14.096,4.679c-2.256,4.607-3.158,9.923-3.158,15.104
			c0,2-0.072,4.021,0.016,6.016c4.831-0.233,10.34-3.056,12.462-7.632C51.737,36.437,52.955,31.53,51.606,28.346"/>
		<g>
			<path fill="#BD9038" d="M91.79,83.514c0,0,3.585,5.156,9.937,6.342c0,0-34.092,9.582-44.85,18.952l0.073-4.698l13.451-12.078
				L91.79,83.514z"/>
			
				<ellipse transform="matrix(0.5397 0.8419 -0.8419 0.5397 107.4658 4.1922)" fill="#C8A660" cx="49.899" cy="100.367" rx="10.533" ry="9.944"/>
			<path fill="#BD9038" d="M58.898,93.979L46.699,98.69c0,0,3.723,0.259,4.324,4.376c0.655,4.497-2.896,6.81-7.171,5.301
				c0,0,3.308,3.511,9.519,1.949c6.212-1.56,6.481-5.914,6.481-5.914l0.707-4.173L58.898,93.979z"/>
			<path fill="#B92025" d="M78.248,97.707c0,0,2.794,4.668,1.718,10.119l-2.405-2.908l-1.915,2.048c0,0,0.229-8.106-2.672-11.937
				L78.248,97.707z"/>
			<path fill="#E31E25" d="M78.797,92.767c0,0,9.276,6.506,17.213,5.494c0,0-3.045,1.833-4.73,1.812c0,0,1.787,2.671,3.928,3.139
				c0,0-14.287,0.395-21.613-8.041L78.797,92.767z"/>
			<path fill="#E1CAA3" d="M87.655,69.007c0,0,14.132-2.598,12.824,13.361c0,0-31.753,12.079-42.099,25.423
				c0,0,2.937-4.339-0.493-10.969c-1.354-2.616-3.919-5.783-8.194-6.348c-1.458-0.193-2.642-0.179-3.107-0.063
				c0,0,0.036,0.055,3.105-0.863C58.968,86.775,78.736,79.849,87.655,69.007z"/>
			<path fill="#E31E25" d="M66.107,83.388c0,0,10.31-0.049,9.263,11.263l5.021-2.822c0,0,0.44-9.638-8.438-11.218L66.107,83.388z"/>
		</g>
		<g>
			<g>
				<ellipse fill="#7B3A1A" cx="70.247" cy="49.754" rx="4.14" ry="2.75"/>
				<ellipse fill="#7B3A1A" cx="54.277" cy="49.754" rx="4.14" ry="2.75"/>
				<path fill="#7B3B1B" d="M55.326,58.086c0,0,0.229,0.092,0.625,0.249c0.194,0.074,0.429,0.166,0.7,0.27
					c0.28,0.082,0.567,0.212,0.899,0.311c0.328,0.105,0.678,0.217,1.049,0.318c0.368,0.112,0.767,0.174,1.16,0.279
					c0.404,0.051,0.812,0.17,1.233,0.188c0.209,0.017,0.419,0.05,0.631,0.073c0.213-0.002,0.425,0.004,0.638,0.012
					c0.425,0.037,0.846-0.034,1.268-0.05c0.421-0.017,0.825-0.135,1.234-0.177c0.398-0.077,0.783-0.194,1.157-0.283
					c0.378-0.081,0.712-0.24,1.042-0.343c0.317-0.123,0.645-0.19,0.896-0.326c0.256-0.121,0.498-0.208,0.692-0.29
					c0.396-0.156,0.64-0.234,0.64-0.234l0.135,0.166c0,0-0.145,0.201-0.431,0.534c-0.144,0.163-0.316,0.373-0.529,0.593
					c-0.204,0.235-0.478,0.447-0.784,0.676c-0.314,0.21-0.617,0.522-1.022,0.699c-0.399,0.191-0.805,0.446-1.268,0.61
					c-0.468,0.142-0.95,0.329-1.465,0.41c-0.516,0.063-1.042,0.18-1.575,0.144c-0.267-0.002-0.531-0.005-0.796-0.017
					c-0.261-0.038-0.522-0.07-0.778-0.116c-0.518-0.063-0.997-0.253-1.469-0.387c-0.448-0.194-0.891-0.362-1.269-0.603
					c-0.191-0.111-0.375-0.22-0.556-0.325c-0.167-0.123-0.328-0.243-0.483-0.357c-0.613-0.46-1.045-0.934-1.32-1.285
					c-0.28-0.346-0.397-0.579-0.397-0.579L55.326,58.086z"/>
				<path fill="#7B3A1A" d="M67.42,45.645c0,0,0.062-0.176,0.21-0.414c0.073-0.12,0.168-0.255,0.285-0.394
					c0.104-0.149,0.265-0.282,0.468-0.409c0.195-0.134,0.425-0.255,0.672-0.368c0.248-0.106,0.511-0.152,0.784-0.232
					c0.538-0.172,1.144-0.21,1.735-0.277c0.301,0.002,0.598-0.009,0.892,0.004c0.293-0.001,0.581,0.049,0.858,0.092
					c0.554,0.07,1.058,0.227,1.472,0.391c0.21,0.072,0.397,0.145,0.552,0.249c0.156,0.092,0.293,0.173,0.402,0.237
					c0.213,0.141,0.336,0.221,0.336,0.221l-0.083,0.197c0,0-0.143-0.007-0.394-0.019c-0.25-0.004-0.574-0.083-0.985-0.057
					c-0.204,0.007-0.421,0.005-0.645-0.003c-0.226-0.006-0.47,0.05-0.712,0.055c-0.488,0.003-1.006,0.137-1.517,0.183
					c-0.255,0.058-0.506,0.127-0.753,0.175c-0.251,0.038-0.486,0.122-0.719,0.188c-0.477,0.125-0.859,0.28-1.24,0.324
					c-0.188,0.019-0.38,0.037-0.567,0.065c-0.181,0.023-0.345,0.031-0.486,0.027c-0.28-0.004-0.461-0.047-0.461-0.047L67.42,45.645z
					"/>
				<path fill="#7B3A1A" d="M58.803,45.645c0,0-0.063-0.176-0.21-0.414c-0.072-0.12-0.167-0.255-0.286-0.394
					c-0.103-0.149-0.263-0.282-0.466-0.409c-0.197-0.134-0.425-0.255-0.672-0.368c-0.247-0.106-0.513-0.152-0.784-0.232
					c-0.538-0.172-1.144-0.21-1.734-0.277c-0.301,0.002-0.599-0.009-0.893,0.004c-0.293-0.001-0.581,0.049-0.858,0.092
					c-0.554,0.07-1.058,0.227-1.472,0.391c-0.21,0.072-0.396,0.145-0.554,0.249c-0.154,0.092-0.29,0.173-0.402,0.237
					c-0.211,0.141-0.335,0.221-0.335,0.221l0.084,0.197c0,0,0.143-0.007,0.394-0.019c0.25-0.004,0.573-0.083,0.985-0.057
					c0.205,0.007,0.42,0.005,0.644-0.003c0.225-0.006,0.471,0.05,0.713,0.055c0.488,0.003,1.006,0.137,1.517,0.183
					c0.253,0.058,0.504,0.127,0.754,0.175c0.25,0.038,0.486,0.122,0.717,0.188c0.478,0.125,0.861,0.28,1.241,0.324
					c0.188,0.019,0.38,0.037,0.567,0.065c0.179,0.023,0.344,0.031,0.484,0.027c0.28-0.004,0.463-0.047,0.463-0.047L58.803,45.645z"
					/>
				<circle fill="#FFFFFF" cx="69.51" cy="49.059" r="0.892"/>
			</g>
			<circle fill="#FFFFFF" cx="53.572" cy="49.059" r="0.891"/>
		</g>
	</g>
</g>
</svg>
