<?xml version="1.0" encoding="utf-8"?>
<!-- Generator: Adobe Illustrator 16.0.0, SVG Export Plug-In . SVG Version: 6.00 Build 0)  -->
<!DOCTYPE svg PUBLIC "-//W3C//DTD SVG 1.1//EN" "http://www.w3.org/Graphics/SVG/1.1/DTD/svg11.dtd">
<svg version="1.1" id="Layer_1" xmlns="http://www.w3.org/2000/svg" xmlns:xlink="http://www.w3.org/1999/xlink" x="0px" y="0px"
	 width="128px" height="128px" viewBox="0 0 128 128" enable-background="new 0 0 128 128" xml:space="preserve">
<g>
	<circle fill="#FFE2B3" cx="64" cy="64" r="64"/>
	<path fill="#F6BB79" d="M77.906,19.445L57.492,60.359L32.467,104.7l-1.886,2.775l19.074,18.891C54.27,127.423,59.065,128,64,128
		c33.711,0,61.314-26.07,63.798-59.146L77.906,19.445z"/>
	<g>
		<path fill="#82898B" d="M29.865,89.43c0.064,0.171,0.127,0.342,0.193,0.512c0.07,0.157,0.143,0.315,0.195,0.426
			c0.426,0.878,0.871,1.748,1.363,2.591c0.584,0.996,1.189,1.98,1.852,2.927c0.225,0.318,0.451,0.636,0.682,0.95
			c0.004,0.008,0.01,0.013,0.016,0.02c1.275,1.546,2.631,3.03,4.1,4.396c0.773,0.72,1.564,1.423,2.385,2.087
			c0.389,0.28,0.775,0.56,1.172,0.824c1.578,1.057,3.213,2.036,4.934,2.838c0.072,0.033,0.137,0.063,0.195,0.094
			c0.338,0.126,0.678,0.251,1.021,0.365c0.918,0.301,1.842,0.582,2.779,0.82c1.59,0.407,3.195,0.733,4.813,0.996
			c4.525,0.502,9.078,0.479,13.6-0.031c2.008-0.316,4.002-0.714,5.963-1.247c1.154-0.315,2.305-0.652,3.436-1.042
			c0.639-0.223,1.277-0.447,1.908-0.694c0.08-0.031,0.184-0.073,0.293-0.12c1.84-0.839,3.627-1.788,5.275-2.967
			c0.061-0.042,0.115-0.082,0.166-0.118c0.297-0.246,0.59-0.495,0.875-0.755c0.783-0.711,1.547-1.447,2.258-2.23
			c0.391-0.428,1.676-2.044,1.668-1.988c0.369-0.515,0.729-1.034,1.072-1.566c1.158-1.797,2.217-3.655,3.168-5.57
			c0.479-0.962,0.941-1.932,1.379-2.913c0.166-0.365,0.322-0.733,0.482-1.101c0.02-0.049,0.039-0.095,0.055-0.136
			c0.359-0.891,0.707-1.786,1.051-2.684c-3.963-16.944-17.58-29.435-33.775-29.435c-17.775,0-32.451,15.051-34.65,34.524
			C29.816,89.277,29.838,89.354,29.865,89.43z"/>
		<ellipse fill="#F2B359" cx="63.958" cy="64.58" rx="10.308" ry="7.976"/>
		<ellipse fill="#F9D096" cx="64.438" cy="42.151" rx="22.669" ry="23.203"/>
		<path fill="#233640" d="M55.121,26.784c-0.186,1.261,0.783,2.756,1.186,3.9c0.482,1.378,1.037,2.801,1.848,4.019
			c1.525,2.289,4.182,4.336,6.627,5.615c2.379,1.245,6.078,1.384,8.688,0.762c2.549-0.607,4.066-1.857,5.484-4.003
			c-2.186,1.528-4.867,2.38-7.492,1.083c-1.355-0.669-2.916-1.81-3.67-3.141c-0.609-1.078-1.648-2.693-1.451-3.945
			c2.107,3.618,5.559,4.839,9.348,5.927c3.785,1.088,7.854,0.879,11.801,0.522c0.254-1.063-0.6-2.198-0.955-3.148
			c-0.363-0.97-0.611-2.133-1.063-3.149c-1.088-2.439-1.986-4.686-3.553-6.922c-3.146-4.493-6.828-8.066-12.379-8.869
			c-3.977-0.574-8.998-0.096-10.875,4.208c-4.006-3.627-11.992,0.383-14.094,4.679c-2.256,4.608-3.16,9.923-3.16,15.105
			c0,2-0.07,4.021,0.016,6.016c4.832-0.233,10.342-3.056,12.463-7.633C55.25,34.874,56.467,29.968,55.121,26.784"/>
		<g>
			<rect x="30.098" y="70.716" fill="#FFFFFF" width="44.279" height="35.027"/>
			<g>
				<path fill="#354C58" d="M66.439,83.726c-0.164,0-0.33-0.068-0.447-0.204c-3.197-3.681-8.355-5.88-13.799-5.88
					c-5.389,0-10.516,2.163-13.715,5.787c-0.217,0.246-0.592,0.269-0.838,0.053c-0.246-0.218-0.268-0.592-0.053-0.838
					c3.475-3.932,8.797-6.188,14.605-6.188c5.781,0,11.275,2.351,14.693,6.288c0.215,0.248,0.188,0.622-0.059,0.837
					C66.715,83.678,66.578,83.726,66.439,83.726z"/>
			</g>
			<rect x="48.568" y="82.17" fill="#E1574C" width="7.336" height="9.609"/>
			<g>
				<path fill="#354C58" d="M60.432,98.234H44.039c-0.328,0-0.592-0.265-0.592-0.593s0.264-0.592,0.592-0.592h16.393
					c0.328,0,0.594,0.264,0.594,0.592S60.76,98.234,60.432,98.234z"/>
			</g>
			<rect x="32.467" y="73.085" fill="none" stroke="#F6921E" stroke-miterlimit="10" width="39.539" height="30.287"/>
			<g>
				<polyline fill="#3E5562" points="37.285,104.7 33.625,109.686 35.775,110.016 36.664,112.763 39.318,105.81 				"/>
				<polyline fill="#213C49" points="38.188,105.213 40.359,112.763 41.76,110.538 44.566,111.144 40.471,104.7 				"/>
				<path fill="#EDC55D" d="M38.934,106.086c2.463,0,4.465-2.023,4.465-4.522c0-2.496-2.002-4.521-4.465-4.521
					c-2.467,0-4.469,2.024-4.469,4.521C34.465,104.063,36.467,106.086,38.934,106.086z"/>
			</g>
		</g>
		<g>
			<g>
				<path fill="#7B3A1A" d="M78.307,48.191c0,1.52-1.852,2.751-4.141,2.751c-2.285,0-4.139-1.231-4.139-2.751
					c0-1.517,1.854-2.75,4.139-2.75C76.455,45.441,78.307,46.675,78.307,48.191z"/>
				<ellipse fill="#7B3A1A" cx="58.199" cy="48.191" rx="4.141" ry="2.751"/>
				<path fill="#7B3B1B" d="M59.248,56.524c0,0,0.227,0.091,0.623,0.249c0.195,0.073,0.43,0.165,0.701,0.269
					c0.279,0.083,0.566,0.212,0.898,0.311c0.328,0.105,0.68,0.217,1.049,0.319c0.367,0.112,0.768,0.173,1.16,0.278
					c0.406,0.053,0.813,0.17,1.232,0.189c0.211,0.016,0.42,0.049,0.633,0.073c0.213-0.002,0.424,0.003,0.637,0.011
					c0.426,0.037,0.848-0.034,1.268-0.049c0.422-0.018,0.824-0.136,1.234-0.177c0.4-0.077,0.783-0.195,1.156-0.282
					c0.377-0.082,0.713-0.241,1.043-0.345c0.318-0.123,0.645-0.19,0.896-0.325c0.258-0.121,0.498-0.208,0.691-0.291
					c0.396-0.155,0.641-0.233,0.641-0.233l0.133,0.166c0,0-0.143,0.201-0.43,0.534c-0.145,0.163-0.314,0.372-0.531,0.592
					c-0.201,0.236-0.475,0.447-0.781,0.677c-0.313,0.21-0.615,0.522-1.023,0.699c-0.398,0.19-0.805,0.445-1.266,0.61
					c-0.469,0.142-0.953,0.328-1.465,0.41c-0.518,0.063-1.043,0.179-1.576,0.143c-0.266-0.001-0.531-0.004-0.797-0.016
					c-0.262-0.039-0.52-0.071-0.777-0.117c-0.518-0.063-0.998-0.252-1.467-0.387c-0.451-0.193-0.893-0.361-1.27-0.603
					c-0.193-0.11-0.377-0.219-0.555-0.324c-0.17-0.124-0.33-0.243-0.486-0.358c-0.613-0.459-1.045-0.934-1.32-1.284
					c-0.279-0.346-0.396-0.58-0.396-0.58L59.248,56.524z"/>
				<path fill="#7B3A1A" d="M71.34,44.082c0,0,0.064-0.176,0.209-0.414c0.074-0.118,0.17-0.254,0.287-0.394
					c0.104-0.148,0.266-0.281,0.469-0.409c0.193-0.134,0.424-0.255,0.67-0.367c0.25-0.106,0.512-0.153,0.785-0.233
					c0.537-0.172,1.143-0.21,1.734-0.277c0.301,0.002,0.6-0.009,0.893,0.004c0.291,0,0.58,0.05,0.857,0.092
					c0.555,0.07,1.059,0.227,1.473,0.391c0.209,0.072,0.396,0.145,0.551,0.249c0.156,0.093,0.293,0.173,0.404,0.238
					c0.213,0.14,0.334,0.22,0.334,0.22l-0.082,0.198c0,0-0.143-0.007-0.395-0.02c-0.25-0.003-0.572-0.082-0.984-0.056
					c-0.203,0.006-0.42,0.005-0.645-0.003c-0.227-0.007-0.469,0.049-0.713,0.054c-0.488,0.003-1.006,0.138-1.516,0.183
					c-0.256,0.058-0.504,0.128-0.754,0.175c-0.25,0.038-0.486,0.123-0.717,0.189c-0.48,0.124-0.861,0.28-1.242,0.324
					c-0.188,0.018-0.379,0.036-0.566,0.065c-0.182,0.023-0.346,0.031-0.486,0.027c-0.281-0.005-0.463-0.048-0.463-0.048
					L71.34,44.082z"/>
				<path fill="#7B3A1A" d="M62.723,44.082c0,0-0.063-0.176-0.209-0.414c-0.072-0.118-0.168-0.254-0.287-0.394
					c-0.102-0.148-0.262-0.281-0.465-0.409c-0.197-0.134-0.426-0.255-0.672-0.367c-0.248-0.106-0.512-0.153-0.785-0.233
					c-0.539-0.172-1.143-0.21-1.734-0.277c-0.301,0.002-0.598-0.009-0.893,0.004c-0.293,0-0.58,0.05-0.857,0.092
					c-0.555,0.07-1.059,0.227-1.475,0.391c-0.207,0.072-0.395,0.145-0.551,0.249c-0.154,0.093-0.289,0.173-0.402,0.238
					c-0.211,0.14-0.334,0.22-0.334,0.22l0.082,0.198c0,0,0.145-0.007,0.395-0.02c0.25-0.003,0.572-0.082,0.984-0.056
					c0.205,0.006,0.42,0.005,0.645-0.003c0.227-0.007,0.471,0.049,0.713,0.054c0.488,0.003,1.006,0.138,1.516,0.183
					c0.254,0.058,0.504,0.128,0.754,0.175c0.25,0.038,0.486,0.123,0.717,0.189c0.479,0.124,0.861,0.28,1.242,0.324
					c0.188,0.018,0.379,0.036,0.566,0.065c0.18,0.023,0.344,0.031,0.484,0.027c0.281-0.005,0.465-0.048,0.465-0.048L62.723,44.082z"
					/>
				<circle fill="#FFFFFF" cx="73.43" cy="47.496" r="0.891"/>
			</g>
			<circle fill="#FFFFFF" cx="57.492" cy="47.496" r="0.891"/>
		</g>
	</g>
</g>
</svg>
