<?xml version="1.0" encoding="utf-8"?>
<!-- Generator: Adobe Illustrator 16.0.0, SVG Export Plug-In . SVG Version: 6.00 Build 0)  -->
<!DOCTYPE svg PUBLIC "-//W3C//DTD SVG 1.1//EN" "http://www.w3.org/Graphics/SVG/1.1/DTD/svg11.dtd">
<svg version="1.1" id="Layer_1" xmlns="http://www.w3.org/2000/svg" xmlns:xlink="http://www.w3.org/1999/xlink" x="0px" y="0px"
	 width="128px" height="128px" viewBox="0 0 128 128" enable-background="new 0 0 128 128" xml:space="preserve">
<g>
	<circle fill="#4ABDE5" cx="64" cy="64" r="64"/>
	<path fill="#41ADD1" d="M85.244,16.722L67.224,46.021L45.188,90.343l-6.421,2.753l34.555,34.221C104.248,122.802,128,96.18,128,64
		c0-1.739-0.089-3.456-0.225-5.159L85.244,16.722z"/>
	<g>
		<path fill="#CF7C3F" d="M35.943,85.685c0.063,0.17,0.127,0.341,0.19,0.511c0.072,0.158,0.143,0.314,0.196,0.426
			c0.426,0.877,0.871,1.747,1.363,2.591c0.583,0.997,1.191,1.98,1.854,2.927c0.224,0.319,0.45,0.637,0.679,0.952
			c0.007,0.006,0.011,0.011,0.018,0.017c1.277,1.546,2.631,3.031,4.101,4.396c0.773,0.719,1.563,1.423,2.385,2.087
			c0.387,0.28,0.773,0.56,1.171,0.825c1.577,1.056,3.214,2.036,4.935,2.838c0.072,0.032,0.136,0.063,0.194,0.091
			c0.339,0.128,0.678,0.254,1.02,0.367c0.92,0.3,1.847,0.581,2.782,0.821c1.592,0.406,3.196,0.733,4.814,0.995
			c4.523,0.502,9.074,0.479,13.598-0.03c2.007-0.316,4.002-0.715,5.962-1.248c1.155-0.314,2.306-0.651,3.437-1.043
			c0.64-0.222,1.275-0.445,1.907-0.692c0.079-0.032,0.184-0.074,0.294-0.12c1.84-0.84,3.626-1.788,5.274-2.967
			c0.061-0.043,0.115-0.083,0.167-0.119c0.296-0.246,0.59-0.494,0.875-0.755c0.782-0.711,1.544-1.447,2.258-2.229
			c0.389-0.429,1.675-2.045,1.666-1.989c0.37-0.515,0.73-1.033,1.073-1.565c1.157-1.797,2.218-3.655,3.169-5.57
			c0.478-0.963,0.94-1.932,1.379-2.913c0.163-0.366,0.321-0.733,0.48-1.102c0.021-0.048,0.038-0.094,0.056-0.135
			c0.359-0.891,0.706-1.787,1.051-2.685c-3.962-16.944-17.581-29.435-33.774-29.435c-17.776,0-32.451,15.052-34.651,34.525
			C35.892,85.53,35.914,85.608,35.943,85.685z"/>
		<ellipse fill="#F2B359" cx="70.035" cy="60.834" rx="10.307" ry="7.975"/>
		<ellipse fill="#F9D096" cx="70.516" cy="38.405" rx="22.67" ry="23.204"/>
		<path fill="#233640" d="M61.197,23.037c-0.185,1.263,0.785,2.758,1.187,3.9c0.482,1.379,1.036,2.801,1.85,4.021
			c1.523,2.287,4.18,4.336,6.623,5.615c2.38,1.245,6.08,1.383,8.689,0.762c2.55-0.607,4.065-1.857,5.485-4.004
			c-2.186,1.528-4.868,2.381-7.495,1.084c-1.353-0.669-2.914-1.811-3.667-3.141c-0.612-1.079-1.649-2.694-1.451-3.945
			c2.107,3.617,5.559,4.838,9.346,5.928c3.787,1.086,7.856,0.878,11.803,0.521c0.254-1.062-0.601-2.197-0.956-3.148
			c-0.363-0.97-0.61-2.133-1.063-3.148c-1.086-2.44-1.985-4.687-3.552-6.922c-3.148-4.494-6.829-8.066-12.38-8.87
			c-3.975-0.574-8.997-0.095-10.873,4.208c-4.006-3.627-11.992,0.384-14.097,4.68c-2.254,4.607-3.159,9.923-3.159,15.104
			c0,2.001-0.07,4.021,0.016,6.017c4.832-0.233,10.342-3.055,12.464-7.633C61.328,31.129,62.545,26.223,61.197,23.037"/>
		<g>
			<g>
				<polygon fill="#0D0C0C" points="64.686,73.4 23.71,67.658 58.826,89.543 99.802,95.284 				"/>
				<path fill="#282627" d="M63.523,80.275c-11.434-4.148-21.401-5.583-22.268-3.2l-4.594,12.654l41.398,15.03l4.596-12.654
					C83.523,89.725,74.955,84.427,63.523,80.275z"/>
				
					<ellipse transform="matrix(0.94 0.3413 -0.3413 0.94 36.6301 -13.7376)" fill="#514F4F" cx="57.361" cy="97.245" rx="22.021" ry="4.59"/>
			</g>
			<path fill="#0E0E0D" d="M82.233,116.112c0.208-0.43,0.246-0.902,0.282-1.319c0.012-0.173,0.027-0.335,0.05-0.466
				c0.059-0.325,0.131-0.641,0.208-0.978c0.068-0.3,0.138-0.6,0.196-0.9c0.23-1.207-0.16-2.344-0.573-3.297
				c-0.109-0.255-0.235-0.482-0.357-0.702c-0.106-0.193-0.208-0.375-0.283-0.547c-0.007-0.02-0.009-0.038-0.014-0.058
				c-0.006-0.021-0.013-0.049-0.02-0.077c0.753-1.021,1.692-1.831,2.679-2.681c0.678-0.583,1.378-1.186,2.024-1.868
				c1.68-1.779,3.572-4.8,3.936-7.127c0.378-2.429,0.008-7.052-1.984-9.269c-0.815-0.909-1.855-1.361-3.006-1.307
				c-0.385,0.019-0.684,0.349-0.665,0.734c0.018,0.386,0.346,0.684,0.73,0.665c0.738-0.033,1.36,0.241,1.9,0.842
				c1.614,1.799,1.991,5.869,1.64,8.116c-0.314,2.024-2.075,4.8-3.569,6.382c-0.598,0.632-1.269,1.211-1.917,1.77
				c-1.021,0.878-2.07,1.784-2.926,2.956c-0.051,0.007-0.1,0.021-0.148,0.034l-0.182-0.094l-0.194,0.271
				c-0.133,0.086-0.25,0.182-0.35,0.264c-0.055,0.047-0.138,0.117-0.17,0.135c-0.249,0.148-0.499,0.309-0.748,0.471
				c-0.186,0.121-0.373,0.242-0.563,0.357c-0.656,0.403-0.981,0.986-1.293,1.549l-0.093,0.165c-0.106,0.194-0.225,0.381-0.342,0.567
				c-0.224,0.354-0.452,0.721-0.635,1.133c-0.081,0.186-0.143,0.367-0.192,0.527c-0.074,0.221-0.138,0.412-0.241,0.571
				c-0.209,0.327-0.115,0.759,0.212,0.969c0.002,0.001,0.002,0.002,0.005,0.001c0.325,0.207,0.754,0.111,0.961-0.213
				c0.2-0.307,0.302-0.618,0.391-0.889c0.049-0.143,0.093-0.276,0.146-0.4c0.143-0.321,0.335-0.629,0.54-0.956
				c0.129-0.205,0.256-0.411,0.376-0.624l0.097-0.172c0.141-0.258,0.265-0.475,0.4-0.654c-0.036,0.092-0.07,0.184-0.106,0.277
				c-0.484,1.271-1.033,2.708-0.889,4.082c0.022,0.223,0.147,0.409,0.323,0.519c0.129,0.082,0.283,0.121,0.445,0.104
				c0.188-0.021,0.351-0.111,0.464-0.245c0.091,0.25,0.321,0.438,0.605,0.459c0.385,0.028,0.719-0.262,0.75-0.646
				c0.096-1.301,0.278-2.652,0.514-3.808c0.012-0.061,0.084-0.279,0.143-0.455c0.081-0.255,0.163-0.505,0.235-0.749
				c0.029,0.06,0.059,0.117,0.085,0.175c0.328,0.758,0.641,1.645,0.482,2.479c-0.055,0.283-0.118,0.566-0.184,0.85
				c-0.079,0.336-0.158,0.686-0.224,1.044c-0.034,0.197-0.052,0.401-0.067,0.599c-0.025,0.309-0.051,0.63-0.147,0.826
				c-0.167,0.348-0.022,0.767,0.326,0.935C81.646,116.607,82.065,116.462,82.233,116.112z"/>
		</g>
		<g>
			<g>
				<ellipse fill="#7B3A1A" cx="79.799" cy="44.446" rx="4.141" ry="2.751"/>
				<ellipse fill="#7B3A1A" cx="63.83" cy="44.446" rx="4.14" ry="2.751"/>
				<path fill="#7B3B1B" d="M64.878,52.778c0,0,0.228,0.091,0.626,0.248c0.192,0.075,0.429,0.166,0.7,0.271
					c0.278,0.081,0.565,0.212,0.897,0.311c0.328,0.105,0.679,0.216,1.049,0.319c0.368,0.111,0.767,0.173,1.16,0.277
					c0.406,0.053,0.812,0.171,1.234,0.189c0.21,0.017,0.42,0.049,0.631,0.074c0.212-0.004,0.424,0.002,0.637,0.01
					c0.427,0.038,0.848-0.033,1.269-0.049c0.422-0.017,0.825-0.135,1.233-0.177c0.4-0.075,0.783-0.194,1.157-0.283
					c0.378-0.081,0.712-0.24,1.042-0.343c0.319-0.123,0.645-0.19,0.896-0.326c0.258-0.121,0.5-0.209,0.694-0.29
					c0.394-0.156,0.638-0.235,0.638-0.235l0.136,0.167c0,0-0.145,0.201-0.43,0.534c-0.145,0.163-0.316,0.373-0.531,0.592
					c-0.204,0.236-0.478,0.448-0.782,0.676c-0.314,0.211-0.617,0.523-1.024,0.7c-0.397,0.19-0.803,0.446-1.266,0.61
					c-0.468,0.142-0.951,0.328-1.465,0.41c-0.516,0.063-1.044,0.18-1.575,0.144c-0.267-0.002-0.533-0.005-0.796-0.017
					c-0.262-0.038-0.522-0.07-0.779-0.117c-0.519-0.062-0.998-0.252-1.468-0.387c-0.45-0.193-0.893-0.361-1.269-0.602
					c-0.191-0.111-0.377-0.22-0.556-0.326c-0.167-0.122-0.329-0.243-0.483-0.357c-0.613-0.459-1.047-0.935-1.32-1.284
					c-0.28-0.346-0.397-0.579-0.397-0.579L64.878,52.778z"/>
				<path fill="#7B3A1A" d="M76.973,40.337c0,0,0.062-0.176,0.209-0.414c0.072-0.121,0.169-0.255,0.286-0.394
					c0.103-0.15,0.265-0.282,0.468-0.41c0.195-0.133,0.423-0.254,0.67-0.367c0.25-0.106,0.511-0.152,0.784-0.232
					c0.54-0.172,1.144-0.211,1.735-0.277c0.301,0.001,0.6-0.009,0.892,0.004c0.293-0.001,0.583,0.048,0.858,0.091
					c0.554,0.071,1.058,0.228,1.474,0.392c0.208,0.072,0.396,0.145,0.552,0.248c0.154,0.093,0.291,0.173,0.402,0.239
					c0.213,0.14,0.334,0.22,0.334,0.22l-0.083,0.198c0,0-0.143-0.008-0.394-0.02c-0.25-0.004-0.572-0.083-0.985-0.057
					c-0.203,0.007-0.42,0.005-0.644-0.003c-0.225-0.005-0.469,0.05-0.713,0.054c-0.488,0.004-1.006,0.138-1.517,0.184
					c-0.253,0.058-0.504,0.127-0.751,0.176c-0.253,0.036-0.488,0.121-0.719,0.187c-0.479,0.126-0.86,0.28-1.242,0.325
					c-0.188,0.019-0.38,0.037-0.565,0.065c-0.181,0.024-0.346,0.031-0.486,0.026c-0.28-0.003-0.463-0.046-0.463-0.046L76.973,40.337
					z"/>
				<path fill="#7B3A1A" d="M68.354,40.337c0,0-0.062-0.176-0.21-0.414c-0.073-0.121-0.168-0.255-0.285-0.394
					c-0.104-0.15-0.265-0.282-0.468-0.41c-0.195-0.133-0.423-0.254-0.672-0.367c-0.248-0.106-0.511-0.152-0.784-0.232
					c-0.538-0.172-1.142-0.211-1.734-0.277c-0.301,0.001-0.599-0.009-0.893,0.004c-0.293-0.001-0.581,0.048-0.858,0.091
					c-0.554,0.071-1.058,0.228-1.472,0.392c-0.208,0.072-0.396,0.145-0.552,0.248c-0.156,0.093-0.29,0.173-0.402,0.239
					c-0.213,0.14-0.335,0.22-0.335,0.22l0.082,0.198c0,0,0.145-0.008,0.394-0.02c0.25-0.004,0.573-0.083,0.987-0.057
					c0.203,0.007,0.42,0.005,0.643-0.003c0.226-0.005,0.47,0.05,0.712,0.054c0.488,0.004,1.006,0.138,1.519,0.184
					c0.253,0.058,0.502,0.127,0.752,0.176c0.25,0.036,0.486,0.121,0.718,0.187c0.479,0.126,0.86,0.28,1.24,0.325
					c0.188,0.019,0.382,0.037,0.567,0.065c0.181,0.024,0.346,0.031,0.486,0.026c0.28-0.003,0.463-0.046,0.463-0.046L68.354,40.337z"
					/>
				<circle fill="#FFFFFF" cx="79.062" cy="43.751" r="0.891"/>
			</g>
			<circle fill="#FFFFFF" cx="63.123" cy="43.751" r="0.891"/>
		</g>
	</g>
</g>
</svg>
