<?xml version="1.0" encoding="utf-8"?>
<!-- Generator: Adobe Illustrator 16.0.0, SVG Export Plug-In . SVG Version: 6.00 Build 0)  -->
<!DOCTYPE svg PUBLIC "-//W3C//DTD SVG 1.1//EN" "http://www.w3.org/Graphics/SVG/1.1/DTD/svg11.dtd">
<svg version="1.1" id="Layer_1" xmlns="http://www.w3.org/2000/svg" xmlns:xlink="http://www.w3.org/1999/xlink" x="0px" y="0px"
	 width="128px" height="128px" viewBox="0 0 128 128" enable-background="new 0 0 128 128" xml:space="preserve">
<g>
	<circle fill="#BB888C" cx="64" cy="64" r="64"/>
	<path fill="#A9777B" d="M78.268,18.976l-12.5,25.921L41.77,107.08l-4.029,4.195l16.063,15.907C57.125,127.714,60.527,128,64,128
		c33.973,0,61.748-26.473,63.857-59.915L78.268,18.976z"/>
	<g>
		<path fill="#25A5D0" d="M29.867,88.886c0.063,0.17,0.127,0.341,0.189,0.511c0.07,0.158,0.143,0.314,0.197,0.426
			c0.426,0.877,0.871,1.747,1.363,2.591c0.582,0.997,1.189,1.98,1.852,2.928c0.225,0.318,0.449,0.636,0.682,0.95
			c0.004,0.007,0.008,0.011,0.016,0.019c1.275,1.545,2.631,3.031,4.102,4.396c0.773,0.72,1.563,1.423,2.385,2.087
			c0.385,0.28,0.773,0.56,1.172,0.825c1.576,1.056,3.211,2.036,4.934,2.838c0.072,0.033,0.135,0.063,0.193,0.091
			c0.338,0.129,0.678,0.254,1.02,0.367c0.92,0.3,1.846,0.581,2.783,0.82c1.59,0.407,3.195,0.734,4.813,0.996
			c4.525,0.502,9.076,0.479,13.6-0.03c2.006-0.315,4-0.715,5.961-1.248c1.156-0.315,2.305-0.651,3.436-1.042
			c0.641-0.223,1.277-0.446,1.906-0.693c0.082-0.032,0.186-0.074,0.297-0.121c1.838-0.838,3.625-1.788,5.273-2.966
			c0.059-0.043,0.115-0.083,0.166-0.119c0.295-0.246,0.59-0.494,0.875-0.755c0.783-0.712,1.545-1.447,2.26-2.229
			c0.389-0.429,1.674-2.045,1.666-1.989c0.369-0.515,0.729-1.033,1.072-1.565c1.158-1.796,2.217-3.655,3.168-5.57
			c0.477-0.963,0.941-1.932,1.381-2.913c0.162-0.366,0.322-0.733,0.48-1.102c0.02-0.048,0.039-0.095,0.053-0.135
			c0.361-0.892,0.709-1.785,1.053-2.685c-3.961-16.944-17.58-29.435-33.773-29.435c-17.777,0-32.453,15.052-34.652,34.524
			C29.814,88.731,29.838,88.811,29.867,88.886z"/>
		<ellipse fill="#F2B359" cx="63.958" cy="64.036" rx="10.308" ry="7.974"/>
		<ellipse fill="#F9D096" cx="64.439" cy="41.606" rx="22.67" ry="23.204"/>
		<path fill="#233640" d="M55.121,26.238c-0.184,1.262,0.785,2.758,1.186,3.9c0.482,1.379,1.037,2.802,1.85,4.021
			c1.523,2.287,4.18,4.336,6.623,5.614c2.381,1.246,6.08,1.384,8.689,0.763c2.549-0.607,4.064-1.857,5.484-4.004
			c-2.184,1.528-4.867,2.381-7.494,1.084c-1.352-0.669-2.914-1.811-3.668-3.141c-0.611-1.079-1.648-2.694-1.451-3.945
			c2.107,3.617,5.559,4.838,9.348,5.927c3.785,1.087,7.855,0.879,11.803,0.521c0.252-1.063-0.602-2.197-0.957-3.147
			c-0.363-0.97-0.611-2.134-1.064-3.149c-1.086-2.44-1.984-4.687-3.551-6.922c-3.148-4.494-6.828-8.066-12.379-8.87
			c-3.977-0.575-8.998-0.095-10.873,4.209c-4.008-3.628-11.992,0.383-14.098,4.679c-2.254,4.607-3.158,9.923-3.158,15.104
			c0,2.001-0.07,4.022,0.016,6.017c4.832-0.233,10.342-3.055,12.463-7.633C55.25,34.33,56.467,29.425,55.121,26.238"/>
		<g>
			<g>
				<g>
					<path fill="#EFBF1E" d="M42.23,89.731c-3.242-0.325-6.707-2.026-9.043-4.441c-2.223-2.296-4.549-6.951-2.768-10.109
						c0.594-1.057,1.428-1.385,2.021-1.476c2.084-0.314,4.383,1.788,4.637,2.03l-1.188,1.254l0.592-0.627l-0.59,0.627
						c-0.73-0.686-2.242-1.72-3.193-1.576c-0.203,0.029-0.502,0.128-0.777,0.614c-1.254,2.227,0.684,6.181,2.504,8.063
						c2.035,2.102,5.166,3.642,7.977,3.923L42.23,89.731z"/>
				</g>
				<g>
					<path fill="#EFBF1E" d="M52.256,89.731l-0.174-1.718c2.811-0.281,5.941-1.821,7.977-3.923c1.822-1.883,3.76-5.837,2.504-8.063
						c-0.275-0.486-0.574-0.585-0.777-0.614c-0.99-0.15-2.578,0.997-3.189,1.576l-1.189-1.254c0.256-0.24,2.551-2.345,4.637-2.03
						c0.596,0.091,1.428,0.419,2.023,1.476c1.781,3.158-0.547,7.813-2.768,10.109C58.961,87.705,55.496,89.406,52.256,89.731z"/>
				</g>
			</g>
			<path fill="#9F6C29" d="M57.814,100.851H36.67v9.121h0.035c0.426,1.867,4.98,3.338,10.537,3.338s10.111-1.471,10.537-3.338h0.035
				V100.851z"/>
			<ellipse fill="#D0963A" cx="47.242" cy="100.618" rx="10.57" ry="3.393"/>
			<path fill="#F5DB0F" d="M55.813,100.736l-0.369-1.106l-3.316-1.428v-1.197l-3.502-2.073l-1.336-0.13v-0.009l-0.047,0.004
				l-0.045-0.004v0.009l-1.338,0.13l-3.502,2.073v1.197l-3.316,1.428l-0.367,1.106c2.752,2.185,8.027,2.05,8.568,2.029
				C47.785,102.786,53.061,102.921,55.813,100.736z"/>
			<path fill="#FDED70" d="M52.127,98.202v-1.197l-0.064-0.037c-1.438,0.386-3.078,0.604-4.82,0.604c-1.74,0-3.381-0.219-4.82-0.604
				l-0.064,0.037v1.197l-3.316,1.428l-0.367,1.106c2.752,2.185,8.027,2.05,8.568,2.029c0.543,0.021,5.818,0.155,8.57-2.029
				l-0.369-1.106L52.127,98.202z"/>
			<path fill="#F5DB0F" d="M52.221,98.242c-1.477,0.415-3.174,0.65-4.979,0.65s-3.502-0.235-4.977-0.65l-3.225,1.388l-0.367,1.106
				c2.752,2.185,8.027,2.05,8.568,2.029c0.543,0.021,5.818,0.155,8.57-2.029l-0.369-1.106L52.221,98.242z"/>
			<path fill="#F5DB0F" d="M35.758,74.024c0,0.012,0,0.025,0,0.039c0,10.038,5.141,18.175,11.484,18.175
				c6.346,0,11.486-8.137,11.486-18.175c0-0.014,0-0.027,0-0.039H35.758z"/>
			<ellipse fill="#DF9326" cx="47.243" cy="74.063" rx="11.485" ry="2.049"/>
			<ellipse fill="#FFDD17" cx="47.243" cy="74.063" rx="10.354" ry="1.735"/>
			<ellipse fill="#F5DB0F" cx="47.242" cy="93.239" rx="3.582" ry="2.045"/>
			<path fill="#F0C523" d="M55.387,99.606c-1.889,1.229-4.832,2.022-8.145,2.022c-3.311,0-6.256-0.793-8.145-2.022l-0.057,0.023
				l-0.367,1.106c2.752,2.185,8.027,2.05,8.568,2.029c0.543,0.021,5.818,0.155,8.57-2.029l-0.369-1.106L55.387,99.606z"/>
		</g>
		<g>
			<g>
				<ellipse fill="#7B3A1A" cx="73.761" cy="47.647" rx="4.14" ry="2.75"/>
				<ellipse fill="#7B3A1A" cx="57.791" cy="47.647" rx="4.141" ry="2.75"/>
				<path fill="#7B3B1B" d="M58.84,55.979c0,0,0.227,0.091,0.625,0.248c0.195,0.075,0.43,0.166,0.701,0.271
					c0.279,0.082,0.566,0.211,0.898,0.311c0.328,0.105,0.678,0.217,1.049,0.318c0.367,0.112,0.768,0.174,1.16,0.278
					c0.404,0.052,0.813,0.171,1.232,0.189c0.211,0.017,0.42,0.049,0.631,0.073c0.215-0.003,0.426,0.004,0.639,0.011
					c0.426,0.039,0.848-0.033,1.268-0.049c0.422-0.017,0.824-0.135,1.234-0.177c0.4-0.077,0.783-0.194,1.158-0.283
					c0.375-0.081,0.711-0.24,1.041-0.343c0.318-0.123,0.643-0.19,0.895-0.326c0.258-0.121,0.5-0.209,0.693-0.29
					c0.395-0.156,0.641-0.234,0.641-0.234l0.133,0.166c0,0-0.145,0.201-0.43,0.534c-0.145,0.164-0.314,0.373-0.529,0.593
					c-0.205,0.235-0.479,0.448-0.783,0.675c-0.314,0.211-0.617,0.523-1.025,0.7c-0.396,0.19-0.803,0.446-1.264,0.61
					c-0.469,0.142-0.953,0.328-1.465,0.41c-0.518,0.062-1.043,0.18-1.576,0.144c-0.266-0.002-0.533-0.005-0.797-0.017
					c-0.262-0.038-0.521-0.07-0.777-0.115c-0.52-0.063-0.998-0.254-1.469-0.389c-0.451-0.194-0.891-0.361-1.27-0.602
					c-0.191-0.111-0.375-0.219-0.555-0.325c-0.166-0.123-0.33-0.244-0.484-0.358c-0.613-0.459-1.045-0.935-1.32-1.284
					c-0.279-0.346-0.396-0.579-0.396-0.579L58.84,55.979z"/>
				<path fill="#7B3A1A" d="M70.934,43.538c0,0,0.063-0.176,0.209-0.414c0.074-0.12,0.17-0.255,0.285-0.394
					c0.105-0.15,0.266-0.282,0.469-0.409c0.195-0.134,0.424-0.255,0.672-0.368c0.248-0.106,0.512-0.152,0.783-0.232
					c0.539-0.171,1.145-0.211,1.736-0.277c0.299,0.001,0.6-0.009,0.893,0.004c0.291-0.001,0.58,0.048,0.857,0.091
					c0.553,0.071,1.057,0.228,1.473,0.392c0.209,0.072,0.396,0.145,0.551,0.248c0.156,0.093,0.293,0.173,0.404,0.238
					c0.213,0.141,0.332,0.221,0.332,0.221l-0.082,0.197c0,0-0.143-0.007-0.393-0.019c-0.25-0.004-0.574-0.083-0.986-0.057
					c-0.203,0.007-0.42,0.005-0.645-0.002s-0.469,0.049-0.711,0.053c-0.488,0.004-1.006,0.138-1.518,0.184
					c-0.254,0.058-0.504,0.127-0.752,0.175c-0.252,0.037-0.486,0.122-0.719,0.188c-0.479,0.126-0.861,0.28-1.24,0.325
					c-0.189,0.019-0.381,0.037-0.566,0.065c-0.182,0.023-0.346,0.031-0.486,0.026c-0.281-0.003-0.463-0.046-0.463-0.046
					L70.934,43.538z"/>
				<path fill="#7B3A1A" d="M62.316,43.538c0,0-0.063-0.176-0.211-0.414c-0.072-0.12-0.166-0.255-0.285-0.394
					c-0.104-0.15-0.262-0.282-0.465-0.409c-0.197-0.134-0.426-0.255-0.672-0.368c-0.248-0.106-0.512-0.152-0.785-0.232
					c-0.539-0.171-1.143-0.211-1.734-0.277c-0.301,0.001-0.6-0.009-0.893,0.004c-0.293-0.001-0.582,0.048-0.857,0.091
					c-0.555,0.071-1.057,0.228-1.475,0.392c-0.207,0.072-0.395,0.145-0.551,0.248c-0.154,0.093-0.291,0.173-0.402,0.238
					c-0.213,0.141-0.336,0.221-0.336,0.221l0.086,0.197c0,0,0.143-0.007,0.393-0.019c0.248-0.004,0.572-0.083,0.984-0.057
					c0.205,0.007,0.42,0.005,0.645-0.002s0.471,0.049,0.713,0.053c0.488,0.004,1.006,0.138,1.516,0.184
					c0.254,0.058,0.504,0.127,0.754,0.175c0.252,0.037,0.486,0.122,0.717,0.188c0.479,0.126,0.859,0.28,1.24,0.325
					c0.191,0.019,0.381,0.037,0.568,0.065c0.18,0.023,0.344,0.031,0.484,0.026c0.281-0.003,0.463-0.046,0.463-0.046L62.316,43.538z"
					/>
				<circle fill="#FFFFFF" cx="73.023" cy="46.952" r="0.891"/>
			</g>
			<circle fill="#FFFFFF" cx="57.085" cy="46.952" r="0.892"/>
		</g>
	</g>
</g>
</svg>
