<?xml version="1.0" encoding="utf-8"?>
<!-- Generator: Adobe Illustrator 16.0.0, SVG Export Plug-In . SVG Version: 6.00 Build 0)  -->
<!DOCTYPE svg PUBLIC "-//W3C//DTD SVG 1.1//EN" "http://www.w3.org/Graphics/SVG/1.1/DTD/svg11.dtd">
<svg version="1.1" id="Layer_1" xmlns="http://www.w3.org/2000/svg" xmlns:xlink="http://www.w3.org/1999/xlink" x="0px" y="0px"
	 width="128px" height="128px" viewBox="0 0 128 128" enable-background="new 0 0 128 128" xml:space="preserve">
<g>
	<circle fill="#E08F78" cx="64" cy="64" r="64"/>
	<path fill="#E5766D" d="M82.401,17.35l-1.47,4.739L64,65.227L43.414,85.601l-13.216,8.667l34.055,33.726
		C99.481,127.856,128,99.261,128,64c0-0.514-0.026-1.021-0.039-1.531L82.401,17.35z"/>
	<g>
		<path fill="#D59BC5" d="M33.049,85.223c0.063,0.171,0.127,0.341,0.191,0.511c0.07,0.158,0.143,0.314,0.195,0.426
			c0.428,0.878,0.873,1.748,1.363,2.591c0.582,0.997,1.191,1.981,1.854,2.928c0.223,0.318,0.449,0.636,0.68,0.95
			c0.006,0.007,0.01,0.012,0.016,0.019c1.277,1.546,2.633,3.031,4.102,4.396c0.773,0.719,1.563,1.423,2.385,2.086
			c0.387,0.28,0.775,0.56,1.172,0.826c1.576,1.056,3.211,2.035,4.934,2.837c0.072,0.033,0.137,0.063,0.195,0.092
			c0.338,0.128,0.676,0.253,1.02,0.367c0.918,0.3,1.846,0.581,2.781,0.819c1.59,0.408,3.195,0.733,4.813,0.997
			c4.525,0.502,9.078,0.478,13.6-0.031c2.008-0.316,4.002-0.714,5.961-1.248c1.154-0.314,2.305-0.651,3.438-1.042
			c0.639-0.222,1.277-0.446,1.906-0.693c0.08-0.031,0.184-0.073,0.295-0.121c1.838-0.839,3.627-1.788,5.273-2.966
			c0.061-0.043,0.115-0.082,0.168-0.118c0.295-0.247,0.59-0.495,0.875-0.755c0.783-0.712,1.545-1.448,2.258-2.231
			c0.389-0.427,1.674-2.043,1.668-1.988c0.367-0.514,0.729-1.032,1.07-1.565c1.158-1.797,2.219-3.655,3.168-5.57
			c0.479-0.962,0.943-1.932,1.381-2.913c0.162-0.366,0.32-0.733,0.48-1.102c0.02-0.048,0.039-0.094,0.057-0.135
			c0.357-0.892,0.705-1.786,1.049-2.684C97.434,62.96,83.816,50.47,67.623,50.47c-17.777,0-32.453,15.051-34.654,34.523
			C32.996,85.069,33.02,85.147,33.049,85.223z"/>
		<ellipse fill="#F2B359" cx="67.141" cy="60.373" rx="10.307" ry="7.975"/>
		<g>
			<g>
				<g>
					<g>
						<polygon fill="#FFFFFF" points="26.713,88.83 27.555,89.663 50.549,66.448 49.311,66.016 						"/>
					</g>
					<g>
						<polygon fill="#FFFFFF" points="27.943,90.048 28.787,90.884 52.357,67.085 51.119,66.65 						"/>
					</g>
					<g>
						<polygon fill="#FFFFFF" points="52.93,67.283 29.176,91.268 30.018,92.103 54.168,67.719 						"/>
					</g>
				</g>
			</g>
			<path fill="#881A24" d="M33.135,89.837c-1.379,1.393-3.439,1.596-4.594,0.451c-1.154-1.144-0.973-3.205,0.406-4.598
				l19.801-19.991l-1.199-0.473L28.105,84.855c-1.832,1.853-2.012,4.675-0.396,6.274c1.613,1.599,4.436,1.392,6.268-0.459
				L55.92,68.515l-1.201-0.469L33.135,89.837z"/>
			<g>
				<g>
					<path fill="#A64426" d="M33.977,90.671c-1.832,1.851-4.654,2.058-6.268,0.459l25.01,24.771
						c1.521,1.509,4.111,1.391,5.939-0.183l0.029,0.027l0.301-0.304l17.354-17.521l4.59-4.635L55.92,68.515L33.977,90.671z"/>
					<path fill="#A64426" d="M27.348,90.773l0.361,0.356c-0.125-0.121-0.219-0.264-0.32-0.399L27.348,90.773z"/>
				</g>
			</g>
			<g>
				<g>
					<path fill="#832719" d="M34.107,90.538l-0.131,0.133c-1.832,1.851-4.654,2.058-6.268,0.459l25.01,24.771
						c1.521,1.509,4.111,1.391,5.939-0.183l0.029,0.027l0.432-0.436L34.107,90.538z"/>
				</g>
			</g>
		</g>
		<ellipse fill="#F9D096" cx="67.622" cy="37.943" rx="22.669" ry="23.203"/>
		<path fill="#233640" d="M58.303,22.576c-0.184,1.261,0.785,2.757,1.186,3.9c0.482,1.379,1.037,2.801,1.85,4.019
			c1.523,2.289,4.182,4.338,6.625,5.616c2.379,1.245,6.078,1.384,8.689,0.762c2.549-0.607,4.064-1.857,5.482-4.003
			c-2.184,1.527-4.865,2.38-7.492,1.083c-1.354-0.669-2.916-1.81-3.67-3.142c-0.609-1.078-1.646-2.693-1.451-3.944
			c2.109,3.618,5.561,4.839,9.348,5.927c3.785,1.088,7.855,0.879,11.803,0.522c0.254-1.063-0.6-2.197-0.957-3.148
			c-0.361-0.97-0.611-2.133-1.063-3.149c-1.086-2.44-1.986-4.686-3.553-6.922c-3.146-4.493-6.828-8.066-12.377-8.869
			c-3.979-0.575-8.998-0.096-10.875,4.208c-4.008-3.628-11.992,0.384-14.096,4.679c-2.256,4.607-3.158,9.923-3.158,15.104
			c0,2-0.072,4.021,0.016,6.016c4.83-0.232,10.34-3.055,12.463-7.632C58.432,30.667,59.65,25.761,58.303,22.576"/>
		<g>
			<g>
				<path fill="#7B3A1A" d="M81.082,43.984c0,1.52-1.852,2.751-4.141,2.751c-2.285,0-4.139-1.231-4.139-2.751
					c0-1.519,1.854-2.751,4.139-2.751C79.23,41.233,81.082,42.466,81.082,43.984z"/>
				<ellipse fill="#7B3A1A" cx="60.974" cy="43.984" rx="4.14" ry="2.751"/>
				<path fill="#7B3B1B" d="M62.023,52.316c0,0,0.227,0.092,0.625,0.249c0.193,0.074,0.428,0.165,0.699,0.269
					c0.277,0.083,0.566,0.212,0.898,0.312c0.328,0.105,0.678,0.216,1.049,0.32c0.367,0.11,0.766,0.172,1.16,0.277
					c0.406,0.052,0.813,0.17,1.234,0.189c0.209,0.016,0.418,0.049,0.631,0.072c0.211-0.002,0.424,0.004,0.635,0.012
					c0.428,0.038,0.85-0.034,1.27-0.049c0.422-0.018,0.826-0.136,1.234-0.178c0.4-0.077,0.783-0.194,1.158-0.281
					c0.375-0.082,0.711-0.242,1.041-0.345c0.318-0.122,0.645-0.19,0.896-0.326c0.256-0.12,0.498-0.208,0.693-0.29
					c0.395-0.156,0.639-0.234,0.639-0.234l0.135,0.167c0,0-0.145,0.201-0.43,0.533c-0.145,0.164-0.316,0.373-0.531,0.592
					c-0.205,0.237-0.479,0.449-0.783,0.677c-0.314,0.211-0.617,0.522-1.023,0.699c-0.398,0.191-0.805,0.446-1.266,0.611
					c-0.469,0.142-0.951,0.327-1.465,0.409c-0.518,0.063-1.043,0.18-1.576,0.144c-0.266-0.001-0.531-0.005-0.797-0.016
					c-0.26-0.039-0.521-0.071-0.777-0.117c-0.52-0.062-0.998-0.253-1.469-0.387c-0.449-0.194-0.893-0.362-1.268-0.602
					c-0.193-0.112-0.377-0.221-0.557-0.326c-0.168-0.123-0.328-0.243-0.484-0.357c-0.613-0.459-1.045-0.935-1.32-1.284
					c-0.279-0.346-0.396-0.58-0.396-0.58L62.023,52.316z"/>
				<path fill="#7B3A1A" d="M74.115,39.875c0,0,0.063-0.176,0.211-0.414c0.072-0.12,0.168-0.254,0.285-0.394
					c0.104-0.149,0.266-0.282,0.469-0.409c0.193-0.134,0.422-0.255,0.67-0.368c0.25-0.106,0.512-0.152,0.783-0.232
					c0.539-0.172,1.145-0.21,1.736-0.277c0.301,0.002,0.6-0.009,0.893,0.005c0.293-0.001,0.582,0.048,0.857,0.091
					c0.555,0.07,1.059,0.227,1.473,0.391c0.209,0.072,0.396,0.145,0.551,0.249c0.158,0.092,0.293,0.173,0.404,0.238
					c0.213,0.14,0.334,0.22,0.334,0.22l-0.082,0.197c0,0-0.145-0.007-0.395-0.019c-0.248-0.003-0.572-0.082-0.986-0.057
					c-0.203,0.007-0.418,0.005-0.645-0.003c-0.225-0.006-0.467,0.05-0.711,0.055c-0.488,0.003-1.006,0.138-1.518,0.183
					c-0.254,0.058-0.504,0.128-0.752,0.175c-0.25,0.038-0.486,0.122-0.717,0.188c-0.48,0.125-0.861,0.28-1.242,0.325
					c-0.188,0.017-0.379,0.036-0.566,0.065c-0.18,0.022-0.346,0.03-0.486,0.026c-0.281-0.005-0.463-0.047-0.463-0.047L74.115,39.875
					z"/>
				<path fill="#7B3A1A" d="M65.498,39.875c0,0-0.063-0.176-0.209-0.414c-0.072-0.12-0.168-0.254-0.285-0.394
					c-0.105-0.149-0.266-0.282-0.467-0.409c-0.197-0.134-0.424-0.255-0.672-0.368c-0.248-0.106-0.512-0.152-0.785-0.232
					c-0.539-0.172-1.143-0.21-1.734-0.277c-0.301,0.002-0.6-0.009-0.893,0.005c-0.293-0.001-0.582,0.048-0.857,0.091
					c-0.555,0.07-1.057,0.227-1.473,0.391c-0.209,0.072-0.396,0.145-0.553,0.249c-0.154,0.092-0.291,0.173-0.402,0.238
					c-0.213,0.14-0.334,0.22-0.334,0.22l0.082,0.197c0,0,0.145-0.007,0.395-0.019c0.25-0.003,0.572-0.082,0.984-0.057
					c0.205,0.007,0.42,0.005,0.645-0.003c0.225-0.006,0.469,0.05,0.713,0.055c0.488,0.003,1.006,0.138,1.516,0.183
					c0.254,0.058,0.504,0.128,0.754,0.175c0.252,0.038,0.486,0.122,0.717,0.188c0.479,0.125,0.861,0.28,1.242,0.325
					c0.189,0.017,0.379,0.036,0.566,0.065c0.18,0.022,0.344,0.03,0.484,0.026c0.281-0.005,0.465-0.047,0.465-0.047L65.498,39.875z"
					/>
				<circle fill="#FFFFFF" cx="76.205" cy="43.289" r="0.891"/>
			</g>
			<circle fill="#FFFFFF" cx="60.268" cy="43.289" r="0.891"/>
		</g>
	</g>
</g>
</svg>
