<?xml version="1.0" encoding="utf-8"?>
<!-- Generator: Adobe Illustrator 16.0.0, SVG Export Plug-In . SVG Version: 6.00 Build 0)  -->
<!DOCTYPE svg PUBLIC "-//W3C//DTD SVG 1.1//EN" "http://www.w3.org/Graphics/SVG/1.1/DTD/svg11.dtd">
<svg version="1.1" id="Layer_1" xmlns="http://www.w3.org/2000/svg" xmlns:xlink="http://www.w3.org/1999/xlink" x="0px" y="0px"
	 width="128px" height="128px" viewBox="0 0 128 128" enable-background="new 0 0 128 128" xml:space="preserve">
<g>
	<circle fill="#9AB0B2" cx="64" cy="64" r="64"/>
	<path fill="#769899" d="M91.752,20.645l-4.145,2.998c-16.666,8.312-34.153,41.717-34.153,41.717l-0.406,7.1l-6.135,23.355
		l-5.141,8.145L66,127.949c34.418-1.059,62-29.273,62-63.949c0-2.698-0.186-5.353-0.51-7.963L91.752,20.645z"/>
	<g>
		<path fill="#283E49" d="M69.27,93.109c0.648,7.72-5.159,14.035-12.905,14.035h-6.633c-7.748,0-13.555-6.315-12.906-14.035
			l0.457-5.456c0.65-7.72,7.52-14.035,15.266-14.035h0.998c7.748,0,14.618,6.315,15.266,14.035L69.27,93.109z"/>
		<rect x="44.093" y="69.953" fill="#283E49" width="17.908" height="5.013"/>
		<path fill="#E3E5E5" d="M53.652,68.646c-1.375,2.354-0.111-4.847,0.896-7.357c0.721-1.797,1.91-5.854,4.014-6.199
			c-0.402-2.789,2.99-11.018,6.254-10.558c-0.486-5.002,5.469-7.05,7.854-10.276c2.377-3.219,4.705-8.225,9.479-8.355
			c0.594-3.143,6.188-5.276,9.076-5.023c-1.301,1.822-1.16,4.296-1.867,6.397c-0.684,2.033-1.836,3.779-3.061,5.684
			c0.748-0.123,1.088,0.326,1.795,0.375c-0.365,3.199-5.643,4.709-6.135,8.114c0.398-0.068,1.008,0.188,1.252,0.172
			c-1.707,3.383-5.275,6.361-6.641,9.489c0.256,0.051,0.518,0.092,0.785,0.139c0.324,3.474-6.539,5.917-8.637,7.854
			c2.51,2.415-5.809,4.959-7.329,5.76c-2.545,1.345-4.627,2.669-6.75,4.423c0,0,21.053-35.493,30.247-41.226
			C84.885,28.057,75.309,31.617,53.652,68.646z"/>
	</g>
</g>
</svg>
