<?xml version="1.0" encoding="utf-8"?>
<!-- Generator: Adobe Illustrator 16.0.0, SVG Export Plug-In . SVG Version: 6.00 Build 0)  -->
<!DOCTYPE svg PUBLIC "-//W3C//DTD SVG 1.1//EN" "http://www.w3.org/Graphics/SVG/1.1/DTD/svg11.dtd">
<svg version="1.1" id="Layer_1" xmlns="http://www.w3.org/2000/svg" xmlns:xlink="http://www.w3.org/1999/xlink" x="0px" y="0px"
	 width="128px" height="128px" viewBox="0 0 128 128" enable-background="new 0 0 128 128" xml:space="preserve">
<g>
	<circle fill="#EECE7B" cx="64" cy="64" r="64"/>
	<path fill="#F2B359" d="M103.963,31.855l-8.908,3.16L30.508,92.719l-6.063,1.767l33.55,33.226C59.973,127.895,61.974,128,64,128
		c35.346,0,64-28.653,64-64c0-3.047-0.228-6.039-0.639-8.973L103.963,31.855z"/>
	<polygon fill="#FFFFFF" points="83.201,23.466 57.178,48.719 70.115,59.063 98.914,30.002 	"/>
	<polygon fill="#A7ABAC" points="103.919,32.084 98.914,30.002 70.115,59.063 74.582,62.633 	"/>
	<path fill="#E2905A" d="M60.088,48.131c-0.438-0.119-0.691-0.18-0.691-0.18l-2.12-1.908L27.451,76.281l3.057,3.039L60.088,48.131z"
		/>
	<path fill="#CF7C3F" d="M60.088,48.131L30.508,79.32l18.375,18.271l4.366-12.342l23.313-22.465v-2.117
		C74.351,52.559,63.01,48.938,60.088,48.131z"/>
	<polygon fill="#425E6B" points="30.272,79.568 30.508,79.32 27.451,76.281 26.025,77.727 24.081,94.217 36.932,104.534 
		38.201,103.924 27.399,94.391 	"/>
	<polygon fill="#233640" points="30.272,79.568 27.399,94.391 38.201,103.924 48.375,99.023 48.883,97.592 30.508,79.32 	"/>
	<path fill="#F2B359" d="M61.58,55.062c-0.318,0.353-0.338,0.914-0.121,1.554c-0.66-0.152-1.22-0.072-1.537,0.277
		c-0.318,0.353-0.338,0.914-0.119,1.555c-0.663-0.15-1.222-0.072-1.539,0.279c-0.318,0.352-0.34,0.914-0.121,1.554
		c-0.661-0.151-1.22-0.073-1.538,0.278c-0.317,0.352-0.339,0.914-0.12,1.553c-0.661-0.15-1.22-0.074-1.538,0.278
		c-0.319,0.352-0.339,0.914-0.12,1.554c-0.661-0.15-1.22-0.072-1.539,0.279c-0.317,0.352-0.338,0.914-0.119,1.553
		c-0.661-0.15-1.22-0.072-1.538,0.279c-0.319,0.352-0.339,0.914-0.12,1.554c-0.661-0.151-1.222-0.074-1.54,0.277
		c-0.318,0.353-0.337,0.914-0.12,1.554c-0.659-0.15-1.218-0.072-1.538,0.279c-0.318,0.352-0.339,0.914-0.12,1.553
		c-0.661-0.15-1.22-0.072-1.538,0.279s-0.339,0.914-0.12,1.554c-0.661-0.151-1.22-0.074-1.538,0.278
		c-0.318,0.352-0.339,0.914-0.12,1.553c-0.661-0.151-1.22-0.072-1.538,0.279c-0.318,0.353-0.34,0.914-0.12,1.553
		c-0.661-0.15-1.22-0.072-1.538,0.279c-0.32,0.352-0.34,0.914-0.12,1.555c-0.661-0.152-1.22-0.074-1.538,0.277
		s-0.34,0.914-0.12,1.554c-0.661-0.151-1.22-0.074-1.54,0.277c-0.318,0.354-0.338,0.915-0.12,1.554
		c-0.661-0.15-1.22-0.072-1.538,0.279s-0.338,0.914-0.12,1.555c-0.661-0.152-1.22-0.074-1.538,0.277s-0.34,0.914-0.12,1.554
		c-0.661-0.151-1.221-0.074-1.538,0.278c-0.691,0.766,0.009,2.518,1.563,3.916c1.556,1.396,3.378,1.908,4.069,1.145
		c0.318-0.352,0.34-0.914,0.121-1.552c0.66,0.15,1.22,0.072,1.537-0.279c0.318-0.353,0.34-0.914,0.121-1.554
		c0.661,0.152,1.22,0.072,1.537-0.279c0.32-0.352,0.34-0.914,0.121-1.553c0.662,0.15,1.221,0.072,1.539-0.279
		s0.338-0.914,0.121-1.554c0.659,0.151,1.22,0.075,1.537-0.278c0.318-0.352,0.34-0.914,0.121-1.553
		c0.661,0.151,1.22,0.072,1.538-0.278c0.317-0.354,0.339-0.914,0.12-1.554c0.661,0.15,1.22,0.072,1.538-0.279
		c0.317-0.352,0.339-0.914,0.12-1.553c0.661,0.15,1.22,0.072,1.538-0.279c0.319-0.352,0.339-0.914,0.12-1.554
		c0.661,0.153,1.22,0.073,1.538-0.279c0.318-0.351,0.339-0.912,0.12-1.552c0.661,0.15,1.22,0.072,1.538-0.279
		c0.319-0.352,0.339-0.914,0.12-1.553c0.661,0.15,1.222,0.072,1.54-0.279s0.337-0.914,0.12-1.554
		c0.659,0.151,1.22,0.074,1.538-0.278c0.318-0.354,0.339-0.914,0.12-1.553c0.661,0.149,1.22,0.072,1.538-0.279
		c0.318-0.353,0.339-0.913,0.12-1.553c0.661,0.15,1.22,0.072,1.538-0.279s0.34-0.914,0.12-1.555c0.661,0.152,1.22,0.074,1.538-0.277
		s0.34-0.914,0.12-1.554c0.661,0.15,1.22,0.072,1.538-0.277c0.32-0.354,0.34-0.913,0.12-1.554c0.661,0.15,1.22,0.072,1.54-0.279
		c0.316-0.353,0.338-0.914,0.118-1.553c0.661,0.15,1.222,0.072,1.54-0.279c0.691-0.764-0.009-2.518-1.564-3.914
		C64.094,54.811,62.272,54.298,61.58,55.062z"/>
	<path fill="#AB5B30" d="M34.348,87.169c0.317-0.353,0.877-0.43,1.538-0.278c-0.22-0.64-0.198-1.202,0.12-1.554
		s0.877-0.43,1.538-0.277c-0.218-0.641-0.198-1.203,0.12-1.555s0.877-0.43,1.538-0.279c-0.218-0.64-0.198-1.2,0.12-1.554
		c0.32-0.352,0.879-0.429,1.54-0.277c-0.22-0.64-0.198-1.202,0.12-1.554s0.877-0.43,1.538-0.277c-0.22-0.641-0.2-1.203,0.12-1.555
		c0.318-0.352,0.877-0.43,1.538-0.279c-0.22-0.639-0.198-1.2,0.12-1.553c0.318-0.352,0.877-0.431,1.538-0.279
		c-0.219-0.639-0.198-1.201,0.12-1.553c0.318-0.353,0.877-0.429,1.538-0.278c-0.219-0.64-0.198-1.202,0.12-1.554
		s0.877-0.429,1.538-0.279c-0.219-0.639-0.198-1.201,0.12-1.553c0.32-0.352,0.879-0.43,1.538-0.279
		c-0.217-0.64-0.198-1.201,0.12-1.554c0.318-0.352,0.879-0.43,1.54-0.277c-0.219-0.64-0.199-1.202,0.12-1.554
		c0.318-0.351,0.877-0.43,1.538-0.279c-0.219-0.639-0.198-1.201,0.119-1.553c0.319-0.351,0.878-0.43,1.539-0.279
		c-0.219-0.64-0.199-1.202,0.12-1.554c0.318-0.352,0.877-0.429,1.538-0.278c-0.219-0.639-0.197-1.2,0.12-1.553
		c0.318-0.353,0.877-0.43,1.538-0.278c-0.219-0.64-0.197-1.201,0.121-1.554c0.317-0.352,0.876-0.43,1.539-0.279
		c-0.219-0.641-0.199-1.202,0.119-1.555c0.317-0.35,0.877-0.43,1.537-0.277c-0.217-0.64-0.197-1.201,0.121-1.554
		c0.661-0.729,2.349-0.285,3.854,0.973c-0.223-0.269-0.466-0.534-0.747-0.787c-1.556-1.398-3.377-1.911-4.069-1.147
		c-0.318,0.353-0.338,0.914-0.121,1.554c-0.66-0.152-1.22-0.072-1.537,0.277c-0.318,0.353-0.338,0.914-0.119,1.555
		c-0.663-0.15-1.222-0.072-1.539,0.279c-0.318,0.352-0.34,0.914-0.121,1.554c-0.661-0.151-1.22-0.073-1.538,0.278
		c-0.317,0.352-0.339,0.914-0.12,1.553c-0.661-0.15-1.22-0.074-1.538,0.278c-0.319,0.352-0.339,0.914-0.12,1.554
		c-0.661-0.15-1.22-0.072-1.539,0.279c-0.317,0.352-0.338,0.914-0.119,1.553c-0.661-0.15-1.22-0.072-1.538,0.279
		c-0.319,0.352-0.339,0.914-0.12,1.554c-0.661-0.151-1.222-0.074-1.54,0.277c-0.318,0.353-0.337,0.914-0.12,1.554
		c-0.659-0.15-1.218-0.072-1.538,0.279c-0.318,0.352-0.339,0.914-0.12,1.553c-0.661-0.15-1.22-0.072-1.538,0.279
		s-0.339,0.914-0.12,1.554c-0.661-0.151-1.22-0.074-1.538,0.278c-0.318,0.352-0.339,0.914-0.12,1.553
		c-0.661-0.151-1.22-0.072-1.538,0.279c-0.318,0.353-0.34,0.914-0.12,1.553c-0.661-0.15-1.22-0.072-1.538,0.279
		c-0.32,0.352-0.34,0.914-0.12,1.555c-0.661-0.152-1.22-0.074-1.538,0.277s-0.34,0.914-0.12,1.554
		c-0.661-0.151-1.22-0.074-1.54,0.277c-0.318,0.354-0.338,0.915-0.12,1.554c-0.661-0.15-1.22-0.072-1.538,0.279
		s-0.338,0.914-0.12,1.555c-0.661-0.152-1.22-0.074-1.538,0.277s-0.34,0.914-0.12,1.554c-0.661-0.151-1.221-0.074-1.538,0.278
		c-0.691,0.766,0.009,2.518,1.563,3.916c0.071,0.064,0.146,0.117,0.219,0.178C34.16,89.086,33.781,87.797,34.348,87.169z"/>
	<path fill="#262628" d="M57.736,69.568c0.807,0.725,0.868,1.977,0.138,2.781l-7.359,8.133c-0.73,0.805-1.985,0.871-2.792,0.148
		l-4.421-3.973c-0.807-0.725-0.868-1.977-0.14-2.781l7.361-8.132c0.73-0.806,1.985-0.872,2.791-0.149L57.736,69.568z"/>
	<g>
		
			<rect x="81.848" y="30.496" transform="matrix(0.9009 0.434 -0.434 0.9009 22.0584 -34.6352)" fill="#82898B" width="10.082" height="0.999"/>
	</g>
	<g>
		
			<rect x="77.677" y="34.516" transform="matrix(0.9009 0.4341 -0.4341 0.9009 23.4012 -32.4367)" fill="#82898B" width="10.08" height="0.999"/>
	</g>
	<g>
		
			<rect x="73.135" y="38.892" transform="matrix(0.9009 0.4341 -0.4341 0.9009 24.8477 -30.0291)" fill="#82898B" width="10.081" height="0.999"/>
	</g>
	<g>
		
			<rect x="69.455" y="43.268" transform="matrix(0.9009 0.434 -0.434 0.9009 26.3729 -27.9918)" fill="#82898B" width="10.082" height="0.999"/>
	</g>
	<g>
		
			<rect x="65.774" y="47.643" transform="matrix(0.901 0.4339 -0.4339 0.901 27.9038 -25.9595)" fill="#82898B" width="10.083" height="0.999"/>
	</g>
</g>
</svg>
