<?xml version="1.0" encoding="utf-8"?>
<!-- Generator: Adobe Illustrator 16.0.0, SVG Export Plug-In . SVG Version: 6.00 Build 0)  -->
<!DOCTYPE svg PUBLIC "-//W3C//DTD SVG 1.1//EN" "http://www.w3.org/Graphics/SVG/1.1/DTD/svg11.dtd">
<svg version="1.1" id="Layer_1" xmlns="http://www.w3.org/2000/svg" xmlns:xlink="http://www.w3.org/1999/xlink" x="0px" y="0px"
	 width="128px" height="128px" viewBox="0 0 128 128" enable-background="new 0 0 128 128" xml:space="preserve">
<g>
	<circle fill="#4ABDE5" cx="64" cy="64" r="64"/>
	<path fill="#41ADD1" d="M89.591,22.515l-2.521,3.622L54.303,59.672L27.296,92.888l-3.831,3.656l31.052,30.752
		C57.612,127.756,60.777,128,64,128c35.347,0,64-28.653,64-64c0-1.192-0.038-2.374-0.103-3.55L89.591,22.515z"/>
	<polygon fill="#9F1C37" points="56.296,96.495 67.632,85.16 67.632,52.55 56.296,63.886 	"/>
	<rect x="23.688" y="63.886" fill="#ED2F41" width="32.608" height="32.609"/>
	<rect x="27.296" y="67.493" fill="#FFFFFF" width="25.393" height="25.395"/>
	<polygon fill="#D43D67" points="36.526,52.55 23.688,63.886 56.296,63.886 67.632,52.55 	"/>
	<polygon fill="#3D3F98" points="92.978,105.515 104.313,94.18 104.313,61.57 92.978,72.905 	"/>
	<rect x="60.369" y="72.905" fill="#6064AC" width="32.608" height="32.609"/>
	<rect x="63.977" y="76.513" fill="#FFFFFF" width="25.393" height="25.395"/>
	<polygon fill="#8083BF" points="73.207,61.57 60.369,72.905 92.978,72.905 104.313,61.57 	"/>
	<polygon fill="#295C2E" points="78.269,66.429 89.604,55.093 89.604,22.485 78.269,33.819 	"/>
	<rect x="45.659" y="33.819" fill="#389A46" width="32.609" height="32.609"/>
	<rect x="49.268" y="37.428" fill="#FFFFFF" width="25.394" height="25.394"/>
	<polygon fill="#5AB947" points="58.499,22.485 45.659,33.819 78.269,33.819 89.604,22.485 	"/>
	<g>
		<path fill="#AEB4AD" d="M59.389,41.979h6.16v16.953h-2.717V44.526h-3.443V41.979z"/>
	</g>
	<g>
		<path fill="#AEB4AD" d="M42.388,78.873c0.484-0.663,0.727-1.335,0.727-2.014s-0.258-1.257-0.775-1.734
			c-0.518-0.477-1.172-0.715-1.965-0.715c-1.391,0-2.547,0.711-3.469,2.134l-2.303-1.334c0.742-1.115,1.564-1.956,2.461-2.522
			c0.896-0.564,2.053-0.849,3.469-0.849c1.414,0,2.654,0.449,3.723,1.346c1.066,0.897,1.6,2.123,1.6,3.675
			c0,0.873-0.227,1.706-0.678,2.498c-0.453,0.792-1.285,1.811-2.498,3.056L38.7,86.464h7.689v2.74H34.796v-2.426l5.141-5.165
			C41.085,80.449,41.901,79.535,42.388,78.873z"/>
	</g>
	<g>
		<path fill="#AEB4AD" d="M72.253,83.502v-2.547h9.92v2.231l-4.099,4.584c1.552,0.049,2.765,0.538,3.638,1.467
			c0.873,0.931,1.31,2.042,1.31,3.335c0,1.73-0.586,3.089-1.758,4.075c-1.173,0.986-2.681,1.479-4.523,1.479
			c-1.844,0-3.646-0.591-5.408-1.771l1.212-2.305c1.391,0.971,2.846,1.455,4.366,1.455c0.985,0,1.798-0.23,2.438-0.69
			c0.638-0.461,0.958-1.124,0.958-1.989c0-0.864-0.356-1.556-1.067-2.073c-0.712-0.518-1.698-0.776-2.959-0.776
			c-0.631,0-1.237,0.089-1.819,0.267v-2.183l3.93-4.56H72.253z"/>
	</g>
	<g>
		<path fill="#295C2E" d="M58.885,41.648h6.16v16.953h-2.717V44.195h-3.443V41.648z"/>
	</g>
	<g>
		<path fill="#9F1C37" d="M41.884,78.541c0.484-0.662,0.727-1.334,0.727-2.013s-0.258-1.257-0.775-1.734
			c-0.518-0.477-1.172-0.715-1.965-0.715c-1.391,0-2.547,0.712-3.469,2.134l-2.303-1.334c0.742-1.115,1.564-1.956,2.461-2.522
			c0.896-0.565,2.053-0.849,3.469-0.849c1.414,0,2.654,0.449,3.723,1.346c1.066,0.897,1.6,2.123,1.6,3.675
			c0,0.873-0.227,1.706-0.678,2.498c-0.453,0.792-1.285,1.811-2.498,3.056l-3.979,4.051h7.689v2.74H34.292v-2.426l5.141-5.165
			C40.581,80.118,41.397,79.204,41.884,78.541z"/>
	</g>
	<g>
		<path fill="#3D3F98" d="M71.749,83.171v-2.546h9.92v2.23l-4.099,4.584c1.552,0.049,2.765,0.538,3.638,1.467
			c0.873,0.931,1.31,2.042,1.31,3.335c0,1.73-0.586,3.089-1.758,4.075c-1.173,0.986-2.681,1.479-4.523,1.479
			c-1.844,0-3.646-0.591-5.408-1.771l1.212-2.305c1.391,0.971,2.846,1.455,4.366,1.455c0.985,0,1.798-0.23,2.438-0.69
			c0.638-0.461,0.958-1.124,0.958-1.989c0-0.864-0.356-1.556-1.067-2.073c-0.712-0.518-1.698-0.776-2.959-0.776
			c-0.631,0-1.237,0.089-1.819,0.267V87.73l3.93-4.56H71.749z"/>
	</g>
</g>
</svg>
