<?xml version="1.0" encoding="utf-8"?>
<!-- Generator: Adobe Illustrator 16.0.0, SVG Export Plug-In . SVG Version: 6.00 Build 0)  -->
<!DOCTYPE svg PUBLIC "-//W3C//DTD SVG 1.1//EN" "http://www.w3.org/Graphics/SVG/1.1/DTD/svg11.dtd">
<svg version="1.1" id="Layer_1" xmlns="http://www.w3.org/2000/svg" xmlns:xlink="http://www.w3.org/1999/xlink" x="0px" y="0px"
	 width="128px" height="128px" viewBox="0 0 128 128" enable-background="new 0 0 128 128" xml:space="preserve">
<g>
	<circle fill="#EECE7B" cx="64" cy="64" r="64"/>
	<path fill="#D3AF5E" d="M101.282,20.567L87.339,36.553l-58.124,60.74l-8.494,2.102l27.554,26.653C53.307,127.319,58.573,128,64,128
		c35.346,0,64-28.653,64-64c0-7.069-1.163-13.863-3.28-20.222L101.282,20.567z"/>
	<g>
		<path fill="#E6E6E5" d="M36.505,67.104c-2.465,0-4.473-1.889-4.473-4.212v-39.72c0-2.322,2.008-4.211,4.473-4.211h61.222
			c2.465,0,4.473,1.889,4.473,4.211v39.72c0,2.323-2.008,4.212-4.473,4.212H36.505z"/>
		<path fill="#221F1F" d="M99.218,62.892c0,0.772-0.672,1.405-1.491,1.405H36.505c-0.82,0-1.492-0.633-1.492-1.405v-39.72
			c0-0.771,0.672-1.404,1.492-1.404h61.222c0.819,0,1.491,0.634,1.491,1.404V62.892z"/>
		<g>
			<path fill="#4ABDE5" d="M51.718,30.878l4.382-2.255v0.648l-3.693,1.852v0.018l3.693,1.85v0.654l-4.382-2.257V30.878z"/>
			<path fill="#4ABDE5" d="M57.413,26.939h0.83v2.854h0.017c0.134-0.238,0.342-0.445,0.598-0.588
				c0.246-0.143,0.536-0.235,0.85-0.235c0.612,0,1.596,0.378,1.596,1.955v2.72h-0.831v-2.627c0-0.734-0.274-1.357-1.058-1.357
				c-0.538,0-0.964,0.377-1.116,0.83c-0.045,0.113-0.055,0.236-0.055,0.397v2.757h-0.83V26.939z"/>
			<path fill="#4ABDE5" d="M63.616,27.761v1.312h1.188v0.635h-1.188v2.465c0,0.566,0.16,0.887,0.623,0.887
				c0.218,0,0.377-0.029,0.482-0.055l0.037,0.621c-0.16,0.066-0.416,0.113-0.736,0.113c-0.389,0-0.7-0.122-0.898-0.349
				c-0.235-0.245-0.32-0.651-0.32-1.19v-2.492h-0.71v-0.635h0.71v-1.093L63.616,27.761z"/>
			<path fill="#4ABDE5" d="M65.739,30.313c0-0.473-0.01-0.86-0.037-1.24h0.728l0.036,0.736h0.03
				c0.254-0.434,0.681-0.839,1.435-0.839c0.624,0,1.097,0.378,1.294,0.915h0.019c0.143-0.256,0.323-0.452,0.511-0.594
				c0.272-0.209,0.577-0.321,1.011-0.321c0.604,0,1.501,0.397,1.501,1.984v2.69h-0.813v-2.588c0-0.879-0.32-1.407-0.991-1.407
				c-0.472,0-0.841,0.352-0.983,0.757c-0.037,0.111-0.064,0.264-0.064,0.416v2.822h-0.812v-2.739c0-0.728-0.322-1.256-0.953-1.256
				c-0.521,0-0.898,0.417-1.028,0.83c-0.048,0.124-0.068,0.266-0.068,0.408v2.757h-0.813V30.313z"/>
			<path fill="#4ABDE5" d="M73.614,26.939h0.832v6.705h-0.832V26.939z"/>
			<path fill="#4ABDE5" d="M80.159,31.396l-4.382,2.249V32.99l3.721-1.85v-0.018l-3.721-1.852v-0.648l4.382,2.246V31.396z"/>
			<path fill="#4ABDE5" d="M81.272,33.154c0-0.352,0.237-0.594,0.568-0.594c0.328,0,0.558,0.242,0.558,0.594
				c0,0.34-0.219,0.594-0.567,0.594C81.499,33.748,81.272,33.494,81.272,33.154z"/>
			<path fill="#4ABDE5" d="M83.229,33.154c0-0.352,0.234-0.594,0.565-0.594s0.558,0.242,0.558,0.594c0,0.34-0.218,0.594-0.565,0.594
				C83.455,33.748,83.229,33.494,83.229,33.154z"/>
			<path fill="#4ABDE5" d="M85.183,33.154c0-0.352,0.236-0.594,0.563-0.594c0.331,0,0.561,0.242,0.561,0.594
				c0,0.34-0.218,0.594-0.567,0.594C85.408,33.748,85.183,33.494,85.183,33.154z"/>
			<path fill="#4ABDE5" d="M87.137,33.154c0-0.352,0.234-0.594,0.565-0.594s0.557,0.242,0.557,0.594c0,0.34-0.216,0.594-0.564,0.594
				C87.364,33.748,87.137,33.494,87.137,33.154z"/>
			<path fill="#4ABDE5" d="M89.092,33.154c0-0.352,0.235-0.594,0.566-0.594s0.558,0.242,0.558,0.594c0,0.34-0.219,0.594-0.567,0.594
				C89.317,33.748,89.092,33.494,89.092,33.154z"/>
			<path fill="#4ABDE5" d="M91.045,33.154c0-0.352,0.237-0.594,0.566-0.594c0.331,0,0.556,0.242,0.556,0.594
				c0,0.34-0.216,0.594-0.565,0.594C91.272,33.748,91.045,33.494,91.045,33.154z"/>
			<path fill="#4ABDE5" d="M93.001,33.154c0-0.352,0.235-0.594,0.565-0.594c0.331,0,0.558,0.242,0.558,0.594
				c0,0.34-0.218,0.594-0.566,0.594C93.227,33.748,93.001,33.494,93.001,33.154z"/>
			<path fill="#4ABDE5" d="M94.954,33.154c0-0.352,0.237-0.594,0.567-0.594c0.329,0,0.558,0.242,0.558,0.594
				c0,0.34-0.219,0.594-0.567,0.594C95.182,33.748,94.954,33.494,94.954,33.154z"/>
		</g>
		<path fill="#221F1F" d="M113.29,92.881c-0.79,0.755-1.951,1.207-3.405,1.207h-86.01c-1.281,0-2.312-0.338-3.042-0.914
			l-0.112,0.229v5.991c0.734,0.635,1.809,1.007,3.154,1.007h86.01c1.45,0,2.615-0.446,3.405-1.197V92.881z"/>
		<path fill="#AEB4AD" d="M109.885,94.088c1.517,0,2.725-0.49,3.514-1.309l-7.733-19.611c-1.316-3.336-5.323-6.064-8.91-6.064H39.89
			c-3.587,0-7.792,2.645-9.344,5.875l-9.713,20.195c0.73,0.576,1.761,0.914,3.042,0.914H109.885z"/>
		<polygon fill="#82898B" points="79.663,91.785 53.158,91.785 55.44,86.571 77.384,86.571 		"/>
		<polygon fill="#82898B" points="105.303,83.313 31.215,83.313 36.429,71.145 101.391,71.145 		"/>
	</g>
</g>
</svg>
