<?xml version="1.0" encoding="utf-8"?>
<!-- Generator: Adobe Illustrator 16.0.0, SVG Export Plug-In . SVG Version: 6.00 Build 0)  -->
<!DOCTYPE svg PUBLIC "-//W3C//DTD SVG 1.1//EN" "http://www.w3.org/Graphics/SVG/1.1/DTD/svg11.dtd">
<svg version="1.1" id="Layer_1" xmlns="http://www.w3.org/2000/svg" xmlns:xlink="http://www.w3.org/1999/xlink" x="0px" y="0px"
	 width="128px" height="128px" viewBox="0 0 128 128" enable-background="new 0 0 128 128" xml:space="preserve">
<g>
	<circle fill="#E3E5E5" cx="64" cy="64" r="64"/>
	<path fill="#BDCBCB" d="M110.163,28.512l-3.327,2.024l-23.641,0.857l-7.694,11.098l-2.99,1.383L55.995,27.208L22.187,33.44
		l-3.801,3.5L35.769,53.55l8.086,16.601l5.938,10.219l-15.524,3.4l-10.894,4.238l-2.464,1.703l38.478,38.105
		C60.913,127.925,62.447,128,64,128c35.348,0,64-28.653,64-64c0-7.545-1.315-14.779-3.713-21.501L110.163,28.512z"/>
	<g>
		<g>
			<polygon fill="#82898B" points="80.764,83.294 50.131,82.086 36.854,56.837 39.459,55.467 51.945,79.212 79.182,80.286 
				94.183,56.521 96.672,58.092 			"/>
		</g>
		<g>
			<polygon fill="#82898B" points="59.051,102.381 56.229,103.222 50.023,82.392 24.965,88.164 24.305,85.298 52.057,78.904 			"/>
		</g>
		<g>
			
				<rect x="79.713" y="82.298" transform="matrix(0.9662 0.2578 -0.2578 0.9662 24.5536 -19.6991)" fill="#82898B" width="15.347" height="2.943"/>
		</g>
		<g>
			<polygon fill="#82898B" points="96.779,57.889 94.076,56.726 104.441,32.652 81.984,33.149 81.918,30.208 108.956,29.609 			"/>
		</g>
		<g>
			<polygon fill="#82898B" points="36.39,55.912 18.386,32.215 52.885,29.07 53.152,32.001 23.942,34.664 38.732,54.131 			"/>
		</g>
		<g>
			
				<rect x="65.025" y="27.208" transform="matrix(0.885 -0.4656 0.4656 0.885 -18.5015 37.4166)" fill="#82898B" width="2.943" height="57.91"/>
		</g>
		<g>
			
				<rect x="37.539" y="54.69" transform="matrix(0.9992 0.0394 -0.0394 0.9992 2.2659 -2.5779)" fill="#82898B" width="57.912" height="2.946"/>
		</g>
		<g>
			
				<rect x="65.022" y="27.208" transform="matrix(0.8455 0.534 -0.534 0.8455 40.2675 -26.8303)" fill="#82898B" width="2.944" height="57.911"/>
		</g>
		<g>
			<circle fill="#CF7C3F" cx="66.497" cy="56.163" r="11.281"/>
		</g>
		<g>
			<circle fill="#1C7491" cx="51.039" cy="80.648" r="5.549"/>
		</g>
		<g>
			<circle fill="#1C7491" cx="37.561" cy="55.021" r="4.469"/>
		</g>
		<g>
			<path fill="#1C7491" d="M56.975,28.456c1.148,2.184,0.307,4.888-1.879,6.037c-2.182,1.147-4.885,0.308-6.033-1.877
				s-0.31-4.888,1.873-6.036C53.12,25.432,55.826,26.271,56.975,28.456z"/>
		</g>
		<g>
			<circle fill="#1C7491" cx="81.95" cy="31.678" r="4.47"/>
		</g>
		<g>
			<circle fill="#CF7C3F" cx="21.163" cy="33.44" r="4.47"/>
		</g>
		<g>
			<path fill="#CF7C3F" d="M28.592,84.649c1.149,2.187,0.307,4.89-1.877,6.038s-4.885,0.309-6.034-1.878
				c-1.148-2.183-0.311-4.886,1.873-6.034C24.738,81.627,27.443,82.467,28.592,84.649z"/>
		</g>
		<g>
			<path fill="#1C7491" d="M64.784,99.043c2.075,3.946,0.557,8.827-3.393,10.903c-3.941,2.073-8.822,0.558-10.897-3.389
				c-2.074-3.944-0.558-8.827,3.384-10.9C57.827,93.581,62.71,95.099,64.784,99.043z"/>
		</g>
		<g>
			<circle fill="#1C7491" cx="94.8" cy="85.75" r="4.47"/>
		</g>
		<g>
			<circle fill="#1C7491" cx="95.428" cy="57.307" r="4.47"/>
		</g>
		<g>
			<path fill="#CF7C3F" d="M110.791,29.313c1.149,2.186,0.311,4.889-1.875,6.037c-2.182,1.147-4.887,0.309-6.036-1.877
				c-1.148-2.184-0.307-4.888,1.876-6.035C106.94,26.289,109.643,27.13,110.791,29.313z"/>
		</g>
		<g>
			<circle fill="#1C7491" cx="79.972" cy="81.791" r="4.47"/>
		</g>
	</g>
</g>
</svg>
