<?xml version="1.0" encoding="utf-8"?>
<!-- Generator: Adobe Illustrator 16.0.0, SVG Export Plug-In . SVG Version: 6.00 Build 0)  -->
<!DOCTYPE svg PUBLIC "-//W3C//DTD SVG 1.1//EN" "http://www.w3.org/Graphics/SVG/1.1/DTD/svg11.dtd">
<svg version="1.1" id="Layer_1" xmlns="http://www.w3.org/2000/svg" xmlns:xlink="http://www.w3.org/1999/xlink" x="0px" y="0px"
	 width="128px" height="128px" viewBox="0 0 128 128" enable-background="new 0 0 128 128" xml:space="preserve">
<g>
	<circle fill="#E08F78" cx="64" cy="64" r="64"/>
	<path fill="#E5766D" d="M95.174,25.959l-1.577,2.692L30.435,97.723l-3.486,3.893l25.587,25.341C56.257,127.629,60.084,128,64,128
		c35.346,0,64-28.654,64-64c0-1.958-0.103-3.892-0.274-5.805L95.174,25.959z"/>
	<g>
		<rect x="27.346" y="25.973" fill="#FFFFFF" width="67.554" height="75.894"/>
		<g>
			<path fill="#3F403F" d="M88.703,104.977c-0.679,1.059-2.101,1.37-3.158,0.691L64.864,92.423c-1.061-0.679-1.372-2.1-0.692-3.157
				l19.593-30.595c0.678-1.059,2.098-1.369,3.157-0.69l20.682,13.245c1.059,0.677,1.37,2.1,0.691,3.157L88.703,104.977z"/>
			
				<rect x="81.723" y="66.555" transform="matrix(0.8421 0.5394 -0.5394 0.8421 53.1478 -38.8782)" fill="#E7E9DB" width="22.48" height="9.524"/>
			
				<rect x="77.846" y="72.282" transform="matrix(0.8422 0.5391 -0.5391 0.8422 53.0008 -31.4954)" fill="#E7E9DB" width="4.927" height="5.041"/>
			
				<rect x="82.772" y="75.437" transform="matrix(0.8421 0.5393 -0.5393 0.8421 55.5047 -33.6608)" fill="#E7E9DB" width="4.929" height="5.041"/>
			
				<rect x="87.7" y="78.593" transform="matrix(0.8421 0.5394 -0.5394 0.8421 57.9902 -35.8211)" fill="#E7E9DB" width="4.926" height="5.041"/>
			
				<rect x="92.627" y="81.748" transform="matrix(0.8421 0.5393 -0.5393 0.8421 60.4569 -37.9768)" fill="#E7E9DB" width="4.927" height="5.04"/>
			
				<rect x="74.724" y="77.156" transform="matrix(0.842 0.5395 -0.5395 0.842 55.1776 -29.0511)" fill="#E7E9DB" width="4.926" height="5.041"/>
			
				<rect x="79.651" y="80.312" transform="matrix(0.842 0.5395 -0.5395 0.842 57.6654 -31.2123)" fill="#E7E9DB" width="4.927" height="5.041"/>
			
				<rect x="84.578" y="83.468" transform="matrix(0.8421 0.5394 -0.5394 0.8421 60.1263 -33.3673)" fill="#E7E9DB" width="4.926" height="5.04"/>
			
				<rect x="89.505" y="86.623" transform="matrix(0.8422 0.5392 -0.5392 0.8422 62.578 -35.5197)" fill="#E7E9DB" width="4.925" height="5.04"/>
			
				<rect x="71.602" y="82.03" transform="matrix(0.8421 0.5393 -0.5393 0.8421 57.2901 -26.5938)" fill="#E7E9DB" width="4.927" height="5.042"/>
			
				<rect x="76.528" y="85.187" transform="matrix(0.8419 0.5397 -0.5397 0.8419 59.8216 -28.7608)" fill="#E7E9DB" width="4.928" height="5.04"/>
			
				<rect x="81.457" y="88.341" transform="matrix(0.8422 0.5391 -0.5391 0.8422 62.229 -30.9082)" fill="#E7E9DB" width="4.927" height="5.042"/>
			
				<rect x="86.383" y="91.495" transform="matrix(0.8423 0.5391 -0.5391 0.8423 64.6937 -33.064)" fill="#E7E9DB" width="4.928" height="5.043"/>
			
				<rect x="68.481" y="86.905" transform="matrix(0.842 0.5395 -0.5395 0.842 59.4502 -24.143)" fill="#E7E9DB" width="4.926" height="5.04"/>
			
				<rect x="73.408" y="90.061" transform="matrix(0.8421 0.5393 -0.5393 0.8421 61.9114 -26.2998)" fill="#E7E9DB" width="4.925" height="5.041"/>
			
				<rect x="78.957" y="91.091" transform="matrix(0.8421 0.5393 -0.5393 0.8421 63.9654 -28.9481)" fill="#E7E9DB" width="4.925" height="7.348"/>
			
				<rect x="83.261" y="96.372" transform="matrix(0.842 0.5395 -0.5395 0.842 66.8924 -30.6207)" fill="#E7E9DB" width="4.926" height="5.04"/>
		</g>
		<g>
			<path fill="#FFC740" d="M47.997,33.837c-13.204,8.262-17.395,25.47-9.644,38.844l48.794-30.53
				C78.51,29.331,61.201,25.575,47.997,33.837z M43.067,59.618c-0.505-7.211,2.908-14.403,9.477-18.515
				c6.569-4.109,14.529-4.033,20.794-0.426L43.067,59.618z"/>
			<g>
				<g>
					
						<rect x="83.714" y="40.066" transform="matrix(0.8508 -0.5255 0.5255 0.8508 -9.4132 50.2655)" fill="#67455D" width="0.195" height="3.286"/>
					
						<rect x="83.154" y="41.82" transform="matrix(0.8435 -0.5372 0.5372 0.8435 -9.97 51.4256)" fill="#67455D" width="0.195" height="1.999"/>
					
						<rect x="81.784" y="41.274" transform="matrix(0.8517 -0.5241 0.5241 0.8517 -10.3463 49.2802)" fill="#67455D" width="0.194" height="3.286"/>
					
						<rect x="81.224" y="43.029" transform="matrix(0.8472 -0.5314 0.5314 0.8472 -10.9642 49.9395)" fill="#67455D" width="0.195" height="1.998"/>
					
						<rect x="79.854" y="42.483" transform="matrix(0.8494 -0.5277 0.5277 0.8494 -11.2464 48.8382)" fill="#67455D" width="0.194" height="3.285"/>
					
						<rect x="79.293" y="44.236" transform="matrix(0.8457 -0.5336 0.5336 0.8457 -11.8906 49.342)" fill="#67455D" width="0.194" height="1.999"/>
					
						<rect x="77.923" y="43.689" transform="matrix(0.8449 -0.5349 0.5349 0.8449 -12.1481 48.7673)" fill="#67455D" width="0.195" height="3.287"/>
					
						<rect x="77.363" y="45.442" transform="matrix(0.8449 -0.5349 0.5349 0.8449 -12.8288 48.6396)" fill="#67455D" width="0.195" height="2"/>
					
						<rect x="75.993" y="44.898" transform="matrix(0.8486 -0.5291 0.5291 0.8486 -13.1017 47.3077)" fill="#67455D" width="0.196" height="3.286"/>
					
						<rect x="75.433" y="46.651" transform="matrix(0.8449 -0.5349 0.5349 0.8449 -13.7746 47.7945)" fill="#67455D" width="0.195" height="1.998"/>
					
						<rect x="74.062" y="46.103" transform="matrix(0.8426 -0.5385 0.5385 0.8426 -14.0409 47.4481)" fill="#67455D" width="0.196" height="3.287"/>
					
						<rect x="73.502" y="47.859" transform="matrix(0.8457 -0.5336 0.5336 0.8457 -14.7173 46.811)" fill="#67455D" width="0.194" height="1.999"/>
					
						<rect x="72.132" y="47.313" transform="matrix(0.8463 -0.5327 0.5327 0.8463 -14.9774 45.9993)" fill="#67455D" width="0.196" height="3.287"/>
					
						<rect x="71.572" y="49.068" transform="matrix(0.8486 -0.5291 0.5291 0.8486 -15.6364 45.5028)" fill="#67455D" width="0.196" height="1.997"/>
					
						<rect x="70.202" y="48.521" transform="matrix(0.8472 -0.5314 0.5314 0.8472 -15.9096 45.021)" fill="#67455D" width="0.195" height="3.285"/>
					
						<rect x="69.641" y="50.275" transform="matrix(0.8486 -0.5291 0.5291 0.8486 -16.5678 44.6639)" fill="#67455D" width="0.196" height="1.998"/>
					
						<rect x="68.272" y="49.729" transform="matrix(0.848 -0.53 0.53 0.848 -16.8347 44.0439)" fill="#67455D" width="0.193" height="3.286"/>
					
						<rect x="67.711" y="51.483" transform="matrix(0.853 -0.5219 0.5219 0.853 -17.4227 43.0995)" fill="#67455D" width="0.195" height="1.998"/>
					
						<rect x="66.342" y="50.936" transform="matrix(0.8457 -0.5336 0.5336 0.8457 -17.8073 43.5643)" fill="#67455D" width="0.194" height="3.286"/>
					
						<rect x="65.78" y="52.69" transform="matrix(0.8477 -0.5304 0.5304 0.8477 -18.4472 43.1209)" fill="#67455D" width="0.197" height="1.998"/>
					
						<rect x="64.411" y="52.144" transform="matrix(0.8494 -0.5277 0.5277 0.8494 -18.6708 42.1434)" fill="#67455D" width="0.194" height="3.286"/>
					
						<rect x="63.85" y="53.898" transform="matrix(0.8457 -0.5336 0.5336 0.8457 -19.4288 42.5923)" fill="#67455D" width="0.194" height="1.998"/>
					
						<rect x="62.48" y="53.351" transform="matrix(0.8449 -0.5349 0.5349 0.8449 -19.712 42.0048)" fill="#67455D" width="0.195" height="3.287"/>
					
						<rect x="61.92" y="55.107" transform="matrix(0.8486 -0.5291 0.5291 0.8486 -20.2934 41.3103)" fill="#67455D" width="0.196" height="1.997"/>
					
						<rect x="60.55" y="54.56" transform="matrix(0.8499 -0.5269 0.5269 0.8499 -20.511 40.3868)" fill="#67455D" width="0.196" height="3.286"/>
					
						<rect x="59.99" y="56.314" transform="matrix(0.8449 -0.5349 0.5349 0.8449 -21.3385 41.0322)" fill="#67455D" width="0.195" height="1.998"/>
					
						<rect x="58.619" y="55.768" transform="matrix(0.8472 -0.5314 0.5314 0.8472 -21.5307 39.9743)" fill="#67455D" width="0.195" height="3.286"/>
					
						<rect x="58.059" y="57.521" transform="matrix(0.8426 -0.5385 0.5385 0.8426 -22.3606 40.5259)" fill="#67455D" width="0.196" height="2"/>
					
						<rect x="56.69" y="56.975" transform="matrix(0.8435 -0.5372 0.5372 0.8435 -22.5999 39.6825)" fill="#67455D" width="0.195" height="3.287"/>
					
						<rect x="56.129" y="58.73" transform="matrix(0.8499 -0.5269 0.5269 0.8499 -23.032 38.5867)" fill="#67455D" width="0.196" height="1.997"/>
					
						<rect x="54.759" y="58.183" transform="matrix(0.8486 -0.5291 0.5291 0.8486 -23.3465 38.085)" fill="#67455D" width="0.196" height="3.286"/>
					
						<rect x="54.199" y="59.938" transform="matrix(0.8472 -0.5314 0.5314 0.8472 -24.0796 38.1644)" fill="#67455D" width="0.195" height="1.997"/>
					
						<rect x="52.829" y="59.391" transform="matrix(0.8457 -0.5336 0.5336 0.8457 -24.4037 37.6578)" fill="#67455D" width="0.194" height="3.286"/>
					
						<rect x="52.269" y="61.145" transform="matrix(0.8494 -0.5277 0.5277 0.8494 -24.9101 36.9939)" fill="#67455D" width="0.194" height="1.999"/>
					
						<rect x="50.899" y="60.598" transform="matrix(0.8508 -0.5255 0.5255 0.8508 -25.0985 36.0849)" fill="#67455D" width="0.195" height="3.287"/>
					
						<rect x="50.338" y="62.354" transform="matrix(0.8522 -0.5233 0.5233 0.8522 -25.6939 35.7566)" fill="#67455D" width="0.196" height="1.997"/>
					
						<rect x="48.968" y="61.805" transform="matrix(0.8449 -0.5349 0.5349 0.8449 -26.3304 36.0882)" fill="#67455D" width="0.195" height="3.287"/>
					
						<rect x="48.407" y="63.56" transform="matrix(0.8463 -0.5327 0.5327 0.8463 -26.9352 35.7597)" fill="#67455D" width="0.196" height="1.998"/>
					
						<rect x="47.038" y="63.013" transform="matrix(0.8435 -0.5372 0.5372 0.8435 -27.3546 35.4424)" fill="#67455D" width="0.195" height="3.287"/>
					
						<rect x="46.477" y="64.769" transform="matrix(0.8513 -0.5246 0.5246 0.8513 -27.5801 34.2141)" fill="#67455D" width="0.197" height="1.997"/>
					
						<rect x="45.108" y="64.222" transform="matrix(0.8472 -0.5314 0.5314 0.8472 -28.0877 34.0872)" fill="#67455D" width="0.195" height="3.286"/>
					
						<rect x="44.547" y="65.977" transform="matrix(0.8472 -0.5314 0.5314 0.8472 -28.7637 33.9587)" fill="#67455D" width="0.195" height="1.997"/>
					
						<rect x="43.177" y="65.43" transform="matrix(0.8457 -0.5336 0.5336 0.8457 -29.1153 33.4391)" fill="#67455D" width="0.194" height="3.287"/>
					
						<rect x="42.616" y="67.183" transform="matrix(0.8426 -0.5385 0.5385 0.8426 -29.9938 33.7306)" fill="#67455D" width="0.196" height="1.999"/>
					
						<rect x="41.247" y="66.637" transform="matrix(0.8472 -0.5314 0.5314 0.8472 -29.9616 32.4048)" fill="#67455D" width="0.195" height="3.287"/>
					
						<rect x="40.686" y="68.392" transform="matrix(0.8486 -0.5291 0.5291 0.8486 -30.5383 32.0876)" fill="#67455D" width="0.196" height="1.997"/>
					
						<rect x="39.316" y="67.845" transform="matrix(0.8463 -0.5327 0.5327 0.8463 -30.9577 31.6746)" fill="#67455D" width="0.196" height="3.287"/>
				</g>
			</g>
		</g>
		<g>
			<path fill="#6E6E69" d="M60.193,37.062c0.165,0.149,0.012,0.592-0.341,0.983L44.968,54.513c-0.354,0.393-0.777,0.59-0.943,0.44
				s-0.013-0.591,0.343-0.982L59.25,37.502C59.605,37.11,60.029,36.912,60.193,37.062z"/>
			<g>
				
					<ellipse transform="matrix(0.8104 -0.5859 0.5859 0.8104 -27.4253 45.6026)" fill="#3F403F" cx="56.736" cy="65.169" rx="0.677" ry="3.172"/>
				<path fill="#7F8D98" d="M57.434,64.666c-0.154-0.554-0.057-1.44-0.478-2.021c-1.057-1.464-2.514-2.217-3.256-1.68
					c-0.741,0.535-0.486,2.156,0.57,3.619c0.421,0.582,1.292,0.769,1.769,1.091L57.434,64.666z"/>
				<path fill="#5F5C64" d="M57.088,62.849c-0.119-0.581-0.388-1.202-0.808-1.784c-1.059-1.462-2.651-2.114-3.563-1.459
					c-0.909,0.658-0.789,2.376,0.266,3.84c0.422,0.581,0.927,1.033,1.44,1.327L57.088,62.849z"/>
				<path fill="#016FB0" d="M56.219,59.32c0.77,1.067,0.247,2.184-0.821,2.956l-0.986,0.713c-1.069,0.771-2.293,0.917-3.065-0.15
					L38.566,42.275c-0.77-1.068-2.124-4.374-1.056-5.146l0.6-0.432c1.068-0.772,3.198,1.972,3.968,3.041L56.219,59.32z"/>
				
					<ellipse transform="matrix(0.8112 -0.5848 0.5848 0.8112 -27.3991 45.4873)" fill="#7F8D98" cx="56.736" cy="65.17" rx="0.373" ry="3.171"/>
				<path fill="#BCCCDB" d="M57.121,64.892c-0.228-0.501-0.347-1.23-0.768-1.812c-1.056-1.466-2.245-2.411-2.653-2.115
					c-0.409,0.296,0.116,1.722,1.173,3.184c0.419,0.582,1.075,0.925,1.478,1.299L57.121,64.892z"/>
				<path fill="#687C82" d="M56.489,63.281c-0.207-0.518-0.528-1.101-0.949-1.683c-1.058-1.463-2.319-2.355-2.822-1.993
					c-0.501,0.362-0.051,1.845,1.005,3.306c0.422,0.582,0.873,1.072,1.299,1.43L56.489,63.281z"/>
				<path fill="#0788C7" d="M55.126,60.108c0.771,1.067,0.641,1.901,0.05,2.327l-0.543,0.395c-0.59,0.424-1.422,0.288-2.192-0.78
					L39.438,41.646c-0.77-1.067-2.429-4.153-1.839-4.579l0.33-0.238c0.588-0.427,2.675,2.351,3.445,3.419L55.126,60.108z"/>
				
					<ellipse transform="matrix(-0.4998 0.8661 -0.8661 -0.4998 149.6091 10.9587)" fill="#3F403F" cx="71.64" cy="48.68" rx="0.677" ry="3.172"/>
				<path fill="#7F8D98" d="M71.21,49.424c-0.567-0.097-1.439,0.089-2.061-0.271c-1.562-0.903-2.457-2.279-1.998-3.071
					c0.458-0.791,2.096-0.7,3.658,0.203c0.622,0.358,0.894,1.208,1.263,1.65L71.21,49.424z"/>
				<path fill="#5F5C64" d="M69.367,49.263c-0.59-0.06-1.236-0.266-1.856-0.624c-1.563-0.903-2.373-2.424-1.811-3.396
					c0.562-0.973,2.284-1.025,3.847-0.122c0.62,0.359,1.121,0.816,1.464,1.298L69.367,49.263z"/>
				<path fill="#016FB0" d="M65.767,48.754c1.142,0.66,2.199,0.026,2.859-1.114l0.61-1.054c0.659-1.141,0.682-2.374-0.459-3.033
					L47.031,32.911c-1.141-0.66-4.565-1.673-5.226-0.532l-0.37,0.64c-0.659,1.139,2.285,2.981,3.426,3.643L65.767,48.754z"/>
				
					<ellipse transform="matrix(-0.5004 0.8658 -0.8658 -0.5004 149.6328 11.0099)" fill="#7F8D98" cx="71.64" cy="48.679" rx="0.373" ry="3.173"/>
				<path fill="#BCCCDB" d="M71.403,49.09c-0.522-0.176-1.261-0.221-1.883-0.579c-1.562-0.903-2.623-1.991-2.369-2.429
					c0.252-0.437,1.723-0.059,3.287,0.846c0.62,0.36,1.026,0.977,1.438,1.342L71.403,49.09z"/>
				<path fill="#687C82" d="M69.735,48.623c-0.535-0.151-1.148-0.414-1.77-0.773c-1.562-0.903-2.576-2.072-2.266-2.606
					c0.309-0.535,1.827-0.237,3.39,0.666c0.62,0.36,1.153,0.762,1.553,1.147L69.735,48.623z"/>
				<path fill="#0788C7" d="M66.441,47.587c1.142,0.659,1.957,0.444,2.321-0.184l0.337-0.58c0.362-0.631,0.144-1.444-0.997-2.104
					l-21.61-10.878c-1.14-0.659-4.376-1.998-4.74-1.369l-0.204,0.354c-0.365,0.628,2.607,2.424,3.748,3.084L66.441,47.587z"/>
			</g>
			<path fill="#D9D6C7" d="M46.024,33.888c0.979,0.884,1.055,2.407,0.171,3.384l-3.374,3.733c-0.884,0.978-2.405,1.055-3.384,0.17
				l-3.556-3.212c-0.977-0.884-1.054-2.407-0.17-3.385l3.373-3.731c0.885-0.979,2.407-1.056,3.385-0.172L46.024,33.888z"/>
			<path fill="#526470" d="M37.662,29.741c0.391,0.354,0.422,0.963,0.067,1.354l-1.11,1.229c-0.354,0.39-0.961,0.42-1.354,0.066
				l-0.933-0.843c-0.392-0.354-0.423-0.963-0.069-1.354l1.111-1.229c0.354-0.391,0.962-0.421,1.354-0.067L37.662,29.741z"/>
			<path fill="#7D8E9A" d="M37.198,30.255c0.391,0.353,0.534,0.838,0.316,1.077l-0.68,0.753c-0.219,0.24-0.715,0.148-1.105-0.205
				l-0.934-0.844c-0.391-0.354-0.533-0.839-0.316-1.08l0.68-0.752c0.218-0.239,0.714-0.147,1.105,0.207L37.198,30.255z"/>
			<g>
				<circle fill="#6E6E69" cx="38.915" cy="37.601" r="1.169"/>
				<circle fill="#6E6E69" cx="42.415" cy="33.729" r="1.168"/>
			</g>
			<path fill="#7A888F" d="M54.633,47.551c0.195,0.177,0.21,0.48,0.033,0.677l-0.091,0.101c-0.176,0.195-0.482,0.212-0.678,0.034
				l-4.313-3.896c-0.194-0.178-0.211-0.482-0.033-0.678l0.092-0.102c0.177-0.195,0.481-0.211,0.676-0.035L54.633,47.551z"/>
		</g>
		<g>
			<g>
				<path fill="#7E2918" d="M50.331,80.305C61.47,62.673,71.184,48.814,72.033,49.35c0.849,0.536-7.493,15.263-18.628,32.896
					c-0.069,0.106-0.136,0.213-0.204,0.32l-3.071-1.939C50.198,80.519,50.265,80.413,50.331,80.305z"/>
				<path fill="#ABABAB" d="M53.201,82.565c-1.879,2.97-3.716,5.832-5.476,8.534l-2.95-1.862c1.683-2.75,3.479-5.639,5.354-8.611
					L53.201,82.565z"/>
				<path fill="#958E8E" d="M51.766,81.659l1.436,0.906c-1.879,2.97-3.716,5.832-5.476,8.534l-1.376-0.868L51.766,81.659z"/>
				<path fill="#272727" d="M45.855,93.963c-0.973-0.157-1.334,0.649-2.279-0.08c-0.479-0.37-0.256-0.415-0.235-0.978
					c0.021-0.576-0.155-0.728-0.646-1.016c-0.572-0.334-0.576-0.201-1.139-0.032c-0.182,0.054-0.357,0.081-0.53,0.093
					c0.034-0.039,0.07-0.081,0.107-0.12c1.752-1.796,3.643-2.593,3.643-2.593l2.95,1.862c0,0-0.22,1.304-1.21,3.187
					C46.354,94.125,46.136,94.009,45.855,93.963z"/>
				<path fill="#D62526" d="M41.556,91.857c0.563-0.169,0.566-0.302,1.139,0.032c0.491,0.288,0.668,0.439,0.646,1.016
					c-0.021,0.563-0.244,0.607,0.235,0.978c0.945,0.729,1.307-0.077,2.279,0.08c0.28,0.046,0.499,0.162,0.66,0.323
					c-0.148,0.283-0.316,0.58-0.501,0.887c-1.421,2.348-5.754,1.797-7.152,5.096c0,0-0.727-5.205,2.163-8.318
					C41.198,91.938,41.374,91.911,41.556,91.857z"/>
				<path fill="#191818" d="M46.324,90.215l1.401,0.885c0,0-0.22,1.304-1.21,3.187c-0.161-0.161-0.38-0.277-0.66-0.323
					c-0.859-0.14-1.241,0.471-1.972,0.115L46.324,90.215z"/>
				<path fill="#C62127" d="M43.884,94.078c0.73,0.355,1.112-0.255,1.972-0.115c0.28,0.046,0.499,0.162,0.66,0.323
					c-0.148,0.283-0.316,0.58-0.501,0.887c-0.851,1.406-2.747,1.772-4.432,2.55L43.884,94.078z"/>
				<path opacity="0.5" fill="#FFFFFF" d="M71.394,50.129c0,0-1.648,2.341-4.122,5.854c-1.236,1.756-2.655,3.822-4.179,6.033
					c-0.76,1.107-1.544,2.252-2.341,3.415c-0.789,1.168-1.593,2.354-2.395,3.54c-0.796,1.19-1.592,2.381-2.376,3.554
					c-0.777,1.176-1.549,2.329-2.28,3.455c-0.737,1.123-1.45,2.205-2.113,3.244c-0.33,0.52-0.652,1.024-0.963,1.514
					c-0.313,0.486-0.602,0.967-0.885,1.422c-0.567,0.912-1.073,1.758-1.513,2.514c-0.438,0.756-0.836,1.404-1.127,1.961
					c-0.602,1.102-0.937,1.734-0.938,1.734l0.033,0.019c0,0,0.384-0.606,1.037-1.675c0.082-0.134,0.167-0.273,0.259-0.421
					c0.093-0.146,0.19-0.3,0.292-0.458c0.201-0.319,0.418-0.664,0.65-1.033c0.234-0.369,0.477-0.764,0.745-1.174
					c0.265-0.409,0.542-0.844,0.834-1.295c0.575-0.904,1.203-1.884,1.874-2.916c0.661-1.037,1.367-2.124,2.1-3.248
					c0.729-1.128,1.496-2.283,2.27-3.462c0.779-1.173,1.572-2.365,2.363-3.56c1.594-2.378,3.187-4.758,4.681-6.988
					c1.503-2.226,2.905-4.303,4.107-6.082c2.41-3.553,4.018-5.924,4.018-5.924L71.394,50.129z"/>
				<path opacity="0.5" fill="#FFFFFF" d="M41.166,92.454c0,0-1.993,2.381-1.924,6.064c0,0,1.765-4.198,2.95-5.326
					C42.192,93.192,42.624,92.249,41.166,92.454z"/>
			</g>
			<g>
				<path fill="#7E2918" d="M47.398,75.084c19.07-8.436,34.858-14.532,35.265-13.613c0.405,0.916-14.725,8.499-33.793,16.934
					c-0.116,0.052-0.231,0.103-0.347,0.153l-1.471-3.319C47.17,75.188,47.282,75.137,47.398,75.084z"/>
				<path fill="#ABABAB" d="M48.523,78.558c-3.215,1.421-6.336,2.774-9.301,4.038l-1.413-3.191c2.93-1.344,6.029-2.742,9.243-4.166
					L48.523,78.558z"/>
				<path fill="#272727" d="M36.053,83.757c-0.318,0.048-0.733,0.068-0.938-0.242c-0.22-0.326,0.067-0.624,0.328-0.823
					c0.278-0.214,0.327-0.336,0.201-0.706c-0.152-0.454-0.441-0.279-0.789-0.232c-0.279,0.039-0.561-0.109-0.581-0.465
					c-0.016-0.276,0.39-0.494,0.402-0.723c0.002-0.078-0.02-0.15-0.06-0.221l3.191-0.944l1.415,3.195l-2.212,1.308
					C36.796,83.711,36.479,83.693,36.053,83.757z"/>
				<path fill="#1BA0DA" d="M34.616,80.345c0.04,0.07,0.062,0.143,0.06,0.221c-0.013,0.229-0.418,0.446-0.402,0.723
					c0.021,0.355,0.302,0.504,0.581,0.465c0.348-0.047,0.637-0.222,0.789,0.232c0.126,0.37,0.077,0.492-0.201,0.706
					c-0.261,0.199-0.548,0.497-0.328,0.823c0.205,0.311,0.62,0.29,0.938,0.242c0.426-0.063,0.743-0.046,0.958,0.146l-3.022,1.786
					c-0.338,0.194-0.73,0.095-0.871-0.222l-1.568-3.544c-0.139-0.314,0.049-0.673,0.422-0.793L34.616,80.345z"/>
				<path fill="#958E8E" d="M47.836,77.007l0.688,1.551c-3.215,1.421-6.336,2.774-9.301,4.038l-0.659-1.487L47.836,77.007z"/>
				<path fill="#161919" d="M38.563,81.108l0.659,1.487l-2.212,1.308c-0.215-0.192-0.532-0.21-0.958-0.146
					c-0.318,0.048-0.733,0.068-0.938-0.242c-0.22-0.326,0.067-0.624,0.328-0.823c0.147-0.114,0.229-0.203,0.255-0.315L38.563,81.108
					z"/>
				<path fill="#0896BA" d="M35.697,82.376c-0.026,0.112-0.107,0.201-0.255,0.315c-0.261,0.199-0.548,0.497-0.328,0.823
					c0.205,0.311,0.62,0.29,0.938,0.242c0.426-0.063,0.743-0.046,0.958,0.146l-3.022,1.786c-0.338,0.194-0.73,0.095-0.871-0.222
					l-0.72-1.631L35.697,82.376z"/>
				<path opacity="0.5" fill="#FFFFFF" d="M81.714,61.797c0,0-2.673,1.025-6.684,2.563c-2.006,0.77-4.334,1.696-6.832,2.683
					c-1.248,0.496-2.535,1.01-3.844,1.53c-1.308,0.529-2.635,1.068-3.961,1.606c-1.325,0.546-2.648,1.09-3.952,1.627
					c-1.302,0.543-2.584,1.071-3.819,1.597c-1.236,0.523-2.434,1.026-3.561,1.521c-0.564,0.245-1.114,0.485-1.644,0.717
					c-0.532,0.23-1.037,0.471-1.529,0.691c-0.979,0.44-1.87,0.859-2.654,1.245c-0.785,0.382-1.477,0.697-2.028,0.998
					c-1.113,0.578-1.744,0.918-1.744,0.918l0.019,0.035c0,0,0.655-0.292,1.792-0.814c0.144-0.065,0.292-0.135,0.45-0.206
					c0.158-0.069,0.324-0.14,0.497-0.217c0.346-0.153,0.719-0.319,1.117-0.496c0.398-0.175,0.82-0.367,1.271-0.56
					c0.449-0.193,0.921-0.398,1.411-0.611c0.985-0.431,2.052-0.892,3.183-1.377c1.127-0.492,2.32-1.002,3.553-1.528
					c1.234-0.528,2.515-1.062,3.813-1.608c1.301-0.539,2.623-1.089,3.945-1.639c2.648-1.088,5.297-2.177,7.779-3.197
					c2.487-1.01,4.809-1.952,6.798-2.76c3.983-1.609,6.638-2.681,6.638-2.681L81.714,61.797z"/>
			</g>
		</g>
	</g>
</g>
</svg>
