<?xml version="1.0" encoding="utf-8"?>
<!-- Generator: Adobe Illustrator 16.0.0, SVG Export Plug-In . SVG Version: 6.00 Build 0)  -->
<!DOCTYPE svg PUBLIC "-//W3C//DTD SVG 1.1//EN" "http://www.w3.org/Graphics/SVG/1.1/DTD/svg11.dtd">
<svg version="1.1" id="Layer_1" xmlns="http://www.w3.org/2000/svg" xmlns:xlink="http://www.w3.org/1999/xlink" x="0px" y="0px"
	 width="128px" height="128px" viewBox="0 0 128 128" enable-background="new 0 0 128 128" xml:space="preserve">
<g>
	<circle fill="#4ABDE5" cx="64" cy="64" r="64"/>
	<path fill="#25A5D0" d="M101.023,44.047l-12.53-3.563l-16.709-17.78l-6.467,7.124L45.581,50.758l-14.344,19.89L44.141,83.94
		L29.741,97.508l-2.938,2.711l27.276,27.013C57.313,127.735,60.625,128,64,128c33.173,0,60.446-25.236,63.678-57.558L101.023,44.047
		z"/>
	<g>
		<g>
			<path fill="#E3E5E5" d="M37.263,59.771c0.093,0.188,0.226,0.362,0.396,0.508c0.654,0.55,1.63,0.466,2.18-0.188l25.479-30.264
				c0.55-0.652,0.467-1.632-0.188-2.179c-0.654-0.552-1.63-0.468-2.18,0.186L37.474,58.098
				C37.065,58.58,37.005,59.238,37.263,59.771z"/>
		</g>
		<circle fill="#233640" cx="64.297" cy="28.26" r="9.333"/>
		<g>
			<path fill="#E3E5E5" d="M80.632,66.526c0.21,0,0.424-0.044,0.628-0.136c0.781-0.347,1.132-1.262,0.784-2.041L65.967,28.204
				c-0.348-0.78-1.263-1.134-2.042-0.784c-0.781,0.346-1.132,1.261-0.784,2.041l16.077,36.145
				C79.475,66.182,80.039,66.526,80.632,66.526z"/>
		</g>
		<circle fill="#C27329" cx="37.698" cy="61.703" r="11.045"/>
		<g>
			<path fill="#E3E5E5" d="M38.286,60.617c-0.102,0.185-0.165,0.393-0.182,0.615c-0.068,0.854,0.568,1.598,1.419,1.664l39.438,3.104
				c0.853,0.068,1.6-0.57,1.665-1.42c0.066-0.853-0.569-1.598-1.422-1.664l-39.438-3.103C39.138,59.762,38.567,60.098,38.286,60.617
				z"/>
		</g>
		<circle fill="#E1574C" cx="80.631" cy="64.504" r="13.844"/>
		
			<rect x="52.225" y="75.126" transform="matrix(-0.4554 -0.8903 0.8903 -0.4554 9.9943 165.564)" fill="#ECECEC" width="6.824" height="9.199"/>
		<path fill="#FFFFFF" d="M70.324,40.678c-13.803,7.063-19.27,23.977-12.209,37.778c7.063,13.806,23.978,19.27,37.78,12.208
			c13.803-7.061,19.271-23.975,12.209-37.778C101.043,39.084,84.129,33.617,70.324,40.678z M73.068,46.041
			c10.841-5.547,24.128-1.253,29.672,9.588c5.55,10.843,1.255,24.128-9.587,29.676c-10.842,5.545-24.128,1.251-29.676-9.592
			C57.933,64.873,62.228,51.588,73.068,46.041z"/>
		<path fill="#27323B" d="M25.996,85.668c-3.25,1.664-4.551,5.68-2.886,8.932l1.433,2.802c1.661,3.247,5.681,4.546,8.932,2.885
			l17.038-8.716c3.248-1.662,4.548-5.684,2.887-8.93l-1.434-2.803c-1.665-3.252-5.682-4.549-8.931-2.885L25.996,85.668z"/>
		<path fill="#E3E5E5" d="M88.911,80.813c8.621-4.408,12.033-14.971,7.625-23.59c-1.935-3.778-5.053-6.557-8.668-8.112
			c5.343,0.849,10.221,4.13,12.873,9.313c4.408,8.619,0.996,19.18-7.621,23.592c-4.839,2.475-10.292,2.48-14.92,0.49
			C81.739,83.069,85.477,82.57,88.911,80.813z"/>
	</g>
</g>
</svg>
