<?xml version="1.0" encoding="utf-8"?>
<!-- Generator: Adobe Illustrator 16.0.0, SVG Export Plug-In . SVG Version: 6.00 Build 0)  -->
<!DOCTYPE svg PUBLIC "-//W3C//DTD SVG 1.1//EN" "http://www.w3.org/Graphics/SVG/1.1/DTD/svg11.dtd">
<svg version="1.1" id="Layer_1" xmlns="http://www.w3.org/2000/svg" xmlns:xlink="http://www.w3.org/1999/xlink" x="0px" y="0px"
	 width="128px" height="128px" viewBox="0 0 128 128" enable-background="new 0 0 128 128" xml:space="preserve">
<g>
	<circle fill="#E5766D" cx="64" cy="64" r="64"/>
	<path fill="#E1574C" d="M67.836,16.459l-1.984,1.114L45.36,48.08l-9.427,3.893l21.075,22.177l-4.387,1.27l-3.777-5.342
		l-22.561-6.152l20.288,22.584v4.561H24.561l-1.135,1.014l36.092,35.743C61,127.929,62.491,128,64,128
		c31.566,0,57.777-22.86,63.025-52.925L67.836,16.459z"/>
	<polygon fill="#455D6A" points="62.323,74.514 56.4,74.514 55.554,74.514 49.631,74.514 43.496,89.321 55.554,89.321 56.4,89.321 
		68.457,89.321 	"/>
	<path fill="#2B414D" d="M78.399,90.379c0,1.978-2.565,3.596-5.701,3.596H28.467c-3.136,0-5.701-1.618-5.701-3.596
		s2.565-3.596,5.701-3.596h44.231C75.834,86.783,78.399,88.401,78.399,90.379z"/>
	<g>
		<path fill="#EECE7B" d="M68.281,41.655c-1.498,1.782-3.062,3.464-4.759,5.037c2.137,2.854,3.419,6.383,3.419,10.214
			c0,9.427-7.671,17.097-17.1,17.097c-2.9,0-5.632-0.731-8.028-2.011c-0.058,0.236-0.147,0.441-0.218,0.664
			c0.477,1.26,0.949,2.473,1.859,3.52c1.088,1.252,1.943,2.456,2.551,4.006c0.046,0.116,0.063,0.236,0.087,0.355
			c1.223,0.195,2.473,0.308,3.749,0.308c13.201,0,23.941-10.739,23.941-23.938C73.783,51.115,71.716,45.801,68.281,41.655z"/>
	</g>
	<polygon fill="#D7DADA" points="45.705,75.419 26.284,63.925 29.423,58.581 48.845,70.077 	"/>
	<path fill="#233640" d="M65.907,14.737c-1.089-0.62-2.489-0.235-3.11,0.854l-2.613,4.591c-0.621,1.09-1.978,1.498-3.018,0.907
		c-1.04-0.592-2.396-0.185-3.018,0.906L41.102,44.91c-0.619,1.09-1.768,1.618-2.552,1.171c-0.784-0.445-1.933,0.081-2.552,1.171
		l-0.918,1.61c-0.619,1.091-0.236,2.49,0.854,3.11l14.369,8.181c1.089,0.62,2.489,0.235,3.111-0.854l0.915-1.61
		c0.621-1.09,0.487-2.346-0.296-2.793c-0.784-0.446-0.916-1.703-0.297-2.792l13.047-22.915c0.621-1.09,0.278-2.466-0.76-3.057
		c-1.04-0.593-1.381-1.968-0.762-3.058l2.615-4.592c0.619-1.089,0.235-2.489-0.855-3.11L65.907,14.737z"/>
	<circle fill="#E3E5E5" cx="60.868" cy="43.939" r="8.246"/>
	<circle fill="#233640" cx="60.868" cy="43.939" r="5.904"/>
	<path fill="#E3E5E5" d="M104.621,97.424l-12.489-20.25V60.022H78.955v17.151l-12.489,20.25c-1.466,2.376-0.216,4.321,2.778,4.321
		h32.599C104.838,101.745,106.087,99.8,104.621,97.424z"/>
	<path fill="#2DA8D2" d="M90.681,77.586v-4.86H80.405v4.86L67.701,98.187c-0.375,0.606-0.494,1.157-0.316,1.471
		c0.17,0.309,0.749,0.635,1.859,0.635h32.599c1.109,0,1.688-0.326,1.858-0.635c0.178-0.313,0.059-0.864-0.316-1.471L90.681,77.586z"
		/>
	<circle fill="#FFFFFF" cx="87.688" cy="96.521" r="1.07"/>
	<circle fill="#FFFFFF" cx="78.797" cy="92.53" r="2.273"/>
	<circle fill="#FFFFFF" cx="93.23" cy="89.625" r="1.443"/>
	<rect x="77.49" y="57.616" fill="#D7DADA" width="16.107" height="3.516"/>
</g>
</svg>
