<?xml version="1.0" encoding="utf-8"?>
<!-- Generator: Adobe Illustrator 16.0.0, SVG Export Plug-In . SVG Version: 6.00 Build 0)  -->
<!DOCTYPE svg PUBLIC "-//W3C//DTD SVG 1.1//EN" "http://www.w3.org/Graphics/SVG/1.1/DTD/svg11.dtd">
<svg version="1.1" id="Layer_1" xmlns="http://www.w3.org/2000/svg" xmlns:xlink="http://www.w3.org/1999/xlink" x="0px" y="0px"
	 width="128px" height="128px" viewBox="0 0 128 128" enable-background="new 0 0 128 128" xml:space="preserve">
<g>
	<circle fill="#334E5C" cx="64" cy="64" r="64"/>
	<path fill="#244148" d="M96.674,31.487l-1.357,1.085l-11.998,0.48h-10.08l-4.08,6.959l-11.28-9.119l-7.919,1.92l-16.319,5.04
		L31,58.731l10.319,9.839l-6,6l-2.64,16.559l-2.271,4.086l32.676,32.762C63.39,127.98,63.693,128,64,128c35.346,0,64-28.654,64-64
		c0-0.38-0.021-0.755-0.027-1.133L96.674,31.487z"/>
	<g>
		<path fill="#EF5578" d="M53.228,66.455H37.317c-4.576,0-8.317,3.74-8.317,8.316v15.91c0,4.572,3.741,8.316,8.317,8.316h15.911
			c4.576,0,8.318-3.744,8.318-8.316v-15.91C61.546,70.195,57.804,66.455,53.228,66.455z M53.597,84.863h-6.254v6.188h-4.157v-6.188
			h-6.237v-4.271h6.237v-6.189h4.157v6.189h6.254V84.863z"/>
		<path fill="#EEC931" d="M90.686,29H74.773c-4.574,0-8.316,3.744-8.316,8.317v15.909c0,4.576,3.742,8.317,8.316,8.317h15.912
			c4.574,0,8.314-3.741,8.314-8.317V37.318C99,32.745,95.26,29,90.686,29z M86.123,53.897l-3.508-5.344l-3.541,5.344H73.73
			l6.221-8.885l-5.961-8.364h5.57l3.055,4.741l3.217-4.741h5.359l-5.848,8.169l6.383,9.08H86.123z"/>
		<path fill="#ABD055" d="M90.686,66.455H74.773c-4.574,0-8.316,3.74-8.316,8.316v15.91c0,4.572,3.742,8.316,8.316,8.316h15.912
			c4.574,0,8.314-3.744,8.314-8.316v-15.91C99,70.195,95.26,66.455,90.686,66.455z M91.053,88.428H74.404v-4.207h16.648V88.428z
			 M91.053,81.215H74.404v-4.189h16.648V81.215z"/>
		<path fill="#96AAD7" d="M53.228,29H37.317C32.741,29,29,32.745,29,37.318v15.909c0,4.576,3.741,8.317,8.317,8.317h15.911
			c4.576,0,8.318-3.741,8.318-8.317V37.318C61.546,32.745,57.804,29,53.228,29z M52.351,47.553H38.194v-4.564h14.157V47.553z"/>
	</g>
</g>
</svg>
