<?xml version="1.0" encoding="utf-8"?>
<!-- Generator: Adobe Illustrator 16.0.0, SVG Export Plug-In . SVG Version: 6.00 Build 0)  -->
<!DOCTYPE svg PUBLIC "-//W3C//DTD SVG 1.1//EN" "http://www.w3.org/Graphics/SVG/1.1/DTD/svg11.dtd">
<svg version="1.1" id="Layer_1" xmlns="http://www.w3.org/2000/svg" xmlns:xlink="http://www.w3.org/1999/xlink" x="0px" y="0px"
	 width="128px" height="128px" viewBox="0 0 128 128" enable-background="new 0 0 128 128" xml:space="preserve">
<g>
	<circle fill="#2C5472" cx="64" cy="64" r="64"/>
	<path fill="#224164" d="M77.344,25.214l-8.951,6.216l-9.979,58.059l-13.562,5.967l31.296,31.378
		c25.97-4.992,46.342-25.675,50.885-51.801L77.344,25.214z"/>
	<g>
		<path fill="#FFFFFF" d="M73.54,49.325V32.2h3.013v-7.029H51.447V32.2h3.013v17.125C43.918,53.214,36.386,63.32,36.386,75.214
			c0,15.251,12.362,27.614,27.615,27.614c15.252,0,27.613-12.363,27.613-27.614C91.614,63.32,84.083,53.213,73.54,49.325z"/>
		<circle fill="#FFFFFF" cx="54.672" cy="79.532" r="3.347"/>
		<path fill="#FFFFFF" d="M77.344,78.045c0,1.336-1.083,2.417-2.415,2.417c-1.335,0-2.418-1.081-2.418-2.417
			c0-1.332,1.083-2.414,2.418-2.414C76.261,75.631,77.344,76.713,77.344,78.045z"/>
		<circle fill="#FFFFFF" cx="60.246" cy="91.055" r="2.044"/>
		<path fill="#F7B518" d="M39.661,70.359c-0.319,1.581-0.503,3.203-0.503,4.854c0,13.698,11.144,24.842,24.843,24.842
			c13.697,0,24.841-11.144,24.841-24.842c0-1.651-0.184-3.273-0.503-4.854H39.661z"/>
		<path fill="#F6921E" d="M88.339,70.359H75.378c-1.321,9.633-3.306,22.131-9.646,29.608c12.891-0.896,23.11-11.641,23.11-24.754
			C88.842,73.563,88.658,71.94,88.339,70.359z"/>
		<circle fill="#F6921E" cx="60.525" cy="59.554" r="2.694"/>
		<circle fill="#F6921E" cx="65.357" cy="39.67" r="2.508"/>
	</g>
</g>
</svg>
