<?xml version="1.0" encoding="utf-8"?>
<!-- Generator: Adobe Illustrator 16.0.0, SVG Export Plug-In . SVG Version: 6.00 Build 0)  -->
<!DOCTYPE svg PUBLIC "-//W3C//DTD SVG 1.1//EN" "http://www.w3.org/Graphics/SVG/1.1/DTD/svg11.dtd">
<svg version="1.1" id="Layer_1" xmlns="http://www.w3.org/2000/svg" xmlns:xlink="http://www.w3.org/1999/xlink" x="0px" y="0px"
	 width="128px" height="128px" viewBox="0 0 128 128" enable-background="new 0 0 128 128" xml:space="preserve">
<g>
	<circle fill="#D4603C" cx="64" cy="64" r="64"/>
	<path fill="#CB4428" d="M66.693,21.217l-5.602,10.477l0.328,3.133c0,0,1.293-0.646-1.939,1.939
		c-3.23,2.586-0.646,10.665-0.646,10.665L39.766,99.142l-4.379,8.559l19.605,19.655C57.935,127.771,60.941,128,64,128
		c29.635,0,54.555-20.146,61.838-47.484L66.693,21.217z"/>
	<g>
		<polygon fill="#D0D3D8" points="65.508,83.507 64.904,83.507 64.904,78.084 63.097,78.084 63.097,83.507 62.496,83.507 
			62.496,87.021 63.097,87.021 63.097,92.443 64.904,92.443 64.904,87.021 65.508,87.021 		"/>
		<rect x="45.524" y="84.862" fill="#D0D3D8" width="36.952" height="0.804"/>
		<polygon fill="#FFFFFF" points="85.236,95.424 92.23,107.965 89.604,93.606 69.742,45.895 65.379,47.712 		"/>
		<polygon fill="#D0D3D8" points="86.645,94.216 92.23,107.965 89.604,93.606 69.742,45.895 67.535,47.299 		"/>
		<polygon fill="#FFFFFF" points="42.764,95.424 35.771,107.965 38.397,93.606 58.259,45.895 62.623,47.712 		"/>
		<polygon fill="#D0D3D8" points="42.764,95.424 35.771,107.965 40.706,95.073 60.429,47.054 62.623,47.712 		"/>
		<path fill="#D0D3D8" d="M64,33.233c-4.846,0-8.777,3.931-8.777,8.777c0,4.848,3.932,8.777,8.777,8.777
			c4.85,0,8.78-3.93,8.78-8.777C72.779,37.164,68.85,33.233,64,33.233z M64,46.858c-2.676,0-4.846-2.17-4.846-4.848
			s2.17-4.849,4.846-4.849c2.678,0,4.85,2.171,4.85,4.849S66.678,46.858,64,46.858z"/>
		<path fill="#D0D3D8" d="M67.375,42.011c0,1.864-1.512,3.375-3.375,3.375c-1.861,0-3.375-1.511-3.375-3.375
			s1.514-3.374,3.375-3.374C65.863,38.637,67.375,40.146,67.375,42.011z"/>
		<path fill="#D0D3D8" d="M66.908,31.693v-9.152c0-1.379-1.127-2.507-2.506-2.507h-0.803c-1.377,0-2.508,1.128-2.508,2.507v9.152
			H66.908z"/>
		<path fill="#8DD7F7" d="M64,33.233c-4.846,0-8.777,3.931-8.777,8.777c0,4.848,3.932,8.777,8.777,8.777
			c4.85,0,8.78-3.93,8.78-8.777C72.779,37.164,68.85,33.233,64,33.233z M64,46.858c-2.676,0-4.846-2.17-4.846-4.848
			s2.17-4.849,4.846-4.849c2.678,0,4.85,2.171,4.85,4.849S66.678,46.858,64,46.858z"/>
	</g>
</g>
</svg>
