<?xml version="1.0" encoding="utf-8"?>
<!-- Generator: Adobe Illustrator 16.0.0, SVG Export Plug-In . SVG Version: 6.00 Build 0)  -->
<!DOCTYPE svg PUBLIC "-//W3C//DTD SVG 1.1//EN" "http://www.w3.org/Graphics/SVG/1.1/DTD/svg11.dtd">
<svg version="1.1" id="Layer_1" xmlns="http://www.w3.org/2000/svg" xmlns:xlink="http://www.w3.org/1999/xlink" x="0px" y="0px"
	 width="128px" height="128px" viewBox="0 0 128 128" enable-background="new 0 0 128 128" xml:space="preserve">
<g>
	<circle fill="#5E83A2" cx="64" cy="64" r="64"/>
	<path fill="#487396" d="M101.335,38.563l-9.059,5.953l-11.605,8.16L31.628,87.07l-5.383,3.229l37.598,37.697
		c0.053,0,0.104,0.004,0.157,0.004c34.921,0,63.292-27.976,63.968-62.735L101.335,38.563z"/>
	<polygon fill="#072F49" points="64.092,45.982 26.254,39.253 26.254,90.526 64.092,97.256 	"/>
	<polygon fill="#072F49" points="63.907,45.982 101.746,39.253 101.746,90.526 63.907,97.256 	"/>
	<polygon fill="#FFFFFF" points="64.092,95.936 27.618,89.449 27.618,40.815 64.092,47.302 	"/>
	<path fill="#E7E8D5" d="M64.092,95.936c-10.183-6.85-20.997-10.741-31.181-11.674c0-16.212,0-32.423,0-48.635
		c10.184,0.934,20.998,4.825,31.181,11.675C64.092,63.513,64.092,79.725,64.092,95.936z"/>
	<path fill="#C0C3D2" d="M64.1,95.936C56.372,84.582,45.382,78.988,37.655,79.15c0-16.134,0-32.269,0-48.403
		c7.727-0.163,18.717,5.432,26.444,16.784C64.1,63.666,64.1,79.801,64.1,95.936z"/>
	<path fill="#B0B4C3" d="M60.575,43.001c-1.438,3.683-1.855,7.861-3.115,11.597c-1.361,4.047-2.839,8.119-4.722,11.96
		c-2.376,4.847-5.207,9.475-8.651,13.593c6.682,2.064,14.254,7.322,20.013,15.785V47.531C62.987,45.897,61.802,44.396,60.575,43.001
		z"/>
	<polygon fill="#C0C3D2" points="63.907,95.936 100.381,89.449 100.381,40.815 63.907,47.302 	"/>
	<path fill="#DADCC6" d="M63.907,95.936c10.184-6.85,20.998-10.741,31.181-11.674c0-16.212,0-32.423,0-48.635
		c-10.183,0.934-20.997,4.825-31.181,11.675C63.907,63.513,63.907,79.725,63.907,95.936z"/>
	<path fill="#FFFFFF" d="M63.899,95.936c7.73-11.354,18.719-16.947,26.445-16.785c0-16.134,0-32.269,0-48.403
		c-7.727-0.163-18.715,5.432-26.445,16.784C63.899,63.666,63.899,79.801,63.899,95.936z"/>
	<path fill="#EDEFE7" d="M82.21,32.337c0.026,1.005-0.158,2.061-0.625,3.137c-2.15,4.951-2.5,10.708-3.74,15.929
		c-1.056,4.447-2.014,8.916-2.866,13.406c-1.427,7.504-2.354,15.089-3.581,22.623c6.412-5.627,13.492-8.396,18.947-8.281V30.747
		C87.892,30.695,85.11,31.229,82.21,32.337z"/>
</g>
</svg>
