<?xml version="1.0" encoding="utf-8"?>
<!-- Generator: Adobe Illustrator 16.0.0, SVG Export Plug-In . SVG Version: 6.00 Build 0)  -->
<!DOCTYPE svg PUBLIC "-//W3C//DTD SVG 1.1//EN" "http://www.w3.org/Graphics/SVG/1.1/DTD/svg11.dtd">
<svg version="1.1" id="Layer_1" xmlns="http://www.w3.org/2000/svg" xmlns:xlink="http://www.w3.org/1999/xlink" x="0px" y="0px"
	 width="128px" height="128px" viewBox="0 0 128 128" enable-background="new 0 0 128 128" xml:space="preserve">
<g>
	<circle fill="#14B4E5" cx="64" cy="64" r="64"/>
	<path fill="#0F92AA" d="M91.371,31.686L75.763,46.854L52.569,24.014l12.48,35.965L39.605,90.512l-6.959,7.508l29.864,29.942
		C63.008,127.973,63.5,128,64,128c33.914,0,61.652-26.386,63.844-59.746L91.371,31.686z"/>
	<g>
		<g>
			<path fill="#B8DA99" d="M93.242,93.572c1.078,1.844,0.45,4.234-1.391,5.313l-11.105,6.492c-1.844,1.079-4.234,0.453-5.312-1.391
				L34.761,34.428c-1.08-1.845-0.454-4.234,1.39-5.313l11.105-6.493c1.844-1.079,4.233-0.453,5.313,1.392L93.242,93.572z"/>
			<g>
				<g>
					<g>
						
							<rect x="78.508" y="98.221" transform="matrix(-0.5006 -0.8657 0.8657 -0.5006 30.4654 220.1769)" fill="#44485A" width="0.476" height="6.159"/>
					</g>
					<g>
						<polygon fill="#44485A" points="78.801,98.809 79.037,99.22 75.255,101.434 75.016,101.021 						"/>
					</g>
					<g>
						
							<rect x="76.582" y="94.926" transform="matrix(-0.5048 -0.8633 0.8633 -0.5048 30.9916 213.79)" fill="#44485A" width="0.474" height="6.158"/>
					</g>
					<g>
						
							<rect x="74.862" y="94.635" transform="matrix(-0.5063 -0.8624 0.8624 -0.5063 29.6238 210.612)" fill="#44485A" width="0.474" height="4.382"/>
					</g>
					<g>
						
							<rect x="74.653" y="91.63" transform="matrix(-0.503 -0.8643 0.8643 -0.503 30.7014 207.076)" fill="#44485A" width="0.476" height="6.161"/>
					</g>
					<g>
						
							<rect x="72.935" y="91.339" transform="matrix(-0.5078 -0.8615 0.8615 -0.5078 29.7584 204.0652)" fill="#44485A" width="0.475" height="4.386"/>
					</g>
					<g>
						
							<rect x="74.057" y="86.017" transform="matrix(-0.5014 -0.8652 0.8652 -0.5014 33.1309 200.3658)" fill="#44485A" width="0.475" height="9.24"/>
					</g>
					<g>
						
							<rect x="71.657" y="86.509" transform="matrix(-0.5067 -0.8621 0.8621 -0.5067 31.0849 196.9642)" fill="#44485A" width="0.478" height="6.159"/>
					</g>
					<g>
						
							<rect x="69.941" y="86.218" transform="matrix(-0.5039 -0.8638 0.8638 -0.5039 29.1737 193.5749)" fill="#44485A" width="0.475" height="4.382"/>
					</g>
					<g>
						
							<rect x="69.732" y="83.214" transform="matrix(-0.5045 -0.8634 0.8634 -0.5045 30.7637 190.2416)" fill="#44485A" width="0.476" height="6.158"/>
					</g>
					<g>
						
							<rect x="68.014" y="82.923" transform="matrix(-0.5054 -0.8629 0.8629 -0.5054 29.303 187.0247)" fill="#44485A" width="0.475" height="4.383"/>
					</g>
					<g>
						
							<rect x="67.804" y="79.918" transform="matrix(-0.5051 -0.863 0.863 -0.5051 30.7829 183.6477)" fill="#44485A" width="0.478" height="6.16"/>
					</g>
					<g>
						
							<rect x="66.086" y="79.628" transform="matrix(-0.5045 -0.8634 0.8634 -0.5045 29.142 180.3627)" fill="#44485A" width="0.476" height="4.382"/>
					</g>
					<g>
						
							<rect x="67.208" y="74.305" transform="matrix(-0.5085 -0.8611 0.8611 -0.5085 33.7765 177.1346)" fill="#44485A" width="0.476" height="9.243"/>
					</g>
					<g>
						<polygon fill="#44485A" points="67.586,76.118 67.828,76.527 62.511,79.637 62.268,79.227 						"/>
					</g>
					<g>
						
							<rect x="63.093" y="74.506" transform="matrix(-0.5039 -0.8638 0.8638 -0.5039 28.9899 170.0475)" fill="#44485A" width="0.475" height="4.384"/>
					</g>
					<g>
						
							<rect x="62.884" y="71.502" transform="matrix(-0.5039 -0.8638 0.8638 -0.5039 30.5036 166.6844)" fill="#44485A" width="0.475" height="6.16"/>
					</g>
					<g>
						
							<rect x="61.165" y="71.21" transform="matrix(-0.5045 -0.8634 0.8634 -0.5045 29.0046 163.4508)" fill="#44485A" width="0.476" height="4.385"/>
					</g>
					<g>
						
							<rect x="60.955" y="68.207" transform="matrix(-0.5067 -0.8621 0.8621 -0.5067 30.7395 160.164)" fill="#44485A" width="0.478" height="6.16"/>
					</g>
					<g>
						
							<rect x="59.239" y="67.916" transform="matrix(-0.5021 -0.8648 0.8648 -0.5021 28.7102 156.7446)" fill="#44485A" width="0.477" height="4.384"/>
					</g>
					<g>
						
							<rect x="60.36" y="62.595" transform="matrix(-0.5045 -0.8634 0.8634 -0.5045 33.1364 153.445)" fill="#44485A" width="0.476" height="9.238"/>
					</g>
					<g>
						
							<rect x="57.962" y="63.086" transform="matrix(-0.5045 -0.8634 0.8634 -0.5045 30.4349 149.797)" fill="#44485A" width="0.476" height="6.159"/>
					</g>
					<g>
						
							<rect x="56.244" y="62.796" transform="matrix(-0.503 -0.8643 0.8643 -0.503 28.7222 146.4906)" fill="#44485A" width="0.476" height="4.382"/>
					</g>
					<g>
						
							<rect x="56.036" y="59.792" transform="matrix(-0.5039 -0.8638 0.8638 -0.5039 30.3213 143.1578)" fill="#44485A" width="0.475" height="6.159"/>
					</g>
					<g>
						
							<rect x="54.316" y="59.5" transform="matrix(-0.5082 -0.8613 0.8613 -0.5082 29.1472 140.0274)" fill="#44485A" width="0.479" height="4.382"/>
					</g>
					<g>
						
							<rect x="54.109" y="56.497" transform="matrix(-0.5021 -0.8648 0.8648 -0.5021 30.1116 136.4889)" fill="#44485A" width="0.477" height="6.159"/>
					</g>
					<g>
						
							<rect x="52.388" y="56.204" transform="matrix(-0.5076 -0.8616 0.8616 -0.5076 29.0231 133.3796)" fill="#44485A" width="0.477" height="4.385"/>
					</g>
					<g>
						<polygon fill="#44485A" points="57.617,52.966 57.861,53.376 49.883,58.041 49.639,57.631 						"/>
					</g>
					<g>
						
							<rect x="51.114" y="51.375" transform="matrix(-0.5045 -0.8634 0.8634 -0.5045 30.2443 126.2648)" fill="#44485A" width="0.476" height="6.158"/>
					</g>
					<g>
						
							<rect x="49.396" y="51.084" transform="matrix(-0.5039 -0.8638 0.8638 -0.5039 28.6243 122.9908)" fill="#44485A" width="0.475" height="4.382"/>
					</g>
					<g>
						
							<rect x="49.187" y="48.08" transform="matrix(-0.5021 -0.8648 0.8648 -0.5021 29.9973 119.5901)" fill="#44485A" width="0.477" height="6.16"/>
					</g>
					<g>
						
							<rect x="47.466" y="47.787" transform="matrix(-0.5106 -0.8598 0.8598 -0.5106 29.0885 116.5172)" fill="#44485A" width="0.478" height="4.386"/>
					</g>
					<g>
						
							<rect x="47.261" y="44.785" transform="matrix(-0.4999 -0.8661 0.8661 -0.4999 29.7882 112.93)" fill="#44485A" width="0.475" height="6.159"/>
					</g>
					<g>
						
							<rect x="45.545" y="44.494" transform="matrix(-0.4992 -0.8665 0.8665 -0.4992 28.1862 109.6608)" fill="#44485A" width="0.473" height="4.383"/>
					</g>
					<g>
						
							<rect x="46.664" y="39.173" transform="matrix(-0.5069 -0.862 0.862 -0.5069 32.9293 106.421)" fill="#44485A" width="0.476" height="9.239"/>
					</g>
					<g>
						
							<rect x="44.265" y="39.665" transform="matrix(-0.5036 -0.8639 0.8639 -0.5036 29.9882 102.7185)" fill="#44485A" width="0.477" height="6.158"/>
					</g>
					<g>
						
							<rect x="42.549" y="39.373" transform="matrix(-0.5039 -0.8638 0.8638 -0.5039 28.4423 99.4653)" fill="#44485A" width="0.475" height="4.382"/>
					</g>
					<g>
						
							<rect x="42.338" y="36.368" transform="matrix(-0.5069 -0.862 0.862 -0.5069 30.1555 96.1459)" fill="#44485A" width="0.476" height="6.161"/>
					</g>
					<g>
						
							<rect x="40.619" y="36.077" transform="matrix(-0.5036 -0.8639 0.8639 -0.5036 28.3731 92.8383)" fill="#44485A" width="0.477" height="4.382"/>
					</g>
					<g>
						
							<rect x="40.413" y="33.074" transform="matrix(-0.5014 -0.8652 0.8652 -0.5014 29.7542 89.4532)" fill="#44485A" width="0.475" height="6.159"/>
					</g>
					<g>
						
							<rect x="38.694" y="32.783" transform="matrix(-0.5063 -0.8624 0.8624 -0.5063 28.4821 86.2552)" fill="#44485A" width="0.474" height="4.383"/>
					</g>
					<g>
						
							<rect x="39.813" y="27.46" transform="matrix(-0.5076 -0.8616 0.8616 -0.5076 32.7391 82.8726)" fill="#44485A" width="0.477" height="9.242"/>
					</g>
				</g>
			</g>
		</g>
		<g>
			
				<rect x="59.673" y="31.802" transform="matrix(0.7358 0.6772 -0.6772 0.7358 59.3953 -27.9469)" fill="#F7981D" width="11.687" height="60.7"/>
			
				<rect x="60.738" y="29.074" transform="matrix(0.7362 0.6768 -0.6768 0.7362 56.7187 -26.658)" fill="#FDE531" width="3.632" height="60.7"/>
			
				<rect x="63.369" y="31.642" transform="matrix(-0.7355 -0.6776 0.6776 -0.7355 71.3958 151.8583)" fill="#F8CC0D" width="3.948" height="60.699"/>
			<polygon fill="#DEBEA1" points="49.262,88.439 40.662,80.525 32.162,98.162 			"/>
			<polygon fill="#F1D7B7" points="46.239,85.658 40.662,80.525 32.162,98.162 			"/>
			<polygon fill="#FAF6C3" points="43.35,82.998 40.662,80.525 32.162,98.162 			"/>
			<polygon fill="#39454E" points="34.967,92.342 32.162,98.162 37.803,94.952 			"/>
			<path fill="#E76165" d="M90.346,43.8l4.81-5.228c0.857-0.933,0.915-2.287,0.134-3.01l-5.733-5.276
				c-0.788-0.722-2.132-0.552-2.985,0.379l-4.814,5.229L90.346,43.8z"/>
			<path fill="#A22163" d="M95.289,35.563l-4.503-4.142l-6.37,6.921l5.93,5.458l4.81-5.228C96.013,37.64,96.07,36.285,95.289,35.563
				z"/>
			<path fill="#802149" d="M95.289,35.563l-1.586-1.457l-6.369,6.923l3.012,2.771l4.81-5.228
				C96.013,37.64,96.07,36.285,95.289,35.563z"/>
		</g>
	</g>
</g>
</svg>
