<?xml version="1.0" encoding="utf-8"?>
<!-- Generator: Adobe Illustrator 16.0.0, SVG Export Plug-In . SVG Version: 6.00 Build 0)  -->
<!DOCTYPE svg PUBLIC "-//W3C//DTD SVG 1.1//EN" "http://www.w3.org/Graphics/SVG/1.1/DTD/svg11.dtd">
<svg version="1.1" id="Layer_1" xmlns="http://www.w3.org/2000/svg" xmlns:xlink="http://www.w3.org/1999/xlink" x="0px" y="0px"
	 width="128px" height="128px" viewBox="0 0 128 128" enable-background="new 0 0 128 128" xml:space="preserve">
<g>
	<circle fill="#FFE2B3" cx="64" cy="64" r="64"/>
	<path fill="#F6BB79" d="M89.115,26.063l-0.32,0.907c0,0-29.374,0.668-42.837,0.223s-11.669,7.129-11.669,7.129l2.44,60.287
		l-2.446,4.28l29.387,29.102C63.78,127.992,63.889,128,64,128c35.158,0,63.686-28.354,63.986-63.442L89.115,26.063z"/>
	<g>
		<g>
			<g>
				<polygon fill="#FFFFFF" points="34.289,29.233 34.289,31.3 91.311,31.3 90.328,29.233 				"/>
			</g>
			<g>
				<polygon fill="#FFFFFF" points="34.289,32.254 34.289,34.322 92.742,34.322 91.762,32.254 				"/>
			</g>
			<g>
				<polygon fill="#FFFFFF" points="93.199,35.277 34.289,35.277 34.289,37.346 94.18,37.346 				"/>
			</g>
		</g>
	</g>
	<path fill="#881A24" d="M40.927,38.431c-3.421,0-6.202-2.307-6.202-5.142c0-2.836,2.781-5.142,6.202-5.142h49.103l-0.888-2.067
		H40.927c-4.546,0-8.269,3.243-8.269,7.209c0,3.964,3.723,7.208,8.269,7.208h54.417l-0.893-2.066H40.927z"/>
	<g>
		<g>
			<path fill="#A64426" d="M40.927,40.497c-4.546,0-8.269-3.244-8.269-7.208V94.71c0,3.74,3.326,6.807,7.521,7.141v0.068h0.747
				h43.034h11.383V40.497H40.927z"/>
			<path fill="#A64426" d="M32.658,32.403v0.886c0-0.303,0.061-0.593,0.104-0.886H32.658z"/>
		</g>
	</g>
	<g>
		<g>
			<path fill="#832719" d="M41.25,40.497h-0.323c-4.546,0-8.269-3.244-8.269-7.208V94.71c0,3.74,3.326,6.807,7.521,7.141v0.068h1.07
				V40.497z"/>
		</g>
	</g>
	<polygon fill="#F1C11B" points="58.99,70.538 52.225,60.202 45.255,70.538 45.255,40.545 58.99,40.545 	"/>
</g>
</svg>
