<?xml version="1.0" encoding="utf-8"?>
<!-- Generator: Adobe Illustrator 16.0.0, SVG Export Plug-In . SVG Version: 6.00 Build 0)  -->
<!DOCTYPE svg PUBLIC "-//W3C//DTD SVG 1.1//EN" "http://www.w3.org/Graphics/SVG/1.1/DTD/svg11.dtd">
<svg version="1.1" id="Layer_1" xmlns="http://www.w3.org/2000/svg" xmlns:xlink="http://www.w3.org/1999/xlink" x="0px" y="0px"
	 width="128px" height="128px" viewBox="0 0 128 128" enable-background="new 0 0 128 128" xml:space="preserve">
<g>
	<circle fill="#334E5C" cx="64" cy="64" r="64"/>
	<path fill="#273740" d="M95.021,35.118l-2.265,9.564l-6.292,0.274L69.349,28.29L26.864,41.147l5.795,44.943l6.479,5.643
		l-5.197,5.744l-4.519,2.385l27.69,27.764C59.376,127.868,61.673,128,64,128c33.986,0,61.771-26.496,63.86-59.957L95.021,35.118z"/>
	<g>
		<path fill="#FFFFFF" d="M69.349,28.29L22.103,38.846l10.557,47.245L69.349,28.29z M33.121,45.84l16.496-3.686l-12.81,20.18
			L33.121,45.84z"/>
		<path fill="#FFFFFF" d="M29.674,99.71l76.222-17.031L95.339,35.435L29.674,99.71z M94.878,75.686L59.29,83.637l30.659-30.01
			L94.878,75.686z"/>
		
			<rect x="103.423" y="78.558" transform="matrix(0.9755 -0.2201 0.2201 0.9755 -15.1811 24.7711)" fill="#5E5E5E" width="0.257" height="3.884"/>
		
			<rect x="102.728" y="80.275" transform="matrix(0.9757 -0.2193 0.2193 0.9757 -15.359 24.543)" fill="#5E5E5E" width="0.258" height="2.341"/>
		
			<rect x="101.556" y="78.976" transform="matrix(0.9753 -0.221 0.221 0.9753 -15.3663 24.4684)" fill="#5E5E5E" width="0.256" height="3.884"/>
		
			<rect x="100.861" y="80.693" transform="matrix(0.9755 -0.2201 0.2201 0.9755 -15.5442 24.2406)" fill="#5E5E5E" width="0.257" height="2.341"/>
		
			<rect x="99.689" y="79.394" transform="matrix(0.9753 -0.221 0.221 0.9753 -15.5046 24.0663)" fill="#5E5E5E" width="0.256" height="3.882"/>
		
			<rect x="98.994" y="81.109" transform="matrix(0.9755 -0.2201 0.2201 0.9755 -15.6816 23.8399)" fill="#5E5E5E" width="0.257" height="2.341"/>
		
			<rect x="97.663" y="78.371" transform="matrix(0.9753 -0.221 0.221 0.9753 -15.4899 23.6113)" fill="#5E5E5E" width="0.256" height="5.34"/>
		
			<rect x="97.128" y="81.527" transform="matrix(0.9753 -0.221 0.221 0.9753 -15.869 23.534)" fill="#5E5E5E" width="0.256" height="2.341"/>
		
			<rect x="95.982" y="80.222" transform="matrix(0.9757 -0.2193 0.2193 0.9757 -15.6806 23.081)" fill="#5E5E5E" width="0.258" height="3.882"/>
		
			<rect x="95.288" y="81.937" transform="matrix(0.9763 -0.2165 0.2165 0.9763 -15.7315 22.632)" fill="#5E5E5E" width="0.257" height="2.34"/>
		
			<rect x="94.115" y="80.638" transform="matrix(0.9755 -0.2201 0.2201 0.9755 -15.8674 22.7732)" fill="#5E5E5E" width="0.257" height="3.884"/>
		
			<rect x="93.421" y="82.355" transform="matrix(0.9763 -0.2165 0.2165 0.9763 -15.8663 22.2376)" fill="#5E5E5E" width="0.257" height="2.34"/>
		
			<rect x="92.249" y="81.056" transform="matrix(0.9755 -0.2201 0.2201 0.9755 -16.005 22.3725)" fill="#5E5E5E" width="0.257" height="3.882"/>
		
			<rect x="91.554" y="82.773" transform="matrix(0.9765 -0.2157 0.2157 0.9765 -15.9499 21.7552)" fill="#5E5E5E" width="0.258" height="2.338"/>
		
			<rect x="90.225" y="80.034" transform="matrix(0.9753 -0.221 0.221 0.9753 -16.041 22.0089)" fill="#5E5E5E" width="0.256" height="5.339"/>
		
			<rect x="89.687" y="83.189" transform="matrix(0.9763 -0.2165 0.2165 0.9763 -16.1354 21.449)" fill="#5E5E5E" width="0.257" height="2.34"/>
		
			<rect x="88.545" y="81.885" transform="matrix(0.9763 -0.2165 0.2165 0.9763 -16.0468 21.1889)" fill="#5E5E5E" width="0.257" height="3.88"/>
		
			<rect x="87.849" y="83.6" transform="matrix(0.9761 -0.2173 0.2173 0.9761 -16.3205 21.1465)" fill="#5E5E5E" width="0.256" height="2.339"/>
		
			<rect x="86.678" y="82.301" transform="matrix(0.9765 -0.2157 0.2157 0.9765 -16.1293 20.7102)" fill="#5E5E5E" width="0.258" height="3.882"/>
		
			<rect x="85.981" y="84.016" transform="matrix(0.9761 -0.2173 0.2173 0.9761 -16.4558 20.7507)" fill="#5E5E5E" width="0.256" height="2.341"/>
		
			<rect x="84.81" y="82.718" transform="matrix(0.9748 -0.2229 0.2229 0.9748 -16.7352 21.0658)" fill="#5E5E5E" width="0.258" height="3.882"/>
		
			<rect x="84.114" y="84.434" transform="matrix(0.9763 -0.2165 0.2165 0.9763 -16.5371 20.2718)" fill="#5E5E5E" width="0.257" height="2.339"/>
		
			<rect x="82.787" y="81.696" transform="matrix(0.9755 -0.2198 0.2198 0.9755 -16.515 20.2863)" fill="#5E5E5E" width="0.253" height="5.339"/>
		
			<rect x="82.249" y="84.85" transform="matrix(0.9757 -0.219 0.219 0.9757 -16.8365 20.1248)" fill="#5E5E5E" width="0.254" height="2.342"/>
		
			<rect x="81.105" y="83.545" transform="matrix(0.9745 -0.2246 0.2246 0.9745 -17.1236 20.4272)" fill="#5E5E5E" width="0.257" height="3.883"/>
		
			<rect x="80.411" y="85.261" transform="matrix(0.9737 -0.228 0.228 0.9737 -17.5827 20.6352)" fill="#5E5E5E" width="0.253" height="2.342"/>
		
			<rect x="79.238" y="83.962" transform="matrix(0.9763 -0.2165 0.2165 0.9763 -16.7176 19.2231)" fill="#5E5E5E" width="0.257" height="3.883"/>
		
			<rect x="78.542" y="85.678" transform="matrix(0.9761 -0.2173 0.2173 0.9761 -16.9949 19.1736)" fill="#5E5E5E" width="0.256" height="2.341"/>
		
			<rect x="77.373" y="84.379" transform="matrix(0.9755 -0.2198 0.2198 0.9755 -17.0773 19.1442)" fill="#5E5E5E" width="0.253" height="3.884"/>
		
			<rect x="76.676" y="86.095" transform="matrix(0.9737 -0.228 0.228 0.9737 -17.8712 19.8059)" fill="#5E5E5E" width="0.253" height="2.342"/>
		
			<rect x="75.345" y="83.36" transform="matrix(0.9765 -0.2157 0.2157 0.9765 -16.7816 18.3074)" fill="#5E5E5E" width="0.258" height="5.336"/>
		
			<rect x="74.809" y="86.512" transform="matrix(0.9755 -0.2198 0.2198 0.9755 -17.4393 18.614)" fill="#5E5E5E" width="0.253" height="2.342"/>
		
			<rect x="73.667" y="85.207" transform="matrix(0.9761 -0.2173 0.2173 0.9761 -17.1766 18.1214)" fill="#5E5E5E" width="0.256" height="3.884"/>
		
			<rect x="72.971" y="86.925" transform="matrix(0.9771 -0.2129 0.2129 0.9771 -17.0798 17.5828)" fill="#5E5E5E" width="0.257" height="2.341"/>
		
			<rect x="71.801" y="85.624" transform="matrix(0.9761 -0.2173 0.2173 0.9761 -17.3117 17.7256)" fill="#5E5E5E" width="0.256" height="3.884"/>
		
			<rect x="71.104" y="87.341" transform="matrix(0.9771 -0.2129 0.2129 0.9771 -17.2112 17.1949)" fill="#5E5E5E" width="0.257" height="2.341"/>
		
			<rect x="69.933" y="86.042" transform="matrix(0.9763 -0.2165 0.2165 0.9763 -17.3888 17.2577)" fill="#5E5E5E" width="0.257" height="3.884"/>
		
			<rect x="69.237" y="87.759" transform="matrix(0.9769 -0.2137 0.2137 0.9769 -17.4016 16.8774)" fill="#5E5E5E" width="0.256" height="2.341"/>
		
			<rect x="67.907" y="85.021" transform="matrix(0.9763 -0.2165 0.2165 0.9763 -17.3733 16.812)" fill="#5E5E5E" width="0.257" height="5.338"/>
		
			<rect x="67.372" y="88.175" transform="matrix(0.9769 -0.2137 0.2137 0.9769 -17.5335 16.4884)" fill="#5E5E5E" width="0.256" height="2.34"/>
		
			<rect x="66.227" y="86.87" transform="matrix(0.9763 -0.2165 0.2165 0.9763 -17.656 16.4749)" fill="#5E5E5E" width="0.257" height="3.884"/>
		
			<rect x="65.533" y="88.587" transform="matrix(0.9772 -0.2121 0.2121 0.9772 -17.5447 15.9703)" fill="#5E5E5E" width="0.258" height="2.34"/>
		
			<rect x="64.361" y="87.288" transform="matrix(0.9761 -0.2173 0.2173 0.9761 -17.8509 16.1484)" fill="#5E5E5E" width="0.256" height="3.882"/>
		
			<rect x="63.666" y="89.005" transform="matrix(0.9771 -0.2129 0.2129 0.9771 -17.7358 15.6494)" fill="#5E5E5E" width="0.257" height="2.338"/>
		
			<rect x="62.494" y="87.704" transform="matrix(0.9761 -0.2173 0.2173 0.9761 -17.9862 15.7527)" fill="#5E5E5E" width="0.256" height="3.884"/>
		
			<rect x="61.799" y="89.421" transform="matrix(0.9771 -0.2129 0.2129 0.9771 -17.8674 15.2616)" fill="#5E5E5E" width="0.257" height="2.34"/>
		
			<rect x="60.469" y="86.683" transform="matrix(0.9745 -0.2246 0.2246 0.9745 -18.5189 15.8916)" fill="#5E5E5E" width="0.257" height="5.339"/>
		
			<rect x="59.932" y="89.838" transform="matrix(0.9753 -0.221 0.221 0.9753 -18.6249 15.5206)" fill="#5E5E5E" width="0.256" height="2.34"/>
		
			<rect x="58.787" y="88.532" transform="matrix(0.9772 -0.2121 0.2121 0.9772 -17.8502 14.5557)" fill="#5E5E5E" width="0.258" height="3.883"/>
		
			<rect x="58.093" y="90.248" transform="matrix(0.9763 -0.2165 0.2165 0.9763 -18.4135 14.7753)" fill="#5E5E5E" width="0.257" height="2.341"/>
		
			<rect x="56.92" y="88.95" transform="matrix(0.9771 -0.2129 0.2129 0.9771 -18.043 14.2297)" fill="#5E5E5E" width="0.257" height="3.881"/>
		
			<rect x="56.225" y="90.665" transform="matrix(0.9746 -0.2238 0.2238 0.9746 -19.1195 14.9377)" fill="#5E5E5E" width="0.258" height="2.341"/>
		
			<rect x="55.054" y="89.366" transform="matrix(0.9771 -0.2129 0.2129 0.9771 -18.1745 13.8418)" fill="#5E5E5E" width="0.257" height="3.883"/>
		
			<rect x="54.359" y="91.082" transform="matrix(0.9765 -0.2157 0.2157 0.9765 -18.6184 13.9268)" fill="#5E5E5E" width="0.258" height="2.341"/>
		
			<rect x="53.03" y="88.346" transform="matrix(0.9769 -0.2137 0.2137 0.9769 -18.2217 13.4621)" fill="#5E5E5E" width="0.256" height="5.338"/>
		
			<rect x="52.492" y="91.5" transform="matrix(0.9763 -0.2165 0.2165 0.9763 -18.8174 13.5923)" fill="#5E5E5E" width="0.257" height="2.341"/>
		
			<rect x="51.35" y="90.195" transform="matrix(0.9771 -0.2129 0.2129 0.9771 -18.4358 13.0722)" fill="#5E5E5E" width="0.257" height="3.882"/>
		
			<rect x="50.653" y="91.91" transform="matrix(0.9761 -0.2173 0.2173 0.9761 -19.0158 13.2614)" fill="#5E5E5E" width="0.256" height="2.341"/>
		
			<rect x="49.482" y="90.611" transform="matrix(0.9748 -0.2229 0.2229 0.9748 -19.384 13.3888)" fill="#5E5E5E" width="0.258" height="3.882"/>
		
			<rect x="48.786" y="92.327" transform="matrix(0.9745 -0.2246 0.2246 0.9745 -19.7483 13.3736)" fill="#5E5E5E" width="0.257" height="2.341"/>
		
			<rect x="47.615" y="91.028" transform="matrix(0.9765 -0.2157 0.2157 0.9765 -18.9319 12.4889)" fill="#5E5E5E" width="0.258" height="3.882"/>
		
			<rect x="46.919" y="92.744" transform="matrix(0.9763 -0.2165 0.2165 0.9763 -19.219 12.4151)" fill="#5E5E5E" width="0.257" height="2.341"/>
		
			<rect x="45.589" y="90.007" transform="matrix(0.9763 -0.2165 0.2165 0.9763 -18.9824 12.0978)" fill="#5E5E5E" width="0.257" height="5.339"/>
		
			<rect x="45.054" y="93.161" transform="matrix(0.9757 -0.219 0.219 0.9757 -19.559 12.1821)" fill="#5E5E5E" width="0.254" height="2.342"/>
		
			<rect x="43.91" y="91.858" transform="matrix(0.9761 -0.2173 0.2173 0.9761 -19.333 11.813)" fill="#5E5E5E" width="0.256" height="3.88"/>
		
			<rect x="43.216" y="93.572" transform="matrix(0.9754 -0.2206 0.2206 0.9754 -19.8339 11.8964)" fill="#5E5E5E" width="0.252" height="2.342"/>
		
			<rect x="42.045" y="92.274" transform="matrix(0.9755 -0.2198 0.2198 0.9755 -19.6762 11.5725)" fill="#5E5E5E" width="0.253" height="3.883"/>
		
			<rect x="41.349" y="93.99" transform="matrix(0.9761 -0.2173 0.2173 0.9761 -19.6903 11.2889)" fill="#5E5E5E" width="0.256" height="2.342"/>
		
			<rect x="40.178" y="92.692" transform="matrix(0.9755 -0.2198 0.2198 0.9755 -19.8135 11.1723)" fill="#5E5E5E" width="0.253" height="3.881"/>
		
			<rect x="39.481" y="94.406" transform="matrix(0.9754 -0.2206 0.2206 0.9754 -20.1099 11.093)" fill="#5E5E5E" width="0.252" height="2.342"/>
		
			<rect x="38.151" y="91.668" transform="matrix(0.9765 -0.2157 0.2157 0.9765 -19.4501 10.4795)" fill="#5E5E5E" width="0.258" height="5.34"/>
		
			<rect x="37.614" y="94.824" transform="matrix(0.9763 -0.2165 0.2165 0.9763 -19.8902 10.4497)" fill="#5E5E5E" width="0.257" height="2.342"/>
		
			<rect x="24.868" y="39.624" transform="matrix(-0.9763 0.2165 -0.2165 -0.9763 58.4001 76.7314)" fill="#5E5E5E" width="0.257" height="3.883"/>
		
			<rect x="25.565" y="39.449" transform="matrix(-0.9761 0.2173 -0.2173 -0.9761 59.6006 74.6843)" fill="#5E5E5E" width="0.256" height="2.342"/>
		
			<rect x="26.735" y="39.206" transform="matrix(-0.9763 0.2165 -0.2165 -0.9763 61.9997 75.501)" fill="#5E5E5E" width="0.257" height="3.883"/>
		
			<rect x="27.432" y="39.031" transform="matrix(-0.9761 0.2173 -0.2173 -0.9761 63.1995 73.4525)" fill="#5E5E5E" width="0.256" height="2.342"/>
		
			<rect x="28.601" y="38.79" transform="matrix(-0.9765 0.2157 -0.2157 -0.9765 65.571 74.3029)" fill="#5E5E5E" width="0.258" height="3.881"/>
		
			<rect x="29.297" y="38.615" transform="matrix(-0.9763 0.2165 -0.2165 -0.9763 66.7672 72.256)" fill="#5E5E5E" width="0.257" height="2.341"/>
		
			<rect x="30.628" y="38.354" transform="matrix(-0.9763 0.2165 -0.2165 -0.9763 69.6668 74.4144)" fill="#5E5E5E" width="0.257" height="5.34"/>
		
			<rect x="31.164" y="38.197" transform="matrix(-0.9763 0.2165 -0.2165 -0.9763 70.3668 71.0257)" fill="#5E5E5E" width="0.257" height="2.341"/>
		
			<rect x="32.308" y="37.961" transform="matrix(-0.9761 0.2173 -0.2173 -0.9761 72.7698 71.8009)" fill="#5E5E5E" width="0.256" height="3.881"/>
		
			<rect x="33.002" y="37.787" transform="matrix(-0.9759 0.2183 -0.2183 -0.9759 73.9683 69.7419)" fill="#5E5E5E" width="0.257" height="2.341"/>
		
			<rect x="34.176" y="37.544" transform="matrix(-0.9761 0.2173 -0.2173 -0.9761 76.3689 70.571)" fill="#5E5E5E" width="0.256" height="3.883"/>
		
			<rect x="34.87" y="37.369" transform="matrix(-0.9757 0.2191 -0.2191 -0.9757 77.5913 68.4729)" fill="#5E5E5E" width="0.256" height="2.341"/>
		
			<rect x="36.042" y="37.127" transform="matrix(-0.9746 0.2238 -0.2238 -0.9746 80.1653 69.0525)" fill="#5E5E5E" width="0.258" height="3.883"/>
		
			<rect x="36.737" y="36.952" transform="matrix(-0.974 0.2264 -0.2264 -0.974 81.4039 66.91)" fill="#5E5E5E" width="0.257" height="2.341"/>
		
			<rect x="38.065" y="36.692" transform="matrix(-0.9765 0.2157 -0.2157 -0.9765 83.9805 69.5548)" fill="#5E5E5E" width="0.258" height="5.337"/>
		
			<rect x="38.604" y="36.535" transform="matrix(-0.9757 0.2191 -0.2191 -0.9757 84.7865 66.0069)" fill="#5E5E5E" width="0.256" height="2.341"/>
		
			<rect x="39.748" y="36.299" transform="matrix(-0.9761 0.2173 -0.2173 -0.9761 87.1106 66.8994)" fill="#5E5E5E" width="0.256" height="3.882"/>
		
			<rect x="40.442" y="36.125" transform="matrix(-0.9765 0.2157 -0.2157 -0.9765 88.2318 64.9589)" fill="#5E5E5E" width="0.258" height="2.339"/>
		
			<rect x="41.615" y="35.881" transform="matrix(-0.9761 0.2173 -0.2173 -0.9761 90.7088 65.6697)" fill="#5E5E5E" width="0.256" height="3.883"/>
		
			<rect x="42.309" y="35.707" transform="matrix(-0.9763 0.2165 -0.2165 -0.9763 91.8542 63.6915)" fill="#5E5E5E" width="0.257" height="2.341"/>
		
			<rect x="43.482" y="35.464" transform="matrix(-0.9745 0.2246 -0.2246 -0.9745 94.5074 64.0624)" fill="#5E5E5E" width="0.257" height="3.883"/>
		
			<rect x="44.177" y="35.29" transform="matrix(-0.9777 0.2101 -0.2101 -0.9777 95.2794 62.7998)" fill="#5E5E5E" width="0.256" height="2.339"/>
		
			<rect x="45.506" y="35.03" transform="matrix(-0.9763 0.2165 -0.2165 -0.9763 98.3488 64.622)" fill="#5E5E5E" width="0.257" height="5.337"/>
		
			<rect x="46.044" y="34.873" transform="matrix(-0.9761 0.2173 -0.2173 -0.9761 99.0736 61.1911)" fill="#5E5E5E" width="0.256" height="2.341"/>
		
			<rect x="47.186" y="34.637" transform="matrix(-0.9742 0.2256 -0.2256 -0.9742 101.66 61.5423)" fill="#5E5E5E" width="0.258" height="3.883"/>
		
			<rect x="47.882" y="34.462" transform="matrix(-0.9742 0.2256 -0.2256 -0.9742 102.8224 59.5189)" fill="#5E5E5E" width="0.258" height="2.341"/>
		
			<rect x="49.053" y="34.22" transform="matrix(-0.9763 0.2165 -0.2165 -0.9763 105.0255 60.8158)" fill="#5E5E5E" width="0.257" height="3.882"/>
		
			<rect x="49.748" y="34.045" transform="matrix(-0.9765 0.2157 -0.2157 -0.9765 106.1775 58.8425)" fill="#5E5E5E" width="0.258" height="2.341"/>
		
			<rect x="50.92" y="33.802" transform="matrix(-0.9761 0.2173 -0.2173 -0.9761 108.6447 59.5379)" fill="#5E5E5E" width="0.256" height="3.883"/>
		
			<rect x="51.618" y="33.627" transform="matrix(-0.9755 0.2198 -0.2198 -0.9755 109.8721 57.372)" fill="#5E5E5E" width="0.253" height="2.342"/>
		
			<rect x="52.946" y="33.369" transform="matrix(-0.9761 0.2173 -0.2173 -0.9761 112.7119 59.6775)" fill="#5E5E5E" width="0.256" height="5.337"/>
		
			<rect x="53.485" y="33.211" transform="matrix(-0.9751 0.2216 -0.2216 -0.9751 113.5093 56.0278)" fill="#5E5E5E" width="0.253" height="2.342"/>
		
			<rect x="54.628" y="32.974" transform="matrix(-0.9755 0.2198 -0.2198 -0.9755 115.8439 56.9425)" fill="#5E5E5E" width="0.253" height="3.883"/>
		
			<rect x="55.32" y="32.799" transform="matrix(-0.9763 0.2165 -0.2165 -0.9763 116.9375 55.1278)" fill="#5E5E5E" width="0.257" height="2.342"/>
		
			<rect x="56.494" y="32.558" transform="matrix(-0.9755 0.2198 -0.2198 -0.9755 119.44 55.7084)" fill="#5E5E5E" width="0.253" height="3.882"/>
		
			<rect x="57.191" y="32.383" transform="matrix(-0.9755 0.2198 -0.2198 -0.9755 120.6089 53.6897)" fill="#5E5E5E" width="0.253" height="2.342"/>
		
			<rect x="58.357" y="32.14" transform="matrix(-0.9763 0.2165 -0.2165 -0.9763 122.9637 54.6902)" fill="#5E5E5E" width="0.257" height="3.883"/>
		
			<rect x="59.054" y="31.965" transform="matrix(-0.9765 0.2157 -0.2157 -0.9765 124.1201 52.7244)" fill="#5E5E5E" width="0.258" height="2.342"/>
		
			<rect x="60.388" y="31.706" transform="matrix(-0.9754 0.2206 -0.2206 -0.9754 127.1209 54.5521)" fill="#5E5E5E" width="0.252" height="5.338"/>
		
			<rect x="60.921" y="31.549" transform="matrix(-0.9763 0.2165 -0.2165 -0.9763 127.7351 51.4448)" fill="#5E5E5E" width="0.257" height="2.342"/>
		
			<rect x="62.063" y="31.312" transform="matrix(-0.9759 0.2183 -0.2183 -0.9759 130.1438 52.1257)" fill="#5E5E5E" width="0.257" height="3.883"/>
		
			<rect x="62.761" y="31.137" transform="matrix(-0.9761 0.2173 -0.2173 -0.9761 131.2958 50.1761)" fill="#5E5E5E" width="0.256" height="2.342"/>
		
			<rect x="63.931" y="30.896" transform="matrix(-0.9763 0.2165 -0.2165 -0.9763 133.7085 51.0233)" fill="#5E5E5E" width="0.257" height="3.881"/>
		
			<rect x="64.626" y="30.721" transform="matrix(-0.9761 0.2173 -0.2173 -0.9761 134.8911 48.9467)" fill="#5E5E5E" width="0.256" height="2.339"/>
	</g>
</g>
</svg>
