<?xml version="1.0" encoding="utf-8"?>
<!-- Generator: Adobe Illustrator 16.0.0, SVG Export Plug-In . SVG Version: 6.00 Build 0)  -->
<!DOCTYPE svg PUBLIC "-//W3C//DTD SVG 1.1//EN" "http://www.w3.org/Graphics/SVG/1.1/DTD/svg11.dtd">
<svg version="1.1" id="Layer_1" xmlns="http://www.w3.org/2000/svg" xmlns:xlink="http://www.w3.org/1999/xlink" x="0px" y="0px"
	 width="128px" height="128px" viewBox="0 0 128 128" enable-background="new 0 0 128 128" xml:space="preserve">
<g>
	<polygon fill="#FFFFFF" points="83.253,36.856 88.59,33.408 85.14,38.743 88.59,44.08 83.253,40.631 77.918,44.08 81.368,38.743 
		77.918,33.408 	"/>
	<polygon fill="#FFFFFF" points="45.901,62.488 49.613,60.087 47.214,63.8 49.613,67.511 45.901,65.111 42.189,67.511 44.589,63.8 
		42.189,60.087 	"/>
	<g>
		<g>
			<path fill="#FFFFFF" d="M52.378,43.066h-0.064l-3.525,1.903l-0.531-2.092l4.432-2.37h2.343v20.287h-2.653V43.066z"/>
			<path fill="#FFFFFF" d="M59.767,57.986c0.814,0.53,2.248,1.093,3.623,1.093c1.992,0,2.933-1.001,2.933-2.247
				c0-1.313-0.781-2.029-2.811-2.779c-2.716-0.967-3.994-2.467-3.994-4.275c0-2.434,1.967-4.432,5.212-4.432
				c1.53,0,2.87,0.436,3.714,0.935l-0.685,1.999c-0.594-0.375-1.686-0.875-3.091-0.875c-1.626,0-2.529,0.938-2.529,2.06
				c0,1.249,0.903,1.811,2.872,2.56c2.621,0.999,3.963,2.31,3.963,4.557c0,2.655-2.058,4.527-5.65,4.527
				c-1.65,0-3.182-0.407-4.241-1.031L59.767,57.986z"/>
			<path fill="#FFFFFF" d="M75.813,41.351v4.338h3.93v2.092h-3.93v8.146c0,1.873,0.527,2.934,2.059,2.934
				c0.717,0,1.248-0.094,1.59-0.188l0.127,2.061c-0.53,0.219-1.373,0.375-2.436,0.375c-1.278,0-2.311-0.407-2.963-1.155
				c-0.783-0.812-1.064-2.153-1.064-3.935V47.78h-2.34v-2.092h2.34v-3.621L75.813,41.351z"/>
		</g>
	</g>
	<circle fill="#5E83A2" cx="64" cy="64" r="64"/>
	<path fill="#547290" d="M82.3,24.74L51.436,66.896l-11.081,35.219L38.156,104l23.888,23.951c0.651,0.02,1.3,0.049,1.956,0.049
		c33.236,0,60.55-25.338,63.692-57.75L82.3,24.74z"/>
	<polygon fill="#F2EA35" points="54.491,108.992 48.607,98.138 38.431,104.923 48.067,66.869 64.131,70.936 	"/>
	<polygon fill="#F6921E" points="56.021,68.883 48.61,98.143 54.491,108.992 64.131,70.936 	"/>
	<polygon fill="#F2EA35" points="74.052,107.591 78.713,96.16 89.569,101.793 75.831,65.02 60.312,70.816 	"/>
	<polygon fill="#F6921E" points="68.148,67.889 78.712,96.164 74.052,107.591 60.312,70.816 	"/>
	<polygon fill="#F2EA35" points="64,19.008 66.927,22.979 70.611,19.704 72.648,24.193 76.933,21.758 77.991,26.572 82.692,25.082 
		82.724,30.012 87.631,29.53 86.64,34.359 91.539,34.908 89.563,39.426 94.243,40.98 91.373,44.99 95.625,47.484 91.983,50.807 
		95.625,54.131 91.373,56.625 94.243,60.635 89.563,62.189 91.539,66.707 86.64,67.256 87.631,72.084 82.724,71.603 82.692,76.533 
		77.991,75.042 76.933,79.857 72.648,77.421 70.611,81.91 66.927,78.637 64,82.606 61.076,78.637 57.391,81.91 55.353,77.421 
		51.067,79.857 50.008,75.042 45.311,76.533 45.277,71.603 40.37,72.084 41.36,67.256 36.463,66.707 38.438,62.189 33.758,60.635 
		36.628,56.625 32.376,54.131 36.019,50.807 32.376,47.484 36.628,44.99 33.758,40.98 38.438,39.426 36.463,34.908 41.36,34.359 
		40.37,29.53 45.277,30.012 45.311,25.082 50.008,26.572 51.067,21.758 55.353,24.193 57.391,19.704 61.076,22.979 	"/>
	<circle fill="#F5CE0F" cx="64" cy="50.807" r="22.852"/>
	<path fill="#EBB71E" d="M74.939,30.741c2.338,6.149,2.012,13.731-0.313,19.503c-4.026,9.99-10.945,17.564-20.851,20.979
		c3.079,1.546,6.544,2.437,10.225,2.437c12.62,0,22.852-10.232,22.852-22.854C86.853,42.15,82.037,34.619,74.939,30.741z"/>
</g>
</svg>
