<?xml version="1.0" encoding="utf-8"?>
<!-- Generator: Adobe Illustrator 16.0.0, SVG Export Plug-In . SVG Version: 6.00 Build 0)  -->
<!DOCTYPE svg PUBLIC "-//W3C//DTD SVG 1.1//EN" "http://www.w3.org/Graphics/SVG/1.1/DTD/svg11.dtd">
<svg version="1.1" id="Layer_1" xmlns="http://www.w3.org/2000/svg" xmlns:xlink="http://www.w3.org/1999/xlink" x="0px" y="0px"
	 width="128px" height="128px" viewBox="0 0 128 128" enable-background="new 0 0 128 128" xml:space="preserve">
<g>
	<circle fill="#A2CE64" cx="64" cy="64" r="64"/>
	<path fill="#6D9D41" d="M87.72,33.935l-1.314,2.19L39.546,78.491l-14.122,8.986l-2.702,2.004l38.344,38.444
		C62.038,127.97,63.016,128,64,128c32.083,0,58.649-23.608,63.281-54.4L87.72,33.935z"/>
	<g>
		<polygon fill="#8B6252" points="58.151,84.458 61.994,89.773 23.096,89.773 23.096,84.458 		"/>
		<path fill="#2A223A" d="M88.146,82.643c0,0.993-0.813,1.806-1.806,1.806H29.952c-0.994,0-1.807-0.813-1.807-1.806V35.576
			c0-0.994,0.813-1.805,1.807-1.805H86.34c0.993,0,1.806,0.812,1.806,1.805V82.643z"/>
		<rect x="32.659" y="38.283" fill="#AB847D" width="50.973" height="41.651"/>
		<path fill="#FBB017" d="M86.498,78.384c-5.636,0-10.202-4.568-10.202-10.205c0-5.635,4.566-10.204,10.202-10.204
			c5.638,0,10.204,4.569,10.204,10.204C96.702,73.815,92.136,78.384,86.498,78.384z"/>
		<path fill="#FBB017" d="M52.437,71.22c1.475-0.96,3.453-0.54,4.412,0.937l7.605,11.699l10.287-3.95
			c1.809-1.477,3.899-2.623,6.184-3.332c1.633,0.89,3.503,1.396,5.492,1.396s3.859-0.507,5.489-1.396
			c7.528,2.337,12.997,9.359,12.997,17.656H67.932c0-1.793,0.27-3.52,0.744-5.161l-4.345,1.671c-0.375,0.142-0.76,0.211-1.144,0.211
			c-1.055,0-2.075-0.524-2.677-1.453l-9.013-13.863C50.539,74.157,50.958,72.181,52.437,71.22z"/>
		
			<rect x="46.025" y="48.359" transform="matrix(-0.8887 0.4585 -0.4585 -0.8887 115.7296 92.287)" fill="#FFFFFF" width="1.277" height="23.664"/>
		<rect x="50.131" y="44.547" fill="#FFFFFF" width="21.722" height="2.312"/>
		<rect x="50.131" y="51.018" fill="#FFFFFF" width="21.722" height="2.312"/>
		<rect x="50.131" y="57.488" fill="#FFFFFF" width="21.722" height="2.312"/>
	</g>
</g>
</svg>
