<?xml version="1.0" encoding="utf-8"?>
<!-- Generator: Adobe Illustrator 16.0.0, SVG Export Plug-In . SVG Version: 6.00 Build 0)  -->
<!DOCTYPE svg PUBLIC "-//W3C//DTD SVG 1.1//EN" "http://www.w3.org/Graphics/SVG/1.1/DTD/svg11.dtd">
<svg version="1.1" id="Layer_1" xmlns="http://www.w3.org/2000/svg" xmlns:xlink="http://www.w3.org/1999/xlink" x="0px" y="0px"
	 width="128px" height="128px" viewBox="0 0 128 128" enable-background="new 0 0 128 128" xml:space="preserve">
<g>
	<circle fill="#14B4E5" cx="64" cy="64" r="64"/>
	<path fill="#0097AF" d="M98.007,42.057l-1.048,0.699c-5.714-5.713-20.405-1.904-20.405-1.904s-3.537-17.141-12.243-16.597
		S50.979,41.124,50.979,41.124l-1.633-0.272c0,0-15.78-6.53-19.861,2.721s7.346,20.677,7.346,20.677
		c-13.876,13.875-5.985,20.677-5.985,20.677l-2.02,0.741l41.872,41.981c29.674-3.086,53.306-26.451,56.83-55.994L98.007,42.057z"/>
	<g>
		<g>
			<path fill="#CAC6D6" d="M63.884,104.706c-9.965,0-17.771-17.88-17.771-40.706s7.807-40.706,17.771-40.706
				c9.966,0,17.771,17.88,17.771,40.706S73.85,104.706,63.884,104.706z M63.884,25.771c-8.289,0-15.293,17.507-15.293,38.229
				s7.004,38.229,15.293,38.229S79.177,84.723,79.177,64S72.173,25.771,63.884,25.771z"/>
		</g>
		<g>
			<path fill="#CAC6D6" d="M86.72,89.622c-8.767,0-20.625-3.825-31.722-10.232C35.229,67.978,23.649,52.276,28.632,43.647
				c1.988-3.447,6.281-5.269,12.416-5.269c8.768,0,20.625,3.825,31.722,10.232c19.769,11.412,31.351,27.113,26.368,35.742
				C97.147,87.8,92.854,89.622,86.72,89.622z M41.048,40.857c-3.623,0-8.348,0.699-10.271,4.028
				c-4.145,7.18,7.516,21.999,25.461,32.36c10.736,6.197,22.132,9.898,30.482,9.898c3.625,0,8.35-0.699,10.271-4.03
				c4.145-7.179-7.516-21.997-25.461-32.357C60.795,44.558,49.399,40.857,41.048,40.857z"/>
		</g>
		<g>
			<path fill="#CAC6D6" d="M41.048,89.622c-6.133,0-10.428-1.822-12.416-5.268c-4.981-8.631,6.598-24.331,26.366-35.744
				c11.097-6.407,22.955-10.232,31.722-10.232c6.133,0,10.428,1.822,12.416,5.268c4.983,8.63-6.598,24.33-26.366,35.744
				C61.675,85.797,49.815,89.622,41.048,89.622z M86.72,40.855c-8.351,0-19.746,3.701-30.482,9.9
				C38.292,61.118,26.632,75.937,30.776,83.114c1.924,3.33,6.648,4.029,10.271,4.029c8.353,0,19.747-3.7,30.482-9.898
				c17.945-10.363,29.605-25.182,25.461-32.36C95.069,41.556,90.344,40.855,86.72,40.855z"/>
		</g>
		<circle fill="#DFF2FC" cx="63.884" cy="63.999" r="6.851"/>
		<circle fill="#2C5478" cx="39.609" cy="40.021" r="4.022"/>
		<circle fill="#E14348" cx="96.503" cy="56.999" r="4.021"/>
		<circle fill="#FCB61D" cx="56.29" cy="99" r="4.021"/>
	</g>
</g>
</svg>
