<?xml version="1.0" encoding="utf-8"?>
<!-- Generator: Adobe Illustrator 16.0.0, SVG Export Plug-In . SVG Version: 6.00 Build 0)  -->
<!DOCTYPE svg PUBLIC "-//W3C//DTD SVG 1.1//EN" "http://www.w3.org/Graphics/SVG/1.1/DTD/svg11.dtd">
<svg version="1.1" id="Layer_1" xmlns="http://www.w3.org/2000/svg" xmlns:xlink="http://www.w3.org/1999/xlink" x="0px" y="0px"
	 width="128px" height="128px" viewBox="0 0 128 128" enable-background="new 0 0 128 128" xml:space="preserve">
<g>
	<circle fill="#C3C4BE" cx="64" cy="64.001" r="64"/>
	<path fill="#A19288" d="M88.208,33.002l-1.378,1.305l-39.433-1.78L44.052,30.7l-6.066,3.861l-4.58,10.939l1.781,16.535
		l6.614,16.535l17.809,18.572l-8.142,4.578l-2.33,1.99l23.614,23.676c28.478-3.896,50.975-26.516,54.689-55.051L88.208,33.002z"/>
	<g>
		<circle fill="#4272B7" cx="67.151" cy="53.453" r="29.482"/>
		<g>
			<g>
				<path fill="#040508" d="M67.151,89.233c-19.732,0-35.782-16.051-35.782-35.78c0-9.458,3.655-18.375,10.291-25.11l2.392,2.357
					c-6.012,6.103-9.322,14.184-9.322,22.753c0,17.876,14.544,32.421,32.422,32.421c8.719,0,16.903-3.412,23.039-9.609l2.39,2.363
					C85.807,85.468,76.776,89.233,67.151,89.233z"/>
			</g>
		</g>
		<path fill="#2361A6" d="M87.946,32.56c0.893,3.041,1.404,6.238,1.404,9.556c0,19.312-16.221,34.968-36.229,34.968
			c-1.286,0-2.557-0.07-3.81-0.197c4.955,3.779,11.124,6.049,17.839,6.049c16.283,0,29.481-13.199,29.481-29.481
			C96.633,45.287,93.309,37.898,87.946,32.56z"/>
		<g>
			<path fill="#DCE11E" d="M71.784,24.807C71.798,24.782,71.798,24.776,71.784,24.807L71.784,24.807z"/>
			<path fill="#DCE11E" d="M73.231,31.882c0.506-0.661,0.063-1.765,0.801-2.505c1.225-1.23,1.742-0.607,1.641-2.733
				c-1.666-0.082-5.276,1.693-3.977-1.641l0.065-0.109c0.01-0.058,0.017-0.07,0.022-0.087c-0.016,0.032-0.055,0.063-0.134-0.056
				c-0.44-0.666-1.786-0.81-3.075-0.793c-0.138,0.003-0.289,0.005-0.439,0.007c-0.805,0.031-1.543,0.112-1.966,0.154
				c-0.978,0.097-2.028,0.284-2.999,0.472c-0.424,0.081-1.313,0.128-1.72,0.287c-0.984,0.387-1.119,1.332-2.376,1.754
				c-1.24,0.417-1.781,1.557-3.124,1.871c-0.45,0.106-2.106-0.158-2.333,0.273c-0.275,0.527,0.705,1.267,1.112,1.449
				c1.365,0.604,3.485-0.146,4.627,0.768c1.345,1.076-0.463,2.099,0.089,3.485c0.826,2.088,3.604,1.625,5.379,1.245
				c0.055-0.894-0.545-1.604-0.482-2.461c0.59,0.034,1.164,0.088,1.768,0.111c0.729,0.028,1.244-0.352,1.703-0.39
				c1.973-0.165,2.045,0.965,3.154,2.012c0.649,0.609,2.271,1.196,3.229,0.754c0.959-0.44,0.798-2.01-0.259-2.253
				c-0.542-0.127-2.566,1.46-2.616-0.255C71.286,32.037,72.727,32.538,73.231,31.882z"/>
		</g>
		<path fill="#DCE11E" d="M54.882,77.157c0.482-2.072,1.496-1.621,3.173-2.877c1.188-0.891,1.614-2.35,2.392-3.492
			c0.873-1.277,2.911-2.412,4.486-2.643c0.164-1.268,0.046-1.844,0.67-2.994c0.406-0.753,1.26-1.896,1.477-2.741
			c0.824-3.22-3.203-1.308-4.588-1.515c0.039-0.534,0.059-1.763-0.236-2.206c-0.567-0.856-0.965-0.258-2.015-0.413
			c-0.171-1.351-0.384-1.343-1.372-2.119c-0.482-0.383-1.188-1.702-1.756-2.004c-0.84-0.452-2.785,0.084-3.707,0.14
			c-1.077,0.064-1.871,0.116-1.693,1.479c-1.494,0.18-2.308-0.139-2.173-1.479c0.108-1.04,0.902-2.408-0.915-2.145
			c0.111-0.372,0.137-0.819,0.063-1.21c-0.684-0.039-1.857-0.256-2.465,0.001c-0.502,0.211-0.709,1.431-1.717,0.766
			c-0.633-0.416-0.623-2.691-0.396-3.417c0.561-1.785,2.989-1.039,4.377-0.768c2.152,0.423,2.438-0.048,2.993-2.006
			c0.128-0.438,0.263-1.542,0.649-1.817c0.594-0.422,1.139,0.148,1.762,0.109c2.914-0.186,0.431-2.031,1.504-3.294
			c0.902-1.059,3.951,0.227,4.998-0.484c1.099-0.75,0.078-2.25-0.912-2.48c-1.198-0.279-2.301,0.932-3.364,0.352
			c0.278-1.299-2.839-0.831-0.738-2.031c0.915-0.523,1.499,0.067,1.854-1.069c0.141-0.454,0.013-1.27-0.283-1.597
			c-0.555-0.61-2.7-0.423-3.354-0.151c-1.221,0.502-0.791,1.91,0.492,2.047c0.066,0.227,0.066,0.706,0,0.935
			c-1.877-0.063-1.276,0.657-1.627,2.038c-0.388,1.534-1.605,2.335-2.605,1.104c-0.434-0.535-0.355-1.175-0.998-1.51
			c-0.518-0.268-1.346,0.25-1.874-0.104c-1.014-0.677-0.519-2.299-0.485-3.241c1.214-0.063,4.85,0.838,4.502-1.246
			c2.553-1.131,0.67-1.869,0.479-4.02l-0.397-0.301c-6.504,4.24-11.236,10.964-12.824,18.838c0.519,0.855,1.529,1.555,2.254,2.168
			c1.248,1.053,1.599,2.627,3.443,2.786c0.764,0.066,1.119,0.113,1.748,0.249c0.411,0.089,0.942,0.25,1.51,0.267
			c0.033,0.587-0.164,1.588,0.264,2.042c0.479,0.51,0.725,0.01,1.128,0.213c0.289,0.143,0.45,0.522,0.726,0.634
			c0.567,0.231,2.113,0.215,1.664,1.095c-0.371,0.72-1.732,0.413-2.117,1.232c-0.508,1.074,0.919,2.107,1.201,2.859
			c0.352,0.93,0.299,2.248,1.654,2.882c0.305,0.146,0.854-0.155,1.129,0.04c0.351,0.251,0.199,0.565,0.396,0.833
			c0.489,0.656,0.282,1.232,1.454,1.033c0.196,1.406-0.769,1.926-0.981,3.109c-0.111,0.621,0.128,1.27-0.096,1.881
			c-0.262,0.723-0.679,0.709-1.121,1.234c-0.719,0.854-1.29,4.521-0.699,6.445c0.594,0.363,1.194,0.715,1.814,1.035
			C54.33,79.286,54.688,77.987,54.882,77.157z"/>
		<path fill="#DCE11E" d="M95.924,47.089c-0.253,0.031-0.542,0.096-0.886,0.205c-0.695,0.223-1.191,0.825-1.795,1.15
			c-1.549,0.834-3.039,0.125-4.851,0.157c-1.224,0.022-2.688,1.056-3.062-0.806c-0.099-0.493,0.17-1.14,0.016-1.615
			c-0.423-1.289-0.964-0.864-1.879-0.975c-0.336-0.042-0.703,0.117-1.087-0.056c-0.196-0.791-0.335-1.583-0.286-2.434
			c3.131-0.423,1.875,1.605,3.62,3.083c1.063,0.901,1.221,0.196,2.13,0.009c0.922-0.19,2.231-0.045,3.098,0.259
			c0.762,0.266,0.719,0.726,1.667,0.518c0.88-0.192,1.821-1.353,2.106-2.197c0.099-0.295,0.135-0.606,0.145-0.924
			c-0.961-2.66-2.283-5.138-3.924-7.379c-0.148,0.012-0.303,0.035-0.467,0.106c-0.548,0.237-1.602,1.581-1.775,2.113
			c-0.423,1.345,0.549,1.591-1.378,1.744c-0.851,0.067-1.917,0.226-2.228-0.749c-0.234-0.727,0.068-0.955,0.639-1.253
			c1.07-0.555,0.729,0.232,1.48-0.773c0.292-0.389,0.469-1.474,0.771-1.71c0.498-0.391,1.191,0.255,1.486-0.631
			c0.115-0.352,0.029-0.636-0.138-0.864c-0.053-0.058-0.104-0.111-0.154-0.168c-0.224-0.19-0.519-0.32-0.833-0.348l-0.627-0.125
			c-0.631,0.024-2.77,0.39-3.135,0.847c-0.41,0.509-0.043,1.906,0.069,2.479c-0.637,0.068-1.343,0.207-1.706-0.264
			c-0.499,0.748,0.521,4.166-1.35,3.415c-0.722-0.288-0.537-1.778-1.119-2.111c-0.613-0.351-2.441-0.008-3.113,0.022
			c-0.439,1.725,2.28,1.524,2.608,2.351c0.157,0.403-0.298,1.654-0.229,2.241c0.026,0.252,0.584,0.361,0.506,0.733
			c-0.063,0.29-0.706,0.67-0.933,0.894c-0.555-0.27-0.929-0.554-1.464-0.271c-0.955,0.502-0.289,0.728-0.131,1.279
			c0.263,0.923,0.906,2.135,0,3.127c-0.65,0.711-2.398,0.375-3.002,1.274c-0.723,1.074,0.416,2.619,0.505,3.635
			c0.082,0.98-0.446,2.201-0.259,3.109c0.534,2.621,2.182,1.154,3.658,0.85c0.531-0.109,1.172,0.148,1.693,0.003
			c0.699-0.195,0.936-0.61,1.677-0.75c1.72-0.324,2.101,0.988,1.93,2.358c-1.261-0.205-1.47,0.67-0.706,1.428
			c1.094,1.078,1.372,0.365,0.844,2.111c-0.476,1.574-0.088,1.546,0.506,2.953c0.445,1.061-0.145,1.625,0.045,2.598
			c1.586-0.037,2.029,0.662,2.104,2.17c0.03,0.543-0.098,1.121,0.115,1.633c0.318,0.744,1.104,0.693,0.896,1.729
			c0.42,0.119,0.98-0.057,1.542-0.367c4.571-5.193,7.367-11.988,7.367-19.45C96.633,51.266,96.377,49.141,95.924,47.089z"/>
		<path fill="#95B53D" d="M53.753,77.503c-0.723,0-1.428-0.064-2.141-0.109c0.037,0.438,0.096,0.854,0.201,1.201
			c0.594,0.363,1.194,0.715,1.814,1.035c0.627-0.307,0.971-1.365,1.178-2.18C54.452,77.46,54.106,77.503,53.753,77.503z"/>
		<g>
			<path fill="#B7D333" d="M88.019,35.542c0.496-0.33,1.162,0.255,1.447-0.609c0.115-0.352,0.029-0.636-0.138-0.864
				c-0.053-0.058-0.104-0.111-0.154-0.168c-0.224-0.19-0.519-0.32-0.833-0.348l-0.627-0.125c-0.06,0.003-0.145,0.011-0.23,0.02
				C87.671,34.142,87.874,34.831,88.019,35.542z"/>
			<path fill="#B7D333" d="M88.569,39.582c0.082,0.976,0.151,1.955,0.151,2.953c0,1.079-0.065,2.142-0.161,3.194
				c0.808-0.03,1.723,0.106,2.383,0.338c0.762,0.266,0.719,0.726,1.667,0.518c0.88-0.192,1.821-1.353,2.106-2.197
				c0.099-0.295,0.135-0.606,0.145-0.924c-0.961-2.66-2.283-5.138-3.924-7.379c-0.148,0.012-0.303,0.035-0.467,0.106
				c-0.548,0.237-1.602,1.581-1.775,2.113C88.495,38.945,88.603,39.331,88.569,39.582z"/>
			<path fill="#B7D333" d="M95.924,47.089c-0.253,0.031-0.542,0.096-0.886,0.205c-0.695,0.223-1.191,0.825-1.795,1.15
				c-1.549,0.834-3.039,0.125-4.851,0.157c-0.079,0.002-0.157,0.016-0.236,0.024c-0.755,4.279-2.284,8.279-4.442,11.871
				c0.658,0.471,0.777,0.258,0.344,1.691c-0.476,1.574-0.088,1.546,0.506,2.953c0.445,1.061-0.145,1.625,0.045,2.598
				c1.586-0.037,2.029,0.662,2.104,2.17c0.03,0.543-0.098,1.121,0.115,1.633c0.318,0.744,1.104,0.693,0.896,1.729
				c0.42,0.119,0.98-0.057,1.542-0.367c4.571-5.193,7.367-11.988,7.367-19.45C96.633,51.266,96.377,49.141,95.924,47.089z"/>
		</g>
		<g>
			<g>
				<g>
					
						<rect x="39.295" y="28.013" transform="matrix(0.707 0.7072 -0.7072 0.707 33.7089 -21.9859)" fill="#040508" width="8.19" height="3.359"/>
				</g>
				<g>
					
						<rect x="86.819" y="75.536" transform="matrix(0.707 0.7072 -0.7072 0.707 81.248 -41.6716)" fill="#040508" width="8.191" height="3.359"/>
				</g>
			</g>
		</g>
		<g>
			<g>
				<rect x="65.472" y="87.499" fill="#040508" width="3.359" height="8.4"/>
			</g>
		</g>
		<path fill="#040508" d="M85.223,104.044c-1.286-5.072-8.876-8.971-18.071-8.971c-9.198,0-16.789,3.898-18.072,8.971H85.223z"/>
	</g>
</g>
</svg>
