<?xml version="1.0" encoding="utf-8"?>
<!-- Generator: Adobe Illustrator 16.0.0, SVG Export Plug-In . SVG Version: 6.00 Build 0)  -->
<!DOCTYPE svg PUBLIC "-//W3C//DTD SVG 1.1//EN" "http://www.w3.org/Graphics/SVG/1.1/DTD/svg11.dtd">
<svg version="1.1" id="Layer_1" xmlns="http://www.w3.org/2000/svg" xmlns:xlink="http://www.w3.org/1999/xlink" x="0px" y="0px"
	 width="128px" height="128px" viewBox="0 0 128 128" enable-background="new 0 0 128 128" xml:space="preserve">
<g>
	<circle fill="#3CB19C" cx="64" cy="64" r="64"/>
	<path fill="#37A08D" d="M94.409,42.476l-2.263,0.822l-12.252-2.949L64.011,57.819L46.767,90.041l-6.006,10.551l27.204,27.273
		c29.746-1.818,53.985-23.949,59.045-52.703L94.409,42.476z"/>
	<polygon fill="#F4F5F5" points="54.737,82.939 40.853,100.877 50.156,80.191 58.348,66.533 62.928,69.279 	"/>
	
		<rect x="61.989" y="36.455" transform="matrix(0.8576 0.5142 -0.5142 0.8576 34.8864 -30.1918)" fill="#F1C837" width="19.974" height="22.923"/>
	<path fill="#F2B31B" d="M79.702,79.338c0.015-0.02,0.024-0.035,0.039-0.057c5.216-8.701,0.695-21.004-10.098-27.477
		c-10.791-6.473-23.771-4.662-28.987,4.04c-0.014,0.02-0.023,0.04-0.034,0.06L79.702,79.338z"/>
	
		<rect x="62.195" y="33.985" transform="matrix(0.8577 0.5142 -0.5142 0.8577 30.4311 -34.8643)" fill="#F4B919" width="32.005" height="7.113"/>
</g>
</svg>
