<?xml version="1.0" encoding="utf-8"?>
<!-- Generator: Adobe Illustrator 16.0.0, SVG Export Plug-In . SVG Version: 6.00 Build 0)  -->
<!DOCTYPE svg PUBLIC "-//W3C//DTD SVG 1.1//EN" "http://www.w3.org/Graphics/SVG/1.1/DTD/svg11.dtd">
<svg version="1.1" id="Layer_1" xmlns="http://www.w3.org/2000/svg" xmlns:xlink="http://www.w3.org/1999/xlink" x="0px" y="0px"
	 width="128px" height="128px" viewBox="0 0 128 128" enable-background="new 0 0 128 128" xml:space="preserve">
<g>
	<circle fill="#EDC55D" cx="64" cy="64" r="64"/>
	<path fill="#D0963A" d="M94.875,42.538l-4.307,0.913l-28.25,30.5l-7.75,1l-5.5,7.75L31.942,94l-0.015,0.014l33.854,33.941
		c30.855-0.846,56.244-23.515,61.291-53.137L94.875,42.538z"/>
	<rect x="43.416" y="38.311" fill="#929497" width="30.5" height="37"/>
	<path fill="#FFFFFF" d="M31.093,41.715l3.152-0.705c0.031-0.007,0.057-0.025,0.086-0.034c0.471,0.384,1.084,0.581,1.723,0.438
		c1.104-0.247,1.799-1.342,1.551-2.444c-0.246-1.104-1.34-1.798-2.443-1.552c-0.639,0.143-1.109,0.583-1.371,1.13
		c-0.033,0.006-0.063,0-0.094,0.007l-3.152,0.705c-0.9,0.2-1.514,0.918-1.363,1.593S30.192,41.915,31.093,41.715z"/>
	<path fill="#FFFFFF" d="M31.093,47.822l3.152-0.705c0.031-0.006,0.057-0.024,0.086-0.033c0.471,0.383,1.084,0.581,1.723,0.438
		c1.104-0.247,1.799-1.342,1.551-2.444c-0.246-1.104-1.34-1.798-2.443-1.552c-0.639,0.143-1.109,0.583-1.371,1.13
		c-0.033,0.006-0.063,0-0.094,0.006l-3.152,0.705c-0.9,0.201-1.514,0.918-1.363,1.593C29.331,47.636,30.192,48.023,31.093,47.822z"
		/>
	<path fill="#FFFFFF" d="M31.093,53.931l3.152-0.705c0.031-0.007,0.057-0.024,0.086-0.033c0.471,0.383,1.084,0.58,1.723,0.438
		c1.104-0.246,1.799-1.341,1.551-2.444c-0.246-1.103-1.34-1.797-2.443-1.552c-0.639,0.144-1.109,0.583-1.371,1.13
		c-0.033,0.006-0.063,0-0.094,0.007l-3.152,0.705c-0.9,0.201-1.514,0.918-1.363,1.593C29.331,53.744,30.192,54.132,31.093,53.931z"
		/>
	<path fill="#FFFFFF" d="M31.093,60.039l3.152-0.705c0.031-0.007,0.057-0.024,0.086-0.033c0.471,0.383,1.084,0.58,1.723,0.438
		c1.104-0.246,1.799-1.341,1.551-2.444c-0.246-1.103-1.34-1.798-2.443-1.552c-0.639,0.144-1.109,0.583-1.371,1.13
		c-0.033,0.006-0.063,0-0.094,0.007l-3.152,0.705c-0.9,0.2-1.514,0.918-1.363,1.593C29.331,59.853,30.192,60.239,31.093,60.039z"/>
	<path fill="#FFFFFF" d="M31.093,66.147l3.152-0.705c0.031-0.007,0.057-0.024,0.086-0.034c0.471,0.384,1.084,0.581,1.723,0.439
		c1.104-0.247,1.799-1.343,1.551-2.445c-0.246-1.104-1.34-1.798-2.443-1.552c-0.639,0.144-1.109,0.583-1.371,1.13
		c-0.033,0.006-0.063,0-0.094,0.007l-3.152,0.705c-0.9,0.2-1.514,0.918-1.363,1.593C29.331,65.961,30.192,66.348,31.093,66.147z"/>
	<path fill="#FFFFFF" d="M31.093,72.256l3.152-0.705c0.031-0.007,0.057-0.025,0.086-0.033c0.471,0.383,1.084,0.58,1.723,0.438
		c1.104-0.246,1.799-1.342,1.551-2.444c-0.246-1.103-1.34-1.798-2.443-1.552c-0.639,0.143-1.109,0.583-1.371,1.13
		c-0.033,0.006-0.063,0-0.094,0.007l-3.152,0.705c-0.9,0.2-1.514,0.918-1.363,1.593S30.192,72.456,31.093,72.256z"/>
	<path fill="#FFFFFF" d="M31.093,78.363l3.152-0.705c0.031-0.006,0.057-0.023,0.086-0.033c0.471,0.383,1.084,0.58,1.723,0.438
		c1.104-0.247,1.799-1.341,1.551-2.444c-0.246-1.104-1.34-1.798-2.443-1.553c-0.639,0.145-1.109,0.584-1.371,1.131
		c-0.033,0.006-0.063,0-0.094,0.006l-3.152,0.705c-0.9,0.201-1.514,0.918-1.363,1.594C29.331,78.177,30.192,78.564,31.093,78.363z"
		/>
	<path fill="#FFFFFF" d="M31.093,84.473l3.152-0.705c0.031-0.008,0.057-0.025,0.086-0.034c0.471,0.384,1.084,0.581,1.723,0.438
		c1.104-0.247,1.799-1.342,1.551-2.445c-0.246-1.103-1.34-1.797-2.443-1.551c-0.639,0.143-1.109,0.582-1.371,1.129
		c-0.033,0.006-0.063,0-0.094,0.008l-3.152,0.705c-0.9,0.2-1.514,0.918-1.363,1.592C29.331,84.285,30.192,84.672,31.093,84.473z"/>
	<path fill="#FFFFFF" d="M34.331,89.842c0.471,0.383,1.084,0.58,1.723,0.438c1.104-0.246,1.799-1.341,1.551-2.443
		c-0.246-1.104-1.34-1.799-2.443-1.553c-0.639,0.144-1.109,0.584-1.371,1.131c-0.033,0.006-0.063,0-0.094,0.006l-3.152,0.705
		c-0.9,0.201-1.514,0.918-1.363,1.593c0.15,0.676,1.012,1.063,1.912,0.862l3.152-0.705C34.276,89.869,34.302,89.851,34.331,89.842z"
		/>
	<path fill="#FFFFFF" d="M63.384,84.807l-1.479,0.715l-11.487,5.563l5.237-11.777l0.609-1.37c0,0,0.357-0.521,0.5-0.524l0.092-0.095
		l3.627-3.747H45.405v-2.516h17.514l3.479-3.594H45.405v-2.516h23.429l10.801-11.158V34H31.942v4.431l1.521-0.341
		c0.363-0.597,0.93-1.016,1.586-1.163c0.186-0.041,0.373-0.062,0.559-0.062c1.184,0,2.229,0.839,2.488,1.994
		c0.307,1.373-0.561,2.739-1.934,3.046c-0.172,0.038-0.35,0.059-0.527,0.059c-0.492,0-0.99-0.157-1.42-0.446l-2.273,0.52v2.502
		l1.521-0.341c0.363-0.597,0.93-1.016,1.586-1.163c0.186-0.042,0.373-0.063,0.559-0.063c1.184,0,2.229,0.84,2.488,1.995
		c0.307,1.373-0.561,2.738-1.934,3.046c-0.172,0.038-0.35,0.058-0.527,0.058c-0.492,0-0.99-0.157-1.42-0.446l-2.273,0.52v2.503
		l1.521-0.341c0.363-0.598,0.93-1.016,1.586-1.163c0.186-0.042,0.373-0.063,0.559-0.063c1.184,0,2.229,0.84,2.488,1.995
		c0.307,1.372-0.561,2.738-1.934,3.046c-0.172,0.038-0.35,0.058-0.527,0.058c-0.492,0-0.99-0.157-1.42-0.446l-2.273,0.521v2.501
		l1.521-0.34c0.363-0.598,0.93-1.016,1.586-1.163c0.186-0.042,0.373-0.063,0.559-0.063c1.184,0,2.229,0.84,2.488,1.995
		c0.307,1.372-0.561,2.738-1.934,3.045c-0.172,0.039-0.35,0.059-0.527,0.059c-0.492,0-0.99-0.157-1.42-0.446l-2.273,0.52v2.502
		l1.521-0.341c0.363-0.597,0.93-1.016,1.586-1.162c0.186-0.042,0.373-0.063,0.559-0.063c1.184,0,2.229,0.839,2.488,1.995
		c0.307,1.372-0.561,2.738-1.934,3.045c-0.172,0.039-0.35,0.059-0.527,0.059c-0.492,0-0.99-0.157-1.42-0.446l-2.273,0.521v2.501
		l1.521-0.341c0.363-0.597,0.93-1.016,1.586-1.163c0.186-0.041,0.373-0.062,0.559-0.062c1.184,0,2.229,0.84,2.488,1.994
		c0.307,1.373-0.561,2.738-1.934,3.046c-0.172,0.038-0.35,0.058-0.527,0.058c-0.492,0-0.99-0.156-1.42-0.445l-2.273,0.52v2.502
		l1.521-0.341c0.363-0.597,0.93-1.015,1.586-1.163c0.186-0.041,0.373-0.063,0.559-0.063c1.184,0,2.229,0.84,2.488,1.996
		c0.307,1.371-0.561,2.738-1.934,3.045c-0.172,0.038-0.35,0.059-0.527,0.059c-0.492,0-0.99-0.158-1.42-0.447l-2.273,0.521v2.501
		l1.521-0.34c0.363-0.598,0.93-1.016,1.586-1.163c0.186-0.042,0.373-0.062,0.559-0.062c1.184,0,2.229,0.839,2.488,1.994
		c0.307,1.373-0.561,2.738-1.934,3.045c-0.172,0.039-0.35,0.059-0.527,0.059c-0.492,0-0.99-0.157-1.42-0.446l-2.273,0.52v2.503
		l1.521-0.342c0.363-0.596,0.93-1.015,1.586-1.162c0.186-0.042,0.373-0.063,0.559-0.063c1.184,0,2.229,0.84,2.488,1.995
		c0.307,1.372-0.561,2.738-1.934,3.046c-0.172,0.038-0.35,0.058-0.527,0.058c-0.492,0-0.99-0.157-1.42-0.446l-2.273,0.52V94h47.692
		V68.02L63.814,84.363L63.384,84.807z M45.405,40.509h26.159v2.516H45.405V40.509z M45.405,46.618h26.159v2.516H45.405V46.618z
		 M45.405,52.728h26.159v2.516H45.405V52.728z M45.405,58.836h26.159v2.516H45.405V58.836z"/>
	<g>
		
			<rect x="69.559" y="42.084" transform="matrix(0.7358 0.6772 -0.6772 0.7358 63.6697 -33.9627)" fill="#F7981D" width="11.609" height="45.074"/>
		
			<rect x="70.616" y="39.374" transform="matrix(0.736 0.677 -0.677 0.736 61.0321 -32.6823)" fill="#FDE531" width="3.608" height="45.074"/>
		
			<rect x="73.23" y="41.924" transform="matrix(-0.7357 -0.6774 0.6774 -0.7357 86.8409 162.8125)" fill="#F8CC0D" width="3.92" height="45.074"/>
		<polygon fill="#DEBEA1" points="64.371,85.133 55.829,77.271 50.566,91.334 		"/>
		<polygon fill="#F1D7B7" points="61.368,82.369 55.829,77.271 50.566,91.334 		"/>
		<polygon fill="#FAF6C3" points="58.498,79.727 55.829,77.271 50.566,91.334 		"/>
		<polygon fill="#39454E" points="52.302,86.693 50.566,91.334 55.12,89.287 		"/>
		<path fill="#E76165" d="M94.877,51.982l3.572-3.882c0.637-0.693,0.518-1.848-0.258-2.563l-5.695-5.242
			c-0.783-0.717-1.941-0.739-2.576-0.048l-3.574,3.882L94.877,51.982z"/>
		<path fill="#A22163" d="M98.191,45.537l-4.473-4.115l-4.73,5.14l5.889,5.421l3.572-3.882
			C99.086,47.407,98.967,46.253,98.191,45.537z"/>
		<path fill="#802149" d="M98.191,45.537l-1.576-1.448l-4.729,5.141l2.99,2.753l3.572-3.882
			C99.086,47.407,98.967,46.253,98.191,45.537z"/>
	</g>
</g>
</svg>
