<?xml version="1.0" encoding="utf-8"?>
<!-- Generator: Adobe Illustrator 16.0.0, SVG Export Plug-In . SVG Version: 6.00 Build 0)  -->
<!DOCTYPE svg PUBLIC "-//W3C//DTD SVG 1.1//EN" "http://www.w3.org/Graphics/SVG/1.1/DTD/svg11.dtd">
<svg version="1.1" id="Layer_1" xmlns="http://www.w3.org/2000/svg" xmlns:xlink="http://www.w3.org/1999/xlink" x="0px" y="0px"
	 width="128px" height="128px" viewBox="0 0 128 128" enable-background="new 0 0 128 128" xml:space="preserve">
<g>
	<circle fill="#6F979D" cx="64" cy="64" r="64"/>
	<path fill="#4A7E8C" d="M91.9,26.713l-1.695,2.637l-48.763,0.485l-1.213,67.686l-2.911,1.94l-0.859,1.117l27.346,27.418
		c0.065,0,0.13,0.004,0.195,0.004c35.346,0,64-28.653,64-64c0-0.376-0.021-0.747-0.028-1.122L91.9,26.713z"/>
	<g>
		<path fill="#FFFFFF" d="M66.503,63.999c0-5.523,9.402-11.911,12.158-14.938c1.062-1.166,1.796-8.822,1.796-10.159
			c0-4.529-7.371-7.279-16.458-7.279c-9.088,0-16.456,2.75-16.456,7.279c0,1.335,0.731,8.99,1.791,10.155
			c2.756,3.03,12.162,9.421,12.162,14.945c0,5.523-9.402,11.911-12.157,14.938c-1.062,1.165-1.797,8.822-1.797,10.159
			c0,4.529,7.372,7.279,16.459,7.279s16.456-2.75,16.456-7.279c0-1.335-0.732-8.99-1.791-10.155
			C75.91,75.914,66.503,69.523,66.503,63.999z"/>
		<rect x="38.912" y="31.321" fill="#365572" width="3.369" height="64.778"/>
		<rect x="85.718" y="31.321" fill="#365572" width="3.37" height="64.778"/>
		<rect x="87.402" y="31.321" fill="#1B3D5C" width="1.686" height="64.778"/>
		<rect x="40.597" y="31.321" fill="#1B3D5C" width="1.685" height="64.778"/>
		<path fill="#FDCD08" d="M65.447,49.033c-4.993,0.145-9.725-1.114-14.52-1.851c0.056,0.186,0.11,0.351,0.165,0.466
			c0.616,0.655,1.629,1.543,2.792,2.561c3.863,3.384,9.045,7.928,9.767,12.691c0.231,0.004,0.463,0.008,0.694,0.013
			c0.712-4.771,5.902-9.32,9.771-12.706c1.161-1.016,2.171-1.9,2.788-2.556c0.022-0.05,0.047-0.118,0.07-0.182
			C73.236,48.414,69.386,48.92,65.447,49.033z"/>
		<path fill="#FDCD08" d="M74.115,77.792c-1.21-1.06-7.936-8.104-9.982-8.146c-2.049-0.042-8.958,7.018-10.249,8.147
			c-1.161,1.017-2.173,1.9-2.789,2.556c-0.604,1.287-1.306,7.272-1.306,8.75c0,2.42,5.433,5.032,14.212,5.032
			c8.777,0,14.209-2.612,14.209-5.032c0-1.478-0.7-7.461-1.303-8.748C76.291,79.697,75.278,78.811,74.115,77.792z"/>
		<path fill="#F89E1C" d="M69.133,48.794c-0.688,2.155-1.651,4.192-2.647,6.219c-0.835,2.572-1.801,5.096-2.901,7.565
			c0.021,0.108,0.051,0.215,0.067,0.322c0.231,0.004,0.463,0.008,0.694,0.013c0.712-4.771,5.902-9.32,9.771-12.706
			c1.161-1.016,2.171-1.9,2.788-2.556c0.022-0.05,0.047-0.118,0.07-0.182C74.412,48.117,71.793,48.543,69.133,48.794z"/>
		<path fill="#F89E1C" d="M76.907,80.352c-0.616-0.654-1.629-1.541-2.792-2.56c-0.411-0.36-1.463-1.414-2.747-2.646
			c-1.427,3.07-4.132,4.945-6.954,7.606c-3.281,3.096-6.855,5.812-10.518,8.419c-0.379,0.336-0.768,0.662-1.165,0.979
			c2.451,1.154,6.33,1.981,11.27,1.981c8.777,0,14.209-2.612,14.209-5.032C78.21,87.622,77.51,81.639,76.907,80.352z"/>
		<g>
			<g>
				<g>
					<rect x="46.213" y="31.144" fill="#444051" width="35.572" height="7.677"/>
				</g>
				<g>
					<rect x="46.213" y="89.181" fill="#444051" width="35.572" height="7.677"/>
				</g>
			</g>
		</g>
		<g>
			<g>
				<g>
					<rect x="68.936" y="31.144" fill="#2D3440" width="12.85" height="7.677"/>
				</g>
				<g>
					<rect x="68.936" y="89.181" fill="#2D3440" width="12.85" height="7.677"/>
				</g>
			</g>
		</g>
		<rect x="36.573" y="27.399" fill="#222631" width="54.854" height="4.867"/>
		<rect x="36.573" y="95.734" fill="#222631" width="54.854" height="4.867"/>
		<rect x="72.008" y="27.399" fill="#21251A" width="19.419" height="4.867"/>
		<rect x="72.008" y="95.734" fill="#21251A" width="19.419" height="4.867"/>
	</g>
</g>
</svg>
