<?xml version="1.0" encoding="utf-8"?>
<!-- Generator: Adobe Illustrator 16.0.0, SVG Export Plug-In . SVG Version: 6.00 Build 0)  -->
<!DOCTYPE svg PUBLIC "-//W3C//DTD SVG 1.1//EN" "http://www.w3.org/Graphics/SVG/1.1/DTD/svg11.dtd">
<svg version="1.1" id="Layer_1" xmlns="http://www.w3.org/2000/svg" xmlns:xlink="http://www.w3.org/1999/xlink" x="0px" y="0px"
	 width="128px" height="128px" viewBox="0 0 128 128" enable-background="new 0 0 128 128" xml:space="preserve">
<g>
	<circle fill="#2DA8D2" cx="64" cy="64" r="64"/>
	<path fill="#0D92B7" d="M78.634,32.249l-3.848,6.98L43.305,68.832l28.439,28.277l-28.434,1.832l-1.799,2.338l26.514,26.582
		c28.108-1.746,51.302-21.623,58.01-48.086L78.634,32.249z"/>
	<g>
		<g>
			<g>
				<path fill="#3E5D6B" d="M74.027,98.012l-2.283-3.283c8.735-6.072,13.95-16.041,13.95-26.664c0-8.958-3.756-17.604-10.306-23.722
					l2.73-2.922c7.356,6.87,11.575,16.581,11.575,26.644C89.694,79.996,83.838,91.193,74.027,98.012z"/>
			</g>
		</g>
		
			<rect x="62.585" y="28.643" transform="matrix(0.7071 0.7071 -0.7071 0.7071 49.4739 -37.6104)" fill="#EDC55D" width="15.103" height="24.544"/>
		<path fill="#C8814E" d="M67.635,77.119c0.057-0.055,0.114-0.105,0.17-0.162c9.309-9.309,9.309-24.401,0-33.71
			s-24.4-9.309-33.709,0c-0.056,0.056-0.107,0.114-0.162,0.17L67.635,77.119z"/>
		<path fill="#EDC55D" d="M43.367,52.853c-0.41,0.297-0.808,0.621-1.178,0.99c-3.825,3.826-3.825,10.027,0,13.853
			c3.825,3.824,10.025,3.824,13.851,0c0.37-0.371,0.693-0.768,0.991-1.178L43.367,52.853z"/>
		<rect x="40.899" y="94.967" fill="#334E5C" width="46.795" height="6.137"/>
		<circle fill="#E1574C" cx="87.393" cy="71.904" r="6.673"/>
	</g>
</g>
</svg>
