<?xml version="1.0" encoding="utf-8"?>
<!-- Generator: Adobe Illustrator 16.0.0, SVG Export Plug-In . SVG Version: 6.00 Build 0)  -->
<!DOCTYPE svg PUBLIC "-//W3C//DTD SVG 1.1//EN" "http://www.w3.org/Graphics/SVG/1.1/DTD/svg11.dtd">
<svg version="1.1" id="Layer_1" xmlns="http://www.w3.org/2000/svg" xmlns:xlink="http://www.w3.org/1999/xlink" x="0px" y="0px"
	 width="128px" height="128px" viewBox="0 0 128 128" enable-background="new 0 0 128 128" xml:space="preserve">
<g>
	<circle fill="#C37E4D" cx="64" cy="64" r="62.5"/>
	<path fill="#A7693D" d="M94.311,46.544l-1.747,2.02L71.646,51.99l-3.514-10.724L29.644,66.114l18.01,16.54L47.22,94.023
		l-6.688,6.838l25.52,25.588c29.013-0.938,53.02-21.635,59.002-49.082L94.311,46.544z"/>
	<g>
		<circle fill="#F9F9F9" cx="49.748" cy="51.99" r="24.577"/>
		<g>
			<path fill="#3CB19C" d="M68.015,35.552h-4.379c1.4,2.19,2.526,4.712,3.304,7.469h5.689
				C71.542,40.251,69.972,37.725,68.015,35.552z"/>
			<path fill="#3CB19C" d="M61.712,69.429h-3.931c-1.106,2.607-2.463,4.658-3.994,5.976C56.811,74.402,59.53,72.305,61.712,69.429z"
				/>
			<path fill="#3CB19C" d="M65.872,60.959H60.13c-0.455,2.768-1.119,5.286-1.947,7.47h4.246
				C63.888,66.271,65.062,63.744,65.872,60.959z"/>
			<path fill="#3CB19C" d="M67.118,52.49h-6.286c-0.022,2.617-0.213,5.123-0.549,7.469h5.861
				C66.741,57.613,67.079,55.103,67.118,52.49z"/>
			<path fill="#3CB19C" d="M66.145,44.021h-5.861c0.336,2.346,0.526,4.853,0.549,7.47h6.286
				C67.079,48.878,66.74,46.367,66.145,44.021z"/>
			<path fill="#3CB19C" d="M45.709,28.576c-3.023,1.002-5.743,3.1-7.925,5.976h3.931C42.821,31.944,44.178,29.894,45.709,28.576z"/>
			<path fill="#3CB19C" d="M62.963,34.552h4.101c-3.228-3.205-7.342-5.516-11.941-6.542C58.135,29.266,60.823,31.544,62.963,34.552z
				"/>
			<path fill="#3CB19C" d="M32.378,51.49h6.286c0.022-2.617,0.213-5.124,0.549-7.47h-5.861
				C32.756,46.367,32.417,48.878,32.378,51.49z"/>
			<path fill="#3CB19C" d="M33.352,59.959h5.861c-0.336-2.346-0.526-4.852-0.549-7.469h-6.286
				C32.417,55.103,32.755,57.613,33.352,59.959z"/>
			<path fill="#3CB19C" d="M33.624,43.021h5.743c0.456-2.767,1.118-5.285,1.946-7.469h-4.246
				C35.608,37.709,34.435,40.236,33.624,43.021z"/>
			<path fill="#3CB19C" d="M50.266,27.947v6.604h6.332C54.906,30.732,52.684,28.258,50.266,27.947z"/>
			<path fill="#3CB19C" d="M65.872,43.021c-0.811-2.784-1.984-5.312-3.443-7.469h-4.246c0.828,2.184,1.49,4.702,1.946,7.469H65.872z
				"/>
			<path fill="#3CB19C" d="M50.266,43.021h8.782c-0.482-2.774-1.177-5.304-2.033-7.469h-6.749V43.021z"/>
			<path fill="#3CB19C" d="M53.787,28.576c1.531,1.317,2.888,3.368,3.994,5.976h3.931C59.53,31.676,56.811,29.578,53.787,28.576z"/>
			<path fill="#3CB19C" d="M50.266,59.959h8.944c0.358-2.356,0.563-4.869,0.587-7.469h-9.531V59.959z"/>
			<path fill="#3CB19C" d="M50.266,51.49h9.531c-0.024-2.6-0.229-5.113-0.587-7.47h-8.944V51.49z"/>
			<path fill="#3CB19C" d="M50.266,68.429h6.749c0.857-2.165,1.551-4.695,2.033-7.47h-8.782V68.429z"/>
			<path fill="#3CB19C" d="M50.266,76.033c2.418-0.311,4.641-2.785,6.332-6.604h-6.332V76.033z"/>
			<path fill="#3CB19C" d="M35.86,68.429c-1.401-2.19-2.526-4.713-3.305-7.47h-5.689c1.087,2.77,2.657,5.296,4.615,7.47H35.86z"/>
			<path fill="#3CB19C" d="M36.533,69.429h-4.101c3.228,3.205,7.342,5.517,11.941,6.542C41.361,74.715,38.673,72.437,36.533,69.429z
				"/>
			<path fill="#3CB19C" d="M32.292,59.959c-0.58-2.354-0.912-4.863-0.949-7.469h-6.159c0.052,2.61,0.511,5.119,1.315,7.469H32.292z"
				/>
			<path fill="#3CB19C" d="M31.343,51.49c0.037-2.606,0.369-5.115,0.95-7.47H26.5c-0.806,2.35-1.265,4.859-1.316,7.47H31.343z"/>
			<path fill="#3CB19C" d="M62.963,69.429c-2.14,3.008-4.828,5.286-7.841,6.542c4.6-1.025,8.714-3.337,11.941-6.542H62.963z"/>
			<path fill="#3CB19C" d="M66.94,60.959c-0.778,2.757-1.903,5.279-3.305,7.47h4.379c1.958-2.174,3.528-4.7,4.615-7.47H66.94z"/>
			<path fill="#3CB19C" d="M67.203,44.021c0.581,2.354,0.913,4.863,0.95,7.47h6.159c-0.052-2.61-0.511-5.12-1.316-7.47H67.203z"/>
			<path fill="#3CB19C" d="M68.153,52.49c-0.037,2.605-0.369,5.114-0.949,7.469h5.793c0.805-2.35,1.264-4.858,1.315-7.469H68.153z"
				/>
			<path fill="#3CB19C" d="M32.557,43.021c0.777-2.757,1.903-5.278,3.304-7.469h-4.379c-1.957,2.173-3.527,4.699-4.614,7.469H32.557
				z"/>
			<path fill="#3CB19C" d="M45.709,75.404c-1.531-1.317-2.888-3.368-3.994-5.976h-3.931C39.966,72.305,42.686,74.402,45.709,75.404z
				"/>
			<path fill="#3CB19C" d="M49.23,60.959h-8.782c0.482,2.774,1.176,5.305,2.033,7.47h6.749V60.959z"/>
			<path fill="#3CB19C" d="M49.23,76.033v-6.604h-6.332C44.59,73.248,46.813,75.723,49.23,76.033z"/>
			<path fill="#3CB19C" d="M41.313,68.429c-0.828-2.184-1.492-4.702-1.947-7.47h-5.742c0.811,2.785,1.984,5.313,3.443,7.47H41.313z"
				/>
			<path fill="#3CB19C" d="M49.23,52.49h-9.531c0.024,2.6,0.229,5.112,0.587,7.469h8.944V52.49z"/>
			<path fill="#3CB19C" d="M49.23,44.021h-8.944c-0.358,2.356-0.563,4.87-0.587,7.47h9.531V44.021z"/>
			<path fill="#3CB19C" d="M36.533,34.552c2.14-3.008,4.828-5.286,7.841-6.542c-4.6,1.026-8.714,3.337-11.941,6.542H36.533z"/>
			<path fill="#3CB19C" d="M49.23,27.947c-2.418,0.311-4.641,2.785-6.332,6.604h6.332V27.947z"/>
			<path fill="#3CB19C" d="M49.23,35.552h-6.749c-0.856,2.165-1.551,4.694-2.033,7.469h8.782V35.552z"/>
		</g>
	</g>
	<path fill="#334E5C" d="M94.653,74.568c0,1.1-0.9,2-2,2h-43c-1.1,0-2-0.9-2-2V48.47c0-1.1,0.9-2,2-2h43c1.1,0,2,0.9,2,2V74.568z"/>
	<polygon fill="#5A747B" points="102.829,97.621 39.479,97.621 47.879,76.568 94.429,76.568 	"/>
	<rect x="39.479" y="97.621" fill="#334E5C" width="63.351" height="2.967"/>
	<polygon fill="#334E5C" points="94.153,90.033 47.22,90.033 50.37,79.211 91.004,79.211 	"/>
	<polygon fill="#4C6976" points="76.609,96.268 61.626,96.268 62.676,91.779 75.56,91.779 	"/>
	<rect x="51.028" y="49.447" fill="#4D7585" width="40.25" height="24.143"/>
	<polygon fill="#1D323D" points="90.812,49.447 90.812,73.123 51.028,73.123 51.028,73.59 91.278,73.59 91.278,49.447 	"/>
	<circle fill="#1D323D" cx="71.153" cy="48.07" r="0.493"/>
</g>
</svg>
