<?xml version="1.0" encoding="utf-8"?>
<!-- Generator: Adobe Illustrator 16.0.0, SVG Export Plug-In . SVG Version: 6.00 Build 0)  -->
<!DOCTYPE svg PUBLIC "-//W3C//DTD SVG 1.1//EN" "http://www.w3.org/Graphics/SVG/1.1/DTD/svg11.dtd">
<svg version="1.1" id="Layer_1" xmlns="http://www.w3.org/2000/svg" xmlns:xlink="http://www.w3.org/1999/xlink" x="0px" y="0px"
	 width="128px" height="128px" viewBox="0 0 128 128" enable-background="new 0 0 128 128" xml:space="preserve">
<g>
	<circle fill="#EDC55D" cx="64" cy="64" r="64"/>
	<path fill="#D0963A" d="M107.015,46.461l-4.528,4.963L80.024,29.527L28.473,80.504l19.296,19.584l-4.608,7.201l-0.846,1.352
		l19.246,19.297C62.371,127.969,63.182,128,64,128c34.202,0,62.136-26.83,63.908-60.592L107.015,46.461z"/>
	<g>
		<path fill="#1580A4" d="M91.856,55.803c0,20.092-16.288,36.377-36.38,36.377S19.096,75.895,19.096,55.803
			c0-20.094,16.289-36.382,36.381-36.382S91.856,35.709,91.856,55.803z"/>
		<g>
			<path fill="#334E5C" d="M56.217,104.553v-3.664c24.503,0,44.438-19.936,44.438-44.438h3.664
				C104.318,82.973,82.741,104.553,56.217,104.553z"/>
		</g>
		<g>
			<path fill="#334E5C" d="M31.255,68.008c-0.711,0-1.388-0.417-1.687-1.113c-1.504-3.515-2.266-7.245-2.266-11.092
				c0-15.536,12.639-28.173,28.174-28.173c3.808,0,7.497,0.745,10.967,2.214c0.93,0.396,1.367,1.471,0.973,2.403
				c-0.395,0.931-1.47,1.365-2.403,0.972c-3.015-1.277-6.223-1.925-9.536-1.925c-13.514,0-24.51,10.993-24.51,24.509
				c0,3.348,0.664,6.595,1.973,9.65c0.398,0.931-0.033,2.008-0.964,2.406C31.74,67.959,31.496,68.008,31.255,68.008z"/>
		</g>
		<path fill="#23A3CE" d="M66.237,55.803c0,5.943-4.818,10.758-10.761,10.758c-5.943,0-10.76-4.814-10.76-10.758
			c0-5.945,4.816-10.761,10.76-10.761C61.419,45.042,66.237,49.857,66.237,55.803z"/>
		<rect x="41.814" y="98.029" fill="#334E5C" width="17.305" height="10.551"/>
		<path fill="#334E5C" d="M108.904,51.42c0,3.547-2.869,6.424-6.416,6.424c-3.546,0-6.419-2.877-6.419-6.424
			c0-3.54,2.873-6.417,6.419-6.417C106.035,45.003,108.904,47.88,108.904,51.42z"/>
	</g>
</g>
</svg>
