<?xml version="1.0" encoding="utf-8"?>
<!-- Generator: Adobe Illustrator 16.0.0, SVG Export Plug-In . SVG Version: 6.00 Build 0)  -->
<!DOCTYPE svg PUBLIC "-//W3C//DTD SVG 1.1//EN" "http://www.w3.org/Graphics/SVG/1.1/DTD/svg11.dtd">
<svg version="1.1" id="Layer_1" xmlns="http://www.w3.org/2000/svg" xmlns:xlink="http://www.w3.org/1999/xlink" x="0px" y="0px"
	 width="128px" height="128px" viewBox="0 0 128 128" enable-background="new 0 0 128 128" xml:space="preserve">
<g>
	<circle fill="#789BA5" cx="64" cy="64" r="64"/>
	<path fill="#586970" d="M100.004,44.728l-8.748,4.899L27.786,97.6l-1.863,2.535l26.782,26.85C56.373,127.639,60.144,128,64,128
		c32.549,0,59.405-24.305,63.454-55.752L100.004,44.728z"/>
	<polyline fill="#EFEEEE" points="36.336,50.088 45.433,25.289 99.861,44.479 90.035,71.944 	"/>
	<g>
		
			<rect x="51.482" y="43.423" transform="matrix(0.9422 0.3349 -0.3349 0.9422 18.7936 -20.5708)" fill="#334E5C" width="35.121" height="1.569"/>
	</g>
	<path fill="#EDC55D" d="M96.916,58.864H65.975l-3.311-4.009c-2.121-2.758-4.264-4.768-7.451-4.768H31.083
		c-3.187,0-5.794,2.146-5.794,4.768v8.776v2.26v32.052c0,2.621,2.607,4.768,5.794,4.768h65.833c3.188,0,5.795-2.146,5.795-4.768
		V63.632C102.711,61.008,100.104,58.864,96.916,58.864z"/>
	<path fill="#DFB351" d="M98.553,59.062c0.043,6.226-5.117,12.302-8.041,17.319c-4.494,7.709-9.805,14.551-17.547,19.229
		c-5.744,3.467-12.022,5.684-18.514,7.102h42.465c3.188,0,5.795-2.146,5.795-4.768V63.632
		C102.711,61.477,100.949,59.647,98.553,59.062z"/>
</g>
</svg>
