<?xml version="1.0" encoding="utf-8"?>
<!-- Generator: Adobe Illustrator 16.0.0, SVG Export Plug-In . SVG Version: 6.00 Build 0)  -->
<!DOCTYPE svg PUBLIC "-//W3C//DTD SVG 1.1//EN" "http://www.w3.org/Graphics/SVG/1.1/DTD/svg11.dtd">
<svg version="1.1" id="Layer_1" xmlns="http://www.w3.org/2000/svg" xmlns:xlink="http://www.w3.org/1999/xlink" x="0px" y="0px"
	 width="128px" height="128px" viewBox="0 0 128 128" enable-background="new 0 0 128 128" xml:space="preserve">
<g>
	<circle fill="#5E83A2" cx="64" cy="64" r="64"/>
	<path fill="#4F718F" d="M96.008,25.29l-2.054,9.095L78.457,19.897L66.665,51.566L41.362,26.755l-6.291,4.444l16.584,38.813
		l9.282,26.024l-16.509,11.119l-1.893,0.756l19.998,20.051C63.023,127.975,63.509,128,64,128c35.347,0,64-28.654,64-64
		c0-2.376-0.14-4.719-0.392-7.027L96.008,25.29z"/>
	<g>
		<g>
			<path fill="#B8DA99" d="M71.799,78.809c0.808,1.379,0.337,3.168-1.04,3.975l-8.312,4.859c-1.38,0.809-3.168,0.338-3.975-1.041
				L28.035,34.548c-0.81-1.381-0.34-3.169,1.04-3.977l8.311-4.859c1.379-0.807,3.168-0.337,3.977,1.043L71.799,78.809z"/>
			<g>
				<g>
					<g>
						
							<rect x="60.773" y="82.287" transform="matrix(-0.5035 -0.864 0.864 -0.5035 18.5556 179.8463)" fill="#44485A" width="0.355" height="4.609"/>
					</g>
					<g>
						
							<rect x="59.488" y="82.069" transform="matrix(-0.497 -0.8677 0.8677 -0.497 16.6836 177.0884)" fill="#44485A" width="0.356" height="3.279"/>
					</g>
					<g>
						
							<rect x="59.332" y="79.822" transform="matrix(-0.5035 -0.864 0.864 -0.5035 18.5196 174.8939)" fill="#44485A" width="0.355" height="4.609"/>
					</g>
					<g>
						
							<rect x="58.045" y="79.603" transform="matrix(-0.5056 -0.8628 0.8628 -0.5056 17.5646 172.5499)" fill="#44485A" width="0.355" height="3.278"/>
					</g>
					<g>
						
							<rect x="57.887" y="77.354" transform="matrix(-0.5032 -0.8642 0.8642 -0.5032 18.4446 169.9221)" fill="#44485A" width="0.357" height="4.609"/>
					</g>
					<g>
						
							<rect x="56.603" y="77.137" transform="matrix(-0.51 -0.8602 0.8602 -0.51 17.9781 167.7975)" fill="#44485A" width="0.354" height="3.283"/>
					</g>
					<g>
						
							<rect x="57.443" y="73.154" transform="matrix(-0.5035 -0.864 0.864 -0.5035 20.4421 164.9713)" fill="#44485A" width="0.355" height="6.916"/>
					</g>
					<g>
						
							<rect x="55.646" y="73.523" transform="matrix(-0.5073 -0.8618 0.8618 -0.5073 18.7956 162.4009)" fill="#44485A" width="0.358" height="4.609"/>
					</g>
					<g>
						
							<rect x="54.362" y="73.305" transform="matrix(-0.5056 -0.8628 0.8628 -0.5056 17.4526 159.891)" fill="#44485A" width="0.355" height="3.279"/>
					</g>
					<g>
						
							<rect x="54.205" y="71.058" transform="matrix(-0.5076 -0.8616 0.8616 -0.5076 18.7822 157.4573)" fill="#44485A" width="0.356" height="4.608"/>
					</g>
					<g>
						
							<rect x="52.919" y="70.839" transform="matrix(-0.5064 -0.8623 0.8623 -0.5064 17.4903 154.9686)" fill="#44485A" width="0.357" height="3.279"/>
					</g>
					<g>
						
							<rect x="52.763" y="68.591" transform="matrix(-0.5052 -0.863 0.863 -0.5052 18.5067 152.4024)" fill="#44485A" width="0.358" height="4.61"/>
					</g>
					<g>
						
							<rect x="51.477" y="68.374" transform="matrix(-0.5023 -0.8647 0.8647 -0.5023 17.0649 149.8481)" fill="#44485A" width="0.356" height="3.279"/>
					</g>
					<g>
						
							<rect x="52.317" y="64.39" transform="matrix(-0.5097 -0.8604 0.8604 -0.5097 20.8737 147.5936)" fill="#44485A" width="0.356" height="6.917"/>
					</g>
					<g>
						
							<rect x="50.522" y="64.759" transform="matrix(-0.5097 -0.8604 0.8604 -0.5097 18.8403 144.8644)" fill="#44485A" width="0.356" height="4.609"/>
					</g>
					<g>
						
							<rect x="49.237" y="64.54" transform="matrix(-0.5035 -0.864 0.864 -0.5035 17.1175 142.1976)" fill="#44485A" width="0.355" height="3.281"/>
					</g>
					<g>
						
							<rect x="49.081" y="62.292" transform="matrix(-0.5056 -0.8628 0.8628 -0.5056 18.4291 139.7552)" fill="#44485A" width="0.355" height="4.61"/>
					</g>
					<g>
						
							<rect x="47.794" y="62.074" transform="matrix(-0.5076 -0.8616 0.8616 -0.5076 17.4278 137.3904)" fill="#44485A" width="0.356" height="3.283"/>
					</g>
					<g>
						
							<rect x="47.638" y="59.827" transform="matrix(-0.5097 -0.8604 0.8604 -0.5097 18.7291 134.9378)" fill="#44485A" width="0.356" height="4.61"/>
					</g>
					<g>
						
							<rect x="46.353" y="59.608" transform="matrix(-0.5032 -0.8642 0.8642 -0.5032 17.0159 132.2794)" fill="#44485A" width="0.357" height="3.28"/>
					</g>
					<g>
						
							<rect x="47.192" y="55.627" transform="matrix(-0.5011 -0.8654 0.8654 -0.5011 19.9807 129.6852)" fill="#44485A" width="0.357" height="6.913"/>
					</g>
					<g>
						
							<rect x="45.398" y="55.994" transform="matrix(-0.5056 -0.8628 0.8628 -0.5056 18.3182 127.096)" fill="#44485A" width="0.355" height="4.61"/>
					</g>
					<g>
						
							<rect x="44.111" y="55.777" transform="matrix(-0.5044 -0.8635 0.8635 -0.5044 17.05 124.6203)" fill="#44485A" width="0.356" height="3.279"/>
					</g>
					<g>
						
							<rect x="43.956" y="53.529" transform="matrix(-0.5035 -0.864 0.864 -0.5035 18.1175 122.0779)" fill="#44485A" width="0.355" height="4.61"/>
					</g>
					<g>
						
							<rect x="42.669" y="53.31" transform="matrix(-0.5073 -0.8618 0.8618 -0.5073 17.2275 119.7504)" fill="#44485A" width="0.358" height="3.28"/>
					</g>
					<g>
						
							<rect x="42.514" y="51.062" transform="matrix(-0.5044 -0.8635 0.8635 -0.5044 18.1434 117.1483)" fill="#44485A" width="0.356" height="4.61"/>
					</g>
					<g>
						
							<rect x="41.227" y="50.844" transform="matrix(-0.5097 -0.8604 0.8604 -0.5097 17.3503 114.857)" fill="#44485A" width="0.356" height="3.282"/>
					</g>
					<g>
						
							<rect x="42.066" y="46.861" transform="matrix(-0.5105 -0.8599 0.8599 -0.5105 20.5406 112.3331)" fill="#44485A" width="0.358" height="6.917"/>
					</g>
					<g>
						
							<rect x="40.273" y="47.23" transform="matrix(-0.5044 -0.8635 0.8635 -0.5044 18.0822 109.4471)" fill="#44485A" width="0.356" height="4.609"/>
					</g>
					<g>
						
							<rect x="38.987" y="47.012" transform="matrix(-0.4991 -0.8666 0.8666 -0.4991 16.553 106.8712)" fill="#44485A" width="0.356" height="3.278"/>
					</g>
					<g>
						
							<rect x="38.831" y="44.763" transform="matrix(-0.5011 -0.8654 0.8654 -0.5011 17.8273 104.4136)" fill="#44485A" width="0.357" height="4.61"/>
					</g>
					<g>
						
							<rect x="37.544" y="44.545" transform="matrix(-0.5097 -0.8604 0.8604 -0.5097 17.2094 102.181)" fill="#44485A" width="0.356" height="3.283"/>
					</g>
					<g>
						
							<rect x="37.39" y="42.299" transform="matrix(-0.5015 -0.8652 0.8652 -0.5015 17.8158 99.4728)" fill="#44485A" width="0.354" height="4.609"/>
					</g>
					<g>
						
							<rect x="36.105" y="42.08" transform="matrix(-0.4994 -0.8664 0.8664 -0.4994 16.5239 96.9881)" fill="#44485A" width="0.354" height="3.279"/>
					</g>
					<g>
						
							<rect x="36.942" y="38.098" transform="matrix(-0.5052 -0.863 0.863 -0.5052 20.0135 94.5846)" fill="#44485A" width="0.358" height="6.914"/>
					</g>
					<g>
						
							<rect x="35.148" y="38.467" transform="matrix(-0.5023 -0.8647 0.8647 -0.5023 17.8181 91.7973)" fill="#44485A" width="0.356" height="4.609"/>
					</g>
					<g>
						
							<rect x="33.864" y="38.249" transform="matrix(-0.5035 -0.864 0.864 -0.5035 16.7191 89.3837)" fill="#44485A" width="0.355" height="3.279"/>
					</g>
					<g>
						
							<rect x="33.707" y="35.999" transform="matrix(-0.5068 -0.8621 0.8621 -0.5068 18.0338 86.9271)" fill="#44485A" width="0.355" height="4.611"/>
					</g>
					<g>
						
							<rect x="32.419" y="35.782" transform="matrix(-0.5056 -0.8628 0.8628 -0.5056 16.7907 84.4658)" fill="#44485A" width="0.355" height="3.28"/>
					</g>
					<g>
						
							<rect x="32.265" y="33.535" transform="matrix(-0.5003 -0.8659 0.8659 -0.5003 17.6405 81.8597)" fill="#44485A" width="0.355" height="4.61"/>
					</g>
					<g>
						
							<rect x="30.979" y="33.317" transform="matrix(-0.5035 -0.864 0.864 -0.5035 16.6434 79.4769)" fill="#44485A" width="0.355" height="3.28"/>
					</g>
					<g>
						
							<rect x="31.816" y="29.332" transform="matrix(-0.5085 -0.8611 0.8611 -0.5085 20.0268 77.0132)" fill="#44485A" width="0.357" height="6.917"/>
					</g>
				</g>
			</g>
		</g>
		<g>
			<polygon fill="#F7981D" points="88.022,37.246 96.417,39.69 83.693,83.291 75.302,80.848 			"/>
			
				<rect x="87.391" y="38.401" transform="matrix(-0.9602 -0.2795 0.2795 -0.9602 156.8858 144.5891)" fill="#FDE531" width="2.719" height="45.419"/>
			
				<rect x="84.553" y="37.609" transform="matrix(0.9601 0.2797 -0.2797 0.9601 20.3011 -21.6517)" fill="#F8CC0D" width="2.951" height="45.42"/>
			<polygon fill="#DEBEA1" points="88.022,37.246 96.417,39.69 96.257,25.043 			"/>
			<polygon fill="#F1D7B7" points="90.974,38.105 96.417,39.69 96.257,25.043 			"/>
			<polygon fill="#FAF6C3" points="93.793,38.927 96.417,39.69 96.257,25.043 			"/>
			<polygon fill="#39454E" points="96.309,29.876 96.257,25.043 93.541,29.069 			"/>
			<path fill="#E76165" d="M75.312,80.826l-1.488,5.104c-0.265,0.91,0.146,1.836,0.91,2.061l5.596,1.629
				c0.769,0.223,1.611-0.338,1.875-1.246l1.49-5.104L75.312,80.826z"/>
			<path fill="#A22163" d="M74.733,87.99l4.395,1.279l1.971-6.758l-5.787-1.686l-1.488,5.104
				C73.559,86.84,73.97,87.766,74.733,87.99z"/>
			<path fill="#802149" d="M74.733,87.99l1.547,0.449l1.971-6.758l-2.939-0.855l-1.488,5.104
				C73.559,86.84,73.97,87.766,74.733,87.99z"/>
		</g>
		<g>
			<path fill="#175E95" d="M64.338,21.677l-6.454,48.419l20.643,1.65l1.33-48.83c0.042-1.583-1.213-2.982-2.793-3.107l-9.475-0.756
				C66.01,18.924,64.548,20.105,64.338,21.677z"/>
			<path fill="#233870" d="M68.205,70.92l10.321,0.826l1.33-48.83c0.042-1.583-1.213-2.982-2.793-3.107l-4.736-0.38L68.205,70.92z"
				/>
			<path fill="#EF5C75" d="M64.338,21.677l-0.448,3.371l15.875,1.268l0.092-3.399c0.042-1.583-1.213-2.982-2.793-3.107l-9.475-0.756
				C66.01,18.924,64.548,20.105,64.338,21.677z"/>
			<path fill="#EE3C58" d="M71.53,25.66l8.234,0.655l0.092-3.399c0.042-1.583-1.213-2.982-2.793-3.107l-5.032-0.402L71.53,25.66z"/>
			<path fill="#ECC97F" d="M59.629,74.895c2.632,0.611,5.574,4.963,5.798,9.697l1.109,0.09l1.127,0.09l1.107,0.09
				c0.979-4.641,4.571-8.469,7.269-8.656c2.696-0.186,2.477-4.519,2.477-4.519l-9.743-0.778l-1.128-0.091l-9.741-0.778
				C57.903,70.039,56.995,74.281,59.629,74.895z"/>
			<polygon fill="#233870" points="68.603,86.75 68.754,84.857 65.413,84.592 65.183,87.471 			"/>
			<polygon fill="#111E44" points="66.907,87.107 68.603,86.75 68.754,84.857 67.097,84.727 			"/>
		</g>
		<path fill="#EDC55D" d="M94.984,62.221h-58.41c-3.486,0-5.866,1.952-5.292,4.341c0.571,2.387,2.711,4.342,4.747,4.342
			c2.04,0,4.149,2.368,4.691,5.263l4.317,23.027c0.541,2.893-0.278,5.262-1.826,5.262c-1.544,0-2.564,1.014-2.266,2.25
			c0.297,1.24,3.392,2.252,6.878,2.252h35.909c3.487,0,6.582-1.012,6.88-2.252c0.296-1.236-0.725-2.25-2.268-2.25
			c-1.546,0-2.366-2.369-1.826-5.262l4.314-23.027c0.542-2.895,2.653-5.263,4.69-5.263c2.04,0,4.177-1.955,4.753-4.342
			C100.851,64.173,98.47,62.221,94.984,62.221z"/>
	</g>
</g>
</svg>
