<?xml version="1.0" encoding="utf-8"?>
<!-- Generator: Adobe Illustrator 16.0.0, SVG Export Plug-In . SVG Version: 6.00 Build 0)  -->
<!DOCTYPE svg PUBLIC "-//W3C//DTD SVG 1.1//EN" "http://www.w3.org/Graphics/SVG/1.1/DTD/svg11.dtd">
<svg version="1.1" id="Layer_1" xmlns="http://www.w3.org/2000/svg" xmlns:xlink="http://www.w3.org/1999/xlink" x="0px" y="0px"
	 width="128px" height="128px" viewBox="0 0 128 128" enable-background="new 0 0 128 128" xml:space="preserve">
<g>
	<circle fill="#EDC55D" cx="64" cy="64" r="64"/>
	<path fill="#CFA448" d="M106.956,41.305l0.251,0.336l-1.804,2.144L82.008,20.792L62.12,43.493L20.793,85.422l17.508,18.492
		l-2.996,3.525l19.891,19.943C58.076,127.779,61.012,128,64,128c35.347,0,64-28.654,64-64c0-0.549-0.027-1.092-0.041-1.638
		L106.956,41.305z"/>
	<g>
		<polygon fill="#FFFFFF" points="92.879,107.207 35.121,107.207 41.775,73.132 86.225,73.132 		"/>
		<polygon fill="#CCD0D1" points="83.785,33.982 44.217,33.982 45.992,20.792 82.008,20.792 		"/>
		<g>
			<g>
				<polygon fill="#BEBEBE" points="78.89,99.799 48.99,99.789 49.51,96.853 78.391,96.861 				"/>
			</g>
			<g>
				<polygon fill="#BEBEBE" points="77.238,90.088 50.705,90.084 51.116,87.762 76.845,87.766 				"/>
			</g>
			<g>
				<polygon fill="#BEBEBE" points="75.922,82.34 52.074,82.34 52.405,80.458 75.602,80.458 				"/>
			</g>
		</g>
		<rect x="35.837" y="70.367" fill="#1F3A45" width="57.042" height="15.055"/>
		<polygon fill="#334E5C" points="89.603,41.641 89.603,33.982 38.399,33.982 38.399,41.641 20.793,41.641 20.793,85.422 
			38.399,85.422 38.399,73.132 89.603,73.132 89.603,85.422 107.207,85.422 107.207,41.641 		"/>
		<g>
			<rect x="32.578" y="51.316" fill="#3CB19C" width="4.363" height="2.369"/>
		</g>
		<g>
			<rect x="46.252" y="51.316" fill="#E1574C" width="4.365" height="2.369"/>
		</g>
		<g>
			<rect x="59.928" y="51.316" fill="#EDC55D" width="4.364" height="2.369"/>
		</g>
	</g>
</g>
</svg>
