<?xml version="1.0" encoding="utf-8"?>
<!-- Generator: Adobe Illustrator 16.0.0, SVG Export Plug-In . SVG Version: 6.00 Build 0)  -->
<!DOCTYPE svg PUBLIC "-//W3C//DTD SVG 1.1//EN" "http://www.w3.org/Graphics/SVG/1.1/DTD/svg11.dtd">
<svg version="1.1" id="Layer_1" xmlns="http://www.w3.org/2000/svg" xmlns:xlink="http://www.w3.org/1999/xlink" x="0px" y="0px"
	 width="128px" height="128px" viewBox="0 0 128 128" enable-background="new 0 0 128 128" xml:space="preserve">
<g>
	<circle fill="#9AB0B2" cx="64" cy="64" r="64"/>
	<path fill="#7F9B9B" d="M96.766,26.492l-2.98-0.74l-10.645,5.115l-6.301-3.732l-33.33-0.681l-1.209,2.797l-8.092-1.64l-3.977,2.887
		l1.648,7.357l3.35,11.041L64,76.893l-14.828,23.906l-5.064,0.814l25.973,26.092C102.572,124.641,128,97.295,128,64
		c0-2.027-0.105-4.029-0.291-6.009L96.766,26.492z"/>
	<g>
		<g>
			<path fill="#EFBF1E" d="M53.769,58.021c-6.618-0.663-13.692-4.137-18.463-9.066c-4.534-4.688-9.285-14.189-5.649-20.64
				c1.213-2.155,2.916-2.825,4.13-3.009c4.252-0.644,8.943,3.65,9.462,4.143l-2.422,2.561l1.21-1.28l-1.208,1.28
				c-1.489-1.401-4.576-3.513-6.52-3.219c-0.411,0.063-1.023,0.262-1.584,1.254c-2.562,4.547,1.398,12.619,5.112,16.461
				c4.154,4.291,10.546,7.436,16.282,8.01L53.769,58.021z"/>
		</g>
		<g>
			<path fill="#EFBF1E" d="M74.231,58.021l-0.351-3.506c5.736-0.574,12.128-3.719,16.281-8.012
				c3.717-3.84,7.676-11.912,5.112-16.459c-0.561-0.993-1.174-1.192-1.587-1.254c-2.024-0.308-5.265,2.035-6.514,3.219l-2.423-2.561
				c0.521-0.49,5.204-4.786,9.463-4.143c1.214,0.184,2.915,0.854,4.13,3.009c3.636,6.45-1.115,15.952-5.648,20.64
				C87.923,53.885,80.849,57.358,74.231,58.021z"/>
		</g>
	</g>
	<path fill="#9F6C29" d="M85.581,80.721H42.42v18.617h0.071c0.868,3.813,10.166,6.816,21.509,6.816
		c11.342,0,20.641-3.003,21.51-6.816h0.071V80.721z"/>
	<ellipse fill="#D0963A" cx="64" cy="80.245" rx="21.576" ry="6.925"/>
	<path fill="#F5DB0F" d="M81.494,80.486l-0.752-2.258l-6.772-2.914v-2.445l-7.148-4.233l-2.728-0.264v-0.019L64,68.362l-0.094-0.009
		v0.019l-2.729,0.264l-7.147,4.233v2.445l-6.772,2.914l-0.751,2.258C52.125,84.945,62.895,84.67,64,84.628
		C65.105,84.67,75.877,84.945,81.494,80.486z"/>
	<path fill="#FDED70" d="M73.97,75.314v-2.445l-0.13-0.078c-2.938,0.79-6.285,1.236-9.84,1.236s-6.901-0.446-9.84-1.236l-0.13,0.078
		v2.445l-6.772,2.914l-0.751,2.258C52.125,84.945,62.895,84.67,64,84.628c1.105,0.042,11.877,0.317,17.494-4.142l-0.752-2.258
		L73.97,75.314z"/>
	<path fill="#F5DB0F" d="M74.162,75.396c-3.015,0.846-6.477,1.326-10.162,1.326c-3.684,0-7.149-0.48-10.163-1.326l-6.579,2.832
		l-0.751,2.258C52.125,84.945,62.895,84.67,64,84.628c1.105,0.042,11.877,0.317,17.494-4.142l-0.752-2.258L74.162,75.396z"/>
	<path fill="#F5DB0F" d="M40.551,25.957c0,0.025,0,0.053,0,0.079C40.551,46.529,51.049,63.14,64,63.14s23.449-16.61,23.449-37.104
		c0-0.026,0-0.054,0-0.079H40.551z"/>
	<ellipse fill="#DF9326" cx="64" cy="26.033" rx="23.449" ry="4.186"/>
	<ellipse fill="#FFDD17" cx="64" cy="26.033" rx="21.136" ry="3.545"/>
	<ellipse fill="#F5DB0F" cx="63.999" cy="65.181" rx="7.31" ry="4.176"/>
	<path fill="#F0C523" d="M80.626,78.18c-3.857,2.512-9.868,4.128-16.626,4.128c-6.756,0-12.769-1.616-16.626-4.128l-0.116,0.049
		l-0.751,2.258C52.125,84.945,62.895,84.67,64,84.628c1.105,0.042,11.877,0.317,17.494-4.142l-0.752-2.258L80.626,78.18z"/>
</g>
</svg>
