<?xml version="1.0" encoding="utf-8"?>
<!-- Generator: Adobe Illustrator 16.0.0, SVG Export Plug-In . SVG Version: 6.00 Build 0)  -->
<!DOCTYPE svg PUBLIC "-//W3C//DTD SVG 1.1//EN" "http://www.w3.org/Graphics/SVG/1.1/DTD/svg11.dtd">
<svg version="1.1" id="Layer_1" xmlns="http://www.w3.org/2000/svg" xmlns:xlink="http://www.w3.org/1999/xlink" x="0px" y="0px"
	 width="128px" height="128px" viewBox="0 0 128 128" enable-background="new 0 0 128 128" xml:space="preserve">
<g>
	<circle fill="#2DA8D2" cx="64" cy="64" r="64"/>
	<path fill="#1882AB" d="M100.932,33.091l-1.396,1.116l-4.804-1.601l-6.514-8.269l-3.093,6.896l-4.347,1.373l-7.077-8.269
		l-1.844,8.039h-6.405l-6.265-8.039l-1.97,7.582l-6.176,0.687l-6.372-8.269l-3.235,17.876l-8.692,54.44l-5.151,4.177l26.298,26.366
		C57.184,127.721,60.559,128,64,128c35.347,0,64-28.653,64-64c0-1.311-0.052-2.608-0.13-3.9L100.932,33.091z"/>
	<path fill="#FFFFFF" d="M103.663,93.882c0,5.38-4.401,9.78-9.781,9.78H34.117c-5.379,0-9.78-4.4-9.78-9.78V40.344
		c0-5.379,4.401-9.78,9.78-9.78h59.765c5.38,0,9.781,4.401,9.781,9.78V93.882z"/>
	<g>
		<g>
			<rect x="39.78" y="24.338" fill="#2B414D" width="4.891" height="12.45"/>
		</g>
		<g>
			<rect x="54.298" y="24.338" fill="#2B414D" width="4.891" height="12.45"/>
		</g>
		<g>
			<rect x="68.812" y="24.338" fill="#2B414D" width="4.891" height="12.45"/>
		</g>
		<g>
			<rect x="83.328" y="24.338" fill="#2B414D" width="4.891" height="12.45"/>
		</g>
	</g>
	<g>
		<rect x="40.864" y="51.583" fill="#BBBDBF" width="46.27" height="4.891"/>
	</g>
	<g>
		<rect x="40.864" y="63.927" fill="#BBBDBF" width="46.27" height="4.891"/>
	</g>
	<g>
		<rect x="40.864" y="76.275" fill="#BBBDBF" width="46.27" height="4.891"/>
	</g>
	<g>
		<rect x="40.864" y="88.623" fill="#BBBDBF" width="46.27" height="4.891"/>
	</g>
</g>
</svg>
