<?xml version="1.0" encoding="utf-8"?>
<!-- Generator: Adobe Illustrator 16.0.0, SVG Export Plug-In . SVG Version: 6.00 Build 0)  -->
<!DOCTYPE svg PUBLIC "-//W3C//DTD SVG 1.1//EN" "http://www.w3.org/Graphics/SVG/1.1/DTD/svg11.dtd">
<svg version="1.1" id="Layer_1" xmlns="http://www.w3.org/2000/svg" xmlns:xlink="http://www.w3.org/1999/xlink" x="0px" y="0px"
	 width="128px" height="128px" viewBox="0 0 128 128" enable-background="new 0 0 128 128" xml:space="preserve">
<g>
	<circle fill="#334E5C" cx="64" cy="64" r="64"/>
	<path fill="#22414A" d="M96.547,26.928l-3.488,1.697L45.88,96.486l-7.41,4.734l26.68,26.75C99.963,127.354,128,98.96,128,64
		c0-1.961-0.102-3.896-0.275-5.813L96.547,26.928z"/>
	<path fill="#FFFFFF" d="M89.24,23.465H59.917H45.562c0,0-13.37-0.992-15.015,1.668c-1.225,1.984,6.673,6.674,6.673,6.674v14.357
		v12.661v37.55c0,4.586,3.753,8.341,8.342,8.341H89.24c4.586,0,8.342-3.755,8.342-8.341V31.807
		C97.582,27.218,93.826,23.465,89.24,23.465z"/>
	<path fill="#EDC55D" d="M40.551,55.826v40.549c0,2.762,2.248,5.01,5.011,5.01H89.24c2.764,0,5.012-2.248,5.012-5.01V55.826H40.551z
		"/>
	<circle fill="#FFFFFF" cx="69.255" cy="71.035" r="7.036"/>
	<circle fill="#FFFFFF" cx="82.205" cy="62.363" r="3.865"/>
	<circle fill="#FFFFFF" cx="77.598" cy="88.35" r="3.701"/>
	<g>
		<path fill="#2B414D" d="M56.517,35.746H45.156c-0.461,0-0.834-0.372-0.834-0.832c0-0.461,0.373-0.833,0.834-0.833h11.361
			c0.461,0,0.832,0.372,0.832,0.833C57.349,35.374,56.978,35.746,56.517,35.746z"/>
	</g>
	<g>
		<path fill="#2B414D" d="M56.517,53.231H45.156c-0.461,0-0.834-0.372-0.834-0.833c0-0.46,0.373-0.832,0.834-0.832h11.361
			c0.461,0,0.832,0.372,0.832,0.832C57.349,52.859,56.978,53.231,56.517,53.231z"/>
	</g>
	<g>
		<path fill="#2B414D" d="M50.837,44.489h-5.682c-0.461,0-0.834-0.372-0.834-0.833c0-0.46,0.373-0.833,0.834-0.833h5.682
			c0.459,0,0.832,0.373,0.832,0.833C51.669,44.117,51.296,44.489,50.837,44.489z"/>
	</g>
</g>
</svg>
