<?xml version="1.0" encoding="utf-8"?>
<!-- Generator: Adobe Illustrator 16.0.0, SVG Export Plug-In . SVG Version: 6.00 Build 0)  -->
<!DOCTYPE svg PUBLIC "-//W3C//DTD SVG 1.1//EN" "http://www.w3.org/Graphics/SVG/1.1/DTD/svg11.dtd">
<svg version="1.1" id="Layer_1" xmlns="http://www.w3.org/2000/svg" xmlns:xlink="http://www.w3.org/1999/xlink" x="0px" y="0px"
	 width="128px" height="128px" viewBox="0 0 128 128" enable-background="new 0 0 128 128" xml:space="preserve">
<g>
	<circle fill="#CADE80" cx="64" cy="64" r="64"/>
	<path fill="#B0CF72" d="M91.057,23.911l-7.169,5.944L42.492,97.764l-5.874,6.049l24.036,24.1c1.108,0.058,2.223,0.088,3.345,0.088
		C99.346,128,128,99.346,128,64c0-1.05-0.029-2.092-0.079-3.128L91.057,23.911z"/>
	<path fill="#CB4D43" d="M86.648,64c0-8.857,3.163-16.45,7.66-19.664V31.622c0-5.298-4.335-9.633-9.63-9.633H43.322
		c-5.298,0-9.634,4.335-9.634,9.633v12.714C38.189,47.55,41.352,55.143,41.352,64s-3.162,16.449-7.663,19.665v12.714
		c0,5.298,4.336,9.631,9.634,9.631h41.356c5.295,0,9.63-4.333,9.63-9.631V83.665C89.812,80.449,86.648,72.857,86.648,64z"/>
	<path fill="#FFF9FB" d="M76.617,99.661c0,1.768-1.445,3.211-3.211,3.211H54.364c-1.766,0-3.211-1.443-3.211-3.211V34.253
		c0-1.765,1.445-3.209,3.211-3.209h19.042c1.766,0,3.211,1.444,3.211,3.209V99.661z"/>
	<rect x="53.753" y="32.787" fill="#D2D3D2" width="21.041" height="68.344"/>
	<rect x="53.753" y="32.787" fill="#BDB9BA" width="5.498" height="68.344"/>
	<circle fill="#484860" cx="67.055" cy="65.752" r="6.566"/>
</g>
</svg>
