<?xml version="1.0" encoding="utf-8"?>
<!-- Generator: Adobe Illustrator 16.0.0, SVG Export Plug-In . SVG Version: 6.00 Build 0)  -->
<!DOCTYPE svg PUBLIC "-//W3C//DTD SVG 1.1//EN" "http://www.w3.org/Graphics/SVG/1.1/DTD/svg11.dtd">
<svg version="1.1" id="Layer_1" xmlns="http://www.w3.org/2000/svg" xmlns:xlink="http://www.w3.org/1999/xlink" x="0px" y="0px"
	 width="128px" height="128px" viewBox="0 0 128 128" enable-background="new 0 0 128 128" xml:space="preserve">
<g>
	<circle fill="#5E83A2" cx="64" cy="64" r="64"/>
	<path fill="#487396" d="M69.87,18.067l-0.651,1.211l-9.153,17.751L47.031,80.293l-9.43-10.261L25.954,84.176l-2.447,1.151
		l42.511,42.622C96.59,127,121.745,104.624,126.98,75.327L69.87,18.067z"/>
	<g>
		<path fill="#D9DDDF" d="M39.896,94.878c-0.983,5.555,2.723,10.852,8.275,11.834c5.553,0.983,10.847-2.722,11.83-8.273
			c0.982-5.553-2.721-10.851-8.275-11.833C46.174,85.622,40.877,89.328,39.896,94.878z"/>
		<path fill="#D9DDDF" d="M21.288,79.83c0.983,5.552,6.279,9.257,11.832,8.276c5.553-0.983,9.256-6.281,8.275-11.832
			c-0.982-5.554-6.28-9.256-11.833-8.273C24.013,68.984,20.306,74.28,21.288,79.83z"/>
		<path fill="#D9DDDF" d="M59.324,79.436l7.349-1.3l12.848-2.273l14.122-2.497c2.478-0.438,5.9-2.312,7.603-4.162l7.718-8.385
			c1.706-1.852,1.069-3.009-1.406-2.57l-30.206,5.34L64.5,65.862l-2.868,0.505l0.508-2.866l2.273-12.852l5.339-30.207
			c0.439-2.477-0.718-3.109-2.57-1.405l-8.386,7.717c-1.85,1.705-3.724,5.126-4.162,7.604l-2.497,14.122l-2.271,12.849l-1.303,7.349
			v0.002l-1.518,8.586l-0.611,4.303l4.303-0.614l8.582-1.518h0.003H59.324z"/>
	</g>
</g>
</svg>
