<?xml version="1.0" encoding="utf-8"?>
<!-- Generator: Adobe Illustrator 16.0.0, SVG Export Plug-In . SVG Version: 6.00 Build 0)  -->
<!DOCTYPE svg PUBLIC "-//W3C//DTD SVG 1.1//EN" "http://www.w3.org/Graphics/SVG/1.1/DTD/svg11.dtd">
<svg version="1.1" id="Layer_1" xmlns="http://www.w3.org/2000/svg" xmlns:xlink="http://www.w3.org/1999/xlink" x="0px" y="0px"
	 width="128px" height="128px" viewBox="0 0 128 128" enable-background="new 0 0 128 128" xml:space="preserve">
<g>
	<circle fill="#BB888C" cx="64" cy="64" r="64"/>
	<path fill="#A9777B" d="M102.068,31.061l-3.445,2.8l-69.86,54.911l-1.906,2.178l36.949,37.046c0.064,0,0.129,0.005,0.193,0.005
		c35.346,0,64-28.653,64-64c0-2.496-0.158-4.955-0.436-7.377L102.068,31.061z"/>
	<g>
		<rect x="26.65" y="31.218" fill="#FFFFFF" width="74.702" height="59.094"/>
		<g>
			<path fill="#354C58" d="M87.961,53.169c-0.279,0-0.557-0.116-0.754-0.345c-5.395-6.211-14.096-9.919-23.28-9.919
				c-9.09,0-17.74,3.649-23.139,9.762c-0.365,0.414-0.996,0.453-1.412,0.088c-0.414-0.366-0.453-0.998-0.088-1.412
				c5.859-6.633,14.84-10.438,24.639-10.438c9.754,0,19.022,3.966,24.79,10.608c0.361,0.417,0.316,1.048-0.1,1.41
				C88.428,53.088,88.193,53.169,87.961,53.169z"/>
		</g>
		<rect x="57.814" y="50.544" fill="#E1574C" width="12.372" height="16.211"/>
		<g>
			<path fill="#354C58" d="M77.826,77.645H50.173c-0.553,0-1-0.447-1-1s0.447-1,1-1h27.653c0.553,0,1,0.447,1,1
				S78.379,77.645,77.826,77.645z"/>
		</g>
		<rect x="30.65" y="35.218" fill="none" stroke="#F6921E" stroke-miterlimit="10" width="66.702" height="51.094"/>
		<g>
			<polyline fill="#3E5562" points="38.775,88.551 32.603,96.962 36.23,97.519 37.73,102.153 42.208,90.424 			"/>
			<polyline fill="#213C49" points="40.3,89.418 43.962,102.153 46.326,98.399 51.06,99.422 44.15,88.551 			"/>
			<path fill="#EDC55D" d="M41.556,90.891c4.16,0,7.533-3.415,7.533-7.63c0-4.211-3.373-7.627-7.533-7.627
				c-4.162,0-7.535,3.416-7.535,7.627C34.021,87.476,37.394,90.891,41.556,90.891z"/>
		</g>
	</g>
</g>
</svg>
