<?xml version="1.0" encoding="utf-8"?>
<!-- Generator: Adobe Illustrator 16.0.0, SVG Export Plug-In . SVG Version: 6.00 Build 0)  -->
<!DOCTYPE svg PUBLIC "-//W3C//DTD SVG 1.1//EN" "http://www.w3.org/Graphics/SVG/1.1/DTD/svg11.dtd">
<svg version="1.1" id="Layer_1" xmlns="http://www.w3.org/2000/svg" xmlns:xlink="http://www.w3.org/1999/xlink" x="0px" y="0px"
	 width="128px" height="128px" viewBox="0 0 128 128" enable-background="new 0 0 128 128" xml:space="preserve">
<g>
	<circle fill="#E8AC99" cx="64" cy="64" r="64"/>
	<path fill="#DC9977" d="M104.752,33.304l-0.355,1.416L85.15,33.993l-7.029-10.237l1.037,10.601l-3.27,0.363L65.635,23.145
		l-1.91,11.212l-3.633-0.182l-7.625-9.442l-3.994,10.169l-6.355,3.994l-18.971,46.71l10.617,8.67l-2.178,8.353l-1.297,1.409
		l22.992,23.052C56.768,127.678,60.346,128,64,128c35.348,0,64-28.653,64-64c0-2.674-0.184-5.303-0.502-7.891L104.752,33.304z"/>
	
		<rect x="32.123" y="85.319" transform="matrix(0.971 0.239 -0.239 0.971 23.7401 -5.3083)" fill="#AB5D32" width="3.269" height="19.821"/>
	
		<rect x="48.58" y="23.993" transform="matrix(0.9713 0.2378 -0.2378 0.9713 8.3946 -11.1)" fill="#AB5D32" width="3.27" height="10.518"/>
	
		<rect x="84.334" y="93.594" transform="matrix(0.2388 0.9711 -0.9711 0.2388 164.2191 -19.0265)" fill="#AB5D32" width="19.821" height="3.27"/>
	
		<rect x="72.529" y="27.617" transform="matrix(0.2385 0.9711 -0.9711 0.2385 87.6453 -53.2667)" fill="#AB5D32" width="10.516" height="3.27"/>
	<rect x="62.365" y="84.656" fill="#AB5D32" width="3.27" height="20.197"/>
	<rect x="62.365" y="23.145" fill="#AB5D32" width="3.27" height="10.215"/>
	<rect x="23.146" y="33.359" fill="#984A22" width="81.709" height="52.246"/>
	<rect x="25.598" y="35.811" fill="#334E5C" width="76.805" height="47.344"/>
	<g>
		<path fill="#FFFFFF" d="M47.994,66.631c-0.429,0-0.814-0.272-0.93-0.709c-0.071-0.245-0.245-0.839-0.216-6.616
			c0.006-1.191-0.292-1.978-0.913-2.401c-1.26-0.863-3.74-0.192-4.511,0.108c-0.505,0.2-1.075-0.049-1.272-0.554
			c-0.198-0.504,0.05-1.074,0.555-1.271c0.402-0.159,4.005-1.503,6.339,0.097c1.181,0.81,1.775,2.166,1.767,4.032
			c-0.026,5.121,0.109,5.945,0.137,6.059c0.139,0.524-0.169,1.085-0.693,1.223C48.168,66.621,48.08,66.631,47.994,66.631z"/>
	</g>
	<g>
		<path fill="#FFFFFF" d="M44.178,66.075c-0.486,0-0.957-0.078-1.4-0.237c-1.635-0.592-2.221-1.619-2.425-2.377
			c-0.371-1.374,0.238-2.748,0.872-3.506c1.653-1.979,5.957-1.976,6.438-1.967c0.541,0.009,0.973,0.454,0.966,0.996
			c-0.008,0.537-0.445,0.968-0.981,0.968c-0.041,0-0.093-0.001-0.14-0.001c-1.492,0-4,0.333-4.777,1.262
			c-0.357,0.428-0.639,1.162-0.482,1.737c0.12,0.446,0.522,0.797,1.197,1.041c1.505,0.542,3.246-0.817,3.465-1.259
			c0.161-0.516,0.707-0.785,1.223-0.626c0.518,0.163,0.799,0.731,0.637,1.248c-0.263,0.836-1.325,1.68-2.262,2.144
			C45.732,65.882,44.938,66.075,44.178,66.075z"/>
	</g>
	<g>
		<path fill="#FFFFFF" d="M59.67,66.431c-0.543,0-0.981-0.438-0.981-0.981V50.048c0-0.542,0.438-0.981,0.981-0.981
			c0.542,0,0.981,0.439,0.981,0.981v15.401C60.651,65.992,60.212,66.431,59.67,66.431z"/>
	</g>
	<g>
		<path fill="#FFFFFF" d="M64.146,66.232c-3.01,0-5.457-2.596-5.457-5.784s2.447-5.784,5.457-5.784c3.012,0,5.462,2.596,5.462,5.784
			S67.157,66.232,64.146,66.232z M64.146,56.627c-1.926,0-3.494,1.715-3.494,3.821c0,2.107,1.568,3.821,3.494,3.821
			c1.93,0,3.5-1.714,3.5-3.821C67.646,58.342,66.075,56.627,64.146,56.627z"/>
	</g>
	<g>
		<path fill="#FFFFFF" d="M82.879,66.232c-3.011,0-5.46-2.596-5.46-5.784s2.449-5.784,5.46-5.784c1.523,0,2.988,0.682,4.02,1.869
			c0.355,0.409,0.311,1.029-0.099,1.384c-0.408,0.355-1.029,0.313-1.386-0.097c-0.666-0.77-1.567-1.193-2.535-1.193
			c-1.929,0-3.497,1.715-3.497,3.821c0,2.107,1.568,3.821,3.497,3.821c1.027,0,2-0.492,2.667-1.352
			c0.058-0.071,0.104-0.14,0.151-0.209c0.305-0.447,0.913-0.566,1.364-0.262c0.447,0.305,0.566,0.914,0.261,1.363
			c-0.072,0.108-0.149,0.215-0.23,0.318C86.054,65.463,84.518,66.232,82.879,66.232z"/>
	</g>
</g>
</svg>
