<?xml version="1.0" encoding="utf-8"?>
<!-- Generator: Adobe Illustrator 16.0.0, SVG Export Plug-In . SVG Version: 6.00 Build 0)  -->
<!DOCTYPE svg PUBLIC "-//W3C//DTD SVG 1.1//EN" "http://www.w3.org/Graphics/SVG/1.1/DTD/svg11.dtd">
<svg version="1.1" id="Layer_1" xmlns="http://www.w3.org/2000/svg" xmlns:xlink="http://www.w3.org/1999/xlink" x="0px" y="0px"
	 width="128px" height="128px" viewBox="0 0 128 128" enable-background="new 0 0 128 128" xml:space="preserve">
<g>
	<circle fill="#EDC55D" cx="64" cy="64" r="64"/>
	<path fill="#DDA543" d="M101.906,39.465l-0.648,1.113l-9.188,1.021L78.799,26.798l-2.551-1.021l-9.443-2.297l-7.4,0.766
		L47.92,28.839l-3.828,8.422l-3.316,9.697l5.613,23.989L27.25,97.998l-1.631,1.325l27.7,27.772C56.793,127.68,60.358,128,64,128
		c34.814,0,63.115-27.804,63.958-62.414L101.906,39.465z"/>
	<rect x="29.61" y="44.92" fill="#FFFFFF" width="68.778" height="49.004"/>
	<g>
		<path fill="#572110" d="M84.191,40.856c-0.863,0-1.563-0.7-1.563-1.563c0-7.893-8.357-14.314-18.628-14.314
			c-10.273,0-18.631,6.422-18.631,14.314c0,0.863-0.699,1.563-1.563,1.563s-1.564-0.7-1.564-1.563c0-9.616,9.762-17.44,21.758-17.44
			c11.994,0,21.755,7.824,21.755,17.44C85.756,40.156,85.055,40.856,84.191,40.856z"/>
	</g>
	<rect x="25.885" y="39.727" fill="#793919" width="76.229" height="5.203"/>
	<rect x="25.885" y="93.924" fill="#793919" width="76.229" height="5.2"/>
	<g>
		<g>
			
				<rect x="46.246" y="59.896" transform="matrix(0.891 0.454 -0.454 0.891 36.1288 -14.1383)" fill="#334E5C" width="2.525" height="16.55"/>
		</g>
	</g>
	<g>
		<g>
			
				<rect x="52.119" y="66.064" transform="matrix(0.7076 0.7066 -0.7066 0.7076 65.4635 -23.5264)" fill="#334E5C" width="18.076" height="2.537"/>
		</g>
	</g>
	<g>
		<g>
			
				<rect x="77.99" y="62.81" transform="matrix(0.8717 0.4901 -0.4901 0.8717 43.7967 -30.0656)" fill="#334E5C" width="2.648" height="11.592"/>
		</g>
	</g>
	<circle fill="#2C3D48" cx="41.368" cy="80.918" r="6.662"/>
	<circle fill="#2C3D48" cx="53.14" cy="56.976" r="5.11"/>
	<circle fill="#2C3D48" cx="71.363" cy="78.744" r="7.909"/>
	<circle fill="#2C3D48" cx="85.899" cy="58.656" r="7.392"/>
</g>
</svg>
