<?xml version="1.0" encoding="utf-8"?>
<!-- Generator: Adobe Illustrator 16.0.0, SVG Export Plug-In . SVG Version: 6.00 Build 0)  -->
<!DOCTYPE svg PUBLIC "-//W3C//DTD SVG 1.1//EN" "http://www.w3.org/Graphics/SVG/1.1/DTD/svg11.dtd">
<svg version="1.1" id="Layer_1" xmlns="http://www.w3.org/2000/svg" xmlns:xlink="http://www.w3.org/1999/xlink" x="0px" y="0px"
	 width="128px" height="128px" viewBox="0 0 128 128" enable-background="new 0 0 128 128" xml:space="preserve">
<g>
	<circle fill="#2DA8D2" cx="64" cy="64" r="64"/>
	<path fill="#1882AB" d="M108.092,39.984l-3.201,0.8H71.521l-25.953,17.19l-6.742,30.336l-7.078,9.438l-3.146,2.26l27.406,27.478
		C58.627,127.813,61.291,128,64,128c35.348,0,64-28.654,64-64c0-1.416-0.063-2.816-0.152-4.21L108.092,39.984z"/>
	<polygon fill="#97532E" points="107.834,40.73 84.617,19.768 65.803,39.044 89.021,60.007 	"/>
	<path fill="#904821" d="M76.875,49.04l12.146,10.967l18.813-19.276l-3.441-3.107C96.611,44.309,87.039,49.516,76.875,49.04z"/>
	<path fill="#EDC55D" d="M81.939,54.141l-4.084-3.688l-1.588-1.434l-5.219-4.711l-2.912-2.631
		c-8.035,4.182-30.299,16.978-30.299,16.978c3.012,15.067-0.961,26.513-3.465,31.821c-2.328-1.463-5.473-1.167-7.438,0.849
		c-2.205,2.26-2.092,5.812,0.26,7.935l1.625,1.469c2.352,2.121,6.045,2.008,8.25-0.251c1.965-2.016,2.074-5.052,0.41-7.192
		c5.352-2.74,16.977-7.277,32.799-5.334c0,0,11.875-22.178,15.707-30.156L81.939,54.141z M57.939,75.043
		c-3.813,0-6.904-2.973-6.904-6.643c0-3.668,3.092-6.641,6.904-6.641c3.814,0,6.906,2.973,6.906,6.641
		C64.846,72.07,61.754,75.043,57.939,75.043z"/>
	<path fill="#EDB048" d="M81.939,54.141l-1.423-1.285C73.782,62.981,68.894,74.623,58.37,81.539
		c-7.067,4.646-15.437,8.04-23.923,8.775c-0.024,0.051-0.051,0.111-0.074,0.162c-0.08-0.051-0.168-0.082-0.25-0.129
		c-1.964,0.154-3.933,0.156-5.893,0.006c-0.465,0.263-0.907,0.574-1.295,0.972c-2.205,2.26-2.092,5.812,0.26,7.935l1.625,1.469
		c2.352,2.121,6.045,2.008,8.25-0.251c1.965-2.016,2.074-5.052,0.41-7.192c5.352-2.74,16.977-7.277,32.799-5.334
		c0,0,11.875-22.178,15.707-30.156L81.939,54.141z"/>
</g>
</svg>
