<?xml version="1.0" encoding="utf-8"?>
<!-- Generator: Adobe Illustrator 16.0.0, SVG Export Plug-In . SVG Version: 6.00 Build 0)  -->
<!DOCTYPE svg PUBLIC "-//W3C//DTD SVG 1.1//EN" "http://www.w3.org/Graphics/SVG/1.1/DTD/svg11.dtd">
<svg version="1.1" id="Layer_1" xmlns="http://www.w3.org/2000/svg" xmlns:xlink="http://www.w3.org/1999/xlink" x="0px" y="0px"
	 width="128px" height="128px" viewBox="0 0 128 128" enable-background="new 0 0 128 128" xml:space="preserve">
<g>
	<circle fill="#EDC55D" cx="64" cy="64" r="64"/>
	<path fill="#DAAB42" d="M95.77,30.768c-3.724-0.018-6.328,3.816-6.328,3.816l-9.376,13.307l-45.814,43.08l-3.615,5.916
		l30.972,31.053C62.402,127.969,63.197,128,64,128c35.346,0,64-28.653,64-64c0-0.316-0.02-0.627-0.023-0.941L95.77,30.768z"/>
	<path fill="#F2F2F2" d="M92.901,44.497c0.815,0.745,1.338,1.886,1.338,3.159v46.467c0,2.229-1.603,4.054-3.563,4.054H33.391
		c-1.959,0-3.564-1.824-3.564-4.054V47.656c0-2.229,1.605-4.053,3.564-4.053h48.788"/>
	<g>
		<path fill="#314B59" d="M83.207,57.383L83.207,57.383c-1.121,0-2.2-0.338-3.119-0.975c-2.734-1.883-3.44-5.962-1.574-9.092
			l8.455-14.205c1.208-2.027,3.302-3.288,5.469-3.288c1.121,0,2.201,0.336,3.12,0.972c2.731,1.887,3.44,5.967,1.576,9.096
			L88.68,54.093C87.471,56.122,85.375,57.383,83.207,57.383z M92.438,32.701c-1.158,0-2.305,0.723-2.996,1.883l-8.454,14.205
			c-1.088,1.822-0.751,4.227,0.733,5.252c1.396,0.965,3.471,0.283,4.486-1.421l8.453-14.202c1.086-1.822,0.748-4.229-0.736-5.254
			C93.48,32.857,92.98,32.701,92.438,32.701z"/>
	</g>
	<g>
		<g>
			<path fill="#CB4D44" d="M35.937,78.098V63.812h8.322v1.692h-6.552v3.909h6.104v1.689h-6.104v5.306h6.552v1.689H35.937z"/>
			<path fill="#CB4D44" d="M56.459,70.597h-9.885v-1.535h9.885V70.597z M56.459,74.624h-9.885V73.09h9.885V74.624z"/>
			<path fill="#CB4D44" d="M70.726,78.098v-6.2c0-0.489-0.02-0.947-0.054-1.366c-0.036-0.418-0.111-0.744-0.225-0.98
				c-0.117-0.259-0.289-0.447-0.508-0.567c-0.223-0.121-0.521-0.181-0.895-0.181c-0.346,0-0.717,0.113-1.113,0.341
				c-0.396,0.225-0.807,0.554-1.228,0.98c0.005,0.11,0.011,0.242,0.022,0.388c0.008,0.152,0.011,0.329,0.011,0.534v7.052h-1.681
				v-6.2c0-0.489-0.017-0.947-0.053-1.366c-0.034-0.418-0.109-0.744-0.223-0.98c-0.121-0.259-0.289-0.447-0.512-0.567
				c-0.219-0.121-0.517-0.181-0.894-0.181c-0.362,0-0.745,0.121-1.144,0.363c-0.399,0.241-0.787,0.551-1.161,0.93v8.002h-1.681
				V67.381h1.681v1.189c0.441-0.473,0.877-0.841,1.31-1.097c0.434-0.261,0.908-0.388,1.426-0.388c0.59,0,1.112,0.144,1.568,0.43
				c0.455,0.287,0.804,0.76,1.042,1.42c0.506-0.607,1.001-1.068,1.484-1.381c0.48-0.312,1.006-0.469,1.571-0.469
				c0.43,0,0.82,0.07,1.172,0.214s0.657,0.376,0.922,0.696c0.267,0.326,0.475,0.734,0.621,1.221
				c0.146,0.482,0.219,1.096,0.219,1.829v7.052H70.726z"/>
			<path fill="#CB4D44" d="M78.733,78.337c-0.687,0-1.313-0.115-1.886-0.343c-0.57-0.225-1.063-0.568-1.476-1.031
				c-0.411-0.459-0.729-1.037-0.956-1.737c-0.225-0.703-0.34-1.526-0.34-2.474c0-0.936,0.118-1.751,0.354-2.434
				c0.236-0.684,0.552-1.26,0.942-1.727c0.394-0.466,0.885-0.826,1.473-1.082c0.585-0.25,1.217-0.376,1.889-0.376
				c0.548,0,1.076,0.081,1.588,0.247c0.509,0.166,0.964,0.357,1.363,0.576v2.023h-0.099c-0.121-0.109-0.272-0.23-0.461-0.373
				c-0.188-0.141-0.416-0.284-0.683-0.434c-0.233-0.126-0.507-0.238-0.823-0.334c-0.315-0.096-0.619-0.144-0.911-0.144
				c-0.871,0-1.568,0.352-2.097,1.06c-0.528,0.709-0.793,1.706-0.793,2.996c0,1.268,0.256,2.254,0.765,2.96
				c0.512,0.708,1.217,1.06,2.125,1.06c0.548,0,1.067-0.118,1.563-0.363c0.495-0.244,0.933-0.557,1.315-0.941h0.099v2.023
				c-0.169,0.085-0.377,0.186-0.627,0.304s-0.478,0.205-0.681,0.265c-0.283,0.09-0.539,0.157-0.767,0.205
				S79.09,78.337,78.733,78.337z"/>
		</g>
		<g>
			<path fill="#CB4D44" d="M88.129,71.448h-4.508v-1.103c0.323-0.328,0.629-0.643,0.919-0.947c0.286-0.3,0.567-0.615,0.843-0.941
				c0.557-0.657,0.936-1.183,1.139-1.576c0.202-0.396,0.304-0.804,0.304-1.226c0-0.216-0.031-0.407-0.096-0.573
				c-0.065-0.166-0.152-0.301-0.262-0.41c-0.115-0.104-0.247-0.183-0.399-0.239c-0.148-0.051-0.314-0.075-0.494-0.075
				c-0.174,0-0.349,0.021-0.528,0.07c-0.177,0.047-0.349,0.106-0.512,0.177c-0.138,0.059-0.27,0.132-0.399,0.216
				c-0.126,0.082-0.23,0.154-0.309,0.214h-0.054v-1.116c0.202-0.109,0.486-0.213,0.847-0.317c0.362-0.106,0.705-0.157,1.028-0.157
				c0.68,0,1.214,0.194,1.599,0.582c0.389,0.388,0.579,0.916,0.579,1.579c0,0.304-0.033,0.588-0.101,0.847
				c-0.064,0.258-0.158,0.503-0.275,0.722c-0.121,0.228-0.268,0.456-0.439,0.678c-0.168,0.228-0.348,0.446-0.539,0.666
				c-0.307,0.356-0.649,0.73-1.025,1.116c-0.38,0.385-0.681,0.691-0.905,0.916h3.589V71.448z"/>
		</g>
	</g>
</g>
</svg>
