<?xml version="1.0" encoding="utf-8"?>
<!-- Generator: Adobe Illustrator 16.0.0, SVG Export Plug-In . SVG Version: 6.00 Build 0)  -->
<!DOCTYPE svg PUBLIC "-//W3C//DTD SVG 1.1//EN" "http://www.w3.org/Graphics/SVG/1.1/DTD/svg11.dtd">
<svg version="1.1" id="Layer_1" xmlns="http://www.w3.org/2000/svg" xmlns:xlink="http://www.w3.org/1999/xlink" x="0px" y="0px"
	 width="128px" height="128px" viewBox="0 0 128 128" enable-background="new 0 0 128 128" xml:space="preserve">
<g>
	<circle fill="#BA7C8C" cx="64" cy="64" r="64"/>
	<path fill="#A96E75" d="M104.173,46.85l-3.51,2.808l-56.866-6.383l-16.611,4.068L56.272,76.64l-10.445,21.18l-1.829,0.823
		l28.681,28.756c29.149-3.954,52.066-27.519,55.001-56.981L104.173,46.85z"/>
	<path fill="#FFFFFF" d="M27.186,47.343l72.728,9.274l0.002-0.011c1.085,0.135,2.591-1.971,3.402-4.801
		c0.811-2.825,0.623-5.312-0.404-5.648l0.003-0.007L33.942,23.787L27.186,47.343z"/>
	<path fill="#6D6E70" d="M37.136,36.878c-1.765,6.533-5.915,11.268-9.275,10.576c-3.36-0.693-4.657-6.556-2.896-13.09
		s5.914-11.266,9.275-10.572C37.6,24.485,38.898,30.345,37.136,36.878z"/>
	<g>
		<path fill="#929497" d="M51.881,52.077c-0.264,0-0.524-0.033-0.781-0.1c-0.382-0.1-0.623-0.541-0.537-0.986
			c0.087-0.444,0.467-0.725,0.848-0.624c2.324,0.601,5.39-3.345,6.699-8.627c0.908-3.656,0.819-7.209-0.23-9.274
			c-0.414-0.815-0.942-1.311-1.57-1.475c-0.382-0.102-0.623-0.542-0.537-0.987c0.086-0.444,0.466-0.724,0.848-0.625
			c1.011,0.265,1.868,1.04,2.481,2.245c1.241,2.444,1.385,6.496,0.372,10.574C58.037,47.983,54.82,52.077,51.881,52.077z"/>
	</g>
	<g>
		<path fill="#929497" d="M81.849,56.026c-0.202,0-0.403-0.025-0.602-0.077c-0.382-0.101-0.622-0.542-0.536-0.987
			s0.465-0.721,0.848-0.624c1.379,0.366,3.62-2.051,4.625-6.095c0.633-2.549,0.576-5.117-0.146-6.542
			c-0.272-0.536-0.613-0.861-1.015-0.967c-0.382-0.1-0.622-0.542-0.536-0.987c0.086-0.444,0.466-0.723,0.848-0.623
			c0.787,0.207,1.451,0.807,1.924,1.736c0.926,1.826,1.037,4.831,0.288,7.843C86.479,52.994,84.067,56.026,81.849,56.026z"/>
	</g>
	<g>
		<path fill="#334E5C" d="M47.187,100.145l-3.205-1.516l21.547-45.595c0.293-0.62,0.917-1.016,1.604-1.016c0,0,0,0,0.001,0
			c0.685,0,1.309,0.396,1.602,1.016L90.256,98.63l-3.207,1.514L67.131,57.942L47.187,100.145z"/>
	</g>
	<g>
		<rect x="65.346" y="57.021" fill="#334E5C" width="3.546" height="47.253"/>
	</g>
</g>
</svg>
