<?xml version="1.0" encoding="utf-8"?>
<!-- Generator: Adobe Illustrator 16.0.0, SVG Export Plug-In . SVG Version: 6.00 Build 0)  -->
<!DOCTYPE svg PUBLIC "-//W3C//DTD SVG 1.1//EN" "http://www.w3.org/Graphics/SVG/1.1/DTD/svg11.dtd">
<svg version="1.1" id="Layer_1" xmlns="http://www.w3.org/2000/svg" xmlns:xlink="http://www.w3.org/1999/xlink" x="0px" y="0px"
	 width="128px" height="128px" viewBox="0 0 128 128" enable-background="new 0 0 128 128" xml:space="preserve">
<g>
	<circle fill="#439C80" cx="64" cy="64" r="64"/>
	<path fill="#26825C" d="M89.725,23.079l-1.359,2.348v42.178l-3.394,13.574L60.974,58.394L36.249,99.116l-1.951,1.951l26.789,26.859
		C62.053,127.97,63.023,128,64,128c35.348,0,64-28.654,64-64c0-0.876-0.031-1.744-0.066-2.611L89.725,23.079z"/>
	<path fill="#FFFFFF" d="M30.553,69.415c2.121-7.705,8.144-13.587,15.588-14.95c0.199-1.856,1.596-3.304,3.304-3.304
		c1.712,0,3.106,1.447,3.307,3.304c7.445,1.363,13.467,7.245,15.589,14.95"/>
	<path fill="#FFFFFF" d="M68.188,102.166c2.003-1.203,4.302-2.423,6.408-3.521c2.602-1.355,3.723-4.11,4.49-6.804
		c0.783-2.738,1.811-5.553,2.078-8.411c0.166-1.79-0.207-3.528,0.383-5.257c0.174-0.51,0.373-0.943,0.594-1.323
		c-2.068-0.146-3.696-1.28-3.696-2.669c0-1.482,1.859-2.696,4.126-2.696h10.337c2.271,0,4.13,1.214,4.13,2.696
		c0,1.446-1.768,2.625-3.956,2.688c0.524,1.29,0.861,2.687,1.552,3.879c0.729,1.262,1.774,2.147,2.189,3.566
		c0.765,2.609,0.778,5.438,0.778,8.159c0,2.719-0.072,5.399-0.795,8.037c-0.587,2.145-1.685,3.747-2.64,5.642
		c-0.589-0.04-0.835-0.499-1.219-0.915c-1.005,0.427-1.348,1.056-2.53,1.03c-0.878-0.019-1.685-0.581-2.427-0.639
		c-0.965-0.068-1.573,0.82-2.57,0.653c-1.154-0.188-1.494-0.818-2.593-0.593c-0.716,0.145-1.931,0.744-2.712,0.365
		c-0.626-0.308-0.684-1.204-1.476-1.345c-0.371-0.066-0.523,0.184-0.744,0.212c-1.132,0.146-1.472,0.134-2.606-0.223
		c-0.998-0.315-1.013,0.043-1.957,0.031c-1.449-0.014-3.004-0.611-4.443-0.863c-0.451-0.084-1.52,0.227-1.812-0.21
		C66.65,103.02,67.744,102.435,68.188,102.166z"/>
	<g>
		<rect x="47.925" y="75.552" fill="#FFFFFF" width="3.045" height="20.514"/>
	</g>
	<g>
		<g>
			
				<rect x="39.025" y="75.516" transform="matrix(-0.9965 0.0834 -0.0834 -0.9965 88.1091 167.9361)" fill="#FFFFFF" width="3.045" height="20.584"/>
		</g>
		<g>
			
				<rect x="48.055" y="84.286" transform="matrix(-0.0834 0.9965 -0.9965 -0.0834 148.7232 34.8204)" fill="#FFFFFF" width="20.584" height="3.044"/>
		</g>
	</g>
	<polygon fill="#A6A8AB" points="64.391,101.185 34.5,101.185 30.4,69.438 68.494,69.438 	"/>
	<path fill="#FAAF40" d="M91.075,71.519h-6.671c-2.271,0-4.13-1.303-4.13-2.894c0-1.588,1.858-2.89,4.13-2.89h0.654
		c-0.012-0.141-0.029-0.278-0.029-0.427V25.827c0-2.273,1.219-4.13,2.713-4.13c1.488,0,2.707,1.856,2.707,4.13v39.481
		c0,0.148-0.019,0.286-0.028,0.427h0.654c2.273,0,4.128,1.302,4.128,2.89C95.203,70.216,93.349,71.519,91.075,71.519z"/>
</g>
</svg>
