<?xml version="1.0" encoding="utf-8"?>
<!-- Generator: Adobe Illustrator 16.0.0, SVG Export Plug-In . SVG Version: 6.00 Build 0)  -->
<!DOCTYPE svg PUBLIC "-//W3C//DTD SVG 1.1//EN" "http://www.w3.org/Graphics/SVG/1.1/DTD/svg11.dtd">
<svg version="1.1" id="Layer_1" xmlns="http://www.w3.org/2000/svg" xmlns:xlink="http://www.w3.org/1999/xlink" x="0px" y="0px"
	 width="128px" height="128px" viewBox="0 0 128 128" enable-background="new 0 0 128 128" xml:space="preserve">
<g>
	<circle fill="#2DA8D2" cx="64" cy="64" r="64"/>
	<path fill="#0C8BAB" d="M92.879,31.23l-0.696,1.469c-8.105-5.96-21.458-0.902-21.458-0.902L28.708,73.32l7.066,7.524
		c0,0,0.328,0.541,0,4.688s2.312,9.197,2.312,9.197l-0.829,1.262l31.714,31.797c32.236-2.479,57.774-28.825,58.969-61.406
		L92.879,31.23z"/>
	<g>
		<g>
			<path fill="#FFFFFF" d="M64.229,89.676c-0.386,0-0.771-0.146-1.064-0.44c-0.589-0.588-0.589-1.541,0-2.129l28.612-28.613
				c6.495-6.496,6.608-16.953,0.253-23.311c-6.354-6.354-16.813-6.243-23.311,0.253L30.837,73.32c-0.589,0.588-1.541,0.588-2.129,0
				c-0.589-0.589-0.589-1.541,0-2.129L66.59,33.307c7.672-7.669,20.037-7.784,27.568-0.253s7.418,19.896-0.253,27.568L65.293,89.235
				C64.998,89.529,64.613,89.676,64.229,89.676z"/>
		</g>
		<g>
			<path fill="#FFFFFF" d="M47.847,100.521c-3.708,0-7.393-1.394-10.19-4.19c-5.664-5.664-5.58-14.963,0.186-20.727l20.916-20.916
				c0.589-0.589,1.541-0.589,2.13,0c0.588,0.588,0.588,1.541,0,2.129L39.971,77.734c-4.591,4.59-4.674,11.978-0.186,16.468
				c4.49,4.487,11.876,4.402,16.468-0.188L77.167,73.1c0.588-0.588,1.541-0.588,2.129,0s0.588,1.541,0,2.129L58.382,96.143
				C55.467,99.06,51.644,100.521,47.847,100.521z"/>
		</g>
		<g>
			<path fill="#FFFFFF" d="M55.162,82.612c-0.386,0-0.771-0.146-1.064-0.44c-0.588-0.589-0.588-1.541,0-2.13l28.915-28.915
				c2.32-2.323,2.369-6.058,0.106-8.322c-2.268-2.267-6.001-2.22-8.322,0.103l-21.77,21.771c-0.588,0.588-1.541,0.588-2.129,0
				c-0.589-0.589-0.589-1.541,0-2.129l21.77-21.771c3.499-3.499,9.143-3.54,12.58-0.103c3.436,3.438,3.389,9.081-0.105,12.58
				L56.227,82.172C55.933,82.466,55.547,82.612,55.162,82.612z"/>
		</g>
	</g>
</g>
</svg>
