<?xml version="1.0" encoding="utf-8"?>
<!-- Generator: Adobe Illustrator 16.0.0, SVG Export Plug-In . SVG Version: 6.00 Build 0)  -->
<!DOCTYPE svg PUBLIC "-//W3C//DTD SVG 1.1//EN" "http://www.w3.org/Graphics/SVG/1.1/DTD/svg11.dtd">
<svg version="1.1" id="Layer_1" xmlns="http://www.w3.org/2000/svg" xmlns:xlink="http://www.w3.org/1999/xlink" x="0px" y="0px"
	 width="128px" height="128px" viewBox="0 0 128 128" enable-background="new 0 0 128 128" xml:space="preserve">
<g>
	<circle fill="#3CB19C" cx="64" cy="64" r="64"/>
	<path fill="#2C8C7D" d="M106.311,33.633l-2.578,2.579L26.446,81.294l-4.116,4.454l42.129,42.24C99.592,127.74,128,99.193,128,64
		c0-3.161-0.238-6.266-0.682-9.304L106.311,33.633z"/>
	<rect x="21.771" y="34.1" fill="#AA3227" width="84.459" height="52.003"/>
	<g>
		<path fill="#FFFFFF" d="M26.446,31.438c0,0,20.256-13.357,37.568,0v49.855c0,0-18.947-8.798-37.568,0V31.438z"/>
		<path fill="#FFFFFF" d="M101.552,31.438c0,0-20.256-13.357-37.569,0v49.855c0,0,18.948-8.798,37.569,0V31.438z"/>
		<g>
			<path fill="#BEC2C9" d="M35.325,39.157l-1.089-3.165c0.507-0.178,12.587-4.248,21.923,0.063l-1.405,3.041
				C46.633,35.339,35.437,39.118,35.325,39.157z"/>
		</g>
		<g>
			<path fill="#BEC2C9" d="M71.94,39.157l-1.09-3.165c0.511-0.178,12.587-4.248,21.924,0.063l-1.406,3.041
				C83.271,35.349,72.051,39.119,71.94,39.157z"/>
		</g>
		<g>
			<path fill="#BEC2C9" d="M35.325,49.527l-1.092-3.165c0.51-0.177,12.596-4.255,21.926,0.063l-1.405,3.037
				C46.626,45.707,35.439,49.488,35.325,49.527z"/>
		</g>
		<g>
			<path fill="#BEC2C9" d="M35.325,59.894l-1.092-3.164c0.51-0.177,12.596-4.255,21.926,0.063l-1.405,3.037
				C46.626,56.075,35.439,59.854,35.325,59.894z"/>
		</g>
		<g>
			<path fill="#BEC2C9" d="M35.325,70.26l-1.089-3.164c0.507-0.177,12.587-4.246,21.923,0.063l-1.405,3.04
				C46.633,66.445,35.437,70.221,35.325,70.26z"/>
		</g>
	</g>
	<path fill="#FFD476" d="M95.208,102.498v-8.664c0,0,3.582-11.108,4.098-16.009c0.138-1.311,1.006-5.438-1.096-6.718
		c-2.693-1.64-4.147,0.275-4.147,0.275s-0.589-2.09-3.128-2.631c-2.386-0.509-4.195,1.92-4.195,1.92s-1.352-2.417-3.414-2.366
		L81.042,51.74c0,0-1.066-2.883-2.896-2.883s-4.42,1.517-4.42,4.103c0,2.583-0.761,18.687-0.761,18.687s-4.241-0.878-5.291,2.622
		c-1.584,5.281,7.121,20.478,7.121,20.478l0.15,7.752H95.208z"/>
</g>
</svg>
