<?xml version="1.0" encoding="utf-8"?>
<!-- Generator: Adobe Illustrator 16.0.0, SVG Export Plug-In . SVG Version: 6.00 Build 0)  -->
<!DOCTYPE svg PUBLIC "-//W3C//DTD SVG 1.1//EN" "http://www.w3.org/Graphics/SVG/1.1/DTD/svg11.dtd">
<svg version="1.1" id="Layer_1" xmlns="http://www.w3.org/2000/svg" xmlns:xlink="http://www.w3.org/1999/xlink" x="0px" y="0px"
	 width="128px" height="128px" viewBox="0 0 128 128" enable-background="new 0 0 128 128" xml:space="preserve">
<g>
	<circle fill="#334E5C" cx="64" cy="64" r="64"/>
	<path fill="#243743" d="M102.123,35.995L100,36.521l-7.954-0.995l-3.601,4.962l-11.19-13.391c0,0,1.382,4.251-1.087,1.55
		s-7.488-2.972-7.488-2.972l-10.561,9.851c0,0-12.159,6.241-13.439,6.668S27.712,90.408,27.712,90.408l-2.348,4.163l33.087,33.174
		C60.281,127.902,62.129,128,64,128c35.346,0,64-28.653,64-64c0-0.709-0.03-1.411-0.054-2.114L102.123,35.995z"/>
	<g>
		<path fill="#CCD0D1" d="M72.828,42.194h19.307c2.813,0,5.116,2.113,5.116,4.696v52.429c0,2.58-2.303,4.692-5.116,4.692H53.522
			c-2.813,0-5.116-2.112-5.116-4.692v-3.708"/>
		<path fill="#FFFFFF" d="M72.828,90.915c0,2.584-2.303,4.696-5.116,4.696H29.104c-2.814,0-5.117-2.112-5.117-4.696V38.486
			c0-2.58,2.303-4.692,5.117-4.692h38.608c2.813,0,5.116,2.112,5.116,4.692V90.915z"/>
		<g>
			<path fill="#5E5E5E" d="M87.683,56.92c-2.034,0-3.939-0.75-5.364-2.115c-1.444-1.386-2.24-3.245-2.24-5.235
				c0-2.041,0.825-3.959,2.326-5.403l8.477-8.118c1.484-1.425,3.448-2.205,5.531-2.205c2.033,0,3.936,0.751,5.36,2.116
				c1.444,1.386,2.241,3.248,2.241,5.242c0,2.044-0.829,3.958-2.33,5.396l-8.473,8.121C91.729,56.141,89.766,56.92,87.683,56.92z
				 M96.412,37.213c-1.211,0-2.35,0.447-3.201,1.267l-8.474,8.118c-0.833,0.8-1.29,1.856-1.29,2.972c0,1.063,0.428,2.06,1.201,2.803
				c1.622,1.551,4.561,1.514,6.229-0.085l8.474-8.121c0.836-0.8,1.294-1.85,1.294-2.965c0-1.069-0.429-2.066-1.205-2.811
				C98.646,37.631,97.57,37.213,96.412,37.213z"/>
		</g>
		<g>
			<rect x="72.828" y="68.839" fill="#929497" width="15.617" height="3.369"/>
		</g>
		<g>
			<rect x="72.828" y="81.383" fill="#929497" width="15.617" height="3.369"/>
		</g>
		<g>
			<rect x="63.891" y="93.927" fill="#929497" width="24.555" height="3.369"/>
		</g>
		<g>
			<path fill="#5E5E5E" d="M62.305,47.065c-2.033,0-3.938-0.751-5.366-2.116c-1.444-1.386-2.237-3.248-2.237-5.239
				c-0.004-2.04,0.825-3.958,2.326-5.399l8.47-8.118c1.487-1.425,3.452-2.204,5.534-2.204c2.034,0,3.939,0.75,5.364,2.115
				c1.444,1.386,2.241,3.248,2.241,5.245c-0.004,2.041-0.83,3.956-2.333,5.394l-8.474,8.121
				C66.35,46.285,64.389,47.065,62.305,47.065z M71.031,27.357c-1.211,0-2.346,0.447-3.201,1.267l-8.47,8.118
				c-0.833,0.8-1.294,1.853-1.29,2.968c0,1.066,0.424,2.063,1.201,2.808c1.619,1.553,4.561,1.514,6.226-0.086l8.474-8.121
				c0.836-0.8,1.293-1.853,1.296-2.965c0-1.069-0.428-2.066-1.204-2.81C73.27,27.775,72.193,27.357,71.031,27.357z"/>
		</g>
		<g>
			<rect x="33.931" y="53.551" fill="#929497" width="29.48" height="3.369"/>
		</g>
		<g>
			<rect x="33.931" y="66.095" fill="#929497" width="29.48" height="3.369"/>
		</g>
		<g>
			<rect x="33.931" y="78.638" fill="#929497" width="29.48" height="3.37"/>
		</g>
	</g>
</g>
</svg>
