<?xml version="1.0" encoding="utf-8"?>
<!-- Generator: Adobe Illustrator 16.0.0, SVG Export Plug-In . SVG Version: 6.00 Build 0)  -->
<!DOCTYPE svg PUBLIC "-//W3C//DTD SVG 1.1//EN" "http://www.w3.org/Graphics/SVG/1.1/DTD/svg11.dtd">
<svg version="1.1" id="Layer_1" xmlns="http://www.w3.org/2000/svg" xmlns:xlink="http://www.w3.org/1999/xlink" x="0px" y="0px"
	 width="128px" height="128px" viewBox="0 0 128 128" enable-background="new 0 0 128 128" xml:space="preserve">
<g>
	<circle fill="#6591A5" cx="64" cy="64" r="64"/>
	<path fill="#4A6C81" d="M95.193,28.156l-3.223,3.867L40.072,91.755l-8.855,3.951l32.195,32.279C63.609,127.986,63.802,128,64,128
		c35.346,0,64-28.653,64-64c0-1.016-0.029-2.023-0.076-3.027L95.193,28.156z"/>
	<polyline fill="#FFFFFF" points="39.361,79.565 39.361,28 95.635,28 95.635,89.742 	"/>
	<path fill="#FFFFFF" d="M85.375,79.484c-5.668,0-10.26,4.59-10.26,10.258c0,5.664,4.592,10.258,10.26,10.258
		c5.664,0,10.26-4.594,10.26-10.258"/>
	<g>
		<rect x="48.378" y="38.31" fill="#959DAA" width="38.235" height="3.664"/>
	</g>
	<g>
		<rect x="48.378" y="53.188" fill="#959DAA" width="38.235" height="3.665"/>
	</g>
	<g>
		<rect x="48.378" y="68.068" fill="#959DAA" width="38.235" height="3.664"/>
	</g>
	<path fill="#D0D2D3" d="M75.115,89.742c0-5.668,4.592-10.258,10.26-10.258H39.361c-5.667,0-10.258,4.59-10.258,10.258
		c0,5.664,4.591,10.258,10.258,10.258h46.014C79.707,100,75.115,95.406,75.115,89.742z"/>
</g>
</svg>
