<?xml version="1.0" encoding="utf-8"?>
<!-- Generator: Adobe Illustrator 16.0.0, SVG Export Plug-In . SVG Version: 6.00 Build 0)  -->
<!DOCTYPE svg PUBLIC "-//W3C//DTD SVG 1.1//EN" "http://www.w3.org/Graphics/SVG/1.1/DTD/svg11.dtd">
<svg version="1.1" id="Layer_1" xmlns="http://www.w3.org/2000/svg" xmlns:xlink="http://www.w3.org/1999/xlink" x="0px" y="0px"
	 width="128px" height="128px" viewBox="0 0 128 128" enable-background="new 0 0 128 128" xml:space="preserve">
<g>
	<circle fill="#3CB19C" cx="64" cy="64" r="64"/>
	<path fill="#218F7D" d="M101.343,35.072l-4.808,0.656c-5.544-7.022-20.01-7.022-20.01-7.022l-26.561,28.09l-5.843,5.544
		L21.537,72.342v6.03l-1.316,8.382l-2.739,7.102l32.501,32.586C54.495,127.451,59.183,128,64,128c35.346,0,64-28.654,64-64
		c0-0.758-0.031-1.506-0.058-2.258L101.343,35.072z"/>
	<g>
		<path fill="#FFFFFF" d="M78.932,26.878c-17.822,0-32.27,14.447-32.27,32.271c0,17.822,14.447,32.27,32.27,32.27
			c17.823,0,32.271-14.447,32.271-32.27C111.202,41.325,96.755,26.878,78.932,26.878z M80.071,29.678l11.267,2.569l-5.141,12.255
			l-7.115-1.778L80.071,29.678z M76.315,89.568l-11.267-2.57l5.141-12.255l7.115,1.778L76.315,89.568z M78.932,73.195
			c-7.758,0-14.047-6.289-14.047-14.047s6.289-14.047,14.047-14.047c7.759,0,14.047,6.289,14.047,14.047S86.69,73.195,78.932,73.195
			z"/>
		<g>
			<path fill="#8DA8A1" d="M78.932,69.967c-5.966,0-10.818-4.854-10.818-10.818c0-5.966,4.853-10.819,10.818-10.819
				c5.965,0,10.818,4.854,10.818,10.819C89.75,65.113,84.896,69.967,78.932,69.967z M78.932,51.876
				c-4.009,0-7.271,3.263-7.271,7.272s3.263,7.271,7.271,7.271c4.01,0,7.273-3.262,7.273-7.271S82.941,51.876,78.932,51.876z"/>
		</g>
		<path fill="#27323B" d="M28.146,74.166V92.22c0,0,18.354,5.927,36.526,0v-19.4L28.146,74.166z"/>
		<g>
			<path fill="#27323B" d="M25.716,93.855h-2.63c0-3.103-1.166-4.809-1.551-4.809s-1.547,1.706-1.547,4.809h-2.63
				c0-4.309,1.757-7.438,4.177-7.438C23.956,86.418,25.716,89.547,25.716,93.855z"/>
		</g>
		<polygon fill="#495065" points="46.662,59.148 16.798,70.535 46.662,81.92 76.525,70.535 		"/>
		<g>
			<polygon fill="#27323B" points="22.85,88.531 20.221,88.531 20.221,71.685 43.737,68.213 44.122,70.814 22.85,73.954 			"/>
		</g>
	</g>
</g>
</svg>
