<?xml version="1.0" encoding="utf-8"?>
<!-- Generator: Adobe Illustrator 16.0.0, SVG Export Plug-In . SVG Version: 6.00 Build 0)  -->
<!DOCTYPE svg PUBLIC "-//W3C//DTD SVG 1.1//EN" "http://www.w3.org/Graphics/SVG/1.1/DTD/svg11.dtd">
<svg version="1.1" id="Layer_1" xmlns="http://www.w3.org/2000/svg" xmlns:xlink="http://www.w3.org/1999/xlink" x="0px" y="0px"
	 width="128px" height="128px" viewBox="0 0 128 128" enable-background="new 0 0 128 128" xml:space="preserve">
<g>
	<circle fill="#2580BB" cx="64" cy="64" r="64"/>
	<path fill="#186B9B" d="M89.134,30.188l-12.178,6.719L37.235,77.663L29.58,89.785l38.009,38.109
		c32.032-1.771,57.765-27.098,60.202-58.949L89.134,30.188z"/>
	<g>
		<path fill="#FFD476" d="M101.377,64.718c1.955-17.066-6.751-34.304-23.014-42.421C57.576,11.919,32.316,20.36,21.938,41.141
			c-10.374,20.78-1.938,46.038,18.847,56.412c7.922,3.957,16.494,5.171,24.645,4.02l-4.156-40.8L101.377,64.718z"/>
		<path fill="#EE753D" d="M70.393,69.347l4.158,40.795c13.236-1.87,25.357-9.995,31.777-22.858c2.256-4.52,3.623-9.249,4.17-13.991
			L70.393,69.347z"/>
	</g>
</g>
</svg>
