<?xml version="1.0" encoding="utf-8"?>
<!-- Generator: Adobe Illustrator 16.0.0, SVG Export Plug-In . SVG Version: 6.00 Build 0)  -->
<!DOCTYPE svg PUBLIC "-//W3C//DTD SVG 1.1//EN" "http://www.w3.org/Graphics/SVG/1.1/DTD/svg11.dtd">
<svg version="1.1" id="Layer_1" xmlns="http://www.w3.org/2000/svg" xmlns:xlink="http://www.w3.org/1999/xlink" x="0px" y="0px"
	 width="128px" height="128px" viewBox="0 0 128 128" enable-background="new 0 0 128 128" xml:space="preserve">
<g>
	<circle fill="#BBBDBF" cx="64" cy="64" r="64"/>
	<path fill="#9FA4A4" d="M97.826,27.668L81.29,43.938l-12.613,5.866L47.674,27.513l2.229,22.291l1.467,35.2l-6.917,6.918
		l34.268,34.357C106.967,119.627,128,94.278,128,64c0-2.16-0.11-4.295-0.319-6.399L97.826,27.668z"/>
	<g>
		<polygon fill="#1E75BB" points="78.108,64.265 60.885,64.265 80.326,27.513 97.55,27.513 		"/>
		<polygon fill="#CF3E2C" points="49.892,64.265 67.115,64.265 47.674,27.513 30.45,27.513 		"/>
		<circle fill="#FFCA0A" cx="63.999" cy="73.291" r="27.195"/>
		<g>
			<path fill="#BE202F" d="M64,94.079c-11.462,0-20.786-9.326-20.786-20.788S52.538,52.505,64,52.505s20.786,9.324,20.786,20.786
				S75.462,94.079,64,94.079z M64,54.19c-10.532,0-19.102,8.568-19.102,19.101S53.468,92.394,64,92.394s19.101-8.57,19.101-19.103
				S74.532,54.19,64,54.19z"/>
		</g>
		<polygon fill="#B42025" points="64,64.265 66.933,70.207 73.492,71.16 68.746,75.786 69.867,82.319 64,79.235 58.133,82.319 
			59.254,75.786 54.508,71.16 61.067,70.207 		"/>
	</g>
</g>
</svg>
