<?xml version="1.0" encoding="utf-8"?>
<!-- Generator: Adobe Illustrator 16.0.0, SVG Export Plug-In . SVG Version: 6.00 Build 0)  -->
<!DOCTYPE svg PUBLIC "-//W3C//DTD SVG 1.1//EN" "http://www.w3.org/Graphics/SVG/1.1/DTD/svg11.dtd">
<svg version="1.1" id="Layer_1" xmlns="http://www.w3.org/2000/svg" xmlns:xlink="http://www.w3.org/1999/xlink" x="0px" y="0px"
	 width="128px" height="128px" viewBox="0 0 128 128" enable-background="new 0 0 128 128" xml:space="preserve">
<g>
	<circle fill="#E4776E" cx="64" cy="64" r="64"/>
	<path fill="#E1574C" d="M78.041,27.643l-8.748,9.493L64,50L37.4,98.508l-2.305,2.304l27.072,27.143
		C62.777,127.971,63.384,128,64,128c31.069,0,56.958-22.14,62.772-51.5L78.041,27.643z"/>
	<g>
		<polygon fill="#C1C5C5" points="93.037,101.358 34.962,101.358 26.929,66.354 101.072,66.354 		"/>
		<path fill="#E1E5E5" d="M86.531,51.583C71.525,47.632,74.99,43.8,74.713,42.737H64H53.287c-0.277,1.063,3.188,4.895-11.818,8.846
			c-15.005,3.951-14.136,14.771-14.136,14.771H64h36.668C100.668,66.354,101.537,55.534,86.531,51.583z"/>
		<path fill="#1D2B34" d="M79.107,30.769c0-2.27-1.664-4.127-3.695-4.127H52.583c-2.029,0-3.689,1.857-3.689,4.127v11.969h30.213
			V30.769z"/>
		<polygon fill="#2B414D" points="38.802,96.538 32.98,71.174 95.02,71.174 89.197,96.538 		"/>
	</g>
	<g>
		<g>
			<path fill="#F2B359" d="M53.032,88.659c-0.037,0-0.075-0.005-0.114-0.013c-0.285-0.063-0.465-0.345-0.401-0.629
				c0.401-1.814,0.3-3.951,0.202-6.019c-0.043-0.914-0.084-1.778-0.084-2.616c0-0.292,0.236-0.528,0.527-0.528
				s0.528,0.236,0.528,0.528c0,0.813,0.04,1.665,0.083,2.566c0.102,2.136,0.205,4.345-0.227,6.296
				C53.492,88.491,53.274,88.659,53.032,88.659z"/>
		</g>
		<g>
			<path fill="#F2B359" d="M55.642,88.528c-0.09,0-0.181-0.022-0.264-0.071c-0.252-0.146-0.338-0.47-0.191-0.721
				c0.477-0.822,0.368-2.346,0.263-3.819c-0.134-1.886-0.273-3.836,0.692-5.016c0.176-0.215,0.49-0.257,0.716-0.094
				c1.542,1.107,2.778,2.707,3.976,4.255c1.061,1.372,2.152,2.782,3.433,3.8c0.003-0.336,0.001-0.673-0.002-1.003
				c-0.008-0.962-0.017-1.956,0.132-2.938c0.129-0.869,0.329-1.746,0.522-2.595c0.138-0.606,0.277-1.215,0.392-1.824
				c0.053-0.287,0.33-0.477,0.615-0.422c0.287,0.055,0.475,0.33,0.422,0.616c-0.117,0.624-0.26,1.245-0.4,1.864
				c-0.189,0.829-0.383,1.687-0.508,2.517c-0.135,0.9-0.127,1.81-0.119,2.773c0.006,0.667,0.01,1.358-0.037,2.042
				c-0.012,0.185-0.121,0.35-0.286,0.434c-0.165,0.084-0.361,0.076-0.52-0.021c-1.785-1.113-3.155-2.885-4.48-4.597
				c-1.024-1.326-2.081-2.692-3.302-3.694c-0.399,0.934-0.296,2.401-0.193,3.829c0.122,1.707,0.237,3.321-0.403,4.423
				C56.001,88.435,55.824,88.528,55.642,88.528z"/>
		</g>
		<g>
			<path fill="#F2B359" d="M67.787,88.92c-0.291,0-0.527-0.236-0.527-0.527c0-0.287-0.004-0.575-0.006-0.863
				c-0.01-1.148-0.021-2.334,0.139-3.48c0.105-0.768,0.303-1.531,0.494-2.271c0.295-1.139,0.572-2.214,0.547-3.298
				c-0.006-0.292,0.225-0.533,0.516-0.54c0.297,0.011,0.533,0.225,0.541,0.516c0.027,1.231-0.281,2.429-0.582,3.586
				c-0.191,0.743-0.373,1.445-0.471,2.153c-0.148,1.068-0.139,2.215-0.129,3.323c0.004,0.292,0.006,0.583,0.006,0.874
				S68.078,88.92,67.787,88.92z"/>
		</g>
		<g>
			<path fill="#F2B359" d="M74.969,88.397c-0.172,0-0.342-0.085-0.443-0.239c-1.297-1.995-3.373-2.997-5.572-4.058
				c-0.291-0.141-0.582-0.28-0.871-0.423c-0.16-0.079-0.27-0.234-0.291-0.412c-0.02-0.178,0.051-0.354,0.189-0.469
				c0.645-0.532,1.352-1.008,2.033-1.469c0.258-0.174,0.514-0.347,0.766-0.522c0.309-0.213,1.061-0.87,1.725-1.45
				c1.707-1.492,1.795-1.542,2.066-1.545c0.275-0.002,0.531,0.229,0.535,0.521c0.002,0.229-0.143,0.426-0.346,0.501
				c-0.215,0.142-0.99,0.817-1.563,1.317c-0.75,0.655-1.459,1.275-1.814,1.521c-0.258,0.179-0.518,0.355-0.779,0.531
				c-0.43,0.291-0.871,0.588-1.293,0.898c0.033,0.016,0.066,0.032,0.1,0.048c2.234,1.077,4.543,2.191,6.002,4.433
				c0.158,0.244,0.088,0.571-0.156,0.73C75.168,88.37,75.068,88.397,74.969,88.397z"/>
		</g>
	</g>
</g>
</svg>
