<?xml version="1.0" encoding="utf-8"?>
<!-- Generator: Adobe Illustrator 16.0.0, SVG Export Plug-In . SVG Version: 6.00 Build 0)  -->
<!DOCTYPE svg PUBLIC "-//W3C//DTD SVG 1.1//EN" "http://www.w3.org/Graphics/SVG/1.1/DTD/svg11.dtd">
<svg version="1.1" id="Layer_1" xmlns="http://www.w3.org/2000/svg" xmlns:xlink="http://www.w3.org/1999/xlink" x="0px" y="0px"
	 width="128px" height="128px" viewBox="0 0 128 128" enable-background="new 0 0 128 128" xml:space="preserve">
<g>
	<circle fill="#3CB19C" cx="64" cy="64" r="64"/>
	<path fill="#319181" d="M89.387,32.536L39.025,92.49l-2.366,2.104l33.052,33.139c30.396-2.689,54.686-26.617,57.916-56.855
		L89.387,32.536z"/>
	<path fill="#EDC55D" d="M87.956,83.059c0.501-0.607,1.003-1.221,1.438-1.88c0.439-0.657,0.843-1.345,1.247-2.026
		c4.8-6.059,7.691-13.844,7.691-22.338c0-19.295-14.904-34.935-33.285-34.935c-10.417,0-19.698,5.032-25.803,12.899
		c-0.208,0.211-0.405,0.426-0.574,0.666c-0.138,0.194-0.267,0.415-0.396,0.641c-2.136,3.03-4.25,10.397-3.884,10.563
		c-0.099,0.684-0.167,1.369-0.167,2.039c0.005,1.404-0.075,2.821,0,4.224c0.073,1.412,0.61,2.379,0.879,3.762
		c0.513,2.608-0.04,5.188-0.874,7.523c-0.789,2.204-1.55,4.46-2.445,6.653c-0.729,1.777-3.464,4.162-1.299,5.546
		c1.055,0.671,3.108,0.659,3.739,1.592c0.688,1.012-0.208,2.297,0.132,3.249c0.311,0.867,0.929,0.326,1.365,0.796
		c0.734,0.779,0.068,0.81-0.197,1.34c-0.865,1.76-0.486,1.544,0.564,3.052c1.513,2.18-0.809,4.819,0.232,7.006
		c1.234,2.587,5.1,2.47,7.519,2.729c3.402,0.353,6.979,0.137,10.427,0.135l4.567,9.827h37.82
		C96.653,106.12,86.82,95.031,87.956,83.059z"/>
	<circle fill="#FFFFFF" cx="65.313" cy="55.707" r="21.313"/>
	<g>
		<path fill="#E1574C" d="M56.674,55.707c0,1.959-1.589,3.549-3.547,3.549c-1.959,0-3.549-1.59-3.549-3.549
			c0-1.957,1.59-3.546,3.549-3.546C55.085,52.161,56.674,53.75,56.674,55.707z"/>
		<path fill="#E1574C" d="M68.857,55.707c0,1.959-1.586,3.549-3.545,3.549c-1.96,0-3.547-1.59-3.547-3.549
			c0-1.957,1.587-3.546,3.547-3.546C67.271,52.161,68.857,53.75,68.857,55.707z"/>
		<path fill="#E1574C" d="M81.044,55.707c0,1.959-1.588,3.549-3.547,3.549c-1.958,0-3.548-1.59-3.548-3.549
			c0-1.957,1.59-3.546,3.548-3.546C79.456,52.161,81.044,53.75,81.044,55.707z"/>
	</g>
</g>
</svg>
