<?xml version="1.0" encoding="utf-8"?>
<!-- Generator: Adobe Illustrator 16.0.0, SVG Export Plug-In . SVG Version: 6.00 Build 0)  -->
<!DOCTYPE svg PUBLIC "-//W3C//DTD SVG 1.1//EN" "http://www.w3.org/Graphics/SVG/1.1/DTD/svg11.dtd">
<svg version="1.1" id="Layer_1" xmlns="http://www.w3.org/2000/svg" xmlns:xlink="http://www.w3.org/1999/xlink" x="0px" y="0px"
	 width="128px" height="128px" viewBox="0 0 128 128" enable-background="new 0 0 128 128" xml:space="preserve">
<g>
	<circle fill="#E77970" cx="64" cy="64" r="64"/>
	<path fill="#C05857" d="M101.526,39.051l-3.381,3.553l-6.617-9.838l-13.421-2.281l-19.772-4.585l-16.364,4.585L31.744,42.263
		L27.41,81.611l10.47,12.812l-3.409,3.068l-9.159,1.641l27.865,27.938C56.696,127.67,60.31,128,64,128
		c34.825,0,63.133-27.819,63.961-62.445L101.526,39.051z"/>
	<g>
		<path fill="#DFE4E3" d="M26.085,99.469h75.43V38.872L26.085,99.469z M87.96,86.438H63.125L87.96,67.585V86.438z"/>
		<path fill="#DFE4E3" d="M34.838,26.425c-17.411,13.878-20.253,39.218-6.353,56.596l63.043-50.255
			C77.627,15.385,52.243,12.547,34.838,26.425z M39.894,59.98c-5.102-6.379-3.283-16.296,4.064-22.152
			c7.346-5.855,17.439-5.434,22.542,0.945L39.894,59.98z"/>
	</g>
</g>
</svg>
