<?xml version="1.0" encoding="utf-8"?>
<!-- Generator: Adobe Illustrator 16.0.0, SVG Export Plug-In . SVG Version: 6.00 Build 0)  -->
<!DOCTYPE svg PUBLIC "-//W3C//DTD SVG 1.1//EN" "http://www.w3.org/Graphics/SVG/1.1/DTD/svg11.dtd">
<svg version="1.1" id="Layer_1" xmlns="http://www.w3.org/2000/svg" xmlns:xlink="http://www.w3.org/1999/xlink" x="0px" y="0px"
	 width="128px" height="128px" viewBox="0 0 128 128" enable-background="new 0 0 128 128" xml:space="preserve">
<g>
	<circle fill="#EDC55D" cx="64" cy="64" r="64"/>
	<path fill="#D3A43A" d="M105.324,31.076l-6.275,2.51l-32.443,2.801L16.158,50.989l21.037,21.81l1.867,21.94l-6.347,1.641
		l-1.823,1.354l30.495,30.2C62.253,127.969,63.123,128,64,128c35.346,0,64-28.653,64-64c0-3.931-0.373-7.772-1.051-11.509
		L105.324,31.076z"/>
	<g>
		<polygon fill="#0D0C0C" points="58.541,31.909 16.158,50.989 62.638,50.759 105.021,31.679 		"/>
		<path fill="#282627" d="M61.552,39.14c-13.35,2.902-23.684,7.51-23.078,10.291l3.211,14.779l48.348-10.506l-3.211-14.779
			C86.219,36.142,74.904,36.239,61.552,39.14z"/>
		
			<ellipse transform="matrix(0.9772 -0.2123 0.2123 0.9772 -11.0171 15.3291)" fill="#514F4F" cx="65.859" cy="58.957" rx="24.738" ry="5.156"/>
	</g>
	<path fill="#E6D6C0" d="M34.193,90.728c0-2.229-0.574-4.223-1.478-5.574v-0.078h38.664c2.854,0,5.176,2.322,5.176,5.176v0.953
		c0,2.854-2.322,5.176-5.176,5.176H32.715v-0.078C33.619,94.95,34.193,92.954,34.193,90.728z"/>
	<path fill="#E6D6C0" d="M92.365,77.31c0-2.229,0.482-4.223,1.246-5.574v-0.078h-32.59c-2.404,0-4.361,2.322-4.361,5.176v0.953
		c0,2.854,1.957,5.174,4.361,5.174h32.59v-0.078C92.848,81.53,92.365,79.536,92.365,77.31z"/>
	<path fill="#E6D6C0" d="M38.662,63.646c0-2.227-0.512-4.223-1.32-5.574v-0.078h34.526c2.547,0,4.621,2.322,4.621,5.176v0.953
		c0,2.854-2.074,5.176-4.621,5.176H37.341V69.22C38.15,67.868,38.662,65.872,38.662,63.646z"/>
	<g>
		<path fill="#CB4428" d="M77.209,90.728c0-3.568-2.791-6.486-6.309-6.688h33.852c0.129-0.008,0.26-0.012,0.391-0.012
			c0.154,0,0.309,0.008,0.461,0.018c1.859,0.064,3.518,0.955,4.617,2.314c1.01,1.174,1.621,2.697,1.621,4.367
			c0,1.668-0.611,3.191-1.619,4.363c-1.1,1.363-2.762,2.256-4.623,2.318c-0.152,0.01-0.305,0.018-0.457,0.018
			c-0.131,0-0.26-0.006-0.387-0.012H70.896C74.416,97.214,77.209,94.298,77.209,90.728z"/>
		<path fill="#CB4428" d="M70.1,84.042V84.04h0.021C70.113,84.04,70.105,84.042,70.1,84.042z"/>
		<path fill="#CB4428" d="M70.123,97.415H70.1v-0.002C70.107,97.413,70.115,97.413,70.123,97.415z"/>
	</g>
	<path fill="#9D2221" d="M71.379,96.38c2.854,0,5.176-2.322,5.176-5.176v-0.953c0-2.854-2.322-5.176-5.176-5.176H31.473V84.04
		h39.906c3.416,0,6.211,2.795,6.211,6.211v0.953c0,3.416-2.795,6.211-6.211,6.211H31.473V96.38H71.379z"/>
	<path fill="#D2BFA6" d="M73.695,93.626c0-3.281-2.824-6.34-6.205-6.205c-6.799,0.271-13.631-0.232-20.436-0.232H33.666
		c-0.246-0.771-0.568-1.461-0.951-2.035v-0.078h38.664c2.854,0,5.176,2.322,5.176,5.176v0.953c0,2.213-1.396,4.105-3.354,4.844
		C73.518,95.313,73.695,94.497,73.695,93.626z"/>
	<g>
		<path fill="#2D256D" d="M56.107,77.31c0-3.57,2.354-6.486,5.318-6.688H32.893c-0.109-0.008-0.219-0.012-0.328-0.012
			c-0.131,0-0.262,0.006-0.389,0.018c-1.568,0.063-2.965,0.953-3.893,2.314c-0.85,1.172-1.365,2.697-1.365,4.367
			c0,1.666,0.514,3.191,1.365,4.363c0.926,1.363,2.326,2.256,3.895,2.318c0.129,0.01,0.256,0.016,0.387,0.016
			c0.109,0,0.219-0.004,0.326-0.012h28.537C58.46,83.796,56.107,80.878,56.107,77.31z"/>
		<path fill="#2D256D" d="M62.101,70.624v-0.002h-0.02C62.089,70.622,62.095,70.622,62.101,70.624z"/>
		<path fill="#2D256D" d="M62.08,83.995h0.021l0,0C62.093,83.995,62.087,83.995,62.08,83.995z"/>
	</g>
	<path fill="#191247" d="M61.021,82.96c-2.404,0-4.361-2.32-4.361-5.174v-0.953c0-2.854,1.957-5.176,4.361-5.176h33.637v-1.035
		H61.021c-2.879,0-5.234,2.795-5.234,6.211v0.953c0,3.414,2.355,6.209,5.234,6.209h33.637V82.96H61.021z"/>
	<path fill="#D2BFA6" d="M59.07,80.208c0-3.281,2.379-6.34,5.229-6.205c5.733,0.27,11.491-0.232,17.225-0.232h11.285
		c0.207-0.773,0.48-1.463,0.803-2.035v-0.078h-32.59c-2.404,0-4.361,2.322-4.361,5.176v0.953c0,2.213,1.178,4.104,2.826,4.844
		C59.218,81.894,59.07,81.079,59.07,80.208z"/>
	<g>
		<g>
			<path fill="#A78E71" d="M77.072,63.646c0-3.568-2.492-6.486-5.633-6.688h30.227c0.115-0.006,0.232-0.012,0.348-0.012
				c0.139,0,0.277,0.008,0.414,0.018c1.66,0.064,3.141,0.955,4.121,2.314c0.9,1.174,1.447,2.699,1.447,4.367
				s-0.545,3.191-1.445,4.363c-0.982,1.363-2.465,2.256-4.129,2.318c-0.135,0.01-0.27,0.018-0.408,0.018
				c-0.115,0-0.23-0.006-0.344-0.012H71.436C74.578,70.132,77.072,67.216,77.072,63.646z"/>
			<path fill="#A78E71" d="M70.725,56.96v-0.002h0.02C70.736,56.958,70.73,56.96,70.725,56.96z"/>
			<path fill="#A78E71" d="M70.746,70.333h-0.021v-0.002C70.73,70.331,70.738,70.331,70.746,70.333z"/>
		</g>
	</g>
	<path fill="#846445" d="M71.867,69.298c2.547,0,4.621-2.322,4.621-5.176v-0.953c0-2.854-2.074-5.176-4.621-5.176H36.234v-1.035
		h35.633c3.051,0,5.545,2.795,5.545,6.211v0.953c0,3.416-2.494,6.211-5.545,6.211H36.234v-1.035H71.867z"/>
	<path fill="#D2BFA6" d="M73.936,66.544c0-3.281-2.521-6.34-5.541-6.205c-6.071,0.271-12.172-0.232-18.247-0.232H38.193
		c-0.219-0.773-0.508-1.461-0.852-2.035v-0.078h34.526c2.547,0,4.621,2.322,4.621,5.176v0.953c0,2.213-1.248,4.105-2.994,4.844
		C73.777,68.231,73.936,67.415,73.936,66.544z"/>
	<g>
		<g>
			<path fill="#0E0E0D" d="M94.5,55.476c-0.002,0-0.004,0-0.006,0c-0.275-0.004-0.498-0.229-0.494-0.506
				c0.018-1.844,0.529-3.516,1.025-5.131c0.285-0.928,0.578-1.887,0.771-2.857c0.48-2.443,0.486-6.207-0.447-8.373
				c-1.037-2.398-3.908-6.129-6.605-6.893c-0.963-0.275-1.797-0.152-2.551,0.377c-0.225,0.156-0.535,0.104-0.695-0.125
				c-0.158-0.227-0.104-0.537,0.123-0.695c1.002-0.699,2.145-0.875,3.396-0.52c3.131,0.889,6.176,4.977,7.25,7.459
				c1.025,2.375,1.033,6.307,0.51,8.963c-0.201,1.021-0.504,2.006-0.795,2.957c-0.498,1.619-0.967,3.148-0.982,4.848
				C94.996,55.255,94.773,55.476,94.5,55.476z"/>
		</g>
		<g>
			<path fill="#0E0E0D" d="M93.199,63.565c-0.002,0-0.004,0-0.004,0c-0.277-0.002-0.498-0.229-0.496-0.504
				c0.002-0.252-0.061-0.5-0.125-0.764c-0.047-0.191-0.094-0.385-0.123-0.586c-0.072-0.48-0.074-0.953-0.076-1.412
				c0-0.252,0-0.506-0.014-0.762l-0.012-0.215c-0.037-0.686-0.076-1.395,0.273-2.104c0.111-0.229,0.221-0.461,0.328-0.691
				c0.137-0.297,0.275-0.592,0.418-0.875c0.039-0.076,0.068-0.174,0.102-0.275c0.117-0.355,0.275-0.842,0.727-1.002
				c0.523-0.186,0.842,0.127,0.979,0.26c0.025,0.023,0.049,0.051,0.078,0.07c0.205,0.137,0.418,0.256,0.633,0.373
				c0.248,0.139,0.496,0.275,0.734,0.438c0.928,0.637,1.938,1.451,2.414,2.66c0.125,0.318,0.238,0.643,0.352,0.969
				c0.123,0.354,0.246,0.709,0.389,1.061c0.066,0.16,0.154,0.328,0.244,0.498c0.205,0.395,0.438,0.842,0.492,1.322
				c0.031,0.273-0.166,0.521-0.439,0.553c-0.275,0.02-0.523-0.166-0.555-0.439c-0.033-0.297-0.213-0.641-0.385-0.973
				c-0.105-0.199-0.207-0.396-0.283-0.586c-0.148-0.367-0.279-0.738-0.406-1.107c-0.109-0.313-0.219-0.625-0.34-0.932
				c-0.377-0.957-1.246-1.648-2.047-2.199c-0.211-0.143-0.434-0.266-0.654-0.389c-0.24-0.133-0.479-0.266-0.705-0.418
				c-0.064-0.043-0.123-0.094-0.18-0.146c-0.025,0.082-0.068,0.215-0.096,0.299c-0.051,0.158-0.104,0.307-0.162,0.42
				c-0.137,0.271-0.27,0.555-0.402,0.842c-0.111,0.238-0.223,0.477-0.338,0.711c-0.232,0.475-0.205,0.975-0.17,1.607l0.01,0.219
				c0.016,0.271,0.016,0.541,0.016,0.811c0.002,0.441,0.004,0.857,0.064,1.268c0.025,0.17,0.066,0.332,0.105,0.492
				c0.076,0.313,0.156,0.635,0.154,1.012C93.697,63.343,93.473,63.565,93.199,63.565z"/>
		</g>
		<g>
			<path fill="#0E0E0D" d="M95.906,63.144c-0.148,0-0.295-0.066-0.393-0.191c-0.92-1.166-1.252-2.828-1.545-4.297
				c-0.076-0.379-0.148-0.746-0.229-1.086c-0.191-0.799-0.139-1.734-0.1-2.418l0.025-0.432l0.432-0.037
				c0.789-0.043,1.133,1.025,1.557,2.701c0.063,0.254,0.113,0.457,0.148,0.553c0.467,1.238,1.125,2.68,1.807,3.957
				c0.129,0.244,0.037,0.547-0.207,0.678c-0.242,0.129-0.547,0.037-0.676-0.207c-0.664-1.244-1.283-2.586-1.758-3.813
				c0.266,1.334,0.576,2.826,1.33,3.781c0.17,0.217,0.133,0.531-0.084,0.703C96.123,63.108,96.014,63.144,95.906,63.144z"/>
		</g>
	</g>
</g>
</svg>
