<?xml version="1.0" encoding="utf-8"?>
<!-- Generator: Adobe Illustrator 16.0.0, SVG Export Plug-In . SVG Version: 6.00 Build 0)  -->
<!DOCTYPE svg PUBLIC "-//W3C//DTD SVG 1.1//EN" "http://www.w3.org/Graphics/SVG/1.1/DTD/svg11.dtd">
<svg version="1.1" id="Layer_1" xmlns="http://www.w3.org/2000/svg" xmlns:xlink="http://www.w3.org/1999/xlink" x="0px" y="0px"
	 width="128px" height="128px" viewBox="0 0 128 128" enable-background="new 0 0 128 128" xml:space="preserve">
<g>
	<circle fill="#6591A5" cx="64" cy="64" r="64"/>
	<path fill="#417181" d="M102.33,34.351l-2.422,3.302L28.715,95.155l-2.55,2.699l29.932,29.643C58.688,127.816,61.322,128,64,128
		c35.346,0,64-28.653,64-64c0-1.478-0.068-2.939-0.167-4.393L102.33,34.351z"/>
	<rect x="25.868" y="34.671" fill="#3A3A38" width="76.265" height="62.775"/>
	<rect x="30.401" y="39.044" fill="#EDECEA" width="67.207" height="52.857"/>
	<rect x="30.401" y="39.044" fill="#3775BA" width="67.207" height="16.264"/>
	<rect x="52.405" y="43.708" fill="#D6D7D9" width="23.199" height="1.315"/>
	<rect x="52.405" y="47.176" fill="#D6D7D9" width="23.199" height="1.315"/>
	<rect x="52.405" y="50.644" fill="#D6D7D9" width="23.199" height="1.316"/>
	<g>
		<g>
			<path fill="#8A341F" d="M42.599,40.934c0,1.526-1.13,2.774-2.511,2.774c-1.382,0-2.512-1.248-2.512-2.774v-7.604
				c0-1.527,1.13-2.775,2.512-2.775c1.381,0,2.511,1.248,2.511,2.775V40.934z"/>
			<path fill="#8A341F" d="M90.434,40.934c0,1.526-1.131,2.774-2.512,2.774s-2.512-1.248-2.512-2.774v-7.604
				c0-1.527,1.131-2.775,2.512-2.775s2.512,1.248,2.512,2.775V40.934z"/>
		</g>
	</g>
	<rect x="37.188" y="58.655" fill="#39B24A" width="4.902" height="3.662"/>
	<rect x="46.934" y="58.655" fill="#EC3324" width="4.902" height="3.662"/>
	<rect x="56.681" y="58.655" fill="#39B24A" width="4.902" height="3.662"/>
	<rect x="66.427" y="58.655" fill="#39B24A" width="4.902" height="3.662"/>
	<rect x="76.174" y="58.655" fill="#39B24A" width="4.902" height="3.662"/>
	<rect x="85.92" y="58.655" fill="#39B24A" width="4.902" height="3.662"/>
	<rect x="37.188" y="66.751" fill="#39B24A" width="4.902" height="3.662"/>
	<rect x="46.934" y="66.751" fill="#EC3324" width="4.902" height="3.662"/>
	<rect x="56.681" y="66.751" fill="#39B24A" width="4.902" height="3.662"/>
	<rect x="66.427" y="66.751" fill="#39B24A" width="4.902" height="3.662"/>
	<rect x="76.174" y="66.751" fill="#39B24A" width="4.902" height="3.662"/>
	<rect x="85.92" y="66.751" fill="#39B24A" width="4.902" height="3.662"/>
	<rect x="37.188" y="74.847" fill="#39B24A" width="4.902" height="3.662"/>
	<rect x="46.934" y="74.847" fill="#EC3324" width="4.902" height="3.662"/>
	<rect x="56.681" y="74.847" fill="#39B24A" width="4.902" height="3.662"/>
	<rect x="66.427" y="74.847" fill="#39B24A" width="4.902" height="3.662"/>
	<rect x="76.174" y="74.847" fill="#39B24A" width="4.902" height="3.662"/>
	<rect x="85.92" y="74.847" fill="#39B24A" width="4.902" height="3.662"/>
	<rect x="37.188" y="82.941" fill="#39B24A" width="4.902" height="3.663"/>
	<rect x="46.934" y="82.941" fill="#EC3324" width="4.902" height="3.663"/>
	<rect x="56.681" y="82.941" fill="#39B24A" width="4.902" height="3.663"/>
	<rect x="66.427" y="82.941" fill="#39B24A" width="4.902" height="3.663"/>
	<rect x="76.174" y="82.941" fill="#39B24A" width="4.902" height="3.663"/>
	<rect x="85.92" y="82.941" fill="#39B24A" width="4.902" height="3.663"/>
</g>
</svg>
