<?xml version="1.0" encoding="utf-8"?>
<!-- Generator: Adobe Illustrator 16.0.0, SVG Export Plug-In . SVG Version: 6.00 Build 0)  -->
<!DOCTYPE svg PUBLIC "-//W3C//DTD SVG 1.1//EN" "http://www.w3.org/Graphics/SVG/1.1/DTD/svg11.dtd">
<svg version="1.1" id="Layer_1" xmlns="http://www.w3.org/2000/svg" xmlns:xlink="http://www.w3.org/1999/xlink" x="0px" y="0px"
	 width="128px" height="128px" viewBox="0 0 128 128" enable-background="new 0 0 128 128" xml:space="preserve">
<g>
	<circle fill="#14B4E5" cx="64" cy="64" r="64"/>
	<path fill="#0496B7" d="M97.671,30.617l-2.161,3.602L31.745,96.316l-2.232,2.638l29.083,28.802C60.379,127.905,62.178,128,64,128
		c35.346,0,64-28.654,64-64c0-1.154-0.034-2.301-0.095-3.441L97.671,30.617z"/>
	
		<rect x="38.539" y="27.407" transform="matrix(0.992 0.1266 -0.1266 0.992 8.1977 -7.9145)" fill="#919EA5" width="55.673" height="66.281"/>
	<rect x="29.817" y="32.99" fill="#EDF4FA" width="55.674" height="66.279"/>
	<g>
		<rect x="37.799" y="43.822" fill="#91B6E0" width="39.711" height="1.635"/>
		<rect x="37.799" y="54.566" fill="#91B6E0" width="39.711" height="1.635"/>
		<rect x="37.799" y="65.313" fill="#91B6E0" width="39.711" height="1.633"/>
		<rect x="37.799" y="76.057" fill="#91B6E0" width="39.711" height="1.637"/>
		<rect x="37.799" y="86.803" fill="#91B6E0" width="39.711" height="1.635"/>
	</g>
	<g>
		<path fill="#39362F" d="M71.049,39.648c-1.885-1.389-2.276-4.07-0.87-5.975l6.607-8.957c1.404-1.904,4.082-2.322,5.966-0.932
			c1.885,1.391,2.276,4.072,0.871,5.975l-6.608,8.959C75.61,40.623,72.934,41.041,71.049,39.648z M82.13,24.627
			c-1.347-0.994-3.309-0.631-4.37,0.809l-6.607,8.957c-1.063,1.439-0.829,3.418,0.519,4.412c1.349,0.996,3.308,0.635,4.37-0.805
			l6.607-8.959C83.711,27.602,83.479,25.625,82.13,24.627z"/>
	</g>
	<g>
		<path fill="#F2AD1C" d="M92.608,91.313c1.368,0.92,1.734,2.793,0.816,4.158l-5.541,8.24c-0.918,1.371-2.791,1.738-4.158,0.818
			L32.104,69.828c-1.369-0.92-1.736-2.791-0.816-4.16l5.541-8.24c0.919-1.369,2.789-1.736,4.16-0.816L92.608,91.313z"/>
		<g>
			<g>
				<g>
					<polygon fill="#44485A" points="86.3,99.473 86.604,99.682 83.951,103.627 83.646,103.42 					"/>
				</g>
				<g>
					
						<rect x="83.353" y="99.616" transform="matrix(-0.8279 -0.5608 0.5608 -0.8279 95.8782 232.0329)" fill="#44485A" width="0.366" height="3.383"/>
				</g>
				<g>
					
						<rect x="82.496" y="97.528" transform="matrix(-0.8296 -0.5584 0.5584 -0.8296 95.485 228.9518)" fill="#44485A" width="0.367" height="4.754"/>
				</g>
				<g>
					
						<rect x="80.906" y="97.972" transform="matrix(-0.8312 -0.5559 0.5559 -0.8312 93.0856 227.5875)" fill="#44485A" width="0.365" height="3.384"/>
				</g>
				<g>
					
						<rect x="80.05" y="95.886" transform="matrix(-0.8288 -0.5596 0.5596 -0.8288 91.738 224.5997)" fill="#44485A" width="0.366" height="4.756"/>
				</g>
				<g>
					
						<rect x="78.462" y="96.328" transform="matrix(-0.8312 -0.5559 0.5559 -0.8312 89.5231 223.2189)" fill="#44485A" width="0.365" height="3.386"/>
				</g>
				<g>
					
						<rect x="78.269" y="92.066" transform="matrix(-0.8263 -0.5633 0.5633 -0.8263 89.4117 218.8396)" fill="#44485A" width="0.368" height="7.133"/>
				</g>
				<g>
					
						<rect x="76.247" y="93.33" transform="matrix(-0.8321 -0.5547 0.5547 -0.8321 86.9383 217.7388)" fill="#44485A" width="0.37" height="4.755"/>
				</g>
				<g>
					
						<rect x="74.66" y="93.774" transform="matrix(-0.8288 -0.5596 0.5596 -0.8288 83.447 216.465)" fill="#44485A" width="0.366" height="3.381"/>
				</g>
				<g>
					
						<rect x="73.805" y="91.688" transform="matrix(-0.8321 -0.5547 0.5547 -0.8321 83.3721 213.3739)" fill="#44485A" width="0.366" height="4.756"/>
				</g>
				<g>
					
						<rect x="72.214" y="92.129" transform="matrix(-0.8296 -0.5584 0.5584 -0.8296 80.0714 212.0778)" fill="#44485A" width="0.367" height="3.382"/>
				</g>
				<g>
					
						<rect x="71.357" y="90.043" transform="matrix(-0.8288 -0.5596 0.5596 -0.8288 79.1212 209.049)" fill="#44485A" width="0.37" height="4.755"/>
				</g>
				<g>
					
						<rect x="69.768" y="90.486" transform="matrix(-0.8304 -0.5571 0.5571 -0.8304 76.684 207.6968)" fill="#44485A" width="0.368" height="3.383"/>
				</g>
				<g>
					
						<rect x="69.579" y="86.224" transform="matrix(-0.8321 -0.5547 0.5547 -0.8321 78.0008 203.1988)" fill="#44485A" width="0.366" height="7.135"/>
				</g>
				<g>
					
						<rect x="67.559" y="87.488" transform="matrix(-0.8321 -0.5547 0.5547 -0.8321 74.2588 202.2142)" fill="#44485A" width="0.366" height="4.754"/>
				</g>
				<g>
					
						<rect x="65.969" y="87.93" transform="matrix(-0.8288 -0.5596 0.5596 -0.8288 70.8222 200.9162)" fill="#44485A" width="0.366" height="3.383"/>
				</g>
				<g>
					
						<rect x="65.113" y="85.844" transform="matrix(-0.8288 -0.5596 0.5596 -0.8288 70.0405 197.8762)" fill="#44485A" width="0.366" height="4.755"/>
				</g>
				<g>
					
						<rect x="63.522" y="86.286" transform="matrix(-0.8321 -0.5547 0.5547 -0.8321 67.9096 196.5203)" fill="#44485A" width="0.366" height="3.387"/>
				</g>
				<g>
					
						<rect x="62.667" y="84.2" transform="matrix(-0.8304 -0.5571 0.5571 -0.8304 66.8073 193.4893)" fill="#44485A" width="0.368" height="4.754"/>
				</g>
				<g>
					
						<rect x="61.078" y="84.642" transform="matrix(-0.8271 -0.562 0.562 -0.8271 63.4113 192.1732)" fill="#44485A" width="0.368" height="3.385"/>
				</g>
				<g>
					
						<rect x="60.884" y="80.381" transform="matrix(-0.8304 -0.5571 0.5571 -0.8304 65.01 187.6805)" fill="#44485A" width="0.368" height="7.132"/>
				</g>
				<g>
					
						<rect x="58.867" y="81.646" transform="matrix(-0.8296 -0.5584 0.5584 -0.8296 61.1215 186.6988)" fill="#44485A" width="0.367" height="4.753"/>
				</g>
				<g>
					
						<rect x="57.278" y="82.089" transform="matrix(-0.8288 -0.5596 0.5596 -0.8288 58.1977 185.3694)" fill="#44485A" width="0.366" height="3.383"/>
				</g>
				<g>
					
						<rect x="56.422" y="80.002" transform="matrix(-0.8321 -0.5547 0.5547 -0.8321 58.0079 182.3232)" fill="#44485A" width="0.366" height="4.756"/>
				</g>
				<g>
					
						<rect x="54.83" y="80.445" transform="matrix(-0.8288 -0.5596 0.5596 -0.8288 54.6514 180.9915)" fill="#44485A" width="0.37" height="3.38"/>
				</g>
				<g>
					
						<rect x="53.975" y="78.357" transform="matrix(-0.8288 -0.5596 0.5596 -0.8288 53.8714 177.9521)" fill="#44485A" width="0.37" height="4.754"/>
				</g>
				<g>
					
						<rect x="52.386" y="78.8" transform="matrix(-0.8321 -0.5547 0.5547 -0.8321 51.6597 176.6257)" fill="#44485A" width="0.366" height="3.384"/>
				</g>
				<g>
					<polygon fill="#44485A" points="54.215,75.043 54.522,75.246 50.542,81.166 50.234,80.963 					"/>
				</g>
				<g>
					
						<rect x="50.177" y="75.803" transform="matrix(-0.8312 -0.5559 0.5559 -0.8312 48.7577 171.1615)" fill="#44485A" width="0.365" height="4.754"/>
				</g>
				<g>
					
						<rect x="48.585" y="76.247" transform="matrix(-0.8288 -0.5596 0.5596 -0.8288 45.5712 169.8201)" fill="#44485A" width="0.366" height="3.381"/>
				</g>
				<g>
					
						<rect x="47.729" y="74.158" transform="matrix(-0.8271 -0.562 0.562 -0.8271 44.5292 166.7694)" fill="#44485A" width="0.368" height="4.756"/>
				</g>
				<g>
					
						<rect x="46.137" y="74.601" transform="matrix(-0.8321 -0.5547 0.5547 -0.8321 42.5436 165.469)" fill="#44485A" width="0.37" height="3.386"/>
				</g>
				<g>
					
						<rect x="45.286" y="72.517" transform="matrix(-0.8279 -0.5608 0.5608 -0.8279 41.1093 162.4004)" fill="#44485A" width="0.366" height="4.754"/>
				</g>
				<g>
					
						<rect x="43.698" y="72.959" transform="matrix(-0.8304 -0.5572 0.5572 -0.8304 38.7247 161.0885)" fill="#44485A" width="0.365" height="3.383"/>
				</g>
				<g>
					
						<rect x="43.502" y="68.695" transform="matrix(-0.8321 -0.5547 0.5547 -0.8321 39.9532 156.6203)" fill="#44485A" width="0.37" height="7.133"/>
				</g>
				<g>
					
						<rect x="41.483" y="69.961" transform="matrix(-0.828 -0.5608 0.5608 -0.828 35.601 155.5976)" fill="#44485A" width="0.369" height="4.753"/>
				</g>
				<g>
					
						<rect x="39.894" y="70.403" transform="matrix(-0.8288 -0.5596 0.5596 -0.8288 32.9473 154.2715)" fill="#44485A" width="0.366" height="3.383"/>
				</g>
				<g>
					
						<rect x="39.039" y="68.316" transform="matrix(-0.8321 -0.5547 0.5547 -0.8321 32.6419 151.2719)" fill="#44485A" width="0.366" height="4.757"/>
				</g>
				<g>
					
						<rect x="37.446" y="68.759" transform="matrix(-0.8288 -0.5596 0.5596 -0.8288 29.3978 149.8973)" fill="#44485A" width="0.37" height="3.384"/>
				</g>
				<g>
					
						<rect x="36.594" y="66.673" transform="matrix(-0.8288 -0.5596 0.5596 -0.8288 28.6153 146.858)" fill="#44485A" width="0.366" height="4.755"/>
				</g>
				<g>
					
						<rect x="35.003" y="67.116" transform="matrix(-0.8304 -0.5571 0.5571 -0.8304 26.0709 145.5508)" fill="#44485A" width="0.368" height="3.383"/>
				</g>
				<g>
					
						<rect x="34.81" y="62.854" transform="matrix(-0.8337 -0.5522 0.5522 -0.8337 27.4864 141.1198)" fill="#44485A" width="0.368" height="7.134"/>
				</g>
			</g>
		</g>
	</g>
</g>
</svg>
