<?xml version="1.0" encoding="utf-8"?>
<!-- Generator: Adobe Illustrator 16.0.0, SVG Export Plug-In . SVG Version: 6.00 Build 0)  -->
<!DOCTYPE svg PUBLIC "-//W3C//DTD SVG 1.1//EN" "http://www.w3.org/Graphics/SVG/1.1/DTD/svg11.dtd">
<svg version="1.1" id="Layer_1" xmlns="http://www.w3.org/2000/svg" xmlns:xlink="http://www.w3.org/1999/xlink" x="0px" y="0px"
	 width="128px" height="128px" viewBox="0 0 128 128" enable-background="new 0 0 128 128" xml:space="preserve">
<g>
	<circle fill="#EDC55D" cx="64" cy="64" r="64"/>
	<path fill="#CFA33F" d="M100.02,31.719l0.098,3.416L70.49,22.228c0,0-33.44-0.002-43.706,19.945
		c-10.267,19.947,4.399,55.146,4.399,55.146l-0.942,1.749l29.018,28.738C60.826,127.922,62.404,128,64,128c35.348,0,64-28.653,64-64
		c0-1.604-0.078-3.189-0.195-4.765L100.02,31.719z"/>
	<circle fill="#929497" cx="64" cy="64" r="48.221"/>
	<circle fill="#FFFFFF" cx="64" cy="64" r="37.718"/>
	<g>
		<polygon fill="#555657" points="37.666,90.334 68.383,68.382 59.617,59.618 		"/>
		<polygon fill="#ED2C55" points="59.617,59.618 68.383,68.382 90.336,37.666 		"/>
	</g>
	<g>
		<g>
			<path fill="#373737" d="M60.558,37.666v-9.17h1.291l2.939,4.64c0.68,1.074,1.213,2.04,1.647,2.979l0.027-0.014
				c-0.109-1.225-0.137-2.34-0.137-3.77v-3.836h1.117v9.17h-1.197l-2.913-4.654c-0.641-1.021-1.252-2.068-1.715-3.061l-0.041,0.014
				c0.068,1.156,0.096,2.258,0.096,3.783v3.918H60.558z"/>
		</g>
	</g>
	<g>
		<g>
			<path fill="#373737" d="M61.525,99.019c0.529,0.325,1.305,0.598,2.121,0.598c1.211,0,1.918-0.64,1.918-1.563
				c0-0.857-0.488-1.348-1.727-1.823c-1.498-0.531-2.422-1.306-2.422-2.599c0-1.43,1.182-2.49,2.965-2.49
				c0.94,0,1.622,0.219,2.028,0.448l-0.326,0.966c-0.299-0.161-0.912-0.436-1.743-0.436c-1.25,0-1.727,0.75-1.727,1.375
				c0,0.857,0.557,1.279,1.822,1.77c1.551,0.597,2.34,1.346,2.34,2.693c0,1.415-1.047,2.639-3.211,2.639
				c-0.885,0-1.85-0.258-2.34-0.585L61.525,99.019z"/>
		</g>
	</g>
	<g>
		<g>
			<path fill="#373737" d="M32.133,68.586l-2.327-9.172h1.253l1.089,4.641c0.271,1.143,0.517,2.285,0.679,3.17h0.029
				c0.149-0.911,0.436-2,0.748-3.184l1.224-4.627h1.238l1.115,4.654c0.258,1.088,0.504,2.177,0.639,3.143h0.029
				c0.189-1.006,0.447-2.026,0.734-3.17l1.209-4.627h1.213l-2.6,9.172h-1.238l-1.156-4.775c-0.285-1.172-0.477-2.068-0.6-2.995
				h-0.027c-0.162,0.913-0.365,1.81-0.707,2.995l-1.306,4.775H32.133z"/>
		</g>
	</g>
	<g>
		<g>
			<path fill="#373737" d="M97.535,64.285h-3.564v3.309h3.973v0.992h-5.156v-9.172h4.953v0.992h-3.77v2.9h3.564V64.285z"/>
		</g>
	</g>
	<circle fill="#D0D0D1" cx="64" cy="64" r="5.795"/>
</g>
</svg>
