<?xml version="1.0" encoding="utf-8"?>
<!-- Generator: Adobe Illustrator 16.0.0, SVG Export Plug-In . SVG Version: 6.00 Build 0)  -->
<!DOCTYPE svg PUBLIC "-//W3C//DTD SVG 1.1//EN" "http://www.w3.org/Graphics/SVG/1.1/DTD/svg11.dtd">
<svg version="1.1" id="Layer_1" xmlns="http://www.w3.org/2000/svg" xmlns:xlink="http://www.w3.org/1999/xlink" x="0px" y="0px"
	 width="128px" height="128px" viewBox="0 0 128 128" enable-background="new 0 0 128 128" xml:space="preserve">
<g>
	<circle fill="#E77970" cx="64" cy="64" r="64"/>
	<path fill="#BD453F" d="M94.514,33.457l-6.939,0.147l-16.419,3.148l-5.398,25.416L35.842,99.056l-5.338,2.875l25.849,25.599
		C58.862,127.828,61.41,128,64,128c34.49,0,62.592-27.284,63.936-61.444L94.514,33.457z"/>
	<g>
		<path fill="#FFFFFF" d="M93.378,82.983C87.501,73.796,76.546,67.618,64,67.618s-23.501,6.18-29.378,15.365
			c7.753,4.99,18.06,8.037,29.377,8.037C75.317,91.021,85.625,87.974,93.378,82.983z"/>
		<rect x="55.605" y="57.646" fill="#F0BA7A" width="16.789" height="15.786"/>
		<ellipse fill="#F7CFA2" cx="64" cy="45.618" rx="15.486" ry="20.939"/>
		<path fill="#313133" d="M93.378,82.983c-7.753,4.99-18.061,8.037-29.379,8.037c-11.317,0-21.624-3.047-29.377-8.037
			c-2.903,4.541-4.568,9.816-4.568,15.445c0,0.956,0.051,1.9,0.145,2.834c8.73,5.404,20.653,8.734,33.801,8.734
			c13.149,0,25.071-3.33,33.803-8.734c0.094-0.934,0.145-1.878,0.145-2.834C97.946,92.8,96.281,87.524,93.378,82.983z"/>
		
			<rect x="61.431" y="74.496" transform="matrix(0.707 -0.7072 0.7072 0.707 -35.7492 67.84)" fill="#313133" width="5.138" height="5.138"/>
		<g>
			<g>
				<g>
					<polygon fill="#DDDDE1" points="55.246,66.866 64,73.432 59.94,79.319 52.19,69.936 					"/>
				</g>
				<g>
					<polygon fill="#DDDDE1" points="72.754,66.866 64,73.432 68.06,79.319 75.809,69.936 					"/>
				</g>
			</g>
		</g>
		<path fill="#322C2E" d="M48.788,37.915v7.42c0,0,14.841-3.872,30.329,0v-7.42H48.788z"/>
		<polygon fill="#525458" points="67.852,18.003 36.688,30.114 61.493,48.28 94.497,33.142 		"/>
		<ellipse fill="#221F1F" cx="64.92" cy="30.958" rx="3.549" ry="2.184"/>
		<path fill="#BE1E2D" d="M64.124,30.833c-0.228-0.156-0.54-0.096-0.693,0.135c-0.507,0.751-1.466,1.281-2.395,1.794
			c-0.382,0.212-0.755,0.418-1.087,0.633c-1.076,0.698-2.113,1.047-3.246,1.367c-0.132-0.049-0.281-0.047-0.412,0.027
			c-0.149,0.082-0.301,0.149-0.454,0.214c-0.244,0.066-0.489,0.133-0.747,0.207c-1.612,0.461-3.289,0.717-4.911,0.965l-0.541,0.083
			c-1.176,0.18-2.286,0.35-3.268,1.201c-1.28,1.108-1.908,2.6-2.515,4.041c-1.249,2.967-1.344,7.561-0.799,10.377
			c0.205,1.061,0.519,2.07,0.821,3.048c0.474,1.527,0.921,2.971,0.993,4.6c0.104,2.349-0.575,3.854-2.136,4.733
			c-0.241,0.136-0.326,0.44-0.19,0.681c0.092,0.163,0.262,0.255,0.436,0.255c0.084,0,0.168-0.021,0.245-0.064
			c1.9-1.071,2.765-2.919,2.645-5.649c-0.078-1.757-0.565-3.33-1.037-4.851c-0.295-0.951-0.6-1.935-0.794-2.941
			c-0.268-1.383-0.361-3.208-0.241-5.021c0.134,1.791,0.665,3.539,1.293,5.393c1.021,3.016,1.664,5.773,1.91,8.195l0.015,0.144
			c0.358,3.471-0.037,4.246-0.305,4.399c-0.24,0.137-0.323,0.442-0.186,0.682c0.092,0.162,0.261,0.252,0.434,0.252
			c0.085,0,0.17-0.021,0.248-0.066c1.127-0.645,1.052-2.962,0.803-5.37l-0.015-0.142c-0.253-2.496-0.912-5.327-1.957-8.414
			c-0.97-2.866-1.663-5.274-1.044-7.994c0.228-0.997,1.003-2.356,1.568-3.35l0.188-0.328c0.095-0.167,0.199-0.303,0.301-0.447
			c-0.696,1.184-1.136,2.743-1.317,4.725c-0.25,2.727,0.145,4.891,1.319,7.237c1.295,2.584,2.211,4.646,2.204,7.655
			c-0.002,0.665,0.055,1.303,0.109,1.919c0.052,0.583,0.101,1.134,0.105,1.713c0.002,0.275,0.226,0.496,0.5,0.496
			c0.001,0,0.003,0,0.004,0c0.276-0.002,0.498-0.229,0.496-0.504c-0.006-0.619-0.059-1.216-0.109-1.793
			c-0.055-0.622-0.106-1.209-0.105-1.829c0.007-3.224-0.997-5.484-2.31-8.104c-1.086-2.168-1.45-4.172-1.218-6.698
			c0.271-2.976,1.169-4.955,2.668-5.885c0.507-0.316,1.133-0.652,1.766-0.961c0.084-0.018,0.163-0.035,0.248-0.053
			c1.67-0.346,3.544-0.74,4.95-1.643c1.461-0.397,2.736-0.757,4.132-1.661c0.313-0.203,0.666-0.397,1.027-0.598
			c0.983-0.543,2.098-1.16,2.738-2.11C64.414,31.298,64.354,30.987,64.124,30.833z"/>
	</g>
</g>
</svg>
