<?xml version="1.0" encoding="utf-8"?>
<!-- Generator: Adobe Illustrator 16.0.0, SVG Export Plug-In . SVG Version: 6.00 Build 0)  -->
<!DOCTYPE svg PUBLIC "-//W3C//DTD SVG 1.1//EN" "http://www.w3.org/Graphics/SVG/1.1/DTD/svg11.dtd">
<svg version="1.1" id="Layer_1" xmlns="http://www.w3.org/2000/svg" xmlns:xlink="http://www.w3.org/1999/xlink" x="0px" y="0px"
	 width="128px" height="128px" viewBox="0 0 128 128" enable-background="new 0 0 128 128" xml:space="preserve">
<g>
	<circle fill="#2D5171" cx="64" cy="64" r="64"/>
	<path fill="#183D57" d="M101.415,30.227l-2.707,4.641L30.156,88.045l-5.454,4.09l36.134,35.785C61.885,127.971,62.939,128,64,128
		c35.346,0,64-28.653,64-64c0-2.694-0.186-5.344-0.51-7.95L101.415,30.227z"/>
	<g>
		<circle fill="#7FD0DF" cx="51.288" cy="64" r="37.712"/>
		<g>
			<path fill="#FFFFFF" d="M51.287,102.63c-14.736,0-26.726-17.33-26.726-38.63s11.989-38.63,26.726-38.63
				c14.738,0,26.728,17.33,26.728,38.63S66.025,102.63,51.287,102.63z M51.287,27.206c-13.725,0-24.89,16.505-24.89,36.794
				s11.165,36.794,24.89,36.794S76.179,84.289,76.179,64S65.012,27.206,51.287,27.206z"/>
		</g>
		<g>
			<path fill="#FFFFFF" d="M51.287,102.63c-8.376,0-14.938-16.968-14.938-38.63s6.562-38.63,14.938-38.63
				c8.377,0,14.938,16.968,14.938,38.63S59.664,102.63,51.287,102.63z M51.287,27.206c-7.102,0-13.102,16.85-13.102,36.794
				s6,36.794,13.102,36.794c7.103,0,13.103-16.85,13.103-36.794S58.39,27.206,51.287,27.206z"/>
		</g>
		<g>
			<rect x="50.369" y="26.288" fill="#FFFFFF" width="1.836" height="75.424"/>
		</g>
		<g>
			<rect x="24.828" y="90.203" fill="#FFFFFF" width="52.922" height="1.836"/>
		</g>
		<g>
			<rect x="16.085" y="76.642" fill="#FFFFFF" width="70.406" height="1.836"/>
		</g>
		<g>
			<rect x="13.577" y="63.082" fill="#FFFFFF" width="75.423" height="1.836"/>
		</g>
		<g>
			<rect x="16.085" y="49.522" fill="#FFFFFF" width="70.406" height="1.836"/>
		</g>
		<g>
			<rect x="24.828" y="35.961" fill="#FFFFFF" width="52.922" height="1.836"/>
		</g>
		<path fill="#FFFFFF" d="M51.287,102.63c-21.3,0-38.629-17.33-38.629-38.63s17.329-38.63,38.629-38.63
			c21.301,0,38.631,17.33,38.631,38.63S72.588,102.63,51.287,102.63z M51.287,27.206C31,27.206,14.494,43.711,14.494,64
			S31,100.794,51.287,100.794c20.289,0,36.794-16.505,36.794-36.794S71.576,27.206,51.287,27.206z"/>
		<g>
			<polygon fill="#072F49" points="72.465,46.617 40.158,51.935 54.692,93.129 86.998,87.809 			"/>
			<polygon fill="#072F49" points="72.316,46.669 100.809,30.536 115.342,71.73 86.85,87.863 			"/>
			<polygon fill="#FFFFFF" points="86.624,86.75 55.482,91.877 41.697,52.805 72.838,47.676 			"/>
			<path fill="#E7E8D5" d="M86.624,86.75c-10.122-2.617-19.914-2.68-28.36-0.542c-4.596-13.025-9.19-26.05-13.786-39.073
				c8.446-2.137,18.237-2.074,28.36,0.541C77.434,60.7,82.028,73.724,86.624,86.75z"/>
			<path fill="#C0C3D2" d="M86.63,86.748c-9.426-6.932-19.841-8.311-26.003-5.99c-4.573-12.963-9.146-25.926-13.721-38.889
				c6.161-2.322,16.576-0.941,26.003,5.988C77.483,60.822,82.058,73.785,86.63,86.748z"/>
			<path fill="#B0B4C3" d="M68.793,45.217c-0.111,3.367,0.738,6.844,0.785,10.201c0.054,3.637,0.021,7.328-0.402,10.945
				c-0.536,4.568-1.498,9.089-3.099,13.374c5.954-0.234,13.528,1.843,20.553,7.011L72.909,47.857
				C71.553,46.861,70.176,45.992,68.793,45.217z"/>
			<polygon fill="#C0C3D2" points="86.475,86.801 113.939,71.253 100.153,32.179 72.689,47.729 			"/>
			<path fill="#DADCC6" d="M86.475,86.801c6.241-8.389,13.825-14.581,21.742-18.217c-4.596-13.023-9.19-26.048-13.786-39.071
				c-7.915,3.634-15.5,9.827-21.741,18.216C77.284,60.753,81.88,73.777,86.475,86.801z"/>
			<path fill="#FFFFFF" d="M86.47,86.803c2.992-11.311,10.234-18.92,16.487-20.98c-4.572-12.963-9.146-25.926-13.72-38.889
				c-6.254,2.061-13.495,9.67-16.489,20.981C77.322,60.879,81.896,73.842,86.47,86.803z"/>
			<path fill="#EDEFE7" d="M83.152,30.517c0.307,0.802,0.457,1.701,0.387,2.698c-0.323,4.588,1.027,9.313,1.511,13.857
				c0.412,3.873,0.909,7.734,1.497,11.584c0.981,6.434,2.386,12.789,3.536,19.189c3.557-6.338,8.459-10.569,12.874-12.023
				l-13.72-38.889C87.251,27.589,85.168,28.807,83.152,30.517z"/>
		</g>
	</g>
</g>
</svg>
