<?xml version="1.0" encoding="utf-8"?>
<!-- Generator: Adobe Illustrator 16.0.0, SVG Export Plug-In . SVG Version: 6.00 Build 0)  -->
<!DOCTYPE svg PUBLIC "-//W3C//DTD SVG 1.1//EN" "http://www.w3.org/Graphics/SVG/1.1/DTD/svg11.dtd">
<svg version="1.1" id="Layer_1" xmlns="http://www.w3.org/2000/svg" xmlns:xlink="http://www.w3.org/1999/xlink" x="0px" y="0px"
	 width="128px" height="128px" viewBox="0 0 128 128" enable-background="new 0 0 128 128" xml:space="preserve">
<g>
	<circle fill="#E1574C" cx="64" cy="64" r="64"/>
	<path fill="#BD453F" d="M95.279,44.881l-3.2,1.12l-5.072-2.111L64,22.15l0.074,15.307l-9.257-9.256L40.341,76.143l18.037,17.563
		l-33.938,6.883l-0.58,0.458l25.497,25.251C54.062,127.399,58.959,128,64,128c31.195,0,57.165-22.325,62.836-51.868L95.279,44.881z"
		/>
	<g>
		<path fill="#6D6E70" d="M27.791,97.349c6.726-1.892,20.415-3.188,36.209-3.188s29.483,1.296,36.209,3.188h4.433v2.657
			c0,3.228-18.196,5.844-40.642,5.844c-22.446,0-40.642-2.616-40.642-5.844v-2.657H27.791z"/>
		<ellipse fill="#9DA3AF" cx="64" cy="97.349" rx="40.642" ry="5.846"/>
		<path fill="#F9F9F9" d="M53.757,31.925v37.922c0,4.383-3.585,7.969-7.968,7.969h-0.277c-4.383,0-7.969-3.586-7.969-7.969V31.925
			H53.757z"/>
		<path fill="#FFC906" d="M51.986,45.64v24.207c0,3.418-2.779,6.197-6.197,6.197h-0.277c-3.418,0-6.198-2.779-6.198-6.197V45.64
			H51.986z"/>
		<path fill="#A6A8AB" d="M55.695,28.622v3.326c0,1.268-4.496,2.297-10.045,2.297s-10.046-1.029-10.046-2.297v-3.326H55.695z"/>
		<ellipse fill="#F9F9F9" cx="45.65" cy="28.622" rx="10.045" ry="2.297"/>
		<ellipse fill="#D0D2D3" cx="45.65" cy="28.702" rx="8.107" ry="1.854"/>
		<ellipse fill="#F9A61A" cx="45.65" cy="45.64" rx="6.336" ry="1.449"/>
		<circle fill="#FFFFFF" cx="47.572" cy="53.261" r="1.921"/>
		<circle fill="#FFFFFF" cx="42.375" cy="63.725" r="0.73"/>
		<circle fill="#FFFFFF" cx="47.728" cy="68.008" r="1.766"/>
		<g>
			<path fill="#F9F9F9" d="M80.176,66.907V46.999H93.84v19.908c5.541,2.578,9.383,8.194,9.383,14.708
				c0,8.956-7.26,16.214-16.216,16.214c-8.954,0-16.215-7.258-16.215-16.214C70.792,75.102,74.635,69.485,80.176,66.907z"/>
			<path fill="#00AFCC" d="M100.343,76.085c0.718,1.727,1.108,3.602,1.108,5.53c0,7.965-6.479,14.444-14.444,14.444
				c-7.964,0-14.442-6.479-14.442-14.444c0-1.929,0.389-3.804,1.108-5.53H100.343z"/>
			<path fill="#A6A8AB" d="M95.936,45.563v3.165c0,1.207-3.997,2.186-8.929,2.186c-4.93,0-8.928-0.979-8.928-2.186v-3.165H95.936z"
				/>
			<ellipse fill="#F9F9F9" cx="87.007" cy="45.563" rx="8.928" ry="2.187"/>
			<ellipse fill="#D0D2D3" cx="87.008" cy="45.563" rx="6.832" ry="1.673"/>
			<ellipse fill="#009BB4" cx="87.007" cy="76.085" rx="13.266" ry="3.248"/>
			<circle fill="#FFFFFF" cx="96.945" cy="84.508" r="1.643"/>
			<circle fill="#FFFFFF" cx="89.279" cy="88.339" r="0.912"/>
			<circle fill="#FFFFFF" cx="81.442" cy="85.774" r="1.267"/>
		</g>
		<g>
			<path fill="#D0D2D3" d="M64,97.409c0.685,0,1.24-0.556,1.24-1.24V23.39c0-0.684-0.556-1.239-1.24-1.239s-1.24,0.556-1.24,1.239
				v72.779C62.76,96.854,63.315,97.409,64,97.409z"/>
		</g>
		<g>
			<path fill="#A7A9AC" d="M45.159,40.974c-3.54,0-7.331-0.939-9.14-4.018c-0.173-0.295-0.075-0.676,0.221-0.849
				c0.295-0.174,0.676-0.074,0.849,0.221c2.612,4.448,10.563,3.622,13.79,2.562c2.18-0.716,3.061-2.496,3.069-2.516
				c0.103-0.214,0.32-0.353,0.559-0.353h15.959c0.343,0,0.62,0.278,0.62,0.62s-0.277,0.619-0.62,0.619H54.868
				c-0.419,0.674-1.522,2.123-3.603,2.807C49.792,40.552,47.531,40.974,45.159,40.974z"/>
		</g>
		<g>
			<path fill="#A7A9AC" d="M67.265,40.254c-0.343,0-0.62-0.278-0.62-0.62v-5.743c0-0.343,0.277-0.62,0.62-0.62s0.62,0.277,0.62,0.62
				v5.743C67.885,39.976,67.607,40.254,67.265,40.254z"/>
		</g>
	</g>
</g>
</svg>
