<?xml version="1.0" encoding="utf-8"?>
<!-- Generator: Adobe Illustrator 16.0.0, SVG Export Plug-In . SVG Version: 6.00 Build 0)  -->
<!DOCTYPE svg PUBLIC "-//W3C//DTD SVG 1.1//EN" "http://www.w3.org/Graphics/SVG/1.1/DTD/svg11.dtd">
<svg version="1.1" id="Layer_1" xmlns="http://www.w3.org/2000/svg" xmlns:xlink="http://www.w3.org/1999/xlink" x="0px" y="0px"
	 width="128px" height="128px" viewBox="0 0 128 128" enable-background="new 0 0 128 128" xml:space="preserve">
<g>
	<circle fill="#88C0C7" cx="64" cy="64" r="64"/>
	<path fill="#569DA2" d="M64.565,16.162l-0.182,4.887l-4.09,20.448L43.678,25.663l0.018,21.607l-3.85,57.256l-1.577,2.207
		l21.303,21.098C61.036,127.931,62.51,128,64,128c30.697,0,56.334-21.615,62.55-50.453L64.565,16.162z"/>
	<g>
		<polygon fill="#4D7B39" points="37.416,42.88 49.636,42.878 49.664,98.659 37.442,98.659 		"/>
		<rect x="45.852" y="42.879" fill="#8BC53F" width="3.798" height="55.781"/>
		<rect x="41.724" y="42.88" fill="#719F40" width="4.127" height="55.779"/>
		<polygon fill="#DEBEA1" points="37.416,42.88 49.636,42.878 43.678,25.663 		"/>
		<polygon fill="#F1D7B7" points="41.711,42.88 49.636,42.878 43.678,25.663 		"/>
		<polygon fill="#FAF6C3" points="45.818,42.878 49.636,42.878 43.678,25.663 		"/>
		<polygon fill="#39454E" points="45.644,31.344 43.678,25.663 41.612,31.344 		"/>
		<path fill="#E76165" d="M37.448,98.632l0.005,6.527c0.002,1.164,0.917,2.116,2.03,2.117l8.146-0.001
			c1.117-0.002,2.03-0.954,2.028-2.114l-0.002-6.529H37.448z"/>
		<path fill="#A22163" d="M39.483,107.276l6.396-0.003l-0.003-8.642h-8.428l0.005,6.527
			C37.455,106.323,38.37,107.275,39.483,107.276z"/>
		<path fill="#802149" d="M39.483,107.276l2.251-0.001l-0.007-8.646l-4.279,0.002l0.005,6.527
			C37.455,106.323,38.37,107.275,39.483,107.276z"/>
		<polygon fill="#04786C" points="57.875,35.287 70.096,35.284 70.124,97.644 57.902,97.644 		"/>
		<rect x="66.311" y="35.285" fill="#0EBDE1" width="3.799" height="62.359"/>
		<rect x="62.183" y="35.286" fill="#07AAAE" width="4.127" height="62.357"/>
		<polygon fill="#DEBEA1" points="57.875,35.287 70.096,35.284 64.137,16.04 		"/>
		<polygon fill="#F1D7B7" points="62.17,35.286 70.096,35.284 64.137,16.04 		"/>
		<polygon fill="#FAF6C3" points="66.278,35.285 70.096,35.284 64.137,16.04 		"/>
		<polygon fill="#39454E" points="66.104,22.392 64.137,16.04 62.071,22.392 		"/>
		<path fill="#E76165" d="M57.908,97.612l0.006,7.298c0,1.302,0.915,2.365,2.028,2.366l8.146-0.001
			c1.118-0.002,2.032-1.066,2.028-2.364l-0.001-7.3L57.908,97.612z"/>
		<path fill="#A22163" d="M59.942,107.276l6.397-0.003l-0.005-9.662l-8.427,0.001l0.006,7.298
			C57.914,106.212,58.829,107.275,59.942,107.276z"/>
		<path fill="#802149" d="M59.942,107.276l2.253-0.001l-0.009-9.665l-4.278,0.002l0.006,7.298
			C57.914,106.212,58.829,107.275,59.942,107.276z"/>
		<g>
			<polygon fill="#F7981D" points="78.337,63.743 90.558,63.741 90.583,101.45 78.361,101.451 			"/>
			<rect x="86.771" y="63.741" fill="#FDE531" width="3.8" height="37.709"/>
			<polygon fill="#F8CC0D" points="86.758,63.741 82.632,63.741 82.656,101.45 86.782,101.45 			"/>
			<polygon fill="#DEBEA1" points="78.337,63.743 90.558,63.741 84.599,52.103 			"/>
			<polygon fill="#F1D7B7" points="82.632,63.741 90.558,63.741 84.599,52.103 			"/>
			<polygon fill="#FAF6C3" points="86.739,63.741 90.558,63.741 84.599,52.103 			"/>
			<polygon fill="#39454E" points="86.564,55.942 84.599,52.103 82.534,55.942 			"/>
			<path fill="#E76165" d="M78.368,101.432l0.005,4.413c0.001,0.787,0.916,1.431,2.029,1.432l8.146-0.001
				c1.118-0.002,2.032-0.644,2.028-1.429l-0.001-4.415H78.368z"/>
			<path fill="#A22163" d="M80.402,107.276l6.396-0.001l-0.004-5.844h-8.427l0.005,4.413
				C78.374,106.632,79.289,107.275,80.402,107.276z"/>
			<path fill="#802149" d="M80.402,107.276l2.253-0.001l-0.009-5.845l-4.278,0.001l0.005,4.413
				C78.374,106.632,79.289,107.275,80.402,107.276z"/>
		</g>
	</g>
</g>
</svg>
