<?xml version="1.0" encoding="utf-8"?>
<!-- Generator: Adobe Illustrator 16.0.0, SVG Export Plug-In . SVG Version: 6.00 Build 0)  -->
<!DOCTYPE svg PUBLIC "-//W3C//DTD SVG 1.1//EN" "http://www.w3.org/Graphics/SVG/1.1/DTD/svg11.dtd">
<svg version="1.1" id="Layer_1" xmlns="http://www.w3.org/2000/svg" xmlns:xlink="http://www.w3.org/1999/xlink" x="0px" y="0px"
	 width="128px" height="128px" viewBox="0 0 128 128" enable-background="new 0 0 128 128" xml:space="preserve">
<g>
	<g>
		<circle fill="#EDC55D" cx="64" cy="64" r="64"/>
		<path fill="#CFA13A" d="M101.022,32.955l-1.56,1.284h-3.669L84.596,23.274L38.152,99.923l-1.315,2.271l26.029,25.777
			C63.245,127.978,63.62,128,64,128c35.346,0,64-28.653,64-64c0-1.515-0.071-3.013-0.175-4.502L101.022,32.955z"/>
		<g>
			
				<rect x="31.679" y="26.978" transform="matrix(0.9903 -0.1392 0.1392 0.9903 -8.1305 9.0714)" fill="#E6E7E8" width="58.166" height="71.323"/>
			
				<line fill="none" stroke="#EB008B" stroke-width="0.3" stroke-miterlimit="10" x1="45.992" y1="99.923" x2="36.282" y2="30.874"/>
			<line fill="none" stroke="#38C5F0" stroke-width="0.3" stroke-miterlimit="10" x1="28.603" y1="39.39" x2="85.262" y2="31.423"/>
			
				<line fill="none" stroke="#38C5F0" stroke-width="0.3" stroke-miterlimit="10" x1="28.999" y1="42.207" x2="85.658" y2="34.239"/>
			
				<line fill="none" stroke="#38C5F0" stroke-width="0.3" stroke-miterlimit="10" x1="29.396" y1="45.023" x2="86.055" y2="37.056"/>
			<line fill="none" stroke="#38C5F0" stroke-width="0.3" stroke-miterlimit="10" x1="29.792" y1="47.84" x2="86.45" y2="39.872"/>
			
				<line fill="none" stroke="#38C5F0" stroke-width="0.3" stroke-miterlimit="10" x1="30.187" y1="50.657" x2="86.847" y2="42.688"/>
			
				<line fill="none" stroke="#38C5F0" stroke-width="0.3" stroke-miterlimit="10" x1="30.583" y1="53.474" x2="87.243" y2="45.505"/>
			<line fill="none" stroke="#38C5F0" stroke-width="0.3" stroke-miterlimit="10" x1="30.979" y1="56.29" x2="87.638" y2="48.321"/>
			
				<line fill="none" stroke="#38C5F0" stroke-width="0.3" stroke-miterlimit="10" x1="31.376" y1="59.106" x2="88.034" y2="51.138"/>
			
				<line fill="none" stroke="#38C5F0" stroke-width="0.3" stroke-miterlimit="10" x1="31.772" y1="61.923" x2="88.431" y2="53.955"/>
			
				<line fill="none" stroke="#38C5F0" stroke-width="0.3" stroke-miterlimit="10" x1="32.168" y1="64.739" x2="88.827" y2="56.772"/>
			
				<line fill="none" stroke="#38C5F0" stroke-width="0.3" stroke-miterlimit="10" x1="32.563" y1="67.556" x2="89.224" y2="59.589"/>
			<line fill="none" stroke="#38C5F0" stroke-width="0.3" stroke-miterlimit="10" x1="32.96" y1="70.372" x2="89.618" y2="62.405"/>
			
				<line fill="none" stroke="#38C5F0" stroke-width="0.3" stroke-miterlimit="10" x1="33.356" y1="73.189" x2="90.015" y2="65.222"/>
			
				<line fill="none" stroke="#38C5F0" stroke-width="0.3" stroke-miterlimit="10" x1="33.752" y1="76.007" x2="90.411" y2="68.038"/>
			
				<line fill="none" stroke="#38C5F0" stroke-width="0.3" stroke-miterlimit="10" x1="34.148" y1="78.823" x2="90.808" y2="70.855"/>
			<line fill="none" stroke="#38C5F0" stroke-width="0.3" stroke-miterlimit="10" x1="34.545" y1="81.64" x2="91.204" y2="73.672"/>
			
				<line fill="none" stroke="#38C5F0" stroke-width="0.3" stroke-miterlimit="10" x1="34.939" y1="84.456" x2="91.599" y2="76.488"/>
			
				<line fill="none" stroke="#38C5F0" stroke-width="0.3" stroke-miterlimit="10" x1="35.336" y1="87.272" x2="91.995" y2="79.306"/>
			
				<line fill="none" stroke="#38C5F0" stroke-width="0.3" stroke-miterlimit="10" x1="35.732" y1="90.089" x2="92.392" y2="82.122"/>
			
				<line fill="none" stroke="#38C5F0" stroke-width="0.3" stroke-miterlimit="10" x1="36.129" y1="92.906" x2="92.788" y2="84.938"/>
			
				<line fill="none" stroke="#38C5F0" stroke-width="0.3" stroke-miterlimit="10" x1="36.525" y1="95.724" x2="93.185" y2="87.755"/>
			<line fill="none" stroke="#38C5F0" stroke-width="0.3" stroke-miterlimit="10" x1="36.92" y1="98.54" x2="93.581" y2="90.572"/>
			<rect x="42.837" y="33.401" fill="#FFFFFF" width="58.167" height="71.324"/>
			<line fill="none" stroke="#EB008B" stroke-width="0.3" stroke-miterlimit="10" x1="52.102" y1="103.927" x2="52.102" y2="34.2"/>
			
				<line fill="none" stroke="#38C5F0" stroke-width="0.3" stroke-miterlimit="10" x1="43.313" y1="41.563" x2="100.528" y2="41.563"/>
			
				<line fill="none" stroke="#38C5F0" stroke-width="0.3" stroke-miterlimit="10" x1="43.313" y1="44.406" x2="100.528" y2="44.406"/>
			
				<line fill="none" stroke="#38C5F0" stroke-width="0.3" stroke-miterlimit="10" x1="43.313" y1="47.251" x2="100.528" y2="47.251"/>
			
				<line fill="none" stroke="#38C5F0" stroke-width="0.3" stroke-miterlimit="10" x1="43.313" y1="50.096" x2="100.528" y2="50.096"/>
			<line fill="none" stroke="#38C5F0" stroke-width="0.3" stroke-miterlimit="10" x1="43.313" y1="52.94" x2="100.528" y2="52.94"/>
			
				<line fill="none" stroke="#38C5F0" stroke-width="0.3" stroke-miterlimit="10" x1="43.313" y1="55.784" x2="100.528" y2="55.784"/>
			
				<line fill="none" stroke="#38C5F0" stroke-width="0.3" stroke-miterlimit="10" x1="43.313" y1="58.628" x2="100.528" y2="58.628"/>
			
				<line fill="none" stroke="#38C5F0" stroke-width="0.3" stroke-miterlimit="10" x1="43.313" y1="61.474" x2="100.528" y2="61.474"/>
			
				<line fill="none" stroke="#38C5F0" stroke-width="0.3" stroke-miterlimit="10" x1="43.313" y1="64.317" x2="100.528" y2="64.317"/>
			
				<line fill="none" stroke="#38C5F0" stroke-width="0.3" stroke-miterlimit="10" x1="43.313" y1="67.161" x2="100.528" y2="67.161"/>
			
				<line fill="none" stroke="#38C5F0" stroke-width="0.3" stroke-miterlimit="10" x1="43.313" y1="70.007" x2="100.528" y2="70.007"/>
			
				<line fill="none" stroke="#38C5F0" stroke-width="0.3" stroke-miterlimit="10" x1="43.313" y1="72.851" x2="100.528" y2="72.851"/>
			
				<line fill="none" stroke="#38C5F0" stroke-width="0.3" stroke-miterlimit="10" x1="43.313" y1="75.694" x2="100.528" y2="75.694"/>
			
				<line fill="none" stroke="#38C5F0" stroke-width="0.3" stroke-miterlimit="10" x1="43.313" y1="78.539" x2="100.528" y2="78.539"/>
			
				<line fill="none" stroke="#38C5F0" stroke-width="0.3" stroke-miterlimit="10" x1="43.313" y1="81.384" x2="100.528" y2="81.384"/>
			
				<line fill="none" stroke="#38C5F0" stroke-width="0.3" stroke-miterlimit="10" x1="43.313" y1="84.229" x2="100.528" y2="84.229"/>
			
				<line fill="none" stroke="#38C5F0" stroke-width="0.3" stroke-miterlimit="10" x1="43.313" y1="87.072" x2="100.528" y2="87.072"/>
			
				<line fill="none" stroke="#38C5F0" stroke-width="0.3" stroke-miterlimit="10" x1="43.313" y1="89.917" x2="100.528" y2="89.917"/>
			
				<line fill="none" stroke="#38C5F0" stroke-width="0.3" stroke-miterlimit="10" x1="43.313" y1="92.761" x2="100.528" y2="92.761"/>
			
				<line fill="none" stroke="#38C5F0" stroke-width="0.3" stroke-miterlimit="10" x1="43.313" y1="95.606" x2="100.528" y2="95.606"/>
			<line fill="none" stroke="#38C5F0" stroke-width="0.3" stroke-miterlimit="10" x1="43.313" y1="98.45" x2="100.528" y2="98.45"/>
			
				<line fill="none" stroke="#38C5F0" stroke-width="0.3" stroke-miterlimit="10" x1="43.313" y1="101.294" x2="100.528" y2="101.294"/>
		</g>
	</g>
	<g>
		<polygon fill="#1B1716" points="84.847,78.573 84.561,78.319 86.852,75.751 85.997,74.988 83.706,77.555 83.421,77.303 
			81.937,78.964 82.22,79.218 79.93,81.784 80.784,82.548 83.075,79.981 83.362,80.236 		"/>
		
			<rect x="71.668" y="78.513" transform="matrix(0.746 0.666 -0.666 0.746 73.6398 -35.5268)" fill="#1B1716" width="23.446" height="0.51"/>
		<path fill="#8DD7F7" d="M105.376,54.141c-2.293-2.047-5.815-1.851-7.863,0.446c-2.049,2.294-1.848,5.816,0.445,7.863
			c2.295,2.049,5.816,1.849,7.863-0.445C107.87,59.71,107.671,56.19,105.376,54.141z M99.619,60.59
			c-1.267-1.131-1.376-3.075-0.245-4.342s3.076-1.378,4.343-0.247s1.378,3.076,0.245,4.344
			C102.831,61.612,100.886,61.721,99.619,60.59z"/>
		<polygon fill="#9C9F9D" points="89.148,92.55 87.159,101.442 91.983,93.536 102.745,62.56 99.909,61.577 		"/>
		<polygon fill="#1B1716" points="90.324,92.573 87.159,101.442 91.983,93.536 102.745,62.56 101.106,62.291 		"/>
		<polygon fill="#9C9F9D" points="69.047,74.604 60.437,77.585 67.747,71.899 97.31,57.708 98.606,60.411 		"/>
		<polygon fill="#1B1716" points="69.047,74.604 60.437,77.585 68.221,73.567 97.848,59.173 98.606,60.411 		"/>
		<path fill="#1B1716" d="M105.376,54.141c-2.293-2.047-5.815-1.851-7.863,0.446c-2.049,2.294-1.848,5.816,0.445,7.863
			c2.295,2.049,5.816,1.849,7.863-0.445C107.87,59.71,107.671,56.19,105.376,54.141z M99.619,60.59
			c-1.267-1.131-1.376-3.075-0.245-4.342s3.076-1.378,4.343-0.247s1.378,3.076,0.245,4.344
			C102.831,61.612,100.886,61.721,99.619,60.59z"/>
		<circle fill="#9C9F9D" cx="101.667" cy="58.295" r="2.142"/>
		<path fill="#1B1716" d="M107.404,54.641l3.866-4.331c0.584-0.651,0.526-1.664-0.127-2.246l-0.379-0.34
			c-0.652-0.582-1.664-0.524-2.246,0.128l-3.867,4.333L107.404,54.641z"/>
	</g>
</g>
</svg>
