<?xml version="1.0" encoding="utf-8"?>
<!-- Generator: Adobe Illustrator 16.0.0, SVG Export Plug-In . SVG Version: 6.00 Build 0)  -->
<!DOCTYPE svg PUBLIC "-//W3C//DTD SVG 1.1//EN" "http://www.w3.org/Graphics/SVG/1.1/DTD/svg11.dtd">
<svg version="1.1" id="Layer_1" xmlns="http://www.w3.org/2000/svg" xmlns:xlink="http://www.w3.org/1999/xlink" x="0px" y="0px"
	 width="128px" height="128px" viewBox="0 0 128 128" enable-background="new 0 0 128 128" xml:space="preserve">
<g>
	<circle fill="#3CB19C" cx="64" cy="64" r="64"/>
	<path fill="#1B8C76" d="M77.567,19.806L64.129,54.411l-29.507,52.85l-2.573,3.212l15.546,15.397C52.831,127.254,58.328,128,64,128
		c33.491,0,60.956-25.73,63.749-58.498L77.567,19.806z"/>
	<g>
		<path fill="#E77970" d="M93.378,75.472C87.501,66.284,76.546,60.106,64,60.106s-23.501,6.18-29.378,15.365
			c7.753,4.99,18.06,8.037,29.377,8.037C75.317,83.509,85.625,80.462,93.378,75.472z"/>
		<rect x="55.605" y="50.134" fill="#F0BA7A" width="16.789" height="15.787"/>
		
			<rect x="61.431" y="66.985" transform="matrix(0.7071 -0.7071 0.7071 0.7071 -30.4367 65.6266)" fill="#313133" width="5.138" height="5.138"/>
		<g>
			<polygon fill="#BD453F" points="55.246,59.354 64,65.921 59.94,71.808 52.19,62.425 			"/>
			<polygon fill="#BD453F" points="72.754,59.354 64,65.921 68.06,71.808 75.809,62.425 			"/>
		</g>
		<g>
			<path fill="#C0C3D2" d="M63.046,113.513c-6.299-6.773-15.688-10.283-22.271-10.18C39.9,92.517,38.93,80.521,37.847,67.14
				c7.72-0.143,18.738,4.672,26.071,13.887C63.597,92.974,63.309,103.747,63.046,113.513z"/>
			<path fill="#FFFFFF" d="M62.884,113.513c6.659-6.773,16.232-10.283,22.81-10.18c1.446-10.816,3.053-22.813,4.843-36.193
				c-7.713-0.143-18.983,4.672-26.808,13.887C63.418,92.974,63.137,103.747,62.884,113.513z"/>
			<path fill="#E7E8D5" d="M63.04,113.513c-8.317-4.031-17.405-6.395-25.987-6.971c-1.056-10.533-2.225-22.199-3.528-35.195
				c10.055,0.787,20.697,4.02,30.392,9.502C63.594,92.866,63.302,103.698,63.04,113.513z"/>
			<path fill="#DADCC6" d="M62.89,113.513c8.53-4.031,17.743-6.395,26.355-6.971c1.612-10.533,3.399-22.199,5.39-35.195
				c-10.097,0.787-20.908,4.02-30.894,9.502C63.428,92.866,63.146,103.698,62.89,113.513z"/>
			<polygon fill="#072F49" points="63.943,79.812 27.368,74.382 31.949,110.343 63.019,114.271 			"/>
			<polygon fill="#072F49" points="63.769,79.812 100.632,74.382 94.148,110.343 62.87,114.271 			"/>
		</g>
		<g>
			<path fill="#0E2027" d="M69.17,27.155c0,0,4.102,11.234,14.126,13.266c0.155-1.172,0.259-2.363,0.259-3.588
				c0-12.76-8.754-23.104-19.555-23.104c-10.8,0-19.555,10.344-19.555,23.104c0,1.793,0.188,3.529,0.517,5.205
				C48.091,41.987,64.61,41.054,69.17,27.155z"/>
			<path fill="#F7CFA2" d="M69.17,27.155c-4.56,13.898-21.079,14.832-24.208,14.883c2,10.248,9.756,17.898,19.038,17.898
				c9.766,0,17.833-8.463,19.296-19.516C73.271,38.39,69.17,27.155,69.17,27.155z"/>
		</g>
		<g>
			<path fill="#F0BA7A" d="M27.416,87.745c0.708-1.621,1.384-3.336,3.188-4.021c2.24-0.852,2.218,0.865,2.063,2.521
				c1.147,0.494,0.9,1.836,0.096,2.576c0.949,0.859,0.382,1.152,0.277,2.008c-0.091,0.75,0.288,1.535,0.151,2.277
				c-0.294,1.586-2.671,1.174-2.844,3.068c-2.961,0.477-3.065-6.262-3.065-8.297"/>
			<path fill="#F0BA7A" d="M100.584,87.745c-0.708-1.621-1.384-3.336-3.188-4.021c-2.24-0.852-2.218,0.865-2.063,2.521
				c-1.147,0.494-0.9,1.836-0.096,2.576c-0.949,0.859-0.382,1.152-0.277,2.008c0.091,0.75-0.288,1.535-0.151,2.277
				c0.294,1.586,2.671,1.174,2.844,3.068c2.961,0.477,3.065-6.262,3.065-8.297"/>
		</g>
	</g>
</g>
</svg>
