<?xml version="1.0" encoding="utf-8"?>
<!-- Generator: Adobe Illustrator 16.0.0, SVG Export Plug-In . SVG Version: 6.00 Build 0)  -->
<!DOCTYPE svg PUBLIC "-//W3C//DTD SVG 1.1//EN" "http://www.w3.org/Graphics/SVG/1.1/DTD/svg11.dtd">
<svg version="1.1" id="Layer_1" xmlns="http://www.w3.org/2000/svg" xmlns:xlink="http://www.w3.org/1999/xlink" x="0px" y="0px"
	 width="128px" height="128px" viewBox="0 0 128 128" enable-background="new 0 0 128 128" xml:space="preserve">
<g>
	<circle fill="#BBBDBF" cx="64" cy="64" r="64"/>
	<g>
		<path fill="#8B95A4" d="M102.048,40.833L28.922,96.299l-3.492,2.823l28.325,28.052C57.092,127.711,60.512,128,64,128
			c34.517,0,62.637-27.329,63.938-61.527L102.048,40.833z"/>
		<ellipse fill="#8B95A4" cx="64" cy="40.971" rx="18.888" ry="13.839"/>
	</g>
	<g>
		<g>
			<g>
				<path fill="#65260F" d="M63.999,61.373c-11.966,0-21.7-7.837-21.7-17.471c0-9.633,9.734-17.471,21.7-17.471
					S85.7,34.27,85.7,43.902C85.7,53.536,75.965,61.373,63.999,61.373z M63.999,29.742c-10.141,0-18.39,6.352-18.39,14.16
					s8.249,14.16,18.39,14.16s18.391-6.352,18.391-14.16S74.14,29.742,63.999,29.742z"/>
			</g>
		</g>
		<path fill="#B15226" d="M24.104,66.711v27.578c0,4.004,3.276,7.279,7.281,7.279h65.228c4.005,0,7.281-3.275,7.281-7.279V66.711
			H24.104z"/>
		<path fill="#C96828" d="M104.308,64.496c0,4.047-3.311,7.355-7.356,7.355H31.048c-4.046,0-7.356-3.309-7.356-7.355V45.62
			c0-4.048,3.311-7.358,7.356-7.358h65.903c4.046,0,7.356,3.311,7.356,7.358V64.496z"/>
		<path fill="#EB7C44" d="M104.038,43.68c-0.857-3.111-3.712-5.418-7.087-5.418H31.048c-3.375,0-6.229,2.307-7.087,5.418
			c0,0,3.316-2.943,7.036-2.943c16.192,0,48.577,0,64.77,0C101.027,40.736,104.038,43.68,104.038,43.68z"/>
		<g>
			<g>
				<polygon fill="#65260F" points="44.799,84.986 40.078,91.607 35.356,84.986 35.356,38.381 44.799,38.381 				"/>
				<rect x="33.905" y="77.117" fill="#BBBEC3" width="12.501" height="0.83"/>
				<path fill="none" stroke="#BCBEC3" stroke-width="2" stroke-miterlimit="10" d="M45.621,79.697c0,1.012-0.827,1.84-1.839,1.84
					h-7.409c-1.012,0-1.839-0.828-1.839-1.84v-4.33c0-1.01,0.827-1.838,1.839-1.838h7.409c1.012,0,1.839,0.828,1.839,1.838V79.697z"
					/>
				<rect x="39.864" y="76.199" fill="#BBBEC3" width="0.583" height="2.438"/>
			</g>
			<g>
				<polygon fill="#65260F" points="92.486,84.986 87.766,91.607 83.045,84.986 83.045,38.381 92.486,38.381 				"/>
				<rect x="81.594" y="77.117" fill="#BBBEC3" width="12.5" height="0.83"/>
				<path fill="none" stroke="#BCBEC3" stroke-width="2" stroke-miterlimit="10" d="M93.31,79.697c0,1.012-0.828,1.84-1.839,1.84
					h-7.409c-1.012,0-1.839-0.828-1.839-1.84v-4.33c0-1.01,0.827-1.838,1.839-1.838h7.409c1.011,0,1.839,0.828,1.839,1.838V79.697z"
					/>
				<rect x="87.552" y="76.199" fill="#BBBEC3" width="0.583" height="2.438"/>
			</g>
		</g>
		<rect x="52.633" y="79.953" fill="#C96828" width="22.733" height="13.279"/>
	</g>
</g>
</svg>
