<?xml version="1.0" encoding="utf-8"?>
<!-- Generator: Adobe Illustrator 16.0.0, SVG Export Plug-In . SVG Version: 6.00 Build 0)  -->
<!DOCTYPE svg PUBLIC "-//W3C//DTD SVG 1.1//EN" "http://www.w3.org/Graphics/SVG/1.1/DTD/svg11.dtd">
<svg version="1.1" id="Layer_1" xmlns="http://www.w3.org/2000/svg" xmlns:xlink="http://www.w3.org/1999/xlink" x="0px" y="0px"
	 width="128px" height="128px" viewBox="0 0 128 128" enable-background="new 0 0 128 128" xml:space="preserve">
<g>
	<circle fill="#91D7EE" cx="64" cy="64" r="64"/>
	<path fill="#60AFC4" d="M88.286,21.122L46.206,96.04l-6.281,14.202l17.603,17.433C59.656,127.889,61.815,128,64,128
		c35.347,0,64-28.653,64-64c0-1.229-0.043-2.447-0.111-3.658L88.286,21.122z"/>
	<g>
		<path fill="#F37421" d="M40.515,106.483c0.846-1.684,1.844-2.892,2.23-2.697c0.385,0.192,0.01,1.714-0.834,3.396
			c-0.846,1.683-1.844,2.889-2.23,2.696C39.298,109.687,39.671,108.165,40.515,106.483z"/>
		<path fill="#603B19" d="M80.821,19.482c-4.568,5.199-10.598,14.646-16.266,25.924c-0.07,0.141-0.141,0.282-0.211,0.423
			l12.027,6.039c0.07-0.141,0.141-0.281,0.211-0.422c5.67-11.277,9.652-21.753,11.096-28.521L80.821,19.482z"/>
		<path fill="#9F6B37" d="M47.694,102.483c7.211-10.452,17.635-28.643,28.279-49.823c0.133-0.265,0.266-0.528,0.398-0.792
			l-12.029-6.039c-0.133,0.264-0.264,0.525-0.398,0.791C53.3,67.8,44.923,87.019,40.837,99.04L47.694,102.483z"/>
		<path fill="#603B19" d="M42.491,108.196c1.402-1.125,3.102-3.242,4.732-5.95l-5.912-2.968c-1.201,2.924-1.885,5.547-1.953,7.346
			L42.491,108.196z"/>
		<path fill="#72481E" d="M81.976,20.065c-4.063,5.456-9.766,15.066-15.445,26.341c-0.07,0.141-0.141,0.281-0.211,0.422l8.078,4.04
			c0.07-0.141,0.141-0.28,0.213-0.422c5.678-11.273,10.006-21.572,11.969-28.078L81.976,20.065z"/>
		<path fill="#AF7C42" d="M46.522,101.89c6.707-10.707,16.813-29.059,27.475-50.229c0.135-0.266,0.266-0.529,0.398-0.793
			l-8.076-4.04c-0.133,0.265-0.266,0.526-0.398,0.792C55.255,68.79,46.524,87.829,41.917,99.586L46.522,101.89z"/>
		<path fill="#72481E" d="M41.923,107.909c1.186-1.236,2.719-3.437,4.283-6.18l-3.973-1.986c-1.271,2.889-2.127,5.428-2.412,7.113
			L41.923,107.909z"/>
		
			<rect x="65.278" y="44.788" transform="matrix(-0.8937 -0.4486 0.4486 -0.8937 115.9005 118.6345)" fill="#E78A24" width="13.449" height="1.604"/>
		
			<rect x="67.475" y="44.796" transform="matrix(-0.8936 -0.4489 0.4489 -0.8936 115.8696 118.6587)" fill="#FAA928" width="9.046" height="1.602"/>
		
			<rect x="80.889" y="19.687" transform="matrix(-0.8937 -0.4487 0.4487 -0.8937 151.0439 76.766)" fill="#FAA928" width="7.455" height="1.604"/>
		<path fill="#FAA925" d="M80.808,47.114c0,0-0.02-0.055-0.059-0.162c-0.025-0.1-0.068-0.238-0.092-0.379
			c-0.061-0.291-0.025-0.613,0.227-0.85c0.211-0.275,0.482-0.597,0.758-1.002c0.139-0.201,0.295-0.406,0.445-0.638
			c0.148-0.231,0.303-0.476,0.467-0.729c0.168-0.248,0.313-0.531,0.479-0.811c0.156-0.287,0.34-0.57,0.488-0.885
			c0.311-0.622,0.662-1.265,0.957-1.966c0.15-0.351,0.328-0.693,0.461-1.062c0.141-0.367,0.281-0.738,0.424-1.109
			c0.152-0.372,0.268-0.759,0.387-1.146c0.127-0.386,0.254-0.774,0.379-1.161c0.215-0.785,0.41-1.579,0.607-2.359
			c0.141-0.793,0.305-1.569,0.449-2.326c0.1-0.765,0.195-1.504,0.285-2.205c0.061-0.352,0.072-0.695,0.096-1.027
			c0.025-0.335,0.045-0.656,0.068-0.966c0.035-0.618,0.105-1.188,0.092-1.692c0.004-0.507,0.008-0.947,0.02-1.313
			c0.018-0.73,0.025-1.149,0.025-1.149l0.354-0.032c0,0,0.057,0.417,0.158,1.146c0.051,0.365,0.107,0.811,0.17,1.321
			c0.078,0.511,0.1,1.091,0.125,1.726c0.012,0.316,0.025,0.648,0.039,0.991s0.037,0.698,0.018,1.062
			c-0.027,0.73-0.057,1.501-0.088,2.299c-0.09,0.792-0.17,1.615-0.277,2.451c-0.152,0.825-0.305,1.668-0.48,2.508
			c-0.225,0.826-0.402,1.669-0.686,2.467c-0.135,0.401-0.27,0.799-0.402,1.191c-0.125,0.396-0.303,0.768-0.447,1.145
			c-0.291,0.756-0.629,1.461-0.959,2.125c-0.154,0.337-0.348,0.646-0.512,0.953c-0.174,0.305-0.326,0.607-0.504,0.88
			c-0.172,0.276-0.338,0.54-0.494,0.792c-0.158,0.25-0.326,0.48-0.475,0.701c-0.293,0.439-0.59,0.803-0.818,1.111
			c-0.217,0.324-0.543,0.45-0.873,0.445c-0.152,0.005-0.293-0.021-0.393-0.049c-0.109-0.033-0.164-0.051-0.164-0.051L80.808,47.114z
			"/>
	</g>
</g>
</svg>
