<?xml version="1.0" encoding="utf-8"?>
<!-- Generator: Adobe Illustrator 16.0.0, SVG Export Plug-In . SVG Version: 6.00 Build 0)  -->
<!DOCTYPE svg PUBLIC "-//W3C//DTD SVG 1.1//EN" "http://www.w3.org/Graphics/SVG/1.1/DTD/svg11.dtd">
<svg version="1.1" id="Layer_1" xmlns="http://www.w3.org/2000/svg" xmlns:xlink="http://www.w3.org/1999/xlink" x="0px" y="0px"
	 width="128px" height="128px" viewBox="0 0 128 128" enable-background="new 0 0 128 128" xml:space="preserve">
<g>
	<circle fill="#2DA8D2" cx="64" cy="64" r="64"/>
	<path fill="#1F84A6" d="M110.455,44.765l-13.666,6.095L65.178,23.604L21.24,50.741l5.398,5.37l5.299,45.45l-2.969,1.492
		l24.261,24.025C56.732,127.674,60.327,128,64,128c35.346,0,64-28.653,64-64c0-0.64-0.029-1.272-0.048-1.908L110.455,44.765z"/>
	<g>
		<polygon fill="#D7B353" points="104.336,46.421 64,23.604 23.67,46.421 23.67,46.421 23.66,46.421 28.461,103.054 99.527,103.054 
			104.328,46.425 		"/>
		<g>
			<polygon fill="#CF7C3F" points="106.756,50.741 63.996,26.554 21.24,50.741 17.695,44.474 63.994,18.279 110.303,44.474 			"/>
		</g>
		<rect x="42.072" y="101.562" fill="#9A4922" width="45.848" height="4.159"/>
		<polygon fill="#AB5B30" points="84.523,98.499 45.469,98.499 42.072,101.562 87.92,101.562 		"/>
		<rect x="45.732" y="95.003" fill="#9A4922" width="38.529" height="3.496"/>
		<polygon fill="#AB5B30" points="81.406,92.431 48.586,92.431 45.732,95.003 84.262,95.003 		"/>
		<rect x="48.586" y="66.085" fill="#603813" width="31.768" height="26.346"/>
		<rect x="49.906" y="67.457" fill="#E2A752" width="29.127" height="24.974"/>
		<rect x="63.998" y="67.17" fill="#603813" width="0.998" height="25.261"/>
		<g>
			<rect x="53.309" y="71.126" fill="#FFFFFF" width="7.441" height="6.722"/>
			<rect x="68.191" y="71.126" fill="#FFFFFF" width="7.441" height="6.722"/>
		</g>
		<rect x="31.938" y="66.085" fill="#FFFFFF" width="11.082" height="19.568"/>
		<rect x="32.883" y="67.17" fill="#4ABDE5" width="9.189" height="17.399"/>
		<rect x="85.707" y="66.085" fill="#FFFFFF" width="11.082" height="19.568"/>
		<rect x="86.654" y="67.17" fill="#4ABDE5" width="9.189" height="17.399"/>
		<path fill="#FFFFFF" d="M74.32,40.738l-0.057-0.058l0.01-0.013l-0.227-0.202l-0.27-0.27l-0.014,0.016l-0.021-0.02
			c-2.576-2.303-5.896-3.621-9.346-3.714l-0.057-0.001v-0.019l-0.342,0.009l-0.342-0.009v0.019l-0.055,0.001
			c-3.451,0.093-6.771,1.411-9.348,3.714l-0.02,0.02l-0.014-0.016l-0.271,0.27l-0.227,0.202l0.012,0.013l-0.059,0.058
			c-2.775,2.765-4.305,6.444-4.305,10.362v0.719h14.125H64.5h13.404h0.721V51.1C78.625,47.183,77.096,43.503,74.32,40.738z"/>
		<g>
			<path fill="#4ABDE5" d="M64.377,37.188v13.671l8.885-10.14C70.891,38.599,67.787,37.28,64.377,37.188z"/>
			<path fill="#4ABDE5" d="M63.621,50.859V37.188c-3.41,0.092-6.514,1.41-8.887,3.531L63.621,50.859z"/>
			<path fill="#4ABDE5" d="M54.184,41.238c-2.527,2.518-4.092,6.002-4.092,9.852v0.001h12.727L54.184,41.238z"/>
			<path fill="#4ABDE5" d="M73.813,41.238l-8.635,9.853h12.727V51.09C77.904,47.24,76.34,43.756,73.813,41.238z"/>
		</g>
		<g>
			<path fill="#FFFFFF" d="M49.156,56.156h0.785v5.425h2.6v0.658h-3.385V56.156z"/>
			<path fill="#FFFFFF" d="M54.203,56.156v6.083h-0.785v-6.083H54.203z"/>
			<path fill="#FFFFFF" d="M55.574,56.237c0.344-0.072,0.885-0.126,1.436-0.126c0.785,0,1.291,0.136,1.67,0.442
				c0.316,0.234,0.506,0.596,0.506,1.073c0,0.587-0.389,1.102-1.029,1.336v0.019c0.578,0.145,1.254,0.623,1.254,1.525
				c0,0.523-0.207,0.92-0.514,1.218c-0.424,0.388-1.111,0.568-2.104,0.568c-0.541,0-0.957-0.036-1.219-0.071V56.237z M56.359,58.729
				h0.713c0.832,0,1.318-0.434,1.318-1.021c0-0.712-0.541-0.992-1.336-0.992c-0.361,0-0.568,0.027-0.695,0.055V58.729z
				 M56.359,61.644c0.154,0.027,0.379,0.036,0.66,0.036c0.813,0,1.561-0.298,1.561-1.183c0-0.83-0.713-1.174-1.57-1.174h-0.65
				V61.644z"/>
			<path fill="#FFFFFF" d="M60.467,56.237c0.398-0.081,0.967-0.126,1.508-0.126c0.84,0,1.381,0.153,1.76,0.496
				c0.307,0.271,0.479,0.687,0.479,1.155c0,0.803-0.506,1.336-1.146,1.553v0.027c0.469,0.162,0.75,0.596,0.893,1.227
				c0.199,0.849,0.344,1.436,0.471,1.67h-0.813c-0.1-0.172-0.234-0.695-0.406-1.453c-0.18-0.84-0.506-1.155-1.219-1.182h-0.74v2.635
				h-0.785V56.237z M61.252,59.009h0.805c0.838,0,1.371-0.461,1.371-1.156c0-0.785-0.568-1.128-1.398-1.137
				c-0.379,0-0.65,0.035-0.777,0.072V59.009z"/>
			<path fill="#FFFFFF" d="M66.354,60.325l-0.633,1.914h-0.813l2.066-6.083h0.949l2.074,6.083H69.16l-0.65-1.914H66.354z
				 M68.348,59.712l-0.596-1.75c-0.137-0.397-0.227-0.759-0.316-1.111h-0.018c-0.09,0.361-0.189,0.732-0.307,1.102l-0.596,1.76
				H68.348z"/>
			<path fill="#FFFFFF" d="M70.893,56.237c0.398-0.081,0.967-0.126,1.508-0.126c0.84,0,1.381,0.153,1.76,0.496
				c0.307,0.271,0.479,0.687,0.479,1.155c0,0.803-0.506,1.336-1.146,1.553v0.027c0.469,0.162,0.75,0.596,0.895,1.227
				c0.197,0.849,0.342,1.436,0.469,1.67h-0.813c-0.1-0.172-0.234-0.695-0.406-1.453c-0.18-0.84-0.506-1.155-1.219-1.182h-0.74v2.635
				h-0.785V56.237z M71.678,59.009h0.805c0.838,0,1.371-0.461,1.371-1.156c0-0.785-0.568-1.128-1.398-1.137
				c-0.379,0-0.65,0.035-0.777,0.072V59.009z"/>
			<path fill="#FFFFFF" d="M77.004,62.239v-2.581l-1.922-3.502h0.893l0.857,1.679c0.236,0.46,0.416,0.83,0.605,1.255h0.018
				c0.172-0.397,0.379-0.795,0.613-1.255l0.877-1.679h0.893l-2.039,3.493v2.59H77.004z"/>
		</g>
	</g>
</g>
</svg>
