<?xml version="1.0" encoding="utf-8"?>
<!-- Generator: Adobe Illustrator 16.0.0, SVG Export Plug-In . SVG Version: 6.00 Build 0)  -->
<!DOCTYPE svg PUBLIC "-//W3C//DTD SVG 1.1//EN" "http://www.w3.org/Graphics/SVG/1.1/DTD/svg11.dtd">
<svg version="1.1" id="Layer_1" xmlns="http://www.w3.org/2000/svg" xmlns:xlink="http://www.w3.org/1999/xlink" x="0px" y="0px"
	 width="128px" height="128px" viewBox="0 0 128 128" enable-background="new 0 0 128 128" xml:space="preserve">
<g>
	<circle fill="#D7DADA" cx="64" cy="64" r="64"/>
	<path fill="#AEB4AD" d="M87.059,20.013l-2.641,2.884L62.533,50.827l1.292,17.57l-22.804,37.79l-2.359,1.657l20.12,19.926
		C60.505,127.909,62.241,128,64,128c35.346,0,64-28.653,64-64c0-1.188-0.038-2.37-0.103-3.543L87.059,20.013z"/>
	<g>
		<path fill="#61BEAE" d="M91.078,89.649C90.937,76.388,78.869,65.675,64,65.675c-14.867,0-26.937,10.713-27.076,23.975H91.078z"/>
		<path fill="#358D7E" d="M70.315,66.54c3.587,1.07,4.452,5.262,1.618,7.951c-1.279,1.213-4.765,1.327-6.175,0.162
			c-0.827-0.684-1.598-2.148-1.486-3.302c-0.116,1.606-1.302,2.856-2.939,3.448c-1.394,0.506-2.815,0.509-4.258,0.004
			c-1.533-0.535-2.606-1.936-2.688-3.522c-0.078-1.499,0.563-2.403,1.437-3.478c0.589-0.727,1.666-1.291,2.493-1.691"/>
		<path fill="#D7B353" d="M64,67.427c3.389,0,6.137-0.975,6.137-2.18v-9.35H57.863v9.35C57.863,66.452,60.611,67.427,64,67.427z"/>
		<g>
			
				<ellipse transform="matrix(0.9863 -0.1652 0.1652 0.9863 -6.8564 8.1923)" fill="#E4C577" cx="45.811" cy="45.306" rx="3.026" ry="5.574"/>
			
				<ellipse transform="matrix(-0.9863 -0.1652 0.1652 -0.9863 155.763 103.5692)" fill="#E4C577" cx="82.189" cy="45.306" rx="3.026" ry="5.574"/>
		</g>
		<ellipse fill="#EECE7B" cx="64.001" cy="45.306" rx="17.614" ry="19.404"/>
		<path fill="#7B3A1A" d="M88.715,38.974c-0.525-2.951-3.209-3.023-5.535-3.156c-0.033-1.31-0.063-2.086-0.61-3.26
			c-0.46-0.984-0.507-1.575,0.224-2.438c1.192-1.404,3.573-0.564,3.402-2.943c-0.013-0.173-0.326-1.076-0.318-1.103
			c0.168-0.684,1.164-0.79,1.506-1.401c0.5-0.889,0.343-2.701-0.025-3.576c-0.707-1.67-3.342-3.352-4.97-2.083
			c-0.095-1.237-0.151-1.764-1.029-2.731c-0.419-0.463-0.979-1.131-1.552-1.401c-0.803-0.38-2.803-0.696-3.655-0.283
			c-2.2,1.062-0.814,4.866-1.552,6.522c-0.794-0.22-1.365-1.58-2.325-1.951c-1.106-0.428-2.262-0.768-3.399-1.062
			c-1.573-0.403-3.222-0.624-4.875-0.601c-1.653-0.023-3.3,0.197-4.873,0.601c-1.138,0.294-2.293,0.634-3.399,1.062
			c-0.96,0.371-1.533,1.731-2.327,1.951c-0.735-1.656,0.648-5.461-1.55-6.522c-0.854-0.413-2.853-0.097-3.656,0.283
			c-0.573,0.271-1.131,0.938-1.551,1.401c-0.879,0.968-0.935,1.494-1.029,2.731c-1.629-1.269-4.263,0.413-4.97,2.083
			c-0.368,0.875-0.527,2.688-0.025,3.576c0.342,0.611,1.337,0.718,1.506,1.401c0.006,0.026-0.306,0.93-0.318,1.103
			c-0.171,2.379,2.21,1.539,3.402,2.943c0.73,0.862,0.682,1.453,0.224,2.438c-0.549,1.174-0.579,1.95-0.61,3.26
			c-2.328,0.133-5.01,0.205-5.537,3.156c-0.254,1.422,0.234,2.791,0.916,3.958c0.934,1.603,1.547,2.286,3.494,2.368
			c2.963,0.121,6.095-1.11,6.951-4.127c0.83-2.925,0.229-6.048,0.325-9.068l0.704-0.101c2.543-0.56,5.364-0.559,5.946-3.696
			c0.353,1.518,2.195,2.938,3.716,3.092c0.619,0.063,2.166,0.031,2.662-0.508c0.496,0.539,2.043,0.571,2.664,0.508
			c1.521-0.154,3.363-1.574,3.716-3.092c0.58,3.138,3.403,3.137,5.944,3.696l0.706,0.101c0.095,3.021-0.507,6.144,0.323,9.068
			c0.858,3.017,3.991,4.248,6.953,4.127c1.947-0.082,2.561-0.766,3.494-2.368C88.48,41.765,88.969,40.396,88.715,38.974z"/>
		<g>
			<path fill="#F2B359" d="M45.336,30.117c-0.568,0.001-1.145-0.075-1.514-0.321c-0.248-0.166-0.313-0.5-0.148-0.748
				c0.164-0.247,0.5-0.313,0.746-0.147c0.278,0.186,1.363,0.184,2.369-0.005c1.223-0.229,3.801-1.563,4.581-2.504
				c1.636-1.972,2.39-3.557,1.401-5.816c-0.119-0.273,0.004-0.591,0.276-0.709c0.272-0.121,0.591,0.005,0.71,0.275
				c1.335,3.057-0.104,5.185-1.56,6.938c-0.961,1.157-3.751,2.602-5.212,2.873C46.692,30.009,46.02,30.117,45.336,30.117z"/>
		</g>
		<g>
			<path fill="#F2B359" d="M82.664,30.117c0.57,0.001,1.145-0.075,1.516-0.321c0.246-0.166,0.313-0.5,0.146-0.748
				c-0.164-0.247-0.498-0.313-0.746-0.147c-0.276,0.186-1.361,0.184-2.367-0.005c-1.225-0.229-3.801-1.563-4.581-2.504
				c-1.636-1.972-2.391-3.557-1.401-5.816c0.119-0.273-0.006-0.591-0.278-0.709c-0.271-0.121-0.589,0.005-0.71,0.275
				c-1.335,3.057,0.105,5.185,1.562,6.938c0.96,1.157,3.749,2.602,5.21,2.873C81.308,30.009,81.982,30.117,82.664,30.117z"/>
		</g>
		<g>
			<polygon fill="#E6E8DA" points="40.764,76.452 40.764,71.888 63.825,80.847 			"/>
			<polygon fill="#E6E8DA" points="87.236,76.452 87.236,71.888 64.177,80.847 			"/>
		</g>
		<polygon fill="#E1574C" points="60.674,113.597 38.172,107.618 38.172,74.28 60.674,80.259 		"/>
		<polygon fill="#E1574C" points="67.326,113.597 89.83,107.618 89.83,74.28 67.326,80.259 		"/>
		<rect x="60.674" y="80.259" fill="#BD3929" width="6.652" height="33.338"/>
		<g>
			<path fill="#E4C577" d="M38.482,86.825c-0.068,0.642-0.35,1.436-0.158,2.127c0.207,0.756,1.216,0.715,1.875,1
				c0.686,0.297,0.896,1.167,0.801,1.89c-0.08,0.626-0.77,0.903-0.792,1.485c-0.026,0.667,0.762,1.471,0.451,2.172
				c-0.172,0.389-0.532,0.262-0.765,0.516c-0.26,0.283-0.127,0.664-0.153,1.042c-0.06,0.825-0.438,0.855-1.21,1.04
				c-0.799,0.193-1.43,0.192-2.008-0.453c-0.621-0.693-0.736-1.389-0.727-2.293c0.003-0.366,0.101-0.584,0.158-0.913
				c0.086-0.484-0.021-0.585-0.175-1.044c-0.211-0.625-0.185-1.307-0.155-1.984c0.031-0.676,0.456-0.809,0.633-1.383
				c0.152-0.5-0.137-1.135-0.175-1.615c-0.035-0.429-0.115-1.117,0-1.527c0.239-0.871,1.991-1.283,2.399-0.402"/>
			<path fill="#E4C577" d="M89.518,86.825c0.068,0.642,0.35,1.436,0.159,2.127c-0.208,0.756-1.217,0.715-1.876,1
				c-0.685,0.297-0.896,1.167-0.801,1.89c0.083,0.626,0.771,0.903,0.792,1.485c0.028,0.667-0.762,1.471-0.449,2.172
				c0.172,0.389,0.53,0.262,0.765,0.516c0.26,0.283,0.127,0.664,0.153,1.042c0.06,0.825,0.438,0.855,1.21,1.04
				c0.799,0.193,1.43,0.192,2.006-0.453c0.621-0.693,0.738-1.389,0.728-2.293c-0.004-0.366-0.1-0.584-0.157-0.913
				c-0.088-0.484,0.02-0.585,0.175-1.044c0.211-0.625,0.185-1.307,0.155-1.984c-0.031-0.676-0.458-0.809-0.633-1.383
				c-0.152-0.5,0.137-1.135,0.175-1.615c0.035-0.429,0.114-1.117,0-1.527c-0.241-0.871-1.992-1.283-2.401-0.402"/>
		</g>
		<circle fill="#2E100E" cx="71.021" cy="45.967" r="2.617"/>
		<ellipse fill="#FFFFFF" cx="70.778" cy="45.007" rx="1.468" ry="0.941"/>
		<circle fill="#2E100E" cx="56.981" cy="45.967" r="2.617"/>
		<ellipse fill="#FFFFFF" cx="56.738" cy="45.007" rx="1.468" ry="0.941"/>
		<path fill="#C84328" d="M59.266,54.687c0.087,2.541,2.172,4.574,4.734,4.574s4.647-2.033,4.735-4.574H59.266z"/>
		<g>
			<g>
				<path fill="#482511" d="M59.961,41.347c0,0-0.031,0.023-0.091,0.061c-0.058,0.038-0.144,0.08-0.252,0.133
					c-0.217,0.102-0.522,0.201-0.878,0.251c-0.178,0.026-0.368,0.038-0.567,0.04c-0.199-0.003-0.404-0.02-0.619-0.035
					c-0.213-0.006-0.434-0.025-0.655-0.033c-0.221-0.008-0.445-0.016-0.67-0.023c-0.223-0.002-0.447-0.01-0.666-0.002
					c-0.22-0.002-0.433,0.018-0.645,0.021c-0.206,0.023-0.412,0.023-0.603,0.055c-0.192,0.021-0.376,0.045-0.546,0.076
					c-0.084,0.016-0.168,0.021-0.244,0.041c-0.077,0.016-0.15,0.031-0.223,0.044c-0.069,0.013-0.136,0.026-0.197,0.038
					c-0.06,0.016-0.115,0.031-0.166,0.043c-0.204,0.049-0.327,0.072-0.327,0.072l-0.027-0.045c0,0,0.085-0.088,0.244-0.236
					c0.079-0.076,0.183-0.156,0.305-0.246c0.12-0.093,0.261-0.191,0.425-0.283c0.08-0.047,0.166-0.098,0.255-0.145
					c0.091-0.043,0.187-0.088,0.283-0.133c0.1-0.048,0.202-0.089,0.31-0.127c0.104-0.037,0.215-0.078,0.328-0.115
					c0.224-0.064,0.46-0.133,0.701-0.176c0.243-0.055,0.489-0.082,0.737-0.115c0.247-0.018,0.495-0.046,0.736-0.046
					c0.243-0.009,0.479-0.005,0.706,0.002c0.227,0.013,0.449,0.013,0.652,0.043c0.206,0.028,0.398,0.072,0.571,0.13
					c0.351,0.11,0.631,0.268,0.825,0.404c0.098,0.072,0.173,0.129,0.224,0.179c0.052,0.044,0.078,0.074,0.078,0.074L59.961,41.347z"
					/>
				<path fill="#482511" d="M68.041,41.347c0,0,0.031,0.023,0.09,0.061c0.059,0.038,0.145,0.08,0.253,0.133
					c0.215,0.102,0.522,0.201,0.878,0.251c0.176,0.026,0.367,0.038,0.566,0.04c0.199-0.003,0.405-0.02,0.62-0.035
					c0.212-0.006,0.434-0.025,0.653-0.033c0.223-0.008,0.447-0.016,0.672-0.023c0.222-0.002,0.447-0.01,0.666-0.002
					c0.22-0.002,0.433,0.018,0.645,0.021c0.204,0.023,0.412,0.023,0.604,0.055c0.191,0.021,0.375,0.045,0.545,0.076
					c0.084,0.016,0.168,0.021,0.244,0.041c0.077,0.016,0.15,0.031,0.223,0.044c0.069,0.013,0.136,0.026,0.197,0.038
					c0.061,0.016,0.113,0.031,0.166,0.043c0.203,0.049,0.325,0.072,0.325,0.072l0.028-0.045c0,0-0.086-0.088-0.243-0.236
					c-0.079-0.076-0.183-0.156-0.305-0.246c-0.12-0.093-0.262-0.191-0.425-0.283c-0.082-0.047-0.166-0.098-0.255-0.145
					c-0.093-0.043-0.187-0.088-0.285-0.133c-0.098-0.048-0.2-0.089-0.308-0.127c-0.106-0.037-0.215-0.078-0.328-0.115
					c-0.224-0.064-0.462-0.133-0.703-0.176c-0.241-0.055-0.489-0.082-0.735-0.115c-0.247-0.018-0.495-0.046-0.736-0.046
					c-0.243-0.009-0.479-0.005-0.708,0.002c-0.225,0.013-0.447,0.013-0.651,0.043c-0.205,0.028-0.397,0.072-0.571,0.13
					c-0.35,0.11-0.63,0.268-0.824,0.404c-0.098,0.072-0.173,0.129-0.225,0.179c-0.051,0.044-0.077,0.074-0.077,0.074L68.041,41.347z
					"/>
			</g>
		</g>
	</g>
</g>
</svg>
