<?xml version="1.0" encoding="utf-8"?>
<!-- Generator: Adobe Illustrator 16.0.0, SVG Export Plug-In . SVG Version: 6.00 Build 0)  -->
<!DOCTYPE svg PUBLIC "-//W3C//DTD SVG 1.1//EN" "http://www.w3.org/Graphics/SVG/1.1/DTD/svg11.dtd">
<svg version="1.1" id="Layer_1" xmlns="http://www.w3.org/2000/svg" xmlns:xlink="http://www.w3.org/1999/xlink" x="0px" y="0px"
	 width="128px" height="128px" viewBox="0 0 128 128" enable-background="new 0 0 128 128" xml:space="preserve">
<g>
	<circle fill="#D7DADA" cx="64" cy="64" r="64"/>
	<path fill="#BBC8C3" d="M92.142,25.771l-0.082,0.35l-0.86,17.176L73.926,26.12l-0.859,17.677L55.792,26.12l-0.858,17.176
		L37.659,26.12l-0.86,65.294l-8.702,6.88l-4.808,3.678l24.061,23.827C52.66,127.227,58.238,128,64,128c35.346,0,64-28.653,64-64
		c0-0.935-0.031-1.862-0.07-2.788L92.142,25.771z"/>
	<rect x="35.939" y="26.12" fill="#CF7C3F" width="1.72" height="65.294"/>
	<circle fill="#E1574C" cx="36.799" cy="82.036" r="6.032"/>
	<circle fill="#E1574C" cx="36.799" cy="69.124" r="6.032"/>
	<circle fill="#E1574C" cx="36.799" cy="56.21" r="6.032"/>
	<circle fill="#E1574C" cx="36.799" cy="43.296" r="6.032"/>
	<rect x="54.074" y="26.12" fill="#CF7C3F" width="1.718" height="65.294"/>
	<circle fill="#37A08D" cx="54.933" cy="82.036" r="6.032"/>
	<circle fill="#37A08D" cx="54.933" cy="69.124" r="6.032"/>
	<circle fill="#37A08D" cx="54.933" cy="56.21" r="6.032"/>
	<rect x="72.207" y="26.12" fill="#CF7C3F" width="1.719" height="65.294"/>
	<circle fill="#2C4451" cx="73.067" cy="82.036" r="6.032"/>
	<circle fill="#2C4451" cx="73.067" cy="69.124" r="6.032"/>
	<rect x="90.34" y="26.12" fill="#CF7C3F" width="1.72" height="65.294"/>
	<circle fill="#AB5B30" cx="91.2" cy="82.036" r="6.032"/>
	<rect x="23.275" y="90.04" fill="#CF7C3F" width="81.448" height="11.84"/>
</g>
</svg>
