<?xml version="1.0" encoding="utf-8"?>
<!-- Generator: Adobe Illustrator 16.0.0, SVG Export Plug-In . SVG Version: 6.00 Build 0)  -->
<!DOCTYPE svg PUBLIC "-//W3C//DTD SVG 1.1//EN" "http://www.w3.org/Graphics/SVG/1.1/DTD/svg11.dtd">
<svg version="1.1" id="Layer_1" xmlns="http://www.w3.org/2000/svg" xmlns:xlink="http://www.w3.org/1999/xlink" x="0px" y="0px"
	 width="128px" height="128px" viewBox="0 0 128 128" enable-background="new 0 0 128 128" xml:space="preserve">
<g>
	<circle fill="#455D6A" cx="64" cy="64" r="64"/>
	<circle fill="#82898B" cx="64" cy="64" r="64"/>
	<path fill="#647376" d="M108.745,52.654l-1.146,0.679L20.616,65.349l25.299,22.843l-5.179,6.37l-3.582,1.816l-0.541,0.218
		l31.303,31.273c31.038-1.875,56.096-25.863,59.639-56.423L108.745,52.654z"/>
	<path fill="#EDC55D" d="M107.966,53.333l-0.334,0.043C75.167,79.339,33.06,69.04,19.745,64.813
		c3.173,1.96,16.814,10.24,29.919,15.932l-9.805,13.252c-0.441,0.183-1.25,0.422-1.784,0.192c-0.111-0.048-0.45-0.194-0.665-0.948
		l-2.284,0.653c0.438,1.528,1.343,2.194,2.028,2.483c0.478,0.205,0.975,0.279,1.446,0.279c1.298,0,2.427-0.575,2.591-0.662
		l0.237-0.126l10.485-14.172c8.056,3.323,15.662,5.458,20.203,4.284c4.368-1.131,9.723-5.033,14.949-9.759l10.454,14.128
		l0.234,0.127c0.166,0.088,1.293,0.664,2.594,0.664c0.472,0,0.968-0.078,1.447-0.28c0.683-0.291,1.589-0.957,2.026-2.485
		l-2.285-0.652c-0.214,0.755-0.553,0.9-0.665,0.948c-0.536,0.23-1.347-0.011-1.784-0.192L88.819,74.603
		C98.871,65.12,107.966,53.333,107.966,53.333z"/>
	<path fill="#FFFFFF" d="M77.624,44.193c-1.343-7.315-7.571-12.852-15.065-12.852c-8.474,0-15.343,7.075-15.343,15.803
		c0,0.452,0.03,0.897,0.064,1.339C52.928,50.138,65.432,52.282,77.624,44.193z M59.586,35.481c0,0-4.667,1.801-3.354,11.26h-3.936
		C52.297,46.741,53.169,35.18,59.586,35.481z"/>
	<path fill="#D7DADA" d="M108.254,53.143L77.663,43.86c0.01,0.043,0.022,0.085,0.03,0.13c-12.249,7.89-24.809,5.798-30.48,4.185
		c-0.002-0.018-0.002-0.037-0.004-0.056L19.845,64.583C19.845,64.583,71.788,84.937,108.254,53.143z M68.558,52.683l6.311,11.99
		l-1.028,0.541l-6.312-11.99L68.558,52.683z M66.196,53.274l4.041,12.244l-1.105,0.364l-4.039-12.242L66.196,53.274z M63.698,53.397
		l1.39,13.379l-1.156,0.12l-1.391-13.378L63.698,53.397z M60.268,53.414L61.43,53.5l-1.011,13.38l-1.161-0.088L60.268,53.414z
		 M33.206,66.332l-6.563-2.019l21.711-13.633l3.406,0.883L33.206,66.332z M54.979,66.719l2.776-13.38l1.139,0.236l-2.777,13.379
		L54.979,66.719z"/>
</g>
</svg>
