<?xml version="1.0" encoding="utf-8"?>
<!-- Generator: Adobe Illustrator 16.0.0, SVG Export Plug-In . SVG Version: 6.00 Build 0)  -->
<!DOCTYPE svg PUBLIC "-//W3C//DTD SVG 1.1//EN" "http://www.w3.org/Graphics/SVG/1.1/DTD/svg11.dtd">
<svg version="1.1" id="Layer_1" xmlns="http://www.w3.org/2000/svg" xmlns:xlink="http://www.w3.org/1999/xlink" x="0px" y="0px"
	 width="128px" height="128px" viewBox="0 0 128 128" enable-background="new 0 0 128 128" xml:space="preserve">
<g>
	<circle fill="#2DA8D2" cx="64" cy="64" r="64"/>
	<path fill="#2094BB" d="M90.155,34.213l-2.104,3.864L21.505,85.984l-3.378,3.38l38.583,38.21C59.104,127.846,61.534,128,64,128
		c32.886,0,59.965-24.808,63.577-56.728L90.155,34.213z"/>
	<g>
		<path fill="#D7DADA" d="M91.255,87.698c0,1.65-1.351,3-3,3H20.729c-1.65,0-3-1.35-3-3V36.913c0-1.65,1.35-3,3-3h67.526
			c1.649,0,3,1.35,3,3V87.698z"/>
		
			<rect x="88.158" y="43.118" transform="matrix(0.6845 -0.729 0.729 0.6845 -8.2458 87.4418)" fill="#AB3326" width="17.488" height="20.26"/>
		<g>
			<g>
				<rect x="32.707" y="45.375" fill="#82898B" width="43.568" height="2"/>
			</g>
			<g>
				<rect x="32.707" y="55.996" fill="#82898B" width="43.568" height="2"/>
			</g>
			<g>
				<rect x="32.707" y="66.615" fill="#82898B" width="43.568" height="2"/>
			</g>
			<g>
				<rect x="32.707" y="77.236" fill="#82898B" width="34.875" height="2"/>
			</g>
		</g>
		<path fill="#EDC55D" d="M91.17,59.826l-1.011-0.949l-3.32-3.114l-1.852-1.743c-5.113,2.768-19.276,11.232-19.276,11.232
			c1.918,9.965-0.609,17.535-2.205,21.049c-1.479-0.968-3.48-0.771-4.73,0.561c-1.404,1.494-1.33,3.842,0.166,5.246l3.484-3.711
			c-0.02,0.032-0.045,0.07-0.045,0.07l14.377-15.313c-0.448-0.822-0.352-1.869,0.323-2.587c0.843-0.897,2.253-0.942,3.149-0.101
			c0.896,0.843,0.941,2.252,0.101,3.149c-0.677,0.718-1.714,0.881-2.562,0.485L63.392,89.416c0,0,0.038-0.026,0.071-0.051
			l-3.487,3.715c1.496,1.404,3.845,1.33,5.247-0.164c1.252-1.334,1.32-3.342,0.261-4.758c3.405-1.813,10.801-4.813,20.867-3.528
			c0,0,7.554-14.67,9.992-19.948l-2.575-2.417L91.17,59.826z"/>
	</g>
</g>
</svg>
