<?xml version="1.0" encoding="utf-8"?>
<!-- Generator: Adobe Illustrator 16.0.0, SVG Export Plug-In . SVG Version: 6.00 Build 0)  -->
<!DOCTYPE svg PUBLIC "-//W3C//DTD SVG 1.1//EN" "http://www.w3.org/Graphics/SVG/1.1/DTD/svg11.dtd">
<svg version="1.1" id="Layer_1" xmlns="http://www.w3.org/2000/svg" xmlns:xlink="http://www.w3.org/1999/xlink" x="0px" y="0px"
	 width="128px" height="128px" viewBox="0 0 128 128" enable-background="new 0 0 128 128" xml:space="preserve">
<g>
	<circle fill="#D7DADA" cx="64" cy="64" r="64"/>
	<path fill="#AEB4AD" d="M77.352,21.48l-10.357,2.174l-3.801,16.497l-4.4,1.925l-4.742-5.08l-1.219,0.026
		c0,0,2.463-1.426-3.721,0.751c-6.182,2.177-6.775,14.621-6.775,14.621l-7.545,6.393L40.943,64v46.544l-1.662,1.994l14.846,14.702
		C57.345,127.738,60.642,128,64,128c32.903,0,59.993-24.832,63.584-56.774L77.352,21.48z"/>
	<g>
		<path fill="#FFFFFF" d="M49.111,48.321c2.979-4.657,8.529-7.788,14.889-7.788c6.36,0,11.913,3.133,14.889,7.788
			C74.961,50.85,69.736,52.395,64,52.395C58.263,52.395,53.041,50.85,49.111,48.321z"/>
		<rect x="59.746" y="35.479" fill="#E2A752" width="8.51" height="7.999"/>
		<ellipse fill="#EECE7B" cx="64.001" cy="29.384" rx="7.849" ry="10.611"/>
		<path fill="#313133" d="M49.111,48.321c3.93,2.528,9.152,4.073,14.889,4.073c5.737,0,10.961-1.545,14.889-4.073
			c1.471,2.3,2.316,4.975,2.316,7.827c0,0.484-0.027,0.963-0.074,1.436C76.705,60.323,70.664,62.011,64,62.011
			c-6.664,0-12.705-1.688-17.131-4.427c-0.047-0.473-0.074-0.951-0.074-1.436C46.794,53.296,47.64,50.621,49.111,48.321z"/>
		
			<rect x="62.697" y="44.018" transform="matrix(-0.707 -0.7072 0.7072 -0.707 77.1975 122.6228)" fill="#313133" width="2.606" height="2.604"/>
		<g>
			<g>
				<g>
					<polygon fill="#DDDDE1" points="68.438,40.151 64,43.479 66.059,46.464 69.986,41.708 					"/>
				</g>
				<g>
					<polygon fill="#DDDDE1" points="59.564,40.151 64,43.479 61.943,46.464 58.015,41.708 					"/>
				</g>
			</g>
		</g>
		<path fill="#322C2E" d="M71.711,25.479v3.761c0,0-7.524-1.963-15.372,0v-3.761H71.711z"/>
		<polygon fill="#525458" points="62.048,15.388 77.842,21.525 65.271,30.732 48.544,23.061 		"/>
		<ellipse fill="#221F1F" cx="63.534" cy="21.953" rx="1.8" ry="1.107"/>
		<path fill="#BE1E2D" d="M63.937,21.891c0.115-0.079,0.273-0.049,0.352,0.068c0.258,0.38,0.743,0.649,1.213,0.908
			c0.193,0.107,0.385,0.213,0.551,0.322c0.545,0.354,1.072,0.529,1.646,0.691c0.066-0.025,0.141-0.023,0.207,0.015
			c0.076,0.041,0.152,0.075,0.23,0.109c0.123,0.032,0.25,0.065,0.379,0.104c0.818,0.232,1.668,0.363,2.49,0.488l0.275,0.042
			c0.594,0.091,1.156,0.177,1.654,0.609c0.65,0.562,0.967,1.317,1.273,2.048c0.633,1.503,0.682,3.831,0.406,5.259
			c-0.105,0.538-0.262,1.049-0.416,1.544c-0.24,0.774-0.467,1.506-0.504,2.332c-0.053,1.189,0.291,1.953,1.082,2.398
			c0.123,0.068,0.166,0.224,0.098,0.345c-0.047,0.083-0.133,0.13-0.221,0.13c-0.043,0-0.086-0.009-0.125-0.033
			c-0.965-0.543-1.402-1.479-1.342-2.863c0.039-0.891,0.287-1.688,0.525-2.458c0.15-0.481,0.307-0.981,0.404-1.491
			c0.135-0.7,0.184-1.625,0.123-2.543c-0.068,0.906-0.338,1.792-0.656,2.732c-0.518,1.527-0.844,2.926-0.969,4.154l-0.006,0.071
			c-0.184,1.76,0.018,2.151,0.154,2.229c0.121,0.07,0.162,0.226,0.094,0.346c-0.047,0.082-0.135,0.129-0.219,0.129
			c-0.045,0-0.088-0.012-0.127-0.034c-0.572-0.327-0.533-1.501-0.406-2.723l0.006-0.071c0.129-1.265,0.463-2.7,0.992-4.264
			c0.492-1.453,0.844-2.674,0.529-4.051c-0.115-0.508-0.508-1.195-0.795-1.699l-0.094-0.166c-0.049-0.085-0.104-0.154-0.152-0.227
			c0.352,0.601,0.574,1.391,0.666,2.394c0.125,1.383-0.072,2.479-0.668,3.669c-0.656,1.31-1.121,2.354-1.119,3.879
			c0.002,0.338-0.025,0.66-0.055,0.973c-0.025,0.295-0.051,0.575-0.053,0.869c0,0.139-0.113,0.251-0.254,0.251c0,0,0,0-0.002,0
			c-0.141-0.001-0.252-0.116-0.252-0.256c0.004-0.313,0.031-0.616,0.057-0.909c0.027-0.314,0.053-0.612,0.053-0.926
			c-0.002-1.635,0.506-2.78,1.172-4.107c0.549-1.1,0.734-2.115,0.615-3.396c-0.137-1.506-0.592-2.51-1.35-2.981
			c-0.258-0.161-0.574-0.331-0.895-0.485c-0.043-0.01-0.084-0.02-0.127-0.028c-0.846-0.175-1.797-0.375-2.51-0.832
			c-0.74-0.201-1.387-0.384-2.094-0.842c-0.158-0.103-0.336-0.202-0.52-0.303c-0.499-0.276-1.063-0.589-1.389-1.069
			C63.791,22.125,63.82,21.969,63.937,21.891z"/>
		<rect x="34.791" y="50.08" fill="#A6592E" width="58.42" height="8.707"/>
		<rect x="38.906" y="58.787" fill="#B75D33" width="50.19" height="53.825"/>
		<rect x="48.367" y="58.787" fill="#CB7148" width="31.266" height="53.825"/>
		<path fill="none" stroke="#233640" stroke-miterlimit="10" d="M42.335,50.08c0,0,1.797-13.374,9.152-12.568"/>
		<ellipse fill="#233640" cx="52.126" cy="37.41" rx="2.045" ry="1.266"/>
	</g>
</g>
</svg>
