<?xml version="1.0" encoding="utf-8"?>
<!-- Generator: Adobe Illustrator 16.0.0, SVG Export Plug-In . SVG Version: 6.00 Build 0)  -->
<!DOCTYPE svg PUBLIC "-//W3C//DTD SVG 1.1//EN" "http://www.w3.org/Graphics/SVG/1.1/DTD/svg11.dtd">
<svg version="1.1" id="Layer_1" xmlns="http://www.w3.org/2000/svg" xmlns:xlink="http://www.w3.org/1999/xlink" x="0px" y="0px"
	 width="128px" height="128px" viewBox="0 0 128 128" enable-background="new 0 0 128 128" xml:space="preserve">
<g>
	<circle fill="#E3E7E7" cx="64" cy="64" r="64"/>
	<path fill="#C5D1D0" d="M90.739,20.828v18.761L72.913,21.627v17.264L55.087,21.627l-1.162,14.775L37.261,21.627l-5.473,78.676
		l-3.501,4.883l21.393,21.186C54.286,127.425,59.074,128,64,128c35.346,0,64-28.653,64-64c0-2.23-0.116-4.436-0.339-6.607
		L90.739,20.828z"/>
	<g>
		<path fill="#EECE7B" d="M37.261,46.478c4.836,0,8.764-0.843,8.9-1.895v-0.078h-0.107l-7.442-18.179H35.91l-7.442,18.179H28.36
			v0.078C28.497,45.635,32.425,46.478,37.261,46.478z"/>
		<path fill="#D7B353" d="M37.261,46.478c-4.836,0-8.764-0.843-8.9-1.895v0.184l-0.013,0.032l0.013,0.031v59.537
			c-0.002,0.02-0.013,0.037-0.013,0.056c0,1.078,3.991,1.95,8.913,1.95c4.923,0,8.913-0.872,8.913-1.95
			c0-0.019-0.011-0.036-0.013-0.056V44.83l0.013-0.031l-0.013-0.032v-0.184C46.024,45.635,42.097,46.478,37.261,46.478z"/>
		<path fill="#EDC55D" d="M38.423,26.326c-0.146-2.713-0.609-4.699-1.162-4.699c-0.552,0-1.018,1.986-1.162,4.699H38.423z"/>
		<path fill="#233640" d="M37.261,97.038c-4.922,0-8.913-0.872-8.913-1.949v0.978c0,1.078,3.991,1.951,8.913,1.951
			c4.923,0,8.913-0.873,8.913-1.951v-0.978C46.174,96.166,42.184,97.038,37.261,97.038z"/>
		<path fill="#233640" d="M37.261,47.559c-4.922,0-8.913-0.873-8.913-1.951v0.979c0,1.077,3.991,1.95,8.913,1.95
			c4.923,0,8.913-0.873,8.913-1.95v-0.979C46.174,46.686,42.184,47.559,37.261,47.559z"/>
		<ellipse fill="#283E49" cx="36.099" cy="74.195" rx="5.031" ry="14.134"/>
		<path fill="#91D7EE" d="M55.087,46.478c4.836,0,8.764-0.843,8.9-1.895v-0.078H63.88l-7.442-18.179h-2.701l-7.442,18.179h-0.107
			v0.078C46.323,45.635,50.25,46.478,55.087,46.478z"/>
		<path fill="#4ABDE5" d="M55.087,46.478c-4.837,0-8.764-0.843-8.9-1.895v0.184l-0.013,0.032l0.013,0.031v59.537
			c-0.002,0.02-0.013,0.037-0.013,0.056c0,1.078,3.991,1.95,8.913,1.95c4.923,0,8.913-0.872,8.913-1.95
			c0-0.019-0.011-0.036-0.013-0.056V44.83L64,44.799l-0.013-0.032v-0.184C63.851,45.635,59.923,46.478,55.087,46.478z"/>
		<path fill="#4ABDE5" d="M56.249,26.326c-0.146-2.713-0.609-4.699-1.162-4.699s-1.018,1.986-1.162,4.699H56.249z"/>
		<path fill="#233640" d="M55.087,97.038c-4.922,0-8.913-0.872-8.913-1.949v0.978c0,1.078,3.991,1.951,8.913,1.951
			c4.923,0,8.913-0.873,8.913-1.951v-0.978C64,96.166,60.01,97.038,55.087,97.038z"/>
		<path fill="#233640" d="M55.087,47.559c-4.922,0-8.913-0.873-8.913-1.951v0.979c0,1.077,3.991,1.95,8.913,1.95
			c4.923,0,8.913-0.873,8.913-1.95v-0.979C64,46.686,60.01,47.559,55.087,47.559z"/>
		<ellipse fill="#283E49" cx="53.925" cy="74.195" rx="5.031" ry="14.134"/>
		<path fill="#A5D06E" d="M72.913,46.478c4.836,0,8.764-0.843,8.9-1.895v-0.078h-0.107l-7.442-18.179h-2.701L64.12,44.505h-0.107
			v0.078C64.149,45.635,68.076,46.478,72.913,46.478z"/>
		<path fill="#88AE4A" d="M72.913,46.478c-4.837,0-8.764-0.843-8.9-1.895v0.184L64,44.799l0.013,0.031v59.537
			c-0.002,0.02-0.013,0.037-0.013,0.056c0,1.078,3.991,1.95,8.913,1.95c4.923,0,8.913-0.872,8.913-1.95
			c0-0.019-0.011-0.036-0.013-0.056V44.83l0.013-0.031l-0.013-0.032v-0.184C81.677,45.635,77.749,46.478,72.913,46.478z"/>
		<path fill="#88AE4A" d="M74.075,26.326c-0.146-2.713-0.609-4.699-1.162-4.699c-0.552,0-1.018,1.986-1.162,4.699H74.075z"/>
		<path fill="#233640" d="M72.913,97.038c-4.922,0-8.913-0.872-8.913-1.949v0.978c0,1.078,3.991,1.951,8.913,1.951
			c4.923,0,8.913-0.873,8.913-1.951v-0.978C81.826,96.166,77.836,97.038,72.913,97.038z"/>
		<path fill="#233640" d="M72.913,47.559c-4.922,0-8.913-0.873-8.913-1.951v0.979c0,1.077,3.991,1.95,8.913,1.95
			c4.923,0,8.913-0.873,8.913-1.95v-0.979C81.826,46.686,77.836,47.559,72.913,47.559z"/>
		<ellipse fill="#283E49" cx="71.751" cy="74.195" rx="5.031" ry="14.134"/>
		<path fill="#E1574C" d="M90.739,46.478c4.836,0,8.764-0.843,8.899-1.895v-0.078h-0.107l-7.442-18.179h-2.7l-7.442,18.179h-0.107
			v0.078C81.976,45.635,85.902,46.478,90.739,46.478z"/>
		<path fill="#C8574B" d="M90.739,46.478c-4.837,0-8.764-0.843-8.9-1.895v0.184l-0.013,0.032l0.013,0.031v59.537
			c-0.002,0.02-0.013,0.037-0.013,0.056c0,1.078,3.991,1.95,8.913,1.95c4.923,0,8.913-0.872,8.913-1.95
			c0-0.019-0.011-0.036-0.014-0.056V44.83l0.014-0.031l-0.014-0.032v-0.184C99.503,45.635,95.575,46.478,90.739,46.478z"/>
		<path fill="#BD3929" d="M91.901,26.326c-0.146-2.713-0.609-4.699-1.162-4.699s-1.018,1.986-1.162,4.699H91.901z"/>
		<path fill="#233640" d="M90.739,97.038c-4.922,0-8.913-0.872-8.913-1.949v0.978c0,1.078,3.991,1.951,8.913,1.951
			c4.923,0,8.913-0.873,8.913-1.951v-0.978C99.652,96.166,95.662,97.038,90.739,97.038z"/>
		<path fill="#233640" d="M90.739,47.559c-4.922,0-8.913-0.873-8.913-1.951v0.979c0,1.077,3.991,1.95,8.913,1.95
			c4.923,0,8.913-0.873,8.913-1.95v-0.979C99.652,46.686,95.662,47.559,90.739,47.559z"/>
		<ellipse fill="#283E49" cx="89.577" cy="74.195" rx="5.031" ry="14.134"/>
	</g>
</g>
</svg>
