<?xml version="1.0" encoding="utf-8"?>
<!-- Generator: Adobe Illustrator 16.0.0, SVG Export Plug-In . SVG Version: 6.00 Build 0)  -->
<!DOCTYPE svg PUBLIC "-//W3C//DTD SVG 1.1//EN" "http://www.w3.org/Graphics/SVG/1.1/DTD/svg11.dtd">
<svg version="1.1" id="Layer_1" xmlns="http://www.w3.org/2000/svg" xmlns:xlink="http://www.w3.org/1999/xlink" x="0px" y="0px"
	 width="128px" height="128px" viewBox="0 0 128 128" enable-background="new 0 0 128 128" xml:space="preserve">
<g>
	<circle fill="#EECE7B" cx="64" cy="64" r="64"/>
	<path fill="#D8B35F" d="M73.342,24.533L61.236,40.559L49.609,69.416l-11.627,19.21l-6.361,4.44l35.201,34.862
		c29.527-1.282,53.857-22.564,59.787-50.643L73.342,24.533z"/>
	<g>
		<path fill="#E3E5E5" d="M100.363,74.686c-0.119,0.244-0.291,0.469-0.512,0.654c-0.846,0.713-2.107,0.604-2.818-0.24L64.094,35.974
			c-0.711-0.844-0.604-2.109,0.242-2.817c0.846-0.713,2.107-0.604,2.818,0.241l32.938,39.126
			C100.619,73.146,100.697,73.998,100.363,74.686z"/>
	</g>
	<circle fill="#358D7E" cx="65.412" cy="33.947" r="12.066"/>
	<g>
		<path fill="#E3E5E5" d="M44.295,83.418c-0.271,0-0.549-0.056-0.813-0.174c-1.01-0.448-1.463-1.631-1.014-2.64l20.785-46.729
			c0.449-1.009,1.633-1.465,2.641-1.015c1.01,0.448,1.463,1.631,1.014,2.64L46.123,82.229
			C45.791,82.975,45.061,83.418,44.295,83.418z"/>
	</g>
	<circle fill="#41ADD1" cx="99.801" cy="77.184" r="14.279"/>
	<g>
		<path fill="#E3E5E5" d="M99.041,75.779c0.131,0.239,0.213,0.509,0.234,0.797c0.088,1.103-0.734,2.064-1.834,2.151L46.453,82.74
			c-1.102,0.087-2.068-0.737-2.152-1.836c-0.086-1.103,0.736-2.065,1.838-2.151l50.988-4.012
			C97.939,74.675,98.678,75.107,99.041,75.779z"/>
	</g>
	<circle fill="#E1574C" cx="44.295" cy="80.805" r="17.898"/>
</g>
</svg>
