<?xml version="1.0" encoding="utf-8"?>
<!-- Generator: Adobe Illustrator 16.0.0, SVG Export Plug-In . SVG Version: 6.00 Build 0)  -->
<!DOCTYPE svg PUBLIC "-//W3C//DTD SVG 1.1//EN" "http://www.w3.org/Graphics/SVG/1.1/DTD/svg11.dtd">
<svg version="1.1" id="Layer_1" xmlns="http://www.w3.org/2000/svg" xmlns:xlink="http://www.w3.org/1999/xlink" x="0px" y="0px"
	 width="128px" height="128px" viewBox="0 0 128 128" enable-background="new 0 0 128 128" xml:space="preserve">
<g>
	<circle fill="#AEB4AD" cx="64" cy="64" r="64"/>
	<path fill="#82898B" d="M101.401,31.997L25.115,89.814l10.147,12.062l-3.797,3.178l-2.047,2.122l19.117,18.932
		C53.489,127.337,58.666,128,64,128c35.346,0,64-28.653,64-64c0-2.005-0.104-3.986-0.285-5.945L101.401,31.997z"/>
	<g>
		<path fill="#F6FAF7" d="M71.798,104.918c-1.592,3.405-5.682,4.893-9.09,3.302L27.624,91.834c-3.407-1.592-4.895-5.683-3.304-9.089
			l30.531-65.372c1.592-3.406,5.682-4.893,9.09-3.301l35.084,16.385c3.409,1.592,4.896,5.683,3.303,9.09L71.798,104.918z"/>
		<path fill="#9DCBD8" d="M49.609,94.098c-0.467,1.004-1.469,1.533-2.227,1.18c-0.757-0.353-0.992-1.463-0.524-2.465l30.181-64.621
			c0.469-1,1.471-1.531,2.226-1.178c0.758,0.353,0.994,1.461,0.525,2.464L49.609,94.098z"/>
		<circle fill="#25A5D0" cx="62.882" cy="29.38" r="5.56"/>
		<circle fill="#BD3929" cx="54.815" cy="46.651" r="5.56"/>
		<circle fill="#CF7C3F" cx="46.749" cy="63.923" r="5.559"/>
		<circle fill="#D59BC5" cx="38.682" cy="81.195" r="5.56"/>
		<circle fill="#F2B359" cx="87.967" cy="41.096" r="5.561"/>
		<path fill="#AEB4AD" d="M84.938,60.721c-1.3,2.782-4.608,3.983-7.391,2.684c-2.781-1.299-3.984-4.607-2.685-7.389
			c1.299-2.785,4.608-3.985,7.391-2.686C85.035,54.629,86.237,57.937,84.938,60.721z"/>
		<path fill="#283E49" d="M76.871,77.992c-1.298,2.781-4.607,3.982-7.39,2.684c-2.783-1.299-3.985-4.607-2.686-7.388
			c1.3-2.785,4.609-3.985,7.391-2.687C76.97,71.9,78.171,75.209,76.871,77.992z"/>
		<circle fill="#E5766D" cx="63.767" cy="92.911" r="5.559"/>
		<g>
			<path fill="#7E2918" d="M61.368,85.164c29.562-18.971,54.264-33.193,55.176-31.77c0.912,1.42-22.31,17.947-51.869,36.918
				c-0.18,0.115-0.359,0.229-0.539,0.346l-3.303-5.151C61.013,85.393,61.189,85.279,61.368,85.164z"/>
			<path fill="#ABABAB" d="M64.136,90.658c-4.984,3.19-9.827,6.25-14.438,9.118l-3.174-4.946c4.528-2.993,9.326-6.123,14.309-9.323
				L64.136,90.658z"/>
			<path fill="#958E8E" d="M62.594,88.248l1.542,2.41c-4.984,3.19-9.827,6.25-14.438,9.118l-1.479-2.304L62.594,88.248z"/>
			<path fill="#272727" d="M44.806,102.814c-1.374-0.935-2.498,0.039-3.422-1.748c-0.468-0.906-0.095-0.814,0.34-1.656
				c0.442-0.867,0.279-1.225-0.264-2.012c-0.635-0.918-0.736-0.719-1.716-0.863c-0.315-0.046-0.604-0.129-0.874-0.236
				c0.083-0.033,0.164-0.07,0.249-0.105c3.953-1.491,7.405-1.363,7.405-1.363l3.174,4.946c0,0-1.263,1.833-4.117,4.002
				C45.449,103.417,45.2,103.084,44.806,102.814z"/>
			<path fill="#D62526" d="M39.744,96.535c0.979,0.145,1.081-0.055,1.716,0.863c0.543,0.787,0.706,1.145,0.264,2.012
				c-0.435,0.842-0.808,0.75-0.34,1.656c0.924,1.787,2.048,0.813,3.422,1.748c0.395,0.27,0.644,0.603,0.775,0.964
				c-0.428,0.326-0.895,0.657-1.396,0.995c-3.84,2.57-10.06-1.36-14.545,2.681c0,0,2.603-8.464,9.23-11.155
				C39.14,96.406,39.429,96.489,39.744,96.535z"/>
			<path fill="#191818" d="M48.194,97.43l1.504,2.347c0,0-1.263,1.833-4.117,4.002c-0.132-0.361-0.381-0.694-0.775-0.964
				c-1.213-0.827-2.231-0.166-3.09-1.229L48.194,97.43z"/>
			<path fill="#C62127" d="M41.716,101.586c0.858,1.063,1.877,0.401,3.09,1.229c0.395,0.27,0.644,0.603,0.775,0.964
				c-0.428,0.326-0.895,0.657-1.396,0.995c-2.299,1.54-5.455,0.749-8.579,0.732L41.716,101.586z"/>
			<path opacity="0.5" fill="#FFFFFF" d="M115.015,54.129c0,0-4.183,2.396-10.462,5.993c-3.14,1.798-6.776,3.939-10.677,6.229
				c-1.949,1.149-3.96,2.335-6.006,3.541c-2.036,1.22-4.106,2.458-6.176,3.695c-2.063,1.25-4.126,2.501-6.158,3.731
				c-2.025,1.236-4.022,2.449-5.943,3.646c-1.924,1.188-3.785,2.332-5.535,3.446c-0.876,0.557-1.728,1.097-2.55,1.62
				c-0.825,0.521-1.605,1.05-2.362,1.542c-1.518,0.986-2.894,1.918-4.098,2.758c-1.21,0.839-2.279,1.547-3.119,2.189
				c-1.705,1.248-2.666,1.978-2.666,1.978l0.039,0.05c0,0,1.018-0.65,2.773-1.816c0.22-0.144,0.451-0.297,0.694-0.456
				c0.247-0.157,0.505-0.322,0.772-0.491c0.535-0.342,1.111-0.715,1.729-1.113c0.62-0.396,1.271-0.825,1.972-1.261
				c0.695-0.437,1.43-0.9,2.195-1.382c1.522-0.969,3.18-2.014,4.938-3.114c1.749-1.11,3.601-2.266,5.521-3.459
				c1.914-1.202,3.908-2.419,5.93-3.664c2.026-1.237,4.086-2.491,6.142-3.746c4.127-2.495,8.254-4.991,12.124-7.33
				c3.878-2.326,7.499-4.495,10.602-6.353c6.212-3.707,10.354-6.177,10.354-6.177L115.015,54.129z"/>
			<path opacity="0.5" fill="#FFFFFF" d="M38.724,97.17c0,0-4.739,2.213-7.258,7.884c0,0,5.687-5.149,8.299-6.026
				C39.765,99.027,41.098,97.896,38.724,97.17z"/>
		</g>
	</g>
</g>
</svg>
