<?xml version="1.0" encoding="utf-8"?>
<!-- Generator: Adobe Illustrator 16.0.0, SVG Export Plug-In . SVG Version: 6.00 Build 0)  -->
<!DOCTYPE svg PUBLIC "-//W3C//DTD SVG 1.1//EN" "http://www.w3.org/Graphics/SVG/1.1/DTD/svg11.dtd">
<svg version="1.1" id="Layer_1" xmlns="http://www.w3.org/2000/svg" xmlns:xlink="http://www.w3.org/1999/xlink" x="0px" y="0px"
	 width="128px" height="128px" viewBox="0 0 128 128" enable-background="new 0 0 128 128" xml:space="preserve">
<g>
	<circle fill="#E5766D" cx="64" cy="64" r="64"/>
	<path fill="#E1574C" d="M99.846,27.462l-7.313,2.175L15.386,51.679l-6.035,1.609l72.791,72.088C108.649,117.552,128,93.043,128,64
		c0-3.171-0.239-6.286-0.685-9.335L99.846,27.462z"/>
	<g>
		<g>
			<polygon fill="#0D0C0C" points="51.891,30.575 9.257,52.962 57.308,49.812 99.941,27.425 			"/>
			<path fill="#282627" d="M55.458,37.864c-13.625,3.838-24.021,9.248-23.223,12.088l4.246,15.082l49.34-13.895l-4.246-15.08
				C80.777,33.22,69.082,34.028,55.458,37.864z"/>
			
				<ellipse transform="matrix(0.9626 -0.2711 0.2711 0.9626 -13.4559 18.7507)" fill="#514F4F" cx="61.151" cy="58.087" rx="25.629" ry="5.343"/>
		</g>
		<g>
			<path fill="#D7DADA" d="M70.84,52.026c-14.159,0-25.638,11.482-25.638,25.639c0,14.164,11.479,25.641,25.638,25.641
				c14.161,0,25.643-11.477,25.643-25.641C96.482,63.509,85.001,52.026,70.84,52.026z M70.84,80.653
				c-1.646,0-2.983-1.336-2.983-2.984c0-1.65,1.338-2.986,2.983-2.986c1.65,0,2.99,1.336,2.99,2.986
				C73.83,79.317,72.49,80.653,70.84,80.653z"/>
			<path fill="#82898B" d="M70.84,70.13c-4.159,0-7.536,3.375-7.536,7.535c0,4.164,3.377,7.539,7.536,7.539
				c4.164,0,7.541-3.375,7.541-7.539C78.381,73.505,75.004,70.13,70.84,70.13z M70.84,80.653c-1.646,0-2.983-1.336-2.983-2.984
				c0-1.65,1.338-2.986,2.983-2.986c1.65,0,2.99,1.336,2.99,2.986C73.83,79.317,72.49,80.653,70.84,80.653z"/>
			<path fill="#AEB4AD" d="M70.886,54.03l-0.317,15.174c0,0,4.136-0.105,7.532,4.139l13.371-7.32
				C91.472,66.022,85.001,53.819,70.886,54.03z"/>
			<path fill="#AEB4AD" d="M67.765,101.517l2.05-15.037c0,0-4.124-0.367-7.014-4.971l-14.119,5.746
				C48.682,87.255,53.717,100.118,67.765,101.517z"/>
		</g>
		<path fill="none" stroke="#F2B359" stroke-miterlimit="10" d="M74.89,28.614c2.409,1.77,2.005,6.275,2.179,9.018
			c0.255,3.998,1.825,7.422,4.716,10.279c3.521,3.48,7.927,5.178,11.224,9.164c2.818,3.406,7.628,10.633,6.97,15.129"/>
		<path fill="none" stroke="#F2B359" stroke-miterlimit="10" d="M78.527,43.81c-0.083,4.988,4.957,9.344,8.149,12.748
			c4.106,4.379,7.903,11.025,7.367,17.268"/>
		<path fill="none" stroke="#F2B359" stroke-miterlimit="10" d="M78.383,43.083c0,5.398,0.577,11.404,5.514,14.727
			c2.436,1.639,5.488,2.227,8.06,3.545c1.296,0.664,4.633,2.32,4.697,3.916"/>
		<path fill="none" stroke="#F2B359" stroke-miterlimit="10" d="M78.093,42.069c-1.325,3.518-1.955,8.459-1.417,12.244
			c0.448,3.156,3.391,6.684,5.502,8.918c1.202,1.273,2.696,2.232,3.854,3.555c1.226,1.398,1.567,3.275,2.646,4.574"/>
	</g>
</g>
</svg>
