<?xml version="1.0" encoding="utf-8"?>
<!-- Generator: Adobe Illustrator 16.0.0, SVG Export Plug-In . SVG Version: 6.00 Build 0)  -->
<!DOCTYPE svg PUBLIC "-//W3C//DTD SVG 1.1//EN" "http://www.w3.org/Graphics/SVG/1.1/DTD/svg11.dtd">
<svg version="1.1" id="Layer_1" xmlns="http://www.w3.org/2000/svg" xmlns:xlink="http://www.w3.org/1999/xlink" x="0px" y="0px"
	 width="128px" height="128px" viewBox="0 0 128 128" enable-background="new 0 0 128 128" xml:space="preserve">
<g>
	<circle fill="#AB5B30" cx="64" cy="64" r="64"/>
	<path fill="#9A4922" d="M94.676,26.382l-1.68,4.196L31.805,91.184l-7.133,6.084l30.392,30.099C57.986,127.774,60.966,128,64,128
		c35.348,0,64-28.653,64-64c0-1.62-0.08-3.222-0.199-4.812L94.676,26.382z"/>
	<g>
		<g>
			
				<rect x="45.562" y="33.549" transform="matrix(0.9604 -0.2788 0.2788 0.9604 -14.3031 23.2757)" fill="#2C4451" width="58.259" height="56.764"/>
			
				<rect x="47.36" y="34.561" transform="matrix(0.9604 -0.2788 0.2788 0.9604 -14.0944 23.1825)" fill="#D7DADA" width="54.206" height="53.173"/>
			<path fill="#FFFFFF" d="M41.021,43.171c0,0,11.176,40.894,17.477,46.015l50.272-19.539c0,0-4.807-4.1-7.92-14.825
				c-3.113-10.725-7.77-26.763-7.77-26.763L41.021,43.171z"/>
			<g>
				<circle fill="#283E49" cx="46.734" cy="43.7" r="0.986"/>
				<path fill="#455D6A" d="M47.046,43.239c0.084,0.289-0.033,0.582-0.26,0.646c-0.227,0.066-0.48-0.117-0.564-0.407l-0.973-3.353
					c-0.084-0.289,0.031-0.58,0.258-0.646c0.227-0.067,0.482,0.116,0.566,0.407L47.046,43.239z"/>
				<circle fill="#283E49" cx="51.958" cy="42.183" r="0.986"/>
				<path fill="#455D6A" d="M52.271,41.722c0.086,0.289-0.031,0.58-0.258,0.646s-0.48-0.117-0.566-0.408l-0.973-3.351
					c-0.084-0.288,0.033-0.581,0.26-0.647c0.227-0.064,0.48,0.118,0.564,0.408L52.271,41.722z"/>
				<circle fill="#283E49" cx="57.185" cy="40.667" r="0.986"/>
				<path fill="#455D6A" d="M57.498,40.204c0.084,0.291-0.033,0.581-0.258,0.646c-0.227,0.067-0.482-0.117-0.566-0.406l-0.973-3.352
					c-0.084-0.291,0.031-0.582,0.26-0.646c0.227-0.066,0.48,0.117,0.564,0.406L57.498,40.204z"/>
				<circle fill="#283E49" cx="62.411" cy="39.149" r="0.985"/>
				<path fill="#455D6A" d="M62.724,38.687c0.084,0.291-0.033,0.582-0.26,0.648c-0.227,0.064-0.48-0.119-0.564-0.408l-0.973-3.351
					c-0.086-0.29,0.031-0.581,0.258-0.647s0.482,0.117,0.566,0.407L62.724,38.687z"/>
				<circle fill="#283E49" cx="67.637" cy="37.632" r="0.986"/>
				<path fill="#455D6A" d="M67.949,37.171c0.086,0.289-0.031,0.581-0.258,0.646c-0.227,0.066-0.482-0.117-0.566-0.408l-0.973-3.35
					c-0.084-0.291,0.033-0.582,0.26-0.648s0.48,0.117,0.564,0.408L67.949,37.171z"/>
				<circle fill="#283E49" cx="72.862" cy="36.116" r="0.985"/>
				<path fill="#455D6A" d="M73.176,35.652c0.084,0.291-0.031,0.581-0.26,0.647c-0.227,0.066-0.48-0.117-0.564-0.407l-0.973-3.351
					c-0.084-0.291,0.033-0.582,0.26-0.648c0.225-0.064,0.48,0.119,0.564,0.409L73.176,35.652z"/>
				<circle fill="#283E49" cx="78.09" cy="34.599" r="0.986"/>
				<path fill="#455D6A" d="M78.4,34.136c0.086,0.291-0.031,0.582-0.258,0.646c-0.227,0.066-0.48-0.117-0.566-0.406l-0.973-3.352
					c-0.084-0.291,0.033-0.581,0.26-0.646c0.227-0.066,0.48,0.116,0.566,0.406L78.4,34.136z"/>
				<circle fill="#283E49" cx="83.314" cy="33.082" r="0.986"/>
				<path fill="#455D6A" d="M83.627,32.619c0.084,0.29-0.031,0.581-0.26,0.647c-0.225,0.065-0.48-0.118-0.564-0.409l-0.973-3.349
					c-0.084-0.291,0.033-0.582,0.26-0.649c0.227-0.065,0.48,0.118,0.564,0.409L83.627,32.619z"/>
				<circle fill="#283E49" cx="88.541" cy="31.563" r="0.986"/>
				<path fill="#455D6A" d="M88.854,31.103c0.084,0.289-0.033,0.582-0.26,0.646c-0.227,0.066-0.48-0.117-0.564-0.408l-0.973-3.351
					c-0.084-0.29,0.031-0.582,0.26-0.647c0.227-0.065,0.48,0.117,0.564,0.408L88.854,31.103z"/>
			</g>
		</g>
		<g>
			<path fill="#E3E5E5" d="M30.959,58.669V29.952h19.708v28.717c7.994,3.719,13.535,11.82,13.535,21.217
				c0,12.918-10.471,23.389-23.391,23.389c-12.916,0-23.389-10.471-23.389-23.389C17.423,70.489,22.966,62.388,30.959,58.669z"/>
			<path fill="#00AFCC" d="M60.048,71.907c1.035,2.492,1.6,5.195,1.6,7.979c0,11.489-9.346,20.835-20.836,20.835
				c-11.487,0-20.833-9.346-20.833-20.835c0-2.783,0.562-5.486,1.599-7.979H60.048z"/>
			<path fill="#A6A8AB" d="M53.693,27.88v4.566c0,1.74-5.768,3.152-12.881,3.152c-7.111,0-12.877-1.412-12.877-3.152V27.88H53.693z"
				/>
			<ellipse fill="#F9F9F9" cx="40.814" cy="27.88" rx="12.879" ry="3.154"/>
			<path fill="#D0D2D3" d="M30.959,27.88c0,1.332,4.412,2.412,9.853,2.412c5.445,0,9.855-1.08,9.855-2.412s-4.41-2.413-9.855-2.413
				C35.371,25.467,30.959,26.548,30.959,27.88z"/>
			<path fill="#009BB4" d="M21.678,71.907c0,2.591,8.568,4.686,19.134,4.686c10.568,0,19.137-2.095,19.137-4.686
				c0-2.586-8.568-4.684-19.137-4.684C30.246,67.224,21.678,69.321,21.678,71.907z"/>
			<path fill="#FFFFFF" d="M52.779,84.059c0,1.308,1.061,2.366,2.367,2.366c1.311,0,2.371-1.059,2.371-2.366
				c0-1.31-1.061-2.371-2.371-2.371C53.839,81.688,52.779,82.749,52.779,84.059z"/>
			<circle fill="#FFFFFF" cx="44.09" cy="89.584" r="1.315"/>
			<circle fill="#FFFFFF" cx="32.786" cy="85.886" r="1.827"/>
		</g>
		<g>
			<g>
				<path fill="#BD3929" d="M72.52,63.908l-4.576-2.677l0.029-5.302l4.607-2.625l4.574,2.677l-0.029,5.302L72.52,63.908z
					 M68.494,60.918l4.027,2.356l4.057-2.312l0.025-4.667l-4.027-2.357l-4.055,2.312L68.494,60.918z"/>
			</g>
			<g>
				<rect x="72.334" y="48.693" fill="#BD3929" width="0.549" height="4.984"/>
			</g>
			<g>
				<polygon fill="#BD3929" points="63.966,63.831 63.693,63.354 67.887,60.963 67.914,56.296 63.748,53.86 64.027,53.386 
					68.465,55.981 68.436,61.283 				"/>
			</g>
			<g>
				<path fill="#BD3929" d="M81.152,63.958l-4.576-2.678l0.029-5.301l4.607-2.625l4.576,2.676l-0.031,5.304L81.152,63.958z
					 M77.127,60.968l4.029,2.355l4.055-2.31l0.025-4.668l-4.027-2.356L77.154,56.3L77.127,60.968z"/>
			</g>
			<g>
				<rect x="80.849" y="63.644" fill="#BD3929" width="0.549" height="4.986"/>
			</g>
			<g>
				<polygon fill="#BD3929" points="89.645,63.878 85.205,61.28 85.234,55.979 89.703,53.433 89.975,53.91 85.783,56.3 
					85.756,60.968 89.922,63.403 				"/>
			</g>
			<g>
				<g>
					<path fill="#BD3929" d="M60.25,50.003v1.189h1.375v-1.189h0.371v2.842h-0.371v-1.332H60.25v1.332h-0.365v-2.842H60.25z"/>
				</g>
			</g>
			<g>
				<g>
					<path fill="#BD3929" d="M92.109,52.192v1.188h1.375v-1.188h0.371v2.841h-0.371V53.7h-1.375v1.333h-0.367v-2.841H92.109z"/>
				</g>
			</g>
			<g>
				<g>
					<path fill="#BD3929" d="M73.5,45.801c0,0.978-0.596,1.497-1.32,1.497c-0.75,0-1.277-0.582-1.277-1.441
						c0-0.902,0.561-1.494,1.32-1.494C72.998,44.362,73.5,44.956,73.5,45.801z M71.295,45.847c0,0.607,0.328,1.151,0.906,1.151
						c0.582,0,0.91-0.535,0.91-1.181c0-0.565-0.295-1.154-0.906-1.154C71.598,44.663,71.295,45.224,71.295,45.847z"/>
				</g>
			</g>
			<g>
				<g>
					<path fill="#BD3929" d="M80.068,51.629v-2.843h0.4l0.912,1.438c0.211,0.334,0.375,0.633,0.51,0.925l0.008-0.005
						c-0.033-0.38-0.041-0.726-0.041-1.168v-1.189h0.346v2.843h-0.371l-0.902-1.442c-0.199-0.316-0.389-0.641-0.531-0.947
						l-0.014,0.004c0.021,0.357,0.029,0.699,0.029,1.172v1.214H80.068z"/>
				</g>
			</g>
			<g>
				<g>
					<path fill="#BD3929" d="M82.66,71.337c0,0.978-0.596,1.495-1.32,1.495c-0.75,0-1.277-0.581-1.277-1.44
						c0-0.902,0.561-1.493,1.32-1.493C82.158,69.898,82.66,70.492,82.66,71.337z M80.455,71.382c0,0.607,0.328,1.152,0.906,1.152
						c0.582,0,0.91-0.535,0.91-1.182c0-0.563-0.295-1.154-0.906-1.154C80.758,70.198,80.455,70.759,80.455,71.382z"/>
				</g>
			</g>
			<g>
				<g>
					<path fill="#BD3929" d="M62.96,64.771c0,0.979-0.594,1.496-1.32,1.496c-0.75,0-1.277-0.581-1.277-1.441
						c0-0.902,0.561-1.492,1.32-1.492C62.458,63.333,62.96,63.927,62.96,64.771z M60.755,64.816c0,0.606,0.328,1.151,0.906,1.151
						c0.582,0,0.91-0.535,0.91-1.182c0-0.563-0.295-1.154-0.904-1.154S60.755,64.192,60.755,64.816z"/>
				</g>
			</g>
		</g>
	</g>
</g>
</svg>
