<?xml version="1.0" encoding="utf-8"?>
<!-- Generator: Adobe Illustrator 16.0.0, SVG Export Plug-In . SVG Version: 6.00 Build 0)  -->
<!DOCTYPE svg PUBLIC "-//W3C//DTD SVG 1.1//EN" "http://www.w3.org/Graphics/SVG/1.1/DTD/svg11.dtd">
<svg version="1.1" id="Layer_1" xmlns="http://www.w3.org/2000/svg" xmlns:xlink="http://www.w3.org/1999/xlink" x="0px" y="0px"
	 width="128px" height="128px" viewBox="0 0 128 128" enable-background="new 0 0 128 128" xml:space="preserve">
<g>
	<circle fill="#455D6A" cx="64" cy="64" r="64"/>
	<path fill="#334E5C" d="M82.159,32.929l-0.191,0.48L80.84,44.002L70.171,33.409l-1.664,10.048L58.375,33.409l-1.476,10.412
		l-10.32-10.412l-1.468,0.073L32.983,21.999L32.96,94.782l-10.155,0.726l-0.929,0.991l30.774,30.478
		C56.336,127.636,60.124,128,64,128c30.888,0,56.661-21.882,62.674-50.987L82.159,32.929z"/>
	<g>
		<g>
			<rect x="32.396" y="45.253" fill="#EDF2F2" width="61.413" height="2.34"/>
		</g>
		<g>
			<rect x="32.396" y="57.048" fill="#EDF2F2" width="61.413" height="2.341"/>
		</g>
		<g>
			<rect x="32.396" y="68.845" fill="#EDF2F2" width="61.413" height="2.34"/>
		</g>
		<g>
			<rect x="32.396" y="80.64" fill="#EDF2F2" width="61.413" height="2.342"/>
		</g>
		<g>
			<rect x="44.239" y="33.409" fill="#EDF2F2" width="2.34" height="61.414"/>
		</g>
		<g>
			<rect x="56.034" y="33.409" fill="#EDF2F2" width="2.341" height="61.414"/>
		</g>
		<g>
			<rect x="67.831" y="33.409" fill="#EDF2F2" width="2.34" height="61.414"/>
		</g>
		<g>
			<rect x="79.626" y="33.409" fill="#EDF2F2" width="2.342" height="61.414"/>
		</g>
	</g>
	<g>
		<g>
			<rect x="31.813" y="24.517" fill="#E2A752" width="2.341" height="81.484"/>
		</g>
		<g>
			<polygon fill="#E2A752" points="25.753,32.539 24.098,30.884 32.983,21.999 41.871,30.884 40.215,32.539 32.983,25.31 			"/>
		</g>
	</g>
	<g>
		<g>
			<rect x="21.999" y="93.845" fill="#E2A752" width="81.485" height="2.342"/>
		</g>
		<g>
			<polygon fill="#E2A752" points="97.116,103.902 95.461,102.247 102.69,95.017 95.461,87.784 97.116,86.13 106.001,95.017 			"/>
		</g>
	</g>
	<g>
		<path fill="#2DA8D2" d="M82.851,88.494c-11.73,0-21.239-3.619-28.28-10.77c-7.411-7.525-10.638-17.634-12.039-24.79
			c-1.513-7.718-1.294-13.596-1.283-13.843l2.34,0.096c-0.009,0.231-0.772,23.274,12.659,36.904
			c6.863,6.962,16.291,10.345,28.034,10.042l0.06,2.342C83.84,88.489,83.344,88.494,82.851,88.494z"/>
	</g>
	<g>
		<path fill="#2DA8D2" d="M43.863,88.494c-0.493,0-0.988-0.005-1.489-0.019l0.059-2.342c11.742,0.304,21.173-3.08,28.035-10.042
			c13.433-13.63,12.668-36.673,12.66-36.904l2.339-0.096c0.009,0.247,0.229,6.125-1.282,13.843
			c-1.401,7.156-4.629,17.265-12.039,24.79C65.104,84.875,55.594,88.494,43.863,88.494z"/>
	</g>
</g>
</svg>
