<?xml version="1.0" encoding="utf-8"?>
<!-- Generator: Adobe Illustrator 16.0.0, SVG Export Plug-In . SVG Version: 6.00 Build 0)  -->
<!DOCTYPE svg PUBLIC "-//W3C//DTD SVG 1.1//EN" "http://www.w3.org/Graphics/SVG/1.1/DTD/svg11.dtd">
<svg version="1.1" id="Layer_1" xmlns="http://www.w3.org/2000/svg" xmlns:xlink="http://www.w3.org/1999/xlink" x="0px" y="0px"
	 width="128px" height="128px" viewBox="0 0 128 128" enable-background="new 0 0 128 128" xml:space="preserve">
<g>
	<circle fill="#F2B359" cx="64" cy="64" r="64"/>
	<path fill="#D89239" d="M98.231,30.891l-0.786,1.018l-5.637,3.354l-11.774,0.285c0,0-8.706-3.428-8.777-3.784
		s-0.146-3.612,1.927-5.066s2.641-4.209,1.07-5.852c-1.57-1.642-7.85-2.283-13.629-1.855s-5.982,5.203-3.996,6.993
		s2.782,6.424,2.782,6.424l-8.537,27.879L19.045,70.297l16.77,21.226v7.24l-2.42,2.831l26.519,26.263
		C61.266,127.941,62.626,128,64,128c35.347,0,64-28.653,64-64c0-1.258-0.046-2.506-0.118-3.746L98.231,30.891z"/>
	<g>
		<rect x="32.532" y="31.014" fill="#AEB4AD" width="65.601" height="70.095"/>
		<path fill="#D7DADA" d="M98.133,31.014c0,0-0.617,38.566-10.865,39.621l-30.606,1.055l-26.293-9.775c0,0,3.375-20.586,1.877-30.9
			H98.133z"/>
		<g>
			<path fill="#2B414D" d="M80.459,46.406c-0.167,1.114-1.409,2.025-2.765,2.025H52.972c-1.354,0-2.599-0.911-2.766-2.025
				L47.993,31.52c-0.166-1.113,0.808-2.025,2.163-2.025H80.51c1.354,0,2.329,0.912,2.162,2.025L80.459,46.406z"/>
			<path fill="#233640" d="M82.974,48.432c0,0.91-0.951,1.654-2.111,1.654H49.804c-1.161,0-2.112-0.744-2.112-1.654
				s0.951-1.654,2.112-1.654h31.059C82.022,46.777,82.974,47.521,82.974,48.432z"/>
			<path fill="#233640" d="M55.748,46.651h1.781c0.587-3.226,2.289-12.871,2.188-15.888c-0.016-0.488-0.107-0.939-0.251-1.361H57.61
				c0.202,0.431,0.33,0.892,0.348,1.402C58.057,33.734,56.283,43.716,55.748,46.651z"/>
			<path fill="#233640" d="M73.51,46.651c-0.535-2.936-2.309-12.917-2.21-15.847c0.018-0.511,0.146-0.972,0.348-1.402h-1.855
				c-0.144,0.422-0.235,0.873-0.252,1.361c-0.101,3.017,1.602,12.662,2.188,15.888H73.51z"/>
			<path fill="#AEB4AD" d="M72.004,30.805c0.048-1.453,0.985-2.5,1.979-3.608c1.171-1.306,2.499-2.788,2.287-5.017
				c-0.371-3.88-8.342-4.272-10.67-4.305v-0.003c-0.062,0-0.152,0-0.262,0c-0.116,0-0.21,0-0.272,0v0.003
				c-2.333,0.032-10.3,0.422-10.671,4.305c-0.212,2.229,1.115,3.711,2.287,5.017c0.992,1.108,1.932,2.155,1.979,3.608
				c0.101,3-1.762,13.402-2.247,16.053h-1.162v1.457h2.672l0.115-0.617c0.102-0.544,2.502-13.369,2.382-16.934
				c-0.064-1.912-1.267-3.252-2.326-4.438c-1.13-1.26-2.106-2.348-1.945-4.031c0.229-2.406,6.613-2.956,9.179-2.965
				c2.563,0.009,8.957,0.557,9.186,2.965c0.162,1.684-0.814,2.771-1.944,4.031c-1.06,1.186-2.262,2.525-2.327,4.438
				c-0.118,3.564,2.28,16.39,2.383,16.934l0.116,0.617h2.671v-1.457h-1.162C73.766,44.207,71.903,33.805,72.004,30.805z"/>
		</g>
		<path fill="#ECECEC" d="M11.426,58.389l53.048-13.263c0,0,4.415,26.992,23.205,25.366l-55.806,4.951
			C31.873,75.443,17.504,75.983,11.426,58.389z"/>
	</g>
</g>
</svg>
