<?xml version="1.0" encoding="utf-8"?>
<!-- Generator: Adobe Illustrator 16.0.0, SVG Export Plug-In . SVG Version: 6.00 Build 0)  -->
<!DOCTYPE svg PUBLIC "-//W3C//DTD SVG 1.1//EN" "http://www.w3.org/Graphics/SVG/1.1/DTD/svg11.dtd">
<svg version="1.1" id="Layer_1" xmlns="http://www.w3.org/2000/svg" xmlns:xlink="http://www.w3.org/1999/xlink" x="0px" y="0px"
	 width="128px" height="128px" viewBox="0 0 128 128" enable-background="new 0 0 128 128" xml:space="preserve">
<g>
	<circle fill="#D7DADA" cx="64" cy="64" r="64"/>
	<path fill="#AEB4AD" d="M102.043,43.737l-0.638,0.717l-4.042-0.818l-2.718,1.931l-5.312-8.048c0,0-9.014-1.457-11.842-7.912
		C74.664,23.149,74.359,19.904,64,17.096S49.64,28.078,49.64,28.078L34.847,39.745l-5.51,0.001c0,0-8.381-0.409-10.428,14.921
		s12.802,25.001,12.802,25.001l4.599,15.553l-3.853,3.477l29.537,29.252C62.662,127.97,63.327,128,64,128
		c33.589,0,61.114-25.879,63.771-58.784L102.043,43.737z"/>
	<g>
		<path fill="#25A5D0" d="M96.246,91.908V49.924c0-12.908-10.562-23.471-23.47-23.471H53.923c-12.908,0-23.469,10.563-23.469,23.471
			v41.984H96.246z"/>
		<path fill="#1C7491" d="M30.44,76.243c0,0,38.863-8.516,65.806,0.367l-2.036,4.698l-60.7,3.212L30.44,76.243z"/>
		<path fill="#4BBFE0" d="M53.503,40.012h19.695c9.2,0,17.257,4.684,21.447,11.56C94.446,39.456,84.48,29.606,72.321,29.606H54.379
			c-12.159,0-22.124,9.85-22.324,21.965C36.246,44.693,44.302,40.012,53.503,40.012z"/>
		<g>
			<path fill="#B8DA99" d="M66.308,82.406c0.287,0.678-0.035,1.466-0.712,1.752l-4.087,1.723c-0.679,0.287-1.468-0.035-1.753-0.715
				L48.97,59.564c-0.287-0.68,0.034-1.468,0.713-1.754l4.086-1.723c0.678-0.285,1.467,0.037,1.754,0.715L66.308,82.406z"/>
			<g>
				<g>
					<g>
						
							<rect x="60.926" y="83.336" transform="matrix(-0.3889 -0.9213 0.9213 -0.3889 6.9761 173.4225)" fill="#44485A" width="0.163" height="2.123"/>
					</g>
					<g>
						
							<rect x="60.392" y="83.162" transform="matrix(-0.3816 -0.9243 0.9243 -0.3816 5.9874 171.8414)" fill="#44485A" width="0.164" height="1.511"/>
					</g>
					<g>
						
							<rect x="60.415" y="82.123" transform="matrix(-0.3939 -0.9191 0.9191 -0.3939 7.8684 171.5595)" fill="#44485A" width="0.164" height="2.124"/>
					</g>
					<g>
						
							<rect x="59.879" y="81.949" transform="matrix(-0.3918 -0.9201 0.9201 -0.3918 7.3594 170.2733)" fill="#44485A" width="0.165" height="1.51"/>
					</g>
					<g>
						
							<rect x="59.902" y="80.91" transform="matrix(-0.3968 -0.9179 0.9179 -0.3968 8.5419 169.5578)" fill="#44485A" width="0.165" height="2.124"/>
					</g>
					<g>
						
							<rect x="59.369" y="80.736" transform="matrix(-0.3939 -0.9191 0.9191 -0.3939 7.967 168.2378)" fill="#44485A" width="0.164" height="1.512"/>
					</g>
					<g>
						
							<rect x="59.882" y="78.96" transform="matrix(-0.3796 -0.9252 0.9252 -0.3796 8.1993 166.6042)" fill="#44485A" width="0.165" height="3.185"/>
					</g>
					<g>
						
							<rect x="59.109" y="79.025" transform="matrix(-0.3846 -0.9231 0.9231 -0.3846 8.0325 165.5269)" fill="#44485A" width="0.165" height="2.122"/>
					</g>
					<g>
						
							<rect x="58.576" y="78.852" transform="matrix(-0.391 -0.9204 0.9204 -0.391 8.3239 164.7215)" fill="#44485A" width="0.162" height="1.511"/>
					</g>
					<g>
						
							<rect x="58.599" y="77.813" transform="matrix(-0.3889 -0.9213 0.9213 -0.3889 8.8328 163.6072)" fill="#44485A" width="0.163" height="2.123"/>
					</g>
					<g>
						
							<rect x="58.064" y="77.638" transform="matrix(-0.3918 -0.9201 0.9201 -0.3918 8.7992 162.6031)" fill="#44485A" width="0.165" height="1.51"/>
					</g>
					<g>
						
							<rect x="58.087" y="76.599" transform="matrix(-0.3939 -0.9191 0.9191 -0.3939 9.701 161.7191)" fill="#44485A" width="0.164" height="2.124"/>
					</g>
					<g>
						
							<rect x="57.551" y="76.425" transform="matrix(-0.3805 -0.9248 0.9248 -0.3805 8.1858 159.8432)" fill="#44485A" width="0.167" height="1.51"/>
					</g>
					<g>
						
							<rect x="58.066" y="74.65" transform="matrix(-0.3939 -0.9191 0.9191 -0.3939 10.9739 159.7234)" fill="#44485A" width="0.164" height="3.186"/>
					</g>
					<g>
						
							<rect x="57.293" y="74.714" transform="matrix(-0.3968 -0.9179 0.9179 -0.3968 10.5837 158.508)" fill="#44485A" width="0.165" height="2.124"/>
					</g>
					<g>
						
							<rect x="56.758" y="74.54" transform="matrix(-0.3867 -0.9222 0.9222 -0.3867 9.3845 156.8327)" fill="#44485A" width="0.164" height="1.511"/>
					</g>
					<g>
						
							<rect x="56.782" y="73.501" transform="matrix(-0.3918 -0.9201 0.9201 -0.3918 10.5385 156.0927)" fill="#44485A" width="0.165" height="2.123"/>
					</g>
					<g>
						
							<rect x="56.247" y="73.327" transform="matrix(-0.3846 -0.9231 0.9231 -0.3846 9.6105 154.573)" fill="#44485A" width="0.165" height="1.512"/>
					</g>
					<g>
						
							<rect x="56.271" y="72.289" transform="matrix(-0.3918 -0.9201 0.9201 -0.3918 10.9436 153.9348)" fill="#44485A" width="0.165" height="2.123"/>
					</g>
					<g>
						
							<rect x="55.736" y="72.114" transform="matrix(-0.3846 -0.9231 0.9231 -0.3846 10.0229 152.4222)" fill="#44485A" width="0.165" height="1.512"/>
					</g>
					<g>
						
							<rect x="56.249" y="70.339" transform="matrix(-0.3825 -0.9239 0.9239 -0.3825 11.4198 151.4932)" fill="#44485A" width="0.166" height="3.183"/>
					</g>
					<g>
						
							<rect x="55.477" y="70.405" transform="matrix(-0.3961 -0.9182 0.9182 -0.3961 11.9437 150.788)" fill="#44485A" width="0.163" height="2.124"/>
					</g>
					<g>
						
							<rect x="54.942" y="70.23" transform="matrix(-0.3918 -0.9201 0.9201 -0.3918 11.2702 149.4212)" fill="#44485A" width="0.165" height="1.511"/>
					</g>
					<g>
						
							<rect x="54.966" y="69.191" transform="matrix(-0.3961 -0.9182 0.9182 -0.3961 12.3441 148.6246)" fill="#44485A" width="0.163" height="2.125"/>
					</g>
					<g>
						
							<rect x="54.431" y="69.016" transform="matrix(-0.3896 -0.921 0.921 -0.3896 11.4971 147.1626)" fill="#44485A" width="0.165" height="1.511"/>
					</g>
					<g>
						
							<rect x="54.454" y="67.978" transform="matrix(-0.3918 -0.9201 0.9201 -0.3918 12.3816 146.2643)" fill="#44485A" width="0.165" height="2.123"/>
					</g>
					<g>
						
							<rect x="53.92" y="67.803" transform="matrix(-0.3939 -0.9191 0.9191 -0.3939 12.2586 145.2014)" fill="#44485A" width="0.164" height="1.511"/>
					</g>
					<g>
						
							<rect x="54.433" y="66.028" transform="matrix(-0.3989 -0.917 0.917 -0.3989 14.2567 144.5872)" fill="#44485A" width="0.164" height="3.185"/>
					</g>
					<g>
						
							<rect x="53.661" y="66.093" transform="matrix(-0.3867 -0.9222 0.9222 -0.3867 12.5978 142.6863)" fill="#44485A" width="0.164" height="2.123"/>
					</g>
					<g>
						
							<rect x="53.125" y="65.919" transform="matrix(-0.3846 -0.9231 0.9231 -0.3846 12.1276 141.4327)" fill="#44485A" width="0.165" height="1.51"/>
					</g>
					<g>
						
							<rect x="53.149" y="64.88" transform="matrix(-0.3846 -0.9231 0.9231 -0.3846 12.8372 140.44)" fill="#44485A" width="0.165" height="2.122"/>
					</g>
					<g>
						
							<rect x="52.615" y="64.706" transform="matrix(-0.3896 -0.921 0.921 -0.3896 12.942 139.5009)" fill="#44485A" width="0.165" height="1.512"/>
					</g>
					<g>
						
							<rect x="52.638" y="63.667" transform="matrix(-0.3939 -0.9191 0.9191 -0.3939 13.9919 138.6852)" fill="#44485A" width="0.164" height="2.124"/>
					</g>
					<g>
						
							<rect x="52.106" y="63.494" transform="matrix(-0.3807 -0.9247 0.9247 -0.3807 12.6471 136.9687)" fill="#44485A" width="0.162" height="1.512"/>
					</g>
					<g>
						
							<rect x="52.617" y="61.718" transform="matrix(-0.3867 -0.9222 0.9222 -0.3867 14.6952 136.3927)" fill="#44485A" width="0.164" height="3.184"/>
					</g>
					<g>
						
							<rect x="51.845" y="61.783" transform="matrix(-0.3961 -0.9182 0.9182 -0.3961 14.7891 135.4162)" fill="#44485A" width="0.163" height="2.123"/>
					</g>
					<g>
						
							<rect x="51.311" y="61.608" transform="matrix(-0.3838 -0.9234 0.9234 -0.3838 13.527 133.7536)" fill="#44485A" width="0.163" height="1.51"/>
					</g>
					<g>
						
							<rect x="51.334" y="60.569" transform="matrix(-0.391 -0.9204 0.9204 -0.391 14.7951 133.0521)" fill="#44485A" width="0.162" height="2.124"/>
					</g>
					<g>
						
							<rect x="50.799" y="60.395" transform="matrix(-0.3889 -0.9213 0.9213 -0.3889 14.3282 131.8064)" fill="#44485A" width="0.163" height="1.511"/>
					</g>
					<g>
						
							<rect x="50.822" y="59.357" transform="matrix(-0.3796 -0.9252 0.9252 -0.3796 14.3292 130.4455)" fill="#44485A" width="0.165" height="2.123"/>
					</g>
					<g>
						
							<rect x="50.29" y="59.184" transform="matrix(-0.3859 -0.9225 0.9225 -0.3859 14.5129 129.5376)" fill="#44485A" width="0.162" height="1.509"/>
					</g>
					<g>
						
							<rect x="50.801" y="57.407" transform="matrix(-0.3867 -0.9222 0.9222 -0.3867 16.1527 128.7398)" fill="#44485A" width="0.164" height="3.185"/>
					</g>
				</g>
			</g>
		</g>
		<g>
			
				<rect x="73.519" y="56.204" transform="matrix(-0.9528 0.3035 -0.3035 -0.9528 169.2818 111.5839)" fill="#F7981D" width="4.904" height="25.483"/>
			
				<rect x="76.818" y="55.692" transform="matrix(-0.9526 0.3041 -0.3041 -0.9526 172.2975 110.0328)" fill="#FDE531" width="1.525" height="25.483"/>
			
				<rect x="75.238" y="56.175" transform="matrix(0.9527 -0.3038 0.3038 0.9527 -17.3419 26.3671)" fill="#F8CC0D" width="1.655" height="25.481"/>
			<polygon fill="#DEBEA1" points="69.774,57.547 74.447,56.059 69.79,49.287 			"/>
			<polygon fill="#F1D7B7" points="71.417,57.025 74.447,56.059 69.79,49.287 			"/>
			<polygon fill="#FAF6C3" points="72.987,56.523 74.447,56.059 69.79,49.287 			"/>
			<polygon fill="#39454E" points="71.326,51.522 69.79,49.287 69.784,52.013 			"/>
			<path fill="#E76165" d="M77.492,81.819l0.903,2.841c0.162,0.508,0.644,0.81,1.07,0.676l3.113-0.994
				c0.429-0.137,0.646-0.66,0.484-1.166l-0.903-2.841L77.492,81.819z"/>
			<path fill="#A22163" d="M79.466,85.336l2.446-0.779l-1.197-3.764l-3.223,1.026l0.903,2.841
				C78.558,85.168,79.039,85.47,79.466,85.336z"/>
			<path fill="#802149" d="M79.466,85.336l0.859-0.275l-1.197-3.764l-1.636,0.522l0.903,2.841
				C78.558,85.168,79.039,85.47,79.466,85.336z"/>
		</g>
		<g>
			<path fill="#175E95" d="M61.858,58.719l-0.13,22.504l9.531-0.435l-2.236-22.396c-0.073-0.727-0.728-1.293-1.458-1.259l-4.373,0.2
				C62.462,57.363,61.863,57.988,61.858,58.719z"/>
			<path fill="#233870" d="M66.494,81.006l4.766-0.218l-2.236-22.396c-0.073-0.727-0.728-1.293-1.458-1.259l-2.187,0.099
				L66.494,81.006z"/>
			<path fill="#EF5C75" d="M61.858,58.719l-0.008,1.564l7.329-0.333l-0.156-1.559c-0.073-0.727-0.728-1.293-1.458-1.259l-4.373,0.2
				C62.462,57.363,61.863,57.988,61.858,58.719z"/>
			<path fill="#EE3C58" d="M65.379,60.125l3.801-0.175l-0.156-1.559c-0.073-0.727-0.728-1.293-1.458-1.259l-2.322,0.104
				L65.379,60.125z"/>
			<path fill="#ECC97F" d="M62.806,83.316c1.239,0.127,2.837,1.947,3.215,4.1l0.513-0.023l0.52-0.025l0.512-0.021
				c0.178-2.178,1.596-4.135,2.818-4.375c1.221-0.241,0.868-2.209,0.868-2.209l-4.498,0.207l-0.521,0.021l-4.497,0.205
				C61.735,81.195,61.565,83.188,62.806,83.316z"/>
			<polygon fill="#233870" points="67.598,88.22 67.556,87.346 66.015,87.416 66.076,88.744 			"/>
			<polygon fill="#111E44" points="66.843,88.479 67.598,88.22 67.556,87.346 66.792,87.381 			"/>
		</g>
		<g>
			<path fill="#ECF1F9" d="M80.788,86.924L94.21,75.84L79.366,57.863L80.788,86.924z M83.731,80.259l-0.623-12.735l6.505,7.877
				L83.731,80.259z"/>
			
				<rect x="81.522" y="84.386" transform="matrix(0.6365 0.7713 -0.7713 0.6365 95.0065 -32.7427)" fill="#C86628" width="1.435" height="0.068"/>
			
				<rect x="82.608" y="84.147" transform="matrix(0.6382 0.7699 -0.7699 0.6382 94.8476 -33.4543)" fill="#C86628" width="0.816" height="0.069"/>
			
				<rect x="82.705" y="83.409" transform="matrix(0.6372 0.7707 -0.7707 0.6372 94.5706 -34.0205)" fill="#C86628" width="1.434" height="0.069"/>
			
				<rect x="83.791" y="83.171" transform="matrix(0.6355 0.7721 -0.7721 0.6355 94.94 -34.6801)" fill="#C86628" width="0.814" height="0.069"/>
			
				<rect x="83.887" y="82.433" transform="matrix(0.6372 0.7707 -0.7707 0.6372 94.2467 -35.2855)" fill="#C86628" width="1.434" height="0.068"/>
			
				<rect x="84.973" y="82.195" transform="matrix(0.6369 0.771 -0.771 0.6369 94.3997 -35.9656)" fill="#C86628" width="0.816" height="0.07"/>
			
				<rect x="85.069" y="81.457" transform="matrix(0.6366 0.7712 -0.7712 0.6366 94.0265 -36.5435)" fill="#C86628" width="1.436" height="0.07"/>
			
				<rect x="86.155" y="81.218" transform="matrix(0.6369 0.771 -0.771 0.6369 94.0753 -37.2319)" fill="#C86628" width="0.816" height="0.069"/>
			
				<rect x="86.252" y="80.48" transform="matrix(0.6368 0.771 -0.771 0.6368 93.6622 -37.8126)" fill="#C86628" width="1.434" height="0.069"/>
			
				<rect x="87.337" y="80.241" transform="matrix(0.6368 0.7711 -0.7711 0.6368 93.7708 -38.4969)" fill="#C86628" width="0.814" height="0.07"/>
			
				<rect x="87.434" y="79.504" transform="matrix(0.6368 0.771 -0.771 0.6368 93.3385 -39.0787)" fill="#C86628" width="1.434" height="0.069"/>
			
				<rect x="88.521" y="79.266" transform="matrix(0.6381 0.77 -0.77 0.6381 93.2461 -39.7716)" fill="#C86628" width="0.814" height="0.067"/>
			
				<rect x="88.617" y="78.528" transform="matrix(0.6365 0.7713 -0.7713 0.6365 93.0672 -40.3437)" fill="#C86628" width="1.435" height="0.069"/>
			
				<rect x="89.701" y="78.29" transform="matrix(0.6356 0.772 -0.772 0.6356 93.3065 -41.0247)" fill="#C86628" width="0.816" height="0.069"/>
			
				<rect x="89.798" y="77.551" transform="matrix(0.6366 0.7712 -0.7712 0.6366 92.7328 -41.6107)" fill="#C86628" width="1.436" height="0.07"/>
			
				<rect x="90.885" y="77.314" transform="matrix(0.6369 0.771 -0.771 0.6369 92.7821 -42.2966)" fill="#C86628" width="0.816" height="0.067"/>
			
				<rect x="90.981" y="76.575" transform="matrix(0.6369 0.7709 -0.7709 0.6369 92.3575 -42.8776)" fill="#C86628" width="1.435" height="0.069"/>
			
				<rect x="92.067" y="76.336" transform="matrix(0.6368 0.7711 -0.7711 0.6368 92.4768 -43.5626)" fill="#C86628" width="0.814" height="0.069"/>
			
				<rect x="92.164" y="75.599" transform="matrix(0.6372 0.7707 -0.7707 0.6372 91.9821 -44.1435)" fill="#C86628" width="1.434" height="0.068"/>
		</g>
		<g>
			<path fill="#E0772B" d="M54.819,42.207L52.06,42.6c-1.039-1.17-3.812-1.734-6.935-1.288c-3.121,0.446-5.624,1.767-6.292,3.181
				l-2.761,0.396c-0.765,0.109-1.312,0.757-1.215,1.438l0.372,2.591c0.098,0.683,0.804,1.151,1.571,1.042l18.746-2.682
				c0.766-0.109,1.313-0.757,1.215-1.439l-0.372-2.592C56.292,42.565,55.585,42.097,54.819,42.207z"/>
			<polygon fill="#F79944" points="54.672,86.231 48.589,87.102 43.128,49.026 49.211,48.157 			"/>
			
				<rect x="46.083" y="49.611" transform="matrix(0.9899 -0.1416 0.1416 0.9899 -6.5632 7.2306)" fill="#701411" width="2.876" height="0.236"/>
			
				<rect x="47.409" y="50.566" transform="matrix(0.99 -0.1413 0.1413 0.99 -6.6757 7.3249)" fill="#701411" width="1.694" height="0.237"/>
			
				<rect x="46.386" y="51.72" transform="matrix(0.9898 -0.1422 0.1422 0.9898 -6.8868 7.329)" fill="#701411" width="2.877" height="0.238"/>
			
				<rect x="47.712" y="52.676" transform="matrix(0.9899 -0.1419 0.1419 0.9899 -7.0004 7.425)" fill="#701411" width="1.693" height="0.237"/>
			
				<rect x="46.688" y="53.831" transform="matrix(0.9898 -0.1423 0.1423 0.9898 -7.1863 7.396)" fill="#701411" width="2.876" height="0.238"/>
			
				<rect x="48.015" y="54.784" transform="matrix(0.9898 -0.1426 0.1426 0.9898 -7.3277 7.526)" fill="#701411" width="1.692" height="0.239"/>
			
				<rect x="46.99" y="55.942" transform="matrix(0.9899 -0.1419 0.1419 0.9899 -7.4647 7.4391)" fill="#701411" width="2.877" height="0.236"/>
			
				<rect x="48.318" y="56.895" transform="matrix(0.9899 -0.1414 0.1414 0.9899 -7.5689 7.5259)" fill="#701411" width="1.692" height="0.239"/>
			
				<rect x="47.293" y="58.051" transform="matrix(0.9899 -0.1415 0.1415 0.9899 -7.7415 7.4818)" fill="#701411" width="2.878" height="0.237"/>
			
				<rect x="48.62" y="59.005" transform="matrix(0.99 -0.1413 0.1413 0.99 -7.8601 7.5852)" fill="#701411" width="1.693" height="0.239"/>
			
				<rect x="47.597" y="60.162" transform="matrix(0.9899 -0.1416 0.1416 0.9899 -8.0397 7.5487)" fill="#701411" width="2.877" height="0.236"/>
			
				<rect x="48.923" y="61.117" transform="matrix(0.9899 -0.1414 0.1414 0.9899 -8.1597 7.6539)" fill="#701411" width="1.692" height="0.235"/>
			
				<rect x="47.899" y="62.272" transform="matrix(0.99 -0.1413 0.1413 0.99 -8.3196 7.596)" fill="#701411" width="2.876" height="0.237"/>
			
				<rect x="49.225" y="63.225" transform="matrix(0.9899 -0.1414 0.1414 0.9899 -8.455 7.7178)" fill="#701411" width="1.692" height="0.239"/>
			
				<rect x="48.202" y="64.381" transform="matrix(0.9899 -0.1419 0.1419 0.9899 -8.6526 7.6991)" fill="#701411" width="2.876" height="0.237"/>
			
				<rect x="49.528" y="65.337" transform="matrix(0.99 -0.1408 0.1408 0.99 -8.7128 7.7433)" fill="#701411" width="1.693" height="0.237"/>
			
				<rect x="48.503" y="66.492" transform="matrix(0.99 -0.1412 0.1412 0.99 -8.9041 7.7182)" fill="#701411" width="2.877" height="0.237"/>
			
				<rect x="49.831" y="67.447" transform="matrix(0.99 -0.1408 0.1408 0.99 -9.0069 7.8069)" fill="#701411" width="1.693" height="0.237"/>
			
				<rect x="48.806" y="68.602" transform="matrix(0.9899 -0.1415 0.1415 0.9899 -9.2194 7.8021)" fill="#701411" width="2.878" height="0.238"/>
			
				<rect x="50.134" y="69.556" transform="matrix(0.9898 -0.1426 0.1426 0.9898 -9.4117 7.9789)" fill="#701411" width="1.692" height="0.238"/>
			
				<rect x="49.109" y="70.712" transform="matrix(0.99 -0.1412 0.1412 0.99 -9.4968 7.8488)" fill="#701411" width="2.876" height="0.237"/>
			
				<rect x="50.436" y="71.666" transform="matrix(0.9899 -0.142 0.142 0.9899 -9.6729 8.0087)" fill="#701411" width="1.692" height="0.238"/>
			
				<rect x="49.412" y="72.822" transform="matrix(0.9899 -0.1416 0.1416 0.9899 -9.8168 7.936)" fill="#701411" width="2.876" height="0.237"/>
			
				<rect x="50.739" y="73.776" transform="matrix(0.9899 -0.142 0.142 0.9899 -9.9695 8.0731)" fill="#701411" width="1.692" height="0.238"/>
			
				<rect x="49.714" y="74.933" transform="matrix(0.9899 -0.1415 0.1415 0.9899 -10.1061 7.9943)" fill="#701411" width="2.878" height="0.236"/>
			
				<rect x="51.041" y="75.887" transform="matrix(0.99 -0.1413 0.1413 0.99 -10.2163 8.0919)" fill="#701411" width="1.694" height="0.238"/>
			
				<rect x="50.023" y="77.08" transform="matrix(0.9899 -0.1416 0.1416 0.9899 -10.4137 8.0655)" fill="#701411" width="2.876" height="0.238"/>
			
				<rect x="51.349" y="78.034" transform="matrix(0.9898 -0.1426 0.1426 0.9898 -10.6079 8.2387)" fill="#701411" width="1.692" height="0.238"/>
			
				<rect x="50.331" y="79.231" transform="matrix(0.99 -0.1412 0.1412 0.99 -10.6876 8.1068)" fill="#701411" width="2.876" height="0.235"/>
			
				<rect x="51.657" y="80.183" transform="matrix(0.9899 -0.1419 0.1419 0.9899 -10.864 8.2633)" fill="#701411" width="1.693" height="0.237"/>
			
				<rect x="50.639" y="81.377" transform="matrix(0.9899 -0.1419 0.1419 0.9899 -11.0369 8.2142)" fill="#701411" width="2.877" height="0.237"/>
			
				<rect x="51.966" y="82.33" transform="matrix(0.9899 -0.1414 0.1414 0.9899 -11.1292 8.2973)" fill="#701411" width="1.692" height="0.237"/>
			
				<rect x="50.946" y="83.524" transform="matrix(0.9899 -0.1419 0.1419 0.9899 -11.3385 8.2796)" fill="#701411" width="2.877" height="0.236"/>
			
				<rect x="52.274" y="84.478" transform="matrix(0.9899 -0.142 0.142 0.9899 -11.4734 8.3995)" fill="#701411" width="1.692" height="0.237"/>
		</g>
		<path fill="#0C8DAA" d="M95.945,77.104c-1.647,0.712-3.304,1.06-5.065,1.368c-3.539,0.618-7.104,1.115-10.68,1.461
			c-7.318,0.711-14.631,0.775-21.975,0.852c-5.593,0.059-11.255,0.051-16.814-0.672c-3.869-0.502-8.943-1.225-11.558-4.527h-0.517
			V91.25c0,5.779,4.681,10.506,10.4,10.506h47.227c5.72,0,10.399-4.727,10.399-10.506V76.415
			C96.897,76.661,96.428,76.897,95.945,77.104z"/>
		<g>
			<path fill="#25A5D0" d="M51.303,27.014c1.845-5.406,6.548-9.258,12.049-9.258c5.499,0,10.202,3.852,12.047,9.258h2.936
				c-1.983-6.979-7.95-12.061-14.982-12.061c-7.034,0-13,5.082-14.984,12.061H51.303z"/>
		</g>
		<g>
			<path fill="#E1574C" d="M81.097,113.91c-1.405,0-2.824-0.107-4.248-0.32c-9.083-1.372-11.157-5.211-14.923-12.184l-0.504-0.927
				c-3.599-6.638-10.772-10.446-17.316-13.3c-7.636-3.328-15.494-7.342-21.237-14.115c-4.59-5.414-6.375-12.525-5.162-20.563
				c0.842-5.57,2.754-9.492,5.686-11.655c1.337-0.987,5.403-3.989,9.813-2.062l-0.983,2.246c-2.122-0.925-4.464-0.361-7.372,1.785
				c-2.977,2.199-4.209,6.679-4.719,10.051c-0.77,5.104-0.596,12.473,4.609,18.612c5.418,6.392,12.981,10.243,20.347,13.454
				c6.925,3.019,14.537,7.087,18.491,14.375l0.506,0.934c3.61,6.684,5.258,9.734,13.13,10.924
				c8.651,1.307,16.772-1.625,22.279-8.042c5.873-6.842,8.643-13.79,8.717-21.869c0.067-7.491-1-15.599-3.173-24.095
				c-0.141-0.551-0.278-1.123-0.42-1.711c-0.593-2.461-1.266-5.25-2.407-7.354c-0.257-0.474-2.611-4.584-6.269-3.037L94.987,42.8
				c4.586-1.938,8.054,1.682,9.377,4.127c1.294,2.387,2.007,5.341,2.635,7.948c0.14,0.576,0.275,1.139,0.412,1.678
				c2.227,8.703,3.318,17.021,3.25,24.726c-0.08,8.689-3.038,16.138-9.309,23.442C96.282,110.629,88.925,113.91,81.097,113.91z"/>
		</g>
		<path fill="#CF7C3F" d="M55.152,16.525l2.448,3.576c0,0,4.895-3.201,11.579,0l2.636-3.105
			C71.815,16.996,64.85,10.781,55.152,16.525z"/>
	</g>
</g>
</svg>
