<?xml version="1.0" encoding="utf-8"?>
<!-- Generator: Adobe Illustrator 16.0.0, SVG Export Plug-In . SVG Version: 6.00 Build 0)  -->
<!DOCTYPE svg PUBLIC "-//W3C//DTD SVG 1.1//EN" "http://www.w3.org/Graphics/SVG/1.1/DTD/svg11.dtd">
<svg version="1.1" id="Layer_1" xmlns="http://www.w3.org/2000/svg" xmlns:xlink="http://www.w3.org/1999/xlink" x="0px" y="0px"
	 width="128px" height="128px" viewBox="0 0 128 128" enable-background="new 0 0 128 128" xml:space="preserve">
<g>
	<circle fill="#2DA8D2" cx="64" cy="64" r="64"/>
	<path fill="#2094BB" d="M85.547,33.325l-0.027,0.088l0.668,3.599L98.906,70.14l-9.098-3.545l-32.969-32.82l-13.816,0.986
		L29.609,68.678l6.433,17.251l-5.056,5.793l36.531,36.178c30.178-1.635,54.783-24.176,59.609-53.395L85.547,33.325z"/>
	<path fill="#91D7EE" d="M59.529,78.97c0,7.938-7.391,16.373-16.506,16.373c-9.118,0-16.507-8.436-16.507-16.373
		c0-7.939,7.39-12.375,16.507-12.375C52.138,66.595,59.529,71.03,59.529,78.97z"/>
	<path fill="#233640" d="M43.023,96.843c-10.306,0-18.007-9.436-18.007-17.873c0-8.299,7.236-13.875,18.007-13.875
		c10.77,0,18.006,5.576,18.006,13.875C61.029,87.407,53.328,96.843,43.023,96.843z M43.023,68.095
		c-7.471,0-15.007,3.361-15.007,10.875c0,6.877,6.556,14.873,15.007,14.873s15.006-7.996,15.006-14.873
		C58.029,71.456,50.492,68.095,43.023,68.095z"/>
	<path fill="#91D7EE" d="M101.484,78.97c0,7.938-7.389,16.373-16.508,16.373c-9.115,0-16.506-8.436-16.506-16.373
		c0-7.939,7.391-12.375,16.506-12.375C94.096,66.595,101.484,71.03,101.484,78.97z"/>
	<path fill="#233640" d="M84.977,96.843c-10.305,0-18.006-9.436-18.006-17.873c0-8.299,7.236-13.875,18.006-13.875
		c10.771,0,18.008,5.576,18.008,13.875C102.984,87.407,95.283,96.843,84.977,96.843z M84.977,68.095
		c-7.469,0-15.006,3.361-15.006,10.875c0,6.877,6.555,14.873,15.006,14.873c8.453,0,15.008-7.996,15.008-14.873
		C99.984,71.456,92.447,68.095,84.977,68.095z"/>
	<g>
		<path fill="#233640" d="M27.137,76.729c-0.164,0-0.332-0.027-0.496-0.084c-0.782-0.275-1.193-1.131-0.92-1.912
			c1.326-3.779,13.058-37.043,16.582-41.32c4.117-5.002,13.484-0.203,14.537,0.361c0.73,0.389,1.006,1.297,0.617,2.027
			c-0.391,0.73-1.299,1.008-2.029,0.617c-2.113-1.123-8.633-3.74-10.809-1.1c-2.412,2.928-10.929,25.77-16.066,40.406
			C28.336,76.345,27.756,76.729,27.137,76.729z"/>
	</g>
	<g>
		<path fill="#233640" d="M100.686,76.729c-0.619,0-1.199-0.385-1.416-1.004c-5.137-14.637-13.654-37.479-16.066-40.406
			c-2.184-2.648-8.697-0.027-10.807,1.1c-0.732,0.391-1.641,0.115-2.031-0.615s-0.113-1.641,0.617-2.029
			c1.053-0.564,10.418-5.361,14.537-0.361c3.523,4.277,15.256,37.541,16.582,41.32c0.273,0.781-0.139,1.637-0.92,1.912
			C101.018,76.702,100.85,76.729,100.686,76.729z"/>
	</g>
	<path fill="#233640" d="M68.576,81.562c-0.828,0-1.5-0.672-1.5-1.5c0-1.697-1.379-3.076-3.077-3.076
		c-1.695,0-3.076,1.379-3.076,3.076c0,0.828-0.672,1.5-1.5,1.5s-1.5-0.672-1.5-1.5c0-3.352,2.727-6.076,6.076-6.076
		c3.352,0,6.077,2.725,6.077,6.076C70.076,80.89,69.404,81.562,68.576,81.562z"/>
</g>
</svg>
