<?xml version="1.0" encoding="utf-8"?>
<!-- Generator: Adobe Illustrator 16.0.0, SVG Export Plug-In . SVG Version: 6.00 Build 0)  -->
<!DOCTYPE svg PUBLIC "-//W3C//DTD SVG 1.1//EN" "http://www.w3.org/Graphics/SVG/1.1/DTD/svg11.dtd">
<svg version="1.1" id="Layer_1" xmlns="http://www.w3.org/2000/svg" xmlns:xlink="http://www.w3.org/1999/xlink" x="0px" y="0px"
	 width="128px" height="128px" viewBox="0 0 128 128" enable-background="new 0 0 128 128" xml:space="preserve">
<g>
	<circle fill="#F2B359" cx="64" cy="64" r="64"/>
	<path fill="#D08A2E" d="M83.479,29.396l-1.643,1.232L49.465,48.451L20.912,60.999l16.004,16.368l-4.547,15.641l-0.797,0.627
		l34.645,34.31c31.332-1.068,56.939-24.646,61.158-55.078L83.479,29.396z"/>
	<g>
		<rect x="31.49" y="29.537" fill="#EDF2F2" width="51.92" height="64.419"/>
		<g>
			<g>
				<path fill="#AB3326" d="M44.967,77.2c-1.111,0.127-2.23,0.238-3.336,0.307l-0.354,0.023l-0.061-0.351
					c-0.189-1.138-0.418-2.315-0.637-3.454c-0.484-2.504-0.984-5.094-1.164-7.578l-0.031-0.418l0.42-0.004
					c0.854-0.012,1.701,0.009,2.523,0.027c1.588,0.037,3.227,0.074,4.912-0.107l0.084,0.785c-1.736,0.187-3.402,0.147-5.014,0.111
					c-0.678-0.016-1.375-0.031-2.074-0.03c0.199,2.311,0.666,4.725,1.117,7.064c0.199,1.024,0.404,2.083,0.584,3.12
					c1.738-0.125,3.516-0.346,5.236-0.559c0.77-0.096,1.537-0.191,2.303-0.279l0.09,0.783c-0.764,0.088-1.529,0.184-2.295,0.279
					C46.512,77.015,45.74,77.111,44.967,77.2z"/>
			</g>
			<g>
				<path fill="#AB3326" d="M40.967,72.124l-0.613-0.496c0.537-0.665,2.344-0.789,4.475-0.873c0.453-0.018,0.846-0.033,1.068-0.059
					c0.314-0.036,0.633-0.1,0.969-0.166c0.492-0.096,1-0.197,1.504-0.207l0.016,0.789c-0.434,0.01-0.887,0.1-1.367,0.193
					c-0.336,0.067-0.686,0.136-1.031,0.176c-0.252,0.028-0.639,0.044-1.127,0.063C43.801,71.585,41.324,71.683,40.967,72.124z"/>
			</g>
			<g>
				<path fill="#AB3326" d="M53.328,71.147c-0.375,0.043-0.754,0.076-1.125,0.107c-0.357,0.029-0.727,0.061-1.076,0.1l-0.088-0.784
					c0.361-0.042,0.734-0.073,1.098-0.104c0.84-0.071,1.711-0.146,2.492-0.345c0.174-0.044,0.346-0.097,0.527-0.152
					c0.412-0.128,0.838-0.26,1.334-0.298l0.063,0.786c-0.406,0.031-0.775,0.146-1.164,0.267c-0.182,0.056-0.371,0.114-0.566,0.165
					C54.338,71.012,53.836,71.091,53.328,71.147z"/>
			</g>
			<g>
				<path fill="#AB3326" d="M51.662,73.603l-0.09-0.785c0.889-0.102,1.762-0.248,2.607-0.391c0.807-0.135,1.641-0.274,2.475-0.374
					l0.094,0.784c-0.816,0.097-1.641,0.235-2.438,0.37C53.455,73.349,52.57,73.499,51.662,73.603z"/>
			</g>
			<g>
				<path fill="#AB3326" d="M59.477,73.087l-0.787,0.02c-0.01-0.341-0.152-0.84-0.305-1.367c-0.371-1.283-0.877-3.039,0.58-3.562
					c0.523-0.188,1.012-0.167,1.451,0.064c1.098,0.579,1.652,2.401,2.127,4.219l-0.764,0.199c-0.441-1.69-0.957-3.311-1.732-3.72
					c-0.24-0.127-0.5-0.133-0.816-0.02c-0.705,0.254-0.48,1.236-0.088,2.6C59.309,72.099,59.467,72.645,59.477,73.087z"/>
			</g>
			<g>
				<path fill="#AB3326" d="M65.016,71.788c-0.145-0.35-0.27-0.75-0.402-1.172c-0.281-0.896-0.602-1.914-1.125-2.409
					c-0.412-0.39-1.043-0.331-1.455-0.069c-0.191,0.121-0.619,0.471-0.418,1.082l-0.75,0.245c-0.256-0.776,0.031-1.542,0.746-1.995
					c0.793-0.502,1.787-0.435,2.42,0.164c0.674,0.637,1.025,1.758,1.336,2.746c0.127,0.406,0.246,0.789,0.379,1.109L65.016,71.788z"
					/>
			</g>
			<g>
				<path fill="#AB3326" d="M68.83,71.136c-0.068,0.008-0.139,0.014-0.209,0.016c-1.127,0.043-2.186-0.595-2.637-1.585
					c-0.432-0.949-0.152-2.269-0.055-2.65c0.303-1.204,1.061-1.261,1.863-1.318c0.152-0.011,0.316-0.024,0.494-0.044l0.088,0.784
					c-0.188,0.022-0.361,0.035-0.525,0.046c-0.781,0.058-0.99,0.073-1.154,0.727c-0.158,0.626-0.252,1.56,0.008,2.129
					c0.369,0.811,1.215,1.149,1.887,1.123c0.328-0.012,1.121-0.135,1.438-1.002l0.742,0.271
					C70.459,70.481,69.742,71.031,68.83,71.136z"/>
			</g>
			<g>
				<path fill="#AB3326" d="M70.785,67.546c-0.059,0.006-0.117,0.012-0.174,0.014l-0.826,0.033l0.492-0.664
					c0.887-1.193,1.273-2.207,1.064-2.781c-0.061-0.162-0.096-0.326-0.131-0.486c-0.107-0.511-0.162-0.768-0.797-0.791
					c-0.375-0.016-0.645,0.064-0.795,0.236c-0.254,0.285-0.211,0.825-0.162,1.123l-0.779,0.125c-0.125-0.761-0.002-1.373,0.35-1.771
					c0.316-0.357,0.793-0.527,1.418-0.503c1.246,0.049,1.424,0.87,1.539,1.415c0.029,0.139,0.059,0.27,0.098,0.379
					c0.297,0.811-0.09,1.821-0.617,2.706c0.301-0.097,0.623-0.216,0.941-0.333c0.66-0.245,1.285-0.477,1.807-0.539l0.092,0.785
					c-0.428,0.05-1.037,0.277-1.625,0.495C72.021,67.229,71.344,67.482,70.785,67.546z"/>
			</g>
		</g>
		<g>
			<polygon fill="#4D7B39" points="79.705,78.456 82.176,73.007 107.053,84.272 104.582,89.722 			"/>
			
				<rect x="93.3" y="65.832" transform="matrix(-0.4127 0.9109 -0.9109 -0.4127 205.5187 26.4542)" fill="#8BC53F" width="1.86" height="27.309"/>
			
				<rect x="92.419" y="67.598" transform="matrix(0.4135 -0.9105 0.9105 0.4135 -19.1837 132.7263)" fill="#719F40" width="2.022" height="27.31"/>
			<polygon fill="#DEBEA1" points="79.705,78.456 82.176,73.007 73.295,72.184 			"/>
			<polygon fill="#F1D7B7" points="80.572,76.542 82.176,73.007 73.295,72.184 			"/>
			<polygon fill="#FAF6C3" points="81.404,74.71 82.176,73.007 73.295,72.184 			"/>
			<polygon fill="#39454E" points="76.225,72.456 73.295,72.184 75.41,74.253 			"/>
			<path fill="#E76165" d="M104.57,89.713l2.912,1.317c0.52,0.234,1.129,0.02,1.354-0.477l1.646-3.633
				c0.227-0.499-0.014-1.1-0.531-1.332l-2.912-1.318L104.57,89.713z"/>
			<path fill="#A22163" d="M108.836,90.554l1.293-2.854l-3.854-1.746l-1.705,3.759l2.912,1.317
				C108.002,91.265,108.611,91.05,108.836,90.554z"/>
			<path fill="#802149" d="M108.836,90.554l0.455-1.006l-3.855-1.744l-0.865,1.909l2.912,1.317
				C108.002,91.265,108.611,91.05,108.836,90.554z"/>
		</g>
		<path fill="#D7DADA" d="M83.41,29.537c0,0-0.486,31.019-8.563,31.868l-24.119,0.85L30.01,54.392c0,0,2.66-16.559,1.48-24.854
			H83.41z"/>
		<path fill="#AEB4AD" d="M15.082,51.556l41.805-10.668c0,0,3.479,21.711,18.285,20.402l-43.977,3.983
			C31.195,65.273,19.873,65.708,15.082,51.556z"/>
		<rect x="31.49" y="29.537" fill="#61BEAE" width="51.92" height="8.885"/>
		<rect x="33.961" y="32.401" fill="#EDF2F2" width="1.777" height="1.775"/>
		<rect x="35.947" y="32.401" fill="#EDF2F2" width="1.777" height="1.775"/>
		<g>
			<path fill="#82898B" d="M44.869,85.274l-0.49-0.331c1.023-1.522,2.492-2.436,3.916-3.317c0.736-0.455,1.496-0.928,2.184-1.478
				c0.742-0.592,9.211-4.749,12.066-5.259c1.992-0.355,3.852-1.002,5.816-1.685l0.268-0.093c4.719-1.64,5.074-0.936,5.189-0.703
				l-0.529,0.266c0.008,0.012,0.014,0.019,0.016,0.021c-0.256-0.198-2.002,0.114-4.48,0.976l-0.268,0.094
				c-1.99,0.691-3.869,1.345-5.908,1.709c-2.828,0.504-11.234,4.686-11.801,5.138c-0.715,0.572-1.49,1.053-2.24,1.519
				C47.176,83.018,45.822,83.856,44.869,85.274z"/>
		</g>
		<g>
			<path fill="#2C4451" d="M34.928,33.081c-0.152,0-0.521-0.794-0.521-2.266c0-1.47,0.369-2.264,0.521-2.264
				c0.059,0,0.264,0.227,0.402,0.941h0.4c0-0.004,0-0.007,0-0.007c-0.109-0.608-0.338-1.329-0.803-1.329
				c-0.629,0-0.916,1.379-0.916,2.658c0,1.282,0.287,2.66,0.916,2.66c0.107,0,0.197-0.088,0.197-0.197S35.035,33.081,34.928,33.081z
				"/>
		</g>
		<g>
			<path fill="#2C4451" d="M36.857,33.081c-0.15,0-0.52-0.794-0.52-2.266c0-1.47,0.369-2.264,0.52-2.264
				c0.061,0,0.266,0.227,0.402,0.941h0.4c0-0.004,0.002-0.007,0.002-0.007c-0.111-0.608-0.338-1.329-0.805-1.329
				c-0.629,0-0.916,1.379-0.916,2.658c0,1.282,0.287,2.66,0.916,2.66c0.109,0,0.197-0.088,0.197-0.197S36.967,33.081,36.857,33.081z
				"/>
		</g>
		<rect x="40.938" y="32.401" fill="#EDF2F2" width="1.775" height="1.775"/>
		<rect x="42.924" y="32.401" fill="#EDF2F2" width="1.777" height="1.775"/>
		<g>
			<path fill="#2C4451" d="M41.902,33.081c-0.15,0-0.52-0.794-0.52-2.266c0-1.47,0.369-2.264,0.52-2.264
				c0.061,0,0.266,0.227,0.404,0.941h0.4c0-0.004,0.002-0.007,0-0.011c-0.109-0.604-0.338-1.325-0.805-1.325
				c-0.629,0-0.914,1.379-0.914,2.658c0,1.282,0.285,2.66,0.914,2.66c0.109,0,0.197-0.088,0.197-0.197S42.012,33.081,41.902,33.081z
				"/>
		</g>
		<g>
			<path fill="#2C4451" d="M43.832,33.081c-0.15,0-0.52-0.794-0.52-2.266c0-1.47,0.369-2.264,0.52-2.264
				c0.063,0,0.266,0.227,0.404,0.941h0.4c0-0.004,0-0.007,0-0.007c-0.109-0.608-0.338-1.329-0.805-1.329
				c-0.629,0-0.914,1.379-0.914,2.658c0,1.282,0.285,2.66,0.914,2.66c0.109,0,0.199-0.088,0.199-0.197S43.941,33.081,43.832,33.081z
				"/>
		</g>
		<rect x="47.914" y="32.401" fill="#EDF2F2" width="1.775" height="1.775"/>
		<rect x="49.9" y="32.401" fill="#EDF2F2" width="1.777" height="1.775"/>
		<g>
			<path fill="#2C4451" d="M48.879,33.081c-0.15,0-0.52-0.794-0.52-2.266c0-1.47,0.369-2.264,0.52-2.264
				c0.061,0,0.266,0.227,0.404,0.941h0.4c0-0.004,0-0.007,0-0.007c-0.109-0.608-0.338-1.329-0.805-1.329
				c-0.629,0-0.916,1.379-0.916,2.658c0,1.282,0.287,2.66,0.916,2.66c0.109,0,0.197-0.088,0.197-0.197S48.988,33.081,48.879,33.081z
				"/>
		</g>
		<g>
			<path fill="#2C4451" d="M50.809,33.081c-0.15,0-0.52-0.794-0.52-2.266c0-1.47,0.369-2.264,0.52-2.264
				c0.061,0,0.266,0.227,0.404,0.941h0.4c0-0.004,0-0.007,0-0.007c-0.109-0.608-0.338-1.329-0.805-1.329
				c-0.629,0-0.914,1.379-0.914,2.658c0,1.282,0.285,2.66,0.914,2.66c0.109,0,0.197-0.088,0.197-0.197S50.918,33.081,50.809,33.081z
				"/>
		</g>
		<rect x="54.889" y="32.401" fill="#EDF2F2" width="1.777" height="1.775"/>
		<rect x="56.877" y="32.401" fill="#EDF2F2" width="1.775" height="1.775"/>
		<g>
			<path fill="#2C4451" d="M55.855,33.081c-0.15,0-0.521-0.794-0.521-2.266c0-1.47,0.371-2.264,0.521-2.264
				c0.061,0,0.264,0.227,0.402,0.941h0.4c0-0.004,0.002-0.007,0-0.011c-0.109-0.604-0.338-1.325-0.803-1.325
				c-0.629,0-0.916,1.379-0.916,2.658c0,1.282,0.287,2.66,0.916,2.66c0.109,0,0.197-0.088,0.197-0.197S55.965,33.081,55.855,33.081z
				"/>
		</g>
		<g>
			<path fill="#2C4451" d="M57.785,33.081c-0.15,0-0.52-0.794-0.52-2.266c0-1.47,0.369-2.264,0.52-2.264
				c0.061,0,0.266,0.227,0.402,0.941h0.402c0-0.004,0-0.007,0-0.007c-0.109-0.608-0.338-1.329-0.805-1.329
				c-0.629,0-0.914,1.379-0.914,2.658c0,1.282,0.285,2.66,0.914,2.66c0.109,0,0.197-0.088,0.197-0.197S57.895,33.081,57.785,33.081z
				"/>
		</g>
		<rect x="61.865" y="32.401" fill="#EDF2F2" width="1.777" height="1.775"/>
		<rect x="63.854" y="32.401" fill="#EDF2F2" width="1.775" height="1.775"/>
		<g>
			<path fill="#2C4451" d="M62.832,33.081c-0.152,0-0.521-0.794-0.521-2.266c0-1.47,0.369-2.264,0.521-2.264
				c0.059,0,0.264,0.227,0.402,0.941h0.4c0-0.004,0.002-0.007,0-0.011c-0.109-0.604-0.338-1.325-0.803-1.325
				c-0.629,0-0.916,1.379-0.916,2.658c0,1.282,0.287,2.66,0.916,2.66c0.107,0,0.195-0.088,0.195-0.197S62.939,33.081,62.832,33.081z
				"/>
		</g>
		<g>
			<path fill="#2C4451" d="M64.762,33.081c-0.152,0-0.521-0.794-0.521-2.266c0-1.47,0.369-2.264,0.521-2.264
				c0.061,0,0.264,0.227,0.402,0.941h0.4c0-0.004,0.002-0.007,0-0.011c-0.109-0.604-0.338-1.325-0.803-1.325
				c-0.629,0-0.916,1.379-0.916,2.658c0,1.282,0.287,2.66,0.916,2.66c0.109,0,0.197-0.088,0.197-0.197S64.871,33.081,64.762,33.081z
				"/>
		</g>
		<rect x="68.842" y="32.401" fill="#EDF2F2" width="1.775" height="1.775"/>
		<rect x="70.828" y="32.401" fill="#EDF2F2" width="1.777" height="1.775"/>
		<g>
			<path fill="#2C4451" d="M69.807,33.081c-0.15,0-0.52-0.794-0.52-2.266c0-1.47,0.369-2.264,0.52-2.264
				c0.063,0,0.266,0.227,0.404,0.941h0.4c0-0.004,0.002-0.007,0-0.011c-0.109-0.604-0.338-1.325-0.805-1.325
				c-0.629,0-0.914,1.379-0.914,2.658c0,1.282,0.285,2.66,0.914,2.66c0.109,0,0.199-0.088,0.199-0.197S69.916,33.081,69.807,33.081z
				"/>
		</g>
		<g>
			<path fill="#2C4451" d="M71.738,33.081c-0.152,0-0.521-0.794-0.521-2.266c0-1.47,0.369-2.264,0.521-2.264
				c0.061,0,0.264,0.227,0.402,0.941h0.4c0-0.004,0-0.007,0-0.007c-0.109-0.608-0.338-1.329-0.803-1.329
				c-0.629,0-0.916,1.379-0.916,2.658c0,1.282,0.287,2.66,0.916,2.66c0.107,0,0.197-0.088,0.197-0.197S71.846,33.081,71.738,33.081z
				"/>
		</g>
		<rect x="75.816" y="32.401" fill="#EDF2F2" width="1.777" height="1.775"/>
		<rect x="77.805" y="32.401" fill="#EDF2F2" width="1.777" height="1.775"/>
		<g>
			<path fill="#2C4451" d="M76.783,33.081c-0.152,0-0.52-0.794-0.52-2.266c0-1.47,0.367-2.264,0.52-2.264
				c0.061,0,0.266,0.227,0.404,0.941h0.398c0-0.004,0.002-0.007,0.002-0.007c-0.109-0.608-0.34-1.329-0.805-1.329
				c-0.629,0-0.916,1.379-0.916,2.658c0,1.282,0.287,2.66,0.916,2.66c0.109,0,0.197-0.088,0.197-0.197S76.893,33.081,76.783,33.081z
				"/>
		</g>
		<g>
			<path fill="#2C4451" d="M78.713,33.081c-0.15,0-0.521-0.794-0.521-2.266c0-1.47,0.371-2.264,0.521-2.264
				c0.061,0,0.266,0.227,0.402,0.941h0.402c0-0.004,0-0.007,0-0.007c-0.109-0.608-0.34-1.329-0.805-1.329
				c-0.627,0-0.914,1.379-0.914,2.658c0,1.282,0.287,2.66,0.914,2.66c0.109,0,0.197-0.088,0.197-0.197S78.822,33.081,78.713,33.081z
				"/>
		</g>
	</g>
</g>
</svg>
