<?xml version="1.0" encoding="utf-8"?>
<!-- Generator: Adobe Illustrator 16.0.0, SVG Export Plug-In . SVG Version: 6.00 Build 0)  -->
<!DOCTYPE svg PUBLIC "-//W3C//DTD SVG 1.1//EN" "http://www.w3.org/Graphics/SVG/1.1/DTD/svg11.dtd">
<svg version="1.1" id="Layer_1" xmlns="http://www.w3.org/2000/svg" xmlns:xlink="http://www.w3.org/1999/xlink" x="0px" y="0px"
	 width="128px" height="128px" viewBox="0 0 128 128" enable-background="new 0 0 128 128" xml:space="preserve">
<g>
	<circle fill="#51B9A6" cx="64" cy="64" r="64"/>
	<path fill="#46998A" d="M92.322,20.516l-29.919,43.91L28.175,85.361l-1.114,5.887L64.172,128C99.44,127.907,128,99.294,128,64.005
		c0-2.975-0.22-5.896-0.612-8.763L92.322,20.516z"/>
	<g>
		<polygon fill="#D7B353" points="59.545,81.605 30.528,89.74 20.37,71.59 49.745,64.238 		"/>
		<polygon fill="#D7B353" points="47.116,30.548 29.591,35.607 49.896,65.581 60.874,50.3 		"/>
		<polygon fill="#D7B353" points="94.341,52.306 99.779,51.151 111.284,68.001 78.004,77.691 80.144,63.968 		"/>
		<polygon fill="#F9D096" points="91.807,20.112 102.022,34.04 100.101,42.104 83.567,46.985 76.024,42.892 66.332,28.653 
			66.777,21.493 82.801,16.524 		"/>
		<path fill="#4F5165" d="M92.8,37.534c-2.611,3.74-8.826,3.903-13.881,0.371c-5.055-3.533-7.036-9.428-4.425-13.162
			c2.611-3.738,8.825-3.904,13.88-0.371C93.431,27.905,95.411,33.8,92.8,37.534z"/>
		
			<ellipse transform="matrix(0.8196 0.5729 -0.5729 0.8196 33.5825 -41.3925)" fill="#9595A2" cx="82.527" cy="32.637" rx="8.818" ry="6.52"/>
		<polyline fill="#EECE7B" points="100.101,42.104 78.472,82.153 63.363,85.356 83.567,46.985 		"/>
		<polyline fill="#D8B35F" points="76.024,42.892 56.257,82.302 63.363,85.356 83.567,46.985 		"/>
		<polyline fill="#EECE7B" points="76.024,42.892 56.257,82.302 47.663,69.198 66.332,28.653 		"/>
		<polyline fill="#F6E0AF" points="66.777,21.493 49.919,57.765 47.663,69.198 66.332,28.653 		"/>
		<polygon fill="#D7B353" points="78.735,81.665 94.644,102.39 78.004,108.438 63.363,85.356 		"/>
	</g>
	<polyline fill="#EECE7B" points="20.37,71.59 17.9,73.948 27.674,91.739 30.528,89.74 20.37,71.59 	"/>
	<polygon fill="#EECE7B" points="94.644,102.39 94.659,105.411 78.004,111.729 78.004,108.438 	"/>
	<polyline fill="#9F7A2C" points="99.779,51.151 103.44,53.503 114.798,69.636 111.284,68.001 	"/>
	<polyline fill="#9F7A2C" points="29.591,35.607 25.971,35.931 42.538,30.862 47.116,30.548 	"/>
</g>
</svg>
