<?xml version="1.0" encoding="utf-8"?>
<!-- Generator: Adobe Illustrator 16.0.0, SVG Export Plug-In . SVG Version: 6.00 Build 0)  -->
<!DOCTYPE svg PUBLIC "-//W3C//DTD SVG 1.1//EN" "http://www.w3.org/Graphics/SVG/1.1/DTD/svg11.dtd">
<svg version="1.1" id="Layer_1" xmlns="http://www.w3.org/2000/svg" xmlns:xlink="http://www.w3.org/1999/xlink" x="0px" y="0px"
	 width="128px" height="128px" viewBox="0 0 128 128" enable-background="new 0 0 128 128" xml:space="preserve">
<g>
	<circle fill="#D7DADA" cx="64" cy="64" r="64"/>
	<path fill="#AEB4AD" d="M107.072,49.991L89.841,61.845L54.745,26.712L35.737,59.079l1.413,32.947l-2.596,2.46l33.684,33.358
		c31.242-2.045,56.369-26.493,59.442-57.445L107.072,49.991z"/>
	<g>
		<path fill="none" d="M50.607,88.354c10.782,4.824,23.529-0.113,28.409-11.01l10.824-24.162L50.729,35.679L39.902,59.843
			C35.021,70.739,39.823,83.528,50.607,88.354z"/>
		<polygon fill="#233640" points="107.035,50.11 93.859,44.216 89.841,53.183 103.018,59.079 		"/>
		<polygon fill="#233640" points="54.745,26.712 41.568,20.817 37.551,29.782 50.729,35.679 		"/>
		<path fill="#BD3929" d="M39.902,59.843l10.826-24.164l-13.178-5.896L26.726,53.946c-8.114,18.113-0.024,39.527,17.979,47.584
			l5.903-13.176C39.823,83.528,35.021,70.739,39.902,59.843z"/>
		<path fill="#2094BB" d="M92.192,83.243l10.825-24.164l-13.177-5.896L79.017,77.345c-4.88,10.896-17.627,15.834-28.409,11.01
			l-5.903,13.176C62.708,109.585,84.077,101.356,92.192,83.243z"/>
	</g>
</g>
</svg>
