<?xml version="1.0" encoding="utf-8"?>
<!-- Generator: Adobe Illustrator 16.0.0, SVG Export Plug-In . SVG Version: 6.00 Build 0)  -->
<!DOCTYPE svg PUBLIC "-//W3C//DTD SVG 1.1//EN" "http://www.w3.org/Graphics/SVG/1.1/DTD/svg11.dtd">
<svg version="1.1" id="Layer_1" xmlns="http://www.w3.org/2000/svg" xmlns:xlink="http://www.w3.org/1999/xlink" x="0px" y="0px"
	 width="128px" height="128px" viewBox="0 0 128 128" enable-background="new 0 0 128 128" xml:space="preserve">
<g>
	<circle fill="#EECE7B" cx="64" cy="64" r="64"/>
	<path fill="#F2B359" d="M79.99,18.093l-0.502,0.326c-1.266-1.026-8.833,10.244-8.833,10.244l-8.177,17.459
		c0,0-30.932-24.177-36.265-17.459s17.211,31.764,17.211,31.764l-5.479,2.463l-18.494,9.008l-0.999,4.525l29.448,30.14l-0.711,1.78
		l19.773,19.582c33.439-1.525,60.17-28.709,60.996-62.326L79.99,18.093z"/>
	<g>
		<circle fill="#D7DADA" cx="60.901" cy="62.89" r="14.228"/>
		<path fill="#88AE4A" d="M97.476,87.731c-0.279-1.755-0.83-3.349-1.458-4.877c-1.273-3.049-2.902-5.835-4.611-8.516
			c-0.866-1.332-1.748-2.644-2.666-3.914c-0.919-1.272-1.866-2.51-2.818-3.73c-1.917-2.428-3.88-4.769-5.886-6.999
			c-2.015-2.222-4.054-4.353-6.094-6.392c-1.022-1.017-2.042-2.016-3.062-2.987c-1.049-0.988-2.023-1.881-3.072-2.816
			c-4.092-3.692-8.188-6.895-12.116-9.674c-3.933-2.769-7.718-5.067-11.19-6.918c-3.488-1.831-6.66-3.228-9.458-4.064
			c-2.788-0.824-5.224-1.154-7.083-0.694c-0.453,0.082-0.868,0.272-1.214,0.411c-0.344,0.184-0.63,0.363-0.847,0.519
			c-0.416,0.362-0.614,0.563-0.614,0.563l-0.087,0.103c0,0-0.115,0.16-0.338,0.471c-0.131,0.219-0.336,0.602-0.483,0.987
			c-0.098,0.357-0.238,0.781-0.267,1.235c-0.229,1.86,0.361,4.205,1.542,6.813c1.185,2.618,2.984,5.526,5.27,8.668
			c1.149,1.565,2.421,3.188,3.809,4.854c1.379,1.674,2.875,3.391,4.475,5.144c1.583,1.768,3.298,3.546,5.063,5.392
			c0.772,0.795,1.565,1.597,2.373,2.4c-0.035-0.19,0.001-0.371,0.09-0.527c-2.538-2.615-4.855-5.227-6.951-7.762
			c-3-3.646-5.515-7.17-7.551-10.39c-2.016-3.229-3.566-6.162-4.505-8.646c-0.466-1.24-0.792-2.358-0.965-3.313
			c-0.184-0.958-0.169-1.736-0.075-2.28c0.027-0.288,0.128-0.479,0.176-0.666c0.077-0.128,0.085-0.173,0.14-0.285
			c0.128-0.16,0.221-0.276,0.28-0.352c0.054,0.012,0.229-0.393,1.274-0.568c1.046-0.224,3.05,0.034,5.484,0.948
			c2.448,0.898,5.354,2.401,8.542,4.38c1.593,0.996,3.259,2.113,4.982,3.342c1.729,1.221,3.516,2.557,5.349,3.993
			c1.846,1.419,3.715,2.97,5.657,4.564c0.964,0.807,1.939,1.633,2.918,2.486c0.978,0.852,1.99,1.709,2.975,2.594
			c0.98,0.861,2.027,1.832,3.019,2.734c1.017,0.923,2.032,1.871,3.052,2.837c2.034,1.937,4.068,3.962,6.078,6.074
			c2.017,2.104,4.03,4.28,5.978,6.555c0.969,1.141,1.933,2.296,2.866,3.482c0.95,1.175,1.865,2.381,2.763,3.605
			c1.776,2.455,3.44,5.022,4.771,7.697c0.654,1.335,1.215,2.713,1.516,4.06c0.165,0.674,0.223,1.33,0.187,1.911
			c-0.008,0.293-0.083,0.56-0.14,0.778c-0.039,0.069-0.038,0.127-0.071,0.231l-0.29,0.409l-0.028,0.025l-0.061,0.058
			c-0.04,0.039-0.079,0.08-0.116,0.122c-0.099,0.066-0.203,0.127-0.302,0.2c-0.233,0.109-0.48,0.224-0.783,0.282
			c-0.588,0.135-1.272,0.176-1.98,0.11c-1.416-0.104-2.894-0.471-4.335-0.94c-2.896-0.95-5.694-2.304-8.401-3.755
			c-1.351-0.738-2.687-1.495-3.991-2.295c-1.305-0.799-2.581-1.631-3.844-2.47c-2.515-1.693-4.952-3.441-7.289-5.243
			c-0.28-0.217-0.554-0.437-0.831-0.654c-0.399,0.053-0.813,0.026-1.229-0.062c0.523,0.438,1.052,0.876,1.585,1.313
			c2.289,1.883,4.652,3.761,7.119,5.566c1.237,0.899,2.49,1.793,3.776,2.656c1.274,0.879,2.584,1.724,3.916,2.552
			c2.675,1.638,5.461,3.166,8.471,4.38c1.511,0.596,3.08,1.112,4.8,1.354c0.854,0.129,1.766,0.158,2.727,0.007
			c0.479-0.066,0.976-0.226,1.461-0.434c0.24-0.129,0.482-0.257,0.714-0.405l0.328-0.269l0.161-0.139l0.079-0.07
			c0.065-0.069-0.033,0.056,0.167-0.174l0.372-0.459c0.156-0.241,0.319-0.544,0.457-0.826c0.207-0.522,0.35-1.018,0.408-1.514
			C97.671,89.537,97.621,88.601,97.476,87.731z"/>
		<path fill="#2DA8D2" d="M110.848,53.08l-0.016-0.106c-0.012-0.059,0.003-0.021-0.031-0.158l-0.04-0.138
			c-0.009-0.025-0.01-0.038-0.023-0.075l-0.049-0.114c-0.032-0.074-0.069-0.157-0.106-0.221l-0.111-0.174
			c-0.154-0.226-0.336-0.408-0.522-0.563c-0.375-0.309-0.771-0.518-1.162-0.69c-0.785-0.338-1.57-0.531-2.353-0.69
			c-1.563-0.299-3.117-0.423-4.663-0.492c-3.091-0.124-6.148-0.007-9.17,0.195c-3.022,0.203-6.007,0.517-8.945,0.895
			c-2.938,0.377-5.832,0.809-8.667,1.291c-5.667,0.982-11.114,2.103-16.241,3.332c-5.128,1.229-9.945,2.526-14.351,3.886
			c-2.202,0.68-4.307,1.356-6.294,2.05c-1.986,0.695-3.858,1.396-5.608,2.089c-3.502,1.383-6.499,2.768-8.906,4.113
			c-2.406,1.352-4.234,2.626-5.373,3.977c-0.563,0.673-0.955,1.43-1.044,2.112c-0.051,0.328-0.034,0.612-0.008,0.793
			c0.027,0.185,0.047,0.276,0.047,0.276l0.027,0.099c0,0,0.015,0.045,0.044,0.134c0.012,0.032,0.008,0.028,0.033,0.094
			c0.026,0.065,0.057,0.137,0.093,0.213c0.034,0.072,0.079,0.166,0.121,0.233c0.041,0.062,0.085,0.128,0.132,0.197
			c0.387,0.565,1.076,1.056,1.881,1.389c0.81,0.336,1.765,0.57,2.859,0.73c1.095,0.164,2.331,0.257,3.704,0.275
			c1.371,0.02,2.878-0.016,4.506-0.112c1.629-0.102,3.379-0.271,5.241-0.487c3.722-0.441,7.886-1.105,12.395-1.965
			c1.436-0.269,2.91-0.559,4.412-0.864c-0.24-0.191-0.456-0.418-0.647-0.673c-1.333,0.203-2.643,0.389-3.92,0.557
			c-4.533,0.574-8.702,0.942-12.393,1.128c-1.845,0.092-3.569,0.134-5.158,0.135c-1.588,0.012-3.04-0.031-4.337-0.117
			c-1.295-0.095-2.438-0.216-3.389-0.393c-0.952-0.171-1.712-0.401-2.216-0.634c-0.508-0.234-0.706-0.456-0.726-0.511
			c0,0,0-0.001-0.001-0.001c0.003,0.006,0.007,0.01,0.007,0.01c0.006,0.017,0.008,0.03,0.009,0.043
			c0.001,0.014-0.013-0.042-0.018-0.056c0,0,0,0-0.001-0.001c-0.003-0.005-0.005-0.011-0.009-0.015c0,0,0.004,0.006,0.009,0.013
			c-0.005-0.016-0.007-0.022-0.011-0.036c0.002,0,0.002,0.007,0.01-0.042c0.003-0.054,0.095-0.326,0.456-0.743
			c0.719-0.844,2.371-2.022,4.645-3.223c2.285-1.208,5.207-2.5,8.63-3.834c1.714-0.662,3.554-1.333,5.511-2.002
			c1.953-0.677,4.02-1.362,6.188-2.04c4.342-1.345,9.083-2.704,14.142-3.985c5.06-1.273,10.424-2.523,16.014-3.599
			c5.584-1.096,11.396-2.042,17.323-2.672c2.963-0.303,5.961-0.521,8.95-0.506c1.491,0.014,2.986,0.084,4.428,0.308
			c0.715,0.118,1.424,0.272,2.051,0.518c0.31,0.123,0.598,0.271,0.819,0.439c0.109,0.085,0.2,0.173,0.265,0.261l0.047,0.064
			c0.012,0.018,0.012,0.024,0.021,0.035l0.014,0.014c0.006,0.008,0.015,0.041,0.021,0.061l0.033,0.099
			c0.001,0.008,0.005,0.026,0.003,0.021l0.007,0.034c0.007,0.021,0.008,0.046,0.007,0.071c0.006,0.048,0.001,0.102-0.007,0.156
			c-0.013,0.109-0.051,0.233-0.107,0.363c-0.115,0.259-0.301,0.53-0.519,0.789c-0.441,0.52-0.999,0.996-1.579,1.441
			c-1.175,0.886-2.469,1.657-3.786,2.376c-2.645,1.433-5.405,2.657-8.175,3.791c-2.77,1.138-5.566,2.154-8.354,3.09
			c-2.785,0.938-5.557,1.811-8.302,2.607c-1.699,0.489-3.381,0.948-5.052,1.393c-0.033,0.067-0.063,0.136-0.1,0.204
			c-0.073,0.134-0.153,0.259-0.233,0.383c1.827-0.47,3.666-0.955,5.527-1.479c5.523-1.521,11.175-3.297,16.831-5.382
			c2.823-1.059,5.644-2.207,8.391-3.588c1.371-0.696,2.727-1.446,4.016-2.357c0.642-0.464,1.271-0.96,1.839-1.587
			c0.281-0.316,0.55-0.667,0.76-1.099c0.104-0.217,0.19-0.457,0.235-0.725c0.023-0.133,0.038-0.27,0.033-0.413
			C110.862,53.224,110.859,53.152,110.848,53.08z"/>
		<path fill="#BD3929" d="M81.674,23.068c-0.058-0.789-0.149-1.586-0.385-2.398c-0.122-0.405-0.277-0.818-0.535-1.225
			c-0.131-0.201-0.288-0.401-0.492-0.58c-0.102-0.09-0.21-0.174-0.335-0.245c-0.06-0.038-0.121-0.073-0.188-0.101l-0.1-0.044
			c-0.056-0.021-0.017-0.013-0.15-0.057l-0.139-0.038c-0.026-0.006-0.038-0.012-0.076-0.019l-0.123-0.02
			c-0.08-0.011-0.17-0.023-0.244-0.025L78.7,18.321c-0.272,0.013-0.524,0.07-0.754,0.148c-0.46,0.157-0.845,0.384-1.198,0.625
			c-0.7,0.491-1.277,1.059-1.824,1.64c-1.075,1.174-1.997,2.432-2.868,3.71c-1.729,2.564-3.236,5.229-4.653,7.907
			c-1.415,2.679-2.717,5.383-3.939,8.082c-1.223,2.698-2.377,5.387-3.455,8.054c-2.142,5.34-4.051,10.563-5.698,15.572
			c-1.649,5.009-3.076,9.792-4.233,14.254c-0.58,2.231-1.109,4.378-1.564,6.434c-0.451,2.056-0.839,4.018-1.169,5.87
			c-0.663,3.707-1.06,6.985-1.179,9.741c-0.115,2.759,0.008,4.983,0.56,6.661c0.276,0.834,0.715,1.564,1.248,1.998
			c0.253,0.217,0.504,0.353,0.671,0.425c0.171,0.074,0.26,0.105,0.26,0.105L49,109.576c0,0,0.047,0.011,0.138,0.033
			c0.032,0.007,0.028,0.008,0.098,0.021s0.146,0.024,0.229,0.034c0.08,0.008,0.184,0.02,0.263,0.019
			c0.073-0.002,0.152-0.005,0.237-0.008c0.684-0.032,1.464-0.362,2.17-0.871c0.711-0.513,1.413-1.202,2.124-2.05
			c0.715-0.846,1.442-1.849,2.181-3.008c0.737-1.156,1.499-2.456,2.272-3.894c0.769-1.439,1.544-3.018,2.337-4.717
			c1.583-3.398,3.205-7.291,4.844-11.578c1.098-2.847,2.201-5.869,3.324-9.029c-0.24,0.181-0.504,0.33-0.783,0.45
			c-1.134,2.882-2.299,5.618-3.458,8.195c-1.893,4.159-3.771,7.9-5.552,11.138c-0.892,1.619-1.762,3.109-2.596,4.461
			c-0.824,1.358-1.624,2.571-2.379,3.63c-0.76,1.052-1.464,1.96-2.114,2.677c-0.646,0.721-1.241,1.246-1.704,1.553
			c-0.466,0.309-0.758,0.361-0.815,0.35c0.006,0,0.011,0,0.014,0.001c0.015,0.003,0.027,0.007,0.038,0.014
			c0.012,0.007-0.043-0.011-0.057-0.014c0,0,0,0-0.001-0.001c-0.006,0-0.012,0-0.018,0.001c-0.001,0,0.006-0.001,0.015-0.001
			c-0.016-0.005-0.022-0.007-0.035-0.01c0.002-0.002,0.005,0-0.031-0.03c-0.044-0.031-0.228-0.253-0.392-0.78
			c-0.342-1.054-0.477-3.08-0.303-5.646c0.174-2.579,0.608-5.744,1.272-9.357c0.337-1.807,0.732-3.726,1.192-5.742
			c0.449-2.018,0.952-4.137,1.517-6.339c1.136-4.401,2.471-9.15,4.037-14.128c1.576-4.975,3.33-10.196,5.354-15.518
			c2.002-5.329,4.249-10.772,6.829-16.147c1.299-2.681,2.688-5.348,4.272-7.883c0.795-1.261,1.64-2.497,2.588-3.606
			c0.477-0.546,0.98-1.068,1.519-1.473c0.268-0.199,0.544-0.367,0.804-0.466c0.13-0.048,0.253-0.081,0.361-0.089l0.08-0.007
			c0.021,0,0.026,0.003,0.041,0.001l0.019-0.005c0.01-0.001,0.043,0.01,0.063,0.014l0.1,0.023c0.007,0.003,0.027,0.01,0.021,0.009
			l0.032,0.013c0.022,0.005,0.044,0.017,0.064,0.03c0.043,0.021,0.086,0.053,0.129,0.088c0.087,0.069,0.172,0.167,0.252,0.282
			c0.161,0.234,0.294,0.536,0.4,0.856c0.21,0.65,0.322,1.374,0.396,2.102c0.137,1.465,0.112,2.973,0.032,4.471
			c-0.171,3.003-0.579,5.996-1.069,8.949c-0.488,2.954-1.091,5.869-1.76,8.731c-0.523,2.248-1.085,4.457-1.667,6.641
			c0.197-0.098,0.402-0.125,0.598-0.095c1.378-4.881,2.64-9.931,3.69-15.12c0.583-2.958,1.088-5.962,1.356-9.025
			C81.696,26.191,81.771,24.645,81.674,23.068z"/>
		<circle fill="#008AAE" cx="37.223" cy="75.492" r="5.623"/>
		<circle fill="#5A7D38" cx="90.403" cy="75.539" r="4.692"/>
		<circle fill="#831618" cx="71.694" cy="28.664" r="3.435"/>
	</g>
</g>
</svg>
