<?xml version="1.0" encoding="utf-8"?>
<!-- Generator: Adobe Illustrator 16.0.0, SVG Export Plug-In . SVG Version: 6.00 Build 0)  -->
<!DOCTYPE svg PUBLIC "-//W3C//DTD SVG 1.1//EN" "http://www.w3.org/Graphics/SVG/1.1/DTD/svg11.dtd">
<svg version="1.1" id="Layer_1" xmlns="http://www.w3.org/2000/svg" xmlns:xlink="http://www.w3.org/1999/xlink" x="0px" y="0px"
	 width="128px" height="128px" viewBox="0 0 128 128" enable-background="new 0 0 128 128" xml:space="preserve">
<g>
	<circle fill="#E5766D" cx="64" cy="64" r="64"/>
	<path fill="#E1574C" d="M92.901,26.113l-1.021,0.851l-10.008,4.258l-3.249-6.271l-1.978,6.065l-1.206,2.382L73.09,30.14l-3.1-1.12
		l-0.894,3.574l-3.231-4.241L64,29.422l-0.666,0.179l-4.11-4.65l-19.797,1.113l-10.968,4.608L31.21,96.21l-3.472,5.249
		l25.954,25.703C57.049,127.706,60.489,128,64,128c35.346,0,64-28.653,64-64c0-1.076-0.028-2.146-0.081-3.208L92.901,26.113z"/>
	<g>
		<g>
			<g>
				<path fill="#ECECEC" d="M90.573,24.95H80.316c0.043,0.28,0.209,0.574,0.236,0.87c0.099,1.103-0.127,2.153-0.12,3.226
					c0.002,0.312,0.112,0.801,0.179,1.29c0.611,0.321,1.028,0.957,1.028,1.695c0,1.053-0.854,1.907-1.908,1.907
					c-1.055,0-1.909-0.854-1.909-1.907c0-0.659,0.333-1.242,0.842-1.585c-0.068-0.076-0.123-0.157-0.148-0.24
					c-0.446-1.432,0.488-3.545,0.108-5.256h-4.788c0.64,0.121,1.31-0.194,1.59,0.604c0.166,0.471-0.166,0.82-0.25,1.226
					c-0.039,0.188,0.102,0.511,0.017,0.687c-0.099,0.199-0.519,0.578-0.552,0.661c-0.287,0.722-0.293,1.051-0.291,1.994
					c0,0.076,0.005,0.182,0.009,0.301c0.529,0.341,0.882,0.932,0.882,1.609c0,1.053-0.854,1.907-1.908,1.907
					c-1.055,0-1.909-0.854-1.909-1.907c0-0.974,0.729-1.773,1.667-1.892c-0.015-0.082-0.027-0.15-0.043-0.197
					c-0.454-1.403-1.643-3.035-2.293-4.216c-0.854-0.178-0.844,0.518-1.146,1.058c-0.708,1.262-1.565,1.149-2.887,2.021
					c0.465,0.507,0.686,0.832,0.659,1.369c0.838,0.202,1.461,0.955,1.461,1.856c0,1.053-0.854,1.907-1.908,1.907
					c-1.055,0-1.909-0.854-1.909-1.907c0-0.711,0.39-1.329,0.965-1.659c-0.247-0.372-0.072-1.047-0.123-2.02
					c-1.373,0.021-1.436-2.136-2.598-1.802c-0.086,0.574,0.34,1.513,0.09,2.03c-0.074,0.153-0.82,0.356-1.062,0.709
					c-0.208,0.305-0.062,0.909-0.36,1.309c-0.017,0.022-0.038,0.047-0.063,0.074c0.351,0.345,0.569,0.824,0.569,1.358
					c0,1.053-0.855,1.907-1.909,1.907c-1.055,0-1.908-0.854-1.908-1.907c0-0.805,0.499-1.493,1.203-1.773
					c-0.149-0.798-0.005-1.907-0.142-2.539c-0.159-0.735-0.36-1.275-0.485-2.042c-0.036-0.218,0.045-0.496,0.022-0.727h-28.73
					c-1.934,0-3.515,1.58-3.515,3.515v71.07c0,1.935,1.581,3.515,3.515,3.515h60.08c1.933,0,3.515-1.58,3.515-3.515v-71.07
					C94.088,26.53,92.506,24.95,90.573,24.95z M34.937,33.938c-1.055,0-1.909-0.854-1.909-1.907c0-1.056,0.854-1.91,1.909-1.91
					c1.054,0,1.908,0.854,1.908,1.91C36.845,33.084,35.99,33.938,34.937,33.938z M41.336,33.938c-1.055,0-1.909-0.854-1.909-1.907
					c0-1.056,0.854-1.91,1.909-1.91c1.054,0,1.907,0.854,1.907,1.91C43.243,33.084,42.39,33.938,41.336,33.938z M47.734,33.938
					c-1.053,0-1.909-0.854-1.909-1.907c0-1.056,0.856-1.91,1.909-1.91c1.055,0,1.909,0.854,1.909,1.91
					C49.644,33.084,48.789,33.938,47.734,33.938z M54.134,33.938c-1.054,0-1.908-0.854-1.908-1.907c0-1.056,0.854-1.91,1.908-1.91
					c1.055,0,1.909,0.854,1.909,1.91C56.043,33.084,55.188,33.938,54.134,33.938z M86.13,33.938c-1.054,0-1.908-0.854-1.908-1.907
					c0-1.056,0.854-1.91,1.908-1.91c1.055,0,1.909,0.854,1.909,1.91C88.039,33.084,87.185,33.938,86.13,33.938z"/>
			</g>
			<g>
				<rect x="32.04" y="40.621" fill="#2B414D" width="56.985" height="1.054"/>
			</g>
			<g>
				<rect x="32.04" y="45.645" fill="#2B414D" width="56.985" height="0.264"/>
			</g>
			<g>
				<rect x="32.04" y="49.712" fill="#2B414D" width="56.985" height="0.265"/>
			</g>
			<g>
				<rect x="32.04" y="53.78" fill="#2B414D" width="56.985" height="0.262"/>
			</g>
			<g>
				<rect x="32.04" y="57.849" fill="#2B414D" width="56.985" height="0.262"/>
			</g>
			<g>
				<rect x="32.04" y="61.913" fill="#2B414D" width="56.985" height="0.265"/>
			</g>
			<g>
				<rect x="32.04" y="65.981" fill="#2B414D" width="56.985" height="0.265"/>
			</g>
			<g>
				<rect x="32.04" y="70.049" fill="#2B414D" width="56.985" height="0.265"/>
			</g>
			<g>
				<rect x="32.04" y="74.117" fill="#2B414D" width="56.985" height="0.265"/>
			</g>
			<g>
				<rect x="32.04" y="78.185" fill="#2B414D" width="56.985" height="0.263"/>
			</g>
			<g>
				<rect x="32.04" y="82.253" fill="#2B414D" width="56.985" height="0.262"/>
			</g>
			<g>
				<rect x="32.04" y="86.318" fill="#2B414D" width="56.985" height="0.265"/>
			</g>
			<g>
				<rect x="32.04" y="90.388" fill="#2B414D" width="56.985" height="0.264"/>
			</g>
			<g>
				<rect x="32.04" y="94.454" fill="#2B414D" width="56.985" height="0.265"/>
			</g>
			<g>
				<rect x="32.04" y="98.522" fill="#2B414D" width="56.985" height="0.265"/>
			</g>
			<g>
				<path fill="none" d="M65.988,30.372c-0.575,0.33-0.965,0.948-0.965,1.659c0,1.053,0.854,1.907,1.909,1.907
					c1.054,0,1.908-0.854,1.908-1.907c0-0.901-0.623-1.654-1.461-1.856c-0.007,0.155-0.032,0.325-0.081,0.524
					C66.522,30.737,66.158,30.626,65.988,30.372z"/>
			</g>
			<g>
				<path fill="none" d="M73.09,30.14c0.099,0.551,0.203,1.755,0.667,1.771c0.614,0.022,0.619-0.917,0.602-1.488
					c-0.297-0.188-0.648-0.301-1.026-0.301C73.249,30.121,73.17,30.128,73.09,30.14z"/>
			</g>
			<g>
				<path fill="none" d="M65.988,30.372c0.17,0.254,0.534,0.365,1.311,0.327c0.049-0.199,0.074-0.369,0.081-0.524
					c-0.144-0.033-0.293-0.054-0.447-0.054C66.588,30.121,66.267,30.213,65.988,30.372z"/>
			</g>
			<g>
				<path fill="none" d="M73.757,31.91c-0.464-0.016-0.568-1.22-0.667-1.771c-0.938,0.118-1.667,0.918-1.667,1.892
					c0,1.053,0.854,1.907,1.909,1.907c1.054,0,1.908-0.854,1.908-1.907c0-0.678-0.353-1.269-0.882-1.609
					C74.376,30.993,74.371,31.933,73.757,31.91z"/>
			</g>
			<g>
				<path fill="none" d="M80.316,31.885c-0.338,0.212-0.99-0.007-1.201-0.208c-0.117-0.11,0.098-0.583,0.014-0.724
					c-0.098-0.159-0.313-0.327-0.465-0.507c-0.509,0.343-0.842,0.926-0.842,1.585c0,1.053,0.854,1.907,1.909,1.907
					c1.054,0,1.908-0.854,1.908-1.907c0-0.738-0.417-1.374-1.028-1.695C80.701,30.986,80.717,31.638,80.316,31.885z"/>
			</g>
			<g>
				<path fill="none" d="M78.664,30.446c0.151,0.18,0.367,0.348,0.465,0.507c0.084,0.141-0.131,0.613-0.014,0.724
					c0.211,0.201,0.863,0.42,1.201,0.208c0.4-0.247,0.385-0.898,0.295-1.549c-0.263-0.137-0.563-0.215-0.88-0.215
					C79.336,30.121,78.969,30.242,78.664,30.446z"/>
			</g>
			<g>
				<path fill="none" d="M60.274,31.08c-0.247-0.159-0.376-0.459-0.446-0.822c-0.704,0.28-1.203,0.969-1.203,1.773
					c0,1.053,0.854,1.907,1.908,1.907c1.054,0,1.909-0.854,1.909-1.907c0-0.534-0.219-1.014-0.569-1.358
					C61.595,30.976,60.87,31.466,60.274,31.08z"/>
			</g>
			<g>
				<path fill="none" d="M59.828,30.258c0.07,0.363,0.199,0.663,0.446,0.822c0.596,0.386,1.32-0.104,1.599-0.407
					c-0.345-0.341-0.817-0.552-1.34-0.552C60.283,30.121,60.047,30.171,59.828,30.258z"/>
			</g>
			<g>
				<circle fill="none" cx="47.734" cy="32.03" r="1.909"/>
			</g>
			<g>
				<circle fill="none" cx="54.134" cy="32.03" r="1.909"/>
			</g>
			<g>
				<circle fill="none" cx="86.13" cy="32.03" r="1.909"/>
			</g>
			<g>
				<circle fill="none" cx="41.336" cy="32.03" r="1.909"/>
			</g>
			<g>
				<circle fill="none" cx="34.937" cy="32.03" r="1.909"/>
			</g>
		</g>
		<g>
			<polygon fill="#455D6A" points="61.996,88.116 55.511,81.632 68.141,67.378 76.248,75.486 			"/>
			
				<rect x="73.894" y="53.49" transform="matrix(0.7072 0.707 -0.707 0.7072 68.5647 -37.5579)" fill="#334E5C" width="11.466" height="21.019"/>
			<path fill="#2C4451" d="M90.872,60.862l13.48-13.479c0.893-0.895,0.893-2.355,0-3.248l-4.861-4.861
				c-0.894-0.892-2.354-0.892-3.247,0L82.765,52.754L90.872,60.862z"/>
			
				<ellipse transform="matrix(0.7072 0.7071 -0.7071 0.7072 77.2407 -16.6066)" fill="#233640" cx="58.668" cy="84.944" rx="4.599" ry="1.084"/>
			
				<rect x="94.1" y="43.137" transform="matrix(0.7071 0.7071 -0.7071 0.7071 60.2131 -57.769)" fill="#EDC55D" width="11.468" height="1.313"/>
			
				<rect x="92.085" y="42.334" transform="matrix(0.7074 0.7068 -0.7068 0.7074 63.8682 -51.0545)" fill="#EDC55D" width="3.034" height="18.568"/>
			<g>
				<path fill="#EDC55D" d="M57.28,93.02c0,0,2.127-3.773,3.253-5.89c-0.64-1.798-2.173-3.143-3.818-4.095
					c-2.04,1.085-6.388,3.563-6.388,3.563c0.564,3.317-0.385,5.843-0.972,7.016c-0.502-0.321-1.197-0.251-1.643,0.194
					c-0.501,0.5-0.499,1.282,0.004,1.749l0.349,0.322c0.504,0.464,1.319,0.435,1.818-0.065c0.446-0.445,0.49-1.116,0.139-1.584
					C51.219,93.62,53.809,92.607,57.28,93.02z M54.646,90.189c-0.839,0.002-1.5-0.65-1.477-1.457
					c0.023-0.81,0.725-1.468,1.564-1.471c0.84-0.004,1.502,0.646,1.479,1.455C56.188,89.525,55.487,90.185,54.646,90.189z"/>
				<path fill="#EDB048" d="M57.28,93.02c0,0,2.127-3.773,3.253-5.89c-0.214-0.599-0.523-1.149-0.906-1.649
					c-1.481,2.189-2.636,4.65-4.926,6.139c-1.589,1.031-3.454,1.788-5.328,1.959c-0.006,0.011-0.012,0.024-0.018,0.036
					c-0.017-0.012-0.036-0.018-0.054-0.029c-0.434,0.038-0.868,0.04-1.298,0.009c-0.104,0.059-0.204,0.128-0.291,0.215
					c-0.501,0.5-0.499,1.282,0.004,1.749l0.349,0.322c0.504,0.464,1.319,0.435,1.818-0.065c0.446-0.445,0.49-1.116,0.139-1.584
					C51.219,93.62,53.809,92.607,57.28,93.02z"/>
			</g>
		</g>
	</g>
</g>
</svg>
