<?xml version="1.0" encoding="utf-8"?>
<!-- Generator: Adobe Illustrator 16.0.0, SVG Export Plug-In . SVG Version: 6.00 Build 0)  -->
<!DOCTYPE svg PUBLIC "-//W3C//DTD SVG 1.1//EN" "http://www.w3.org/Graphics/SVG/1.1/DTD/svg11.dtd">
<svg version="1.1" id="Layer_1" xmlns="http://www.w3.org/2000/svg" xmlns:xlink="http://www.w3.org/1999/xlink" x="0px" y="0px"
	 width="128px" height="128px" viewBox="0 0 128 128" enable-background="new 0 0 128 128" xml:space="preserve">
<g>
	<circle fill="#F2B359" cx="64" cy="64" r="64"/>
	<path fill="#CF7C3F" d="M104.859,30.505l-0.485,0.232l-4.29,17.694l-4.506-0.154l-10.041-9.385l-6.054,1.321v21.024L53.862,38.893
		l-5.876,12.134L27.948,30.737l-4.29,64.143l-1.2,1.396l31.179,30.877C57.011,127.702,60.47,128,64,128c35.348,0,64-28.653,64-64
		c0-3.979-0.382-7.866-1.076-11.645L104.859,30.505z"/>
	<g>
		<g>
			<path fill="#E3E5E5" d="M75.229,62.085V40.301h8.509v21.784c3.451,1.606,5.844,5.104,5.844,9.159
				c0,5.577-4.521,10.097-10.098,10.097s-10.099-4.52-10.099-10.097C69.385,67.189,71.778,63.691,75.229,62.085z"/>
			<path fill="#EF7D68" d="M87.787,67.8c0.448,1.076,0.69,2.243,0.69,3.444c0,4.96-4.033,8.995-8.994,8.995
				c-4.96,0-8.994-4.035-8.994-8.995c0-1.201,0.242-2.368,0.691-3.444H87.787z"/>
			<circle fill="#FFFFFF" cx="85.671" cy="73.045" r="1.023"/>
			<circle fill="#FFFFFF" cx="80.898" cy="75.431" r="0.568"/>
			<circle fill="#FFFFFF" cx="76.017" cy="73.833" r="0.789"/>
			<rect x="73.431" y="38.893" fill="#D7DADA" width="12.106" height="2.642"/>
		</g>
		<path fill="#E3E5E5" d="M61.18,77.631l-8.29-13.44V40.808h-8.745V64.19l-8.29,13.44c-0.973,1.577-0.144,2.868,1.845,2.868h21.636
			C61.322,80.499,62.152,79.208,61.18,77.631z"/>
		<path fill="#A0CC51" d="M51.927,64.464v-3.226h-6.82v3.226l-8.432,13.673c-0.248,0.403-0.328,0.769-0.211,0.978
			c0.114,0.205,0.498,0.421,1.235,0.421h21.636c0.737,0,1.121-0.216,1.234-0.421c0.117-0.209,0.037-0.574-0.209-0.978L51.927,64.464
			z"/>
		<circle fill="#FFFFFF" cx="49.94" cy="77.032" r="0.71"/>
		<circle fill="#FFFFFF" cx="44.04" cy="74.383" r="1.508"/>
		<circle fill="#FFFFFF" cx="53.62" cy="72.454" r="0.958"/>
		<rect x="43.172" y="38.893" fill="#D7DADA" width="10.69" height="2.333"/>
		<g>
			<g>
				<polygon fill="#9A4922" points="104.374,97.264 23.658,97.264 23.658,30.737 27.948,30.737 27.948,92.974 100.084,92.974 
					100.084,30.737 104.374,30.737 				"/>
			</g>
		</g>
		<rect x="27.948" y="47.651" fill="#7C817E" width="16.092" height="1.252"/>
		<rect x="22.186" y="47.983" fill="#7C817E" width="1.473" height="0.588"/>
		<path fill="#B6B2B3" d="M28.154,49.202c0,0.295-0.241,0.537-0.536,0.537h-3.641c-0.295,0-0.536-0.242-0.536-0.537v-1.85
			c0-0.295,0.241-0.537,0.536-0.537h3.641c0.295,0,0.536,0.242,0.536,0.537V49.202z"/>
		<rect x="21.813" y="47.398" fill="#7C817E" width="0.477" height="1.758"/>
		<g>
			<path fill="#B6B2B3" d="M45.255,45.321h-1.047c-0.295,0-0.536,0.24-0.536,0.535v4.842c0,0.295,0.241,0.535,0.536,0.535h1.047
				V45.321z"/>
			<path fill="#B6B2B3" d="M51.778,45.321h1.049c0.294,0,0.535,0.24,0.535,0.535v4.842c0,0.295-0.241,0.535-0.535,0.535h-1.049
				V45.321z"/>
		</g>
		<rect x="83.96" y="47.651" fill="#7C817E" width="16.092" height="1.252"/>
		<rect x="104.342" y="47.983" fill="#7C817E" width="1.473" height="0.588"/>
		<path fill="#B6B2B3" d="M99.847,49.202c0,0.295,0.24,0.537,0.536,0.537h3.64c0.295,0,0.536-0.242,0.536-0.537v-1.85
			c0-0.295-0.241-0.537-0.536-0.537h-3.64c-0.296,0-0.536,0.242-0.536,0.537V49.202z"/>
		<rect x="105.711" y="47.398" fill="#7C817E" width="0.476" height="1.758"/>
		<g>
			<path fill="#B6B2B3" d="M82.745,45.321h1.047c0.295,0,0.536,0.24,0.536,0.535v4.842c0,0.295-0.241,0.535-0.536,0.535h-1.047
				V45.321z"/>
			<path fill="#B6B2B3" d="M76.221,45.321h-1.048c-0.294,0-0.535,0.24-0.535,0.535v4.842c0,0.295,0.241,0.535,0.535,0.535h1.048
				V45.321z"/>
		</g>
	</g>
</g>
</svg>
