<?xml version="1.0" encoding="utf-8"?>
<!-- Generator: Adobe Illustrator 16.0.0, SVG Export Plug-In . SVG Version: 6.00 Build 0)  -->
<!DOCTYPE svg PUBLIC "-//W3C//DTD SVG 1.1//EN" "http://www.w3.org/Graphics/SVG/1.1/DTD/svg11.dtd">
<svg version="1.1" id="Layer_1" xmlns="http://www.w3.org/2000/svg" xmlns:xlink="http://www.w3.org/1999/xlink" x="0px" y="0px"
	 width="128px" height="128px" viewBox="0 0 128 128" enable-background="new 0 0 128 128" xml:space="preserve">
<g>
	<circle fill="#91D7EE" cx="64" cy="64" r="64"/>
	<path fill="#4ABDE5" d="M84.324,15.632l-0.846,1.113c0,0-6.713,2.188-7.002,0.817s-1.783-4.67-3.465-4.403
		s-1.443,5.479-1.443,5.479h-2.598c0,0-0.725-4.54-3.105-4.612c-2.383-0.072-1.864,5.688-1.864,5.688s-1.963,2.033-2.395,0.374
		c-0.434-1.659-1.738-4.997-3.32-4.908s-1.805,5.454-1.805,5.454s-2.236,2.052-2.453,0.681s-1.57-5.122-3.32-4.997
		s-1.939,5.393-1.939,5.393s-1.959,1.048-2.031,0.432s-1.336-4.537-3.246-4.869s-1.949,5.409-1.949,5.409s-1.805,2.024-1.914,0.536
		c-0.111-1.488-2.232-5.002-3.715-4.934c-1.482,0.066-2.035,4.934-2.035,4.934l0.937,0.644c0,0-2.656,2.145-3.089,0.154
		s-1.561-4.565-3.392-4.302c-1.831,0.265-1.888,4.578-1.888,4.578s1.455,8.858,1.604,9.076c0.149,0.216,3.084,16.674,3.084,16.674
		l-7.685,22.63l-8.222,0.802l9.26,9.008l-2.158,8.943l8.805,9.794l-1.643,1.373l24.934,24.692C57.55,127.753,60.746,128,64,128
		c35.346,0,64-28.653,64-64c0-1.804-0.094-3.585-0.238-5.352L84.324,15.632z"/>
	<g>
		
			<rect x="23.985" y="20.279" transform="matrix(0.9897 -0.143 0.143 0.9897 -7.8556 8.7554)" fill="#1F84A6" width="66.039" height="77.538"/>
		<polygon fill="#AEB4AD" points="92.303,90.173 31.956,98.892 21.29,25.037 81.635,16.317 		"/>
		<path fill="#D7DADA" d="M21.29,25.037c0,0,5.817,25.527,0.299,66.179c0,0,31.454,9.688,60.12-8.685c0,0,2.115-42.29-0.074-66.214
			L21.29,25.037z"/>
		<path fill="#FFFFFF" d="M21.29,25.037c0,0,11.193,38.667-6.061,48.437c0,0,26.057,13.948,56.101-1.465
			c0,0,14.184-26.635,10.305-55.691L21.29,25.037z"/>
		<g>
			
				<ellipse transform="matrix(0.9898 -0.1428 0.1428 0.9898 -3.7789 4.5174)" fill="#455D6A" cx="29.594" cy="28.595" rx="1.543" ry="1.506"/>
			<g>
				<path fill="#2B414D" d="M28.602,20.026c0.892-0.129,2.104,1.309,2.474,3.58l1.109-0.16c-0.445-2.789-2.07-4.773-3.744-4.531
					c-1.704,0.247-2.713,2.68-2.3,5.537c0.414,2.859,2.07,4.908,3.772,4.664c0.307-0.046,0.519-0.331,0.475-0.637
					c-0.044-0.309-0.328-0.519-0.636-0.476c-0.909,0.132-2.161-1.36-2.499-3.712C26.912,21.942,27.688,20.159,28.602,20.026z"/>
			</g>
		</g>
		<g>
			
				<ellipse transform="matrix(0.9897 -0.1434 0.1434 0.9897 -3.5639 5.5965)" fill="#455D6A" cx="37.04" cy="27.52" rx="1.542" ry="1.506"/>
			<g>
				<path fill="#2B414D" d="M36.046,18.95c0.891-0.128,2.105,1.308,2.473,3.581l1.109-0.158c-0.445-2.79-2.07-4.773-3.744-4.532
					c-1.703,0.245-2.713,2.679-2.298,5.537c0.412,2.859,2.07,4.908,3.773,4.661c0.305-0.046,0.52-0.328,0.475-0.637
					c-0.045-0.306-0.328-0.519-0.637-0.474c-0.91,0.132-2.162-1.361-2.502-3.711C34.357,20.868,35.134,19.083,36.046,18.95z"/>
			</g>
		</g>
		<g>
			
				<ellipse transform="matrix(0.9898 -0.1424 0.1424 0.9898 -3.3121 6.6038)" fill="#455D6A" cx="44.484" cy="26.443" rx="1.543" ry="1.506"/>
			<g>
				<path fill="#2B414D" d="M43.49,17.876c0.893-0.131,2.107,1.308,2.475,3.58l1.109-0.16c-0.445-2.789-2.07-4.773-3.744-4.531
					c-1.703,0.245-2.713,2.678-2.299,5.537c0.414,2.86,2.068,4.907,3.771,4.662c0.307-0.045,0.518-0.329,0.475-0.636
					s-0.328-0.52-0.635-0.476c-0.912,0.131-2.162-1.359-2.5-3.712C41.802,19.792,42.578,18.006,43.49,17.876z"/>
			</g>
		</g>
		<g>
			<path fill="#455D6A" d="M53.455,25.149c0.119,0.821-0.467,1.589-1.311,1.71c-0.844,0.123-1.623-0.447-1.742-1.27
				c-0.119-0.825,0.467-1.591,1.311-1.712C52.556,23.755,53.335,24.322,53.455,25.149z"/>
			<g>
				<path fill="#2B414D" d="M50.935,16.8c0.893-0.13,2.105,1.308,2.473,3.579l1.109-0.158c-0.443-2.788-2.068-4.773-3.744-4.529
					c-1.701,0.242-2.711,2.677-2.297,5.534c0.412,2.86,2.068,4.908,3.771,4.662c0.307-0.044,0.52-0.328,0.475-0.636
					c-0.043-0.306-0.328-0.519-0.635-0.474c-0.912,0.131-2.164-1.362-2.502-3.711C49.246,18.715,50.023,16.931,50.935,16.8z"/>
			</g>
		</g>
		<g>
			
				<ellipse transform="matrix(0.9897 -0.1433 0.1433 0.9897 -2.8688 8.7604)" fill="#455D6A" cx="59.373" cy="24.292" rx="1.543" ry="1.508"/>
			<g>
				<path fill="#2B414D" d="M58.38,15.724c0.891-0.129,2.105,1.309,2.475,3.581l1.107-0.159c-0.443-2.788-2.07-4.773-3.744-4.531
					c-1.703,0.246-2.713,2.677-2.299,5.537s2.068,4.907,3.771,4.66c0.307-0.043,0.52-0.326,0.475-0.634
					c-0.043-0.309-0.326-0.519-0.635-0.476c-0.91,0.13-2.16-1.36-2.5-3.711S57.468,15.855,58.38,15.724z"/>
			</g>
		</g>
		<g>
			
				<ellipse transform="matrix(0.9898 -0.1428 0.1428 0.9898 -2.6306 9.7794)" fill="#455D6A" cx="66.819" cy="23.217" rx="1.542" ry="1.507"/>
			<g>
				<path fill="#2B414D" d="M65.822,14.648c0.895-0.129,2.107,1.309,2.475,3.58l1.111-0.159c-0.445-2.788-2.07-4.773-3.744-4.53
					c-1.704,0.245-2.713,2.678-2.299,5.536c0.412,2.859,2.069,4.908,3.772,4.662c0.309-0.045,0.52-0.33,0.475-0.636
					c-0.043-0.307-0.328-0.52-0.637-0.475c-0.91,0.131-2.161-1.361-2.5-3.712C64.134,16.565,64.912,14.78,65.822,14.648z"/>
			</g>
		</g>
		<g>
			
				<ellipse transform="matrix(0.9897 -0.143 0.143 0.9897 -2.4032 10.8485)" fill="#455D6A" cx="74.264" cy="22.142" rx="1.543" ry="1.507"/>
			<g>
				<path fill="#2B414D" d="M73.27,13.572c0.893-0.127,2.105,1.311,2.475,3.581l1.107-0.159c-0.443-2.788-2.068-4.771-3.744-4.531
					c-1.703,0.246-2.711,2.678-2.299,5.538c0.414,2.859,2.07,4.906,3.773,4.661c0.305-0.046,0.518-0.329,0.475-0.637
					c-0.043-0.306-0.328-0.519-0.635-0.475c-0.912,0.131-2.164-1.36-2.502-3.71C71.58,15.489,72.357,13.705,73.27,13.572z"/>
			</g>
		</g>
		<g>
			
				<rect x="74.229" y="65.171" transform="matrix(0.3171 0.9484 -0.9484 0.3171 141.2189 -9.4351)" fill="#F7981D" width="5.864" height="56.338"/>
			
				<rect x="75.608" y="63.255" transform="matrix(0.317 0.9484 -0.9484 0.317 138.9692 -10.133)" fill="#FDE531" width="1.824" height="56.338"/>
			
				<rect x="76.132" y="65.06" transform="matrix(-0.3158 -0.9488 0.9488 -0.3158 13.017 195.8448)" fill="#F8CC0D" width="1.979" height="56.337"/>
			<polygon fill="#DEBEA1" points="51.375,105.051 49.515,99.489 33.927,107.71 			"/>
			<polygon fill="#F1D7B7" points="50.718,103.097 49.515,99.489 33.927,107.71 			"/>
			<polygon fill="#FAF6C3" points="50.095,101.228 49.515,99.489 33.927,107.71 			"/>
			<polygon fill="#39454E" points="39.07,104.998 33.927,107.71 39.683,106.833 			"/>
			<path fill="#E76165" d="M104.775,87.198l6.254-2.093c1.115-0.371,1.889-1.094,1.719-1.6l-1.238-3.705
				c-0.172-0.51-1.221-0.621-2.332-0.248l-6.258,2.09L104.775,87.198z"/>
			<path fill="#A22163" d="M112.748,83.506l-0.975-2.91l-8.277,2.768l1.279,3.835l6.254-2.093
				C112.145,84.734,112.918,84.012,112.748,83.506z"/>
			<path fill="#802149" d="M112.748,83.506l-0.344-1.024l-8.279,2.771l0.65,1.946l6.254-2.093
				C112.145,84.734,112.918,84.012,112.748,83.506z"/>
		</g>
		<g>
			
				<ellipse transform="matrix(-0.8937 -0.4486 0.4486 -0.8937 65.6608 242.1349)" fill="#F37421" cx="61.507" cy="113.291" rx="0.577" ry="2.521"/>
			<path fill="#603B19" d="M90.777,48.741c-3.377,3.842-7.832,10.82-12.02,19.156c-0.053,0.104-0.104,0.208-0.156,0.312l8.887,4.463
				c0.053-0.104,0.105-0.207,0.156-0.312c4.191-8.334,7.133-16.074,8.199-21.076L90.777,48.741z"/>
			<path fill="#9F6B37" d="M66.297,110.077c5.328-7.726,13.031-21.168,20.898-36.819c0.098-0.196,0.195-0.39,0.293-0.586
				L78.6,68.209c-0.098,0.195-0.195,0.388-0.295,0.586c-7.865,15.65-14.055,29.853-17.075,38.736L66.297,110.077z"/>
			<path fill="#603B19" d="M62.453,114.298c1.035-0.832,2.291-2.396,3.497-4.397l-4.37-2.193c-0.887,2.161-1.393,4.1-1.443,5.428
				L62.453,114.298z"/>
			<path fill="#72481E" d="M91.631,49.171c-3.002,4.032-7.217,11.135-11.414,19.466c-0.053,0.104-0.104,0.207-0.156,0.312
				l5.969,2.984c0.053-0.104,0.104-0.206,0.158-0.312c4.195-8.329,7.393-15.94,8.844-20.748L91.631,49.171z"/>
			<path fill="#AF7C42" d="M65.43,109.638c4.957-7.913,12.426-21.474,20.303-37.117c0.102-0.198,0.199-0.393,0.297-0.588
				l-5.969-2.984c-0.098,0.195-0.197,0.389-0.295,0.584c-7.881,15.646-14.332,29.714-17.739,38.403L65.43,109.638z"/>
			<path fill="#72481E" d="M62.031,114.087c0.877-0.915,2.01-2.54,3.167-4.568l-2.936-1.468c-0.939,2.135-1.572,4.011-1.783,5.258
				L62.031,114.087z"/>
			
				<rect x="79.291" y="67.44" transform="matrix(-0.8937 -0.4487 0.4487 -0.8937 129.0345 166.6391)" fill="#E78A24" width="9.937" height="1.185"/>
			
				<rect x="80.914" y="67.446" transform="matrix(-0.8935 -0.449 0.449 -0.8935 128.9977 166.6619)" fill="#FAA928" width="6.686" height="1.184"/>
			
				<rect x="90.828" y="48.891" transform="matrix(-0.8937 -0.4486 0.4486 -0.8937 155.0178 135.6923)" fill="#FAA928" width="5.507" height="1.185"/>
			<path fill="#FAA925" d="M90.768,69.159c0,0-0.016-0.04-0.045-0.119c-0.018-0.074-0.049-0.176-0.068-0.28
				c-0.043-0.215-0.018-0.453,0.168-0.628c0.156-0.204,0.357-0.441,0.561-0.74c0.104-0.148,0.219-0.301,0.33-0.472
				c0.109-0.17,0.223-0.352,0.344-0.539c0.125-0.183,0.23-0.393,0.354-0.6c0.117-0.211,0.252-0.42,0.363-0.652
				c0.229-0.46,0.488-0.937,0.705-1.453c0.111-0.259,0.242-0.513,0.342-0.784c0.104-0.272,0.207-0.546,0.313-0.82
				c0.111-0.274,0.197-0.561,0.285-0.847c0.094-0.285,0.188-0.571,0.281-0.856c0.158-0.582,0.303-1.168,0.449-1.745
				c0.102-0.586,0.223-1.159,0.332-1.719c0.072-0.565,0.143-1.111,0.209-1.631c0.045-0.258,0.055-0.512,0.072-0.758
				c0.018-0.248,0.033-0.484,0.051-0.715c0.023-0.455,0.078-0.877,0.066-1.25c0.004-0.375,0.006-0.699,0.016-0.97
				c0.014-0.54,0.018-0.85,0.018-0.85l0.262-0.023c0,0,0.041,0.308,0.117,0.847c0.037,0.271,0.078,0.601,0.125,0.977
				c0.057,0.378,0.074,0.807,0.092,1.275c0.01,0.233,0.02,0.479,0.029,0.733c0.012,0.252,0.027,0.515,0.014,0.785
				c-0.02,0.539-0.043,1.107-0.064,1.697c-0.068,0.586-0.127,1.194-0.205,1.812c-0.113,0.61-0.227,1.233-0.355,1.853
				c-0.166,0.611-0.299,1.234-0.508,1.823c-0.1,0.297-0.197,0.591-0.297,0.881c-0.092,0.292-0.223,0.568-0.33,0.846
				c-0.215,0.56-0.465,1.08-0.709,1.57c-0.113,0.249-0.258,0.478-0.379,0.705c-0.127,0.224-0.24,0.449-0.371,0.649
				c-0.127,0.205-0.25,0.4-0.365,0.584c-0.117,0.187-0.242,0.356-0.352,0.52c-0.215,0.324-0.436,0.594-0.604,0.821
				c-0.162,0.239-0.402,0.332-0.646,0.329c-0.111,0.003-0.215-0.016-0.289-0.036c-0.082-0.025-0.121-0.037-0.121-0.037
				L90.768,69.159z"/>
		</g>
	</g>
</g>
</svg>
