<?xml version="1.0" encoding="utf-8"?>
<!-- Generator: Adobe Illustrator 16.0.0, SVG Export Plug-In . SVG Version: 6.00 Build 0)  -->
<!DOCTYPE svg PUBLIC "-//W3C//DTD SVG 1.1//EN" "http://www.w3.org/Graphics/SVG/1.1/DTD/svg11.dtd">
<svg version="1.1" id="Layer_1" xmlns="http://www.w3.org/2000/svg" xmlns:xlink="http://www.w3.org/1999/xlink" x="0px" y="0px"
	 width="128px" height="128px" viewBox="0 0 128 128" enable-background="new 0 0 128 128" xml:space="preserve">
<g>
	<circle fill="#D7DADA" cx="64" cy="64" r="64"/>
	<path fill="#AEB4AD" d="M97.887,22.703H67.09h-3.938l-0.354,5.754v7.77l-6.293,68.765v5.609l16.872,16.709
		C104.277,122.771,128,96.16,128,64c0-4.36-0.439-8.617-1.27-12.733L97.887,22.703z"/>
	<g>
		<g>
			<path fill="#CF7C3F" d="M110.004,80.464c0,0,4.813,6.084,0.918,12.477l-54.348,17.765L15.558,68.722l5.395-1.553"/>
			<path fill="#FFFAF3" d="M108.945,82.056c0,0,3.125,4.553,1.16,8.549l-52.542,16.906L19.408,69.367c0,0,2.039-4.798-0.533-7.267
				l86.922,16.865L108.945,82.056z"/>
			<polygon fill="#F2B359" points="16.573,60.842 54.775,97.063 110.004,80.464 67.258,48.758 			"/>
		</g>
		<g>
			<g>
				<g>
					<path fill="#5CB047" d="M61.771,37.017c-0.154,0.012-0.314-0.008-0.471-0.062c-0.613-0.213-0.941-0.882-0.729-1.497l0,0
						c0.047-0.135,4.534-13.543-3.625-20.066c-0.508-0.406-0.59-1.147-0.184-1.655c0.406-0.509,1.146-0.591,1.654-0.185
						c9.463,7.566,4.594,22.062,4.381,22.675C62.64,36.685,62.226,36.983,61.771,37.017z"/>
				</g>
			</g>
			<path fill="#E41E25" d="M73.293,30.137c-4.129-0.427-8.111,0.958-11.452,3.624c-3.693-2.15-7.836-2.938-11.857-1.913
				c-9.66,2.461-14.953,14.423-11.82,26.72c3.133,12.293,13.504,20.265,23.164,17.805c1.256-0.321,2.436-0.805,3.537-1.426
				c1.178,0.453,2.417,0.761,3.708,0.894c9.916,1.023,19.012-8.378,20.314-20.998C90.191,42.221,83.209,31.16,73.293,30.137z"/>
			<path fill="#D12027" d="M73.293,30.137c-3.977-0.41-7.816,0.862-11.079,3.338c-0.41,0.595-0.865,1.167-1.355,1.712
				c6.168,1.818,12.237,3.936,16.108,9.556c3.51,5.094,4.604,12.109,3.109,18.106c-1.129,4.538-3.313,9.438-6.885,12.721
				c7.98-1.764,14.598-10.104,15.695-20.728C90.191,42.221,83.209,31.16,73.293,30.137z"/>
			<path fill="#5CB047" d="M65.123,22.427c0,0,15.531-20.063,31.813-0.005c0,0-9.848-0.599-16.189,4.533
				C74.404,32.086,65.123,22.427,65.123,22.427z"/>
		</g>
		<g>
			<polygon fill="#04786C" points="53.912,84.86 53.869,81.133 98.223,80.276 98.264,84.003 			"/>
			<polygon fill="#0EBDE1" points="53.882,82.291 53.869,81.133 98.223,80.276 98.234,81.436 			"/>
			<polygon fill="#07AAAE" points="53.882,82.291 53.894,83.549 98.25,82.694 98.234,81.436 			"/>
			<polygon fill="#DEBEA1" points="53.912,84.86 53.869,81.133 40.201,83.211 			"/>
			<polygon fill="#F1D7B7" points="53.894,83.549 53.869,81.133 40.201,83.211 			"/>
			<polygon fill="#FAF6C3" points="53.882,82.297 53.869,81.133 40.201,83.211 			"/>
			<polygon fill="#39454E" points="44.712,82.526 40.201,83.211 44.726,83.754 			"/>
			<path fill="#E76165" d="M98.242,84.001l5.188-0.1c0.928-0.019,1.682-0.312,1.678-0.65l-0.027-2.484
				c-0.006-0.342-0.766-0.605-1.689-0.586l-5.189,0.098L98.242,84.001z"/>
			<path fill="#A22163" d="M105.107,83.251l-0.023-1.951l-6.871,0.133l0.029,2.568l5.188-0.1
				C104.357,83.883,105.111,83.59,105.107,83.251z"/>
			<path fill="#802149" d="M105.107,83.251l-0.01-0.688l-6.873,0.134l0.018,1.305l5.188-0.1
				C104.357,83.883,105.111,83.59,105.107,83.251z"/>
		</g>
		<g>
			
				<rect x="75.466" y="64.726" transform="matrix(0.2909 0.9567 -0.9567 0.2909 133.3751 -15.7791)" fill="#04786C" width="3.733" height="34.729"/>
			
				<rect x="76.38" y="63.495" transform="matrix(0.2929 0.9561 -0.9561 0.2929 131.7315 -16.4086)" fill="#0EBDE1" width="1.16" height="34.729"/>
			<polygon fill="#07AAAE" points="60.517,86.47 60.878,87.676 94.105,77.569 93.74,76.362 			"/>
			<polygon fill="#DEBEA1" points="61.263,88.932 60.177,85.36 50.453,90.219 			"/>
			<polygon fill="#F1D7B7" points="60.878,87.676 60.177,85.36 50.453,90.219 			"/>
			<polygon fill="#FAF6C3" points="60.519,86.476 60.177,85.36 50.453,90.219 			"/>
			<polygon fill="#39454E" points="53.662,88.615 50.453,90.219 54.021,89.793 			"/>
			<path fill="#E76165" d="M94.469,78.827l3.887-1.183c0.693-0.212,1.182-0.651,1.082-0.977l-0.723-2.382
				c-0.1-0.327-0.748-0.422-1.441-0.209l-3.887,1.181L94.469,78.827z"/>
			<path fill="#A22163" d="M99.438,76.668l-0.568-1.87l-5.146,1.565l0.746,2.464l3.887-1.183
				C99.049,77.433,99.537,76.993,99.438,76.668z"/>
			<path fill="#802149" d="M99.438,76.668l-0.201-0.658l-5.148,1.566l0.381,1.251l3.887-1.183
				C99.049,77.433,99.537,76.993,99.438,76.668z"/>
		</g>
	</g>
</g>
</svg>
