<?xml version="1.0" encoding="utf-8"?>
<!-- Generator: Adobe Illustrator 16.0.0, SVG Export Plug-In . SVG Version: 6.00 Build 0)  -->
<!DOCTYPE svg PUBLIC "-//W3C//DTD SVG 1.1//EN" "http://www.w3.org/Graphics/SVG/1.1/DTD/svg11.dtd">
<svg version="1.1" id="Layer_1" xmlns="http://www.w3.org/2000/svg" xmlns:xlink="http://www.w3.org/1999/xlink" x="0px" y="0px"
	 width="128px" height="128px" viewBox="0 0 128 128" enable-background="new 0 0 128 128" xml:space="preserve">
<g>
	<circle fill="#D8B35F" cx="64" cy="64" r="64"/>
	<path fill="#B68A30" d="M96.416,27.135L67.89,46.329L56.83,99.478v4.861l22.104,21.891C107.073,119.5,128,94.202,128,64
		c0-1.978-0.103-3.931-0.278-5.862L96.416,27.135z"/>
	<g>
		<path fill="#334E5C" d="M111.533,72.054c0,0,4.971,6.286,0.947,12.891L56.327,103.3L13.948,59.922l5.574-1.604"/>
		<path fill="#FFFAF3" d="M110.439,73.697c0,0,3.228,4.705,1.197,8.834L57.352,99.999L17.928,60.588c0,0,2.106-5.651-0.552-8.2
			l89.81,18.118L110.439,73.697z"/>
		<polygon fill="#455D6A" points="15.663,50.687 54.469,89.204 111.533,72.054 67.365,39.294 		"/>
		<path fill="#E4776E" d="M99.999,61.657c0,0,4.009,5.067,0.764,10.393l-45.273,14.8L21.32,51.875l4.495-1.293"/>
		<path fill="#FFFAF3" d="M99.118,62.982c0,0,2.602,3.794,0.965,7.122L56.314,84.188L24.528,52.412c0,0,1.699-4.557-0.443-6.611
			l72.409,14.607L99.118,62.982z"/>
		<polygon fill="#E5766D" points="22.703,44.43 53.99,75.485 99.999,61.657 64.389,35.244 		"/>
		<g>
			<path fill="#1F84A6" d="M104.33,51.552c0,0,4.008,5.068,0.764,10.394L59.819,76.744L25.651,41.77l4.494-1.293"/>
			<path fill="#FFFAF3" d="M103.448,52.877c0,0,2.603,3.793,0.965,7.122L60.646,74.082L28.859,42.307c0,0,1.698-4.556-0.444-6.611
				l72.41,14.608L103.448,52.877z"/>
			<polygon fill="#2DA8D2" points="27.034,34.324 58.321,65.379 104.33,51.552 68.72,25.139 			"/>
		</g>
		<path fill="#AEB4AD" d="M91.441,36.814c0,0,2.962,4.261,8.21,5.24c0,0-28.167,7.917-37.056,15.659l0.061-3.882l11.114-9.979
			L91.441,36.814z"/>
		
			<ellipse transform="matrix(0.5396 0.8419 -0.8419 0.5396 68.8809 -24.4867)" fill="#E3E5E5" cx="56.831" cy="50.74" rx="8.704" ry="8.216"/>
		<path fill="#82898B" d="M64.266,45.462l-10.079,3.893c0,0,3.076,0.215,3.573,3.615c0.541,3.716-2.394,5.626-5.926,4.38
			c0,0,2.733,2.9,7.865,1.61c5.132-1.289,5.355-4.887,5.355-4.887l0.584-3.447L64.266,45.462z"/>
		<path fill="#B92025" d="M80.253,48.542c0,0,2.309,3.856,1.419,8.36l-1.987-2.403l-1.582,1.693c0,0,0.188-6.698-2.208-9.863
			L80.253,48.542z"/>
		<path fill="#E31E25" d="M80.706,44.46c0,0,7.664,5.375,14.222,4.539c0,0-2.516,1.515-3.908,1.497c0,0,1.477,2.207,3.245,2.593
			c0,0-11.804,0.326-17.857-6.644L80.706,44.46z"/>
		<path fill="#ECECEC" d="M88.025,24.829c0,0,11.676-2.146,10.596,11.04c0,0-26.235,9.979-34.782,21.004
			c0,0,2.426-3.585-0.408-9.063c-1.119-2.161-3.238-4.778-6.771-5.243c-1.204-0.161-2.183-0.148-2.567-0.054
			c0,0,0.03,0.045,2.565-0.714C64.323,39.51,80.656,33.786,88.025,24.829z"/>
		<path fill="#E31E25" d="M70.222,36.711c0,0,8.519-0.04,7.653,9.306l4.147-2.332c0,0,0.364-7.963-6.972-9.269L70.222,36.711z"/>
	</g>
</g>
</svg>
