<?xml version="1.0" encoding="utf-8"?>
<!-- Generator: Adobe Illustrator 16.0.0, SVG Export Plug-In . SVG Version: 6.00 Build 0)  -->
<!DOCTYPE svg PUBLIC "-//W3C//DTD SVG 1.1//EN" "http://www.w3.org/Graphics/SVG/1.1/DTD/svg11.dtd">
<svg version="1.1" id="Layer_1" xmlns="http://www.w3.org/2000/svg" xmlns:xlink="http://www.w3.org/1999/xlink" x="0px" y="0px"
	 width="128px" height="128px" viewBox="0 0 128 128" enable-background="new 0 0 128 128" xml:space="preserve">
<g>
	<circle fill="#2C4451" cx="64" cy="64" r="64"/>
	<path fill="#233640" d="M98.435,25.032l-67.197,76.715l-3.344,2.262l22.822,22.602C55.003,127.516,59.444,128,64,128
		c35.346,0,64-28.653,64-64c0-3.599-0.312-7.126-0.884-10.563L98.435,25.032z"/>
	<g>
		<rect x="35.739" y="45.323" fill="#4ABDE5" width="57.251" height="33.54"/>
		<path fill="#91D7EE" d="M96.208,24.615H31.794c-2.09,0-3.799,1.709-3.799,3.799v19.18h72.01v-19.18
			C100.005,26.324,98.296,24.615,96.208,24.615z M70.353,32.624h-3.521c-0.602,0.927-1.643,1.544-2.83,1.544
			c-1.189,0-2.23-0.617-2.832-1.544h-3.521c-1.391,0-2.531-0.826-2.531-1.835s1.141-1.835,2.531-1.835h3.521
			c0.602-0.928,1.643-1.545,2.832-1.545c1.188,0,2.229,0.617,2.83,1.545h3.521c1.393,0,2.531,0.826,2.531,1.835
			S71.745,32.624,70.353,32.624z"/>
		<g>
			<g>
				<rect x="29.624" y="43.968" fill="#233640" width="9.135" height="50.045"/>
				<rect x="29.624" y="49.341" fill="#ECC466" width="9.135" height="2.061"/>
				<rect x="29.624" y="53.705" fill="#ECC466" width="9.135" height="2.06"/>
				<rect x="29.624" y="58.143" fill="#ECC466" width="9.135" height="5.745"/>
				<polygon fill="#EECE7B" points="34.19,36.104 29.62,43.968 38.764,43.968 				"/>
			</g>
			<g>
				<rect x="41.547" y="43.968" fill="#233640" width="9.136" height="50.045"/>
				<rect x="41.547" y="49.813" fill="#A5D06E" width="9.136" height="2.06"/>
				<rect x="41.547" y="54.25" fill="#A5D06E" width="9.136" height="5.745"/>
				<polygon fill="#A5D06E" points="46.116,36.104 41.544,43.968 50.687,43.968 				"/>
			</g>
			<g>
				<rect x="53.472" y="43.968" fill="#233640" width="9.135" height="50.045"/>
				<rect x="53.472" y="49.813" fill="#E5766D" width="9.135" height="2.06"/>
				<rect x="53.472" y="54.25" fill="#E5766D" width="9.135" height="5.745"/>
				<polygon fill="#E5766D" points="58.037,36.104 53.467,43.968 62.61,43.968 				"/>
			</g>
			<g>
				<rect x="65.394" y="43.968" fill="#233640" width="9.137" height="50.045"/>
				<rect x="65.394" y="49.813" fill="#455D6A" width="9.137" height="2.06"/>
				<rect x="65.394" y="54.25" fill="#455D6A" width="9.137" height="5.745"/>
				<polygon fill="#455D6A" points="69.962,36.104 65.392,43.968 74.533,43.968 				"/>
			</g>
			<g>
				<rect x="77.318" y="43.968" fill="#233640" width="9.136" height="50.045"/>
				<rect x="77.318" y="49.813" fill="#1F84A6" width="9.136" height="2.06"/>
				<rect x="77.318" y="54.25" fill="#1F84A6" width="9.136" height="5.745"/>
				<polygon fill="#1F84A6" points="81.884,36.104 77.315,43.968 86.457,43.968 				"/>
			</g>
			<g>
				<rect x="89.242" y="43.968" fill="#233640" width="9.134" height="50.045"/>
				<rect x="89.242" y="49.341" fill="#ECC466" width="9.134" height="2.061"/>
				<rect x="89.242" y="53.705" fill="#ECC466" width="9.134" height="2.06"/>
				<rect x="89.242" y="58.143" fill="#ECC466" width="9.134" height="5.745"/>
				<polygon fill="#7B3A1A" points="93.808,36.104 89.237,43.968 98.382,43.968 				"/>
			</g>
		</g>
		<path fill="#CBEAF5" d="M87.376,47.199c-0.021,0.091-0.031,0.179-0.057,0.27l-3.885,14.705c-1.426,5.386-7.146,9.793-12.719,9.793
			H57.284c-5.57,0-11.293-4.407-12.719-9.793l-3.885-14.705c-0.023-0.091-0.035-0.179-0.057-0.27H27.995v56.684h72.01V47.199H87.376
			z"/>
		<rect x="27.995" y="90.214" fill="#4ABDE5" width="72.01" height="1.899"/>
		<rect x="27.995" y="84.598" fill="#1F84A6" width="72.01" height="3.799"/>
	</g>
</g>
</svg>
