<?xml version="1.0" encoding="utf-8"?>
<!-- Generator: Adobe Illustrator 18.1.0, SVG Export Plug-In . SVG Version: 6.00 Build 0)  -->
<!DOCTYPE svg PUBLIC "-//W3C//DTD SVG 1.1//EN" "http://www.w3.org/Graphics/SVG/1.1/DTD/svg11.dtd">
<svg version="1.1" id="Layer_1" xmlns="http://www.w3.org/2000/svg" xmlns:xlink="http://www.w3.org/1999/xlink" x="0px" y="0px"
	 viewBox="0 0 593 186" enable-background="new 0 0 593 186" xml:space="preserve">
<g id="PL_Logo_Mono_White">
	
		<linearGradient id="SVGID_1_" gradientUnits="userSpaceOnUse" x1="94.5326" y1="739.463" x2="94.5326" y2="739.463" gradientTransform="matrix(1.9203 0 0 -1.9203 -168.4072 1530.1431)">
		<stop  offset="0" style="stop-color:#701516"/>
		<stop  offset="0.6939" style="stop-color:#A51F1E"/>
		<stop  offset="1" style="stop-color:#E31D1D"/>
	</linearGradient>
	<path fill="url(#SVGID_1_)" d="M13.1,110.2"/>
	<path opacity="0.6" fill="#FFFFFF" enable-background="new    " d="M102.2,93.1c-49.5-32.3-79.7-28-87.9-21.7
		c-10,7.9-11.1,22.1-1.2,38.8C-2.1,70,49.2,72.5,98.4,107.1c47.4,33.4,56.3,80.3,28.8,70.3c10.2,4.2,19.4,5,25.7,0.4
		C164.4,169.5,161.9,132.3,102.2,93.1z"/>
	<g opacity="0.6">
		<path fill="#FFFFFF" d="M95.7,125C75.5,89.6,63.4,35.5,84.4,26.8c19.8-8.3,83.5,14.4,94.1,64.9c1-29.2-19.2-54.9-33-65.7
			C118.3,5,86.9,1.1,67.7,11.7s-36.3,38.8-9.2,94.9c21.3,44.2,73.5,86.4,94.5,71.2c2.3-1.7,4.2-4.6,5-8.6
			C152.7,183.7,113.7,156.8,95.7,125z"/>
		<path fill="#FFFFFF" d="M178.3,94.1"/>
	</g>
	<g opacity="0.6">
		<path fill="#FFFFFF" d="M86.5,6.3"/>
		<path fill="#FFFFFF" d="M13.1,110.2"/>
		<path fill="#FFFFFF" d="M145.2,25.7C126,10.9,104.3,4.8,86.5,6.3c24.4-1.9,75.5,69.3,37.3,109.5c-33.4,35.1-95.4,16.3-114.4-13.1
			c6.9,16.1,16.7,25,27.5,34c28,23.6,85.5,34.4,117.5,3.8C202.6,94.4,166.7,42.4,145.2,25.7z"/>
	</g>
	<g>
		<path fill="#FFFFFF" d="M200.5,77.3v-4.6h5.8V36.1h-5.8v-4.6h20.5c8.8,0,15.4,5.4,15.4,14.6c0,9-6,14-16.1,14h-8.6v12.7h7.1v4.6
			L200.5,77.3z M219.7,55.3c6.7,0,10.9-2.7,10.9-9.4c0-7.1-5.2-10-10.8-10h-8.1v19.2h7.9V55.3z"/>
		<path fill="#FFFFFF" d="M245.5,62.8c0.4,7.3,5.6,10.6,10.6,10.6c6.5,0,9.8-4.2,10.8-5.6l3.1,2.9c-0.8,1.3-5.2,7.3-14,7.3
			c-8.6,0-15.7-6.1-15.7-16.3c0-10.4,7.5-16.1,15-16.1c9.4,0,14.2,6.1,14.2,16.5v0.8H245.5z M264.1,58.5c-0.2-4.8-3.3-8.6-8.8-8.6
			c-4.8,0-8.8,2.9-9.8,8.6H264.1z"/>
		<path fill="#FFFFFF" d="M274.9,77.3v-4.2h4.4v-23h-4.4v-4.2h9v8.8h0.2c0,0,2.1-8.8,13.8-8.8h0.8v5h-2.1c-7.7,0-12.1,6-12.1,11.5
			v10.8h4.2v4.2H274.9z"/>
		<path fill="#FFFFFF" d="M301.9,77.3v-4.2h4.4v-23h-4.4v-4.2h4.4v-4c0-7.3,3.8-10.9,10.4-10.9c4.2,0,6.5,2.5,7.1,3.1l-2.5,3.3
			c-0.2-0.2-1.7-1.7-4-1.7c-3.5,0-5.6,2.1-5.6,6.3v3.8h9v4.2h-9v22.9h6.3V77h-16.1V77.3z"/>
		<path fill="#FFFFFF" d="M324,61.4c0-10.2,7.1-16.1,15.9-16.1s15.9,6.1,15.9,16.1s-6.7,16.3-15.9,16.3
			C330.9,77.7,324,71.4,324,61.4z M350.5,61.4c0-7.3-5-11.7-10.6-11.7c-5.6,0-10.6,4.4-10.6,11.7c0,7.3,4.8,11.7,10.6,11.7
			S350.5,68.7,350.5,61.4z"/>
		<path fill="#FFFFFF" d="M361.3,77.3v-4.2h4.4v-23h-4.4v-4.2h9v8.8h0.2c0,0,2.1-8.8,13.8-8.8h0.8v5H383c-7.7,0-12.1,6-12.1,11.5
			v10.8h4.2v4.2H361.3z"/>
		<path fill="#FFFFFF" d="M433.3,77.3V57.8c0-4.8-2.3-7.9-7.1-7.9c-4.6,0-6.9,3.1-7.9,4.6c0.2,0.8,0.4,1.7,0.4,2.5v16.1h4.4v4.2
			h-13.8v-4.2h4.2V58c0-4.8-2.3-7.9-6.9-7.9c-6.5,0-8.4,5.8-8.4,5.6v17.5h3.8v4.2h-13.6v-4.2h4.4v-23h-4.4v-4.2h9V51h0.2
			c0.8-1.3,3.5-5.6,10.4-5.6c4.6,0,7.9,1.9,9.6,5.4c1-1.3,3.6-5.4,10.4-5.4c6.9,0,10.9,4.4,10.9,11.1v16.5h4.4v4.2L433.3,77.3z"/>
		<path fill="#FFFFFF" d="M469.9,77.3v-5.8h-0.2c-1.2,1.5-4.8,6.1-12.5,6.1c-6,0-10.6-3.3-10.6-8.8c0-7.3,7.1-10.2,17.1-10.2h5.4V58
			c0-6.1-3.5-8.1-8.3-8.1c-6.9,0-10.2,3.5-10.2,3.5l-2.7-3.5c0,0,3.1-4.6,13.1-4.6c8.3,0,13.4,3.5,13.4,12.9v14.8h4.4v4.2h-9V77.3z
			 M469.4,63.1h-5.2c-6.5,0-11.9,1.3-11.9,5.6c0,2.7,2.3,4.6,6.5,4.6c5.2,0,9-4.2,10.6-6.1V63.1z"/>
		<path fill="#FFFFFF" d="M507.6,77.3V57.8c0-4.8-2.3-7.9-6.9-7.9c-6.5,0-8.4,5.6-8.4,5.6v17.7h3.8v4.2h-13.6v-4.2h4.4v-23h-4.4
			v-4.2h9V51h0.2c0.8-1.3,3.5-5.6,10.4-5.6c6.9,0,10.9,4.4,10.9,11.1v16.5h4.4v4.2L507.6,77.3z"/>
		<path fill="#FFFFFF" d="M551.2,70.4c-0.8,1.3-5,7.3-14,7.3c-8.6,0-15.7-6.1-15.7-16.3c0-10.4,7.5-16.1,15.2-16.1
			c5.8,0,8.8,2.9,10.2,4.8l0,0v-4.4h4v12.5h-4.4v-1.9c0-2.7-3.5-6.5-9-6.5c-4.8,0-10.6,4-10.6,11.7s5.4,11.7,10.8,11.7
			c6.3,0,9.8-4.2,10.8-5.8L551.2,70.4z"/>
		<path fill="#FFFFFF" d="M562.3,62.8c0.4,7.3,5.6,10.6,10.6,10.6c6.5,0,9.8-4.2,10.8-5.6l3.1,2.9c-0.8,1.3-5.2,7.3-14,7.3
			c-8.6,0-15.7-6.1-15.7-16.3c0-10.4,7.5-16.1,15-16.1c9.4,0,14.2,6.1,14.2,16.5v0.8H562.3z M581.1,58.5c-0.2-4.8-3.3-8.6-8.8-8.6
			c-4.8,0-8.8,2.9-9.8,8.6H581.1z"/>
		<path fill="#FFFFFF" d="M200.7,142.6v-2.3h6V99h-6v-2.3h14.8V99h-6.1v41.3h25.5v-7.1h2.7v9.4L200.7,142.6L200.7,142.6z"/>
		<path fill="#FFFFFF" d="M244.3,127.3c0.2,9.2,6.5,13.8,12.5,13.8c6.7,0,10.4-4,11.7-6.3l1.7,1.2c-1,1.7-5.2,7.3-13.4,7.3
			s-15-6.1-15-16.3c0-10.4,6.7-15.9,14.4-15.9c8.4,0,13.8,6.1,13.6,15.7v0.8h-25.5V127.3z M267.4,125c-0.4-7.1-4.4-12.1-10.9-12.1
			c-5.6,0-11.1,4.2-11.9,12.1H267.4z"/>
		<path fill="#FFFFFF" d="M300,142.6v-6.3l0,0c-1.7,2.3-5.8,6.9-13.6,6.9c-5.6,0-10.4-3.1-10.4-8.6c0-7.7,7.9-9.6,17.9-9.6h6.1v-1.7
			c0-8.3-4.2-10.4-10.2-10.4c-8.1,0-10.9,3.8-10.9,3.8l-1.3-1.7c0.6-0.6,3.5-4.2,12.3-4.2c8.3,0,12.9,3.5,12.9,12.5v17.3h4.6v2.1
			L300,142.6L300,142.6z M300,127.1h-6.1c-8.1,0-15.4,1.3-15.4,7.5c0,3.5,3.1,6.3,7.9,6.3c7.1,0,11.7-4.8,13.6-7.1L300,127.1
			L300,127.1z"/>
		<path fill="#FFFFFF" d="M311,142.6v-2.1h4.6v-27.3H311v-2.1h7.1v9.4h0.2c0,0,1.9-9.4,14.4-9.4h0.8v2.1h-1.3c-9.6,0-14,7.5-14,14
			v13.2h4.6v2.1H311z"/>
		<path fill="#FFFFFF" d="M363.2,142.6v-20.9c0-5.6-3.3-8.8-8.6-8.8c-8.3,0-10.9,6.7-10.9,6.7v21.1h4.6v2.1h-11.9v-2.1h4.6v-27.5
			h-4.6v-2.1h7.1l-0.2,5.2h0.2c1.2-1.9,4.2-5.6,10.9-5.6c6.9,0,11.1,4.2,11.1,10.9v18.8h4.6v2.1H363.2z"/>
		<path fill="#FFFFFF" d="M374.3,142.6v-2.1h4.6v-27.3h-4.6v-2.1h7.1v29.4h4.6v2.1H374.3z M380.3,103.8c-1.3,0-2.3-1-2.3-2.3
			c0-1.3,1-2.3,2.3-2.3s2.3,1.2,2.3,2.3S381.6,103.8,380.3,103.8z"/>
		<path fill="#FFFFFF" d="M417.1,142.6v-20.9c0-5.6-3.3-8.8-8.6-8.8c-8.3,0-10.9,6.7-10.9,6.7v21.1h4.6v2.1h-11.9v-2.1h4.6v-27.5
			h-4.6v-2.1h7.1l-0.2,5.2h0.2c1.2-1.9,4.2-5.6,10.9-5.6c6.9,0,11.1,4.2,11.1,10.9v18.8h4.6v2.1H417.1z"/>
		<path fill="#FFFFFF" d="M431.4,153.2l1.3-1.5c0,0,3.5,3.8,10.9,3.8c6,0,11.5-2.7,11.5-10.9v-9.4c-2.1,4.6-6,8.1-11.7,8.1
			c-8.6,0-14.4-6.9-14.4-16.3s5.8-15.9,14.4-15.9c5.6,0,9.6,3.1,11.7,7.7h0.2l-0.2-7.3h7.1v2.1h-4.6v31.1c0,9-5.8,13.1-14,13.1
			C434.6,157.4,431.4,153.2,431.4,153.2z M455.4,126.9c0-8.8-5.4-14-11.9-14s-11.9,5.2-11.9,14c0,8.4,5.2,14.2,11.9,14.2
			C450.2,141.1,455.4,135.3,455.4,126.9z"/>
	</g>
	<g>
		<path fill="#FFFFFF" d="M491.6,142.6c-8.5,0-15.7-7.2-15.7-15.7s7.2-15.7,15.7-15.7c8.5,0,15.7,7.2,15.7,15.7
			S500.2,142.6,491.6,142.6z M505.5,126.9c0-7.7-6.2-13.9-13.9-13.9c-7.7,0-13.9,6.2-13.9,13.9s6.2,13.9,13.9,13.9
			C499.3,140.8,505.5,134.6,505.5,126.9z M496.9,135.8l-3.3-6.6c-0.4-0.8-0.7-1.3-1.6-1.3h-4.1v6.4h2.6v1.5h-6.6v-1.5h2.3v-15.4
			h-2.3v-1.5h8.3c3.3,0,6,1.4,6,5.2c0,2.7-1.4,4.4-3.8,5c0.4,0.5,0.7,1.2,1.2,2l2.3,4.6h1.8v1.5H496.9z M492,126.4
			c2.9,0,4.5-1.1,4.5-3.7c0-2.6-1.9-3.8-4.5-3.8h-4.1v7.5H492z"/>
	</g>
</g>
</svg>
